<svg id="Layer_1" data-name="Layer 1" xmlns="http://www.w3.org/2000/svg" width="520" height="520" viewBox="0 0 520 520"><defs><style>.cls-1{fill:#221f1f;}</style></defs><title>Notioly v2</title><g id="_1.Podcast" data-name="1.Podcast"><ellipse class="cls-1" cx="264.12" cy="355.81" rx="2.37" ry="2.92" transform="translate(-162.8 474.58) rotate(-68.96)"/><path class="cls-1" d="M249.68,109l-.19.11s0,0,0,0l-.29.15s0,0,0,.06.18.05,0,.08-1.93.07-1.95,0,0-.13.3-.19.07-.08.11-.12l.15-.12.09-.07s.09-.08.06-.11a.91.91,0,0,0-.23-.09l-.07,0s.1,0,.6,0h.34a6.86,6.86,0,0,1,.81,0c.34,0,.39.09.39.14s0,.07-.07.11Z"/><path class="cls-1" d="M282.92,169a13.67,13.67,0,0,1-9.2,2.75c-.3,0-.59,0-.89-.07l-.87-.16a10,10,0,0,1-1.71-.44,20.64,20.64,0,0,1-9.38-7.44,46.2,46.2,0,0,1-2.95-4.35,27,27,0,0,1-2.9-6c-.39-1.33,1.89-.34,2.94,1.85a40.14,40.14,0,0,0,7.23,10.77A14.49,14.49,0,0,0,272,169.7a12.81,12.81,0,0,0,4.23.25,12.36,12.36,0,0,0,4-1.38,18.11,18.11,0,0,0,4.23-3.35,28.53,28.53,0,0,0,4.65-6.88,36.6,36.6,0,0,0,2.17-6c.11-.46.22-.9.34-1.36.45-1.69.66-2.21,1.25-2.46a1.92,1.92,0,0,1,.4-.17c.42-.09.55.69.34,2a34,34,0,0,1-4.34,11.53,25.68,25.68,0,0,1-6.3,7.19Z"/><path class="cls-1" d="M254.72,106.79a13.12,13.12,0,0,1,2,.33,5.75,5.75,0,0,1,.72.15,9.3,9.3,0,0,1,2.32,1.15c.33.19.65.41,1,.6s.42.27.62.42a1.56,1.56,0,0,1,.44.63c.11.29-1.57,1.14-1.8.91-.53-.47-1.11-.91-1.77-1.45a3.74,3.74,0,0,0-1.43-.53,10.4,10.4,0,0,0-1.68-.33,7.82,7.82,0,0,0-1.08-.06,6.23,6.23,0,0,0-1.61.2,4.06,4.06,0,0,0-1.07.61l-.2.16c-.27.17-.41.11-.73-.29l-.22-.27a.69.69,0,0,1,0-.9,4.36,4.36,0,0,1,2.48-1.24,9,9,0,0,1,2.07-.13Z"/><path class="cls-1" d="M342.94,103.7c-12.48-50.36-48.51-36.31-51.21-33.32-2.48-1.66-16.48-16-36-13.26C242.6,59,227.86,66.55,226.25,81c-1.21,10.93,3.62,21.5,13.41,26.68,5.2,2.75,13.28,4.21,41.57-5.77,14.86,8.3,15.68,39.76,7.46,57.19,5.09,3,23.73,18.45,43.61,3.11C349.78,148.7,347.66,122.74,342.94,103.7Zm-34.37,21a7.2,7.2,0,0,1-6.63,4.11c.15-2.53-2.37-9.32-2.37-9.32s2.05-5.68,5.84-4.42S310.78,120.23,308.57,124.65Z"/><path class="cls-1" d="M290,115.43c-1.61-4.63-4.18-9-8.09-11.8l-.75-.47s-.07-.06-.11,0l-1.6.54c-1.21.41-2.41.83-3.63,1.22L272.17,106l-3.68,1.09a96.31,96.31,0,0,1-15.06,3.25,32.16,32.16,0,0,1-7.85.13,19.18,19.18,0,0,1-3.92-.9,19.65,19.65,0,0,1-3.6-1.75c-.85-.46-1.6-1.06-2.4-1.6a26.28,26.28,0,0,1-2.2-1.88,25.21,25.21,0,0,1-3.72-4.4,27.34,27.34,0,0,1-2.68-5.11,30.32,30.32,0,0,1-1.53-5.54,29.23,29.23,0,0,1,.07-10.09A22.51,22.51,0,0,1,229.65,70,28.71,28.71,0,0,1,237,63.1a41.52,41.52,0,0,1,9-4.41,49.42,49.42,0,0,1,9.67-2.34,38.76,38.76,0,0,1,10,0,42.51,42.51,0,0,1,9.62,2.6A52.21,52.21,0,0,1,284,63.65c1.45.94,2.83,2,4.19,3l2,1.62,1,.81.32.27a1.84,1.84,0,0,0,.25.17,1.68,1.68,0,0,1,.29-.24s.2-.14.3-.19l.36-.2a16,16,0,0,1,1.44-.71,26.92,26.92,0,0,1,3-1.08,33.14,33.14,0,0,1,6.14-1.26,32.16,32.16,0,0,1,12.39,1,30.77,30.77,0,0,1,10.11,5A37.49,37.49,0,0,1,333.56,80a50.92,50.92,0,0,1,5.51,9.81c.41.85.74,1.72,1.07,2.6s.68,1.74,1,2.62c.54,1.79,1.19,3.54,1.61,5.36,1.16,4.5.52,4-1,.36q-.27-.69-.6-1.5l-.74-1.74-.82-2c-.29-.69-.64-1.41-1-2.16a73.9,73.9,0,0,0-5.29-10,38.65,38.65,0,0,0-7.76-9,29.2,29.2,0,0,0-10.34-5.58,30.13,30.13,0,0,0-11.75-1,31.29,31.29,0,0,0-5.84,1.16,24,24,0,0,0-2.77,1,12.8,12.8,0,0,0-1.29.62l-.3.17c-.13.07-.1.07-.36.24s-.8.66-1.18,1l-1-.75c-.34-.24-.71-.55-.81-.64l-1-.83c-.65-.55-1.32-1.08-2-1.61-1.33-1-2.69-2-4.1-3A48.65,48.65,0,0,0,274,60.46,36.06,36.06,0,0,0,264.24,58a36.75,36.75,0,0,0-5-.22,50.34,50.34,0,0,0-5,.55,45.35,45.35,0,0,0-12.8,4.15A29.13,29.13,0,0,0,231,71.06a24.81,24.81,0,0,0-1.78,2.86l-.68,1.54c-.11.26-.23.51-.33.77L228,77c-.15.54-.34,1.07-.47,1.62l-.29,1.66A11.68,11.68,0,0,0,227,82a16.31,16.31,0,0,0-.08,1.71,26.56,26.56,0,0,0,3,13.08,24.35,24.35,0,0,0,10.37,10.29c4.37,2.28,9.61,2,14.57,1.28a111.34,111.34,0,0,0,14.84-3.5c2.45-.72,4.88-1.51,7.3-2.32l3.79-1.29c.49-.35.9.18,1.3.37l.84.53c.52.42,1.08.79,1.57,1.24a22.05,22.05,0,0,1,3.26,3.64,29.15,29.15,0,0,1,2.43,4.18,41.13,41.13,0,0,1,3,9.12,68.33,68.33,0,0,1-1.77,33.18c-.37,1.15-.77,2.29-1.23,3.41-.11.28-.22.57-.34.84l-.31.69-.1.23-.05.11,0,.06.06,0,.41.26c1.94,1.27,4,2.62,6,3.78a40.33,40.33,0,0,0,13.14,5,27.09,27.09,0,0,0,13.78-1.09,32.76,32.76,0,0,0,9.38-5.28,31.74,31.74,0,0,0,7.11-8c3.82-6.06,5.54-13.21,6-20.36a74.83,74.83,0,0,0,0-9.47c-.4-5.93-1.08-9.8-1.48-12.53a46.62,46.62,0,0,1-.67-5.61c0-.6-.1-1.38-.07-1.73.05-.61.46.25,1.08,2.35a75.74,75.74,0,0,1,2.12,9.82,77.33,77.33,0,0,1,.68,20,42.36,42.36,0,0,1-6.63,19.44,34,34,0,0,1-7.2,7.71,35.48,35.48,0,0,1-9.24,5.22,28.83,28.83,0,0,1-10.57,1.77,33.52,33.52,0,0,1-10.51-2A61.12,61.12,0,0,1,289,160.77l-1.56-1c-.11-.09-.31-.15-.35-.27l.19-.43.39-.88.53-1.2.35-.87c.47-1.15.88-2.33,1.25-3.53a58.69,58.69,0,0,0,1.77-7.32,68,68,0,0,0,1-15.07A52.14,52.14,0,0,0,290,115.47Z"/><path class="cls-1" d="M303.17,116.38a5.21,5.21,0,0,0-1.53,1.42,10.75,10.75,0,0,0-.63,1,5.12,5.12,0,0,0-.27.52l-.1.18v.1l0,.14c.22.68.48,1.33.67,2q.48,1.65.84,3.36c.12.57.22,1.14.31,1.73l.06.44,0,.21v.09c0,.12,0,.26,0,.4s0,.06.07.06h.13a3.82,3.82,0,0,0,1-.18,6.09,6.09,0,0,0,1.36-.59,9.65,9.65,0,0,0,2.63-2.66c.25-.31.67-.08.89.48a2.14,2.14,0,0,1-.41,2.2,7.84,7.84,0,0,1-3,2.09,8,8,0,0,1-1.8.48,8.26,8.26,0,0,1-1.42.1c-.45,0-.92,0-1.32-.11,0-.39,0-.78,0-1.16v-.57c0-.17,0-.44,0-.49,0-.35-.06-.73-.11-1.1a29.85,29.85,0,0,0-1.3-5l-.29-.9-.14-.45-.26-.74c.09-.24.19-.48.3-.71s.16-.34.24-.51.34-.6.52-.9a9.78,9.78,0,0,1,1.32-1.64,5.35,5.35,0,0,1,1.67-1.15,4,4,0,0,1,2.09-.27l.77.19.68.28a9,9,0,0,1,1.26.76,6.49,6.49,0,0,1,1.89,2.24,7.56,7.56,0,0,1,.8,4.4,6.46,6.46,0,0,1-.16,1c-.33,1.19-.67,1.48-1.21,1.5a1.53,1.53,0,0,1-.37,0c-.39-.08-.47-.62-.31-1.35.48-2.2.25-4.47-1.26-5.87a5.35,5.35,0,0,0-2-1.17,2,2,0,0,0-1.77.21Z"/><path class="cls-1" d="M260.88,162.19h0c-7,4.32-12.54,2.29-14.73,1.2-8.49-4.21-8.31-15.67-6.9-23.69,1.57-9,5.8-21,5.62-30.59a29.47,29.47,0,0,0,3.65.34C248.63,120,251.24,147.92,260.88,162.19Z"/><path class="cls-1" d="M247.47,113.12c0-.83-.07-1.74-.07-2.5,0,0,0-.11,0-.13h-.09l-.29,0-.92-.1-.08,0h0s0,.06,0,.09l0,.46,0,.44,0,.64A68.75,68.75,0,0,1,244.3,122c-.53,2.4-1.07,4.8-1.68,7.16-1.06,4.18-2.2,8.32-2.85,12.5a32.43,32.43,0,0,0,.2,12.54,14.75,14.75,0,0,0,2.25,5,11.08,11.08,0,0,0,4.06,3.48A13,13,0,0,0,253,164a14.12,14.12,0,0,0,3.4-.61c.57-.14,1.1-.37,1.66-.56s1.08-.44,1.6-.73.9-.36,1-.26l-.18.32h.1l.13-.24c.07.25-.4,1.07-1.52,1.94a10.38,10.38,0,0,1-5.15,2.11,15,15,0,0,1-8-1.22,13.4,13.4,0,0,1-6-5.39,19.38,19.38,0,0,1-2.41-7.54,33.77,33.77,0,0,1,0-7.72,77.13,77.13,0,0,1,1.63-9.12c.7-3,1.46-6,2.18-9,.8-3.27,1.56-6.53,2.06-9.83a48.87,48.87,0,0,0,.52-4.95l0-.31v-.45l0-.9v-1.12c0-.06,0-.19.08-.15l.49,0,3.3.33c.41,0,.81.07,1.19.12l0,1.21,0,1.74c0,1,.06,2.06.13,3.09q.17,3.1.47,6.19a139.7,139.7,0,0,0,2.91,18.52,84.25,84.25,0,0,0,4.36,13.6l1.28,2.83c1.72,3.48,2.37,4.51,2.37,5.52a3.62,3.62,0,0,1,0,.66c-.06.27-.36.11-.86-.44-.25-.27-.55-.64-.89-1.09A11.68,11.68,0,0,1,258,159a58.58,58.58,0,0,1-5.18-12.3,111.37,111.37,0,0,1-3.14-13.3,156.79,156.79,0,0,1-2.23-20.29Z"/><path class="cls-1" d="M291.94,161.51c1.24,7.35.24,13.82-8.77,15.25-7.92,1.27-12-5.35-12.13-5.72,0,0,8.36,3.05,15.12-6.9l3.53-5.07Z"/><path class="cls-1" d="M274.27,172.47a4.23,4.23,0,0,1-.64,0h-.07l-.18-.05s-.12,0-.12,0l0,.09a1.38,1.38,0,0,0,.16.23l0,0,.14.13.29.28a7.46,7.46,0,0,0,.61.53,10.82,10.82,0,0,0,1.31.94,10.23,10.23,0,0,0,2.95,1.2,11.74,11.74,0,0,0,5.65,0,9.57,9.57,0,0,0,5-2.56,7.91,7.91,0,0,0,2.11-4.49,28.53,28.53,0,0,0-.1-6.65c-.05-.7.37-.68.86-.14a5,5,0,0,1,1.12,3,17.25,17.25,0,0,1-.15,3.72,10.65,10.65,0,0,1-1.2,3.66,8.58,8.58,0,0,1-2.58,2.94,11.73,11.73,0,0,1-1.66,1,13.62,13.62,0,0,1-1.78.65l-1.09.29-1.1.2a6.72,6.72,0,0,1-1.12.16c-.38,0-.76.09-1.14.1a11.9,11.9,0,0,1-4.54-.74,13,13,0,0,1-4.05-2.49l-.43-.41-.21-.21-.3-.33a14,14,0,0,1-1.08-1.33c-.49-.83-1.17-1.8-.88-2.07l1,.31a13.69,13.69,0,0,0,1.38.34,5.86,5.86,0,0,0,1.18.15,10.73,10.73,0,0,0,1.39,0,11.67,11.67,0,0,0,2.74-.54,14.71,14.71,0,0,0,6.84-5c.66-.9,1.3-1.81,1.9-2.77l1.85-2.88,1.2-1.8.21.23c.52.55,1,1,1.32,1.43a7,7,0,0,1,.49.64,1.48,1.48,0,0,1,.28.93,2.41,2.41,0,0,1,0,.4c-.12.35-.84,0-1.83-.94a2.66,2.66,0,0,0-.27-.17c0,.13-.09.22-.11.29l-.74,1.16c-.5.77-1,1.55-1.53,2.33s-1.12,1.58-1.7,2.37a23.64,23.64,0,0,1-2.09,2.16,14.07,14.07,0,0,1-9.33,3.77Z"/><path class="cls-1" d="M206,243.48c5-6.35,10.33-12.45,15.77-18.42s11-11.8,16.74-17.49c4.14-4.14,8.06-8.53,12.36-12.61a57.83,57.83,0,0,1,12.59-9.44,35.7,35.7,0,0,1,3.59-1.7,16.62,16.62,0,0,1,1.87-.68c.63-.21,1.25-.44,1.89-.62a36.58,36.58,0,0,1,7.84-1.23,29,29,0,0,1,7.93.55,25.63,25.63,0,0,1,7.43,2.87,37.65,37.65,0,0,1,11.51,10.71,92.27,92.27,0,0,1,7.18,11.89c2.14,4.09,4.14,8.23,6.11,12.34,5.07,10.56,10.11,21.2,16.61,30.85,2.06,3,1.4,2.89-.79.64a60.35,60.35,0,0,1-8.87-12.88c-5.69-10.63-10.27-21.71-15.88-32.2a62.29,62.29,0,0,0-10-14.48,31,31,0,0,0-6.84-5.35,24.89,24.89,0,0,0-8.13-2.91,18.49,18.49,0,0,0-2.59-.29L281,183c-.44,0-.89,0-1.33,0-.89,0-1.78,0-2.66.14l-2.65.36a34.9,34.9,0,0,0-10.12,3.61c-6.4,3.44-11.74,8.68-16.86,13.93-2.82,2.9-5.61,5.86-8.5,8.73s-5.69,5.76-8.48,8.7c-5.58,5.88-11,11.87-16.29,18-3.23,3.8-6.38,7.66-9.39,11.63a127.71,127.71,0,0,0-8.37,12.32,53.38,53.38,0,0,0-2.6,5,25.12,25.12,0,0,0-1.78,5.24,6.75,6.75,0,0,0,.57,5,13.83,13.83,0,0,0,4,3.58,50.89,50.89,0,0,0,10.25,4.46c3.57,1.17,7.19,2.15,10.82,3.08,5.65,1.45,11.29,2.7,16.88,4.22a61.42,61.42,0,0,1,8.28,2.77,13.67,13.67,0,0,1,3.88,2.39,12.75,12.75,0,0,1,1.42,1.83,21,21,0,0,1,1.14,1.94,18.28,18.28,0,0,1,2,7.62,17.4,17.4,0,0,1-.83,6.19,18.12,18.12,0,0,1-.85,2.2c-.35.62-.62,1.19-1,1.67a9.51,9.51,0,0,1-3.3,3.26,10.86,10.86,0,0,1-1.27.59c-.23.06-.23-.06,0-.34s.26-.31.47-.53a6.74,6.74,0,0,0,.7-.8,17.22,17.22,0,0,0,3.56-6.56,17.46,17.46,0,0,0,.49-7.3,16.9,16.9,0,0,0-2.67-6.85l-.54-.77-.26-.38-.28-.29-.27-.28-.34-.26a4.83,4.83,0,0,0-.72-.5,20.09,20.09,0,0,0-3.39-1.64,78.44,78.44,0,0,0-7.52-2.38c-5.15-1.39-10.43-2.59-15.71-3.94a130.61,130.61,0,0,1-15.78-4.83,38.58,38.58,0,0,1-5.66-2.71,16.43,16.43,0,0,1-5-4.27,6.59,6.59,0,0,1-1.19-3.49,12.5,12.5,0,0,1,.29-3.38,28.88,28.88,0,0,1,2.15-6,80,80,0,0,1,6.3-10.67c2.32-3.39,4.77-6.66,7.3-9.88Z"/><path class="cls-1" d="M225.35,251.21q3-3.61,6.05-7.29l2.14-2.71,7.79-9.4c1.17-1.38,2.29-2.81,3.43-4.2a28.59,28.59,0,0,1,4.81-5.1c.62-.45.81,0,.67.76a6,6,0,0,1-1.46,2.74c-3.07,3.43-6,7.08-9.17,10.62-1.87,2.12-3.62,4.5-5.45,6.75q-3,3.72-6.06,7.4l-3.8,4.51c-1.92,2.26-3.92,4.49-5.91,6.68-1.56,1.7-3,3.41-4.78,5a12.74,12.74,0,0,1-1.19,1,6.24,6.24,0,0,1-1.07.67,2.74,2.74,0,0,1-.85.32,1.14,1.14,0,0,1-1.09-.21,1.19,1.19,0,0,1-.3-.29c-.08-.18.07-.39.3-.57l.19-.13.25-.19c.19-.14.4-.24.65-.45a32.9,32.9,0,0,0,4.37-4c1.42-1.5,2.85-3.06,4.25-4.65q3.13-3.56,6.19-7.24Z"/><path class="cls-1" d="M257.54,294.54a23.32,23.32,0,0,0-3.88-6.19,16.78,16.78,0,0,0-5.77-4.32,47.64,47.64,0,0,0-5.17-1.88c-6.24-2.1-12.51-4.17-18.73-6.39-2.76-1-5.54-2-8.27-3-1.75-.67-3.51-1.35-5.23-2.14a19.7,19.7,0,0,1-4.93-3c-.92-1-.34-1.08.64-.79a26.23,26.23,0,0,1,4.57,1.64c3.36,1.59,6.9,2.94,10.45,4.28L232,276.67c4.31,1.57,8.89,2.9,13.36,4.41.61.22,1.23.42,1.84.66l1.85.82a11.31,11.31,0,0,1,1.76,1,10.46,10.46,0,0,1,1.66,1.15,20.62,20.62,0,0,1,5.2,6,32.67,32.67,0,0,1,3.55,9,46.64,46.64,0,0,1,1.12,7.23c.11,1.22.14,2.42.14,3.66a16.53,16.53,0,0,1-.57,3.67,30.32,30.32,0,0,1-4.76,10.18,16.55,16.55,0,0,1-1.67,1.91,7.19,7.19,0,0,1-2.93,1.86,2.05,2.05,0,0,1-1.63-.07,1.75,1.75,0,0,1-.46-.31c-.26-.43.88-.5,2.46-1.68a14.16,14.16,0,0,0,3.13-3.39,28.1,28.1,0,0,0,2.38-4.23,28.52,28.52,0,0,0,1.69-4.63,18,18,0,0,0,.45-2.37,11.3,11.3,0,0,0,.08-1.15l0-1.25a41.5,41.5,0,0,0-3.09-14.63Z"/><path class="cls-1" d="M252,314.38a17.35,17.35,0,0,1-1.34,4.74,13,13,0,0,1-3.57,4c-.91.74.49,1.27,1.14.74a15.72,15.72,0,0,0,3.9-4.19,17,17,0,0,0,1.63-5.4c.15-.83-1.62-.6-1.76.15Z"/><path class="cls-1" d="M255.55,315.64c-.85,3.84-2.92,8.53-6.51,10.53-1,.58-.09,1.56.79,1.07,4.13-2.31,6.5-7.26,7.49-11.72.19-.87-1.59-.68-1.77.12Z"/><path class="cls-1" d="M413.05,175.47a27.76,27.76,0,0,1-.63,3c-.13.5-.28,1-.45,1.49-.08.25-.17.5-.28.77s-.25.5-.36.74a24.42,24.42,0,0,1-3.41,5.18,19.54,19.54,0,0,1-4.81,4,23.7,23.7,0,0,1-5.73,2.35c-2,.54-3.94.89-5.85,1.29a17.48,17.48,0,0,0-5.28,1.77,6.5,6.5,0,0,0-1.92,1.69,10.13,10.13,0,0,0-1.25,2.39l-2.19,5.49c-2.12,5.37-4.21,10.76-6.41,16.09-3.87,9.41-7.88,18.77-12.24,28-2.19,4.6-4.46,9.17-7,13.63-1.24,2.23-2.56,4.42-4,6.57a30.57,30.57,0,0,1-4.93,6,11.37,11.37,0,0,1-6.53,2.75,13.39,13.39,0,0,1-6.87-1.53c-4.2-2.1-7.55-5.33-10.58-8.68a98.28,98.28,0,0,1-10.16-14.1,97.28,97.28,0,0,1-7.71-15.58,9.12,9.12,0,0,1-.51-2c0-.49,0-.72.13-.68s.22.29.43.66l.87,1.56c1.49,2.65,4.22,7.48,7.5,13.16a103.15,103.15,0,0,0,9.82,14.33,51.26,51.26,0,0,0,6,6.16,21.8,21.8,0,0,0,7.1,4.24c.32.09.64.21,1,.29l1,.16.49.08h1.46a9.36,9.36,0,0,0,3.7-1.12l.87-.49.76-.6a17.83,17.83,0,0,0,1.46-1.43,36.72,36.72,0,0,0,2.63-3.38,84.67,84.67,0,0,0,4.6-7.43c1.44-2.55,2.83-5.15,4.16-7.78,6.36-12.6,11.94-26.25,17.35-39.68l4.41-11.09c.76-1.87,1.43-3.68,2.28-5.59a8.77,8.77,0,0,1,4.66-4.37,30.41,30.41,0,0,1,5.91-1.61,47.59,47.59,0,0,0,5.71-1.39,18.22,18.22,0,0,0,9.24-6.55,26,26,0,0,0,1.89-3,14.78,14.78,0,0,0,.75-1.57c.2-.55.37-1.12.53-1.7a22.24,22.24,0,0,0,.66-3.5,9.72,9.72,0,0,0,0-1.7,3.11,3.11,0,0,0-.16-.74.68.68,0,0,0-.25-.39.49.49,0,0,0-.42-.09.6.6,0,0,0-.2.08,1.26,1.26,0,0,0-.29.2,9,9,0,0,0-1.21,1.19c-.79.89-1.52,1.87-2.26,2.84s-1.47,2-2.29,2.93a8.45,8.45,0,0,1-1.46,1.38,11,11,0,0,1-1.74.89c-3.7,1.44-7.58,1-11.1,1.71a20.1,20.1,0,0,0-9.54,4.86,50.1,50.1,0,0,0-7.22,8.27c-2.17,3-4.32,6-6.31,9.08-6.18,9.62-11.75,19.37-17,29.37-1.15,2.21-2.25,4.37-3.35,6.63-1,2.07-1.84,3.82-2.55,5.27s-1.23,2.63-1.68,3.61a34.57,34.57,0,0,1-2,3.9c-.25.39-.56.93-.75,1.15-.62.77.08-3.09,2.86-9.39A293.85,293.85,0,0,1,356.82,218c2.67-4.57,5.43-9.12,8.34-13.62,1.45-2.24,3-4.52,4.54-6.67s3.13-4.39,4.86-6.5a31,31,0,0,1,9.32-8.14,20.19,20.19,0,0,1,6-2.09c2.09-.38,4.12-.42,6.05-.62a14.27,14.27,0,0,0,5.3-1.34c.18-.11.39-.22.54-.32a2.69,2.69,0,0,0,.4-.34,11.32,11.32,0,0,0,.91-1c.61-.73,1.2-1.52,1.81-2.32s1.21-1.6,1.86-2.4a13.27,13.27,0,0,1,2.33-2.37l.25-.15.33-.17a3.34,3.34,0,0,1,.69-.18,2,2,0,0,1,1.37.22,3,3,0,0,1,1.39,2.09,10.65,10.65,0,0,1,0,3.39Z"/><path class="cls-1" d="M393.43,176.57s-.08-.07-.13-.08-.28.11-.43.16l-.45.27c-.22.17-.4.37-.61.56a12.74,12.74,0,0,0-2.09,2.34,7.33,7.33,0,0,0-.68,1.26,6.49,6.49,0,0,1-.73,1.63c-.12.15-.57,0-1-.32s-.69-.79-.55-1.17a10.08,10.08,0,0,1,2.25-3.41c.6-.58,1.06-1.3,1.72-1.88a6.64,6.64,0,0,1,1.22-.85,3.82,3.82,0,0,1,.74-.31,2.4,2.4,0,0,1,1-.14,1.12,1.12,0,0,1,1,.41,2,2,0,0,1,.44,1.05,4.49,4.49,0,0,1,0,1.49,9.15,9.15,0,0,1-.37,1.28,16.66,16.66,0,0,1-.74,1.88c-.07.13-.12.27-.2.39-.31.47-.54.52-1,.27a2.28,2.28,0,0,1-.3-.17.77.77,0,0,1-.29-.91c.34-1,.79-1.89,1-2.78a3,3,0,0,0,.08-.45c0-.13,0-.37,0-.41s0,0,0-.06Z"/><path class="cls-1" d="M318.87,243.48c-.78.51-1.57,1-2.39,1.43-.3.16-.57.37-.88.5a22.83,22.83,0,0,1-3.35,1.23c-.51.14-1,.33-1.49.49a4.53,4.53,0,0,1-1.95.45c-.42,0-.24-1.92.42-2.09,1.2-.32,2.4-.6,3.66-.89a9.2,9.2,0,0,0,2.13-.95c.76-.41,1.52-.83,2.25-1.31q.68-.43,1.32-.93a19,19,0,0,0,1.88-1.59,17.37,17.37,0,0,0,1.2-1.49c.09-.11.16-.23.25-.34.35-.39.56-.42,1-.14a2.9,2.9,0,0,1,.29.19.72.72,0,0,1,.19,1,11,11,0,0,1-2.32,2.77,24.76,24.76,0,0,1-2.17,1.75Z"/><path class="cls-1" d="M233.24,233.08a19.25,19.25,0,0,1-1.88-1.84,8.57,8.57,0,0,1-.66-.69,22.33,22.33,0,0,1-1.8-2.78c-.24-.41-.5-.82-.78-1.22a4.16,4.16,0,0,1-.84-1.63c-.06-.39,1.78-.76,2.08-.19.58,1,1.11,2,1.61,3.11a7.73,7.73,0,0,0,1.3,1.71,16.46,16.46,0,0,0,1.65,1.69,14.35,14.35,0,0,0,1.15.91,9.92,9.92,0,0,0,2,1,8,8,0,0,0,1.67.32c.12,0,.25,0,.37,0,.45.07.56.23.57.74,0,.11,0,.23,0,.35a.69.69,0,0,1-.68.68,6.73,6.73,0,0,1-3.45-.77,13.47,13.47,0,0,1-2.29-1.42Z"/><path class="cls-1" d="M282,194.48a19.41,19.41,0,0,1-4.45,1.21,13.52,13.52,0,0,1-1.72.18,10.75,10.75,0,0,1-5.73-1.85,9.37,9.37,0,0,1-2-1.79,4.54,4.54,0,0,1-1.23-3.31c0-.38.52-.3,1-.06a2.62,2.62,0,0,1,.68.43,1.18,1.18,0,0,1,.45.55,7.28,7.28,0,0,0,3.81,3.62,6.93,6.93,0,0,0,3.53.55,16.2,16.2,0,0,0,4.08-.89,18.25,18.25,0,0,0,2.42-1,21.62,21.62,0,0,0,3.39-2.12,21.3,21.3,0,0,0,2.22-2.13c.16-.16.29-.34.45-.5.6-.59.86-.7,1.35-.47a2,2,0,0,1,.33.16c.33.21.3.68-.08,1.21a17.83,17.83,0,0,1-4.39,4.07,23.73,23.73,0,0,1-4.06,2.21Z"/><path class="cls-1" d="M255.1,259.19c.31-2.88.58-5.77.78-8.67.08-1.06.08-2.12.15-3.17.22-3.73.39-7.46.38-11.19,0-1.66-.1-3.32-.26-4.94a39.55,39.55,0,0,0-1-6c-.17-.49.22-.79.91-.45a3.72,3.72,0,0,1,1.67,2.64,61,61,0,0,1,.42,13.21c-.17,2.62-.16,5.35-.31,8-.16,2.94-.4,5.88-.68,8.81-.17,1.81-.37,3.61-.57,5.41-.32,2.73-.72,5.46-1.12,8.16-.32,2.1-.57,4.17-1,6.26-.11.45-.17.91-.32,1.37-.5,1.7-1,2.22-1.56,2.32a2.08,2.08,0,0,1-.41,0c-.2,0-.29-.24-.29-.56a7.12,7.12,0,0,1,.26-1.35c.86-3.46,1.39-7.35,1.95-11.21.39-2.88.75-5.79,1-8.71Z"/><path class="cls-1" d="M308.69,278.54c-1.07-3.35-2-6.74-2.83-10.14-.31-1.25-.64-2.48-.92-3.73q-1.41-6.62-2.27-13.32c-.25-2-.53-4-.73-5.95a31,31,0,0,1-.19-7.71c.12-.82.59-.64,1,.06a7.1,7.1,0,0,1,.88,3.29c.2,5.06.86,10.16,1.54,15.3.41,3.08,1.17,6.23,1.89,9.32.79,3.4,1.67,6.79,2.69,10.13.62,2.06,1.29,4.1,2,6.12a73.76,73.76,0,0,0,3.86,8.93,39.37,39.37,0,0,0,4,6.18l1,1.22c1.32,1.49,1.71,1.95,1.68,2.63a2.3,2.3,0,0,1,0,.46c-.1.42-1,.1-2.13-1-3.39-3.21-5.77-7.5-7.79-11.83a100.37,100.37,0,0,1-3.83-10Z"/><path class="cls-1" d="M283.93,209.22a5.79,5.79,0,0,1-.5.72,4.7,4.7,0,0,1-.66.6,3.09,3.09,0,0,1-1.88.66,2.61,2.61,0,0,1-1.92-.95,7,7,0,0,1-.47-.78l-.27-.76a3.61,3.61,0,0,1,.1-2.56A2.93,2.93,0,0,1,282.5,205a2.56,2.56,0,0,1,1,2.07,5.29,5.29,0,0,1-.43,1.93,2.64,2.64,0,0,1-1.29,1.48,2,2,0,0,1-2.05-.31,3.45,3.45,0,0,1-1.28-2,2.77,2.77,0,0,1,.46-2.32c.32-.42.62,0,.88.5a7.54,7.54,0,0,1,.64,1.28,1.77,1.77,0,0,0,.45.93c.13.1.16.14.15.14l0,0a2.12,2.12,0,0,0,.47-.91,3.6,3.6,0,0,0,.16-.67,1.13,1.13,0,0,1,0-.26c0-.09,0-.13,0-.22-.06-.28-.51-.5-1-.32a1.2,1.2,0,0,0-.83,1,2.23,2.23,0,0,0,.11.93,2.13,2.13,0,0,0,.42.84.61.61,0,0,0,.55.26,1.45,1.45,0,0,0,.78-.35,2.8,2.8,0,0,0,.75-1,2.74,2.74,0,0,0,.17-1.26,2.1,2.1,0,0,0-1-1.49,1.35,1.35,0,0,0-1.48.64,2.81,2.81,0,0,0-.52,1.46,2.45,2.45,0,0,0,.34,1.38c.08.19.27.3.38.47.56.52.78.68.73,1.25,0,.12,0,.26,0,.38-.05.38-.61.52-1.44.07a4,4,0,0,1-1.81-3.93,4.7,4.7,0,0,1,.87-2.17,3.48,3.48,0,0,1,2.3-1.43,2.69,2.69,0,0,1,1.22.13,4,4,0,0,1,1,.58,4,4,0,0,1,1.07,1.58,4.32,4.32,0,0,1-.32,3.58Z"/><path class="cls-1" d="M278.88,223.23a3.22,3.22,0,0,1,2.51-.23,3,3,0,0,1,1.8,1.74,3.47,3.47,0,0,1,.25,1.68,3.12,3.12,0,0,1-1.64,2.42,2.25,2.25,0,0,1-1.59.17,2.68,2.68,0,0,1-1.25-.73,3.66,3.66,0,0,1-1-2.15,3.38,3.38,0,0,1,.13-1.54,2,2,0,0,1,1.1-1.24c.35-.14.46.36.56.85s.34.9.28,1.06a1.91,1.91,0,0,0,0,1.31,1.26,1.26,0,0,0,.35.52.88.88,0,0,0,.41.24c.19.06.46-.13.62-.41a1.7,1.7,0,0,0,.22-1c-.05-.77-.54-1.39-1.34-1.27a1.48,1.48,0,0,0-1.15.79,1.76,1.76,0,0,0-.08,1.14,1,1,0,0,0,.67.75,1.07,1.07,0,0,0,1.24-.7,1.67,1.67,0,0,0,.08-.32c.09-.42.17-.58.68-.73l.34-.11c.37-.1.74.18.77.84a2.83,2.83,0,0,1-.39,1.52,2.87,2.87,0,0,1-3.26,1.25,2.77,2.77,0,0,1-1.58-1.24,3.51,3.51,0,0,1-.37-2.6,3.25,3.25,0,0,1,1.63-2.08Z"/><path class="cls-1" d="M362.3,350.92c4.26-4.55,27.4-16.68,27.32-30.64-.1-17.15-20.27-31-80.07-12.5a28.52,28.52,0,0,1-19.76-1l51.32,33.63Z"/><path class="cls-1" d="M297.82,307.71a27.35,27.35,0,0,0,8.75-.34c1.44-.27,2.83-.71,4.32-1.14L315.3,305c5.9-1.66,11.86-3.11,17.89-4.28,4.39-.83,8.81-1.63,13.27-2.05,7.86-.75,15.88-.95,23.71.77a32.79,32.79,0,0,1,11.12,4.45,19.39,19.39,0,0,1,7.66,9.25,18.93,18.93,0,0,1,1.22,5.25,15.67,15.67,0,0,1-.33,5.41,24.08,24.08,0,0,1-5.11,9.32C378.9,340,371.24,345,364.17,350.14c-1.07.83-1.51,1.15-1.64,1s.18-.81,1-1.74c1.53-1.88,4.87-4.69,8.9-7.75a72.73,72.73,0,0,0,10-8.85c2.9-3.25,5.44-7,5.94-11.14a13.3,13.3,0,0,0,.08-1.55c0-.53,0-1.07-.08-1.6a17.51,17.51,0,0,0-.56-3.14,16.38,16.38,0,0,0-2.79-5.68,22.76,22.76,0,0,0-10.61-7.29,42.47,42.47,0,0,0-7.85-1.92,68,68,0,0,0-8.23-.62,109.16,109.16,0,0,0-16.64,1.23c-6.05.86-12.05,2.1-18,3.56-3,.72-5.93,1.54-8.88,2.36l-4.42,1.3c-.72.23-1.51.42-2.26.62s-1.54.31-2.31.47a29.69,29.69,0,0,1-8.26.14,29.24,29.24,0,0,1-4.05-.78,23.77,23.77,0,0,1-3.94-1.4l.64-1.11,5.45,3.59,28.69,18.88c5.76,3.76,11.55,7.45,17.2,11.07l5.14,2.48,5.18,2.5c6.46,3.17,8.45,4.3,9.61,5.43a8,8,0,0,1,.77.76c.44.65-2.33-.37-7.09-2.61L347.92,345l-7.38-3.54-13.63-8.8-13.77-9-24-15.8,1.23-2.13a22.54,22.54,0,0,0,3.61,1.26,26.38,26.38,0,0,0,3.85.72Z"/><path class="cls-1" d="M366.15,351.29c-20-1.26-84-61.21-105.69-53.14,0,0,7.89,17.45-6.29,29.72,0,0,7.73,23.46,87.39,37.42,20.25,3.55,30.53,5.68,30.53,5.68Z"/><path class="cls-1" d="M278.1,348.22l-5.17-2.67c-1.7-.93-3.35-2-5-3-.84-.48-1.61-1.09-2.42-1.63s-1.61-1.1-2.39-1.7a54,54,0,0,1-4.46-3.83c-.36-.34-.72-.68-1.07-1l-1-1.11a23.8,23.8,0,0,1-1.87-2.35c-.3-.4-.54-.86-.82-1.29a7.22,7.22,0,0,1-.45-.92l-.25-.54c-.06-.18-.21-.4-.18-.58.29-.3.56-.61.89-.92l.61-.59,1-1a22.57,22.57,0,0,0,5.36-9.51,25.43,25.43,0,0,0,.74-8c-.05-.67-.09-1.35-.2-2s-.19-1.34-.34-2-.29-1.33-.46-2c-.08-.34-.19-.65-.28-1l-.15-.49-.19-.53c-.23-.68-.54-1.37-.82-2.05.47-.17,1-.31,1.48-.47a8.94,8.94,0,0,1,1.33-.34,14,14,0,0,1,1.92-.25,21.81,21.81,0,0,1,3.8.15,38.17,38.17,0,0,1,7.21,1.77,90.32,90.32,0,0,1,13.32,6c8.56,4.62,16.67,9.92,24.72,15.29,7.29,4.88,14.56,9.86,21.81,14.63,4.67,3.06,9.38,6.07,14.19,8.88,2.41,1.4,4.84,2.75,7.32,4a40.69,40.69,0,0,0,7.63,3c1.62.4,2.33.52,2.27.72s-.92.39-2.44.28a23.07,23.07,0,0,1-6.06-1.45,52.87,52.87,0,0,1-8-3.76c-10-5.72-19.35-12.27-28.8-18.67s-18.88-12.9-28.74-18.71A110.25,110.25,0,0,0,277,301.05a44.54,44.54,0,0,0-8.13-2.41,21.67,21.67,0,0,0-4.15-.35,15.16,15.16,0,0,0-2,.18l-.73.15a1.25,1.25,0,0,0-.31.12l.11.29.08.23c.05.15.11.31.16.47.19.63.39,1.26.54,1.89a30.16,30.16,0,0,1,.73,3.86,26.81,26.81,0,0,1-1,11.83,24.27,24.27,0,0,1-6.37,10l-.71.68c-.09.06,0,.16.07.28l.08.16a1,1,0,0,0,.12.22c.25.39.46.79.73,1.17L257,331c.56.74,1.23,1.42,1.85,2.13s1.36,1.32,2.05,2a61.7,61.7,0,0,0,9.26,6.73A137.33,137.33,0,0,0,296,353.45l5.13,1.67,2.57.83c.85.28,1.73.49,2.59.74l5.21,1.44c1.74.47,3.46,1,5.22,1.38L327.24,362l10.55,2c5.45,1.06,10.9,2,16.3,3l16.14,2.86.65.11c.08,0,0-.06,0-.1l-.05-.17-.1-.31q-.5-1.58-1-3.18c-2.65-8.66-3.36-11.45-3.45-13.46a12.93,12.93,0,0,1,0-1.32c.12-.95,1.49,2.49,3.51,8.81l2.26,7.07.66,2.1.5,1.63.25.82.13.41s0,.09,0,.09h-.11l-.2,0-5.29-.94-15-2.68c-5-.92-10.09-1.81-15.2-2.8s-10.25-1.85-15.32-3.12c-15.12-3.42-30.18-7.85-44.38-14.46Z"/><path class="cls-1" d="M375.53,369.46l-4.22-.13-.66-1.82-.38-1.11-.76-2.23c-.5-1.49-1-3-1.44-4.49s-.94-3-1.26-4.6c-.07-.36-.13-.72-.17-1.12l0-.32c0-.15,0-.3,0-.45a2.06,2.06,0,0,1,.31-.8l.47-.52a2.65,2.65,0,0,1,.42-.4,5.84,5.84,0,0,1,.92-.72,7.78,7.78,0,0,1,4.38-1.24,17.84,17.84,0,0,1,8.14,2.59c.94.53,1.86,1.1,2.75,1.7.45.3.89.61,1.33.92l1,.79.66-.12c1.55-.27,3.1-.52,4.68-.66a15.31,15.31,0,0,1,4.85.19c1.1.37.65.75-.19,1a15.58,15.58,0,0,1-3.95.81c-1,.07-2,.18-3,.31l-1.5.21-.76.11-1.32.23-.62-.51-.43-.35-.61-.47c-.41-.32-.83-.62-1.26-.91-.85-.59-1.72-1.15-2.62-1.66a19.58,19.58,0,0,0-5.62-2.27,6.44,6.44,0,0,0-4.95.8,6,6,0,0,0-1,.84l-.21.24-.08.09a.58.58,0,0,0,0,.28,18.37,18.37,0,0,0,.57,2.72c.52,1.94,1.13,3.89,1.76,5.82l1,2.89.84,2.43.3,0,1.85.06,2,0c1.32,0,2.64,0,4,0a81.15,81.15,0,0,0,11.91-.8,12.27,12.27,0,0,0,4.14-1.31c.89-.52.84-2.18.73-3.58-.07-.64-.17-1.26-.29-1.91-.45-2.41-.58-3.19-.23-3.84a3.54,3.54,0,0,1,.23-.44c.3-.34.93.57,1.43,2.39a22.26,22.26,0,0,1,.77,4.27,8.73,8.73,0,0,1-.13,2.41,6.91,6.91,0,0,1-.19.67,7.9,7.9,0,0,1-.36.71,6.66,6.66,0,0,1-.63.67c-.19.13-.39.27-.59.39a15.44,15.44,0,0,1-4.49,1.36c-1.47.26-2.94.42-4.4.54-4.36.36-8.71.38-13.05.33Z"/><path class="cls-1" d="M307.06,358.34c-3.75-1.07-24.57,2.74-24.57,2.74-3.06-3.79-20.59-10.75-20.59-10.75s10.4-5.46,11.56-6.27Z"/><path class="cls-1" d="M272.73,345.85c-1.73.94-3.45,1.83-5.18,2.72L265,349.91l-.66.31,1,.47c1.68.72,3.36,1.43,5,2.21,2.21,1,4.41,2.13,6.56,3.33,1.08.6,2.14,1.22,3.18,1.91a18.15,18.15,0,0,1,1.54,1.11c.25.21.51.38.75.62l.17.19.07.08.14.14,4.17-.66,8.44-1.29c1.8-.25,3.6-.53,5.42-.71a24.06,24.06,0,0,1,5.57-.07c1.29.28.85.69-.09,1a17.11,17.11,0,0,1-4.65,1c-3.13.29-6.28.72-9.43,1.15l-4.74.67-2.38.35-1.18.18-1.74.28-.9-.93a3.12,3.12,0,0,0-.49-.46,12.81,12.81,0,0,0-1.12-.88c-3.54-2.49-7.83-4.37-11.94-6.25l-3-1.34c-1.17-.51-3-1.28-4.66-1.94l9-4.66,2-1.08,1-.55.49-.28.72-.43a1.14,1.14,0,0,1,.19-.1l.2.09.4.17.63.27,1.07.47,2.12.92c4.29,1.85,8.59,3.74,12.86,5.53,3.33,1.4,6.64,2.66,9.95,4l2.18.86c2.71,1.12,3.52,1.6,3.91,2.3a2.22,2.22,0,0,1,.25.48c.11.46-1.12.29-3.14-.45-6-2.18-12.2-4.77-18.41-7.4l-6.92-3-3.46-1.5-1.48-.64h0l-.78.45Z"/><path class="cls-1" d="M255.89,355.76l-.08.18c0,.06-.05.13-.12.14l-.39.12-.67.23-.8.25-1.6.52-1.61.52-.74.24-.14,0c0-.18,0,1.18-.05,2l0,2.77v1.57s0,.11,0,.12h.14l.56,0c5.25-.22,10.5-.51,15.73-1,2.31-.22,4.64-.52,6.91-.9,2.91-.51,5.83-1.12,8.58-1.88.85-.24,1,.23.38.94a6.7,6.7,0,0,1-3.65,2A113.26,113.26,0,0,1,260,365.7c-1.84.07-3.71.2-5.59.32l-2.83.19-3.7.19c-.1,0-.06-.08-.07-.14v-2.79l0-2.08.06-4.7,4.38-1.44,1.81-.59c.18-.06.32-.06.36-.24l.16-.36a4.25,4.25,0,0,1,.27-.46,6,6,0,0,1,1.39-1.59,6.21,6.21,0,0,1,1.86-1,7.77,7.77,0,0,1,3.09-.36c.27,0,.49.05.86.12l.71.35,1.3.63,5.19,2.47c2.69,1.26,5.37,2.39,8.06,3.57l1.77.77c2.19,1,2.83,1.45,3.09,2.12a2.45,2.45,0,0,1,.16.45c0,.45-1,.32-2.63-.34-4.88-1.94-9.89-4.27-14.91-6.64l-2.79-1.34-.53-.25-.15,0a3.16,3.16,0,0,0-.32,0,6.93,6.93,0,0,0-1.29,0,4.72,4.72,0,0,0-2.25.88l-.44.4-.38.46-.33.52-.43,1Z"/><path class="cls-1" d="M345.23,317.25c-.9.4-1.81.8-2.68,1.26s-1.75.92-2.61,1.42c-.63.35-1.22.79-1.83,1.17a68.44,68.44,0,0,0-6.33,4.37c-.91.69-1.75,1.48-2.59,2.24a36.05,36.05,0,0,1-3.19,3c-.74.54-1.19-1.54,0-2.75a45.26,45.26,0,0,1,7.13-5.7c1.54-1,3.05-2.15,4.63-3.15.87-.55,1.78-1,2.67-1.56s1.82-1,2.75-1.4l1.73-.79c.58-.25,1.18-.47,1.76-.72a49.22,49.22,0,0,1,5.49-1.74l2.16-.52c.71-.19,1.45-.28,2.18-.41a6.41,6.41,0,0,1,1-.13c1.23-.05,1.62.07,1.87.57a2.07,2.07,0,0,1,.15.34c.1.38-.39.7-1.22.83a50.85,50.85,0,0,0-7.54,1.62c-.94.29-1.87.62-2.79.95s-1.85.7-2.74,1.15Z"/><path class="cls-1" d="M174.36,423.87c-.82-13.1-.78-26.18-.49-39.24.11-4.77.2-9.53.4-14.29.7-16.77,1.85-33.51,3.19-50.24.6-7.42,1.2-14.88,1.79-22.24.39-4.73.77-9.47,1.22-14.2l.39-3.92,0-.18a1.5,1.5,0,0,1,.13-.11l.28-.2.56-.4a3,3,0,0,1,.49-.3l.44-.24a10.35,10.35,0,0,1,1.82-.7A21,21,0,0,1,192,277c1.54.15,2.07.36,2.27.76,0,0-.28,0-.38.07a2.79,2.79,0,0,1-.42.15c-.36.1-.86.21-1.49.33-1.23.24-3,.49-4.93,1a13.82,13.82,0,0,0-2.9,1.1l-.65.39c-.13.09-.08.08-.12.12h0v.2c0,.34-.07.67-.1,1-1.86,19.26-3.5,38.53-5,58-.91,11.63-1.39,23.77-1.79,35.7-.42,13.11-.62,26.24-.15,39.34a196.74,196.74,0,0,0,2.11,24,70.1,70.1,0,0,0,2,8.86,28.84,28.84,0,0,0,1.6,4.18l.25.49a1.11,1.11,0,0,0,.16.29l.32.19.49.27c.66.35,1.34.68,2,1a64.89,64.89,0,0,0,17.28,5.25,62.68,62.68,0,0,0,27.4-1.79l1.45-.43,1.42-.49c1-.32,1.9-.65,2.84-1,3.54-1.35,5.77-2.48,7.38-3.17a14.39,14.39,0,0,1,3.46-1.18,9.15,9.15,0,0,1,1.17-.17c.44,0,0,.52-1.09,1.38a34.58,34.58,0,0,1-5.57,3.33,63.31,63.31,0,0,1-25.14,6.6,67.47,67.47,0,0,1-26.51-4q-2.37-.85-4.68-1.91c-.77-.35-1.53-.73-2.29-1.12l-.57-.31L181,455l-.27-.15c-.09-.05-.18-.1-.21-.2l-.28-.54-.35-.68a43.35,43.35,0,0,1-3.12-9.77,145.2,145.2,0,0,1-2.49-19.8Z"/><path class="cls-1" d="M220.64,464a68.93,68.93,0,0,1-10.74.5c-1.31,0-2.61-.05-3.91-.18a69.09,69.09,0,0,1-13.48-2.69c-1.94-.58-3.88-1.2-5.79-1.86a30.46,30.46,0,0,1-7.09-3.24c-.68-.49-.25-.95.63-1.15a5.75,5.75,0,0,1,3.49.41,95.78,95.78,0,0,0,14.47,5A50.2,50.2,0,0,0,207.6,462a66.05,66.05,0,0,0,10.43-.15,56.93,56.93,0,0,0,6.37-1,54.14,54.14,0,0,0,9.37-2.74c.58-.24,1.16-.47,1.73-.72l1.68-.83c1.12-.54,2.19-1.16,3.27-1.78l1.41-.82c1.75-1,2.39-1.22,3.11-.89a2.37,2.37,0,0,1,.48.23c.43.32-.1,1.09-1.37,2a49,49,0,0,1-12.83,6.23,63.71,63.71,0,0,1-10.6,2.46Z"/><path class="cls-1" d="M249.14,377.24l-.69,18.3-.16,6.67-.85,23.52c-.11,3.48-.15,7-.17,10.43,0,4.44.07,8.9-.25,13.32-.2,2.76-2.48-.76-2.41-5.89.11-9.06.38-18.12.89-27.25.31-5.46.32-11.15.5-16.74q.3-9.21.62-18.43l.42-11.35c.2-5.72.45-11.48.62-17.16.14-4.43.14-8.76.26-13.14,0-1,0-1.91.09-2.89a23.63,23.63,0,0,1,.42-3.84,3,3,0,0,1,.85-1.64,2.29,2.29,0,0,1,.49-.42c.26-.12.45.21.55.87a21.4,21.4,0,0,1,.09,2.93c-.1,7.76-.32,16-.59,24.26-.21,6.13-.41,12.3-.62,18.45Z"/><path class="cls-1" d="M460.62,397.45c-.32-14.6-1.14-29.2-2.22-43.78-.4-5.32-.9-10.63-1.35-15.95q-2.42-28.1-5.77-56.12l-.37-3,0-.18-.14-.12c-.07,0-.23-.2-.43-.31a7.26,7.26,0,0,0-1.27-.55,18.84,18.84,0,0,0-5.91-.65,50.76,50.76,0,0,0-6.13.55c-2,.28-4.07.67-6.08,1.08-10.35,2.21-20.51,5.51-30.6,8.75a10.42,10.42,0,0,1-1.75.46c-.16,0-.37,0-.38,0a.18.18,0,0,0,0-.09v0l-.12-.15c-.24-.29-.24-.29,0,0l.08.1h0v-.05s0-.06,0-.11a2.15,2.15,0,0,1,.34-.35,12.57,12.57,0,0,1,1.4-1,60.26,60.26,0,0,1,13.09-5.52c5.24-1.59,10.52-3,15.9-4.17,2.69-.58,5.4-1.07,8.16-1.44a48,48,0,0,1,8.43-.45,17.36,17.36,0,0,1,4.44.78l.56.19.57.28a5.11,5.11,0,0,1,1.11.68c1.46.61,1.14,2.45,1.3,2.81q.48,4.07.95,8.14.93,8.15,1.72,16.33c1.27,13.05,2.76,26.63,3.87,40,1.22,14.71,2.21,29.44,2.76,44.2.34,9.08.51,18.18.34,27.27a196.11,196.11,0,0,1-1.35,20.66l-.35,2.57c-.11.86-.31,1.71-.46,2.56s-.29,1.71-.52,2.55l-.67,2.53a22.1,22.1,0,0,1-.87,2.48l-.52,1.35a2.82,2.82,0,0,1-.64.57l-.54.39a32.14,32.14,0,0,1-4.55,2.6c-9.83,4.61-21,5-31.33,2.4-.57-.13-1.15-.24-1.71-.4l-1.66-.53-3.33-1.1c-8.15-3.25-10.33-5.13-11.68-6.49a9.16,9.16,0,0,1-.85-1c-.23-.41.48-.28,1.93.31.72.3,1.63.71,2.71,1.22l1.73.85c.62.32,1.32.55,2,.86a61.24,61.24,0,0,0,6.49,2.5l3.32,1.06,3.42.77,1.72.38c.57.11,1.16.15,1.74.24,1.16.13,2.32.31,3.49.42l3.53.11a12.93,12.93,0,0,0,1.76,0l1.76-.11a40.39,40.39,0,0,0,13.65-3.46l1.58-.79c.52-.27,1-.58,1.52-.87s1-.63,1.46-.94l.46-.34.13-.34a24.89,24.89,0,0,0,1.12-3.32,35.52,35.52,0,0,0,.84-3.49,142.07,142.07,0,0,0,2.11-21.74c.25-7.34.23-14.71.06-22.07Z"/><path class="cls-1" d="M423.36,454.39l2.13.58,2.17.36,2.18.37a20.22,20.22,0,0,0,2.19.19c1.08.05,2.15.11,3.22.11a44,44,0,0,0,11.24-1.32c.81-.24,1.62-.49,2.42-.76l2.31-1c1.92-1,3.72-2.11,5.55-3.15.53-.31.91.18.8,1a3.88,3.88,0,0,1-1.87,2.66,32.43,32.43,0,0,1-13.24,4.33l-2.09.21a18.55,18.55,0,0,1-2.12.2l-2.13.11a13.77,13.77,0,0,1-2.13,0l-2.32-.14a17.87,17.87,0,0,1-2.32-.23c-1.53-.25-3.07-.46-4.58-.76-1.83-.5-3.69-.92-5.5-1.47-2.7-1-5.44-1.86-8-3.08-1-.44-2-.84-3.05-1.23s-2-.92-3-1.38c-.43-.21-.86-.4-1.3-.63-1.59-.83-2-1.25-2-2a2.78,2.78,0,0,1,0-.5c.11-.5.95-.51,2.15,0,1.79.71,3.52,1.6,5.32,2.41s3.67,1.53,5.5,2.33a74.37,74.37,0,0,0,8.48,2.66Z"/><path class="cls-1" d="M398.45,348.56q.45,12.09,1.07,24.18.25,4.41.53,8.82c.54,10.36,1.09,20.73,1.74,31.08.29,4.6.66,9.22,1,13.77.49,5.85,1.13,11.71,1.32,17.59,0,.9-.12,1.36-.36,1.34s-.58-.46-.93-1.21a23.37,23.37,0,0,1-1.8-7.67c-1-11.95-1.76-23.92-2.26-36-.3-7.22-.9-14.73-1.31-22.12q-.67-12.18-1.19-24.38l-.57-15c-.27-7.58-.44-15.2-.57-22.73-.09-5.86-.26-11.6-.1-17.42,0-1.29.07-2.54.17-3.84.37-4.8,1-6.41,2-7.2a3,3,0,0,1,.69-.45c.32-.06.32.34.24,1.13s-.23,2.08-.37,3.78c-.4,5-.38,10.34-.37,15.69s.13,10.81.27,16.27c.21,8.1.48,16.25.83,24.39Z"/><path class="cls-1" d="M336.59,198.33c2.5.33,5,.75,7.45,1.17.91.17,1.82.28,2.72.45,3.16.66,6.29,1.46,9.4,2.32,1.38.39,2.78.73,4.15,1.08a25.2,25.2,0,0,1,5.23,1.64c1,.51-1.08,2.25-3,1.65-3.5-1-7-2-10.54-3.15a55.25,55.25,0,0,0-6.63-1.38c-2.45-.47-4.91-.86-7.38-1.21-1.52-.19-3-.42-4.58-.55-2.31-.24-4.64-.46-7-.52-1.79-.06-3.56.08-5.33.14-.39,0-.78.06-1.17.07-1.46,0-1.93-.13-2.24-.78a2.53,2.53,0,0,1-.21-.44c-.14-.49.46-.9,1.54-1a54.57,54.57,0,0,1,10-.19c2.52.14,5.06.38,7.58.68Z"/><path class="cls-1" d="M411.61,244.78a72.84,72.84,0,0,0-6.38-10.2c-.45-.59-.89-1.17-1.36-1.73s-1-1.11-1.43-1.68a73.63,73.63,0,0,0-11.1-10.87c-.92-.69-1.85-1.38-2.79-2.05s-1.94-1.25-2.9-1.87c-1.24-.8-2.57-1.44-3.84-2.18s-2.6-1.39-3.84-2.2c-1.57-1,1.53-2,4.66-.38a66.7,66.7,0,0,1,14.9,11,102.17,102.17,0,0,1,7.81,8.27,76.94,76.94,0,0,1,7.06,10.33c1.28,2.23,2.42,4.52,3.48,6.85A94.38,94.38,0,0,1,419.93,259c.89,2.86,1.73,5.67,2.34,8.59.14.64.28,1.26.39,1.92.37,2.42.24,3.24-.36,3.8a2,2,0,0,1-.42.37c-.49.24-.91-.68-1.26-2.38a115.06,115.06,0,0,0-4.19-15.4,80.91,80.91,0,0,0-4.87-11.09Z"/><path class="cls-1" d="M340.11,441.6c-3.83.41-7.64.85-11.53,1.19-1.93.21-3.86.28-5.79.41s-3.86.21-5.8.28c-2.81.13-5.63.24-8.44.28-9.93.12-19.84-.13-29.74-.49l-13.17-.44c-5.6-.19-11.23-.31-16.8-.92-3.48-.39,1.09-2.39,7.51-2.07,11.4.56,22.79,1.06,34.29,1.52,6.88.26,14,.16,21.07,0,7.73-.19,15.43-.63,23.11-1.53l14.23-1.6c7.18-.82,14.39-1.62,21.51-2.51,5.53-.69,10.94-1.51,16.4-2.27l3.59-.52c4.5-.58,5.95-.59,7-.07a4.39,4.39,0,0,1,.69.36c.48.44-1.3,1.06-4.58,1.61-9.74,1.6-20,2.91-30.4,4.16l-23.14,2.69Z"/><path class="cls-1" d="M278,126a4.07,4.07,0,0,1-2.28,1.45,3.35,3.35,0,0,1-2.66-.78,6.6,6.6,0,0,1-1.21-1.21,6.89,6.89,0,0,1-1.08-2.71,18.87,18.87,0,0,1-.31-2.66l-.15-2.32a9.66,9.66,0,0,1,.06-2.94c.15-.6,1.91.25,1.91,1.32,0,1.92,0,3.82.11,5.68a5.3,5.3,0,0,0,.39,1.59,4.79,4.79,0,0,0,.34.68,5.7,5.7,0,0,0,.47.58,3.15,3.15,0,0,0,1.23.93,1.25,1.25,0,0,0,1.22-.26,5.45,5.45,0,0,0,1.34-1.71,15.27,15.27,0,0,0,1.3-3.37,17.69,17.69,0,0,0,.38-2.78c0-.21,0-.41,0-.61.08-.75.22-1,.73-1.08.12,0,.23-.07.35-.09.39,0,.69.32.72.93a15.41,15.41,0,0,1-.84,5.44,12.77,12.77,0,0,1-2,3.95Z"/><path class="cls-1" d="M256.62,124a1.87,1.87,0,0,0,.74.72,1,1,0,0,0,.86-.2,4.64,4.64,0,0,0,.76-.71,3.56,3.56,0,0,0,.73-1.65A11.41,11.41,0,0,0,260,120a12.23,12.23,0,0,0-.14-2,8.75,8.75,0,0,1-.2-2.62c0-.29.53-.26,1-.06a1.51,1.51,0,0,1,1,1.05,15.64,15.64,0,0,1-.55,7.31,5.09,5.09,0,0,1-.43.92l-.32.44c-.11.13-.22.23-.33.34a4,4,0,0,1-1.93,1.12,2.34,2.34,0,0,1-1.28-.07,2.8,2.8,0,0,1-1-.61,6.37,6.37,0,0,1-1.39-2,23.16,23.16,0,0,1-1.13-3.28c-.25-.85-.57-1.66-.8-2.52-.05-.18-.12-.36-.16-.56-.14-.71,0-1,.45-1.18.11,0,.22-.09.33-.12.39-.09.72.15.89.62.53,1.39.91,2.9,1.38,4.35a11.25,11.25,0,0,0,1.3,2.88Z"/><path class="cls-1" d="M280.3,107.53a8.69,8.69,0,0,0-1-.37,6.58,6.58,0,0,0-1.08-.18,5.22,5.22,0,0,0-.79,0,6.74,6.74,0,0,0-2.83.61,3.75,3.75,0,0,0-1.11.73c-.45.35-.74.87-1.3,1.12-.36.16-1.34-1.39-.76-2a7.11,7.11,0,0,1,3.67-1.93c.42-.08.84-.15,1.25-.26a10.75,10.75,0,0,1,1.27-.16,8.19,8.19,0,0,1,2.74.44,4.37,4.37,0,0,1,.78.31,6.61,6.61,0,0,1,.76.36,11.88,11.88,0,0,1,2,1.47,16.05,16.05,0,0,1,1.45,1.3,2.24,2.24,0,0,1,.3.32c.3.46.28.67-.11,1a2.78,2.78,0,0,1-.27.21.79.79,0,0,1-1,0c-.76-.64-1.42-1.31-2.19-1.89a8.19,8.19,0,0,0-1.86-1.06Z"/><path class="cls-1" d="M258.89,136.5a4.54,4.54,0,0,1-1.12-.26,5.55,5.55,0,0,1-1-.6,4.64,4.64,0,0,1-.76-.85l-.28-.46a1.81,1.81,0,0,1-.25-.54l-.14-.47,0-.47a2.34,2.34,0,0,1,.1-.85,9.24,9.24,0,0,1,2.9-3.85l1.51-1.34a5.58,5.58,0,0,1,2.22-1.42c.29-.07.42.4.44.92a1.53,1.53,0,0,1-.41,1.3,41.91,41.91,0,0,0-3.7,2.92,4,4,0,0,0-1.24,2.2,1,1,0,0,1,0,.25c0,.07,0,.13,0,.21a4.73,4.73,0,0,0,.31.57,4.79,4.79,0,0,0,.43.47c.19.08.33.26.55.3a3.44,3.44,0,0,0,1.76.08,9.82,9.82,0,0,0,2.84-1.06,19,19,0,0,0,2-1.4c.15-.11.29-.23.44-.33.58-.38.89-.38,1.23,0a2.61,2.61,0,0,1,.22.27.8.8,0,0,1-.22,1,14.28,14.28,0,0,1-3.87,2.58,8.24,8.24,0,0,1-3.92.83Z"/><path class="cls-1" d="M274,148.09a14.9,14.9,0,0,1-1,4.49,7.31,7.31,0,0,1-.84,1.58,4.92,4.92,0,0,1-1.21,1.15,3.29,3.29,0,0,1-1.73.6,2.72,2.72,0,0,1-1.76-.64,5.33,5.33,0,0,1-1.05-1.21,17.9,17.9,0,0,1-1.21-2.28,8.73,8.73,0,0,1-.95-3.06c0-.68,1.9-.25,2.23.78a23.8,23.8,0,0,0,1.05,2.73,4.29,4.29,0,0,0,1.35,1.86c.25.16.62.1,1-.22a3.61,3.61,0,0,0,1-1.19,10.15,10.15,0,0,0,1.16-3.77c0-.42.09-.84.11-1.27,0-.21,0-.42,0-.63l0-.5a1.1,1.1,0,0,0,0-.26c0-.08,0-.22-.12-.2l-.4-.05-.69-.06c-.5,0-1-.06-1.48-.06a16.19,16.19,0,0,0-3,.29l-.62.13c-.76.13-.94.09-1.27-.33l-.24-.28a.47.47,0,0,1,0-.54,1.38,1.38,0,0,1,.7-.5,15.5,15.5,0,0,1,5.89-.55l.88.05,1.57.15a7.93,7.93,0,0,1,.48,1.07l.12.64c0,.19,0,.49,0,.6a14.54,14.54,0,0,1,0,1.48Z"/><path class="cls-1" d="M197.7,150.91a7.36,7.36,0,0,0,.2,4.5,10.49,10.49,0,0,0,2.78,3.84l.68.59.75.49a15.12,15.12,0,0,0,1.56.91,13.54,13.54,0,0,0,6.09,1.6,8.41,8.41,0,0,0,5.7-2.07,46.23,46.23,0,0,0,3.48-4.79,8.39,8.39,0,0,1,3.06-2.83l.52-.23.57-.11a3.13,3.13,0,0,1,1.14-.05,3.6,3.6,0,0,1,1.09.24,3.56,3.56,0,0,1,1,.44c.78.44.37.78-.42.92a4,4,0,0,1-.64.08c-.23,0-.47.09-.71.11a12.81,12.81,0,0,0-1.39.34,6,6,0,0,0-2.4,2c-.75.94-1.45,2-2.24,3.12a18.8,18.8,0,0,1-1.31,1.64,6.72,6.72,0,0,1-1.74,1.43,9.61,9.61,0,0,1-4.13,1.42,16.25,16.25,0,0,1-5.11-.39,16.53,16.53,0,0,1-4.7-2,14,14,0,0,1-4.08-3.84,9.7,9.7,0,0,1-1.82-5.37,9.08,9.08,0,0,1,2.54-6.4,6.36,6.36,0,0,1,4.87-2.05,4.26,4.26,0,0,1,1.36.3,5,5,0,0,1,.64.26l.58.38a6.49,6.49,0,0,1,1.78,2,7.9,7.9,0,0,1,1.3,3.88,3,3,0,0,1-.86,2.19,3.22,3.22,0,0,1-2.23.9,3.13,3.13,0,0,1-1.13-.18,2.23,2.23,0,0,1-1.06-.8,2,2,0,0,1,0-2c.07-.12.14-.24.21-.34s.13-.15.19-.22a3.2,3.2,0,0,1,.36-.32,1.39,1.39,0,0,1,1.13-.32,1.77,1.77,0,0,1,.44.11c.19.1.16.34,0,.66-.1.16-.22.35-.37.55s-.15.21-.2.32L205,152c0,.05,0,.08-.05.11a.29.29,0,0,0,.16.38,1.67,1.67,0,0,0,.77,0c.7-.19,1-.59.94-1.38a4.62,4.62,0,0,0-.3-1.31,13.57,13.57,0,0,0-.67-1.38,4.25,4.25,0,0,0-2-1.84l-.44-.17-.46,0a1.11,1.11,0,0,0-.48,0c-.16,0-.32,0-.48,0a5,5,0,0,0-1,.33l-.47.23-.44.32a6.38,6.38,0,0,0-2.4,3.68Z"/><path class="cls-1" d="M201.14,301.85c-1.45-.14-2.91-.3-4.35-.4-.52,0-1,0-1.54,0-1.73,0-3.66.23-5.55.34-.84.05-1.69.15-2.55.2a5.76,5.76,0,0,1-3.42-.48c-.36-.22,0-.6.39-.94a2.13,2.13,0,0,1,1.38-.62c1.87.17,4-.06,6.22-.08,1.3,0,2.7-.32,4.13-.25s3,.22,4.44.34l2.71.24c1.37.1,2.74.22,4.09.23a24.48,24.48,0,0,0,3.11-.22c.22,0,.44-.07.66-.08.82-.1,1,0,1.31.44a3.21,3.21,0,0,1,.19.31c.18.35-.14.76-.82.94a20.59,20.59,0,0,1-6,.4c-1.49-.05-3-.18-4.44-.28Z"/><path class="cls-1" d="M195.63,308.07c-.94,0-1.89,0-2.84,0-.35,0-.69.07-1,.08-1.23,0-2.46,0-3.71,0-.55,0-1.11,0-1.67.05a3.65,3.65,0,0,1-2.3-.37c-.25-.15.06-.55.4-.93s.59-.76.93-.74c1.15.11,2.59.09,4,.25a16.2,16.2,0,0,0,2.6-.1l2.89-.09,1.78,0h2.72c.7,0,1.4-.12,2.14-.09H202c.62.11.79.3.76.8,0,.11,0,.23,0,.34a.83.83,0,0,1-.75.66c-1.1.09-2.3.11-3.54.13l-2.81.06Z"/><path class="cls-1" d="M429.35,306.88l4.1,0c.5,0,1-.06,1.51-.05a16.28,16.28,0,0,1,2.75.26c.89.17,1.74.38,2.59.56a12.37,12.37,0,0,0,2.24.24,13.83,13.83,0,0,0,2.61-.31c.25,0,.48.39.41.93a1.51,1.51,0,0,1-1.22,1.29,15.55,15.55,0,0,1-6.35-.86,7.5,7.5,0,0,0-1.73-.27c-.58,0-1.2,0-1.82,0l-4.1.05-2.53.05c-1.28,0-2.57,0-3.85.09-1,0-2,.18-3,.23-.22,0-.43,0-.66,0-.85,0-1.15-.23-1.22-.74a2.2,2.2,0,0,1,0-.36c0-.39.37-.63.9-.69,1.64-.19,3.46-.29,5.28-.36l4.1-.12Z"/><path class="cls-1" d="M433.08,312.06l3.3.42c.4,0,.81,0,1.21.1,1.4.19,2.8.41,4.2.54a12.72,12.72,0,0,0,1.85,0c.76-.07,1.59-.21,2.13-.21.19,0,.44.43.4.94a1.37,1.37,0,0,1-.35.77,1.1,1.1,0,0,1-.68.39,16,16,0,0,1-5.12-.35,27.78,27.78,0,0,0-3-.32l-3.31-.39c-.68-.08-1.35-.15-2-.2a26.48,26.48,0,0,0-3.07-.14,11.19,11.19,0,0,0-2.28.35c-.16,0-.31.09-.47.12-.57.14-.74.07-1-.38l-.2-.3c-.19-.35,0-.72.5-1a11.2,11.2,0,0,1,4.59-.67c1.14,0,2.27.13,3.39.22Z"/><path class="cls-1" d="M293.83,385.09c-2.15.24-4.27.59-6.56.64a9.9,9.9,0,0,1-1.32,0l-.66-.08-.54-.09a44.62,44.62,0,0,0-8.14-.32c-1.23,0-2.46.12-3.69.2-.8.05-1.59.12-2.41.11a6.24,6.24,0,0,1-2.52-.42c-.59-.28-.18-.64.32-1a3.3,3.3,0,0,1,2-.67c3,0,6.29-.24,9.56-.06a45,45,0,0,1,6.07.44,12.24,12.24,0,0,0,3,0c1.06-.1,2.14-.23,3.21-.37l4-.49a59.66,59.66,0,0,1,6.13-.36,27.47,27.47,0,0,1,4.78.25c.35.07.7.13,1.05.22a3.43,3.43,0,0,1,1.32.58.91.91,0,0,1,.37.69,1.64,1.64,0,0,1,0,.38c-.07.39-.67.48-1.5.26a30.39,30.39,0,0,0-8.11-.49c-2.1.12-4.24.35-6.38.65Z"/><path class="cls-1" d="M281.12,389.68a15.56,15.56,0,0,0,2.44-.42l1.37-.31,1.39-.19c.67-.05,1.33-.17,2-.17a52.49,52.49,0,0,1,6.9.46c1,.12,2,.2,3,.27a30.12,30.12,0,0,1,3.77.36c.36.07.35.55,0,1a2.14,2.14,0,0,1-1.81.81c-2.65-.23-5.19-.61-7.77-1a24.11,24.11,0,0,0-4.73-.07l-1.27.11c-.42.06-.85.1-1.26.19-.78.15-1.7.43-2.61.58a22.59,22.59,0,0,1-3.38.31,46.36,46.36,0,0,1-5-.31c-1.28-.12-2.55-.17-3.81-.25-.27,0-.55,0-.82,0-1-.1-1.34-.25-1.51-.77,0-.12-.09-.24-.11-.36-.06-.39.4-.66,1.18-.69a67.94,67.94,0,0,1,7,.45,25.9,25.9,0,0,0,5.06,0Z"/><path class="cls-1" d="M241.56,295.89a21.32,21.32,0,0,0-5.23-2.22c-.46-.14-.91-.21-1.37-.32l-1.49-.27-3-.55c-1.43-.31-2.88-.55-4.31-.87-5.05-1.15-10-2.56-14.94-4.18-2.18-.71-4.37-1.43-6.52-2.18a53.76,53.76,0,0,1-8.14-3.34c-.81-.46-.47-.83.41-.93a8.56,8.56,0,0,1,3.88.67c5.45,2.2,11,4.1,16.71,5.9a107.37,107.37,0,0,0,10.61,2.6c2,.43,3.93.8,5.9,1.15a29.4,29.4,0,0,1,3,.65,22.85,22.85,0,0,1,2.94,1.06,21.86,21.86,0,0,1,6.37,4.21,15.37,15.37,0,0,1,3.38,4.75,13,13,0,0,1,1.14,5.7,22.11,22.11,0,0,1-1.75,8.68,11.76,11.76,0,0,1-1,1.75,6.09,6.09,0,0,1-2,1.9,1.61,1.61,0,0,1-1.29.21,1,1,0,0,1-.44-.18c-.32-.31.39-.77,1.41-1.94a14,14,0,0,0,2.81-6.59c.09-.63.23-1.25.27-1.89a15.47,15.47,0,0,0,.12-1.89v-.92L249,306a9.11,9.11,0,0,0-.38-1.78c-1-3.48-3.81-6.35-7.11-8.24Z"/><circle class="cls-1" cx="372.16" cy="204.45" r="2.02"/><path class="cls-1" d="M371.38,203.79a1.09,1.09,0,0,0-.36,1,1.43,1.43,0,0,0,.17.38,1.28,1.28,0,0,0,1.36.7,1,1,0,0,0,.65-.42c.21-.28.21-.58.4-.89.06-.09.47-.12.87,0a.85.85,0,0,1,.6,1,2.77,2.77,0,0,1-1.44,1.6,2.65,2.65,0,0,1-2.08.09,3.27,3.27,0,0,1-1.84-1.52,2.65,2.65,0,0,1,1.26-3.52,2.74,2.74,0,0,1,2.19,0,2.93,2.93,0,0,1,1.4,1.07,1.62,1.62,0,0,1,.21.36c.18.49,0,.69-.37.79-.1,0-.19.05-.29.06a.91.91,0,0,1-.73-.24,1.87,1.87,0,0,0-1.13-.67,1.06,1.06,0,0,0-.84.29Z"/><circle class="cls-1" cx="379.02" cy="205.86" r="2.02"/><path class="cls-1" d="M378.24,205.21a1.09,1.09,0,0,0-.36,1,1.24,1.24,0,0,0,.17.37,1.28,1.28,0,0,0,1.36.7,1,1,0,0,0,.65-.41c.21-.28.21-.58.4-.89.06-.1.47-.12.87,0a.82.82,0,0,1,.6,1,2.8,2.8,0,0,1-1.43,1.61,2.67,2.67,0,0,1-2.09.09,3.25,3.25,0,0,1-1.83-1.52,2.66,2.66,0,0,1,1.25-3.52,2.74,2.74,0,0,1,2.19,0,2.87,2.87,0,0,1,1.4,1.07,1.55,1.55,0,0,1,.21.35c.18.5,0,.7-.37.8-.1,0-.19,0-.29.06a.87.87,0,0,1-.72-.24,1.82,1.82,0,0,0-1.14-.67,1,1,0,0,0-.84.29Z"/><circle class="cls-1" cx="385.31" cy="202.09" r="2.02"/><path class="cls-1" d="M384.54,201.44a1,1,0,0,0-.36,1,1.22,1.22,0,0,0,.16.37,1.29,1.29,0,0,0,1.36.7,1,1,0,0,0,.65-.41,8.93,8.93,0,0,0,.4-.89c.06-.1.47-.12.87,0a.84.84,0,0,1,.61,1,2.86,2.86,0,0,1-1.44,1.61,2.67,2.67,0,0,1-2.09.09,3.25,3.25,0,0,1-1.83-1.52,2.66,2.66,0,0,1,1.25-3.52,2.72,2.72,0,0,1,2.2,0,3,3,0,0,1,1.4,1.06,2.53,2.53,0,0,1,.2.36c.18.5.05.7-.37.8a2.47,2.47,0,0,1-.29.06.87.87,0,0,1-.72-.24,1.8,1.8,0,0,0-1.14-.67,1,1,0,0,0-.83.29Z"/><circle class="cls-1" cx="368.16" cy="198.45" r="2.02"/><path class="cls-1" d="M367.38,197.79a1.09,1.09,0,0,0-.36,1,1.43,1.43,0,0,0,.17.38,1.28,1.28,0,0,0,1.36.7,1,1,0,0,0,.65-.42c.21-.28.21-.58.4-.89.06-.09.47-.12.87,0a.85.85,0,0,1,.6,1,2.77,2.77,0,0,1-1.44,1.6,2.65,2.65,0,0,1-2.08.09,3.27,3.27,0,0,1-1.84-1.52,2.65,2.65,0,0,1,1.26-3.52,2.74,2.74,0,0,1,2.19,0,2.93,2.93,0,0,1,1.4,1.07,1.62,1.62,0,0,1,.21.36c.18.49,0,.69-.37.79-.1,0-.19.05-.29.06a.91.91,0,0,1-.73-.24,1.87,1.87,0,0,0-1.13-.67,1.06,1.06,0,0,0-.84.29Z"/><path class="cls-1" d="M236.89,230.81a15.78,15.78,0,0,1-1.64-1.63,7.92,7.92,0,0,1-.56-.61,21.5,21.5,0,0,1-1.56-2.41,12.41,12.41,0,0,0-.7-1,3.25,3.25,0,0,1-.78-1.39c-.05-.35,1.74-.84,2-.37a20.21,20.21,0,0,1,1.42,2.69,6.48,6.48,0,0,0,1.12,1.48,15.11,15.11,0,0,0,1.4,1.48,7.22,7.22,0,0,0,1,.77,6.45,6.45,0,0,0,1.67.86,5.52,5.52,0,0,0,.71.1h.71l.3,0c.37,0,.48.13.56.63,0,.11,0,.23.06.34a.68.68,0,0,1-.49.79,4.84,4.84,0,0,1-3.19-.37,9.58,9.58,0,0,1-2.07-1.25Z"/><path class="cls-1" d="M314.58,241.71a12.55,12.55,0,0,1-1.91.86c-.23.09-.45.2-.69.27-.84.23-1.66.34-2.46.49a5.87,5.87,0,0,0-1,.32,2.78,2.78,0,0,1-1.32.36c-.31,0-.48-1.87,0-2a9.22,9.22,0,0,1,2.77-.49,5.78,5.78,0,0,0,1.59-.44,9.59,9.59,0,0,0,1.63-.66,11.62,11.62,0,0,0,2.3-1.65,8.73,8.73,0,0,0,.8-1.09c.06-.08.1-.17.16-.25.24-.28.41-.27.82,0a2.92,2.92,0,0,1,.28.21.73.73,0,0,1,.3.85,5.66,5.66,0,0,1-1.6,2.05,12.15,12.15,0,0,1-1.65,1.22Z"/><path class="cls-1" d="M135.42,121.8c4-1.47,4.47,3.85,4.51,6.55,0,.56,2.18.18,2.17-.58,0-2-.11-4.4-1.41-6-1.49-1.88-4.11-1.39-6.08-.67-.29.11-.86.41-.61.78s1.15.07,1.42,0Z"/><path class="cls-1" d="M140,117.14c1.5-1.32,4.57,1.39,5.4,2.6,1.22,1.79,1,3.94.55,5.94-.14.73,2,.37,2.17-.3.65-3.25.39-6.2-2.52-8.24-2.16-1.52-5.17-2.15-7.32-.27-.91.8,1.24.69,1.72.27Z"/><ellipse class="cls-1" cx="376.12" cy="357.81" rx="2.37" ry="2.92" transform="translate(-92.88 580.39) rotate(-68.96)"/><ellipse class="cls-1" cx="386.12" cy="365.81" rx="2.37" ry="2.92" transform="translate(-43.04 680.02) rotate(-79.66)"/><ellipse class="cls-1" cx="395.12" cy="359.81" rx="2.37" ry="2.92" transform="translate(-29.76 683.95) rotate(-79.66)"/><ellipse class="cls-1" cx="253.1" cy="362.53" rx="2.34" ry="1.77" transform="translate(-176.78 259.15) rotate(-41.56)"/><ellipse class="cls-1" cx="272.1" cy="361.53" rx="2.34" ry="1.77" transform="translate(-171.33 271.5) rotate(-41.56)"/><path class="cls-1" d="M394.63,331.22v-9.81c0-1.2-.06-2.39,0-3.58,0-4.21.17-8.43.33-12.64.06-1.87.09-3.75.13-5.62.1-2.39,0-4.8.84-7.27.26-.76.81-.42,1.26.34a4.89,4.89,0,0,1,.55,1.35,4.67,4.67,0,0,1,.16,1.81c-.4,4.68-.51,9.54-.85,14.41-.19,2.92-.06,6-.05,9l0,9.86.06,6.08c0,3.07.07,6.15.2,9.19.1,2.37.34,4.68.5,7,0,.52.1,1,.12,1.54.09,1.93-.06,2.55-.69,3a3.25,3.25,0,0,1-.43.29c-.49.19-.92-.59-1.1-2-.53-4.16-.73-8.57-.87-13-.1-3.28-.14-6.59-.2-9.89Z"/><path class="cls-1" d="M398.87,414.48l-.65-11.78c-.08-1.43-.24-2.86-.31-4.29l-.76-15.15c-.12-2.24-.32-4.49-.52-6.7A81.88,81.88,0,0,1,396,368c0-1.79,2.51.3,2.78,3.58.47,5.82.79,11.65.9,17.54.07,3.53.44,7.17.67,10.77l.7,11.86.45,7.3c.25,3.68.47,7.38.8,11,.25,2.83.65,5.6,1,8.39.08.62.18,1.22.25,1.84.24,2.3.17,3-.42,3.6a2.74,2.74,0,0,1-.41.37c-.47.28-1-.62-1.28-2.31-.9-5-1.38-10.28-1.81-15.59-.31-3.95-.56-7.92-.84-11.88Z"/><path class="cls-1" d="M390,340.53c-.79-.28-1.62-.53-2.45-.74-.31-.09-.63-.09-.93-.17-1.09-.28-2.18-.58-3.3-.81a8.41,8.41,0,0,0-1.5-.17,3.94,3.94,0,0,1-1.94-.31c-.37-.22.52-2.43,1.21-2.35a14.92,14.92,0,0,1,3.84.89,16.34,16.34,0,0,0,2.41.49c.89.19,1.77.43,2.65.69.54.18,1.08.34,1.61.53.82.27,1.61.63,2.42.94.62.26,1.29.41,1.94.72a3.36,3.36,0,0,1,.43.2c.49.35.53.6.18,1.14a2.92,2.92,0,0,1-.24.37,1.08,1.08,0,0,1-1.07.47,27,27,0,0,1-2.93-1c-.76-.27-1.53-.58-2.34-.8Z"/><path class="cls-1" d="M81.4,340.92,81.64,298q0-7.83,0-15.66L82,227.14c0-8.16,0-16.37,0-24.47,0-5.85-.06-11.72-.1-17.58l8.34,0c2.45,0,4.89,0,7.33.11,3.25.08,2.81.7.07,1.31a52,52,0,0,1-5.68.82c-1.18.11-2.46.2-3.82.27l-2.1.08-1.09,0h-.41v14.06l-.06,15.72q-.09,15.74-.33,31.55c-.2,12.82-.1,26.16-.15,39.26q-.09,21.63-.19,43.25-.06,13.32-.11,26.62c0,13.43-.06,26.93-.08,40.26,0,2.7,0,5.38,0,8l-13.1,19.22-3.8,5.57c-4.79,6.94-6.46,9.05-8,10.17a10.38,10.38,0,0,1-1,.73c-.87.38.76-2.68,4.17-7.82q4.73-7.11,9.67-14.38L81.3,405.7c0-7.07,0-14.25,0-21.44,0-14.41.06-28.88.09-43.32Z"/><path class="cls-1" d="M100.16,181s-.31-9.76,6.78-9.76c3.75,0,5.63,3,5.63,6.79,0,0,2.78,23.21-5.61,22.85C97.66,200.51,100.16,187,100.16,181Z"/><path class="cls-1" d="M109.6,198a8.85,8.85,0,0,0,1-2.19,18.44,18.44,0,0,0,.64-2.51,39.12,39.12,0,0,0,.6-5.34c.06-1.32,0-2.64,0-4,0-1.16,0-2.34-.1-3.5l-.11-1.76,0-.43a2.47,2.47,0,0,1,0-.32v-.2a7.31,7.31,0,0,0,0-.81,6.6,6.6,0,0,0-.92-3,4,4,0,0,0-2.31-1.78A5.08,5.08,0,0,0,107,172a6.94,6.94,0,0,0-1.38.16,4.52,4.52,0,0,0-2.31,1.34,7.84,7.84,0,0,0-1.65,3.19,25.72,25.72,0,0,0-.71,3.74c-.08.77-.63.73-1.16,0a5,5,0,0,1-.52-3.87,10.4,10.4,0,0,1,2.09-4.24,6.76,6.76,0,0,1,12,2.79,11.87,11.87,0,0,1,.3,2.77c.06.81.13,1.63.19,2.46.13,1.71.22,3.43.21,5.15a51.23,51.23,0,0,1-.3,5.66,25.24,25.24,0,0,1-1.19,5.63,9.56,9.56,0,0,1-1.82,3.25,4.78,4.78,0,0,1-3.59,1.57,8.3,8.3,0,0,1-2.78-.56,6.35,6.35,0,0,1-2.37-1.62,10.36,10.36,0,0,1-2.28-5,39.51,39.51,0,0,1-.64-8.07c0-.59,0-1.16,0-1.75.09-2.18.25-2.83.83-3.28a2.64,2.64,0,0,1,.39-.31c.44-.22.82.71.86,2.32.06,2.39,0,4.78.16,7.14a15.11,15.11,0,0,0,1.51,6.51,4.6,4.6,0,0,0,3.41,2.36,3.48,3.48,0,0,0,1.94-.1,3.3,3.3,0,0,0,1.42-1.31Z"/><path class="cls-1" d="M97.44,159.48a120.39,120.39,0,0,0-2.33,33.42,112.8,112.8,0,0,0,1.51,12.16,79.3,79.3,0,0,0,2.53,10.46,44.28,44.28,0,0,0,4.28,9.75,19.18,19.18,0,0,0,3.23,4.06,8.62,8.62,0,0,0,4.29,2.35,6.64,6.64,0,0,0,4.67-.93,13.92,13.92,0,0,0,3.78-3.46,33.8,33.8,0,0,0,4.51-8.3,64,64,0,0,0,2.8-9.12,132.52,132.52,0,0,0,2.88-24.33c.09-2.55.64-2.22,1.15,0a36.45,36.45,0,0,1,.46,11,102,102,0,0,1-2,12.62,65.58,65.58,0,0,1-3.94,12.26,37,37,0,0,1-3.14,5.75,18.73,18.73,0,0,1-4.66,4.92,10.59,10.59,0,0,1-3.26,1.52,8.31,8.31,0,0,1-3.68.1,9.07,9.07,0,0,1-3.32-1.38,13.15,13.15,0,0,1-2.62-2.23,28.15,28.15,0,0,1-4.41-6.63,55.54,55.54,0,0,1-3-7.35,88.87,88.87,0,0,1-3.41-15.4A127.46,127.46,0,0,1,94,166.36a78.43,78.43,0,0,1,5.57-20.45,32.05,32.05,0,0,1,4.18-7,15.09,15.09,0,0,1,3-2.88,9.52,9.52,0,0,1,3.88-1.72,7.92,7.92,0,0,1,4.26.44,11.25,11.25,0,0,1,3.51,2.28,24.58,24.58,0,0,1,4.79,6.55,59,59,0,0,1,4.45,11.5,93.94,93.94,0,0,1,2.52,12c.26,1.78.5,3.53.67,5.34a55.93,55.93,0,0,1,.31,7.12,9.33,9.33,0,0,1-.5,3.17,6.66,6.66,0,0,1-.38,1c-.46.64-.76-2.07-1.13-6.9a113.84,113.84,0,0,0-3.69-21.63,56.86,56.86,0,0,0-4-10.33,27.14,27.14,0,0,0-2.94-4.56,11.69,11.69,0,0,0-3.88-3.26,6,6,0,0,0-3.33-.61,7.21,7.21,0,0,0-3.24,1.35,19,19,0,0,0-5,6.07,58.47,58.47,0,0,0-5.58,15.7Z"/><path class="cls-1" d="M81.29,421.77c.06-2.69.14-5.38.2-8.06,0-1,0-2,0-2.95.1-3.45.24-6.91.32-10.36,0-1.54,0-3.08,0-4.6a38.34,38.34,0,0,1,0-5.87c.16-1.22,2.49.31,2.52,2.56.06,4,0,8-.33,12-.18,2.41-.06,4.92-.1,7.38,0,2.71-.1,5.41-.15,8.12,0,1.67-.07,3.34-.09,5,0,2.53-.08,5.06,0,7.57,0,1.94.22,3.85.34,5.78,0,.42.07.83.08,1.26,0,1.59-.11,2.09-.75,2.43a3,3,0,0,1-.43.23c-.5.16-.91-.49-1.06-1.65a87.13,87.13,0,0,1-.56-10.71c0-2.7,0-5.42,0-8.14Z"/><rect class="cls-1" x="77.63" y="309.1" width="11.02" height="87.4" rx="1.12"/><path class="cls-1" d="M87.32,321.34l.05-7.44,0-3.39a.19.19,0,0,0-.18-.18H85.53l-3.72,0H79.08a.36.36,0,0,0-.18,0,.25.25,0,0,0-.1.16.28.28,0,0,0,0,.09V311l0,1.86,0,3.72c0,3.63,0,7.25,0,10.86l-.33,38.28c0,5.66,0,11.35,0,17q0,5.41.08,10.84v1.73a.51.51,0,0,0,.12.23.43.43,0,0,0,.23.14h1.67c1.81,0,3.61.05,5.41.11,2.25.07,2,.62,0,1.15a27.19,27.19,0,0,1-3.94.74c-.82.09-1.7.18-2.65.24l-.39,0a4.1,4.1,0,0,1-.7,0,2.47,2.47,0,0,1-1.25-.57,2.58,2.58,0,0,1-.78-1.18,2.54,2.54,0,0,1-.12-.73v-.57c0-14.74.06-29.47.35-44.33.18-8.88.08-18.13.13-27.22l0-7.5,0-3.75v-1.41a4.52,4.52,0,0,1,0-.72,2,2,0,0,1,2.09-1.69l7.6,0h1a2,2,0,0,1,1.33.48,1.89,1.89,0,0,1,.65,1.23,4,4,0,0,1,0,.68v.47l0,3.75q0,9.22-.1,18.46c0,9.31-.1,18.68-.07,27.92,0,7.19.17,14.24.27,21.35,0,1.56,0,3.09.07,4.67,0,2.93,0,4.85-.11,6.21a15.21,15.21,0,0,1-.22,1.65l-.08.34a1.28,1.28,0,0,1-.15.4,1.14,1.14,0,0,1-.51.49,1,1,0,0,1-1,.06c-.28-.22.31-.36.33-.86a.3.3,0,0,0,0-.16l-.06-.48c0-.34-.06-.71-.09-1.12-.06-.82-.11-1.77-.14-2.84-.39-12.7-.44-26.1-.45-39.55,0-10,.06-20,.08-30Z"/></g></svg>