<svg id="Layer_1" data-name="Layer 1" xmlns="http://www.w3.org/2000/svg" width="520" height="520" viewBox="0 0 520 520"><defs><style>.cls-1{fill:#221f1f;}</style></defs><title>Notioly v2</title><g id="_100.Looking_out_the_window" data-name="100.Looking out the window"><path class="cls-1" d="M384.07,230.49a25.23,25.23,0,0,1-3.93-7.82,40.14,40.14,0,0,1-1.62-8.42l-.2-3.09c0-1-.07-2.07,0-3.09a75.91,75.91,0,0,1,1.12-10.77c.58-3.55,1.42-7,2.33-10.5.84-3.06,1.7-6.14,2.64-9.14l.9-2.9,1-2.88a56,56,0,0,1,2.28-5.62c1.07-2.28,2,1.55.44,5.84q-2.08,5.75-3.86,11.58c-1.16,3.9-2.22,7.83-3.11,11.83a65.79,65.79,0,0,0-1.36,14.86c.09,5.43.93,11,3.41,15.74a16.81,16.81,0,0,0,6.6,7,15,15,0,0,0,14.22-.08c3.35-1.94,5.82-5,8.51-7.92.6-.65,1.16-1.3,1.8-1.93,2.38-2.34,3.46-2.82,4.39-2.71a2.81,2.81,0,0,1,.63.09c.53.27-.36,1.25-2,2.87-2.44,2.41-4.66,5.28-7.41,7.94a25,25,0,0,1-4.67,3.64,16,16,0,0,1-5.85,2,17.57,17.57,0,0,1-9.06-1,17.8,17.8,0,0,1-7.22-5.55Z"/><path class="cls-1" d="M372.45,193.87a7.19,7.19,0,0,1,.29-1.75,4.49,4.49,0,0,1,.36-.89,4.35,4.35,0,0,1,.5-.76,5.57,5.57,0,0,1,.78-.94,10.69,10.69,0,0,1,3.45-2c.54-.2,1.07-.42,1.62-.6a3.32,3.32,0,0,1,2.24-.27c.24.07.16.69,0,1.3s-.4,1.19-.69,1.24a25.72,25.72,0,0,0-3.37.86,4.41,4.41,0,0,0-1.76,1.3,3.1,3.1,0,0,0-1,1.88,5,5,0,0,0,0,1.5,5.2,5.2,0,0,0,.75,2.19,2.28,2.28,0,0,0,1.28.87,1.22,1.22,0,0,0,.26,0c.28,0,.33.16.46.82l.1.44a.78.78,0,0,1-.77,1,3.43,3.43,0,0,1-2.48-1,5.59,5.59,0,0,1-1.39-2,8.45,8.45,0,0,1-.69-3.33Z"/><path class="cls-1" d="M380.79,166.89c-11.8-.66-29.62-41,8-59,34.4-16.38,57.16,7.42,59.76,10.83,69.79-16.53,33.76,120.54,23.06,136.91-8.53,13-17.63,9.58-28,9.81-13.08.28-27.18,38.8-45.09,33-8.3-2.67-19.76-37.18,14.6-59.65,19-12.41,18.05-94.58-16-85.74C389.32,155.14,388.09,164.08,380.79,166.89Z"/><path class="cls-1" d="M424.27,280.22c2.4-2.93,4.77-5.92,7.41-8.76a40.18,40.18,0,0,1,4.28-4,15.84,15.84,0,0,1,5.46-3c.27-.06.53-.15.81-.2l.85-.1a11.69,11.69,0,0,1,1.53,0c1,0,1.94,0,2.91.06,1.91.09,3.79.19,5.64.22,3.67,0,7.26-.41,10.25-2.24a18.17,18.17,0,0,0,4.09-3.31c.57-.7,1.21-1.34,1.73-2.08s1.11-1.48,1.54-2.22a40.41,40.41,0,0,0,2.41-4.94c.72-1.72,1.39-3.47,2-5.24,2.53-7.08,4.61-14.35,6.45-21.68a280.39,280.39,0,0,0,6-32.48,187.9,187.9,0,0,0,1.59-24.84,91.46,91.46,0,0,0-3.16-24.48,42,42,0,0,0-5-11.11,24.9,24.9,0,0,0-8.66-8.2,25.81,25.81,0,0,0-11.55-3.12c-1-.07-2,0-3.05,0s-2,.15-3.06.23l-3,.45-3.59.73c-.33-.41-.72-.91-1-1.22l-.69-.75c-.46-.49-.95-1-1.45-1.44-1-.94-2-1.84-3.11-2.69a49.15,49.15,0,0,0-6.84-4.58,46.18,46.18,0,0,0-24.49-6,55.28,55.28,0,0,0-24.25,7.06,41,41,0,0,0-12.43,10.22,35.14,35.14,0,0,0-4.16,6.87,33.44,33.44,0,0,0-2.26,7.69,35.57,35.57,0,0,0,1.17,15.94,34.19,34.19,0,0,0,3.18,7.37,21.66,21.66,0,0,0,5,6.06c2.6,2,4,1.8,3.9,2.13-.05.1-.48.21-1.29.17a8,8,0,0,1-3.27-1.18,17.79,17.79,0,0,1-4.12-3.52,28.89,28.89,0,0,1-3.89-5.87,35.51,35.51,0,0,1-3.76-17.34,34.13,34.13,0,0,1,3.32-13.36,36.14,36.14,0,0,1,8.25-11,47,47,0,0,1,11.34-7.56,62.66,62.66,0,0,1,12.71-4.67,49.18,49.18,0,0,1,27,.82,51.66,51.66,0,0,1,12.28,5.9,52.73,52.73,0,0,1,5.46,4.08c.87.74,1.71,1.51,2.52,2.32.41.4.81.81,1.2,1.24l.52.58.07.09.1,0,.86-.17c.62-.12,1.24-.28,1.87-.35,1.26-.16,2.5-.41,3.78-.46l1.91-.15h1.93a15.41,15.41,0,0,1,1.92.07c.65.05,1.29.07,1.93.16a29,29,0,0,1,7.53,1.95,24.38,24.38,0,0,1,6.66,4.09,29.86,29.86,0,0,1,6.68,8.25,47.19,47.19,0,0,1,4,9.77,87.32,87.32,0,0,1,3.14,20.82,164.77,164.77,0,0,1-.54,21.08c-.6,7-1.54,13.95-2.74,20.82q-2,11.34-4.85,22.49a213.46,213.46,0,0,1-6.83,22c-.69,1.8-1.42,3.59-2.25,5.36-.42.88-.85,1.75-1.37,2.62s-1.11,1.63-1.68,2.45a27.21,27.21,0,0,1-1.88,2.29c-.31.39-.7.7-1.05,1.06s-.7.71-1.11,1a18.84,18.84,0,0,1-5.19,3.06c-3.83,1.42-7.9,1.38-11.7,1.2-1.92-.08-3.81-.2-5.69-.18a8.34,8.34,0,0,0-1.35.05l-.62.06-.62.17a6.34,6.34,0,0,0-1.21.45,9.42,9.42,0,0,0-1.18.61,26.46,26.46,0,0,0-5.24,4.34c-1.61,1.65-3.13,3.43-4.63,5.22-3,3.6-5.9,7.32-9,10.88s-6.52,7-10.75,9.47a15.74,15.74,0,0,1-7,2.21l-.94,0c-.31,0-.62-.06-.93-.08l-.94-.1-.91-.22-.91-.23c-.32-.14-.64-.27-1-.42l-.83-.55-.73-.63a16.26,16.26,0,0,1-3.25-4.54,29.75,29.75,0,0,1-2-5.11,37.52,37.52,0,0,1-1.45-10.78,41.77,41.77,0,0,1,5.75-20.75,53.4,53.4,0,0,1,14.53-15.84c.72-.55,1.47-1,2.2-1.55l1.11-.77c.35-.25.68-.48,1-.74a17.34,17.34,0,0,0,3.35-3.83,37.28,37.28,0,0,0,4.26-9.47,78.22,78.22,0,0,0,3-15.95,105.22,105.22,0,0,0,.21-16.17,86.57,86.57,0,0,0-2.45-15.89,46.06,46.06,0,0,0-6.2-14.58,22.34,22.34,0,0,0-4.62-5,15.17,15.17,0,0,0-6-2.82,16.1,16.1,0,0,0-5.72-.15,10.35,10.35,0,0,0-1.28.23,10,10,0,0,0-1.2.3c-.36.13-.73.21-1.06.36l-1,.46a19.58,19.58,0,0,0-5.27,4.92c-2.56,3.23-4.5,5-6.31,5.83-.43.18-.9.39-1.34.56a11.32,11.32,0,0,1-1.12.27c-.44.06-.35-.11.17-.47a10.94,10.94,0,0,0,1.07-.73c.22-.16.47-.33.72-.54l.81-.7a31,31,0,0,0,3.83-4.64,40.85,40.85,0,0,1,2.56-3.26,15.43,15.43,0,0,1,3.8-3.2,13.92,13.92,0,0,1,3.73-1.38,21.26,21.26,0,0,1,3.84-.53,17.11,17.11,0,0,1,7.73,1.5,19.6,19.6,0,0,1,3.41,2,23,23,0,0,1,2.9,2.67,30.63,30.63,0,0,1,4.42,6.39A56.66,56.66,0,0,1,425,178.32,92.64,92.64,0,0,1,427,193.55a106.25,106.25,0,0,1-.37,15.44,82.75,82.75,0,0,1-2.88,15.34,48.77,48.77,0,0,1-2.85,7.41,24.7,24.7,0,0,1-4.69,6.75,23.73,23.73,0,0,1-3.26,2.52c-1,.72-2.07,1.42-3,2.21l-1.48,1.15c-.49.4-.95.82-1.42,1.23s-.95.81-1.4,1.24l-1.33,1.32A43.75,43.75,0,0,0,393,266.87a37.09,37.09,0,0,0,.24,21.66,23.94,23.94,0,0,0,2.23,4.87,12.29,12.29,0,0,0,1.53,2.05,5.84,5.84,0,0,0,1.75,1.39,4.54,4.54,0,0,0,1.07.33,5.71,5.71,0,0,0,1.22.23,10.82,10.82,0,0,0,2.48,0,13.37,13.37,0,0,0,4.85-1.65,24.69,24.69,0,0,0,4.43-3.09,45.5,45.5,0,0,0,4-3.84c2.59-2.71,5-5.66,7.4-8.63Z"/><path class="cls-1" d="M467.24,351.51q2.31-11.1,3.92-22.34c.38-2.74.66-5.48,1-8.22a209.44,209.44,0,0,0,1.61-29.07,82.11,82.11,0,0,0-1.27-12.78,39.57,39.57,0,0,0-2.24-7.76c-1-2.42-2.4-4.77-4.5-6-.65-.35-.94-.57-.85-.81s.56-.44,1.39-.37a5.64,5.64,0,0,1,3.11,1.37,10.45,10.45,0,0,1,2.85,3.78,35.9,35.9,0,0,1,2.58,8.45,75.73,75.73,0,0,1,1.08,8.57,130.86,130.86,0,0,1,0,17.15c-.42,6.83-.89,13.92-1.73,20.85-.93,7.61-2.16,15.19-3.6,22.72-.88,4.64-1.87,9.26-2.91,13.85-1.59,7-3.42,13.91-5.34,20.73-1.49,5.31-3,10.51-4.64,15.71-.38,1.14-.71,2.27-1.12,3.41-1.5,4.24-2.2,5.5-3.14,6.17a4.48,4.48,0,0,1-.64.43c-.63.21-.31-1.62.69-4.73,3-9.21,5.95-19,8.56-28.87,1.93-7.36,3.69-14.8,5.19-22.28Z"/><path class="cls-1" d="M426.27,358.63c3.9-4.82,7.69-9.73,11.28-14.79,1.31-1.84,2.52-3.75,3.79-5.62a135.29,135.29,0,0,0,11.71-20.73,53.73,53.73,0,0,0,3.27-10,29.07,29.07,0,0,0,.06-13c-.35-1.28.26-1.4,1.23-.43a9.15,9.15,0,0,1,2.11,6,40.5,40.5,0,0,1-2.79,14.1A82.62,82.62,0,0,1,450.86,327c-2.81,4.87-5.78,9.91-9,14.66-3.54,5.22-7.31,10.27-11.2,15.22-2.39,3-4.84,6-7.32,9-3.76,4.5-7.65,8.92-11.51,13.26-3,3.38-5.9,6.75-8.95,10-.67.72-1.31,1.44-2,2.16-2.59,2.63-3.62,3.31-4.65,3.34a2.52,2.52,0,0,1-.68,0c-.55-.2.29-1.33,2.1-3.32,5.35-5.83,11-12.06,16.5-18.39,4.11-4.71,8.17-9.49,12.07-14.39Z"/><path class="cls-1" d="M338.57,347.87c7.3,3.55,14.36,7.5,21.49,11.19,2.61,1.35,5.25,2.58,7.9,3.78a49.5,49.5,0,0,0,7.08,2.67,14.5,14.5,0,0,0,3.55.57,3.87,3.87,0,0,0,.84,0l.2,0h.1c.06,0,.12,0,.16,0l1-1.19c3.19-4,6.22-8.24,9.22-12.45,2.66-3.75,5.23-7.59,7.73-11.4q2.39-3.69,4.72-7.42c1.55-2.47,3.15-4.95,4.61-7.4.39-.72.67-1,.9-.89s.36.58.27,1.45a19.61,19.61,0,0,1-3,7.36c-3.21,5.09-6.56,10.07-10,15s-7,9.81-10.71,14.6L383,365.78c-.28.36-.58.72-.88,1.08l-.53.64-.37.44a.36.36,0,0,1-.1.11l-.14,0-.29.05-1,.15a3.48,3.48,0,0,1-.78.05,12.86,12.86,0,0,1-1.53-.07c-.49-.07-1-.12-1.47-.21l-1.42-.33a63.22,63.22,0,0,1-10.54-4.13c-7.36-3.57-14.42-7.57-21.65-11.23-4.45-2.26-8.94-4.42-13.53-6.3a81,81,0,0,0-10.66-3.6,35.81,35.81,0,0,0-11-1.26c-.7.08-1.41.13-2.1.24l-2.05.45a37.18,37.18,0,0,0-4,1.41,29.29,29.29,0,0,0-7.19,4.24,12.84,12.84,0,0,0-1.34,1.21l-.63.63-.59.68a21.29,21.29,0,0,0-2.63,3.9,7.94,7.94,0,0,1-1.3,1.81,4.73,4.73,0,0,1-.61.54c-.3.17-.43-.23-.36-1.15,0-.23.05-.5.09-.79s.16-.6.26-.94.22-.71.38-1.09l.59-1.18a19.5,19.5,0,0,1,5.52-6.2,31.66,31.66,0,0,1,7.32-4,36.64,36.64,0,0,1,4-1.34l2.15-.46c.72-.12,1.44-.17,2.16-.25a35.81,35.81,0,0,1,8.55.55,69.54,69.54,0,0,1,12,3.48c3.86,1.47,7.62,3.16,11.32,4.93Z"/><path class="cls-1" d="M343.58,355.26a28,28,0,0,0-3,.94c-.37.12-.7.34-1.06.48a31.06,31.06,0,0,0-3.77,1.7,8.94,8.94,0,0,0-1.5,1.05,8.53,8.53,0,0,1-1.72,1.39c-.16.06-.69-.28-1-.85a1.52,1.52,0,0,1,.06-1.69,13.8,13.8,0,0,1,4.49-2.6c1-.33,1.86-.92,2.82-1.32s2.15-.81,3.24-1.14c.67-.2,1.36-.37,2-.55l1.56-.34c.53-.1,1.05-.18,1.56-.3.81-.16,1.59-.41,2.4-.59a5.17,5.17,0,0,1,.54-.11c.68-.07.9.09,1.05.72,0,.15.07.29.09.43a1,1,0,0,1-.64,1.08,8.83,8.83,0,0,1-1,.3c-.33.1-.66.2-1,.27l-2,.43c-1,.23-2.05.45-3.06.76Z"/><path class="cls-1" d="M384,338.45q2.47-3.85,4.78-7.82c.57-1,1.07-2,1.62-2.92,2-3.41,3.92-6.83,5.79-10.3.83-1.54,1.6-3.13,2.33-4.7a52.32,52.32,0,0,1,3-6c.76-1.18,2.07,1.43,1,3.75a129.59,129.59,0,0,1-6.52,12.1c-1.44,2.36-2.69,4.94-4.08,7.4q-2.31,4-4.76,8c-1,1.63-2,3.25-3.07,4.84-1.56,2.44-3.23,4.82-4.86,7.19-1.28,1.84-2.45,3.71-3.79,5.49-.3.39-.55.8-.87,1.18-1.2,1.41-1.71,1.74-2.44,1.59a2.35,2.35,0,0,1-.49-.11c-.47-.21-.28-1,.47-2.1,2.23-3.17,4.59-6.48,6.9-9.88,1.69-2.55,3.4-5.11,5-7.74Z"/><path class="cls-1" d="M419.33,402.9c3.23,1,6.52,1.88,9.82,2.63,1.21.27,2.43.42,3.64.66a72.29,72.29,0,0,0,12.95,1.26l2.89-.15c1-.06,1.9-.27,2.84-.39a66.17,66.17,0,0,0,7.08-1.81c.73-.19.83.28.38.94A5.65,5.65,0,0,1,456,408a42,42,0,0,1-15.54,1c-1.54-.19-3.12-.29-4.69-.53l-2.36-.3-2.34-.42c-3.42-.62-6.78-1.5-10.11-2.43-2-.62-4.09-1.21-6.1-1.9-3.06-1-6.09-2.14-9.08-3.26l-6.93-2.52c-.51-.18-1-.37-1.51-.58-1.87-.77-2.41-1.14-2.6-1.77a2.07,2.07,0,0,1-.13-.43c0-.43.86-.39,2.26.09,4.12,1.45,8.39,3.1,12.72,4.66,1.61.58,3.22,1.16,4.85,1.69l2.43.81,2.46.75Z"/><path class="cls-1" d="M473,302.55c1.61-19.38,3.11-38.76,4.82-58.13l1.74-21.2q3.29-37.35,6.56-74.7c1-11,1.83-22.16,2.67-33.13,1.07-14.1,2-28.27,3.47-42.33.93-8.76,3.11,2.63,1.82,18.87-2.28,28.78-4.75,57.53-7.55,86.51-1.67,17.33-3,35.4-4.5,53.14q-1.26,14.64-2.5,29.27l-2.36,29.29q-1.46,18-2.89,36c-1.43,18.19-2.92,36.47-4.25,54.54-1,14-1.85,27.82-2.76,41.72-.2,3.06-.39,6.05-.59,9.13-.81,11.43-1.3,15.05-2.34,17.44a12.38,12.38,0,0,1-.71,1.58c-.74,1.05-.93-3.65-.49-12,1.31-24.87,3.21-51,5.21-77.32,1.52-19.51,3-39.11,4.57-58.67Z"/><path class="cls-1" d="M302.74,457.57q-29.26-.29-58.53-.92c-7.12-.14-14.24-.2-21.35-.39-25.08-.63-50.15-1.47-75.21-2.36l-33.35-1.06c-14.18-.44-28.42-.73-42.59-1.75a14.89,14.89,0,0,1-2.48-.35c-.55-.15-.76-.3-.69-.46s.43-.3,1-.46a19.38,19.38,0,0,1,2.22-.47,104.66,104.66,0,0,1,18.84-.78c28.94,1.08,57.86,2.13,87,3.34,17.45.71,35.63,1,53.49,1.37q29.44.63,58.92,1,18.15.2,36.28.29c18.31.07,36.7.13,54.88,0,14.13-.1,28-.42,41.94-.69l9.18-.19c11.5-.17,15.16,0,17.64.82a13.36,13.36,0,0,1,1.64.56c1.11.65-3.57,1.26-12,1.54-25,.84-51.31,1.11-77.76,1.2-19.64.06-39.37,0-59.06-.15Z"/><path class="cls-1" d="M58.92,308.25q-1-25.22-2.13-50.43-.45-9.19-.89-18.39l-2.74-64.85c-.45-9.59-.91-19.23-1.36-28.75-.6-12.23-1.37-24.48-1.53-36.74a11.36,11.36,0,0,1,.12-2.2c.09-.52.21-.7.32-.63a2.06,2.06,0,0,1,.37.85c.13.44.32,1.07.49,1.87a106.6,106.6,0,0,1,1.84,16.15c1.13,25,2.23,49.92,3.1,75.1C57,215.29,57.9,231,58.59,246.35l2.25,50.81q.61,15.64,1.22,31.28c.57,15.79,1.13,31.66,1.69,47.33.49,12.18,1,24.13,1.46,36.17.1,2.65.21,5.24.31,7.92.33,9.92.24,13.08-.34,15.22a13.26,13.26,0,0,1-.4,1.42c-.48,1-1-3.07-1.33-10.32-1-21.52-1.82-44.22-2.66-67-.64-16.93-1.28-33.93-1.93-50.89Z"/><path class="cls-1" d="M310.63,69.32l-35.12.47c-11.7.13-23.4.43-35.11.16l-25.61-.22L124.5,68.52c-13.35-.17-26.78-.24-40-.29-17-.07-34.12,0-51.13-.45-10.61-.3,2.87-3.29,22.48-3.16,34.77.22,69.5.63,104.55,1.35,20.95.43,42.77.47,64.21.7l17.68.2,8.84.11c3,0,5.9-.07,8.84-.1l35.37-.5,43.53-.64c22-.35,44.05-.65,65.85-1.09,17-.34,33.57-.87,50.33-1.31L466,63c13.79-.3,18.19-.17,21.16.63a18.35,18.35,0,0,1,2,.55c1.34.64-4.28,1.29-14.38,1.66-30,1.12-61.55,1.78-93.28,2.36L310.66,69.4Z"/><path class="cls-1" d="M30.8,303.37l-2.48-57.08-.93-20.82c-.95-24.48-1.45-49-1.76-73.46-.14-10.86-.28-21.79-.42-32.57-.16-13.85-.4-27.77.07-41.61.32-8.61,3.23,2.34,3.24,18.29,0,28.26.27,56.5.59,85,.19,17,1,34.76,1.77,52.19q1.25,28.72,2.5,57.48l1.68,35.38c.88,17.85,1.77,35.79,2.8,53.5.8,13.77,1.8,27.26,2.73,40.86.21,3,.42,5.93.63,9,.71,11.2.71,14.78,0,17.23a12.8,12.8,0,0,1-.48,1.63c-.6,1.11-1.42-3.42-2.1-11.62-2-24.3-3.56-50-5-75.74-1-19.14-2-38.38-2.94-57.57Z"/><path class="cls-1" d="M299.82,88.68l-62.17.16L215,89,175,89l-20,0-10,0c-3.33,0-6.66-.14-10-.2-11.82-.31-23.7-.54-35.43-.75-15.07-.28-30.21-.44-45.26-1C45,86.75,56.93,84.69,74.29,85l46.17,1.06,23.14.62,23.22.06c18.55.08,37.86-.15,56.84-.22l62.63-.2,38.54-.13,58.3-.29c15-.13,29.73-.39,44.57-.59l9.76-.14c12.21-.12,16.1,0,18.73.64.59.15,1.38.29,1.73.43,1.18.49-3.8.93-12.74,1.13-26.53.6-54.51.84-82.6,1l-62.73.31Z"/><path class="cls-1" d="M181.23,286.38l-.62-45L180.25,225l-.17-14.46c-.07-4.82-.08-9.64-.24-14.45l-.81-28.9c-.26-8.55-.63-17.15-1-25.62-.51-10.9-1.22-21.83-1.21-32.73,0-6.8,4.2,1.66,4.72,14.22.93,22.26,1.62,44.51,1.93,67,.28,13.43.57,27.4.86,41.14l.72,45.32.45,27.88c.25,14.08.45,28.22.83,42.19.29,10.86.81,21.5,1.24,32.23.1,2.37.19,4.68.29,7.06.27,8.84.07,11.66-1,13.58a7.3,7.3,0,0,1-.7,1.27c-.8.86-1.57-2.72-2-9.19-1.16-19.17-1.73-39.4-2.2-59.72-.29-15.09-.59-30.25-.89-45.38Z"/><path class="cls-1" d="M296.56,240.19l.85-33.43.18-12.2.3-10.75.15-5.37c0-1.79.15-3.58.09-5.37l-.33-21.49c-.11-6.35-.34-12.74-.59-19-.32-8.1-.85-16.23-.66-24.34.12-5,4.17,1.24,4.48,10.59.56,16.56.87,33.12.81,49.83,0,1.24,0,2.5,0,3.76s0,2.52,0,3.79c-.05,2.54-.1,5.1-.15,7.66-.08,5.12-.15,10.27-.23,15.38q-.39,16.85-.77,33.7-.24,10.36-.47,20.74c-.2,10.47-.46,21-.54,31.37-.07,8.08.11,16,.18,24,0,1.76.07,3.48.06,5.25,0,6.57-.32,8.66-1.4,10.06a5.8,5.8,0,0,1-.74.92c-.84.62-1.48-2.07-1.66-6.88-.53-14.28-.44-29.32-.25-44.42.2-11.22.4-22.49.6-33.74Z"/><path class="cls-1" d="M240,212.58l-43.76-.36h-16l-28.13-.29c-9.37.16-18.74.41-28.11.63-8.32.21-16.68.54-24.92.89-10.6.44-21.23,1.1-31.84,1-6.61,0,1.63-4.19,13.86-4.65,21.66-.81,43.32-1.37,65.16-1.57l40,0,44.1.28,27.13.16c13.7.06,27.46.16,41.05.09,10.57,0,20.93-.34,31.38-.53l6.87-.14c8.6-.08,11.33.19,13.18,1.26a6.65,6.65,0,0,1,1.22.73c.83.82-2.68,1.51-9,1.76-18.67.73-38.36.86-58.13.89L240,212.68Z"/><path class="cls-1" d="M219.22,336.45l-37.15.19-13.55.2-47.76.14c-1.77,0-3.54,0-5.3.07l-5.3.23-10.55.52c-9,.47-18,1.15-27,1.11-5.62,0,1.32-4.2,11.7-4.68q13.8-.64,27.6-1.1c4.61-.2,9.22-.1,13.84-.11l13.89.12c11.1.15,22.63-.2,34-.3l37.43-.27,23-.19c11.63-.12,23.31-.18,34.85-.42,9-.19,17.75-.61,26.62-.92l5.83-.23c7.3-.19,9.62.05,11.21,1.09a6.23,6.23,0,0,1,1,.71c.72.82-2.25,1.55-7.58,1.87-15.84,1-32.55,1.35-49.33,1.62l-37.47.45Z"/><circle class="cls-1" cx="280.15" cy="195.66" r="1.82"/><circle class="cls-1" cx="271.74" cy="147.45" r="1.71"/><circle class="cls-1" cx="226.72" cy="137.35" r="2.73"/><circle class="cls-1" cx="205.61" cy="159.89" r="2.07"/><circle class="cls-1" cx="153.56" cy="143.36" r="1.44"/><circle class="cls-1" cx="109.72" cy="134.56" r="2.69"/><circle class="cls-1" cx="116.51" cy="161.05" r="1.44"/><circle class="cls-1" cx="91.51" cy="176.61" r="1.14"/><circle class="cls-1" cx="107.4" cy="195.66" r="2.4"/><circle class="cls-1" cx="243.16" cy="189.26" r="1.14"/><circle class="cls-1" cx="249.82" cy="241.88" r="2.01"/><circle class="cls-1" cx="218.22" cy="219.33" r="1.14"/><circle class="cls-1" cx="84.68" cy="116.05" r="1.44"/><path class="cls-1" d="M298.54,90.68l-61.1.15L215.16,91,175.88,91l-19.64,0c-6.54,0-13.09.11-19.63-.15-11.62-.3-23.3-.54-34.83-.76-14.81-.28-29.68-.44-44.48-1-9.22-.37,2.54-2.42,19.59-2.06l45.37,1.07c7.57.18,15.15.47,22.74.59l22.83.06c18.23.08,37.21-.15,55.87-.22l61.54-.2,37.88-.13,57.3-.29c14.76-.12,29.22-.38,43.8-.58l9.59-.14c12-.12,15.83,0,18.41.64.59.15,1.36.29,1.7.43,1.16.49-3.73.93-12.52,1.13-26.07.6-53.57.84-81.18,1l-61.65.31Z"/><path class="cls-1" d="M60.89,307.36q-1-24.6-2.09-49.21l-.87-17.95L55.2,176.93c-.41-9.36-.89-18.77-1.38-28.05C53.22,137,52.44,125,52.27,113a11.89,11.89,0,0,1,.11-2.15c.1-.51.22-.69.33-.62a2,2,0,0,1,.37.83c.13.43.32,1,.49,1.83a101.15,101.15,0,0,1,1.85,15.75C56.58,153,57.68,177.38,58.55,202c.52,14.7,1.38,30,2.07,45l2.19,49.58q.61,15.27,1.22,30.52c.56,15.41,1.13,30.89,1.69,46.18.5,11.89,1,23.54,1.47,35.29.11,2.59.21,5.12.32,7.73.33,9.68.25,12.76-.33,14.86a12.25,12.25,0,0,1-.4,1.38c-.47.94-1-3-1.34-10.07-1-21-1.84-43.14-2.68-65.38-.64-16.52-1.29-33.11-1.93-49.66Z"/><path class="cls-1" d="M153.56,439a3.49,3.49,0,0,1-.37,1.26c-1.4,2.79-6.34,1.81-6.31-1.41C146.92,435,153.8,435.58,153.56,439Z"/><path class="cls-1" d="M167.24,447c0,.39-.14-.19-.37.26-1.39,2.79-6.34,2.81-6.31-.41C160.6,443,167.48,443.54,167.24,447Z"/><path class="cls-1" d="M183,433.29a3.41,3.41,0,0,1-.37,1.26c-1.39,2.79-6.33,1.8-6.3-1.41C176.33,429.28,183.21,429.86,183,433.29Z"/><path class="cls-1" d="M197.27,434.76a3.49,3.49,0,0,1-.37,1.26c-1.4,2.79-6.34,1.81-6.31-1.41C190.63,430.75,197.51,431.33,197.27,434.76Z"/><path class="cls-1" d="M204,447.86a3.3,3.3,0,0,1-.37,1.26c-1.39,2.79-6.34,1.81-6.31-1.41C197.31,443.85,204.19,444.43,204,447.86Z"/><path class="cls-1" d="M230.05,448.43a3.14,3.14,0,0,1-.37,1.26c-1.39,2.79-6.33,1.81-6.3-1.41C223.41,444.42,230.3,445,230.05,448.43Z"/><path class="cls-1" d="M452.81,407.48c-10.83,27.28-25.07,47.7-41.28,48.42-32.71,1.43-104.36-58.45-113-66.57-8,5.91-72,44.22-78.73,49-5.35.9-20-12.27-25.9-17.91,21.84-12.34,85.69-68.67,109-69.93C326.85,349.19,407.06,416.73,452.81,407.48Z"/><path class="cls-1" d="M237.78,390.65,218.9,404.76c-6.32,4.69-12.63,9.39-19.25,13.75-.83.54-1.68,1.06-2.52,1.6l-.31.19-.1.06-.18.11a2.15,2.15,0,0,0-.35.21l.85.81,2.16,2c2.89,2.61,5.86,5.15,8.94,7.51,1.54,1.17,3.1,2.31,4.72,3.33a22.72,22.72,0,0,0,4.93,2.51,6.25,6.25,0,0,0,1.18.25l.26,0a.38.38,0,0,0,.11,0,.11.11,0,0,0,.08,0l.09-.06c.83-.56,1.67-1.12,2.5-1.64l5-3.14q14.65-9.08,29.32-18l25.87-15.78c4.29-2.66,8.59-5.3,12.8-8,.54-.34,1.06-.69,1.56-1l1.11-.76.65-.44.33-.23.28.26,1.92,1.75,1.41,1.25c1.88,1.66,3.81,3.29,5.74,4.91q11.6,9.69,23.74,18.73c8.08,6,16.34,11.84,24.81,17.3a245.78,245.78,0,0,0,23.23,13.4c2,1,4,1.92,6,2.87s4.08,1.77,6.16,2.52a66,66,0,0,0,12.69,3.58c.69.15,1.39.17,2.08.27s1.39.19,2.08.18a29.87,29.87,0,0,0,4.13-.1,22.42,22.42,0,0,0,7.77-2.59,33.8,33.8,0,0,0,6.75-4.88,55,55,0,0,0,5.75-6.16,98.81,98.81,0,0,0,9.37-14.15c2.76-5,5.22-10.1,7.51-15.3,2.77-6.53,3-5.44,1.25.38a102.18,102.18,0,0,1-4.52,11.71,91.26,91.26,0,0,1-9,15.66,56,56,0,0,1-12.5,12.91,28.72,28.72,0,0,1-8.26,4.14,21.83,21.83,0,0,1-4.62.9,18.2,18.2,0,0,1-2.33,0c-.77,0-1.55,0-2.31-.07A64.49,64.49,0,0,1,390.49,453a149.22,149.22,0,0,1-16.05-7.49,309.58,309.58,0,0,1-29.95-18.61c-9.66-6.72-19.06-13.81-28.26-21.18-5.49-4.43-11-8.94-16.39-13.7l-1-.9-.35-.33c-.12,0-.23.14-.34.2l-1.11.76c-1.51,1-3,2-4.55,2.92l-9.17,5.75c-12.28,7.61-24.68,15.17-37,22.67-6.75,4.12-13.51,8.24-20.22,12.42-1.66,1.05-3.37,2.09-5,3.18l-.78.52a.88.88,0,0,1-.57.15c-.19,0-.42.05-.59,0a6.66,6.66,0,0,1-1.72-.27,15.79,15.79,0,0,1-2.95-1.18,61.87,61.87,0,0,1-10-6.81c-3.11-2.5-6.1-5.13-9-7.84l-3-2.85-.21-.2c0-.07.13-.1.19-.15l.48-.29,1-.57,1.81-1.08c1.67-1,3.31-2.11,4.94-3.21,6.51-4.45,12.86-9.18,19.2-13.91,15.6-11.66,31.09-23.54,47.36-34.34a205.66,205.66,0,0,1,19.09-11.37A67,67,0,0,1,296.7,351c.45-.14.89-.3,1.35-.41l1.38-.32a19.17,19.17,0,0,1,2.83-.45,18.18,18.18,0,0,1,5.71.43,60.9,60.9,0,0,1,10.59,3.61c3.41,1.47,6.74,3.08,10,4.76,6.57,3.35,13,6.92,19.4,10.48,9.95,5.55,19.78,11.05,29.75,16.2a308.76,308.76,0,0,0,30.53,14c4.61,1.75,9.18,3.29,13.95,4.62a94,94,0,0,0,19.07,3.42c4.21.26,6.65.22,8.64.28.92.06,2.11-.05,2.66,0s.35.18-.3.41c-.32.11-.78.24-1.36.4s-1.31.26-2.16.41a53.33,53.33,0,0,1-15.62-.22c-10.11-1.5-19.95-4.73-29.56-8.6s-19-8.46-28.34-13.33-18.54-10-27.79-15.19-18.53-10.37-28.12-14.72a67.78,67.78,0,0,0-10.85-4,19.77,19.77,0,0,0-5.41-.68,24.55,24.55,0,0,0-5.41,1.07c-7.28,2.3-14.18,6.29-20.9,10.33-13.42,8.27-26.21,17.68-38.91,27.13Z"/><path class="cls-1" d="M147.65,450.88a43.64,43.64,0,0,1-6.82-.49,18.27,18.27,0,0,1-6.77-2.3,8.94,8.94,0,0,1-2.75-2.76,8.06,8.06,0,0,1-1.13-3.73,3.19,3.19,0,0,1,.06-1.24l.07-.36.18-.32.19-.31.26-.26a5.16,5.16,0,0,1,1.88-1.16,19.24,19.24,0,0,1,3.43-.92,75.93,75.93,0,0,1,9.77-1c3.74-.17,7.47-.2,11.2-.15s7.51.21,11.13.5a.67.67,0,0,0,.34-.06c.19-.09.38-.16.58-.27.41-.2.83-.44,1.24-.68.82-.48,1.64-1,2.46-1.53,1.63-1.06,3.25-2.17,4.86-3.29,4.13-2.87,8.18-5.9,12.26-8.81.66-.47,1.32-.94,2-1.39.12-.09.47-.31.71-.46s.54-.29.81-.44l.42-.21c.07-.07.12,0,.17.08l.17.16.65.65,1.86,1.88,1.71,1.65a88.33,88.33,0,0,0,7.27,6.11c1.58,1.18,1,1.56-.72,1.09a19.86,19.86,0,0,1-7.49-4.47c-1.19-1.08-2.33-2.21-3.44-3.35l-.41-.43-.19-.2h0l-.93.62c-2.55,1.73-5.1,3.58-7.66,5.39s-5.13,3.63-7.76,5.4q-2,1.32-4,2.6c-.68.42-1.37.84-2.1,1.24-.36.2-.74.39-1.14.58a7.26,7.26,0,0,1-.7.28,3.75,3.75,0,0,1-1,.15l-1.78-.16a162.09,162.09,0,0,0-24,.13,52.72,52.72,0,0,0-6.47.86,12.64,12.64,0,0,0-2.9.91c-.43.26-.56.33-.63.54a7.2,7.2,0,0,0,.06,1.18,5.87,5.87,0,0,0,1.11,2.57,7.18,7.18,0,0,0,2.27,1.82,17.61,17.61,0,0,0,6.06,1.71,76.34,76.34,0,0,0,16.19-.25l6.22-.62c1-.1,2.08-.19,3.15-.24.53,0,1.07,0,1.62,0a3.72,3.72,0,0,1,1.87.46c.91.66,1.67,1.26,2.51,1.81a12.2,12.2,0,0,0,2.6,1.31,7,7,0,0,0,5.44-.36,12.46,12.46,0,0,0,3.38-2.93c1.05-1.16,2.07-2.37,3.11-3.56a69.87,69.87,0,0,1,6.67-6.89c.52-.48,1.06-.94,1.62-1.37s1.1-.9,1.7-1.3a20.61,20.61,0,0,1,5-2.71c.3-.11.56-.2.8-.27a6.75,6.75,0,0,1,.69-.1,3.78,3.78,0,0,1,1.08,0,4.19,4.19,0,0,1,.84.16c.3.15,0,.51-.81,1s-2.07,1.14-3.64,2.08c-4.69,2.8-8.64,6.92-12.46,11.3-1,1.11-1.93,2.22-3,3.35-.5.56-1.06,1.12-1.64,1.67-.32.28-.63.55-1,.82a11.25,11.25,0,0,1-1.2.75,9.55,9.55,0,0,1-5.22,1.06,11.8,11.8,0,0,1-4.86-1.76,18.74,18.74,0,0,1-1.61-1.07l-1.39-1s0,0-.08,0a2,2,0,0,1-.2,0l-.29,0c-.37,0-.84,0-1.28,0-.9,0-1.85.11-2.79.2l-5.74.58c-3.86.38-7.75.71-11.7.71Z"/><path class="cls-1" d="M305.18,400.63c-8.41,7.71-62.83,42.67-65.77,43.25-4.88,1.16-10.35-1.53-14.48-4.42l73.64-45Z"/><path class="cls-1" d="M244,429.17l-12.41,7.48-3.1,1.87-1.33.8c-.08.06-.25.12-.28.19l.3.21.67.41.76.44a27.4,27.4,0,0,0,3.14,1.51,14.91,14.91,0,0,0,4.82,1.09,6.88,6.88,0,0,0,4.52-1.17c5.37-3,10.66-6.29,15.93-9.54s10.52-6.6,15.73-10c4.63-3,9.23-6.06,13.74-9.15q4.33-3,8.63-6c2.86-2,5.73-4.06,8.49-6.17,1.65-1.34,1.8-.83.67.75a32.54,32.54,0,0,1-6.93,6.36c-11.75,8.32-23.8,16.09-36.14,23.69L250,438.85c-1.9,1.16-3.8,2.32-5.73,3.45-1,.56-1.93,1.13-2.93,1.66l-.78.39c-.14.07-.25.13-.42.2l-.54.18a11.48,11.48,0,0,1-1.76.25,16.57,16.57,0,0,1-7.47-1.52,30,30,0,0,1-3.34-1.71l-.81-.5-1.22-.81-1.21-.82-.15-.1-.07,0s-.06,0,0-.05l.3-.2.62-.38,13.17-8L253,421.56l23.22-14.13c6-3.67,11.75-7.36,17.61-11.05l4.1-2.58.76-.47,1.8,1.7,1.1,1.06c.66.64,1.18,1.18,1.6,1.64a8,8,0,0,1,1.53,2.1,5.63,5.63,0,0,1,.36.8c.13.66-1.78-.7-4.89-3.47l-1.12-1-.29-.25-.14-.13,0,0-.15-.12-.11.08-.05,0-.11.08-.9.58-1.82,1.16-3.68,2.33-7.48,4.69L269,414l-25,15.21Z"/><path class="cls-1" d="M208.32,450.43c2.82,1.28,5.53,2.66,8.29,3.13a7.32,7.32,0,0,0,2.88-.1,17,17,0,0,0,5.07-2.16c1.65-1,3.26-2.11,4.86-3.27,1.42-1,2.81-2.12,4.23-3.17a19.52,19.52,0,0,1,6-3.45c.71-.21.81.42.51,1.21a5.11,5.11,0,0,1-2,2.33c-3.71,2.22-7.21,5.2-11.29,7.6-1.24.7-2.46,1.47-3.82,2.11a19.88,19.88,0,0,1-2.11.88,10.55,10.55,0,0,1-2.33.44,13.22,13.22,0,0,1-5-.77,43.13,43.13,0,0,1-4.41-1.77,44.11,44.11,0,0,0-5.18-2.15,5.92,5.92,0,0,0-1.87-.27c-.67,0-1.39.15-2.1.24l-4.31.58a28.3,28.3,0,0,1-6.85.3,8.34,8.34,0,0,1-1.59-.33,3.81,3.81,0,0,1-2-1.24,1.16,1.16,0,0,1-.2-1.17,2.19,2.19,0,0,1,.22-.46.65.65,0,0,1,.74-.08,11.76,11.76,0,0,1,1.11.46,12.9,12.9,0,0,0,5.25.47c1.93-.12,3.93-.39,6-.7l2.33-.33c.4-.05.8-.1,1.26-.13a7,7,0,0,1,1.52.09,22.1,22.1,0,0,1,4.76,1.65Z"/><path class="cls-1" d="M202.42,437.56c1.38.13,2.75.31,4.12.5.5.07,1,.08,1.49.16,1.75.3,3.47.69,5.19,1.08.77.17,1.55.29,2.32.41.5.07,1,.13,1.51.24a5.68,5.68,0,0,1,.77.24,2.7,2.7,0,0,1,.93.59.16.16,0,0,1,0,.26l-.26.24-.25.28a1,1,0,0,1-.31.2c-.36.46-.85.91-1.35.79-1.8-.43-3.77-.86-5.69-1.47a22.77,22.77,0,0,0-3.62-.58c-1.34-.19-2.68-.37-4-.5-.83-.08-1.65-.15-2.48-.18a23.17,23.17,0,0,0-3.73.08,9.54,9.54,0,0,0-2.64.78c-.17.08-.33.18-.49.26-.58.29-.73.25-1.26-.16-.12-.09-.25-.17-.37-.27-.4-.29-.37-.92.23-1.4a10.24,10.24,0,0,1,5.71-1.68,37.38,37.38,0,0,1,4.24.07Z"/><path class="cls-1" d="M383.65,182c.15,2.78,3.2,2.8,5.07,1.57,2.29-1.51,3.78-5.14,4.33-7.71.17-.77-2.29-.38-2.45.36a14.78,14.78,0,0,1-1.92,4.73,6.92,6.92,0,0,1-1.21,1.75c-1,.77-1.32-.61-1.36-1.36s-2.51-.18-2.46.66Z"/><path class="cls-1" d="M379,215c1.1-.89,1.37-1,1.58-1a7.46,7.46,0,0,0,1.85.46,2.44,2.44,0,0,0,1.34-.06,4.17,4.17,0,0,0,1.82-2,5.51,5.51,0,0,0,.39-.85c.09-.29.14-.61.21-.91,0-.05,0-.11.05-.14a2.1,2.1,0,0,1,1.21.31c.1.06.25.13.25.16-.07.25.62.72.5,1-.2.5-.25,1.09-.44,1.64a1.54,1.54,0,0,1-.34.61c-.21.23-.47.42-.67.64a4.67,4.67,0,0,1-.41.42,4.41,4.41,0,0,1-.79.69,4.46,4.46,0,0,1-2.76.91,5.79,5.79,0,0,1-2.56-.64,4.78,4.78,0,0,1-1-.63C379.09,215.53,379.08,215.32,379,215Z"/><path class="cls-1" d="M392.08,164.35c2.12-1.46,4.8-2.79,7.05-.9a14.23,14.23,0,0,1,2.9,4.08c.79,1.41,4.29,1.6,3.18-.39-1.42-2.54-3.07-5.11-5.72-6.51-3.58-1.9-7.2-.67-10.33,1.48-1.47,1,1.58,3.16,2.92,2.24Z"/><path class="cls-1" d="M148,234.66c-1.22.12-2.46.12-3.69.17s-2.47-.07-3.69-.24a37.35,37.35,0,0,1-7.2-1.53,33.51,33.51,0,0,1-6.77-2.94,19.5,19.5,0,0,1-5.76-4.94,12.18,12.18,0,0,1-2.36-5.25,12.34,12.34,0,0,1,.35-5.71,16.2,16.2,0,0,1,.85-2.29,12.41,12.41,0,0,1,1.29-2.14,17.34,17.34,0,0,1,3.37-3.42A17.79,17.79,0,0,1,128.5,204a11.62,11.62,0,0,1,4.87-.92l2.78.12-2,1.84c-.2.19-.41.37-.63.55a5.74,5.74,0,0,1-.78.4,5.27,5.27,0,0,1-.86.18,4.58,4.58,0,0,1-.83,0,5.81,5.81,0,0,1-2.59-1.14,15,15,0,0,1-3.4-3.63,24.41,24.41,0,0,1-3.79-8.81,15,15,0,0,1,.45-8.5,10.08,10.08,0,0,1,2.43-3.64,17.9,17.9,0,0,1,3.26-2.68,13.52,13.52,0,0,1,10.63-2,14.27,14.27,0,0,1,5,2.41,16.3,16.3,0,0,1,3.7,4c1.19,1.92.38,1.95-1.15.88-.78-.53-1.82-1.26-3-2a24.15,24.15,0,0,0-4.23-2.08,10.56,10.56,0,0,0-8.65.76,17.39,17.39,0,0,0-3.71,2.85,7.56,7.56,0,0,0-2.1,3.69,15.86,15.86,0,0,0,1,9.26,22.81,22.81,0,0,0,2.24,4.37,12.18,12.18,0,0,0,3.17,3.39,3,3,0,0,0,1.22.48.91.91,0,0,0,.81-.31l.91,2.19a9.42,9.42,0,0,0-4.57,1.09,15.81,15.81,0,0,0-4.09,2.93,11.76,11.76,0,0,0-2.77,4.06,11.43,11.43,0,0,0-.86,4.81,9.56,9.56,0,0,0,2.38,5.75,18.28,18.28,0,0,0,5.24,4.09,34.56,34.56,0,0,0,13.15,3.83,36.58,36.58,0,0,0,8.49-.36,36,36,0,0,0,8.12-2.51,27.09,27.09,0,0,0,10-7.92A23.48,23.48,0,0,0,173,209.54a21.8,21.8,0,0,0-1.23-9.62,16.23,16.23,0,0,0-5.35-7.65,8.27,8.27,0,0,0-3.56-1.49,10.58,10.58,0,0,0-5.1.59l-.78.23c-.23.08-.44.14-.64.19a7,7,0,0,1-1.1.16,4.91,4.91,0,0,1-.92,0c-.39-.07-.18-.51.59-1.27a10.5,10.5,0,0,1,4.43-2.33,10.23,10.23,0,0,1,5.18.06,11.44,11.44,0,0,1,4.57,2.54,19.54,19.54,0,0,1,5.36,8.55,24.81,24.81,0,0,1,1.17,10.08,28.88,28.88,0,0,1-2.92,9.77,28.46,28.46,0,0,1-10.48,10.8A35.7,35.7,0,0,1,148,234.72Z"/><path class="cls-1" d="M145.32,257.84c.08-1.94.17-3.89.24-5.83,0-.71,0-1.42,0-2.13.11-2.5.27-5,.37-7.5,0-1.11,0-2.22,0-3.32a19.48,19.48,0,0,1,0-4.25c.16-.88,2.48.24,2.5,1.87a68.4,68.4,0,0,1-.39,8.68c-.2,1.74-.09,3.56-.14,5.34q-.09,2.93-.2,5.87c0,1.21-.08,2.41-.11,3.62,0,1.82-.11,3.66-.08,5.47,0,1.41.19,2.79.3,4.18,0,.31.07.61.08.92,0,1.14-.12,1.51-.76,1.76a3.89,3.89,0,0,1-.44.16c-.5.11-.9-.36-1.05-1.2a45.9,45.9,0,0,1-.5-7.75c0-2,.06-3.92.09-5.88Z"/><path class="cls-1" d="M195,241.9a22.69,22.69,0,0,0,9.18-.79c3-.85,5.9-2.26,7.66-4.48A5.63,5.63,0,0,0,213,234a7.08,7.08,0,0,0,.1-1.46,13.53,13.53,0,0,0-.27-1.5c-.15-.42-.25-.9-.42-1.27a6.47,6.47,0,0,0-.64-1.14,10.52,10.52,0,0,0-1.88-2,8.19,8.19,0,0,0-4.87-2.05l.81-2a.43.43,0,0,0,.45.18,2.22,2.22,0,0,0,1-.42,8.63,8.63,0,0,0,2-2,15.12,15.12,0,0,0,2.52-5.48,8.5,8.5,0,0,0-.19-5,5.6,5.6,0,0,0-1.37-2,11,11,0,0,0-2-1.6,7.76,7.76,0,0,0-6.1-1,10.39,10.39,0,0,0-5.23,3.62c-.84,1.08-1.38.65-1.2-.82a6.52,6.52,0,0,1,1.2-2.72,7.78,7.78,0,0,1,3.51-2.6,9.66,9.66,0,0,1,4.4-.58,11.43,11.43,0,0,1,4.2,1.29,14.69,14.69,0,0,1,3.32,2.6,8.25,8.25,0,0,1,2.19,4,11.21,11.21,0,0,1,.1,4.31,15.76,15.76,0,0,1-1.15,3.93,17.76,17.76,0,0,1-2,3.51,10.68,10.68,0,0,1-3.13,2.94,4.36,4.36,0,0,1-2,.58,3,3,0,0,1-2.3-1l-1.77-2.15,2.68,0a9.09,9.09,0,0,1,4.26,1.08,13.6,13.6,0,0,1,3.41,2.46,10.12,10.12,0,0,1,2.42,3.59,11.13,11.13,0,0,1,.58,2.07c0,.37.12.72.15,1.09l0,1.11a8.74,8.74,0,0,1-2.23,5.21,14.76,14.76,0,0,1-4.3,3.25,25.81,25.81,0,0,1-10,2.72,27.16,27.16,0,0,1-6.37-.39,26.54,26.54,0,0,1-6.06-2,20.41,20.41,0,0,1-7.46-6.09,18.49,18.49,0,0,1-3.52-8.92,18.06,18.06,0,0,1,.71-7.42,13.05,13.05,0,0,1,4.11-6.4,7.66,7.66,0,0,1,3.28-1.54,6.71,6.71,0,0,1,4.67.77,3.66,3.66,0,0,1,1,.78,2,2,0,0,1,.43.78,2.8,2.8,0,0,1,.18.72c0,.32-.41.35-1.06.16a22.07,22.07,0,0,0-2.79-.71,5.26,5.26,0,0,0-4.6,1.66,11.63,11.63,0,0,0-2.75,4.93,15.09,15.09,0,0,0-.57,5.85,17.94,17.94,0,0,0,1.74,5.71,17.26,17.26,0,0,0,6.17,6.42,21.92,21.92,0,0,0,8.71,2.87Z"/><path class="cls-1" d="M192.43,257.84c.08-1.36.17-2.72.24-4.09,0-.5,0-1,0-1.49.11-1.76.27-3.51.37-5.26a22.81,22.81,0,0,0,0-2.34,9.61,9.61,0,0,1,0-3c.16-.62,2.48.17,2.5,1.31a33.91,33.91,0,0,1-.39,6.1,31,31,0,0,0-.14,3.74c-.06,1.37-.13,2.75-.2,4.12,0,.85-.08,1.7-.11,2.54,0,1.28-.11,2.57-.08,3.84,0,1,.19,2,.3,2.94,0,.21.07.42.08.64,0,.8-.12,1.06-.76,1.23-.15,0-.29.09-.44.12a1,1,0,0,1-1.05-.84,22.83,22.83,0,0,1-.5-5.44c0-1.38.06-2.76.09-4.13Z"/><path class="cls-1" d="M198.54,303.55c-15.68,0-31.36.38-47.07.58l-8.61.07-8.59,0c-2.54,0-5.09-.13-7.64-.35a47.37,47.37,0,0,1-7.67-1.2,16.66,16.66,0,0,1-3.79-1.42,7.72,7.72,0,0,1-1.78-1.3,4.52,4.52,0,0,1-1.24-2.12c-.55-3.28,1.25-5.89,3.21-7.7a19.48,19.48,0,0,1,3.23-2.34,30,30,0,0,1,3.49-1.76,55.8,55.8,0,0,1,7.25-2.57,129.48,129.48,0,0,1,14.89-3.21c8.88-1.42,17.86-2.34,26.74-3,11.4-.86,22.88-1.43,34.3-1.24,7.12.18-1.91,2.35-15,2.79-11.62.41-23.22,1.1-34.76,2.38-5.76.65-11.51,1.46-17.2,2.57a74.24,74.24,0,0,0-16.49,4.92,22.39,22.39,0,0,0-4.3,2.58,8.85,8.85,0,0,0-2.89,3.65,5.88,5.88,0,0,0-.3,1.07,4.9,4.9,0,0,0-.06,1,2.34,2.34,0,0,0,.89,1.55,11.26,11.26,0,0,0,4.42,1.95,53.47,53.47,0,0,0,10.51,1.27c3.57.17,7.14.07,10.78.13,7.86.07,15.77-.11,23.67-.22l23.72-.36c9.74-.09,19.48-.13,29.22.09,1.84,0,3.69.11,5.54.18s3.69.17,5.54.3,3.7.32,5.55.52a24.41,24.41,0,0,1,2.78.46l1.4.26,1.35.36a15.85,15.85,0,0,1,2.71,1A3.82,3.82,0,0,1,244.7,307a.93.93,0,0,1-.29.76,2.54,2.54,0,0,1-.67.48,7.54,7.54,0,0,1-1.81.6c-1,.21-1.87.34-2.8.46-3.69.47-7.35.72-11,1s-7.42.53-11.08.85c-1.83.17-3.66.35-5.46.58-.9.12-1.8.25-2.69.4l-.65.13-.46.09-.6.17a1.13,1.13,0,0,0-.55.32c-.08.23.2.38.36.49a4.3,4.3,0,0,0,.57.28l1,.35A55.1,55.1,0,0,0,214,315.5c2.38.56,4.74,1,7.18,1.38,4.52.71,7.51.93,9.6,1.09s3.28.25,4.29.43c.46.08,1.06.11,1.36.18.5.11-.15.61-1.87,1a29.27,29.27,0,0,1-7.88.29,88.59,88.59,0,0,1-12.3-1.81,61.31,61.31,0,0,1-6.17-1.66l-.78-.27L207,316l-.65-.27a7.53,7.53,0,0,1-2.33-1.39,2.13,2.13,0,0,1-.75-1.83,1.78,1.78,0,0,1,.38-.89,2.86,2.86,0,0,1,.79-.69,9,9,0,0,1,1.9-.71l1.08-.24.63-.13c.79-.14,1.58-.26,2.37-.37,1.57-.21,3.13-.38,4.7-.53,3.13-.29,6.27-.52,9.41-.74s6.3-.43,9.43-.71c1.56-.13,3.12-.28,4.66-.48.76-.1,1.52-.21,2.25-.35l.44-.09h0l0,0-.56-.25c-.4-.16-.82-.3-1.26-.44a23.11,23.11,0,0,0-2.76-.66l-1.37-.26a10.39,10.39,0,0,0-1.41-.21c-1.92-.21-3.84-.43-5.81-.53L225.2,304l-2.95-.11c-7.87-.29-15.79-.32-23.69-.28Z"/></g></svg>