<svg id="Layer_1" data-name="Layer 1" xmlns="http://www.w3.org/2000/svg" width="520" height="520" viewBox="0 0 520 520"><defs><style>.cls-1{fill:#221f1f;}.cls-2{fill:none;stroke:#221f1f;stroke-miterlimit:10;stroke-width:1.56px;}</style></defs><title>Notioly v2</title><g id="_18.Chilling" data-name="18.Chilling"><path class="cls-1" d="M240.58,392.58c-.35,1.4-.75,1.71-1.2,1.79l-4.42.84c-1.26.24-2.55.37-3.79.67a30,30,0,0,0-6.16,2.18,11.91,11.91,0,0,0-1.64.92c-.25.17-.5.33-.73.52l-.64.6c-.08.06-.12.16-.23.18-.3,0-.77-.39-.92-.87,0-.11-.11-.27-.07-.3.37-.33.2-1.23.67-1.55a11.13,11.13,0,0,0,1.27-.89c.41-.31.84-.59,1.28-.87a5.07,5.07,0,0,1,1.11-.51c.5-.16,1-.28,1.51-.4a51.89,51.89,0,0,1,6.86-1.81,50.79,50.79,0,0,1,6.19-.82A4.37,4.37,0,0,1,240.58,392.58Z"/><path class="cls-1" d="M147.37,395.89a2.86,2.86,0,0,1,3.08-.52c2.84,1.1,5.66,2.28,8.43,3.55,2.38,1.1,4.7,2.35,7,3.54,4,2,8.05,4.12,11.94,6.49l1.72,1.07,1.69,1.14c.55.34,1.08.75,1.62,1.14a12.39,12.39,0,0,1,1.59,1.28,3.37,3.37,0,0,1,.5.5c.32.54-.09,1-.73,1-.14,0-.34.05-.41,0a3.21,3.21,0,0,0-1.25-.63,3.15,3.15,0,0,1-1.33-.56,31.68,31.68,0,0,0-4.83-2.93c-.66-.38-1.32-.76-2-1.17-.82-.51-1.61-1.1-2.45-1.59-1.14-.71-6.71-3.66-12.18-6.25s-10.78-4.92-11-5.06A14.81,14.81,0,0,1,147.37,395.89Z"/><path class="cls-1" d="M214.46,389.13c3.13-2.64,8.57-3.44,12.47-4,1.06-.16,1.79-1.48.29-1.25-4.76.73-10.71,1.69-14.52,4.9-.95.81,1.19.87,1.76.39Z"/><path class="cls-1" d="M114.36,293.8c1.45-.51,2.92-.91,4.39-1.34s3-.77,4.44-1.11a22.14,22.14,0,0,1,4.48-.92,13.05,13.05,0,0,1,4.67.57l0,.25a16,16,0,0,1-4.35,1.66,25.14,25.14,0,0,1-4.51.41l-4.54.38-4.54.34Z"/><path class="cls-1" d="M98.43,277.05c.47-.11.95-.53,1.5-.74a29.82,29.82,0,0,1,5.54-1.79,33.81,33.81,0,0,1,4.91-.53,53,53,0,0,1,8.45,0c.84.08,1.67.17,2.5.3a22,22,0,0,1,2.38.43l.4.11c.34.11.42.07.17.08l-.18,0a9.11,9.11,0,0,0-1.75.43c-1.19.17-2.38.5-3.57.76a8.62,8.62,0,0,1-1.43.19c-.61,0-1.21,0-1.82,0-.84,0-4.74.33-8.48.45-1.87.08-3.7.11-5.09.13l-2.45.05A6.37,6.37,0,0,0,98.43,277.05Z"/><path class="cls-2" d="M133,192.32l-.12.22"/><path class="cls-1" d="M208.15,245.8c1.47,0,1.9.49,2.11,1q1.06,2.58,2,5.21c.5,1.52.87,3.07,1.34,4.59.82,2.62,1.67,5.23,2.5,7.84.24.77.47,1.55.73,2.32s.54,1.45.82,2.18a1,1,0,0,1,.12.37c-.05.36-.62.62-1.14.53-.12,0-.31,0-.33-.08-.2-.57-1.12-.78-1.29-1.39a30.7,30.7,0,0,0-1.31-3.28,10.92,10.92,0,0,1-.42-1.34c-.15-.59-.23-1.19-.37-1.77-.39-1.6-4.68-14.71-4.75-15.07A6.47,6.47,0,0,1,208.15,245.8Z"/><path class="cls-1" d="M124.18,192.92c-.19.88-.36,1.64-.5,2.44s-.36,1.57-.59,2.35c-.47,1.55-1,3.12-1.69,4.66-4.19,10.3-8,20.8-12.12,31.2-.88,2.24-1.77,4.48-2.7,6.7s-1.91,4.47-2.8,6.64a56.58,56.58,0,0,0-3.94,13.51,24.15,24.15,0,0,0-.09,5.88,11,11,0,0,0,1.88,5.18,6,6,0,0,0,1.94,1.62l.56.2a6.2,6.2,0,0,0,.65.14l.67.12.71,0a20.3,20.3,0,0,0,5.78-.71,62.62,62.62,0,0,0,11.33-4.37c3.67-1.78,7.27-3.77,10.81-5.85q6.27-3.71,12.33-7.79c3.87-2.6,7.66-5.32,11.45-8,.64-.46,1.29-1,1.94-1.36a3.12,3.12,0,0,1,1.86-.62c.3.11.13.49-.34,1.09a4.11,4.11,0,0,1-.72.84c-2.95,2.1-4.84,4.44-8,6.6-5.86,4-11.69,8.06-17.79,11.74-2.44,1.47-4.94,2.86-7.5,4.14a90.12,90.12,0,0,1-10.08,4.36,44.13,44.13,0,0,1-6.77,1.9,17.77,17.77,0,0,1-5.77.18,6.82,6.82,0,0,1-3.32-1.37,8.41,8.41,0,0,1-2.4-2.92,16.29,16.29,0,0,1-1.58-7.56,34.19,34.19,0,0,1,1.06-8,63.94,63.94,0,0,1,2.48-8c.51-1.31,1.06-2.61,1.6-3.92s1.09-2.55,1.61-3.84c4.19-10.31,8.05-20.53,11.12-28.2s5.31-12.86,5.56-13.36c.37-.81.82-1.59,1.31-2.48A24.5,24.5,0,0,1,124.18,192.92Z"/><path class="cls-1" d="M142.79,201.21a9.45,9.45,0,0,1,.27,3.86,17.64,17.64,0,0,1-1,3.83A121.69,121.69,0,0,1,136.64,221c-2,3.95-4.09,7.82-6.25,11.65-1.86,3.3-3.78,6.55-5.66,9.81-.94,1.63-1.88,3.26-2.73,4.91l-.49.93-.18.37c0,.11.08.21.25.05l.12-.07.06,0,.21-.15,1-.67c.63-.48,1.26-.95,1.86-1.46,1.23-1,2.4-2.1,3.56-3.21,2.31-2.22,4.51-4.58,6.68-7,4.32-4.8,8.48-9.79,12.68-14.75q3.72-4.39,7.57-8.72a74.35,74.35,0,0,1,7.92-8,9.7,9.7,0,0,1,1.62-1.15,2,2,0,0,1,1.6-.31c.24.15.14.5-.27,1a3.72,3.72,0,0,1-.58.67,12.81,12.81,0,0,0-2.83,2.76,39,39,0,0,1-2.65,3.11c-3.85,3.93-7.27,8.33-10.81,12.61q-2.11,2.58-4.31,5.1c-1.88,2.14-3.81,4.23-5.72,6.35-1.33,1.43-4.91,5.68-10.23,10.74a54.09,54.09,0,0,1-4.44,3.79c-.4.32-.84.6-1.27.91-.12.08-.2.15-.34.23l-.55.29-1.09.57c-.17.07-.38.24-.53.23a1.68,1.68,0,0,1-.5,0,2,2,0,0,1-1.6-1.4,1.32,1.32,0,0,1,0-.52l.2-.56.41-1.12.21-.56.1-.28.09-.18.75-1.45c.51-1,1-1.92,1.58-2.89l3.26-5.72c4.39-7.59,8.56-15.06,11.34-20.88a102.14,102.14,0,0,0,4.4-10.3c.24-.64.55-1.26.82-2S142.41,202.21,142.79,201.21Z"/><path class="cls-1" d="M199.2,200.06a20.33,20.33,0,0,1,8.39,3.46l1,.68.94.79c.62.54,1.26,1.07,1.86,1.64a38.85,38.85,0,0,1,3.27,3.75,64.65,64.65,0,0,1,8.19,14.38,99.67,99.67,0,0,1,5,15.7c.64,2.65,1.15,5.42,1.67,8l1.76,8a94.48,94.48,0,0,1,2.39,16.36,27,27,0,0,1-.62,7.34,11.19,11.19,0,0,1-4.57,6.26,23.36,23.36,0,0,1-6.71,3.12,45.82,45.82,0,0,1-7.07,1.48,65.56,65.56,0,0,1-7.14.52,70.24,70.24,0,0,1-7.13-.28c-4.68-.36-9.34-.8-14-1.21-5.66-.5-11.31-1-17-1.42q-4.25-.33-8.47-.56c-1.41-.06-2.82-.12-4.22-.14-.7,0-1.39,0-2.07,0-.35,0-.66,0-1,.06l-.44.06a.37.37,0,0,0-.14,0h-.09s0,.09-.08-.12l-.09.18c-4.84,1.31-9.67,2.3-14.55,3.19-2.45.44-4.9.83-7.38,1.13-1.25.14-2.5.26-3.78.31a16.25,16.25,0,0,1-2,0,6.16,6.16,0,0,1-1.08-.14,3.21,3.21,0,0,1-1.41-.62,2.38,2.38,0,0,1-.79-1.67,2.81,2.81,0,0,1,.14-.95,4.5,4.5,0,0,1,.32-.69,8.38,8.38,0,0,1,1.52-1.84,28,28,0,0,1,3.4-2.66c1.17-.79,2.36-1.53,3.57-2.23.61-.35,1.22-.69,1.84-1,.32-.16.62-.32,1-.49l1.06-.38a58.09,58.09,0,0,1,8.26-1.77c2.73-.44,5.47-.79,8.2-1.14l14.17-1.71a141.63,141.63,0,0,0,14-2.21c4.46-.94,8.95-1.89,13.52-2.54A76.22,76.22,0,0,1,206.8,270a46,46,0,0,1,4.65.34c3.92.62,4.69,1.4,1.78,1.47a20.68,20.68,0,0,1-2.1,0,49.86,49.86,0,0,0-9.87.08c-3.18.31-6.38.82-10,1.38-3.37.52-6.73,1.2-10.1,1.91-1.69.36-3.35.74-5.09,1.07s-3.44.58-5.15.83c-6.85,1-13.71,1.79-20.52,2.71-2.73.37-5.44.76-8.14,1.2-1.35.23-2.69.47-4,.76-.67.12-1.29.32-1.93.47a6.79,6.79,0,0,0-.9.29c-.28.11-.61.19-.85.31a56.86,56.86,0,0,0-6.38,3.74,21,21,0,0,0-2.81,2.23,5.35,5.35,0,0,0-1,1.18c-.1.21-.08.15-.09.21a.15.15,0,0,0,0,.1l0,0,.11,0a3.93,3.93,0,0,0,.57.1,9.75,9.75,0,0,0,1.35.07c.93,0,1.9-.06,2.86-.14,1.13-.11,2.77-.26,6.2-.81,1.72-.28,3.88-.66,6.64-1.21s6.15-1.26,10.17-2.35l-.13.05.56-.17a4.63,4.63,0,0,1,.47-.08c.31-.05.59-.06.88-.08.59,0,1.18,0,1.78,0,1.22,0,2.5,0,3.85.09,2.72.12,5.73.31,9,.55,6.53.48,14.09,1.16,22.26,1.88,4.08.35,8.33.74,12.64,1a59.2,59.2,0,0,0,13-.81,35.28,35.28,0,0,0,6.36-1.7,16.57,16.57,0,0,0,5.48-3.25,8.66,8.66,0,0,0,1.81-2.42l.3-.69c.08-.23.15-.47.23-.71.12-.5.2-1,.31-1.56a32.38,32.38,0,0,0,.19-6.54,95.6,95.6,0,0,0-1.92-13c-.85-4.21-1.89-8.33-2.61-12.36a110.79,110.79,0,0,0-2.69-11.23,88.85,88.85,0,0,0-3.41-9.67,62,62,0,0,0-7.49-13.37,36.68,36.68,0,0,0-4.31-4.92A31.82,31.82,0,0,0,199.2,200.06Z"/><path class="cls-1" d="M163.38,249.68a2.19,2.19,0,0,1,2.66-.22c2,1.34,4,2.79,5.81,4.28,1.6,1.3,3.1,2.71,4.67,4,2.7,2.26,5.43,4.49,8.22,6.59.82.6,1.63,1.25,2.49,1.79a20,20,0,0,0,2.48,1.4,1.08,1.08,0,0,1,.4.2.88.88,0,0,1-.34,1.23c-.11.06-.25.18-.32.15-.72-.31-1.67.05-2.38-.42-1.29-.87-2.65-1.6-3.93-2.45a15.7,15.7,0,0,1-1.46-1.12c-.59-.51-1.13-1.07-1.71-1.59-.8-.7-4.66-3.86-8.32-6.9-1.83-1.52-3.63-3-5-4.07s-2.32-1.76-2.4-1.84A8.89,8.89,0,0,1,163.38,249.68Z"/><path class="cls-1" d="M160,286c-.57,1.26-1.09,1.37-1.46,1.28a7.45,7.45,0,0,1-3-2.07,14.53,14.53,0,0,1-1.58-2.47,31,31,0,0,1-2-4.43c-.16-.45-.32-.89-.47-1.35s-.35-.84-.52-1.28c0-.07-.1-.14-.06-.23.09-.24.69-.43,1.18-.41.11,0,.29,0,.3,0,.11.33,1,.35,1,.69a8.4,8.4,0,0,0,.87,1.75,4,4,0,0,1,.28.72c.08.32.11.67.21,1a15.84,15.84,0,0,0,2.17,3.95,8.65,8.65,0,0,0,1.77,1.8l.66.41a1.85,1.85,0,0,1,.29.12C159.81,285.52,159.87,285.72,160,286Z"/><path class="cls-1" d="M230.38,233.88c1.3-.79,2-.64,2.63-.29,2,1.13,4.05,2.26,6.08,3.36,1.75,1,3.46,2,5.25,2.85a54.49,54.49,0,0,0,9.5,3.63,24.45,24.45,0,0,0,2.89.63l1.4.17h1.38a1.23,1.23,0,0,1,.47,0,.88.88,0,0,1,.18,1.26c-.07.1-.15.27-.23.27-.76,0-1.45.77-2.29.65s-1.52-.22-2.29-.29-1.52-.23-2.28-.37a10.81,10.81,0,0,1-1.76-.53c-.74-.26-1.44-.61-2.14-.93a83.71,83.71,0,0,1-9.75-4.52,93.49,93.49,0,0,1-8.14-4.87A8.86,8.86,0,0,1,230.38,233.88Z"/><path class="cls-1" d="M385.81,280.07s-54.68,9.5-104.93,1.37h-.12a166.74,166.74,0,0,0-28.59.31c.22-7.77,3.13-13.11,7.58-16.68v0c9.41-7.65,25.66-7.6,37.79-6.9,9.54.55,70.71,6.54,88.25,7.07A17.77,17.77,0,0,0,386,269C386.66,273,385.85,279.83,385.81,280.07Z"/><path class="cls-1" d="M286,259.39a67.69,67.69,0,0,0-13.45,1.41,40,40,0,0,0-6.35,2,26.6,26.6,0,0,0-5.63,3.31l.49-1.05v.67l-.5.4a17.85,17.85,0,0,0-5,6.29,19.66,19.66,0,0,0-1.37,3.86,19.19,19.19,0,0,0-.41,2c0,.34-.12.68-.15,1l-.07.67,0,.25s0,.1,0,.11h.12l1-.09q2.07-.18,4.14-.3,4.16-.24,8.3-.22c2.44,0,4.87.07,7.31.18l3.64.19,1.8.11.89.06a4.67,4.67,0,0,1,.6.06l.44.07,7.15,1c2.38.37,4.79.54,7.18.83,9.58,1,19.23,1.52,28.88,1.54,8.57,0,17.19-.21,25.67-.84,10.9-.74,21.8-2,32.62-3.39a11.52,11.52,0,0,1,1.87-.14c.46,0,.65.08.63.2s-.86.69-2.24,1.21a63.93,63.93,0,0,1-14.28,3.05c-11.15,1.24-22.36,2-33.6,2.25a298.67,298.67,0,0,1-33.81-1.07c-1.68-.11-3.38-.3-5.07-.49l-5.12-.55c-3.42-.38-6.84-.95-10.29-1.41a9,9,0,0,0-1.15-.12l-1.32-.08-2.58-.13c-1.72-.08-3.45-.14-5.17-.18-3.44-.07-6.88-.05-10.3.08q-1.71.07-3.42.18l-1.71.11-1.81.15-2.82.26s-.07,0-.08,0v-.27l0-.35,0-.71.08-1.41.11-1.08c0-.3.08-.59.12-.89.08-.59.19-1.18.32-1.77a22,22,0,0,1,2.61-6.72,20.32,20.32,0,0,1,4.78-5.42l-.37.77v-.5l.36-.29a27.7,27.7,0,0,1,8.1-4.38,46.93,46.93,0,0,1,8.85-2.12,86.65,86.65,0,0,1,14.11-.76c4.69.09,9.38.42,14,.84,14.09,1.24,28.22,2.62,42.2,3.78,10.86.89,21.53,1.64,32.28,2.21l3.52.16,4.53.15a1,1,0,0,1,.22,0,23.54,23.54,0,0,0-.05,2.6c0,.47.06.93.11,1.36s.12.89.17,1.31.08.86.1,1.25a28.81,28.81,0,0,1-.08,3.87,13.06,13.06,0,0,1-.9,4.15,8,8,0,0,1-.58,1.2c-.14.17-.25.11-.32-.21a9.47,9.47,0,0,1-.14-1.7c-.06-1.6,0-4.13-.21-7.24-.07-.86-.22-1.61-.36-2.61-.06-.46-.11-1-.14-1.4,0-.12,0-.22,0-.33s-.25,0-.39,0l-1.67-.05-3.33-.13c-2.23-.09-4.46-.23-6.71-.35-4.49-.27-9-.59-13.57-.93-9.11-.69-18.32-1.47-27.55-2.29l-22.68-2c-3.77-.32-7.58-.68-11.31-.93s-7.53-.35-11.27-.28Z"/><path class="cls-2" d="M287.11,281.91c-2.07-.19-4.15-.34-6.23-.47,2.35.1,4.47.24,6.17.46Z"/><path class="cls-2" d="M348,285.25a222.89,222.89,0,0,1-28-.31c-5.06-.34-10.08-.83-15.06-1.33C318.54,284.69,336,285.66,348,285.25Z"/><path class="cls-2" d="M371.16,282.24l-.21.05c-4.59.95-9.15,1.65-13.66,2.17C362.34,283.61,367.07,282.86,371.16,282.24Z"/><path class="cls-2" d="M385.75,280.08c-2.22.75-9,1.38-12.9,1.89C380.19,280.85,385.14,280.16,385.75,280.08Z"/><path class="cls-1" d="M387.15,295.73c-8.65-.75-67.93,9-91.65,5.69-11-1.54-21.8-.65-32.83.35-12,1.08-15.23-10.7-10.64-19.92,0,0,22.62-2,29.73-.33,9.9,2.28,75.53,8.05,104-2.44C386.15,279.22,389.88,291.64,387.15,295.73Z"/><path class="cls-1" d="M284.81,283.58c-1-.12-2-.35-2.95-.53a26.26,26.26,0,0,0-2.71-.43c-1.85-.21-3.76-.27-5.67-.3-3.84-.05-7.7.06-11.55.24l-5.79.32-2.89.2-.24,0c-.06,0-.1,0-.11.06l-.36.81a18.76,18.76,0,0,0-1.19,5.26,13.52,13.52,0,0,0,.68,5.23,9.4,9.4,0,0,0,1.86,3.22,8,8,0,0,0,1.4,1.2,6.33,6.33,0,0,0,.77.5l.84.39a3.41,3.41,0,0,0,.88.31l.91.25c.63.11,1.27.16,1.91.24l1.95-.05,2.12-.18c9.94-.82,20.07-1.46,30.11-.07a101.35,101.35,0,0,0,14.79.86c5,0,9.93-.23,14.9-.51,8.82-.53,17.67-1.42,26.39-2.38l16.84-1.94c5.63-.62,11.24-1.27,16.95-1.44,3.7.09,3,.71.11,1.3A122.12,122.12,0,0,1,370,298.7c-11.45,1.27-22.91,2.58-34.45,3.53s-23.14,1.66-34.89.94c-1.76-.15-3.53-.38-5.3-.56s-3.44-.46-5.18-.59a97,97,0,0,0-10.53-.27c-3.53.08-7.08.32-10.63.59l-5.33.46c-.86.1-1.83.1-2.78.13a8.61,8.61,0,0,1-1.43-.11,9.66,9.66,0,0,1-1.43-.21,10.89,10.89,0,0,1-5.62-3.07,12.24,12.24,0,0,1-3-5.59,15.87,15.87,0,0,1-.27-6.21,9.86,9.86,0,0,1,.26-1.52c.13-.5.2-1,.38-1.5l.49-1.46.74-1.68.24-.54.06-.13s.09,0,.14,0l.29,0,1.17-.1,1.47-.1,2.93-.2c2-.11,3.91-.22,5.87-.3,3.92-.17,7.85-.28,11.79-.16a38.31,38.31,0,0,1,7.34.74c1.15.22,2.31.45,3.5.6s2.36.35,3.55.48c4.76.6,9.54,1,14.33,1.4a381.79,381.79,0,0,0,43.55,1c1.4-.06,2.8-.1,4.19-.19l4.16-.32c2.78-.17,5.52-.52,8.27-.84s5.45-.83,8.16-1.25c1.37-.19,2.69-.56,4-.85s2.69-.59,4-1l3.41-1.11,1.15-.36a4.67,4.67,0,0,1,1.36-.23l.13,0s.06,0,.05,0l.06.05.22.21a1.55,1.55,0,0,1,.4.5,10.64,10.64,0,0,1,.53,1.4,34.35,34.35,0,0,1,1.68,9.81,8,8,0,0,1-1,4.42,3.55,3.55,0,0,1-.93,1c-.21.12-.27,0-.22-.32a14.12,14.12,0,0,0,.24-1.58,26.76,26.76,0,0,0-.61-7.22c-.22-1.19-.5-2.38-.82-3.55-.16-.59-.34-1.17-.52-1.74-.06-.19-.07-.18-.08-.22l0-.1c0-.05-.05-.13-.11-.15l-.18.07-.07,0-.41.14-1.84.6-1.85.6c-.62.2-1.25.31-1.88.47-2.52.57-5,1.23-7.61,1.59l-3.85.64c-1.29.21-2.58.31-3.88.47a261.75,261.75,0,0,1-31.5,1.5c-7.85,0-15.7-.36-23.55-.85s-15.67-1.16-23.53-2.3Z"/><path class="cls-2" d="M287.11,281.91c-2.07-.19-4.15-.34-6.23-.47,2.35.1,4.47.24,6.17.46Z"/><path class="cls-2" d="M371.16,282.24l-.21.05c-4.59.95-9.15,1.65-13.66,2.17C362.34,283.61,367.07,282.86,371.16,282.24Z"/><path class="cls-2" d="M385.75,280.08c-2.22.75-9,1.38-12.9,1.89C380.19,280.85,385.14,280.16,385.75,280.08Z"/><path class="cls-1" d="M422.61,278.29a7,7,0,0,1-5.32,3.27,59,59,0,0,1-10.67.85c-3.56,0-7.1-.22-10.62-.54-1.72-.16-3.43-.37-5.14-.59l-2.57-.38-3.69-.6.21-1.9.05-.68,0-.47c0-.63.06-1.27.07-1.92,0-1.28,0-2.58,0-3.87l-.09-2.37,0-.91c0-.11.11-.08.16-.12l.22-.07.43-.14.87-.28.57-.16a31.32,31.32,0,0,1,4-.84,26.36,26.36,0,0,1,4.09-.25,6.06,6.06,0,0,1,4.23,1.95,36.48,36.48,0,0,1,2.49,3.14,7.91,7.91,0,0,0,1.18,1.2,5.21,5.21,0,0,0,.64.44l.35.16.17.08,0,0h0c.09-.25-.12.35-.09.27l0,0,.06-.15,0-.08h0a3.06,3.06,0,0,0,.69,0c.29,0,.6,0,.91,0,.62,0,1.25-.1,1.89-.17l3.87-.43a71.8,71.8,0,0,1,9.35-.57,19.11,19.11,0,0,1,2.35.2,8.06,8.06,0,0,1,2.48.73,5.7,5.7,0,0,1,.65.4,3.71,3.71,0,0,1,.6.59,2.61,2.61,0,0,1,.64,1.87,3,3,0,0,1-.69,1.7,5.86,5.86,0,0,1-1,1,6.68,6.68,0,0,1-1.4.91c-1.27.51-1.78,0-1.16-.8a2,2,0,0,1,.46-.56,5.13,5.13,0,0,0,1.24-1,2.18,2.18,0,0,0,.6-1.15.48.48,0,0,0-.11-.37,1.57,1.57,0,0,0-.29-.26,4.64,4.64,0,0,0-1.07-.52,9.9,9.9,0,0,0-3-.48,29.21,29.21,0,0,0-3.23.08c-2.17.15-4.35.46-6.55.75-1.76.23-3.52.45-5.37.56a13.56,13.56,0,0,1-1.9,0,3.6,3.6,0,0,1-.66-.12,1.54,1.54,0,0,1-.3-.12l-.24-.11a4.48,4.48,0,0,1-.9-.52,10.6,10.6,0,0,1-2.62-2.76,19.93,19.93,0,0,0-2-2.48,3.74,3.74,0,0,0-1.79-1,12.23,12.23,0,0,0-2.89,0,26.63,26.63,0,0,0-3.52.53c-.62.13-1.26.29-1.9.47l-.31.1c-.05,0,0,.12,0,.19.05,1.34.09,2.95.1,4.51,0,.79,0,1.6,0,2.42l-.06,1.26,0,.27.13,0,.22,0,1.36.2,2.76.37c1.86.24,3.74.45,5.59.61,3.71.34,7.32.52,10.5.53a65.67,65.67,0,0,0,7.9-.42c2-.29,3.17-.52,3.35-.59.51-.12,1-.2,1.65-.29Z"/><path class="cls-1" d="M420.86,285.46a7.23,7.23,0,0,1-4.37,4.05c-6.3,2.63-13.1,3.61-19.77,4-1.39.08-2.77.13-4.15.17l-5.41.17c0-.73,0-1.47,0-2.21a2.51,2.51,0,0,0,0-.37l0-.26c0-.17,0-.34-.07-.52-.09-.7-.21-1.41-.34-2.13-.26-1.43-.57-2.86-.89-4.3l-.41-1.78-.27-1.16-.18-.84a3.6,3.6,0,0,1-.13-.79l-.08-1.41c0-.09.07,0,.11,0l.18,0,.35.07.69.14,2.76.54a56.28,56.28,0,0,0,7.12,1,100.79,100.79,0,0,0,14.54.06c2.87-.18,5.74-.42,8.58-.8l1.14-.17c.31-.12.68.1.9.14l.53.16a10.26,10.26,0,0,1,2.16.94,4.73,4.73,0,0,1,.56.39,2.6,2.6,0,0,1,.55.55,2.55,2.55,0,0,1,.63,1.77,2.78,2.78,0,0,1-.19.92,2.7,2.7,0,0,1-.37.7,2.74,2.74,0,0,1-.42.55c-.15.16-.29.34-.44.47a6.57,6.57,0,0,1-1.24,1c-1.16.58-1.69.16-1.2-.7a1.69,1.69,0,0,1,.37-.59,3.38,3.38,0,0,0,1.53-2.19c0-.33-.16-.42-.39-.59a7.56,7.56,0,0,0-1.05-.59,9.46,9.46,0,0,0-1.33-.54l-.35-.11-.14,0-.57.09-3.15.44c-2.11.29-4.21.53-6.33.7-1.69.13-3.4.19-5.09.19-2.18,0-4.35-.13-6.52-.28a70.19,70.19,0,0,1-9.47-1.16l-.9-.17-.32-.09-.34-.09-.17-.05c-.05,0-.13,0-.1,0,.18.78.37,1.61.56,2.47.32,1.41.65,2.87.95,4.39.15.77.29,1.54.41,2.34.07.39.11.83.16,1.21a1.93,1.93,0,0,1,0,.24l4.07-.14c1.72-.07,3.45-.15,5.13-.28a72.81,72.81,0,0,0,9.32-1.2,40.39,40.39,0,0,0,9.48-3c.47-.2,1-.35,1.5-.57Z"/><path class="cls-1" d="M227.56,290.24c1.18-1.1,1.69-1.17,2.13-1,1.42.56,2.86,1.08,4.3,1.6,1.23.45,2.44,1,3.7,1.36a35.32,35.32,0,0,0,6.65,1.27c.66.08,1.32.12,2,.15s1.27-.08,1.9-.11c.11,0,.22-.06.32,0,.27.17.36.87.17,1.4,0,.12-.09.31-.14.31-.51,0-.93.94-1.49.91-1-.07-2.08.11-3.12.09a7.36,7.36,0,0,1-1.24-.14c-.52-.1-1-.33-1.53-.45a54,54,0,0,1-7.08-1.93,38.1,38.1,0,0,1-6-2.63A3.94,3.94,0,0,1,227.56,290.24Z"/><path class="cls-1" d="M328.31,260.68c-10.76-1-21.23-2-30.77-2.53-12.13-.7-28.38-.75-37.79,6.9.67-1.92,5.49-15.21,12.22-22.17.33-.33,37.69-12.73,51.31,2C326.54,248.43,329.19,255.07,328.31,260.68Z"/><path class="cls-1" d="M278.15,242.55c-1,.26-2,.53-3,.82l-1.48.45-.72.23c-.14.06-.08,0-.15.08l-1,1.06-1,1.18c-.62.81-1.24,1.63-1.8,2.5a73.51,73.51,0,0,0-5.89,11l-.46,1.06-.15.37-.14.37-.06.18,0,.08.08-.06a5.13,5.13,0,0,1,.52-.34l.22-.12.11-.06.29-.13c.65-.29,1.28-.62,1.94-.88l2-.75,2-.61a56.27,56.27,0,0,1,8.19-1.55,104.23,104.23,0,0,1,16.47-.29l3.63.2,3.62.3,7.22.55c6.14.46,12.33.79,18.45,1.55,3.81.48-1.27,2.39-8.32,1.83q-9.39-.74-18.77-1.6a135,135,0,0,0-18.74-.57A49.87,49.87,0,0,0,270.48,261a33.5,33.5,0,0,0-5.1,1.89l-.61.29c-.22.11-.34.15-.79.39L261.81,265c-1.48.94-2.83,2-4.2,3l.05-.37.23-.65c.59-1.62,1.16-3.19,1.79-4.81l1-2.38.65-1.48c.88-2,1.83-3.9,2.86-5.8a64.23,64.23,0,0,1,3.37-5.56c.63-.89,1.26-1.78,2-2.62a15.71,15.71,0,0,1,1.07-1.25l.59-.65a1.32,1.32,0,0,1,.48-.36,3,3,0,0,1,.52-.22,105.22,105.22,0,0,1,15.46-3.67,85.56,85.56,0,0,1,12-1.16,51.4,51.4,0,0,1,12,1,27,27,0,0,1,8.73,3.38,18.39,18.39,0,0,1,1.94,1.37c.62.49,1.18,1.06,1.76,1.6a19.4,19.4,0,0,1,2.78,3.88,22.81,22.81,0,0,1,1.7,3.81,15.75,15.75,0,0,1,.93,5.47,4.37,4.37,0,0,1-.69,2.44,4,4,0,0,1-.52.66c-.61.37-.44-1.62-1.14-5a22.39,22.39,0,0,0-2.92-7.15,16.17,16.17,0,0,0-5.48-5.3c-4.48-2.7-10.09-3.64-15.62-3.8a92.9,92.9,0,0,0-24.88,3.24Z"/><path class="cls-2" d="M259.75,265.07l-.08.21"/><path class="cls-1" d="M90.24,286.3c-.29-7.71-.22-16-.51-24.6-.17-4.29-.39-8.63-.86-13a112.22,112.22,0,0,0-2.11-12.9l-.69-2.63-.35-1.32-.42-1.29L84.45,228l-1-2.52-.51-1.25L82.35,223l-1.18-2.43a8.93,8.93,0,0,0-1.37-1.91,8.42,8.42,0,0,0-1.85-1.4c-2.77-1.5-6.4-1.34-9.67-.37a19.9,19.9,0,0,0-8.71,5.23,23.57,23.57,0,0,0-4.47,9.24A63.87,63.87,0,0,0,53.24,242,145.83,145.83,0,0,0,53,264a242.67,242.67,0,0,0,6.51,43.56c1.8,7.09,3.85,14.21,7,20.65.37.82.84,1.55,1.25,2.33s.92,1.46,1.41,2.14l.78.93a2.15,2.15,0,0,0,.37.37,2.8,2.8,0,0,0,.4.32,13.19,13.19,0,0,0,2.12,1.17A61.32,61.32,0,0,0,83,338.62c6.12,1.43,12.37,2.5,18.64,3.47s12.57,1.78,18.88,2.54c12.62,1.51,25.29,2.74,38,3.82s25.38,2,38.08,2.77c6.37.38,12.67.7,19.05.86l19.09.49c21.9.48,43.8.67,65.69.39s43.78-1,65.58-2.74c10.89-.87,21.77-2,32.56-3.58a205.74,205.74,0,0,0,31.83-6.93A66,66,0,0,0,445,333.27a25.22,25.22,0,0,0,5.91-4.95,38.59,38.59,0,0,0,4.46-6.46,72.75,72.75,0,0,0,5.85-14.92,136.85,136.85,0,0,0,3.43-15.86,229.73,229.73,0,0,0,2.61-38.43,110.37,110.37,0,0,0-1.67-19,40,40,0,0,0-2.75-8.88,18.75,18.75,0,0,0-5.33-7.06,14.79,14.79,0,0,0-7.71-3c-.7-.09-1.42-.1-2.14-.13a15,15,0,0,0-2,.17,10.32,10.32,0,0,0-3.72,1.41,15.69,15.69,0,0,0-5.38,6.3,38.67,38.67,0,0,0-3,8.36,94.48,94.48,0,0,0-2.32,18.07c-.27,6.12-.17,12.28.14,18.42.21,4.14.61,8.48.9,12.36.4,5.25.57,8.49.38,9.48s-.79-.25-1.57-4.09a54.23,54.23,0,0,1-1-5.62c-.91-9.58-1.59-18.21-1.68-27a117.1,117.1,0,0,1,.58-13.5,58,58,0,0,1,3.17-14.39,29.41,29.41,0,0,1,3.43-6.54,20,20,0,0,1,2.52-2.86,15.56,15.56,0,0,1,3.21-2.22,14.18,14.18,0,0,1,3.73-1.22,17.22,17.22,0,0,1,3.84-.18,19.6,19.6,0,0,1,7.35,1.76,17.9,17.9,0,0,1,6,4.67,25.34,25.34,0,0,1,3.86,6.38,52.66,52.66,0,0,1,3.49,14,133,133,0,0,1,1,14.21c.11,4.72,0,9.45-.14,14.17a211.16,211.16,0,0,1-2.88,28.23,110.3,110.3,0,0,1-6,22.06,54.07,54.07,0,0,1-5.41,10.32,34.19,34.19,0,0,1-3.76,4.6,30.7,30.7,0,0,1-4.65,3.77A61.58,61.58,0,0,1,434.34,342a131.62,131.62,0,0,1-14,4,288.65,288.65,0,0,1-28.51,4.86c-6.53.82-19.12,2.25-36.23,3.32s-38.7,1.87-63.17,2.05S240.59,356,212,355.12c-7.19-.22-14.41-.66-21.69-1.1s-14.61-1-22-1.54c-14.72-1.13-29.54-2.47-44.26-4.13-7.35-.84-14.68-1.77-22-2.86s-14.48-2.32-21.57-4.09A47.9,47.9,0,0,1,70,337.75a10.08,10.08,0,0,1-2.5-1.87,18.69,18.69,0,0,1-1.78-2.3c-.25-.4-.53-.79-.76-1.19l-.67-1.21c-.47-.8-.85-1.62-1.24-2.44a115.17,115.17,0,0,1-6.65-20c-1.68-6.68-3-13.32-4-19.85s-1.78-12.95-2.27-19.22-.72-12.42-.6-18.37a95.37,95.37,0,0,1,1.71-17.22c.15-.69.29-1.38.44-2.06s.37-1.34.56-2l.28-1,.35-1c.24-.65.47-1.3.72-1.94a24.87,24.87,0,0,1,1.94-3.68,13.93,13.93,0,0,1,2.64-3.22A22.82,22.82,0,0,1,64.78,215,22.18,22.18,0,0,1,72,213.17a13.62,13.62,0,0,1,7.14,1.34,10.87,10.87,0,0,1,4.82,5c.87,1.82,1.77,3.55,2.41,5.3.33.87.71,1.7,1,2.54l.81,2.48a84.37,84.37,0,0,1,3.21,15.82c.24,2,.36,3.54.44,4.73s.15,2,.15,2.35C92.37,262.2,91.81,271.53,90.24,286.3Z"/><path class="cls-1" d="M136,159.69c-.26.63-.52,1.26-.76,1.88-.11.31-.23.63-.31.89s-.23.72-.34,1c-.23.67-.46,1.28-.61,1.87a3.1,3.1,0,0,0-.11,1.43,25.74,25.74,0,0,0,1.5,3.61c.58,1.24,1.2,2.46,1.82,3.69l1.4,2.69c.23.46.47.91.69,1.38.12.24.23.49.35.77a4,4,0,0,1,.21,1.06,6.27,6.27,0,0,1,0,1.07c-.06.32-.12.65-.2,1a17.1,17.1,0,0,1-.6,1.75,31.26,31.26,0,0,1-1.59,3.17q-.87,1.52-1.8,3l-.88,1.36c-.12.18-.26.37-.37.56l.75.3,1.79.65a31.07,31.07,0,0,0,3.57,1.08c.36.08.74.15,1.11.21l.39,0,.28,0a1,1,0,0,0,.15-.23l.21-.34.59-1,2.33-4.09c1-1.75,1.93-3.52,2.87-5.29s1.93-3.54,2.76-5.25a1.82,1.82,0,0,1,.18-.32.45.45,0,0,1,.13-.17.34.34,0,0,1,.3-.11c.2,0,.45.38.48,1a10.7,10.7,0,0,1-1.44,5.33c-1.89,3.53-3.9,7-5.95,10.38l-1,1.68-.37.62-.05.08h-.08l-.18,0-.36,0-.72-.06-.36,0-.29,0a20.47,20.47,0,0,1-3.09-.73c-1-.3-2-.65-2.89-1l-1.67-.63-2.48-.9.79-1.25,1.44-2.21,1-1.57c.65-1.06,1.27-2.13,1.82-3.23a16.5,16.5,0,0,0,1.28-3.33,4.24,4.24,0,0,0,.09-1.47,1,1,0,0,0-.1-.27l-.17-.4-.41-.83c-1.23-2.47-2.54-4.94-3.74-7.49-.3-.63-.59-1.28-.87-1.94a8.2,8.2,0,0,1-.68-2.25,6.69,6.69,0,0,1,.35-2.36c.21-.7.47-1.37.67-2a47,47,0,0,1,1.88-4.86l2.07-4.72.82-1.81.49-1c.16-.32.32-.7.51-.77a3.87,3.87,0,0,0,.87-.63l.18.16a.44.44,0,0,1,.19.26l.39.94.54,1.64.49,1.3c.28.72.56,1.43.86,2.14q.88,2.11,1.88,4.19c1.71,3.6,3.63,7,5.53,10.49l1.25,2.28c1.52,2.88,1.85,4,1.58,4.85-.07.19-.13.47-.26.54a.19.19,0,0,1-.14,0l-.18,0c-.1,0-.24-.17-.41-.39a20.53,20.53,0,0,1-1.44-2.24A173.85,173.85,0,0,1,139.78,155c-.24-.59-.48-1.18-.71-1.78L139,153h0s0,0,0,0l0,0h0l0,.08-.33.73c-.88,2-1.74,3.94-2.56,5.91Z"/><path class="cls-1" d="M199.47,199.4c-14.86-4.44-31.72,1.58-36.31,5.06,0,0-14.44,7.45-22,6.26,2.75-6,4.59-15.31,1.5-15.76,2.17-3.72,10-14.92,7-22.52,6.4,10.1,14.49,15.32,23.78,11.29,9.68-4.21,12.8-23.14,11.84-33.17,6.8-.44,10.48-8,6.7-14.12-3.42-5.55-11.66-2.28-13,3.52-11,2.12-23.15-4.92-28.52-13.38A93.1,93.1,0,0,1,136,139.75c.72,2.69,1.72,6,3,9.62-1.78,4.29-6.07,13.45-6.29,17.69-.15,2.82,5.76,11.46,6,12.55.73,3.06-3.64,10.18-5.4,13.12-.8-.28-6.42-2.33-8.56.65a36,36,0,0,0-3.54,6.51c-18.76-14.8.42-30.66-.09-40.59-.33-6.31-1.4-10.83-2.49-16.88C111.13,100.67,155,111,155.18,110.78c8.66-9.38,58.39-16.74,51,48.5-.66,5.84,10.48,7.45,12.52,15.44C220.82,182.87,219.34,197.94,199.47,199.4Z"/><path class="cls-1" d="M120.79,166.26c-1.28,3-2.77,5.82-4,8.69a28.78,28.78,0,0,0-2.5,8.74,14.73,14.73,0,0,0,1.71,8.5,19.16,19.16,0,0,0,2.62,3.62c.47.58,1.07,1.07,1.6,1.62l.21.2.1.08.2.18.2-.43c.31-.64.64-1.27,1-1.9s.71-1.24,1.1-1.85l.61-.9c.09-.13.26-.33.41-.5a2.89,2.89,0,0,1,.5-.49,5.21,5.21,0,0,1,2.41-1.1,8.44,8.44,0,0,1,2.39-.12,13.65,13.65,0,0,1,2.23.36l.53.14.47.13.18.06s.07-.12.11-.18l.59-1c.39-.67.77-1.33,1.14-2a42.8,42.8,0,0,0,2-4.08,15.37,15.37,0,0,0,.73-2.06,5.46,5.46,0,0,0,.25-1.87l0-.18v-.05h0c-.13,0,1.22-.29.59-.15l-.11,0-.44.1c-.11,0,0,0-.07,0a.5.5,0,0,0-.07-.16l-.11-.23-.55-1-1.18-2c-.78-1.35-1.56-2.72-2.29-4.15-.36-.71-.71-1.43-1-2.2a9.37,9.37,0,0,1-.73-2.58,9.66,9.66,0,0,1,.3-2.65c.18-.8.4-1.58.64-2.34.48-1.53,1-3,1.6-4.48,1-2.63,2.17-5.22,3.28-7.78l.36-.86s.06-.08,0-.12l-.06-.18-.62-2-1.25-4L135.2,141l-.27-.86-.13-.44-.07-.22c0-.07-.06-.15,0-.18l1.47-1c1.12-.82,2.19-1.67,3.25-2.56,2.12-1.77,4.15-3.66,6.12-5.6.87-.86,1.72-1.74,2.57-2.63l2-2.16.27-.3c.05,0,.1-.12.14-.12l.11.16.45.64L152,127c.13.19.32.47.42.6l.27.34.56.69c.36.48.79.89,1.19,1.33s.83.85,1.26,1.26a16.76,16.76,0,0,0,1.35,1.18,30.15,30.15,0,0,0,12.67,6.36,23.6,23.6,0,0,0,7.05.54l1.33-.18h.08s0-.07,0-.1l.07-.22a1.11,1.11,0,0,1,.08-.24l.22-.47a9.27,9.27,0,0,1,2.53-3.22,9.91,9.91,0,0,1,3.63-1.88,7.52,7.52,0,0,1,4.18,0,6.68,6.68,0,0,1,3.43,2.48,10.34,10.34,0,0,1,1.71,3.67,9.78,9.78,0,0,1,.21,4A9.54,9.54,0,0,1,193,146.9a10.06,10.06,0,0,1-2.8,2.94l-.88.52c-.3.16-.62.28-.93.42a5.65,5.65,0,0,1-1,.31,6,6,0,0,1-.77.19l-.36,0a2.23,2.23,0,0,0,0,.36l0,.67,0,.94c0,1.26,0,2.52-.08,3.77a60.48,60.48,0,0,1-.89,7.46,40.16,40.16,0,0,1-5.17,14.13,16,16,0,0,1-5.55,5.37,16.78,16.78,0,0,1-7.5,1.84,15.36,15.36,0,0,1-6.2-1.42A21.35,21.35,0,0,1,155.7,181a30.44,30.44,0,0,1-2.2-2.2c-.36-.38-.71-.77-1-1.17l-.57-.71c-.29-.4-.59-.78-.85-1.2l-.21-.3-.1-.16s0,0,0,0l0,.09a5.71,5.71,0,0,1,.19.71c0,.22.06.44.08.66v.66a3.16,3.16,0,0,1,0,.32l-.07.71c0,.48-.17.93-.25,1.4a29.15,29.15,0,0,1-1.74,5.33,54.27,54.27,0,0,1-2.46,5q-.68,1.18-1.38,2.37l-1.21,2-.11.19s0,.07,0,.09l.11,0a.68.68,0,0,1,.29.21,4.59,4.59,0,0,1,.89,2.64,15.34,15.34,0,0,1,0,2.45,33,33,0,0,1-1.11,5.61q-.39,1.36-.87,2.7l-.38,1-.23.56a6.74,6.74,0,0,0,2.11,0,29.89,29.89,0,0,0,3.34-.57,51.9,51.9,0,0,0,6.57-2c2.15-.81,4.29-1.71,6.37-2.69l1.56-.76.35-.17.29-.2c.26-.17.51-.36.77-.52a29.55,29.55,0,0,1,3.22-1.64A45.31,45.31,0,0,1,173.7,199a52,52,0,0,1,7-1.45,46.12,46.12,0,0,1,14.17.06c.87.17,1.62.29,2.24.46s1.12.34,1.5.47c.77.27,1.09.45,1,.54a3.13,3.13,0,0,1-1.37,0q-.62-.06-1.47-.18l-2-.14a55.68,55.68,0,0,0-12,.49,57.7,57.7,0,0,0-16.17,4.85,14.74,14.74,0,0,0-1.36.74,4.35,4.35,0,0,0-.64.39l-.79.53c-1.1.55-2,1-3.09,1.47-2,.92-4.11,1.78-6.23,2.54A52.31,52.31,0,0,1,148,211.7l-1.7.33-1.75.21c-.29,0-.6,0-.9,0l-.64,0a4.26,4.26,0,0,1-.8,0L139,212c.54-1.22,1.11-2.46,1.6-3.69.24-.6.44-1.19.64-1.79.4-1.21.74-2.43,1-3.67a24.82,24.82,0,0,0,.54-3.67,9.62,9.62,0,0,0,0-1.71,3.13,3.13,0,0,0-.3-1.08l-.53-1.09-.52-1.09,1.79-2.94c.47-.76.92-1.53,1.36-2.31a50.82,50.82,0,0,0,2.36-4.73,25.9,25.9,0,0,0,1.62-4.91,11.14,11.14,0,0,0,.22-1.24l.08-.65a5.36,5.36,0,0,0,.05-.7,2.58,2.58,0,0,0-.07-.82l-.92-4.28c0-.22-.29-1.08-.48-1.72l-.61-2-1.21-4.06,4.87,7.29,1.37,2,.68,1,.67.92,1.05,1.28a9,9,0,0,0,.7.81,21.79,21.79,0,0,0,6.51,5.17,14.35,14.35,0,0,0,3.83,1.26,13.15,13.15,0,0,0,4,0,16.85,16.85,0,0,0,2-.45c.63-.25,1.32-.46,1.91-.74a10.94,10.94,0,0,0,3.2-2.34,22.37,22.37,0,0,0,4.4-7.13,44.57,44.57,0,0,0,2.44-8.33,57.73,57.73,0,0,0,1-8.69q0-1.09,0-2.19l0-1.09,0-.54,0-.41,0-.5-.07-1,0-.49s0-.11,0-.11h.12l.25,0,1-.13.5-.06c.15,0,.36-.05.4-.07l1-.25.9-.38a7.91,7.91,0,0,0,4.2-7.51,9,9,0,0,0-1.48-4.35,4.65,4.65,0,0,0-3.56-2.14,6.81,6.81,0,0,0-4.31,1.23,7.62,7.62,0,0,0-1.72,1.55,8.61,8.61,0,0,0-.67,1c-.1.16-.17.34-.26.51l-.13.26-.06.13-.07.23-.3.95-.08.23,0,.12v.06h-.07l-.55.08-1.71.24c-.92.11-1.84.11-2.76.14a26.3,26.3,0,0,1-5.45-.67,33.08,33.08,0,0,1-18.13-11.51l-.22-.27-.11-.13,0-.05-.13-.2-.14-.2c-.05-.07-.09-.18-.14-.08l-1.09,1.16q-1.84,1.94-3.77,3.78t-4,3.59l-2.06,1.7-1.07.82-.93.69c-.08.07-.22.13-.25.2l.09.32.52,1.67,1.05,3.45,1.17,3.82-1.57,3.67c-1,2.22-1.9,4.44-2.76,6.68a34.61,34.61,0,0,0-2,6.74,3.48,3.48,0,0,0,0,.76,2.86,2.86,0,0,0,.12.69,12,12,0,0,0,.56,1.58c.46,1.07,1,2.13,1.58,3.18s1.17,2.09,1.78,3.14l.91,1.57.46.81.23.43a4.6,4.6,0,0,1,.24.55,4.9,4.9,0,0,1,.06,2.21,11.24,11.24,0,0,1-.48,1.9,28,28,0,0,1-1.46,3.46c-.54,1.11-1.13,2.19-1.74,3.26s-1,1.82-2.23,3.74c-.52-.19-1.05-.37-1.57-.54l-1-.27a12.5,12.5,0,0,0-1.9-.3,4.58,4.58,0,0,0-3.31.74,1.19,1.19,0,0,0-.28.27,2.37,2.37,0,0,0-.26.32c-.2.27-.38.55-.56.83-.37.56-.71,1.14-1,1.73s-.63,1.19-.93,1.8l-.64,1.38-.67,1.5-2.61-2.2c-.55-.55-1.13-1.07-1.65-1.65a21.82,21.82,0,0,1-1.5-1.81c-.23-.31-.48-.62-.7-1l-.62-1a16.81,16.81,0,0,1-2.29-9.11c.23-5,2.28-9.57,4.31-13.85,1-2.16,2.08-4.28,2.9-6.46a17,17,0,0,0,.89-3.28c0-.27.08-.55.09-.82v-.81l-.12-1.77a130.74,130.74,0,0,0-2.15-14,49.06,49.06,0,0,1-.75-14.42,23.13,23.13,0,0,1,4.48-11.3,21.09,21.09,0,0,1,4.55-4.14,25.37,25.37,0,0,1,5.5-2.66,35.47,35.47,0,0,1,5.91-1.39,48.61,48.61,0,0,1,6-.45c2,0,4,.08,6,.26q1.48.15,3,.36l1.48.22.56.1c.07,0,.14,0,.2,0l.15-.15.37-.34a3.31,3.31,0,0,1,.5-.41c.34-.24.68-.51,1-.74a21.52,21.52,0,0,1,2.2-1.22c.75-.39,1.53-.66,2.3-1s1.57-.55,2.36-.77a37.68,37.68,0,0,1,9.77-1.4,32.34,32.34,0,0,1,18.68,5.3A31.61,31.61,0,0,1,203,122.29a52.21,52.21,0,0,1,4.23,16.12,92.89,92.89,0,0,1,.17,16.59l-.35,4.12a3.8,3.8,0,0,0,.14,1.67,4.72,4.72,0,0,0,.88,1.48,16.94,16.94,0,0,0,3,2.54c1.1.79,2.24,1.58,3.35,2.46a14.77,14.77,0,0,1,4.8,5.91,10.13,10.13,0,0,1,.56,1.86,23.3,23.3,0,0,1,.55,3.73,15,15,0,0,1,.06,1.9,20.44,20.44,0,0,1-1,6.42,19.27,19.27,0,0,1-1.07,2.65c-.42.82-.91,1.55-1.35,2.25s-1,1.28-1.52,1.84-1.09,1-1.59,1.45-1.09.76-1.59,1.1a8.75,8.75,0,0,1-.75.49l-.75.37a19,19,0,0,1-8.47,2.12c-.9,0-2.08,0-2.6-.08-.88-.13.53-.43,3.67-1.09.77-.23,1.66-.44,2.63-.74l1.49-.59a9.31,9.31,0,0,0,1.59-.72,16.28,16.28,0,0,0,6.27-5.3,19.19,19.19,0,0,0,2.71-13.44l-.12-.88-.2-.86a7.85,7.85,0,0,0-.47-1.62,9.43,9.43,0,0,0-1.76-2.83,31.07,31.07,0,0,0-5.59-4.59,22.19,22.19,0,0,1-3.09-2.55,7.67,7.67,0,0,1-1.32-1.83,5.31,5.31,0,0,1-.61-2.37c0-.21,0-.42,0-.62l0-.49.08-.94.15-1.87c.09-1.25.25-2.5.26-3.76a84.82,84.82,0,0,0-.5-15,46.69,46.69,0,0,0-4-14.35,29.14,29.14,0,0,0-1.78-3.25l-1-1.56L197,116.54l-.57-.73-.63-.67-1.28-1.33a28.85,28.85,0,0,0-2.85-2.32,25.63,25.63,0,0,0-6.5-3.44,33.72,33.72,0,0,0-3.55-1.07,35.37,35.37,0,0,0-18.45.92,24.18,24.18,0,0,0-3.63,1.52c-.57.3-1.12.63-1.65,1l-.75.56a2.37,2.37,0,0,0-.34.29l-.57.54-.53.3-.07,0,0,0c0,.14-.08-.18-.08-.14l-.14,0a2.11,2.11,0,0,1-.29.06,2,2,0,0,1-.61.07l-.47-.07-1.28-.2c-.85-.13-1.71-.24-2.56-.32-1.71-.18-3.43-.29-5.14-.32a41.18,41.18,0,0,0-10.12,1,22.4,22.4,0,0,0-8.9,4.21,18,18,0,0,0-5.49,8,28.19,28.19,0,0,0-1.35,9.93,62.73,62.73,0,0,0,1.25,10.27c.64,3.45,1.33,7,1.71,10.55.1.89.17,1.79.24,2.69l.08,1.35a11.06,11.06,0,0,1-.06,1.53,19.59,19.59,0,0,1-1.57,5.45Z"/><path class="cls-1" d="M203.64,109.2c5.76-2.12,12.59-2.69,19.33-2.89,11.28-.33,22.57-.56,33.88-.53,5.66,0,11.32.1,17,.42l8.45.56c2.81.16,5.62.32,8.43.44,19.34.93,38.78,1.26,58.22,2.66,8.36.59,16.72,1.5,25,2.61a179.3,179.3,0,0,1,24.79,4.81,97.23,97.23,0,0,1,12,4.2,33.33,33.33,0,0,1,10.88,7.26,37.38,37.38,0,0,1,7.27,10.81,51.18,51.18,0,0,1,3.73,12.36,66.24,66.24,0,0,1,.82,7.55c.14,2.52.19,4.93.31,7.41.2,4.93.41,9.87.51,14.83.19,9.49,0,19.1-1.72,28.6a45.81,45.81,0,0,1-1,4.75c-1.3,3.95-2.39,4.55-2.22,1.51a12.53,12.53,0,0,1,.18-2.19c1.65-7.14,1.18-13.05,1.57-20.67.31-7.07.07-14.18-.29-21.31l-.57-10.72A67.08,67.08,0,0,0,429,151.31c-.25-1.36-.62-2.69-1-4s-.79-2.64-1.31-3.91-1.06-2.53-1.62-3.77-1.26-2.42-2-3.54a30.77,30.77,0,0,0-6.9-7.66,35.06,35.06,0,0,0-9.18-5,100,100,0,0,0-13-4.1,203.75,203.75,0,0,0-23.51-4.11C361.31,114,351,113,340.14,112.45s-22.23-.91-33.5-1.3-22.45-.89-32.82-1.69c-10.31-.58-20-.52-28.33-.52-16.67.1-28,.43-29.1.43C212.82,109.41,209.29,109.27,203.64,109.2Z"/><path class="cls-1" d="M90.9,212.91a9.88,9.88,0,0,1-3.24-6.73,234.46,234.46,0,0,1-2.21-24.72,193.82,193.82,0,0,1,.48-21.41,129.76,129.76,0,0,1,2.57-18.33c.38-1.5.68-3,1.14-4.52s.91-3,1.45-4.46,1.15-2.91,1.82-4.36a22.38,22.38,0,0,1,1.19-2.14c.22-.35.42-.7.66-1l.73-1a27.44,27.44,0,0,1,8.79-7.27,46.7,46.7,0,0,1,10-3.94,9.36,9.36,0,0,1,1.74-.42c1.52-.12,2,.66,1.1,1.54-.21.2-.42.49-.68.56-2.6.65-4.3,2.31-6.83,3.24A24.31,24.31,0,0,0,98,126.68a24.55,24.55,0,0,0-2.77,5.11A61.32,61.32,0,0,0,92.44,139c-.22.86-.67,2.53-1.2,4.8-.21,1.15-.45,2.45-.72,3.88s-.44,3-.68,4.66a176,176,0,0,0-1.21,23.16,312,312,0,0,0,2.2,32.71C90.94,209.55,90.88,210.84,90.9,212.91Z"/><path class="cls-1" d="M272.26,133.6a6.27,6.27,0,0,1,.86,5.1c-1,5.37-1.85,10.78-2.54,16.2-.25,2.33-.61,4.66-.81,7l-.36,3.5-.2,3.52A116.78,116.78,0,0,0,270.37,193l.57,3.51.85,3.45.42,1.64a11.25,11.25,0,0,0,.5,1.62l1.16,3.18a5.39,5.39,0,0,1,.36,1.07c.14,1-.48,1.48-1.24,1-.17-.11-.43-.21-.49-.38-.6-1.68-2-2.74-2.57-4.58-.83-3.44-2-6.82-2.55-10.33a30.15,30.15,0,0,1-.58-4.22c-.11-1.81-.2-3.61-.27-5.42,0-.61,0-1.8-.1-3.41,0-.8-.08-1.71-.09-2.7s0-2.08,0-3.22c0-4.6.38-10.25.94-15.76a176,176,0,0,1,3.75-21.9A25.14,25.14,0,0,1,272.26,133.6Z"/><path class="cls-1" d="M250,132.31a5.87,5.87,0,0,1,2.82,4.41q1.53,8.31,2.28,16.75c.17,2.42.37,4.83.41,7.26l.12,3.64,0,3.64a161.34,161.34,0,0,1-1.45,25l-.57,3.68-.76,3.65c-.26,1.16-.42,2.34-.74,3.5l-.92,3.46a7.09,7.09,0,0,1-.34,1.16c-.46.92-1.24.9-1.56,0-.08-.2-.22-.44-.17-.62.47-1.76-.05-3.4.5-5.2s.71-3.43,1-5.15a25.18,25.18,0,0,0,.35-2.61l.3-2.61c.08-.7.18-1.39.29-2.08l.24-2.1c.21-1.78.57-3.54.71-5.34,0-.61.12-1.79.23-3.39s.16-3.63.19-5.93c.11-4.59-.07-10.27-.41-15.82-.69-11.11-2.4-21.64-2.48-22.17C250,134.6,250,133.71,250,132.31Z"/><path class="cls-1" d="M347.18,259c5.2-9.05,10.25-18.72,17.62-26.22,6.11-6.23,13.23-11.49,18.33-18.65l-2.5.67c7.52,4,17.74,3.54,26,5a110,110,0,0,1,15.92,3.67c2.09.69,7.58,2.28,7.67,4.42s-2.33,5.65-3.14,7.51c-1.78,4-3.68,8-5.73,11.95-4.2,8-9.24,17.7-17.27,22.46-1.69,1,.79,1.68,1.85,1.05,8.71-5.16,14.21-15.69,18.68-24.37a187.48,187.48,0,0,0,8.78-19.58.52.52,0,0,0-.12-.45c-5.52-5.52-15.7-6.74-23-8.05-4.64-.85-9.31-1.52-14-2.11-4.52-.57-9.29-.77-13.4-3a2.12,2.12,0,0,0-2.5.67c-5.58,7.83-13.7,13.27-20,20.4s-11.1,16.13-15.9,24.47c-.73,1.28,2.19,1.12,2.73.18Z"/><path class="cls-1" d="M184.63,382.88a8.63,8.63,0,0,1-5.07,2,97.73,97.73,0,0,0-17.4,3.9q-3.65,1.15-7.2,2.6c-1.19.47-2.34,1-3.51,1.54-.29.13-.58.26-.86.42l-.65.33-.19.09-.06,0,3.79,1.73q3,1.4,5.94,2.83c3.94,1.92,7.85,3.93,11.69,6.07,2.32,1.28,4.6,2.66,6.87,4.06,1.09.66,2.15,1.38,3.23,2.07s2.12,1.45,3.14,2.26a7.63,7.63,0,0,1,1,.84c.76.84.52,1.45-.4,1.29a1.43,1.43,0,0,1-.63-.16,8.92,8.92,0,0,0-2.39-1.36,15.12,15.12,0,0,1-2.5-1.32,91,91,0,0,0-9.83-5.68q-2-1.06-4-2.17c-1.7-.93-3.37-1.92-5.1-2.82-.67-.35-2-1.05-4.3-2.14l-4.08-1.93-2.57-1.18-5-2.2,3.74-2,1.42-.74c.38-.21.79-.38,1.19-.57l2.52-1.17,2.67-1.09a89,89,0,0,1,11.21-3.54,86,86,0,0,1,13.85-2.25A27.38,27.38,0,0,1,184.63,382.88Z"/><path class="cls-1" d="M183.35,387.63c-6.52.22-12.17,3.39-18,5.86-1.49.63.82.61,1.43.36,5.05-2.13,10-5,15.56-5.2.68,0,2.68-1.08,1.06-1Z"/><path class="cls-1" d="M187.43,391.24c-4.89,1.11-9.32,3.52-14.14,4.87-1.52.43-1,2.23.49,1.8,4.81-1.35,9.25-3.76,14.13-4.87,1.55-.35,1.06-2.15-.48-1.8Z"/><path class="cls-1" d="M182.55,382a2.62,2.62,0,0,1,2.94-.55,76.18,76.18,0,0,1,7.79,3.72c2.18,1.19,4.25,2.56,6.33,3.89,3.59,2.29,7.12,4.68,10.51,7.26l3,2.33,2.86,2.21a2.27,2.27,0,0,1,.47.39.75.75,0,0,1-.62,1.11c-.14,0-.32.1-.4,0-.72-.57-1.81-.43-2.53-1.07a48.35,48.35,0,0,0-4.38-3.13,21.41,21.41,0,0,1-1.72-1.29c-.71-.58-1.4-1.19-2.13-1.75a111.53,111.53,0,0,0-10.76-6.93c-4.88-2.87-9.79-5.12-10-5.25A12.92,12.92,0,0,1,182.55,382Z"/><path class="cls-1" d="M219,399.74c-.13-.13-.12-.42-.12-.65a3,3,0,0,1,.14-.71,4.45,4.45,0,0,1,.7-1.28,7.41,7.41,0,0,1,2.27-1.78,37,37,0,0,1,8.93-3.15l2.29-.49,2.31-.39c.39-.06.77-.13,1.16-.18l.57-.08.29,0h0s.07,0,.06,0l-1.18-1.39c-.85-1-1.73-1.93-2.63-2.88-1.8-1.88-3.69-3.68-5.67-5.38-1.69-1.47-3.47-2.85-5.26-4.19l-2.75-1.95-1.41-.92-.63-.42c-.07,0,0,0-.18,0a67.92,67.92,0,0,0-13.25,1.88,57.87,57.87,0,0,0-7.55,2.34,49.19,49.19,0,0,0-6.78,3.26,9.31,9.31,0,0,1-1.07.63c-.49.21-.86.23-1.06.08s-.28-.43-.06-.85c.1-.19.18-.44.35-.55,1.7-1.06,2.77-2.51,4.74-3.37a77.19,77.19,0,0,1,11.18-4c.76-.22,1.54-.37,2.32-.53s1.56-.32,2.34-.41c2-.3,4-.42,6-.56l1.49-.08,1.06-.05.9-.05c.19,0,.33.18.5.26l.38.25c1.5,1,3.38,2.25,5.43,3.8a91.56,91.56,0,0,1,13,11.88l.77.87.8,1,1.26,1.59,1.17,1.57a28.34,28.34,0,0,1-3.74.58l-1.23.15c-.35,0-.7.1-1,.16a61.09,61.09,0,0,0-7.45,1.53,31.91,31.91,0,0,0-5,1.83,16.14,16.14,0,0,0-2,1.06l-1.21.71a7.86,7.86,0,0,0-.65.46A5.66,5.66,0,0,0,219,399.74Z"/><path class="cls-1" d="M200.33,384c4.76-3.55,11.64-5.34,17.52-5.33,1.63,0,2.25-2,.28-2.06-6.62,0-14.36,2.14-19.71,6.12-1.57,1.18.79,2.1,1.91,1.27Z"/><path class="cls-1" d="M217.66,392.55a14.42,14.42,0,0,1,7.45-2.7c1.41,0,1.89-1.87.22-1.82A18.07,18.07,0,0,0,216,391.4c-1.39.92.62,1.82,1.64,1.15Z"/><path class="cls-1" d="M243.48,303.63c1.05-.49,2.12-.89,3.2-1.31s2.18-.75,3.28-1.07a11.89,11.89,0,0,1,3.35-.86,8,8,0,0,1,3.56.62l0,.25a9.57,9.57,0,0,1-3.19,1.6,15.64,15.64,0,0,1-3.36.35l-6.81.66Z"/><path class="cls-1" d="M101.22,353a.79.79,0,0,1,.19-.92,2.57,2.57,0,0,1,1.32-.71c.37-.06,1.28.54,1.46.53h.1s.07.07.1.1l.18.2a4.6,4.6,0,0,1,.32.45c.07.13.6,3.39.88,4.52a19.09,19.09,0,0,1,.4,3.28c.13,2.23.34,4.47.51,6.72a7.54,7.54,0,0,1,0,1.5,21.62,21.62,0,0,0,.15,5.15,1.81,1.81,0,0,0,.22.84,28.87,28.87,0,0,1,.65,5.68c-.18,1.52-.22,3-.31,4.54,0,.21.07.43-.1.64A1.79,1.79,0,0,0,107,387a12.31,12.31,0,0,1,0,1.92,3.1,3.1,0,0,1-.38,1c-.13.29-.8.3-.89.21-.26-.26-.52,0-.78.12a1.09,1.09,0,0,1-.28.06,20.31,20.31,0,0,1-1.85-4.06c0-.05-.24-1.42-.49-2.85s-.51-2.94-.59-3.24a3.23,3.23,0,0,1,0-1c0-.15-.77-4.45-.77-4.62a7.32,7.32,0,0,1,0-2.72,1.1,1.1,0,0,0,0-.54,40,40,0,0,1-.2-4.65c0-.79-.13-1.57-.18-2.37a2.22,2.22,0,0,1,.06-.43,3.29,3.29,0,0,0,0-.54c-.19-1.88-.08-3.76-.36-5.65-.07-.43.34-2.54.27-3.05C100.61,354.24,101.33,353.3,101.22,353Z"/><path class="cls-1" d="M107.49,356.44c-.12-.75.7-1.16,2-1.08a3.6,3.6,0,0,1,1.56.74c.2.39.41.75.54,1,0,.07,0,.2,0,.53s0,.73,0,1.16c0,.86.09,1.91.12,2.4a15.34,15.34,0,0,1,0,3c-.14,2.06-.16,4.15-.18,6.26a6.12,6.12,0,0,1-.19,1.4,16.48,16.48,0,0,0-.31,4.85,1.35,1.35,0,0,0,.16.8c.3.43.33,4.84.19,5.42-.33,1.43-.53,2.87-.81,4.31,0,.21,0,.43-.18.62-.49.43-.41.88-.46,1.33a9.27,9.27,0,0,1-.35,1.91,3.05,3.05,0,0,1-.69,1c-.24.27-.93-.06-1-.16-.19-.31-.56-.14-.86-.19a1.53,1.53,0,0,1-.32-.05,1.59,1.59,0,0,1-.25-.49c-.11-.26-.29-.75-.44-1.17a14.1,14.1,0,0,1-.62-2s-.12-1.33-.24-2.69-.27-2.78-.33-3.08a2.47,2.47,0,0,1,.13-.92c0-.14-.45-4.26-.44-4.43a5.67,5.67,0,0,1,.29-2.57.92.92,0,0,0,0-.52,31.55,31.55,0,0,1,.24-4.44c.07-.75,0-1.52.06-2.28a3.11,3.11,0,0,1,.11-.41,2.33,2.33,0,0,0,.11-.51c0-.91.12-1.82.2-2.72a21.34,21.34,0,0,0,.16-2.77c0-.45.79-2.4.86-2.94C106.59,357.45,107.57,356.71,107.49,356.44Z"/><path class="cls-1" d="M109,388.82c.31.65-.35,1.15-1.59,1.56a3,3,0,0,1-1.73-.14,7.7,7.7,0,0,1-.8-1.11c-.12-.23-.5-3.76-.67-5a17.55,17.55,0,0,1-.09-3.47c.11-2.35.17-4.7.27-7a7,7,0,0,1,.24-1.56,21.41,21.41,0,0,0,.56-5.34,1.72,1.72,0,0,0-.12-.89c-.28-.49,0-5.34.15-6,.43-1.54.72-3.09,1.07-4.63,0-.22,0-.46.22-.66.52-.44.46-.93.52-1.41a12.75,12.75,0,0,1,.4-2,3.41,3.41,0,0,1,.63-1c.22-.29,1-.09,1,0,.21.31.57.08.88.07a1.12,1.12,0,0,1,.32,0,22.35,22.35,0,0,1,1.26,4.36c0,.11.14,5.74.21,6.38a3.2,3.2,0,0,1-.18,1c0,.15.18,4.66.16,4.84a6.78,6.78,0,0,1-.42,2.77,1.08,1.08,0,0,0-.08.56,38.39,38.39,0,0,1-.42,4.78c-.09.82-.06,1.64-.1,2.45a2.4,2.4,0,0,1-.12.44,3.61,3.61,0,0,0-.12.55c0,1.94-.36,3.86-.23,5.8,0,.45-.61,2.55-.56,3.07C109.74,387.66,108.89,388.56,109,388.82Z"/><path class="cls-1" d="M107.86,379.93c.36.47-.24.91-1.43,1.35a3.88,3.88,0,0,1-1.74.07,6.51,6.51,0,0,1-.9-.79c-.15-.16-.85-2.87-1.12-3.78a10.78,10.78,0,0,1-.38-2.69l-.27-5.51a4.68,4.68,0,0,1,.13-1.23,13.55,13.55,0,0,0,.23-4.21,1.08,1.08,0,0,0-.17-.7c-.31-.36-.27-4.21-.1-4.71.39-1.23.66-2.47,1-3.71.05-.17,0-.37.22-.52.53-.34.48-.73.56-1.12a5.8,5.8,0,0,1,.5-1.6,2.42,2.42,0,0,1,.7-.69c.24-.2.94.08,1,.17.19.27.56.15.87.19a1.52,1.52,0,0,1,.32.06,6.78,6.78,0,0,1,.57,1.54,9.85,9.85,0,0,1,.5,1.74s0,.29,0,.7,0,1,.07,1.52c.08,1.13.17,2.31.22,2.55a1.71,1.71,0,0,1-.14.76c0,.12.39,3.54.39,3.67a4.2,4.2,0,0,1-.27,2.14.68.68,0,0,0,0,.42,26.75,26.75,0,0,1-.09,3.69c0,.63,0,1.25.08,1.88a1.5,1.5,0,0,1-.09.35,1.25,1.25,0,0,0-.07.43,37,37,0,0,0,.24,4.46c.06.34-.39,2-.29,2.39C108.47,379,107.71,379.74,107.86,379.93Z"/><path class="cls-1" d="M417.33,353.11c-.32-.59.23-1,1.21-1.51.3-.21,1.22-.77,1.49-.43l.18.25.13.16.24.31a5.43,5.43,0,0,1,.39.59,48.68,48.68,0,0,1,.75,5,18.32,18.32,0,0,1,.06,3.39c-.13,2.28-.23,4.56-.39,6.83a7.86,7.86,0,0,1-.26,1.5,22.54,22.54,0,0,0-.68,5.15,1.73,1.73,0,0,0,.07.87,27.1,27.1,0,0,1-.39,5.76c-.46,1.47-.8,3-1.21,4.44-.06.21,0,.45-.23.62a1.88,1.88,0,0,0-.56,1.35,12.34,12.34,0,0,1-.5,1.92,3.59,3.59,0,0,1-.68.91c-.23.27-.85,0-.9-.15-.15-.32-.5-.14-.77-.17l-.29-.05a26.62,26.62,0,0,1-.79-4.16s.05-1.42.1-2.86.06-2.94.05-3.25a2.83,2.83,0,0,1,.2-.94c.05-.15,0-4.48.05-4.65a7.14,7.14,0,0,1,.48-2.65,1.21,1.21,0,0,0,.09-.53c.05-1.54.31-3.06.51-4.58.1-.78.1-1.56.15-2.35a3.11,3.11,0,0,1,.11-.41,2.53,2.53,0,0,0,.12-.53c.06-1.85.38-3.69.26-5.53,0-.43.53-2.42.46-2.9C416.74,354.21,417.46,353.34,417.33,353.11Z"/><path class="cls-1" d="M410.81,357.38c-.48-.36,0-.86,1-1.75a3,3,0,0,1,1.59-.65,5.37,5.37,0,0,1,1.18.81,2.88,2.88,0,0,1,.38.68c.15.37.34.85.55,1.35.39,1,.7,2.12.91,2.7a14.24,14.24,0,0,1,.55,3.28c.15,2.22.29,4.41.34,6.59a7.27,7.27,0,0,1-.13,1.46,18.27,18.27,0,0,0-.28,4.94,1.44,1.44,0,0,0,.16.83c.3.44.24,4.89.09,5.45-.36,1.42-.6,2.84-.87,4.25,0,.2,0,.42-.19.6-.49.43-.4.85-.43,1.29a11.48,11.48,0,0,1-.25,1.76,3,3,0,0,1-.5.81,1.13,1.13,0,0,1-1,.22c-.26-.24-.57,0-.86.13a1.32,1.32,0,0,1-.32.07,2.17,2.17,0,0,1-.38-.65c-.2-.41-.37-.83-.57-1.34a14.21,14.21,0,0,1-.69-2.16s-.1-1.36-.2-2.75-.22-2.81-.27-3.09a2.45,2.45,0,0,1,.14-.92c0-.15-.37-4.23-.37-4.39a5.8,5.8,0,0,1,.29-2.53,1,1,0,0,0,0-.5,36.78,36.78,0,0,1,.12-4.33c0-.74-.07-1.46-.09-2.2a1.36,1.36,0,0,1,.08-.39,2.24,2.24,0,0,0,.07-.51c-.08-.86-.09-1.71-.12-2.57a14.23,14.23,0,0,0-.31-2.53c-.11-.35.2-2.26,0-2.63C410.38,358.51,411,357.57,410.81,357.38Z"/><path class="cls-1" d="M416.47,388.64c.37.62-.23,1.18-1.42,1.71a3,3,0,0,1-1.74,0,7.73,7.73,0,0,1-.91-1c-.14-.22-.86-3.69-1.15-4.87a17.51,17.51,0,0,1-.43-3.45c-.12-2.34-.29-4.68-.42-7a7.55,7.55,0,0,1,.08-1.57,21,21,0,0,0,0-5.37,1.66,1.66,0,0,0-.21-.88c-.32-.46-.55-5.3-.44-5.94.28-1.57.42-3.14.62-4.72,0-.22-.05-.46.16-.67a1.81,1.81,0,0,0,.38-1.45,12.44,12.44,0,0,1,.19-2,3.88,3.88,0,0,1,.54-1c.19-.3.94-.18,1-.08.25.29.59,0,.89,0a1.2,1.2,0,0,1,.32,0,22.48,22.48,0,0,1,1.68,4.22c0,.1.7,5.69.83,6.32a2.9,2.9,0,0,1-.08,1c0,.16.64,4.63.64,4.81a6.82,6.82,0,0,1-.15,2.8,1.06,1.06,0,0,0,0,.56,40.44,40.44,0,0,1,.05,4.8c0,.82.1,1.63.14,2.45a1.63,1.63,0,0,1-.08.44,2.76,2.76,0,0,0-.06.57c.16,1.93,0,3.87.33,5.79.08.45-.36,2.6-.25,3.11C417.08,387.41,416.32,388.39,416.47,388.64Z"/><path class="cls-1" d="M417.63,380.14c.31.52-.34.89-1.58,1.18a3.76,3.76,0,0,1-1.73-.15,5.36,5.36,0,0,1-.8-.88c-.13-.17-.52-2.9-.71-3.82a11,11,0,0,1-.14-2.68c.07-1.8.07-3.6.12-5.4a4.4,4.4,0,0,1,.18-1.19,11.65,11.65,0,0,0,.37-4.1,1.06,1.06,0,0,0-.16-.68c-.29-.37-.3-4.05-.19-4.52a34,34,0,0,0,.69-3.54c0-.16-.05-.34.16-.5.46-.39.34-.74.35-1.1a10.42,10.42,0,0,1,.11-1.48,2.55,2.55,0,0,1,.47-.81c.16-.26.9-.29,1-.22.26.18.57-.07.87-.15A1.32,1.32,0,0,1,417,350a6.48,6.48,0,0,1,1.05,1.52,11.08,11.08,0,0,1,.84,1.81s.18,1.19.37,2.39.33,2.43.38,2.68a1.88,1.88,0,0,1-.12.8c0,.12.44,3.67.42,3.81a4.29,4.29,0,0,1-.32,2.19.67.67,0,0,0-.06.44,23.66,23.66,0,0,1-.27,3.75c-.07.63,0,1.28,0,1.91a2.35,2.35,0,0,1-.11.35,1.6,1.6,0,0,0-.11.43c0,1.51-.3,3-.15,4.53,0,.35-.58,2-.53,2.38C418.35,379.25,417.5,379.94,417.63,380.14Z"/><path class="cls-1" d="M363.51,256c-1-3.54-.27-4.76.65-5.28a49,49,0,0,1,9.67-4.38,86.53,86.53,0,0,1,8.77-2.08c5-1.13,10-2.11,15.14-2.82l4.52-.54c1.44-.21,2.87-.5,4.32-.71.24,0,.49-.19.73-.06.65.35.9,2,.54,3.2-.08.29-.16.75-.27.76-1.1.17-1.78,2.32-2.92,2.37a33.58,33.58,0,0,0-6.23,1.4,13.22,13.22,0,0,1-2.51.37c-1.08.05-2.19,0-3.28.05a104.69,104.69,0,0,0-14.74,3.23c-3.19.92-6.24,2-8.49,2.88s-3.68,1.61-3.84,1.65A9.13,9.13,0,0,1,363.51,256Z"/><path class="cls-1" d="M368.24,244.49c-1.17-3.46-.64-4.57.09-5a36.34,36.34,0,0,1,7.74-3.75,67,67,0,0,1,7.08-1.72c4-1,8.1-1.81,12.21-2.4l3.64-.47c1.17-.18,2.32-.45,3.49-.65.19,0,.39-.18.59,0,.53.36.76,2,.49,3.21-.06.28-.11.74-.2.76-.88.15-1.39,2.29-2.3,2.32a21.65,21.65,0,0,0-4.94,1.28,9,9,0,0,1-2,.31c-.87,0-1.76-.09-2.63,0a75.49,75.49,0,0,0-11.75,2.7c-2.54.77-5,1.65-6.75,2.38s-2.92,1.3-3.05,1.32A6.58,6.58,0,0,1,368.24,244.49Z"/><path class="cls-1" d="M163.58,211.81c.91-1.18,1.66-1.25,2.3-1.09,2.16.54,4.24,1.19,6.29,1.62.88.19,1.75.37,2.61.47a9.63,9.63,0,0,0,2.52,0c2.8-.5,5.23-2.64,7.65-4.77l2.23-1.9c.73-.61,1.47-1.24,2.28-1.8a1.59,1.59,0,0,1,.43-.26c.44-.09.82.42.8,1,0,.13,0,.32,0,.36-.61.38-.6,1.37-1.19,1.77a23.78,23.78,0,0,0-3,2.81,12.34,12.34,0,0,1-1.28,1.1c-.58.44-1.22.83-1.84,1.24a19.38,19.38,0,0,1-3.4,2,9.88,9.88,0,0,1-3.21.81,15.26,15.26,0,0,1-3.51-.16,38.52,38.52,0,0,1-5.93-1.56l-2.68-.88A9,9,0,0,1,163.58,211.81Z"/><path class="cls-1" d="M185,259.54a5,5,0,0,0,4.89-4.75c.15-2.75-7.77-9.2-9.34-11.74-2.5,2.54-5.26,3.8-8.41,5.57C172.16,248.62,183.55,259.54,185,259.54Z"/><path class="cls-1" d="M173.63,246.29c1.12-.57,2.21-1.14,3.23-1.78.51-.32,1-.65,1.47-1l.35-.28a8.15,8.15,0,0,0,.63-.56l1.23-1.16.19-.17c.44.66.91,1.29,1.39,1.92.07.08.11.15.19.24l.12.12.21.24.42.47a86.56,86.56,0,0,1,6.4,7.52,8.59,8.59,0,0,1,1.11,2.16c.05.22.07.49.1.74a6.07,6.07,0,0,1,0,.63,6.27,6.27,0,0,1-.29,1.21,5.36,5.36,0,0,1-4.83,3.69c-.72,0-.52-.59-.14-1.15a6.09,6.09,0,0,1,1.51-1.66,3.66,3.66,0,0,0,1.28-1.49,3.61,3.61,0,0,0,.28-.95l0-.26s0,0,0,0,0,0,0,0a.08.08,0,0,1,0,0s0,0,0-.11l-.07-.21a10,10,0,0,0-1.2-2.07c-.53-.73-1.09-1.46-1.67-2.19-1.39-1.76-3.16-3.31-4.72-5.13a3.35,3.35,0,0,1-.34-.49l-.41.33c-.38.31-.83.65-1.26.95a28.34,28.34,0,0,1-2.67,1.62l-1.81,1-.94.47.23.23.8.79,1.28,1.24c.85.82,1.72,1.62,2.6,2.4,1.38,1.2,2.82,2.28,4.26,3.34l1,.68c1.19.86,1.41,1.12,1.41,1.74a1.43,1.43,0,0,0,.1.42.26.26,0,0,1-.06.31.55.55,0,0,1-.23.1,1.18,1.18,0,0,1-.27,0,3,3,0,0,1-1.39-.43,49.11,49.11,0,0,1-8-6.33l-1.93-1.81-3.28-3.17,3.8-2.07Z"/><path class="cls-1" d="M145.05,152.65c-.19,0-.17-.27,0-.6a1.3,1.3,0,0,1,.37-.37,2.23,2.23,0,0,1,.34,0,5.38,5.38,0,0,0,.92.31,3.8,3.8,0,0,1,.6.18,4.57,4.57,0,0,0,1.28.21,1,1,0,0,1,.3,0,1.91,1.91,0,0,0,1.06,0,.21.21,0,0,0,.17-.09,5.92,5.92,0,0,1,1.17-.36,6.8,6.8,0,0,0,1-.13c.05,0,.09-.05.16,0a.32.32,0,0,0,.34,0,2,2,0,0,1,.44-.12.74.74,0,0,1,.27.06c.09,0,.16.23.15.27s.07.16.12.23l.05.09a3.66,3.66,0,0,1-.72.84l-.63.35-.75.37a.66.66,0,0,1-.25,0s-1.09.41-1.14.41a1.39,1.39,0,0,1-.73,0,.22.22,0,0,0-.14,0,4.3,4.3,0,0,1-1.24,0c-.22,0-.43,0-.64-.08l-.11-.05a.84.84,0,0,0-.14-.06,8.36,8.36,0,0,1-1.45-.52c-.13,0-.52-.46-.63-.53S145.12,152.66,145.05,152.65Z"/><path class="cls-1" d="M167.76,147.9c0-.18.25-.16.6,0a1.09,1.09,0,0,1,.38.35,1.54,1.54,0,0,1,0,.36,8.89,8.89,0,0,1-.66,1.11,2.83,2.83,0,0,1-.62.67,8.9,8.9,0,0,1-1.58,1.1,1.56,1.56,0,0,1-.41.15c-.51.1-1,.25-1.49.37a.72.72,0,0,0-.24.1,2.85,2.85,0,0,1-.86.11,3.47,3.47,0,0,1-.89-.12,6.75,6.75,0,0,1-1.19-.65c-.05,0-.12,0-.15-.12s-.18-.22-.28-.3a3.25,3.25,0,0,1-.39-.35.79.79,0,0,1-.12-.28c0-.09.14-.25.17-.26s.11-.13.16-.21l.06-.08a9.43,9.43,0,0,1,1,.1s.29.1.58.17a3.56,3.56,0,0,0,.66.06.38.38,0,0,1,.19.06,3.55,3.55,0,0,0,.9-.16,1.07,1.07,0,0,1,.54,0,.2.2,0,0,0,.11,0l.91-.36a2.57,2.57,0,0,0,.44-.29l.1,0a.22.22,0,0,0,.11-.05,4.8,4.8,0,0,0,1-.84c.06-.08.51-.31.57-.42S167.75,148,167.76,147.9Z"/><path class="cls-1" d="M160.23,143.8c2.12-2.11,5.62-2.18,8.34-1.66,1,.18,3.42-1.34,1.76-1.66-4.11-.78-9.29-.37-12.45,2.76-1.21,1.21,1.62,1.28,2.35.56Z"/><path class="cls-1" d="M155.29,150.65a6.69,6.69,0,0,0-1-3.85,3.17,3.17,0,0,0-.47-.5c-.18-.14-.38-.26-.56-.42a5.89,5.89,0,0,0-5.11-.66,9.58,9.58,0,0,0-2.38,1c-1,.56-1.82,1.29-2.83,1.78-.3.14-.64-.29-.72-.91a1.88,1.88,0,0,1,.7-1.8,15.47,15.47,0,0,1,3.41-1.75,9.65,9.65,0,0,1,3.95-.62,7.67,7.67,0,0,1,4.74,1.65,7.23,7.23,0,0,1,2.32,4.84,15.58,15.58,0,0,1,0,3.13,29.65,29.65,0,0,1-.9,4.54c-.31,1.15-.56,2.29-1,3.43a8.09,8.09,0,0,1-.31.76c-.46.91-1,1.21-1.55.91a.83.83,0,0,1-.32-.26c-.16-.43-.37-.64-.14-1.19a48.74,48.74,0,0,0,1.64-5.67,17.6,17.6,0,0,0,.49-4.41Z"/><path class="cls-1" d="M97,348.3,101.86,393c0,.16.43.18.5.18h8c.52,0,2.36-.23,2.4-1l2.12-41.59c0-.37-2.86,0-2.9.77L109.82,393l2.39-1c-1.77,0-5.88.83-7.36,0a6.73,6.73,0,0,1-.32-2l-1.62-14.84-3-27.73c0-.5-3,0-2.9.77Z"/><path class="cls-1" d="M421.94,348.1l-4.88,44.72,2-1c-2.23,0-4.49-.13-6.71,0-1.78.1-.36.25-.38.14a5.67,5.67,0,0,1-.07-1.36c.23-4.51-.47-9.27-.7-13.77l-1.34-26.19c-.05-.89-2.95-.32-2.9.77L409.1,393c0,.34.66.41.88.41h8c.51,0,1.94-.27,2-1l4.88-44.71c.12-1.12-2.79-.58-2.9.37Z"/><path class="cls-1" d="M160,168.29l.32.3a1.53,1.53,0,0,1,.31.48,1.28,1.28,0,0,1-.12,1.17,1.68,1.68,0,0,1-.45.5,1.71,1.71,0,0,1-2-.11,3.1,3.1,0,0,1-.55-.61c-.08-.14-.17-.28-.24-.43a.8.8,0,0,1,0-.46c0-.1.36-.13.71-.13s.68,0,.71.11l.14.36c0,.08,0,.14.09.25s.31,0,.4-.07l.07-.05h.06s.06,0,0,0,0,0,0,0,0,0,0-.07a.82.82,0,0,0-.27-.19s-.14,0-.13.22.18.23.31.27.07,0,.09,0,.07.17-.07.51l-.09.24a.5.5,0,0,1-.54.39,1.55,1.55,0,0,1-1-2.18,1.51,1.51,0,0,1,1.12-.86,1.67,1.67,0,0,1,1.15.3Z"/></g></svg>