<?xml version="1.0" encoding="UTF-8"?><svg id="Layer_1" xmlns="http://www.w3.org/2000/svg" width="520" height="520" viewBox="0 0 520 520"><defs><style>.cls-1{fill:#231f20;}</style></defs><path class="cls-1" d="m444.77,310.11c.65-.71,1.33-1.39,2.04-2.02.76-.59,1.46-1.22,2.29-1.7.58-.37,1.1-.83,1.74-1.11,2.16-1.09,4.51-1.82,6.88-1.94l.78-.08.78-.02c.52-.01,1.04-.07,1.55-.06.66.03,1.32.05,1.98.1.65.09,1.29.33,1.91.54.39.15.27.38-.11.64-.39.24-1.05.63-1.74.65-2.48.02-4.8.54-7.17,1.03-.74.09-1.4.44-2.09.73-.68.32-1.29.76-1.95,1.11-1.35.92-2.71,1.89-3.81,3.15l-.53.56c-.17.19-.31.4-.47.61-.3.41-.65.8-.91,1.24-.82,1.32-1.59,2.72-2.01,4.23-.15.59-.33,1.16-.36,1.77-.06.6-.07,1.2-.16,1.78-.05.26-.04.52-.09.78-.2.96-.51,1.25-1.11,1.44-.14.04-.28.1-.41.12-.43.08-.79-.36-1.03-1.18-.15-.6-.31-1.23-.35-1.86.03-.62.08-1.25.15-1.89.07-.63.27-1.25.42-1.88.09-.31.16-.63.27-.93l.39-.9c.2-.44.39-.89.61-1.32l.75-1.25c.47-.85,1.13-1.59,1.7-2.37l.06.04Z"/><path class="cls-1" d="m155.84,430.73c-3.31.11-6.61.08-9.92.11-1.21,0-2.41.05-3.61.04-4.25-.04-8.49-.13-12.73-.25-1.88-.03-3.77-.06-5.64-.09-1.2,0-2.4-.06-3.6-.15-.6-.05-1.2-.07-1.8-.17-.59-.11-1.19-.21-1.79-.32-.74-.14-.64-.11,0-.2.32-.04.77-.13,1.32-.26.27-.06.57-.14.89-.19.31-.04.65-.07.99-.08l1.83-.08c.61-.04,1.22-.06,1.83-.04l3.66.03c2.44.02,4.9.05,7.36.11,2.95.08,6.01-.08,9.02-.16,3.31-.08,6.63-.18,9.94-.31,2.04-.07,4.08-.14,6.11-.25,3.08-.17,6.18-.34,9.23-.65,1.18-.13,2.35-.29,3.52-.45,1.16-.17,2.31-.42,3.48-.52.51-.06,1.02-.13,1.53-.19.96-.1,1.6-.14,2.06-.09.46.08.74.19.98.35.11.07.24.13.31.2.11.11-.02.24-.35.44-.33.19-.85.46-1.55.63-4.11,1.29-8.59,1.65-13.06,2.03-3.32.28-6.67.43-10,.58v-.05Z"/><path class="cls-1" d="m322.8,443.35c-3.08.15-6.15.22-9.23.26-1.12.02-2.24.08-3.36.09-3.96,0-7.91-.05-11.86-.14-1.75-.03-3.51-.06-5.25-.09-1.12-.02-2.24-.04-3.35-.06l-.84-.03-.84-.11c-.55-.08-1.11-.15-1.67-.23-.69-.1-.6-.14,0-.28.38-.09.8-.19,1.22-.3.27-.06.54-.13.82-.19.15-.04.3-.05.45-.1.16,0,.31-.01.47-.02,4.55-.09,9.09-.22,13.67-.09,2.74.07,5.59-.13,8.39-.23,3.08-.11,6.16-.26,9.24-.4,1.9-.09,3.79-.2,5.69-.33,2.87-.2,5.75-.41,8.58-.74,2.19-.31,4.35-.61,6.52-.92.48-.06.94-.14,1.43-.18,1.8-.18,2.4,0,2.83.28.1.07.22.13.28.19.2.2-.49.55-1.78.98-1.91.55-3.9.95-5.93,1.34-2.04.28-4.11.51-6.18.7-3.09.29-6.2.49-9.3.67v-.05Z"/><path class="cls-1" d="m352.78,399.3c-4.81-1.08-16.79,3.1-19.62,2.74-2.82-.35-28.98.68-29.27.68s-6.52-1.36-6.52-1.36c0,0-5.33,1.55-4.77,6.16.56,4.62,9.46,5.26,9.46,5.26,0,0,32.89,2.11,34.21,1.39,1.32-.72,17.71-.06,20.43-2.69,2.72-2.64-.16-11.33-3.92-12.18Zm-49.78,8.6c1.12,1.16-2.31.75-2.31.75-.94-1.41-.82-3.74,0-4.51.26-.25,2-.38,2.22-.1.54.71-1.35,2.36.09,3.86Zm8.08.75c-.94-1.41-.82-3.74,0-4.51.26-.25,1.03-.05,1.24.23.55.71-.29,1.87.99,3.25,1.62,1.75-2.23,1.03-2.23,1.03Z"/><path class="cls-1" d="m347.94,426.6s-14.45,2.48-16.7,2.08c-2.26-.4-31.49,1.27-33.75.22-2.25-1.05-8.61-.22-8.61-.22,0,0-2.14,4.15.47,6.84,2.62,2.69,14.1,6.84,22.4,6.28,8.3-.56,35.46-2.4,35.46-2.4,0,0,6.26-5.54.73-12.8Zm-52.33,6.05c1.08,1.2-2.21.74-2.21.74-.94-1.41-.82-3.74,0-4.51.26-.25,2.2-.29,2.41,0,.55.71-1.43,2.41-.2,3.77Zm2.42,1.35c-.94-1.41-.82-3.75,0-4.52.26-.24,1.18-.02,1.39.26.54.71-.49,2.04.61,3.48.98,1.28-2,.78-2,.78Z"/><path class="cls-1" d="m68.02,277.18c2.31.1,4.44.69,6.45,1.58.72.35,1.48.59,2.15,1.03,2.4,1.45,4.36,3.45,5.94,5.62.68.98,1.4,1.94,1.93,3,.78,1.3,1.27,2.78,1.32,4.31.03.47-.29.48-.79.23-.48-.26-1.21-.72-1.7-1.35-1.54-2.29-2.88-4.5-4.7-6.57-1.08-1.25-2.63-2.06-4.12-2.76-1.65-.78-3.44-1.3-5.25-1.56-1.1-.14-2.25-.16-3.39-.01-1.73.22-3.48.66-5.09,1.41-1.25.6-2.35,1.42-3.45,2.21-.24.18-.46.38-.73.51-.99.53-1.42.54-2.04.12-.14-.1-.3-.18-.42-.28-.4-.34-.3-1.01.25-1.79.79-1.2,1.91-2.05,3.08-2.89,1.2-.78,2.55-1.36,3.95-1.85,2.08-.71,4.34-1.09,6.64-1.06v.09Z"/><path class="cls-1" d="m76.61,278.33c.98.42,1.93.91,2.87,1.42.34.18.72.32,1.05.52,1.14.83,2.2,1.78,3.11,2.88.42.46.77,1.01,1.16,1.5.21.35.42.72.6,1.09.15.39.19.83.19,1.24,0,.27-.44.29-.94.22-.5-.08-1.08-.19-1.24-.44-.2-.22-.41-.42-.58-.64-.22-.2-.45-.38-.64-.59-.09-.11-.23-.19-.34-.29-.11-.11-.21-.22-.31-.34-.18-.25-.45-.46-.65-.72-.53-.63-1.39-.87-2.11-1.29-.8-.47-1.66-.91-2.54-1.31-.54-.24-1.1-.47-1.66-.66-.86-.29-1.73-.57-2.62-.73-.69-.12-1.4-.02-2.07,0-.15,0-.29.03-.44.02-.54-.03-.68-.32-.8-.99-.03-.16-.06-.31-.08-.46-.06-.5.19-.94.68-1.2.36-.14.71-.23,1.08-.32.36-.06.72-.09,1.08-.1.72,0,1.45.02,2.15.17,1.05.22,2.06.57,3.07.93l-.02.08Z"/><path class="cls-1" d="m367.16,392.42c.34-.36.65-.75.88-1.18.09-.16.11-.33.19-.5.27-.57.48-1.21.51-1.87.03-.29-.06-.58-.12-.85-.08-.36-.22-.68-.25-1.09,0-.13.22-.25.51-.29.29-.04.7.01.87.24.66.81.73,1.91.5,2.85-.15.56-.15,1.15-.32,1.71-.19.61-.48,1.18-.8,1.7-.2.32-.43.63-.65.93-.34.45-.74.85-1.09,1.27-.28.32-.45.75-.73,1.08-.06.07-.11.15-.18.21-.14.11-.25.16-.38.12-.15-.05-.3-.16-.48-.32-.08-.07-.17-.14-.24-.21-.12-.12-.2-.26-.27-.42-.06-.16-.11-.37-.07-.49.15-.86.64-1.32,1.06-1.84.34-.36.71-.69,1.01-1.08l.04.03Z"/><path class="cls-1" d="m361.86,411.16c1.1-1.02,1.98-2.32,2.47-3.74.49-1.39.59-3.03.42-4.63-.07-.58-.18-1.16-.35-1.72-.07-.28-.17-.56-.26-.83-.11-.29-.15-.46-.45-1-.48-.95-1.6-2.31-2.45-3.41.29-.09.77-.09,1.17-.12l1.33-.1c.43-.05.91-.07,1.29-.15.35-.09.85-.19.95-.25.75-.24,1.45-.6,1.98-1.14,1.11-1.05,1.49-2.73,1.34-4.5-.06-.9-.28-1.76-.74-2.51-.45-.75-1.13-1.42-1.86-2.11l-.47-.46-.67-.67-.65-.75-.33-.39-.16-.2c-.04-.06-.04-.11-.06-.17l.95-.55.47-.29c.13-.1.24-.2.36-.29.31-.3.51-.51.7-.82.39-.58.51-1.21.62-1.97.03-.7.15-.78.75-.18.26.3.73.86.74,1.65.06.78-.19,1.73-.8,2.5-.1.14-.28.32-.35.4-.02.02-.1.09-.08.08h0s-.03-.03.03.03l1.23,1.07c.93.82,1.95,1.99,2.45,3.4.25.69.41,1.4.48,2.08.07.69.05,1.35-.02,2.07-.15,1.41-.73,2.89-1.73,4-.85.94-1.92,1.66-3.06,2.08l-.43.15c-.11.03-.12.03-.18.05-.11.03-.18.04-.26.05l-.25.03c-.05.02-.25-.03-.12.07.11.15.21.31.3.5l.09.21.05.12.09.23c.12.31.23.61.33.93.56,1.86.79,3.78.63,5.72-.14,1.95-.85,3.89-1.94,5.5-.67,1-1.48,1.89-2.41,2.64-.46.38-.96.72-1.47,1.03l-.39.22-.1.05s-.02.01-.02,0h-.02s-.1.06-.1.06c-.13.06-.26.12-.39.17l-.08.03c0,.18.06.41.07.62l.03.62v.67c-.06.89-.23,1.77-.51,2.62-.27.84-.65,1.65-1.13,2.4-.29.45-.38.56-.53.75l-.23.26-.12.12s-.13.09-.02.11l.03.02c.15.1.31.18.46.29l.22.15c.08.07.09.07.26.21.52.47,1.02.98,1.46,1.53.88,1.11,1.53,2.4,1.92,3.8.17.62.31,1.24.36,1.9,0,1.22-.19,2.04-.52,2.54-.36.49-.76.68-1.22.75-.21.03-.42.09-.59.08-.29-.02-.47-.29-.6-.69-.06-.21-.12-.44-.19-.72-.04-.14-.05-.27-.05-.41-.01-.14-.02-.3-.02-.45,0-.35-.03-.7-.09-1.05-.02-.35-.09-.69-.15-1.04-.15-.69-.37-1.37-.66-2.02-.29-.65-.68-1.26-1.13-1.8-.1-.14-.23-.27-.37-.37l-.34-.29c-.18-.13-.38-.26-.62-.38-.88-.5-1.79-1-2.73-1.49.48-.43.83-.82,1.28-1.26.45-.44.87-.88,1.25-1.32.11-.12.18-.19.32-.36.08-.11.08-.11.12-.17.06-.09.13-.18.19-.28.12-.2.23-.39.33-.6.38-.74.62-1.55.74-2.37.06-.41.09-.83.07-1.24.02-.07-.07-.75-.16-1.24-.08-.52-.18-1.02-.28-1.54.7-.28,1.4-.56,2.08-.86.43-.18.48-.23.62-.3.14-.07.27-.15.4-.23.52-.33,1.01-.71,1.46-1.13l.05.05Z"/><path class="cls-1" d="m364.82,432.26c-.67-.22-2.58-1.01-5.21-.21s-.68,4.76-3.83,5.69,29.43,1.39,35.83-2.41c6.4-3.8-10.94,1.64-16.77-.71s-10.02-2.36-10.02-2.36Z"/><path class="cls-1" d="m353.81,435c.18-.25.34-.54.5-.84.14-.29.26-.59.35-.92.07-.24.04-.49.1-.74.19-.88.24-1.82.23-2.78-.01-.43-.15-.83-.26-1.23-.14-.52-.31-1.02-.44-1.6-.03-.18.12-.27.4-.28.27,0,.74.06,1.04.33,1.1.91,1.56,2.29,1.52,3.61-.08.8.07,1.6-.02,2.42-.1.88-.36,1.8-.73,2.59-.23.5-.5.99-.82,1.45-.48.71-1.13,1.29-1.78,1.8-.5.4-.96.89-1.53,1.2-.12.08-.23.16-.37.21-.52.11-.74-.07-1.01-.57-.06-.12-.13-.23-.18-.35-.16-.39-.1-.81.11-1.15.6-.97,1.24-1.35,1.73-1.9.37-.39.78-.76,1.08-1.3l.06.03Z"/><path class="cls-1" d="m363.32,392.28c.35-.59.69-1.24.91-1.88.08-.23.12-.47.19-.7.33-.82.42-1.68.35-2.63-.02-.43-.15-.84-.28-1.25-.2-.52-.3-1.1-.42-1.69-.03-.19,0-.18.17-.1.15.09.51.21.81.44.54.39.95.88,1.3,1.45.17.28.33.58.44.91.09.33.11.68.12,1.03,0,.83.14,1.69.02,2.51-.13.9-.5,1.7-.85,2.47-.2.46-.49.99-.78,1.43-.44.69-.98,1.28-1.48,1.91-.39.49-.75,1.02-1.32,1.48-.14.1-.24.22-.42.29-.61.29-1.02.11-1.16-.54-.04-.15-.07-.3-.08-.45-.02-.25.02-.49.04-.69.02-.19.03-.35.06-.46.23-.63.64-1.37,1.22-2,.39-.5.82-1.03,1.08-1.54l.06.03Z"/><path class="cls-1" d="m288.19,425.72c-.11.25-2.76,2.08.46,4.02,3.28,1.98,15.34,3.2,25.6,1.51,8.81-1.46,23.15-3.47,24.94-3.11s16.08.07,16.51-1.6c.67-2.58-3.24-3.2-3.24-3.2,0,0-14.56,2.93-18.42,3.43-3.86.5-20.92,2.74-24.88,1.92-3.95-.83-20.97-2.96-20.97-2.96Z"/><path class="cls-1" d="m312.64,414.77c-.28.09-26.54,4.25-24.68-2.45l4.47-2.6s2.61,3.25,4.02,2.74c1.41-.51,10.59,1.09,10.59,1.09l5.6,1.22Z"/><path class="cls-1" d="m332.78,402.63c-21.18,4.14-40,4.52-38.89-.1.11-.46,2.93-1.22,2.88-1.78,0,0,.62.05,4.1.5,3.48.45,11.24,1.28,17.61.8s15.15-.73,15.15-.73l-.85,1.32Z"/><path class="cls-1" d="m306.68,380.42c.01-.06-4.67.48-6.12,2.17-1.74,2.03-1.38,7.15,14.36,7.71,13.73.49,30.29-2.92,30.29-2.92l-6.49-.75s-23.37,2.08-26.97-.04c-3.6-2.12-5.95-2.4-5.06-6.17Z"/><path class="cls-1" d="m413.31,331.79s11.15-3.75,15.21-1.44c2.81,1.6,6.03-8,6.03-8l-21.23,9.43Z"/><path class="cls-1" d="m432.71,304.79s-55.06-12.61-98.67.47l-6.62,2.33c.76,2.05,16.31,7.6,28.2,8.12,11.89.51,22.67.97,31.89,0,9.21-.97,25.3-3.85,31.81-6.06,6.51-2.2,13.39-4.86,13.39-4.86Z"/><path class="cls-1" d="m93.07,277.5s42.09-13.71,85.55-11.84c34.72,1.49,40.38,6.06,40.38,6.06-3.39,6.21-27.16,10.23-40.38,11.82-13.22,1.58-43.37,2.55-52.55,1.28-9.18-1.27-32.99-7.32-32.99-7.32Z"/><path class="cls-1" d="m288.12,433.86c-1.06.04-25.15,2.99-21.02,7.21,4.04,4.14,39.94,1.16,39.94,1.16,0,0-13.16-2.57-15.08-4.02-1.92-1.45-3.84-4.36-3.84-4.36Z"/><path class="cls-1" d="m128.08,416.28s-40.34,4.36-42.19,10.29,82.03,3.33,82.03,3.33c0,0-24.37-3.37-28.77-5.45s-11.07-8.17-11.07-8.17Z"/><path class="cls-1" d="m49.9,297.43c-.19.76-.46,1.5-.59,2.29l-.46,2.33c-.19,1.58-.45,3.16-.49,4.76-.14,1.6-.07,3.21-.07,4.82.12,1.61.17,3.23.41,4.83l.24,1.76.36,1.74c.13.58.23,1.16.37,1.74l.43,1.72c.98,4.06,2.34,8.04,4.14,11.81,1.81,3.76,3.97,7.39,6.69,10.56,2.39,2.83,5.3,5.23,8.47,7,.5.31,1.04.52,1.56.79.53.24,1.03.55,1.58.73l1.64.59c.27.1.54.21.82.3l.85.21c2.24.65,4.53,1.02,6.92,1.44,1.49.32,1.35.51.06,1.1-.35.16-.75.34-1.19.54-.12.06-.24.09-.36.18-.12.03-.25.09-.39.13-.27.1-.55.16-.85.21-.59.11-1.25.21-1.95.28-.35.03-.72.07-1.09.07-.36-.05-.73-.1-1.11-.17l-2.01-.37-1.95-.59c-1.33-.34-2.54-.96-3.81-1.49-1.23-.58-2.4-1.29-3.54-2.03l-1.62-1.22c-.55-.4-1.08-.82-1.56-1.28-4.04-3.56-7.25-7.9-9.65-12.58-1.36-2.84-2.74-5.71-3.83-8.73-.6-1.48-1.05-3.02-1.55-4.55-.24-.76-.41-1.55-.62-2.32-.19-.78-.41-1.54-.54-2.33-1.38-6.86-1.68-13.97-.51-20.92.72-4.26,2.05-8.47,4.14-12.31,1.53-2.94,3.68-5.57,6.16-7.78,1.21-1.16,2.62-2.04,4-2.97,1.5-.84,3.08-1.51,4.72-1.91,2.53-.64,5.12-.85,7.68-.7,2.56.15,5.1.66,7.54,1.6.54.2,1.08.4,1.59.66.51.26,1.06.47,1.55.81,1.9,1.11,2.92,2.24,3.4,3.18.26.46.43.84.47,1.23.03.39-.01.75-.07,1.07-.06.29-.06.61-.14.79-.13.32-.54.21-1.29-.06-.75-.26-1.6-.84-2.74-1.46-3.13-2.13-7.08-3.32-11.03-3.53-1.97-.1-3.96.05-5.81.51-.45.14-.92.24-1.36.41-.42.18-.87.33-1.28.53-.4.23-.79.41-1.2.66l-1.23.87c-2.41,1.74-4.49,3.96-6.15,6.52-1.64,2.58-2.82,5.5-3.65,8.54l-.11-.02Z"/><path class="cls-1" d="m474.45,311.04c.6,1.32,1.12,2.67,1.5,4.06.42,1.46.63,2.96.73,4.37.18,2.84,0,5.58-.4,8.28-.29,1.96-.56,3.93-1.1,5.83-.95,3.35-2.28,6.57-3.89,9.63-1.66,3.04-3.65,5.88-5.96,8.43-2.05,2.26-4.3,4.35-6.77,6.1-3.13,2.26-6.73,4.09-10.61,4.44-1.2.14-1.05-.01-.21-.65.41-.34,1.02-.75,1.67-1.37.68-.56,1.5-1.07,2.37-1.64.79-.46,1.55-.97,2.33-1.42.75-.5,1.51-1,2.22-1.55,1.45-1.08,2.77-2.31,4.04-3.58,1.24-1.31,2.41-2.69,3.49-4.14,1.06-1.47,2.08-2.98,3.01-4.58,2.31-3.78,3.62-8.29,4.52-12.71.5-2.44.84-4.92.9-7.38.05-2.47-.08-4.9-.82-7.1-.91-2.82-2.34-5.54-4.34-7.66-1.52-1.58-3.34-2.85-5.37-3.39-.25-.09-.51-.1-.77-.16-.26-.05-.51-.1-.78-.1l-.79-.05-.86.03c-1.15.03-2.28.19-3.38.41-3.45.72-6.32,2.67-8.82,5.06-.56.53-1.05,1.1-1.6,1.65-2.02,2.07-3.03,2.46-4.25,2.25-.28-.05-.58-.05-.81-.13-.39-.14-.49-.54-.39-1.19.1-.65.42-1.56,1.07-2.54.96-1.47,2.17-2.78,3.51-4.07,1.35-1.27,2.89-2.46,4.63-3.42,1.73-.96,3.65-1.68,5.61-2.12.98-.21,1.96-.38,2.94-.48.49-.07.98-.08,1.47-.11l.73-.04c.27,0,.57.01.85.02,1.7.04,3.41.43,4.94,1.1,1.54.66,2.94,1.55,4.11,2.61,2.38,2.1,4.09,4.62,5.38,7.26l-.1.06Z"/><path class="cls-1" d="m364.96,189.05c-1.73,1.22-3.32,2.72-4.7,4.42-.49.63-.91,1.31-1.35,1.98-1.6,2.33-2.88,4.93-3.65,7.7-.32,1.23-.52,2.5-.54,3.75-.06,1.62.28,3.14.17,4.8-.05.53-.38.58-.97.27-.63-.29-1.52-1.03-1.73-2.1-.29-1.88-.25-3.77.03-5.6.31-1.83.89-3.59,1.68-5.25.94-1.97,1.79-4.07,3.02-5.93,1.35-2.04,2.97-3.9,4.81-5.52,1.15-.98,2.37-1.88,3.68-2.64,1.98-1.16,4.2-1.92,6.43-2.38.87-.2,1.74-.33,2.62-.45l1.33-.12c.45-.01.89,0,1.34.04.4.02.78.08,1.17.16.73.12,1.16.4,1.44.64.28.25.4.52.44.88.02.16.06.33.05.48-.03.5-.69.78-1.66.85-.72.1-1.41.07-2.1.19-.34.07-.68.04-1.02.08l-1.01.09c-1.34.16-2.66.42-3.96.84-1.92.65-3.78,1.61-5.5,2.87l-.05-.06Z"/><path class="cls-1" d="m330.89,143.35c.69-3.31,1.19-6.7,1.28-10.03.02-1.21-.09-2.42-.21-3.62-.2-2.12-.58-4.24-1.23-6.29-.66-2.04-1.56-4.01-2.66-5.86-.96-1.66-2.25-3.12-3.61-4.45-.46-.4-.9-.84-1.38-1.21-.49-.37-.97-.75-1.44-1.14-1.02-.68-1.96-1.49-2.98-2.22-.62-.48-.5-.53.2-.43.44.06.94.14,1.47.22.63.07,1.29.34,1.95.71,2.33,1.34,4.34,3.21,6.06,5.29,1.71,2.09,3.07,4.48,3.96,7.03,1.06,3.04,2,6.27,2.19,9.56.2,3.63-.21,7.16-.79,10.63-.35,2.14-.83,4.26-1.33,6.36-.78,3.18-1.75,6.32-2.73,9.41-.78,2.4-1.49,4.77-2.37,7.1-.19.51-.38,1.02-.6,1.52-.9,1.85-1.37,2.36-1.92,2.59-.13.05-.27.14-.37.15-.35.06-.29-.82.07-2.28.47-2.19,1.2-4.31,1.85-6.5.63-2.19,1.37-4.37,2.03-6.59.98-3.28,1.86-6.61,2.51-9.97h.06Z"/><path class="cls-1" d="m186.81,138.63c2.41-.21,4.76.03,7.03.44l1.28.27c.42.1.84.23,1.25.37,2.84,1.1,5.44,2.72,7.44,4.94.89.97,1.75,1.99,2.35,3.16.79,1.48,1.22,3.19,1.09,4.83-.03.51-.08.43-.22.02-.1-.27-.2-.56-.3-.83-.17-.33-.35-.71-.53-1.1-1.46-2.76-3.65-4.82-6.17-6.64-1.5-1.11-3.38-1.76-5.2-2.2-1.99-.45-4.2-.71-6.3-.65-1.3.04-2.59.23-3.84.56-1.87.53-3.66,1.42-5.07,2.75-.57.49-1,1.12-1.43,1.71-.2.31-.37.65-.55.97-.19.31-.36.64-.5.99-.13.3-.27.59-.43.87-.55,1.09-.87,1.38-1.6,1.39-.16,0-.34.03-.49,0-.51-.06-.7-.71-.5-1.73.54-3.05,2.76-5.91,5.6-7.82,2.16-1.38,4.66-2.07,7.07-2.35v.07Z"/><path class="cls-1" d="m122.37,409.78c6.65,6.54,14.73,11.43,23.52,14.21,8.85,2.62,18.35,2.88,27.6,1.36l1.27-.18c.42-.08.81-.19,1.22-.28l2.44-.59c.82-.18,1.58-.53,2.37-.78.77-.3,1.59-.5,2.33-.88,1.49-.72,3.03-1.35,4.42-2.27.7-.44,1.45-.81,2.11-1.31l2.01-1.47c.61-.4,1.14-.92,1.69-1.4l1.66-1.46,1.53-1.61c.5-.54,1.04-1.05,1.49-1.65.92-1.17,1.91-2.28,2.72-3.54l1.27-1.84,1.15-1.93c3.05-5.18,5.38-10.83,7.19-16.66,3.59-11.7,5.29-24.01,6.2-36.35.4-5.48.6-11,.74-16.52.08-2.76.13-5.53.25-8.31.14-2.82.34-5.51.5-8.26.47-7.03.89-14.1,1.71-21.16.42-3.53,1-7.04,1.68-10.53.34-1.75.73-3.48,1.2-5.2.44-1.72.91-3.44,1.45-5.12.75-2.09,1.14-2.97,1.25-2.88.12.1,0,1.18-.1,3.06-.03.95-.11,2.07-.19,3.37-.06,1.3-.13,2.76-.18,4.35-.17,3.18-.39,6.88-.71,10.88-.71,7.08-1.18,14.2-1.57,21.37l-.66,10.71c-.15,3.53-.23,7.14-.35,10.75-.46,14.45-1.58,29.12-5.09,43.48-2.15,8.55-4.95,17.25-9.58,25.23-2.31,3.97-4.99,7.82-8.32,11.11-3.3,3.31-7.13,6.13-11.31,8.22-1.17.52-2.31,1.14-3.52,1.56l-3.63,1.25-3.73.89c-1.24.3-2.48.39-3.72.6l-3.72.53-3.76.2c-2.5.23-5.02.04-7.54-.05-1.26,0-2.51-.23-3.75-.39-1.25-.19-2.5-.32-3.74-.55l-3.68-.89c-.61-.16-1.23-.28-1.83-.47l-1.79-.62c-1.19-.42-2.39-.81-3.56-1.27l-3.43-1.58c-.56-.28-1.16-.5-1.7-.82l-1.63-.94c-1.08-.64-2.19-1.23-3.24-1.92-5.19-3.36-9.79-7.52-13.95-12-1.01-1.15-2.09-2.24-3.03-3.44l-2.85-3.58c-1.77-2.48-3.6-4.92-5.18-7.51-.61-.97-1.25-1.93-1.84-2.92l-1.72-2.99c-1.19-1.96-2.18-4.08-3.24-6.15-1.88-4.23-3.61-8.51-4.99-12.89-2.86-8.73-4.95-17.66-6.53-26.6-2.48-13.91-3.73-27.77-3.52-41.79-.03-3.09.19-6.1.36-9.22.05-.72.1-1.41.14-2.07.08-.66.15-1.29.22-1.89.16-1.2.3-2.29.43-3.29.29-1.99.5-3.59.9-4.89.38-1.29.73-2.3,1.09-3.12.37-.82.75-1.45,1.12-2.01.34-.51.68-1.19.93-1.47.75-.96,1.03,3.82.26,12.02-1.02,12.2-1.04,24.8.03,37.49.62,6.34,1.34,12.71,2.49,19.04,1.05,6.35,2.51,12.64,4.2,18.85.67,2.29,1.29,4.61,2.07,6.86l1.13,3.4,1.27,3.33.63,1.67.71,1.62c.48,1.08.93,2.18,1.43,3.24l1.58,3.12c.52,1.04,1.18,2.07,1.76,3.11,2.34,4.17,5.03,8.11,7.82,11.96l2.22,2.77,1.11,1.39c.38.46.79.88,1.18,1.32l2.37,2.62c.81.85,1.68,1.64,2.52,2.46l-.06.1Z"/><path class="cls-1" d="m191.83,260.64c4.81.61,9.61,1.4,14.38,2.58,2.38.59,4.77,1.28,7.12,2.22,1.18.48,2.35,1,3.52,1.66.58.33,1.17.68,1.75,1.12.29.18.76.62,1.13.96.43.34.68.78,1.04,1.16.18.39.46.75.55,1.17.12.41.16.86.08,1.29-.1.86-.64,1.58-1.3,2.21-.15.17-.35.3-.56.43l-.61.38-.61.37c-.19.12-.47.22-.56.29-.54.28-1.07.51-1.6.73-2.11.86-4.2,1.48-6.3,2.06-4.96,1.34-9.91,2.41-14.9,3.3-8.79,1.54-17.62,2.71-26.49,3.55-4.44.41-8.88.75-13.35.91-2.23.08-4.49.1-6.71.04-2.22-.04-4.45-.12-6.67-.2-3.95-.18-7.9-.41-11.85-.76-3.94-.37-7.87-.82-11.75-1.44-9.94-1.59-19.94-4.08-28.96-8.69-1.34-.86-1.9-1.25-1.82-1.3.08-.06.81.2,2.13.49.68.1,1.42.39,2.32.6.89.23,1.89.51,2.97.82,1.09.3,2.27.62,3.52.96.62.19,1.27.34,1.93.51.65.19,1.33.39,2.01.59,9.72,2.81,19.79,4.3,29.93,5.06,5.07.38,10.17.58,15.29.66,5.09.15,10.16-.13,15.29-.5,12.25-.96,24.96-2.98,37.22-5.62,3.56-.79,7.11-1.65,10.56-2.72,1.71-.54,3.42-1.13,4.96-1.86.19-.09.38-.18.56-.28l.31-.17c.15-.09.3-.18.43-.3.13-.12.26-.26.28-.44.02-.19-.11-.33-.22-.47-.13-.29-1.71-1.31-3.02-1.9-1.39-.64-2.87-1.17-4.37-1.65-3.02-.97-6.16-1.69-9.32-2.3-8.3-1.56-16.79-2.34-25.28-2.69-12.87-.5-25.86-.06-38.57,1.45-9.88,1.19-19.46,3.11-28.94,5.59-2.09.54-4.11,1.15-6.21,1.73-1.94.55-3.54,1.01-4.89,1.39-1.35.36-2.47.58-3.39.76-1.85.35-2.98.37-3.96.2-.45-.08-1.01-.11-1.3-.23-.49-.2,0-.71,1.31-1.5,1.3-.78,3.42-1.81,6.24-2.88,16.88-5.88,35.61-9.14,54.46-10.36,14.01-.88,28.15-.7,42.2.93v.11Z"/><path class="cls-1" d="m326.68,333.35l-.04,8.78c0,1.06.11,2.12.11,3.17-.03,3.72-.12,7.44.22,11.13.05.82.17,1.64.3,2.44.14.81.26,1.62.45,2.41.24,1.01.42,2.04.6,3.08l.16.77.08.79c.05.53.08,1.06.11,1.6.02.68-.31.69-.9.28-.3-.21-.67-.51-1.08-.91-.2-.2-.41-.42-.61-.66-.1-.12-.18-.25-.3-.37-.06-.14-.14-.28-.2-.42-.4-1.04-.76-2.1-1.08-3.18-.27-1.08-.41-2.19-.59-3.29-.32-2.2-.49-4.42-.48-6.65,0-2.66-.36-5.38-.4-8.07l-.05-8.81c0-1.8-.05-3.6-.12-5.39-.14-2.71-.27-5.44-.7-8.09-.31-2.07-.96-4.03-1.39-6.04-.1-.44-.26-.86-.36-1.3-.32-1.66-.07-2.27.58-2.81.15-.12.3-.27.45-.36.51-.3,1.17.26,1.83,1.42.89,1.75,1.51,3.63,2.02,5.57.4,1.95.74,3.95.93,5.96.34,2.99.42,5.98.53,8.96h-.09Z"/><path class="cls-1" d="m439.54,376.34c-1.95,9.43-4.54,18.8-8.49,27.69-1.39,3.26-2.99,6.46-4.82,9.53-3.31,5.36-7.54,10.26-12.68,14.06l-.95.72-1.02.63-2.04,1.25c-.69.4-1.41.72-2.11,1.08l-1.06.53-1.09.45c-2.88,1.28-5.91,2.15-8.95,2.88-5.42,1.19-10.99,1.75-16.48,1.51-3.52-.13-7.05-.56-10.5-1.36-.86-.23-1.72-.42-2.56-.68l-2.52-.84c-1.64-.65-3.31-1.25-4.77-2.29-.89-.69-1.24-1.03-1.17-1.11.08-.09.61.03,1.58.07.5-.01,1.05.09,1.69.15.67,0,1.36.14,2.13.25.76.14,1.58.26,2.45.4.86.16,1.77.34,2.71.52,6.64,1.44,13.51,1.85,20.25,1.05,3.37-.41,6.7-1.09,9.95-2.07,3.22-1.03,6.38-2.35,9.3-4.03,3.5-1.98,6.66-4.77,9.31-8.03,2.67-3.25,4.93-6.87,6.96-10.59,4.34-8.27,7.37-17.31,9.54-26.53,1.35-5.68,2.4-11.44,3.2-17.24.6-4.39,1.07-8.82,1.45-13.24.34-4.43.59-8.86.67-13.27.14-6.86-.24-13.58-.73-20.32-.13-1.48-.25-2.93-.38-4.43-.48-5.53-.29-7.31.65-8.62.21-.3.4-.68.61-.87.65-.62,1.75,1.57,2.43,5.67,1.7,12.19,1.92,25.19,1.15,38.18-.58,9.65-1.75,19.32-3.6,28.87h-.1Z"/><path class="cls-1" d="m351.2,298.59c-4.49.76-8.94,1.7-13.23,3.01-2.12.68-4.26,1.37-6.13,2.38-.93.49-1.83,1.03-2.54,1.61-.17.15-.36.29-.49.43l-.22.21-.08.1s0,0-.01,0c-.07.06-.15.18-.18.29-.05.14.03.29.12.4l.08.08.13.11c.19.16.43.31.66.47.98.62,2.15,1.16,3.36,1.64,3.87,1.49,8.12,2.32,12.34,3.08,7.49,1.29,15.16,1.87,22.83,2.1,7.67.2,15.4.13,23.03-.48,6.77-.61,13.54-1.74,20.07-3.44,4.2-1.07,8.34-2.39,12.44-3.83,4.13-1.37,8.21-2.87,12.4-4.16,1.36-.28,1.97-.35,1.99-.22.02.14-.54.52-1.45,1.33-.9.83-2.29,1.77-3.98,2.92-1.72,1.09-3.8,2.21-6.17,3.19-8.48,3.2-17.33,5.56-26.34,6.93-4.5.69-9.05,1.11-13.6,1.34-4.56.22-9.06.23-13.62.15-10.85-.26-22.2-.58-33.25-2.85-2.75-.58-5.48-1.31-8.18-2.32-1.35-.52-2.69-1.11-4.03-1.93-.33-.23-.67-.42-1-.69-.16-.13-.44-.34-.62-.52l-.56-.6c-.72-.82-1.13-1.9-.96-2.97.07-.32.16-.63.29-.94.1-.31.25-.6.43-.88.17-.29.35-.55.61-.82.23-.27.38-.41.58-.59.75-.7,1.53-1.21,2.32-1.67,1.57-.92,3.18-1.57,4.78-2.21,3.21-1.23,6.46-2.14,9.74-2.91,7.37-1.71,14.84-2.73,22.31-3.4,11.33-.99,22.78-1.04,34.04-.21,8.75.65,17.34,1.67,25.84,3.85,1.87.48,3.7.97,5.55,1.59,3.43,1.16,5.62,2.17,7.06,3.04,1.44.88,2.16,1.6,2.6,2.42.2.37.5.79.56,1.09.18,1.05-2.54.1-7.31-1.6-7.09-2.52-14.69-4.18-22.49-5.3-7.8-1.12-15.82-1.68-23.87-1.78-11.94-.13-24.01.64-35.78,2.67l-.03-.09Z"/><path class="cls-1" d="m353.05,370c3.43.69,6.84,1.54,10.2,3.09.84.4,1.68.84,2.5,1.42.81.58,1.64,1.26,2.33,2.31.17.28.32.52.46.88.15.37.24.72.3,1.1l.05.56-.05.55c0,.38-.15.72-.29,1.06-.31.65-.85,1.28-1.39,1.66l-.36.28-.34.2-.68.39c-2.59,1.2-5.02,1.79-7.51,2.31-4.37.83-8.72,1.34-13.07,1.82-4.35.47-8.7.83-13.04,1.22-3.9.32-7.83.48-11.73.28-2.5-.14-5.03-.39-7.52-1.08-1.23-.36-2.49-.79-3.62-1.54-1.11-.75-2.15-1.78-2.61-3.1-.16-.4-.2-.7-.21-.9-.01-.2.01-.29.07-.29.13-.02.32.35.82.79.47.46,1.29.86,2.21,1.21.46.18,1.01.29,1.55.46.54.17,1.11.37,1.74.55,2.19.67,4.6.97,7.02,1.13,2.42.15,4.88.14,7.34.03,2.46-.09,4.9-.35,7.43-.59,2.51-.24,5.02-.47,7.53-.71,3-.3,6.06-.7,9.1-1.22,3.04-.52,6.08-1.12,8.99-1.88,1.56-.44,3.17-.93,4.37-1.63.33-.16.53-.37.63-.44.11-.11.2-.25.23-.4.04-.16,0-.32-.05-.47-.04-.15-.23-.42-.4-.64-.83-.95-2.27-1.75-3.72-2.39-1.47-.64-3.05-1.15-4.65-1.58-3.95-1.06-8.07-1.7-12.19-2.07-6.25-.54-12.63-.59-18.78.29-2.39.35-4.72.88-6.94,1.62-2.21.75-4.35,1.68-6.08,2.98-.36.28-.75.61-1.12.95-.37.35-.77.63-1.14.95-1.39,1.17-2,2.06-2.43,2.75-.42.69-.67,1.15-1,1.54-.13.18-.26.44-.37.55-.18.2-.39-.1-.56-.9-.17-.79-.13-2.19.62-3.76.54-1.15,1.29-2.16,2.06-3.08.37-.48.82-.85,1.25-1.25.46-.41.98-.82,1.49-1.18,2.08-1.44,4.34-2.39,6.63-3.09,4.59-1.39,9.32-1.96,14.03-2.2,7-.32,14.01.14,20.95,1.4v.09Z"/><path class="cls-1" d="m333.39,402.73c-5.98.45-11.91.76-17.92.78-2.19,0-4.38.05-6.57-.08-3.86-.23-7.75-.65-11.59-1.73-1.9-.57-3.87-1.33-5.52-2.85-.83-.74-1.48-1.84-1.72-3-.17-.61-.1-1.09-.14-1.63l-.02-.79.11-.78c.07-.94.39-1.82.65-2.71.39-.83.74-1.7,1.26-2.45.45-.8,1.07-1.47,1.63-2.18.63-.63,1.23-1.31,1.93-1.85,1.72-1.5,3.7-2.67,5.79-3.53,1.05-.43,2.14-.77,3.25-1.02.56-.11,1.12-.21,1.7-.21h.86c.28,0,.57-.04.86.06,1.43.41,1.16.41.08,1.04-.53.32-1.26.75-2.07,1.29-.82.49-1.77.94-2.81,1.41-.93.4-1.83.87-2.68,1.39-.85.53-1.67,1.1-2.49,1.67-1.59,1.18-2.99,2.58-3.94,4.18-.96,1.6-1.43,3.39-1.29,5.24.04.68.32,1.3.91,1.9.58.6,1.41,1.12,2.3,1.56,2.19,1.05,4.82,1.56,7.45,1.85,2.65.29,5.35.39,8.03.43,5.91.1,11.85-.21,17.79-.65,3.64-.26,7.29-.65,10.91-1.12,5.49-.73,11.02-1.57,16.29-2.99,2.04-.56,4.04-1.23,5.86-2.11.9-.44,1.78-.93,2.43-1.5.69-.64.75-.89.88-1.89.07-.76-.02-1.55-.17-2.29-.07-.35-.16-.65-.26-.9-.06-.28-.13-.5-.2-.71-.15-.39-.29-.69-.43-.93-.25-.51-.54-.9-.84-1.26-.14-.15-.36-.28-.46-.38-.17-.16.06-.33.87-.55.2-.02.45-.08.73-.05.26.05.59.08.9.22.67.23,1.28.76,1.83,1.43.81.99,1.13,2.18,1.31,3.32.16,1.16.18,2.32-.11,3.57-.08.51-.54,1.6-1.02,2.1-.48.59-.98,1-1.48,1.35-.99.69-1.98,1.21-2.96,1.63-3.94,1.67-7.93,2.54-11.94,3.35-5.96,1.14-11.96,1.86-17.97,2.44l-.02-.07Z"/><path class="cls-1" d="m316.84,411.78c5.12.3,10.24.52,15.35.58,1.87.02,3.73-.08,5.59-.1,3.28-.02,6.56-.11,9.81-.34,3.23-.25,6.51-.57,9.53-1.43,1.31-.38,2.64-.91,3.47-1.65l.29-.27.18-.28.1-.13.07-.19c.04-.13.1-.24.13-.39.17-.56.21-1.21.26-1.85.04-1.67-.32-3.38-.98-4.91-.17-.38-.35-.75-.55-1.1-.19-.37-.38-.73-.61-1.06-.46-.68-1-1.3-1.62-1.92-.79-.74-.66-.95.53-.96.31-.02.65.03,1.08.1.46.02.86.23,1.35.45.91.47,2.03,1.19,2.62,2.36,1.14,2.01,1.7,4.2,1.81,6.47.05,1.14-.02,2.3-.42,3.58-.11.32-.25.66-.39.99-.21.36-.45.72-.7,1.06-.5.55-1.06,1.07-1.59,1.37-2.15,1.34-4.16,1.8-6.16,2.22-2,.39-3.98.6-5.95.74-4.71.29-9.53.68-14.29.72-5.23.03-10.44-.13-15.64-.37-3.2-.15-6.4-.34-9.59-.54-2.42-.15-4.84-.34-7.26-.53-2.39-.23-4.88-.26-7.4-1.01-.97-.29-1.95-.71-2.85-1.36-.91-.62-1.7-1.64-2.04-2.77-.23-.57-.23-1.14-.31-1.71.03-.54.03-1.12.13-1.64.19-1.03.48-2.09,1.05-3.06.48-.86,1.11-1.65,1.92-2.28,1.53-1.15,2.83-1.38,3.68-1.33.87.11,1.34.42,1.67.84.15.2.33.4.39.58.11.32-.17.55-.65.8-.48.24-1.14.63-1.88.98-1.11.6-1.86,1.56-2.3,2.68-.22.54-.35,1.24-.43,1.84.01.28-.07.59,0,.81l.04.35c.05.09.08.18.11.28.18.34.35.64.79.92.43.28.96.56,1.63.75,1.33.41,2.87.58,4.58.69,5.13.37,10.31.73,15.47.96v.09Z"/><path class="cls-1" d="m326.87,430.02c-5.05.39-10.12.62-15.22.6l-2.79.02c-.93,0-1.87-.04-2.8-.1-.82-.04-1.64-.11-2.47-.21-.82-.09-1.65-.16-2.47-.28l-2.47-.4c-.83-.14-1.56-.3-2.37-.44-1.59-.3-3.25-.61-4.92-1.18-1.65-.56-3.3-1.43-4.63-2.7-1.23-1.11-2.12-2.63-2.53-4.23-.42-1.61-.36-3.3.05-4.85.53-2.01,1.73-3.8,3.27-5.12.77-.67,1.65-1.2,2.59-1.55.92-.38,1.9-.64,2.89-.57,1.23.03,1.03.14.23.83-.2.18-.44.38-.68.65-.06.08-.12.13-.17.24-.07.06-.13.13-.2.19-.13.13-.27.26-.42.4-.3.24-.55.61-.85.9-.15.15-.31.28-.43.48-.15.14-.3.29-.47.43-1.12,1.02-1.93,2.31-2.31,3.66-.44,1.33-.47,2.74-.05,3.97.42,1.24,1.31,2.22,2.62,3.06,1.27.81,2.85,1.32,4.6,1.74,1.04.25,2.15.44,3.3.64,1.15.2,2.2.31,3.32.46,1.11.1,2.24.15,3.36.22,1.13.03,2.26.06,3.39.09,4.97.11,9.98-.06,14.99-.41,3.08-.21,6.16-.49,9.23-.85,4.65-.55,9.33-1.16,13.85-2.16,1.75-.4,3.47-.8,4.78-1.6,1.33-.8,2.38-1.93,2.97-3.29.27-.6.42-1.22.54-1.86.23-1.2.16-1.98.24-2.52.1-.56.29-.92.51-1.38.08-.19.1-.44.14-.61.05-.15.13-.22.31-.21.16.01.5.12.78.35.67.45,1.24,1.47,1.38,2.78.2,1.92-.11,3.94-1.07,5.77-.93,1.83-2.5,3.41-4.33,4.4-.91.49-1.88.88-2.77,1.15-.89.27-1.72.5-2.58.7-1.7.38-3.4.7-5.1.99-5.05.86-10.13,1.45-15.23,1.92l-.02-.09Z"/><path class="cls-1" d="m334.4,441.97c-2.5.02-4.97-.05-7.34.15-2.46.2-4.97.43-7.47.6-1.83.12-3.65.31-5.49.37-3.24.09-6.49.06-9.74-.21-3.25-.27-6.51-.76-9.68-1.82-1.4-.47-2.8-1.06-4.09-1.89-1.29-.82-2.49-1.9-3.35-3.25-1.1-1.75-1.52-3.87-1.37-5.85.08-1,.38-1.95.72-2.85.15-.46.41-.88.67-1.28.26-.41.54-.79.82-1.17.77-.91.75-.7.67.31-.02.51-.03,1.24.08,2.09.05.82.03,1.7.04,2.6-.14,1.56,0,3.05.64,4.29.61,1.25,1.76,2.26,3.13,3.09,2.81,1.63,6.38,2.42,9.94,2.97,4.31.63,8.92.43,13.43.2,2.48-.12,4.96-.33,7.45-.56l3.75-.35c1.28-.1,2.58-.14,3.83-.16,3.1-.05,6.18-.04,9.24-.18,2.32-.1,4.63-.24,6.91-.54,2.26-.31,4.56-.74,6.46-1.69,1.48-.69,2.27-2.04,2.52-3.52.1-.74.09-1.5-.06-2.24-.05-.37-.17-.74-.25-1.1-.15-.35-.23-.72-.41-1.06-.27-.61-.64-1.16-1.02-1.72-.7-1.04-1.31-1.61-1.6-2.18-.12-.31-.21-.58-.26-.84-.05-.27-.04-.54-.03-.81.02-.25-.02-.52.01-.72.06-.33.39-.42,1.06-.35.68.05,1.62.41,2.5,1.29,1.33,1.26,2.43,2.88,3.08,4.75.67,1.86.81,4.02.14,6.1-.33,1.04-.87,2.05-1.61,2.92-.39.41-.8.84-1.28,1.16l-.72.47-.69.34c-1.81.9-3.59,1.36-5.34,1.68-5.2.93-10.3.94-15.34,1.03v-.07Z"/><path class="cls-1" d="m321.67,377.87c.15.31,1.18,1.26-1.03,1.8-1.36.33-3.5.21-4.84-.22-1.65-.53-.71-1.25.4-1.71,1-.42,4.83-1.14,5.46.13Z"/><path class="cls-1" d="m337.37,382.23c.13.32,1.02.99-1.19,1.53-1.36.33-3.5.21-4.84-.22-1.65-.53-.79-1.66.31-2.13,1-.42,5.35-.1,5.71.81Z"/><path class="cls-1" d="m337.79,375.2c.39.64-.8.77-2.68,1.26-1.16.3-2.72,1.01-3.87.6-1.41-.51-.69-1.59.25-2.02.85-.39,5.39-1.31,6.29.16Z"/><path class="cls-1" d="m356.66,379.25c.29.69-.99.86-1.72.61-1.33-.46-2.9.12-3.86-.63-1.18-.93-.17-1.81.86-1.84,3.95-.11,4.34.95,4.72,1.87Z"/><path class="cls-1" d="m207.07,158.45c.28-.74.38-1.48.52-2.27.03-.41.09-.82.11-1.23,0-.41.03-.82.02-1.23-.04-1.63-.36-3.21-.96-4.69-1.19-2.96-3.56-5.48-6.56-7.09-2.99-1.63-6.51-2.43-10-2.33-3.48.09-6.99,1.15-9.85,3.03-1.91,1.29-3.41,3.41-3.66,5.54-.16,1.06.03,2.08.45,3.04.41.94,1.1,1.76,1.99,2.45.78.62,1.73,1.1,2.75,1.46,1.02.37,2.1.64,3.22.79,1.11.15,2.25.22,3.38.16.57-.02,1.11-.07,1.7-.16l1.77-.29c4.71-.81,9.31-2.41,13.56-4.68,4.25-2.26,8.13-5.23,11.28-8.81,3.15-3.57,5.57-7.8,6.68-12.39.48-2.03.7-4.13.64-6.23v-.79s-.09-.72-.09-.72c-.03-.48-.17-.96-.29-1.43-.26-.95-.67-1.89-1.12-2.83-1.93-3.73-4.78-7.42-6.43-11.79-1.1-2.77-1.78-5.76-1.91-8.76-.09-.73.01-1.57.02-2.35.11-.77.21-1.56.39-2.31.38-1.5.89-2.96,1.58-4.31,1.35-2.71,3.12-5.19,5.29-7.25,2.19-2.02,4.73-3.77,7.71-4.58.47-.1.88-.18,1.22-.24.35-.03.64-.01.87,0,.45.03.64.1.62.21-.02.11-.25.25-.64.44-.19.1-.43.18-.68.34-.25.15-.54.33-.85.52-1.25.81-2.71,2.28-4.26,4.11-.79.91-1.51,2-2.31,3.1-.77,1.12-1.59,2.29-2.29,3.57-1.27,2.24-2.21,4.68-2.33,7-.06,1.07.06,2.47.24,3.73.18,1.28.46,2.54.86,3.77.78,2.47,1.99,4.83,3.43,7.24,1.42,2.44,3.16,4.9,4.32,8.13.15.39.29.8.38,1.24.1.43.23.85.3,1.29l.17,1.34c.06.46.02.82.03,1.23l-.02,2.4c-.01.8-.19,1.59-.28,2.38-.14,1.6-.64,3.12-1.05,4.66-.19.78-.56,1.48-.84,2.23-.32.73-.55,1.49-.96,2.17-2.88,5.63-7.23,10.3-12.28,13.75-2.97,2.14-6.25,3.86-9.65,5.3-3.39,1.47-6.99,2.49-10.66,3.15-.94.14-1.81.34-2.8.42-.98.11-1.95.13-2.93.1-1.95-.07-3.91-.36-5.81-.98-1.9-.63-3.78-1.6-5.34-3.1-1.6-1.48-2.62-3.63-2.89-5.81-.28-2.45.47-4.83,1.65-6.76.59-.98,1.31-1.86,2.13-2.64.8-.78,1.77-1.48,2.68-1.99,3.67-2.2,7.94-3.28,12.16-3.25,4.23.04,8.46,1.15,12.13,3.38,3.67,2.2,6.67,5.75,8.01,9.93.84,2.56,1.03,5.28.77,7.89-.26,2.68-1.24,5.3-2.64,7.52-1.4,2.24-3.15,4.14-5.02,5.83-1.88,1.69-3.87,3.19-5.92,4.58-6.22,4.18-12.86,7.4-19.37,10.73-6.51,3.32-12.98,6.65-18.83,10.71-2.27,1.58-4.43,3.28-6.37,5.15-1.93,1.84-3.55,3.97-4.92,6.2-2.69,4.5-4.11,9.72-3.53,14.75.08.55.16,1.1.24,1.64.08.54.29,1.06.43,1.6.18.52.25,1.07.5,1.58.22.51.43,1.02.65,1.54.1.24.19.48.28.71.12.22.24.44.36.65.23.42.45.83.66,1.22.37.8.89,1.44,1.3,2.06.44.6.73,1.22,1.12,1.7.38.49.71.94,1.01,1.35.3.42.55.8.78,1.16.23.36.47.64.66.94.38.58.65,1.1.86,1.61.19.47.49,1.03.56,1.37.11.58-.64.39-2.17-.46-.75-.45-1.76-.97-2.77-1.87-1.04-.87-2.3-1.85-3.43-3.28-.43-.52-.88-1.02-1.28-1.56l-1.12-1.72c-.82-1.12-1.32-2.43-1.91-3.7-.32-.63-.46-1.33-.68-2-.19-.68-.44-1.35-.56-2.06-.21-1.41-.52-2.83-.49-4.27-.24-5.8,1.7-11.5,4.75-16.33,1.57-2.4,3.41-4.61,5.49-6.62,2.05-1.92,4.23-3.63,6.47-5.23,4.48-3.17,9.19-5.83,13.89-8.36,6.99-3.74,14.03-7.17,20.63-11,3.29-1.91,6.43-3.98,9.16-6.33,2.68-2.36,4.92-5.05,5.84-8.01l.12.02Z"/><path class="cls-1" d="m341.63,207.38c3.41,1.28,7.03,1.89,10.75,1.9,3.73.02,7.52-.5,11.21-1.4,3.69-.91,7.28-2.25,10.61-3.99,1.64-.9,3.26-1.86,4.73-2.94,1.31-1,2.39-2.22,3.14-3.62.22-.53.52-1.03.62-1.6.07-.28.17-.55.22-.83l.09-.85c.01-.14.04-.28.05-.42l-.02-.42-.04-.85-.17-.83-.08-.42-.15-.39-.29-.79-.42-.73-.2-.37-.27-.33-.52-.67c-.82-.77-1.7-1.53-2.8-1.97l-.71-.33-.77-.21-.77-.22-.81-.1c-1.08-.19-2.21-.17-3.32-.07-2.24.25-4.45,1.02-6.5,2.17-2.05,1.15-3.93,2.68-5.59,4.43-1.63,1.78-3.04,3.78-4.16,5.93-2.23,4.27-3.37,9.24-2.41,13.82.97,4.62,4.08,8.61,7.84,11.83,3.36,2.9,7.21,5.27,11.14,7.67,3.93,2.44,7.86,5.05,11.25,8.39,2.14,2.17,4.16,4.62,5.42,7.54l.46,1.1c.14.37.25.76.37,1.13.27.75.4,1.54.57,2.31.24,1.56.4,3.15.29,4.71-.07,1.56-.29,3.1-.64,4.6-.34,1.5-.78,2.96-1.33,4.36-1.11,2.81-2.4,5.49-3.9,8.03-1,1.55-1.54,2.16-1.68,2.03-.15-.13.07-1.03.4-2.58.67-3.06,2.37-8.62,3.04-14.68.23-2.68.01-5.32-.88-7.7-.41-1.2-1.01-2.34-1.72-3.43-.67-1.11-1.49-2.16-2.38-3.17-3.64-4.04-8.53-7.16-13.59-10.28-5.11-3.2-10.45-6.72-14.47-12.01-1.98-2.63-3.54-5.75-4.19-9.1-.67-3.38-.38-6.79.46-9.94,1.01-3.78,2.77-7.31,5.08-10.46,2.33-3.12,5.17-5.94,8.62-8.01,3.42-2.06,7.56-3.33,11.76-2.98l1.57.16,1.56.38c.26.07.52.12.78.21l.75.31c.49.23,1.02.38,1.48.69,1.94,1.03,3.57,2.67,4.72,4.55,1.26,2.08,1.89,4.53,1.83,6.95-.05,2.43-.85,4.8-2.11,6.8l-.47.76c-.16.25-.37.46-.55.69-.39.44-.74.93-1.17,1.32l-1.31,1.16c-.44.4-.87.65-1.31.99-1.75,1.25-3.59,2.34-5.5,3.25-3.81,1.86-7.82,3.23-11.93,4.12-2.05.46-4.13.79-6.23.98-2.1.21-4.21.29-6.33.18-5.25-.2-10.47-1.58-15.1-4.13-4.63-2.5-8.65-6.42-11.04-11.17-1.85-3.58-2.81-7.55-3.09-11.48-.3-3.94.1-7.86.78-11.65,1.38-7.61,4-14.81,6.36-21.87,1.83-5.5,3.4-10.99,4.06-16.52.7-5.49.26-11.08-1.71-15.94-.89-2.14-2.11-4.08-3.57-5.87-.67-.83-1.34-1.54-1.98-2.16-.32-.3-.61-.62-.91-.89-.3-.27-.59-.52-.87-.76-1.14-.92-2.11-1.6-2.94-2.13-1.64-1.11-2.66-1.8-3.51-2.59-.39-.32-.97-.65-1.22-.91-.42-.42.33-.74,2.25-.86,1.91-.12,5.02.51,8.28,2.66,2.42,1.57,4.46,3.68,6.16,6.02,1.71,2.34,3.03,4.98,3.93,7.8.85,2.81,1.38,5.7,1.47,8.6.11,2.89-.09,5.77-.5,8.59-1.73,11.28-6.5,21.34-9.2,31.48-1,3.77-1.73,7.57-2.02,11.32-.28,3.75,0,7.45.98,10.87.22.87.59,1.67.88,2.51.41.78.72,1.61,1.2,2.35.88,1.53,1.92,2.92,3.17,4.17,2.47,2.5,5.61,4.42,9.02,5.67l-.03.12Z"/><path class="cls-1" d="m142.65,304.74c-2.12-.06-4.24-.23-6.35-.34-2.12-.14-4.23-.35-6.35-.51-1.54-.17-3.09-.25-4.63-.44-5.42-.72-10.8-1.86-16.05-3.43-1.16-.39-2.34-.67-3.49-1.09-1.14-.43-2.31-.79-3.43-1.24-1.43-.62-2.88-1.22-4.18-2.11-.66-.43-1.33-.82-1.96-1.29-.6-.5-1.19-1.01-1.79-1.51-.73-.64-.47-.74.38-.54.87.19,2.26.7,3.89,1.27.71.27,1.37.61,2.11.83l1.09.34,1.04.43c.68.31,1.41.53,2.12.77l2.15.74c1.47.4,2.92.85,4.41,1.24,1.5.34,2.98.76,4.49,1.09,1.81.38,3.67.73,5.58.93l2.85.34c.95.09,1.91.18,2.85.26,2.08.23,4.18.38,6.27.52,2.09.18,4.2.23,6.3.32,2.59.12,5.19.12,7.78.16,1.96-.02,3.94-.04,5.9-.06,1.97-.05,3.93-.14,5.88-.25,3.03-.17,5.99-.58,8.97-.88.66-.06,1.3-.15,1.96-.19,2.46-.15,3.27.03,3.86.74.14.16.31.32.39.48.29.55-.68,1.12-2.47,1.52-1.33.29-2.68.58-4.05.84-1.37.22-2.76.39-4.16.56-1.4.15-2.81.34-4.24.43-1.43.06-2.86.12-4.29.18-4.26.13-8.55.09-12.82,0v-.08Z"/><path class="cls-1" d="m411.86,332.12c-3.19.65-6.39,1.19-9.61,1.62-1.18.16-2.34.38-3.52.47-4.17.36-8.36.48-12.54.27-1.85-.11-3.71-.3-5.54-.58-2.36-.28-4.64-1.17-6.76-2.2-.66-.34-.51-.39.11-.27.62.11,1.72.39,3.05.48,4.65.53,9.26.48,14.01.53,2.84,0,5.78-.45,8.66-.86,3.18-.42,6.35-.92,9.5-1.56,1.94-.39,3.87-.82,5.79-1.3,2.9-.73,5.81-1.53,8.61-2.54,2.18-.77,4.2-1.81,6.25-2.76.45-.21.87-.46,1.33-.66,1.67-.79,2.25-.93,2.92-.55.15.08.33.15.45.26.4.33-.07,1.1-1.26,1.91-3.51,2.45-7.69,4.02-11.9,5.33-3.13.98-6.33,1.77-9.53,2.48l-.02-.06Z"/></svg>