<?xml version="1.0" encoding="UTF-8"?><svg id="Layer_1" xmlns="http://www.w3.org/2000/svg" width="520" height="520" viewBox="0 0 520 520"><defs><style>.cls-1{fill:#231f20;}</style></defs><path class="cls-1" d="m179.65,413.48c-12.99-3.39-7.69-7.58-20.05-11.68-11.58-3.84-22.27-6.52-22.27-6.52l34.02-2.69s-.88,3.66.96,8.47c1.94,5.08,8.59,12.75,7.34,12.42Z"/><path class="cls-1" d="m128.19,393.15c2.08.75,4.2,1.45,6.35,1.99.78.23,1.59.31,2.38.51,2.78.69,5.61,1.28,8.47,1.6,1.27.16,2.56.18,3.83.21,1.63-.06,3.26,0,4.91.28.52.1.47.48.06.96-.41.47-1.2,1.12-2.17,1.36-.86.22-1.72.25-2.59.29-.86.05-1.73.02-2.6.01-1.73-.12-3.46-.34-5.16-.72-2.04-.43-4.19-.61-6.27-1.03-2.29-.47-4.53-1.12-6.75-1.83l-2.04-.68-2.01-.74c-2.03-.74-4.02-1.63-6.01-2.43-.77-.33-1.55-.6-2.33-.87-.77-.31-1.53-.63-2.29-.96-.33-.15-.67-.27-.99-.46-1.18-.68-1.41-1.16-1.32-1.91.02-.17.02-.34.06-.49.07-.25.28-.4.6-.49.32-.08.77-.11,1.25.02,1.43.36,2.84.78,4.25,1.25.69.26,1.37.54,2.06.84.69.28,1.38.56,2.07.84,1.02.43,2.07.81,3.1,1.24,1.05.37,2.09.78,3.15,1.12l-.02.08Z"/><path class="cls-1" d="m116.6,395.35c-5.92-2.34-11.62-5.2-17.06-8.45-2-1.17-3.98-2.36-5.9-3.64-6.73-4.6-13.01-9.82-18.68-15.64-2.53-2.56-4.96-5.25-7.3-7.96l-2.19-2.67c-.7-.91-1.42-1.81-2.07-2.77-.64-.96-1.26-1.93-1.82-2.94-.56-1.01-1.02-2.08-1.53-3.1-.6-1.3-.37-1.21.58-.38.52.46,1.17,1.04,1.92,1.7.39.35.86.71,1.28,1.13.41.43.82.9,1.22,1.4.35.45.75.87,1.1,1.32l1.03,1.37c.69.91,1.43,1.78,2.14,2.67,1.46,1.76,2.95,3.49,4.52,5.17,3.11,3.37,6.4,6.58,9.83,9.71,4.11,3.73,8.88,7.02,13.67,10.05,5.26,3.35,10.78,6.32,16.53,8.77,3.52,1.55,7.14,2.86,10.81,3.99,5.57,1.69,11.31,2.96,17.06,3.49,4.47.38,8.88.27,13.26-.14.97-.09,1.91-.15,2.88-.27.9-.09,1.65-.15,2.28-.18.63-.04,1.14-.11,1.57-.08.86.05,1.38.18,1.83.38.2.09.46.16.58.25.21.15-.04.36-.66.69-.63.31-1.62.8-2.97,1.12-7.97,2.08-16.86,1.9-25.38.36-6.36-1.08-12.57-2.98-18.56-5.29l.02-.07Z"/><path class="cls-1" d="m118.08,392.42c-6.76-2.22-13.31-5.06-19.52-8.49l-3.38-1.9c-1.13-.62-2.21-1.34-3.31-2.02-.97-.6-1.91-1.25-2.83-1.91-.93-.66-1.87-1.3-2.78-1.98-1.79-1.41-3.63-2.75-5.33-4.25-3.51-2.89-6.74-6.09-9.91-9.32-1.34-1.5-2.75-2.94-4.09-4.44-1.3-1.53-2.68-3-3.9-4.58-3.22-3.97-6.47-8.02-8.36-12.87-.71-1.43-.5-1.31.52-.37.53.45,1.16,1.18,2.26,1.82.52.34.92.82,1.4,1.28.47.48.98.96,1.46,1.51,3.04,4.12,6.4,7.96,9.7,11.85,3.4,3.81,6.98,7.47,10.75,10.99,4.54,4.18,9.88,7.81,15.28,11.05,5.95,3.57,12.24,6.57,18.77,8.96,4.02,1.45,8.12,2.74,12.3,3.67,6.31,1.49,12.81,2.37,19.24,2.61,1.25.03,2.5.02,3.74.01,1.24-.06,2.48-.1,3.71-.18,2.46-.21,4.9-.45,7.34-.75,1.08-.13,2.12-.3,3.2-.47,4.02-.48,5.31-.61,6.32-.19.23.09.52.15.66.24.25.16-.02.41-.7.81-.68.41-1.79.87-3.26,1.33-8.76,2.82-18.61,3.06-28.21,2.14-7.14-.79-14.24-2.27-21.08-4.46l.02-.08Z"/><path class="cls-1" d="m426.77,286.22c1.32-1,2.57-2.03,3.71-3.17.42-.41.77-.91,1.2-1.35,1.51-1.54,3.05-3.14,4.7-4.64.73-.67,1.49-1.31,2.25-1.93.5-.39.98-.8,1.53-1.12.56-.31,1.15-.56,1.75-.77.38-.13.42.07.28.47-.15.38-.42,1.05-.87,1.57-.85.88-1.73,1.65-2.54,2.54-.82.86-1.74,1.66-2.64,2.52-1.1,1.01-1.98,2.32-3.02,3.49-1.17,1.3-2.47,2.52-3.81,3.61-.82.69-1.67,1.32-2.48,1.97-1.23.98-2.44,1.96-3.39,3.11-.75.89-1.17,1.94-1.56,2.96-.1.22-.14.46-.24.69-.36.84-.61,1.1-1.07,1.23-.1.03-.21.08-.3.09-.3.05-.5-.4-.61-1.23-.04-1.2.16-2.53.79-3.67.59-1.15,1.35-2.23,2.25-3.08,1.32-1.28,2.73-2.3,4.02-3.36l.04.05Z"/><path class="cls-1" d="m426.11,260.67l.95-1.28c.31-.39.61-.7.91-1.05.26-.21.54-.49.76-.61.19-.06.42-.16.57-.19.35-.08.65-.22.93-.23.16.01.27-.06.59.09.32.08.6.33.79.53.49.66.62,1.17.63,1.94.04,1.27-.8,3.52-1.96,5.67-.3.53-.57,1.06-.88,1.57l-.36.6-.29.47c-.39.63-.82,1.24-1.23,1.85-.75,1.08-1.43,2.2-2.19,3.25-.49.67-.99,1.35-1.54,1.99-.58.62-1.23,1.18-1.93,1.69-.47.3-.44.17-.27-.26.18-.43.33-1.31.65-2.22.76-1.47,1.46-2.99,2.35-4.38.42-.71.85-1.41,1.28-2.12.21-.36.44-.7.67-1.05.22-.32.52-.81.54-.76.22-.2.43-.55.57-.85.14-.32.23-.59.36-1,.07-.22.14-.49.07-.74-.03-.12-.12-.21-.21-.23-.08,0-.14.06-.2.1-.24.19-.48.47-.78.8l-.58.68-.32.39-.52.67c-1.3,1.7-2.65,3.37-3.98,5.05-1.04,1.3-1.96,2.67-3.19,3.9-.27.26-.55.53-.87.77-.6.45-1.13.59-1.53.63-.4.03-.68-.1-.91-.34-.1-.1-.21-.2-.27-.3-.15-.36.18-.81.69-1.46.4-.5.83-.99,1.24-1.55.45-.54.9-1.08,1.35-1.62.91-1.11,1.84-2.28,2.76-3.47l2.06-2.67,1.25-1.66,1.98-2.7v.1Z"/><path class="cls-1" d="m431.27,282.38c1.35-1.4,2.64-2.88,3.76-4.45.56-.78,1.09-1.59,1.54-2.41.22-.41.43-.82.59-1.23l.11-.25c.02-.06.04-.11.05-.18.01-.08.02-.16,0-.23-.02-.18-.24-.12-.35-.07l-.19.09-.09.04-.32.17c-2.21,1.14-4.4,2.56-6.58,3.96l-1.64,1.06-.82.53-.42.27c-.1.06-.14.1-.38.19l-.1.03c-.06.02-.24.03-.35,0-.08-.03-.09-.02-.21-.09-.1-.06-.2-.17-.25-.29-.12-.3-.06-.26-.07-.36,0-.06.02-.16.03-.19l.03-.07s.04-.1.05-.12c.23-.41.42-.62.62-.9l.61-.77,1.1-1.6c.67-.93,1.33-1.87,1.95-2.83.65-.94,1.29-1.87,1.87-2.83.76-1.22,1.41-2.5,2-3.75.29-.63.54-1.26.7-1.87.07-.31.16-.6.21-.89.06-.29.02-.54,0-.82-.02-.36-.11-.57-.03-.64.07-.06.31-.04.75.21.45.25.9.93,1.12,1.78.19.85.08,1.8-.21,2.69-.52,1.59-1.31,2.96-2.15,4.27-.42.66-.85,1.29-1.29,1.92-.44.63-.88,1.25-1.41,1.81-1.03,1.14-2.03,2.28-3.14,3.31-.28.26-.47.58-.7.86l-.32.43-.14.2-.05.08-.02.03h0s.02.02-.02,0c-.06-.03-.13-.06-.16-.08-.15-.09-.34-.15-.49-.19-.1-.05-.22-.02-.2-.02.02-.02.02-.07,0-.1-.01-.04-.03-.14-.05-.2-.03-.07-.06-.13-.1-.2-.05-.11-.1-.22-.15-.32-.05-.07.05-.05.12-.12l.47-.31.93-.64c1.48-1.02,2.97-2.11,4.48-3.21.76-.55,1.52-1.1,2.32-1.62.4-.26.8-.52,1.23-.76.61-.34,1.37-.72,2.02-.86.42-.09.81-.1,1.17,0,.37.07.71.41.87.74.23.54.31,1.13.23,1.81-.07.34-.11.67-.23,1.01l-.16.5-.14.35c-.36.88-.8,1.68-1.27,2.45-.95,1.54-2.02,2.96-3.17,4.32-1.66,1.95-3.47,3.74-5.39,5.4-2.91,2.5-6.19,4.69-9.74,6.19-2.72,1.2-5.48,2.12-7.89,3.43-.52.3-1.04.58-1.54.91-.95.58-1.5,1.03-1.97,1.3-.25.11-.43.22-.62.28-.2.05-.38.07-.56.08-.16.01-.33.06-.44.06-.18,0-.15-.21-.02-.7.11-.51.53-1.11,1.18-1.79.99-.98,2.14-1.87,3.38-2.52,1.24-.66,2.52-1.19,3.77-1.69,2.51-.99,4.93-1.93,7.12-3.27,3.27-2,6.37-4.53,9.08-7.37l.05.04Z"/><path class="cls-1" d="m414.09,268.3c-1.16,2.37-2.28,4.81-3.43,7.24-.42.89-.78,1.81-1.23,2.7-.4.77-.84,1.58-1.31,2.33-.45.74-.93,1.47-1.42,2.2-.99,1.45-2.03,2.89-3.21,4.22-1.05,1.18-2.17,2.32-3.42,3.3-.82.6-1.64,1.23-2.59,1.62-.91.46-1.92.75-2.96.73-.64.01-.57-.08-.16-.5.2-.22.48-.52.78-.93.3-.38.71-.64,1.14-.95.39-.24.76-.51,1.13-.77.39-.24.74-.52,1.1-.79.71-.56,1.39-1.18,2.02-1.85,1.27-1.34,2.42-2.85,3.54-4.44.68-.95,1.26-2,1.85-3.07.58-1.03,1.07-2.12,1.59-3.22l3.37-7.33,1.07-2.27.56-1.13.38-.72c.14-.27.3-.53.45-.79.26-.4.53-.8.83-1.06.15-.14.3-.23.47-.32.15-.06.36-.2.58-.14,1.19.19,1.92,1.21,2.27,2.42.08.31.16.62.2.94.02.15.05.34.06.47l.03.37c.03.49.04.97.03,1.44-.06,2.04-.29,4.02-.9,5.98-.13.43-.26.86-.45,1.29-.81,1.54-1.58,1.74-2.19,1.68-.15-.02-.3-.01-.41-.05-.19-.06-.23-.27-.22-.6.02-.33.04-.8.19-1.3.21-.75.43-1.51.65-2.27.2-.77.37-1.57.49-2.37.13-.8.22-1.61.24-2.4.05-.72-.07-1.87-.04-1.53,0,0,0,0,0-.03,0-.02-.02-.02-.05,0,.07-.15-.23.44-.39.78l-.56,1.17-.06-.02Z"/><path class="cls-1" d="m335.01,296.15c.47-1.2.81-2.46,1.1-3.74.11-.47.1-.95.2-1.42.16-.83.28-1.68.38-2.53.04-.43.11-.85.16-1.28l.09-1.29c.05-.77-.02-1.53-.08-2.29-.07-.97-.2-1.94-.12-2.94.03-.31.35-.33.74-.13.38.2.88.62,1.07,1.19.15.5.27,1.01.4,1.53.12.51.13,1.04.19,1.56.08,1.04.08,2.1-.06,3.15-.08.63-.12,1.27-.16,1.91-.02.65-.06,1.29-.15,1.94-.18,1.41-.5,2.8-.86,4.17-.26.84-.51,1.68-.84,2.49-.45,1.25-1.08,2.43-1.66,3.62-.46.92-.88,1.86-1.49,2.71-.13.19-.23.4-.39.56-.58.64-.91.7-1.45.43-.12-.06-.25-.12-.36-.2-.36-.26-.42-.77-.21-1.3.18-.38.35-.77.5-1.17.15-.4.35-.76.48-1.16.14-.4.37-.74.55-1.12.17-.38.36-.76.54-1.13.5-1.15,1-2.32,1.37-3.56l.07.02Z"/><path class="cls-1" d="m278.98,321.21s-23.91.49-34.95-28.2l-5.75,8.71s8.26,21.12,36.5,22.82c0,0,3.07.44,3.07-1.4s1.13-1.93,1.13-1.93Z"/><path class="cls-1" d="m245.81,332.16c-11.29-2.72-17.69-12.61-18.82-18.64l-4.89,5.84s8.47,14.49,18.07,14.12c0,0,1.13-.39,2.12.08s2.31.06,2.68-.36.85-1.04.85-1.04Z"/><path class="cls-1" d="m212.24,345.9c-3.78.11-6.7-5.29-7.55-7.42l-4.5,4s3.27,4.78,7.41,4.66c0,0,.52-.49,1.27-.26s3.36-.99,3.36-.99Z"/><path class="cls-1" d="m184.5,359.46c5.24-7.34,10.94-14.27,16.76-21.06,2.13-2.48,4.2-4.99,6.38-7.42,7.65-8.57,15.58-16.86,23.33-25.28,3.43-3.74,6.79-7.59,9.99-11.46,2.08-2.47,4.09-4.99,6.03-7.56.98-1.27,1.97-2.54,2.91-3.83.46-.66.95-1.29,1.44-1.92.47-.64.94-1.3,1.36-1.98,1.04-1.7.96-1.49.59.24-.21.85-.51,2.09-.97,3.57-.51,1.45-1.29,3.05-2.28,4.68-1.86,2.81-3.9,5.47-5.96,8.1-2.09,2.61-4.29,5.11-6.48,7.61-4.41,4.98-8.95,9.84-13.55,14.67-5.52,5.77-10.95,12.04-16.3,18.18-5.88,6.75-11.66,13.59-17.01,20.74-3.3,4.39-6.44,8.91-9.27,13.59-2.12,3.56-4.11,7.21-5.7,11.01-1.61,3.78-2.81,7.74-3.21,11.73-.13,1.55-.13,3.09.02,4.61.18,1.51.53,2.98,1.05,4.38.51,1.4,1.21,2.72,2.08,3.92.85,1.21,1.85,2.32,2.98,3.28.97.88,2.06,1.58,3.18,2.3,1.04.67,1.92,1.22,2.69,1.63.75.45,1.39.77,1.89,1.08.5.32.89.61,1.22.85.32.27.55.54.77.79.19.23.47.47.58.62.18.27-.26.31-1.28.3-.52,0-1.16-.06-1.9-.25-.75-.17-1.61-.4-2.55-.79-2.82-1.03-5.54-2.65-7.85-4.88-1.16-1.11-2.2-2.38-3.1-3.75-.87-1.4-1.6-2.89-2.15-4.47-1.06-3.15-1.35-6.54-1.06-9.77.28-3.25,1.08-6.36,2.09-9.35,1.52-4.44,3.58-8.61,5.84-12.61,2.28-3.99,4.77-7.83,7.39-11.55l.08.04Z"/><path class="cls-1" d="m226.14,69.36c2.88.8,5.74,1.66,8.57,2.6,1.04.32,2.09.59,3.12.95,3.61,1.28,7.13,2.81,10.63,4.35,1.55.68,3.14,1.3,4.69,1.94.98.45,1.98.86,2.96,1.33.95.53,1.84,1.16,2.73,1.8.54.42.31.69-.4.88-.71.17-1.96.41-3.18.17-4.19-1.22-8.07-3.07-12.06-4.88-2.37-1.12-5.02-1.8-7.55-2.64-2.79-.92-5.6-1.8-8.44-2.57-1.75-.48-3.5-.94-5.27-1.34-2.68-.61-5.38-1.19-8.08-1.56-1.05-.13-2.1-.2-3.15-.26-1.05-.03-2.09-.1-3.13-.19-.46-.04-.91-.05-1.37-.1-.43-.06-.78-.14-1.07-.22-.29-.09-.52-.23-.71-.35-.38-.25-.59-.51-.74-.85-.07-.15-.17-.3-.21-.44-.13-.44.61-.83,1.94-1.19.97-.16,1.95-.23,2.94-.26.99-.04,1.99-.07,2.98.04,1.99.17,4,.44,5.99.79,2.97.51,5.92,1.19,8.85,1.92l-.02.09Z"/><path class="cls-1" d="m224.92,67.92c8.3,1.77,16.41,4.38,24.21,7.66l2.14.88,2.12.95c1.41.62,2.82,1.25,4.18,1.98,2.44,1.21,4.79,2.58,7.15,3.94,2.31,1.44,4.63,2.86,6.84,4.45,4.46,3.11,8.72,6.5,12.66,10.23,3.48,3.32,6.89,6.77,9.95,10.44,1,1.16,1.92,2.4,2.89,3.59.95,1.21,1.77,2.52,2.65,3.78.44.63.84,1.28,1.23,1.95.38.67.82,1.3,1.14,2.01.74,1.35,1.29,2.8,1.93,4.19.75,1.76.48,1.6-.64.39-.59-.64-1.38-1.49-2.29-2.48-.48-.5-1.05-1.02-1.56-1.62-.5-.61-1-1.27-1.48-1.97-3.65-4.87-7.46-9.6-11.78-13.9-4.28-4.33-8.94-8.29-13.82-12.04-5.84-4.51-12.63-8.19-19.48-11.35-7.54-3.47-15.39-6.34-23.47-8.33-4.96-1.28-10.02-2.19-15.1-2.9-7.7-1-15.54-1.41-23.25-.98-5.99.35-11.83,1.2-17.6,2.45-1.28.23-2.5.61-3.79.85-1.2.23-2.19.41-3.02.57-.83.16-1.5.28-2.08.31-1.15.04-1.86-.09-2.47-.33-.28-.11-.63-.19-.81-.31-.3-.2,0-.53.8-1.02.8-.48,2.08-1.17,3.83-1.73,2.59-.78,5.23-1.63,7.96-2.12,1.36-.27,2.73-.59,4.12-.8,1.39-.21,2.78-.42,4.18-.63,5.62-.71,11.37-1.03,17.13-1,8.56.13,17.13,1.1,25.53,2.82v.09Z"/><path class="cls-1" d="m195.59,428.65s3.7,7.96,9.55,8.96-16.15,13.17-23.61,14.82c-7.46,1.66-22.98,3.61-25.56-3.41-2.58-7.03,18.53-3.26,23.93-8.39,5.4-5.13-.24-6.5,6.24-10,7.2-3.89,9.45-1.98,9.45-1.98Z"/><path class="cls-1" d="m187.15,450.46s1.99,2.34,12.63.89,17-5.98,19.82-8.66c0,0-10.31.4-13.48-5.09,0,0-10.62,12.29-18.97,12.86Z"/><path class="cls-1" d="m171.06,455.92c-2.81.07-5.65-.09-8.44-.76-1.39-.33-2.78-.76-4.11-1.43-.33-.16-.66-.37-.99-.55-.33-.21-.64-.44-.97-.67-.63-.5-1.29-1.11-1.7-2.1-.3-.72-.31-1.74.11-2.52.42-.77.99-1.22,1.5-1.57,1.04-.65,2.04-1.05,3.05-1.32,3.5-.93,6.88-1.4,10.21-2.15,1.67-.36,3.31-.77,4.92-1.26.81-.25,1.6-.51,2.38-.81.39-.15.78-.3,1.16-.47.19-.08.38-.16.57-.25l.5-.24.06-.03c.17-.1.24-.22.35-.45.12-.27.22-.63.32-.98.2-.72.39-1.5.65-2.28.5-1.55,1.28-3.12,2.44-4.38,1.47-1.65,3.48-2.73,5.5-3.29,2.03-.61,4.12-.72,6.13-.48,1.26.39,1.07.48.05,1.12-.51.33-1.21.66-2.02,1.04-.4.2-.84.38-1.29.56-.46.16-.93.31-1.41.45-2.31.66-4.21,1.79-5.44,3.49-.62.86-1.07,1.88-1.44,3.06l-.59,1.93c-.06.19-.12.37-.21.57-.09.22-.15.37-.33.71-.17.28-.34.55-.57.77-.1.12-.23.22-.37.3-.13.09-.25.2-.4.27l-1.1.49-.99.41c-.67.26-1.33.49-2.01.71-1.35.43-2.7.78-4.06,1.09-2.39.51-4.83,1.03-7.28,1.56-2.4.52-4.89,1.07-6.9,1.86-.52.22-1,.52-1.15.73-.13.17-.17.35.01.75.18.37.57.81,1.06,1.14.24.18.49.33.77.48.26.16.55.29.84.41,2.33,1.02,4.97,1.47,7.6,1.62,3.25.18,6.55-.12,9.77-.78,4.87-1.03,9.63-2.83,13.95-5.29,3.37-1.9,6.38-4.23,9.25-6.73.64-.54,1.24-1.11,1.85-1.69,2.32-2.1,3.17-2.65,4.2-2.58.22,0,.47-.03.63,0,.5.07.02,1.44-1.55,3.23-4.89,5.08-11.11,9.53-18.08,12.5-5.17,2.21-10.75,3.63-16.44,3.86v-.06Z"/><path class="cls-1" d="m208.41,450.35c-1.82.56-3.66,1.06-5.51,1.49-.67.15-1.33.37-2.01.5-2.4.43-4.83.71-7.24.92-1.07.1-2.17.22-3.27.21-1.39,0-2.96-.08-4.17-.99-.37-.28-.17-.49.29-.67.47-.18,1.17-.45,1.83-.35,1.21.14,2.47.02,3.78-.12,1.34-.13,2.69-.26,4.05-.4,1.64-.14,3.29-.63,4.92-1.03,1.8-.41,3.59-.89,5.36-1.44,1.09-.33,2.17-.7,3.24-1.11,1.62-.61,3.23-1.27,4.75-2.06,1.18-.62,2.26-1.39,3.33-2.15.24-.17.46-.35.71-.5.92-.57,1.34-.53,1.86-.13.12.09.25.17.35.26.16.16.2.38.13.65-.07.27-.24.6-.55.88-1.81,1.7-4.11,2.92-6.45,4-1.75.79-3.56,1.48-5.38,2.09l-.02-.06Z"/><path class="cls-1" d="m202.9,435.57c-2.24-1.27-4.16-3.4-4.96-5.86-.32-.88-.57-1.77-.67-2.68-.3-3.21.45-6.2,1.44-8.99.46-1.23.89-2.48,1.46-3.65.36-.75.72-1.51,1.16-2.21.47-.69.98-1.36,1.54-1.98.35-.39.47-.22.47.29,0,.5-.05,1.39-.31,2.28-1.08,3.07-2.35,5.96-3.12,9.06-.45,1.84-.38,3.85.05,5.62.45,1.96,1.49,3.72,3.11,4.94.99.76,2.16,1.33,3.41,1.72,1.74.57,3.89.4,5.88.15,1.57-.23,3.08-.7,4.57-1.17.33-.11.64-.24.97-.31,1.24-.31,1.65-.29,2.13.14.11.1.24.18.32.29.29.33-.09.91-.98,1.45-1.31.81-2.77,1.31-4.27,1.77-1.5.41-3.06.81-4.71.87-1.23.06-2.47.07-3.89-.23l-.53-.13-.45-.15c-.3-.11-.6-.19-.9-.32-.6-.24-1.19-.5-1.76-.82l.03-.06Z"/><path class="cls-1" d="m234.14,436.77c-14.54,6.87-18.92-1.55-18.92-1.55l-7.15,2.77s2.9,3.15,6.18,4.07c5.7,1.6,19.89-5.28,19.89-5.28Z"/><path class="cls-1" d="m276.24,418.95c-2.32,1.45-4.67,2.85-7,4.28-2.38,1.35-4.74,2.73-7.13,4.05l-5.24,2.88c-6.27,3.19-12.69,6.07-19.27,8.57-2.96,1.01-5.87,2.19-8.86,3.04-.96.28-1.9.61-2.87.85l-2.93.67c-1.94.49-3.96.7-5.96.77-1.25.04-1.1-.27-.11-.82.49-.27,1.18-.65,2.03-.94.84-.3,1.83-.56,2.91-.89,7.66-2,15.15-4.78,22.61-7.91,4.46-1.89,8.93-4.23,13.28-6.6l3.6-1.95,3.55-2.04c1.18-.69,2.37-1.35,3.54-2.06l3.49-2.15c2.88-1.73,5.66-3.63,8.47-5.46,2.08-1.46,4.17-2.92,6.26-4.38,2.04-1.53,4.08-3.04,6.06-4.6,1.52-1.24,3-2.51,4.46-3.77,1.46-1.28,2.83-2.63,4.28-3.92.64-.56,1.25-1.13,1.88-1.72,2.36-2.13,3.28-2.63,4.16-2.71.2-.01.44-.07.59-.04.51.08-.19,1.24-1.74,3.05-2.28,2.7-4.96,5.12-7.72,7.53-1.41,1.16-2.83,2.34-4.25,3.51-1.44,1.15-2.94,2.25-4.41,3.38-4.41,3.32-9.01,6.4-13.63,9.42l-.04-.05Z"/><path class="cls-1" d="m175.55,455.94c-2.2.28-4.43.39-6.66.32-.81,0-1.63-.04-2.44-.1-2.86-.36-5.57-.97-8.31-1.63-1.2-.32-2.42-.61-3.61-.94-.77-.21-1.54-.43-2.3-.7-.74-.32-1.46-.72-2.12-1.21-.41-.31-.27-.39.2-.38.45.03,1.27-.02,2.15.1,2.99.83,6.14,1.32,9.24,2.14,1.87.44,3.86.65,5.77.73,2.11.11,4.25.03,6.38-.21,1.31-.14,2.63-.33,3.93-.56,1.98-.36,3.98-.77,5.93-1.25,1.52-.39,3-.85,4.52-1.21.33-.08.66-.17,1-.24,1.26-.26,1.71-.1,2.05.28.08.09.18.18.23.27.17.31-.29.7-1.16,1.04-1.31.45-2.65.88-4.02,1.31-1.38.4-2.8.73-4.23,1.07-2.13.49-4.31.92-6.52,1.24v-.05Z"/><path class="cls-1" d="m391.39,324.82c8.09-13.28-3.29-27.66-9.18-31.81l-5.34,3.09s18.29,12.16,6.67,33.97l7.86-5.25Z"/><path class="cls-1" d="m360.06,339.66c11.49-14.89,6.2-32.53,0-36.03l-6.47,2.31s12.69,8.9,2.9,33.72h3.57Z"/><path class="cls-1" d="m298.39,328.77c13.42,4.32,31.47-10.79,31.47-25.15l-5.39-1.9s-9.37,26.21-32.8,22.82l6.73,4.23Z"/><path class="cls-1" d="m375.11,201.46c5.1-10.08,4.1-13.86,2.66-18.93-1.44-5.07-4.45-25.89-31.27-24.87,0,0-8.13,1.7-12.66,6.23,0,0-9.25-26.78-32.31-22-23.06,4.78-31.24,23.7-34.07,28.78-2.82,5.08-13.29,28.46-20.27,33.38-6.98,4.92-24.48,11.51-26.32,19.43-1.84,7.92,1.32,16.26,7.2,26.2,5.88,9.94,6.53,1.48,5.88,9.94-.65,8.46-8.2,17.41-6.97,21.13,1.23,3.72,1.88,10.33,11.3,8.13,9.42-2.2,17.6-12.16,25.01-14.98,7.4-2.82,18.83-5.49,27.19-.49,8.36,4.99,12.86,5.05,12.86,5.05,0,0,3.28-4.82,6.48-4.26,3.2.57,17.38,10.71,22.62,12.69,5.23,1.99,18.43,2.5,24.63-5.71,6.2-8.21,9.63-13.56,10.36-22.41.74-8.85-4.98-18.28-3.85-26.16,1.12-7.89,6.43-21.07,11.53-31.15Zm-25,15.39c-2.05,8.2-11.5,26.67-23.99,32.91-12.49,6.24-23.78.08-28.55-7.11-4.77-7.19-2.3-22.65-2.3-22.65,0,0-5.26-1.68-7.55-3.28-2.29-1.6-4.26-5.22-3.36-9.17.89-3.95,4.57-6.53,7.62-7.21,3.06-.68,5.75,3.22,6.95,6.64,1.2,3.43-1.26,5.99-1.26,5.99,1.55,3.14,4.25.64,7.66-2.93,3.41-3.56,7.31-14.16,15.13-20.99,7.83-6.83,16.45-5.48,22.29-3.84,5.83,1.64,7.02,7.27,9.03,12.61,2.01,5.33.38,10.83-1.67,19.03Z"/><path class="cls-1" d="m267.87,172.77c-1.57,2.64-3.23,5.27-5.11,7.77-.7.91-1.34,1.85-2.12,2.7-2.67,3.04-6.08,5.59-9.95,6.97-1.73.56-3.5,1.01-5.29,1.14-2.29.16-4.64-.05-6.73-.99-.66-.25-.53-.36.1-.5.62-.13,1.76-.43,2.97-.56,1.08.05,2.13-.1,3.17-.18l1.55-.19c.51-.08,1.01-.22,1.52-.32,2.01-.5,3.92-1.35,5.75-2.48,2.19-1.35,4.02-3.42,5.71-5.51,1.86-2.31,3.51-4.85,5.06-7.46.96-1.6,1.88-3.24,2.78-4.89,1.37-2.5,2.75-5.03,4.18-7.51,1.13-1.91,2.14-3.9,3.62-5.66.3-.4.66-.76,1.02-1.13,1.43-1.3,2.19-1.38,2.81-1.12.15.06.31.11.41.19.36.3-.08.95-.82,1.91-2.24,2.8-4.12,6.25-6.09,9.8-1.46,2.63-2.93,5.34-4.47,8.04l-.06-.03Z"/><path class="cls-1" d="m348.89,154.91c1.53-.32,3.07-.57,4.62-.69.57-.04,1.12-.16,1.69-.14,2-.04,4.01.14,5.95.61.87.17,1.71.44,2.56.65l1.56.64c.5.25.98.55,1.45.84.29.19.2.27-.14.29-.33.02-.91.03-1.51-.12-1.08-.21-2.14-.4-3.18-.64-1.05-.2-2.11-.35-3.19-.53-.64-.13-1.32-.1-1.98-.12-.67.03-1.34.08-2.01.12-1.47.14-2.94.31-4.39.65-.9.18-1.78.43-2.67.67-1.33.42-2.66.87-3.91,1.46-.98.46-1.86,1.05-2.79,1.56-.21.11-.39.24-.6.36-.76.43-1.08.44-1.43.22-.08-.05-.17-.09-.24-.15-.22-.19-.03-.58.47-1.04.75-.66,1.57-1.28,2.45-1.83.91-.49,1.85-.97,2.83-1.36,1.44-.62,2.95-1.07,4.46-1.49v.04Z"/><path class="cls-1" d="m282.62,207.75c.18-1.47.72-2.89,1.48-4.17.78-1.29,1.9-2.35,3.14-3.17.48-.25.94-.55,1.42-.77.5-.19,1-.39,1.51-.53l1.37-.22c.45-.08.99-.03,1.48-.03.99.12,1.96.37,2.81.85,1.7.94,2.98,2.45,3.63,4.16.61,1.5.83,3.14.62,4.68-.16,2-1.14,3.87-2.58,5.12-.43.41-.48.26-.46-.3.01-.35.02-.74.04-1.1.02-.21-.02-.47,0-.7.02-.23.05-.47.1-.69.16-.83.2-1.62.28-2.36.01-.38-.02-.75-.02-1.11-.08-.36-.08-.72-.2-1.06-.27-1.39-.93-2.71-2.03-3.63-.64-.55-1.48-.93-2.35-.98l-.65.02c-.22.01-.48.09-.71.13-.24.05-.49.07-.72.14l-.68.23c-.12.04-.25.08-.38.12l-.35.18c-.23.13-.48.22-.69.37-.42.32-.86.6-1.21,1.01-.4.35-.67.83-.98,1.26-.24.48-.52.96-.66,1.49-.43,1.29-.55,2.71-.34,4.09.35,2.08,1.36,4.14,3.03,5.51.64.54,1.34.94,2.08,1.21.75.26,1.53.39,2.36.49.37.04.73.08,1.11.14,1.43.21,1.87.63,2.09,1.27.05.15.12.3.14.44.06.46-.58.78-1.68.94-.81.03-1.66.13-2.56,0-.89-.11-1.86-.33-2.8-.74-1.9-.82-3.38-2.19-4.56-3.82-1.75-2.43-2.49-5.51-2.15-8.48h.07Z"/><path class="cls-1" d="m338.84,236.73c2.66-4.02,4.9-8.35,6.81-12.83,1.91-4.47,3.5-9.11,4.59-13.81.38-1.71.7-3.45.75-5.08.05-1.67-.09-3.38-.37-5.06-.26-1.48-.64-2.93-1.13-4.35-.53-1.4-1.16-2.74-1.94-4-.81-1.22-1.72-2.38-2.81-3.34-1.1-.92-2.29-1.78-3.64-2.31-2.66-1.15-5.71-1.4-8.68-.99-1.49.21-2.97.56-4.39,1.09-1.44.5-2.82,1.16-4.14,1.92-2.34,1.37-4.48,3.1-6.28,5.17-1.82,2.05-3.38,4.36-4.85,6.71-1.9,3.02-3.54,6.23-5.56,9.3-1.02,1.53-2.09,3.07-3.59,4.39-.74.66-1.69,1.24-2.84,1.4-1.15.16-2.3-.27-3.07-.91-.48-.41-.74-.75-.89-.99-.15-.23-.19-.36-.13-.39.06-.03.22.02.47.14.13.06.27.13.44.21.18.07.38.14.6.22.45.13.98.25,1.5.17.52-.06.99-.33,1.45-.77.93-.84,1.92-2.28,2.99-3.95,1.88-2.97,3.6-6.25,5.55-9.43,1.95-3.19,4.06-6.38,6.81-9.2,2.76-2.83,6.12-5.04,9.79-6.51,1.84-.72,3.78-1.23,5.76-1.51,1.98-.28,4.02-.3,6.03.06,2.39.4,4.77,1.28,6.83,2.68,2.07,1.38,3.79,3.23,5.11,5.29,2.63,4.14,3.87,8.94,3.98,13.72,0,1.31-.07,2.69-.3,3.96-.2,1.29-.47,2.53-.77,3.78-.6,2.48-1.34,4.9-2.17,7.29-1.66,4.78-3.69,9.42-6.08,13.88-2.98,5.46-6.54,10.69-11.16,15-3.46,3.26-7.78,5.87-12.61,6.73-2.41.39-4.88.31-7.25-.15-1.17-.3-2.35-.56-3.46-1.04-1.14-.38-2.19-.94-3.26-1.46-3.29-1.69-6.21-4.11-8.45-7.06-2.27-2.94-3.74-6.42-4.6-9.98-.19-.79-.39-1.57-.51-2.36-.13-.79-.29-1.58-.35-2.39-.48-6,.25-7.88.89-9.09.16-.28.31-.65.44-.8.23-.26.4.21.56,1.27.15,1.06.37,2.71.51,4.79.28,3.08.71,6.17,1.58,9.12.87,2.94,2.21,5.73,4.08,8.11,1.86,2.39,4.25,4.35,6.99,5.82,2.77,1.48,5.71,2.49,8.71,2.6,4.47.29,8.84-1.56,12.54-4.39,3.7-2.88,6.82-6.65,9.46-10.71l.07.03Z"/><path class="cls-1" d="m235.25,264.26c-.68,1.82-1.57,3.4-2.44,4.89-.89,1.49-1.69,2.94-2.39,4.37-.68,1.43-1.2,2.85-1.4,4.25-.19,1.4-.1,2.77.36,4.11.13.33.22.67.39.99.15.33.3.68.47.91l.24.39c.09.12.2.23.3.35.1.11.19.24.3.34l.35.29c.95.78,2.23,1.29,3.64,1.49,2.84.4,6.03-.21,8.73-1.5,1.33-.66,2.76-1.57,4.09-2.49,1.35-.93,2.66-1.95,3.98-3,2.64-2.09,5.31-4.35,8.35-6.25,3-1.92,6.45-3.44,9.96-4.22,3.52-.84,7.2-1.07,10.81-.66,2.64.29,5.24.97,7.7,1.97.62.24,1.23.51,1.82.81.61.27,1.18.61,1.76.93,1.15.65,2.27,1.42,3.26,2.1,1.01.68,1.99,1.34,2.96,1.82.97.49,1.92.81,2.73.81.4,0,.78-.04,1.14-.19.36-.11.64-.31,1.07-.65.42-.33.88-.77,1.5-1.23.31-.23.65-.46,1.06-.66.43-.22.8-.32,1.19-.45,1.37-.41,2.82-.41,4.1-.17,1.29.23,2.46.66,3.55,1.15,2.17.99,4.08,2.21,5.94,3.42,3.7,2.42,7.22,4.93,11.01,6.55,1.91.81,3.79,1.35,5.82,1.5,2.06.2,4.12.18,6.13-.13,2.01-.32,3.97-.91,5.83-1.76,1.85-.86,3.59-1.99,5.21-3.3,6.44-5.23,10.26-13.5,11.23-21.81.2-2.08.25-4.23-.02-6.24-.27-2.01-.89-4.07-1.51-6.19-1.23-4.22-2.27-8.73-2.15-13.29.05-1,.05-2.01.15-3.01l.38-2.99c.42-1.96.8-3.93,1.45-5.82.52-1.93,1.34-3.74,2.04-5.6.8-1.81,1.66-3.59,2.55-5.36l2.86-5.14c.46-.82.92-1.64,1.29-2.5.19-.43.41-.85.58-1.28l.51-1.31c1.33-3.51,2.11-7.23,2.3-10.96.29-4.78-.37-9.64-2.12-14.08-.84-2.23-2.02-4.32-3.41-6.24-1.36-1.95-3.06-3.64-4.89-5.14-3.69-2.98-8.24-4.87-12.95-5.34-2.36-.28-4.74-.05-7.09.33-1.14.33-2.35.46-3.46.91l-1.71.58-1.65.74c-.35.15-.67.29-.96.42-.29.14-.55.3-.79.42-.48.26-.88.46-1.2.61-.64.3-.95.39-.96.29-.02-.1.26-.4.8-.88.56-.45,1.31-1.21,2.45-1.9.56-.36,1.17-.79,1.88-1.18.73-.36,1.51-.75,2.35-1.17.87-.36,1.82-.7,2.84-1.03,1.04-.22,2.14-.53,3.32-.68,2.35-.34,4.98-.3,7.72.13,2.73.53,5.55,1.52,8.21,3.05,4.71,2.73,8.59,6.83,11.15,11.62,1.32,2.38,2.24,4.95,2.91,7.56.69,2.61,1.02,5.3,1.1,7.98.07,1.34-.01,2.68-.07,4.02-.15,1.33-.27,2.67-.54,3.98-.47,2.64-1.19,5.23-2.2,7.72-.24.63-.49,1.25-.79,1.85-.29.61-.55,1.23-.87,1.82l-1.9,3.41-1.82,3.23-1.6,3.32c-2.03,4.46-3.61,9.11-4.21,13.86-.35,2.37-.32,4.76-.15,7.14.22,2.38.73,4.74,1.36,7.13.63,2.4,1.47,4.81,1.98,7.54.1.7.19,1.41.27,2.11.03.68.07,1.36.07,2.04-.02.68-.01,1.35-.05,2.03-.06.67-.09,1.35-.17,2.01-.62,5.34-2.33,10.51-5.04,15.15-1.64,2.76-3.64,5.36-6.07,7.58-2.4,2.17-5.17,4.06-8.25,5.34-3.08,1.27-6.43,1.93-9.75,1.93-1.68,0-3.26-.08-4.99-.4-1.69-.32-3.3-.86-4.82-1.5-6.1-2.6-11.01-6.9-16.29-9.57-1.31-.64-2.64-1.14-3.89-1.27-.62-.05-1.22-.05-1.77.09-.61.17-.95.28-1.47.7-.52.39-1.09.97-1.9,1.53-.39.27-.9.57-1.39.72-.48.2-1,.31-1.52.38-1.04.14-2.07,0-2.97-.25-.91-.26-1.73-.62-2.5-1.02-1.67-.89-3.09-1.96-4.48-2.89-1.34-.91-2.76-1.68-4.24-2.34-2.96-1.28-6.16-2.03-9.4-2.13-3.24-.14-6.51.34-9.63,1.3-3.1.96-5.98,2.53-8.7,4.46-2.72,1.93-5.32,4.16-8.09,6.29-1.39,1.06-2.84,2.08-4.34,3.02-1.49.92-3.19,1.82-4.95,2.36-1.76.57-3.58.9-5.45.96-1.86.05-3.78-.16-5.61-.91-1.82-.73-3.5-2.09-4.5-3.85-.95-1.69-1.55-3.5-1.67-5.45-.18-2.38.44-4.71,1.32-6.74.89-2.05,2.03-3.89,3.06-5.71,1.02-1.82,1.97-3.63,2.45-5.48.47-1.85.33-3.69-.45-5.38-.4-.86-.89-1.59-1.54-2.39-.63-.79-1.32-1.58-2.01-2.37-1.39-1.59-2.8-3.2-4.12-4.91-2.63-3.4-4.97-7.25-5.96-11.64-1.56-6.68,1.04-14.01,6.2-18.38,2.54-2.19,5.41-3.82,8.26-5.32,2.86-1.49,5.73-2.89,8.44-4.48,2.74-1.6,5.09-3.5,7.06-5.91,1.96-2.41,3.6-5.12,5.17-7.85,3.04-5.55,5.71-11.33,8.53-17.04,2.2-4.44,4.48-8.83,7.06-13.06l.96-1.59,1.03-1.55c.69-1.03,1.36-2.07,2.13-3.05,1.45-1.99,3.03-3.97,4.83-5.73,1.8-1.74,3.73-3.37,5.83-4.76,2.1-1.38,4.33-2.57,6.65-3.55,4.67-1.88,9.73-2.91,14.82-2.75,1.12,0,2.23.14,3.34.23,1.1.18,2.21.3,3.29.58,2.18.47,4.31,1.2,6.38,2.17,3.83,1.79,6.63,4.01,8.68,6.1,2.06,2.1,3.36,4.1,4.36,5.76,1.9,3.39,2.3,5.65,2.51,7.41.05.82.17,1.87.12,2.36-.04.41-.22.33-.54-.17-.16-.25-.34-.61-.56-1.07-.21-.46-.47-1.02-.8-1.65-1.28-2.51-3.27-6.55-7.28-10.45-1.51-1.41-3.14-2.69-4.9-3.77-1.78-1.05-3.67-1.93-5.63-2.62-1.98-.64-4.02-1.1-6.1-1.36-2.08-.23-4.19-.25-6.29-.1-8.42.66-16.58,4.67-22.44,10.95-.77.75-1.42,1.61-2.12,2.43l-1.99,2.65c-1.27,1.82-2.53,3.65-3.67,5.58-2.32,3.83-4.44,7.82-6.46,11.92-2.03,4.09-3.99,8.26-6.08,12.42-2.13,4.14-4.35,8.32-7.29,12.22-1.07,1.46-2.31,2.84-3.67,4.14-.73.6-1.45,1.27-2.2,1.81-.75.52-1.5,1.04-2.28,1.5-3.07,1.9-6.24,3.35-9.22,4.95-2.97,1.59-5.84,3.24-8.1,5.37-1.17,1.03-2.07,2.24-2.87,3.49-.75,1.25-1.35,2.73-1.73,4.18-.79,2.92-.63,5.97.35,8.88.97,2.92,2.67,5.67,4.68,8.27,1.01,1.3,2.09,2.57,3.22,3.84,1.13,1.28,2.3,2.52,3.47,4.01,1.21,1.54,2.22,3.54,2.54,5.69.37,2.16-.04,4.35-.72,6.18h-.09Z"/><path class="cls-1" d="m406,305.38c.03.54.11,1.08.08,1.63-.04.54-.08,1.1-.21,1.58l-.17.75-.23.7c-.14.48-.33.91-.52,1.34-.77,1.72-1.74,3.25-2.78,4.69-2.13,2.84-4.57,5.34-7.2,7.58-5.25,4.49-11.14,8.1-17.35,10.94-4.53,2.09-9.24,3.77-14.07,4.96-8.53,2.08-17.37,2.79-26.1,1.93-8.7-.88-17.19-2.95-25.38-5.84-7.26-2.57-14.35-5.78-20.91-9.74-4.22-2.53-8.26-5.41-11.95-8.72-1.81-1.69-3.57-3.44-5.16-5.35-1.65-1.85-2.88-4.04-4.12-6.16-1.43-2.73-1.17-2.37.55-.44.88.95,2.19,2.24,3.88,3.64.82.72,1.67,1.53,2.57,2.39.94.82,1.87,1.74,2.91,2.63,7.16,6.53,15.57,11.68,24.5,15.67,8.96,3.95,18.43,6.9,28.16,8.54,11.62,2.06,24.17.83,35.59-2.98,6.29-2.07,12.31-4.96,17.85-8.59,2.76-1.82,5.41-3.82,7.83-6.05,2.42-2.22,4.68-4.65,6.47-7.33,1.08-1.64,2.03-3.42,2.39-5.19.2-.88.19-1.69-.03-2.59-.17-.89-.54-1.79-.93-2.68-.82-1.77-1.92-3.46-3.16-5.02-1.24-1.56-2.63-3.03-4.15-4.22-.29-.24-.58-.44-.88-.63-.29-.21-.59-.36-.89-.5-.15-.09-.29-.13-.42-.17-.14-.04-.26-.11-.42-.12-.32-.04-.63-.1-.98-.08-1.37-.01-2.85.32-4.3.76-2.91.9-5.77,2.16-8.6,3.47-5.67,2.64-11.25,5.56-17.02,8.07-2.25.97-4.51,1.89-6.85,2.66-2.33.76-4.74,1.42-7.24,1.65-4.99.57-10.01-.37-14.67-1.92-2.06-.69-4.03-1.46-5.98-2.4-7.19-3.54-9.07-5.25-10.25-6.65-.26-.33-.64-.7-.77-.93-.22-.39.42-.29,1.81.16,1.39.44,3.51,1.26,6.1,2.48,1.94.88,3.89,1.74,5.87,2.5,1.97.77,3.94,1.54,5.96,2.1,2.01.57,4.05,1.05,6.1,1.25,2.05.21,4.11.21,6.15-.01,4.02-.53,8.16-2.07,12.21-3.79,4.06-1.75,8.1-3.73,12.16-5.75,3.03-1.49,6.07-3,9.27-4.36,1.6-.67,3.24-1.32,4.99-1.84,1.76-.5,3.59-.98,5.83-.84l.87.11c.3.05.63.17.94.26.34.1.58.22.83.34.25.12.51.25.74.38.88.54,1.67,1.12,2.38,1.73,1.43,1.22,2.67,2.55,3.79,3.98,1.12,1.42,2.14,2.93,3.02,4.55.87,1.63,1.65,3.36,1.98,5.46l-.08.03Z"/><path class="cls-1" d="m265.16,420.53c7.69-4.43,15.2-9.18,22.43-14.33,2.63-1.88,5.17-3.89,7.71-5.88,4.49-3.5,8.84-7.17,12.87-11.16,4.01-3.98,7.76-8.28,10.47-13.13,1.19-2.15,2.08-4.45,2.46-6.79.15-1.17.22-2.35.04-3.48-.04-.58-.23-1.12-.36-1.68-.21-.53-.37-1.08-.67-1.57-.17-.33-.33-.66-.56-.95-.22-.29-.4-.65-.64-.87-.23-.25-.44-.52-.73-.72-.26-.22-.54-.43-.85-.59-1.21-.71-2.68-1.08-4.18-1.21-1.51-.13-3.06-.05-4.59.17-1.53.24-3.08.53-4.57,1-1.86.56-1.83.24-.46-1,.69-.61,1.78-1.32,3.22-1.99,1.45-.63,3.27-1.09,5.34-1.12,1.82-.01,3.72.22,5.58.96.93.35,1.83.9,2.65,1.57.42.32.76.75,1.13,1.13.32.39.57.78.86,1.18,1.07,1.62,1.79,3.52,2.05,5.45.29,1.94.09,3.88-.31,5.69-.86,3.62-2.55,6.8-4.49,9.68-1.98,2.86-4.22,5.48-6.59,7.93-5.7,5.84-11.98,11.44-18.54,16.44-7.22,5.48-14.77,10.5-22.49,15.19-4.75,2.89-9.59,5.64-14.48,8.28-7.42,3.98-15.04,7.68-22.83,10.82-3.04,1.2-6.06,2.37-9.25,3.21-1.6.44-3.29.7-4.92.86-1.65.17-3.33.21-5.03.07-1.5-.13-2.99-.35-4.49-.87-2.78-1.01-4.36-2.47-5.12-3.63-.73-1.21-.82-2.07-.7-2.79.05-.33.07-.71.16-.91.15-.34.57-.05,1.23.57.73.59,1.66,1.49,3.01,2.38,2.04,1.3,4.65,1.77,7.33,1.84,1.34.04,2.72-.07,4.1-.22,1.42-.15,2.66-.4,4.04-.77,5.45-1.51,10.98-3.89,16.4-6.38,8.06-3.74,16-7.93,23.72-12.46l.05.07Z"/><path class="cls-1" d="m220.93,71.14c9.06,1.92,17.97,4.51,26.62,7.79l2.38.88,2.35.94c1.57.63,3.15,1.23,4.67,1.97,10.81,4.97,21.06,11.32,29.95,19.28l2.94,2.66,2.81,2.81c.97.91,1.83,1.91,2.71,2.9.86,1,1.8,1.94,2.6,2.98l3.09,4.04,2.79,4.26c.85,1.47,1.54,3.03,2.28,4.55.4.74.63,1.57.89,2.39l.76,2.43c.59,2.02.2,1.85-1.08.5-1.24-1.38-3.68-3.7-5.74-6.75-1.82-2.72-3.66-5.42-5.77-7.92-.99-1.3-2.08-2.52-3.16-3.75-.54-.61-1.06-1.25-1.63-1.84l-1.73-1.76c-4.61-4.69-9.72-8.94-15.17-12.85-6.54-4.66-14.13-8.35-21.72-11.54-8.36-3.52-17.04-6.36-25.89-8.52-5.46-1.27-10.96-2.42-16.53-3.18-8.41-1.21-16.96-1.89-25.4-1.68-6.56.13-12.95.96-19.27,2.12-1.39.28-2.74.59-4.14.85-5.13,1.21-6.85,1.22-8.22.69-.31-.12-.7-.21-.91-.35-.35-.23-.03-.62.82-1.2.87-.53,2.24-1.43,4.17-2.01,2.84-.94,5.78-1.68,8.78-2.33,1.5-.3,3.01-.57,4.54-.8,1.53-.19,3.07-.38,4.61-.57,6.18-.61,12.48-.72,18.77-.48,9.34.38,18.66,1.55,27.83,3.39v.11Z"/><path class="cls-1" d="m371.34,430.2c20.5-16.73,37.86-37.33,50.87-60.44,13.07-23.08,22.08-48.46,26.74-74.61l1.2-7.17c.35-2.4.62-4.81.93-7.21l.45-3.61c.15-1.2.21-2.41.32-3.62l.59-7.25c.14-2.42.19-4.84.29-7.26l.14-3.63c.03-1.21,0-2.42,0-3.63l-.04-7.26-.34-7.25-.16-3.2c-.04-1.07-.19-2.13-.27-3.19l-.6-6.38c-.15-2.13-.55-4.23-.82-6.35-.31-2.11-.58-4.23-.92-6.34-1.54-8.39-3.28-16.77-5.76-24.94-.61-2.04-1.19-4.1-1.83-6.14l-2.12-6.04c-1.32-4.06-3.09-7.95-4.68-11.92-.76-2-1.77-3.88-2.66-5.82l-2.76-5.78-3.05-5.63c-1.02-1.87-2-3.77-3.16-5.57-2.26-3.62-4.39-7.33-6.91-10.78l-3.65-5.26-3.91-5.08-1.96-2.53-2.07-2.44-4.16-4.88-4.36-4.7c-.73-.78-1.44-1.58-2.2-2.33l-2.28-2.25c-6-6.1-12.54-11.64-19.22-16.97-3.42-2.57-6.79-5.2-10.36-7.56-3.48-2.49-7.14-4.71-10.77-6.98-12.99-7.87-26.92-14.24-41.31-19.11-1.78-.66-3.61-1.17-5.43-1.71l-5.46-1.62-5.52-1.36c-1.84-.46-3.67-.92-5.54-1.25l-5.57-1.09c-.92-.2-1.86-.34-2.79-.47l-2.8-.41c-1.87-.25-3.73-.59-5.6-.77l-5.62-.53c-9.63-.76-19.34-.87-28.98-.05-9.63.86-19.19,2.5-28.56,4.92-9.35,2.49-18.43,5.87-27.22,9.88l-6.51,3.18c-2.14,1.12-4.22,2.35-6.33,3.52-1.05.6-2.12,1.16-3.15,1.79l-3.06,1.93-3.07,1.93-1.53.97c-.51.33-.99.7-1.48,1.04-9.8,6.98-9.04,5.47-1.27-1.39.49-.42.99-.89,1.55-1.34.57-.44,1.16-.89,1.77-1.36,1.24-.94,2.59-1.96,4.03-3.04.72-.54,1.46-1.11,2.25-1.66.81-.52,1.64-1.05,2.49-1.6,1.72-1.08,3.53-2.22,5.42-3.41,7.76-4.41,17.29-8.96,28.18-12.37l7.28-2.12,7.38-1.71,1.85-.42c.62-.13,1.24-.22,1.87-.33l3.73-.64,3.73-.64,3.76-.44,3.76-.43,1.88-.21,1.89-.11,7.56-.44,7.57-.05c1.26-.03,2.52.02,3.78.09l3.78.17c10.07.57,20.11,1.85,29.96,4.03,9.85,2.18,19.53,5.08,28.97,8.63,37.67,14.44,71.19,39.63,95.44,72.09,7.18,9.75,13.64,20.19,19.15,31.2,5.57,10.98,9.96,22.62,13.48,34.51,3.5,11.91,6.01,24.14,7.55,36.47,1.46,12.35,1.92,24.79,1.5,37.14-.96,27.16-6.23,54.17-15.79,79.62-9.5,25.47-23.58,49.24-41.49,69.71-22.06,25.17-50.07,45.09-81.05,57.65-11.71,4.8-23.84,8.59-36.19,11.42-3.07.79-6.19,1.32-9.3,1.94-1.56.28-3.1.65-4.67.87l-4.69.72c-6.23,1.07-12.61,1.62-18.93,1.86-1.58.08-3.17.14-4.75.13-1.58,0-3.17.04-4.75.03-3.16-.08-6.33-.1-9.48-.32-6.32-.29-12.6-.99-18.86-1.79-12.49-1.77-24.83-4.52-36.8-8.3-9.31-2.96-18.37-6.53-27.13-10.7-8.73-4.23-17.09-9.14-25.05-14.63-15.88-11.03-29.82-24.81-41.02-40.66-2.36-3.56-4.88-6.97-6.93-10.68-1.08-1.82-2.15-3.65-3.24-5.49-1.01-1.87-1.95-3.8-2.93-5.72-.88-1.79-1.79-3.48-2.54-5.14-.72-1.68-1.4-3.29-2.06-4.83-.65-1.54-1.28-3.01-1.87-4.42-.61-1.4-1.02-2.8-1.5-4.1-.9-2.62-1.72-4.99-2.46-7.14-.7-2.16-1.16-4.15-1.65-5.93-.47-1.78-.87-3.38-1.21-4.83-.17-.72-.33-1.41-.48-2.06-.1-.66-.2-1.29-.3-1.89-.34-2.39-.52-4.31-.63-6.03-.09-1.56-.31-3.6-.27-4.53.07-1.56.99.77,2.66,6.23.41,1.37.89,2.92,1.36,4.68.5,1.75,1.19,3.64,1.85,5.73.67,2.08,1.39,4.33,2.16,6.75.89,2.37,1.84,4.9,2.85,7.58,11.87,31.77,33.68,60.69,62.9,80.34,7.31,4.89,14.99,9.25,22.94,13.14,8,3.79,16.27,7.05,24.73,9.83,8.46,2.79,17.15,4.9,25.92,6.6,8.78,1.68,17.67,2.84,26.61,3.45,13.27.82,26.62.71,39.73-1.44,13.2-1.97,26.25-4.99,38.95-9.13,25.37-8.25,49.38-20.97,69.99-37.96l.12.04Z"/><path class="cls-1" d="m300.23,284.07c.87.22,1.8.29,2.68.16.33-.04.63-.17.94-.25,1.11-.32,1.97-.98,2.8-2.02.38-.44.75-.95,1.25-1.38.31-.27.66-.54,1.07-.72.44-.11.94-.06,1.35.08.26.11.17.24-.02.44-.21.2-.45.6-.6.95-.43.28-.84.63-1.28,1.15-.47.49-.98,1.12-1.68,1.66-.84.65-1.76,1.25-2.78,1.52-1.11.29-2.25.3-3.33.15-.67-.1-1.33-.28-1.95-.5-.95-.32-1.82-.83-2.66-1.29-.66-.37-1.33-.68-1.95-1.08-.14-.09-.28-.16-.41-.26-.49-.35-.6-.54-.54-.84.01-.07.02-.15.04-.21.07-.21.38-.23.8-.07,1.25.46,2.44,1.09,3.63,1.57.89.34,1.76.72,2.64.9v.04Z"/><path class="cls-1" d="m327.34,207.65c-.04.1-.08.2-.13.3.1-.24-.03.06-.06.14-.1.23-.21.46-.31.69-.24.51-.51,1.01-.82,1.48-.07.1-.14.21-.21.31-.02.03-.27.36-.14.2-.18.23-.38.46-.6.67-.1.1-.2.19-.31.28-.02.02-.19.15-.09.07s-.07.05-.1.06c-.1.07-.2.13-.31.19-.06.03-.12.07-.18.1-.02,0-.32.14-.11.06-.25.1-.51.17-.77.22-.18.04.16-.01-.03,0-.08,0-.15.01-.23.02-.18,0-.35,0-.53-.01-.01,0-.21-.03-.07,0-.08-.01-.17-.03-.25-.05-.13-.03-.25-.06-.38-.1-.03,0-.24-.08-.12-.04s-.08-.04-.1-.05c-.14-.07-.26-.15-.39-.23-.18-.12-.05-.04-.01,0-.05-.04-.1-.09-.15-.13-.1-.09-.19-.19-.27-.29-.03-.03-.12-.17,0-.01-.03-.04-.06-.08-.09-.13-.08-.13-.16-.26-.23-.4-.02-.04-.18-.4-.1-.21-.05-.13-.1-.27-.14-.4-.09-.3-.16-.6-.21-.91-.01-.06-.02-.11-.03-.17.03.21-.01-.14-.01-.15-.02-.17-.03-.34-.04-.51-.01-.35-.01-.69,0-1.04,0-.17.02-.34.04-.51,0-.08.02-.15.02-.23.02-.2,0,.03.01-.09.05-.34.12-.68.2-1.01.34-1.41-1.83-2.01-2.17-.6-.64,2.64-.71,6.34,1.5,8.32,1.22,1.09,2.95,1.43,4.53,1.08,1.47-.33,2.64-1.34,3.53-2.51.87-1.15,1.46-2.47,2-3.8.23-.56-.25-1.24-.79-1.38-.65-.18-1.15.22-1.38.79h0Z"/><path class="cls-1" d="m339.97,210.8c-.31,1.2-.82,2.38-1.58,3.34-.3.38-.78.86-1.12,1.08-.12.08-.24.15-.36.22-.07.04-.14.08-.21.11.02-.01.12-.05,0,0-.13.05-.26.09-.39.13-.06.02-.44.08-.28.06-.14.01-.28.01-.42.01-.06,0-.12,0-.18-.01.03,0,.13.02,0,0-.29-.04-.58-.14-.8-.24-.57-.27-1.02-.63-1.44-1.1-.26-.3-.58-.89-.69-1.24-.09-.26-.16-.52-.21-.78-.01-.06-.05-.31-.04-.24.02.13-.01-.1-.01-.13,0-.07-.01-.15-.02-.22-.02-.29-.02-.57,0-.86,0-.14.02-.27.03-.41.02-.28-.02.08.02-.19.08-.44.18-.88.34-1.3.22-.57-.24-1.23-.79-1.38-.63-.17-1.17.22-1.38.79-.86,2.26-.64,5.18.83,7.13,1.03,1.36,2.62,2.38,4.36,2.43,1.53.05,2.96-.76,4-1.84,1.26-1.31,2.1-3.03,2.55-4.78.36-1.4-1.81-2-2.17-.6h0Z"/><path class="cls-1" d="m335.53,205.17c-1.36,1.31-2.34,3.09-3.01,5.06-.23.72-.36,1.47-.51,2.21-.27,1.31-.43,2.65-.43,4,0,1.35.21,2.69.51,4.01.27,1.18.82,2.27,1.43,3.29.8,1.31,1.77,2.49,2.77,3.74.31.4.13.54-.4.52-.52-.04-1.53-.15-2.35-.79-.68-.59-1.35-1.23-1.9-1.97-.28-.37-.5-.77-.73-1.17-.24-.39-.43-.81-.61-1.23-.2-.41-.36-.84-.49-1.28-.15-.43-.28-.87-.37-1.32-.1-.44-.17-.89-.21-1.35-.04-.45-.09-.9-.08-1.35-.03-2.15-.05-4.36.42-6.49.54-2.31,1.46-4.6,2.94-6.54.91-1.19,2.03-2.26,3.37-3,1.98-1.22,4.52-1.47,6.73-.85,1.72.48,3.3,1.33,4.62,2.5.26.28.54.53.79.83.25.26.4.51.5.75.1.23.19.41.2.6.02.38-.06.65-.22.92-.07.12-.12.25-.2.34-.13.15-.33.15-.64.08-.3-.08-.74-.21-1.06-.53-1.07-.83-2.06-1.65-3.12-2.21-1.05-.57-2.16-.91-3.28-.9-1.64.06-3.35.78-4.65,2.18l-.05-.04Z"/><path class="cls-1" d="m317.59,231.01c.03,1.92.88,3.83,2.34,5.09,1.76,1.52,4.01,1.97,6.27,1.58.58-.1.96-.84.79-1.38-.2-.63-.76-.89-1.38-.79-.08.01-.15.03-.23.04.11-.01.1-.01-.04,0-.11,0-.22.02-.33.03-.23.01-.46.02-.69,0-.12,0-.24-.02-.36-.03-.25-.02.16.04-.1-.01-.22-.04-.45-.09-.67-.15-.18-.05-.36-.12-.54-.18.25.09-.06-.03-.11-.06-.1-.05-.19-.1-.28-.15-.16-.09-.31-.18-.46-.29-.05-.03-.1-.07-.15-.1.11.09.11.09.02.01-.07-.06-.14-.11-.2-.17-.14-.13-.28-.26-.41-.4-.07-.08-.13-.15-.2-.23-.19-.22.13.19-.04-.05-.22-.31-.41-.62-.57-.96-.02-.05-.05-.1-.07-.16.05.12.06.15.03.07-.03-.09-.07-.19-.1-.28-.05-.16-.1-.32-.14-.49-.03-.11-.05-.22-.07-.33-.01-.07-.04-.33,0-.03-.02-.19-.03-.39-.04-.58,0-.59-.51-1.15-1.12-1.12s-1.13.49-1.12,1.12h0Z"/><path class="cls-1" d="m332.44,199.05c-3.3-3.88-9.21-5.83-13.84-3.16-1.25.72-.12,2.67,1.14,1.94,3.79-2.18,8.47-.3,11.11,2.8.39.46,1.19.41,1.59,0,.46-.46.39-1.13,0-1.59h0Z"/><path class="cls-1" d="m79.28,179.51l.55-.24c2.94-1.31,5.14-3.88,5.99-6.99l.41-1.49.1.5c.73,3.55,3.2,6.49,6.57,7.83h0s-.94.47-.94.47c-2.71,1.36-4.71,3.81-5.52,6.73l-.44,1.58-.18-.8c-.78-3.35-3.1-6.12-6.26-7.47l-.28-.12Z"/><path class="cls-1" d="m435.52,55.04l.55-.24c2.94-1.31,5.14-3.88,5.99-6.99l.41-1.49.1.5c.73,3.55,3.2,6.49,6.57,7.83h0s-.94.47-.94.47c-2.71,1.36-4.71,3.81-5.52,6.73l-.44,1.58-.18-.8c-.78-3.35-3.1-6.12-6.26-7.47l-.28-.12Z"/><path class="cls-1" d="m458.07,374.12l.55-.24c2.94-1.31,5.14-3.88,5.99-6.99l.41-1.49.1.5c.73,3.55,3.2,6.49,6.57,7.83h0s-.94.47-.94.47c-2.71,1.36-4.71,3.81-5.52,6.73l-.44,1.58-.18-.8c-.78-3.35-3.1-6.12-6.26-7.47l-.28-.12Z"/><path class="cls-1" d="m171.35,126.12l.4-.18c2.14-.95,3.73-2.81,4.35-5.07l.3-1.08.07.36c.53,2.58,2.33,4.71,4.77,5.68h0s-.68.34-.68.34c-1.96.99-3.42,2.76-4.01,4.88l-.32,1.15-.13-.58c-.56-2.43-2.25-4.44-4.54-5.42l-.21-.09Z"/><path class="cls-1" d="m107.11,313.65l.4-.18c2.14-.95,3.73-2.81,4.35-5.07l.3-1.08.07.36c.53,2.58,2.33,4.71,4.77,5.68h0s-.68.34-.68.34c-1.96.99-3.42,2.76-4.01,4.88l-.32,1.15-.13-.58c-.56-2.43-2.25-4.44-4.54-5.42l-.21-.09Z"/><path class="cls-1" d="m426.39,416.61l.4-.18c2.14-.95,3.73-2.81,4.35-5.07l.3-1.08.07.36c.53,2.58,2.33,4.71,4.77,5.68h0s-.68.34-.68.34c-1.96.99-3.42,2.76-4.01,4.88l-.32,1.15-.13-.58c-.56-2.43-2.25-4.44-4.54-5.42l-.21-.09Z"/><path class="cls-1" d="m387.62,139.39c.24.2-.1.45-.79.75-.22.1-.92.21-1.03.16-.21-.1-.42-.2-.58-.31-.1-.07-.64-1.31-.84-1.75-.2-.41-.28-.85-.34-1.29-.12-.89-.25-1.8-.32-2.71-.02-.2,0-.41.06-.61.19-.71.18-1.4.13-2.1,0-.12.01-.24-.09-.35-.2-.19-.09-2.1.03-2.34.26-.59.46-1.18.7-1.75.04-.08,0-.18.15-.24.32-.14.3-.32.35-.5.07-.25.16-.49.3-.72.07-.12.26-.21.41-.3.14-.09.56.05.61.1.12.13.34.08.52.1.06,0,.14.02.19.03.1.04.64,1.53.63,1.66-.03.04.01,2.03.07,2.25.02.12-.05.23-.1.34-.04.06.18,1.63.19,1.69-.04.32.09.64-.17.97-.05.06-.03.13-.02.2.07.56,0,1.12-.01,1.69,0,.29.06.58.09.86,0,.05-.03.11-.04.16-.01.07-.04.14-.03.2.11.68.06,1.39.3,2.06.05.15-.14.96-.07,1.14.04.1-.37.52-.28.6Z"/><path class="cls-1" d="m398.1,150.05c-.22.28-.56-.02-.96-.67-.13-.21-.31-.89-.26-1.01.1-.23.21-.46.33-.63.08-.1,1.52-.86,2.01-1.14.47-.27.97-.44,1.47-.58,1.03-.29,2.05-.62,3.07-.91.23-.07.47-.1.71-.1.84,0,1.63-.22,2.4-.49.13-.05.27-.06.36-.2.16-.23,2.29-.82,2.59-.82.74.01,1.46-.06,2.19-.09.1,0,.2-.07.32.02.29.23.48.12.7.08.3-.05.61-.09.93-.08.16,0,.35.13.53.22.16.08.21.53.18.59-.09.17.07.34.13.52.02.06.05.14.06.19.02.11-1.46,1.33-1.64,1.38-.04.01-2.44.95-2.7,1.09-.14.07-.3.05-.46.05-.07,0-1.97.81-2.05.83-.42.09-.79.32-1.27.18-.09-.03-.17.01-.25.04-.69.25-1.42.35-2.13.49-.37.07-.71.21-1.07.31-.06.02-.14,0-.21,0-.09,0-.18-.01-.26.02-.84.28-1.72.38-2.54.75-.19.08-1.21.04-1.42.15-.12.06-.66-.28-.75-.17Z"/><path class="cls-1" d="m231.64,424.97c8.03-5.1,15.77-10.75,23.27-16.66,7.49-5.93,14.75-12.18,21.6-18.83,4.99-4.85,9.69-10,14.05-15.36,3.82-4.74,7.35-9.74,9.9-15.16,1.27-2.7,2.24-5.53,2.66-8.39.42-2.86.16-5.75-1.01-8.29-.61-1.25-1.38-2.43-2.36-3.46-.99-1.01-2.08-1.97-3.33-2.74-2.46-1.59-5.23-2.77-8.1-3.54-5.78-1.56-11.94-1.59-17.98-.91-5.37.6-10.72,1.82-16.02,3.15-5.29,1.34-10.52,2.91-15.65,4.66-13.21,4.45-25.85,10.47-38.39,16.53-3.96,1.8-3.65,1.19-.72-1.17.72-.61,1.64-1.26,2.71-2.01,1.06-.74,2.28-1.56,3.64-2.4,2.69-1.73,5.99-3.51,9.69-5.2,13.11-5.94,26.75-10.78,40.83-14.06,7-1.63,14.27-3.01,21.69-2.89,3.7.06,7.45.46,11.09,1.48,3.63,1.04,7.15,2.55,10.24,4.92,1.84,1.41,3.51,3.17,4.7,5.28,1.2,2.1,1.88,4.49,2.04,6.87.31,4.8-1.13,9.34-2.97,13.49-.93,2.08-2.01,4.09-3.17,6.02-1.16,1.94-2.4,3.83-3.71,5.65-2.61,3.67-5.45,7.13-8.41,10.45-6.54,7.27-13.63,13.98-21,20.35-7.37,6.36-15.03,12.37-22.95,18.03-4.88,3.47-9.85,6.83-15.04,9.89-2.57,1.53-5.33,2.95-8.07,4.15-2.77,1.21-5.6,2.35-8.59,3.09-2.26.57-4.62.94-7.06.79-2.41-.14-4.97-.96-6.88-2.68-1.87-1.63-3.21-3.91-3.67-6.37-.48-2.46-.14-4.95.58-7.21,3.33-8.72,8.43-16.31,14.11-23.34,4.47-5.41,9.21-10.51,14.25-15.25,5.05-4.73,10.32-9.21,15.85-13.4,2.48-1.79,4.84-3.62,7.46-5.27,2.37-1.6,4.45-2.76,6.16-3.78,1.75-.95,3.19-1.69,4.4-2.24,2.52-.94,3.99-1.38,5.27-1.53.57-.08,1.29-.25,1.62-.28.56-.04-.22.43-1.98,1.44-1.76,1.05-4.42,2.82-7.92,4.94-1.27.83-2.55,1.67-3.83,2.51-1.25.89-2.51,1.77-3.77,2.66-1.26.88-2.49,1.84-3.74,2.75l-1.87,1.39-1.84,1.45c-4.94,3.82-9.7,7.97-14.3,12.32-1.14,1.1-2.28,2.2-3.42,3.31-1.09,1.15-2.19,2.3-3.29,3.45l-1.64,1.73-1.56,1.8c-1.03,1.21-2.11,2.39-3.11,3.63-4.03,4.94-7.58,10.25-10.57,15.81l-1.47,3.18c-.48,1.06-1.04,2.14-1.35,3.13-.69,2.03-.98,4.11-.63,5.96.17.92.5,1.79.98,2.59.13.19.25.4.38.59l.44.56c.33.35.67.73,1.02.96,1.35,1.11,3.18,1.68,5.28,1.67,2.08.01,4.29-.41,6.48-1.05,2.19-.64,4.37-1.49,6.53-2.44,1.07-.48,2.2-.98,3.22-1.49,1.03-.5,2.07-1.06,3.1-1.64,2.06-1.16,4.1-2.41,6.12-3.69l.07.06Z"/></svg>