<?xml version="1.0" encoding="UTF-8"?><svg id="_169.Check" xmlns="http://www.w3.org/2000/svg" width="520" height="520" viewBox="0 0 520 520"><defs><style>.cls-1,.cls-2{fill:#231f20;}.cls-2{opacity:.2;}</style></defs><path class="cls-1" d="m404.66,260.68c3.09,0,6.18.03,9.27.09,1.13.01,2.25-.01,3.38.02,3.97.11,7.94.32,11.9.57,1.76.1,3.53.18,5.27.24,1.12.06,2.25.06,3.37.15,1.12.12,2.24.27,3.35.44.69.12.59.31-.02.53-.6.21-1.71.53-3.01.6-1.15.09-2.28-.03-3.43-.04l-3.42-.12c-2.28-.08-4.57-.19-6.87-.33-2.75-.19-5.62-.14-8.43-.17-3.1-.04-6.2-.06-9.29-.04-1.91,0-3.82.03-5.72.07-2.89.07-5.79.14-8.65.32-2.22.15-4.4.42-6.59.66-.48.05-.95.11-1.44.15-1.81.15-2.4-.03-2.82-.48-.1-.11-.22-.21-.28-.32-.2-.36.51-.74,1.83-1.02,3.91-.73,8.08-.96,12.26-1.15,3.11-.13,6.23-.18,9.35-.22v.05Z"/><path class="cls-1" d="m131.51,265.11l-14.04.16-5.12.13-18.05.11c-2.67.02-5.35.16-8,.17-1.7.02-3.41.05-5.11.07-1.71-.01-3.41-.08-5.11-.13-1.06-.04-.92-.08-.03-.24.89-.15,2.54-.52,4.49-.79,6.94-.75,13.88-.95,20.88-1.01,4.19-.02,8.54-.33,12.83-.44l14.14-.35c2.9-.07,5.8-.14,8.7-.21,4.39-.13,8.8-.2,13.16-.38,3.39-.14,6.7-.43,10.05-.65.74-.05,1.46-.12,2.2-.16,2.75-.16,3.64.05,4.25.67.14.14.32.28.4.42.28.44-.83.97-2.84,1.2-5.97.66-12.29.94-18.63,1.17-4.71.17-9.44.2-14.16.31v-.06Z"/><path class="cls-1" d="m119.37,389.54c-.09.12-3.57-2.25-5.4-2.54s1.84-2.13,1.84-2.13l5.83,1.74-2.27,2.93Z"/><path class="cls-1" d="m102.59,440.98c2.37.27,4.77.46,7.17.67.88.08,1.76.07,2.64.15,3.1.29,6.21.6,9.33,1,1.39.19,2.78.37,4.15.55,1.75.26,3.64.54,5.11,1.8.46.36.33.43-.21.53-.27.06-.63.11-1.08.24-.22.05-.46.14-.69.16-.22,0-.47.02-.7-.02-3.36-.47-6.87-.76-10.43-1.3-2.13-.31-4.39-.27-6.6-.4-2.43-.13-4.87-.32-7.31-.56-1.5-.15-3-.31-4.51-.5-2.28-.28-4.55-.68-6.8-1.16-1.74-.4-3.53-.67-5.21-1.48-.38-.15-.73-.36-1.1-.57-.34-.18-.58-.43-.78-.61-.19-.2-.36-.34-.44-.54-.16-.37-.18-.66-.11-.95.03-.13.04-.27.09-.38.15-.32.85-.21,1.73.13,1.28.57,2.71.86,4.14,1.28,1.45.38,2.96.7,4.52.95,2.31.39,4.69.69,7.08.9v.07Z"/><path class="cls-1" d="m150.75,425.32c.81-1.89,1.73-3.72,2.64-5.54.34-.66.63-1.35.98-2,1.26-2.3,2.66-4.51,4.01-6.73.6-.99,1.16-2,1.7-3.01.71-1.28,1.26-2.67,2.46-3.67.36-.32.45-.2.53.29.05.33.11.69.16,1.01.02.39-.05.8-.21,1.2-1.3,2.7-2.81,5.27-4.42,7.81-.97,1.52-1.71,3.24-2.55,4.86-.93,1.79-1.81,3.6-2.65,5.43-.49,1.14-1,2.27-1.42,3.43-.68,1.75-1.27,3.53-1.7,5.34-.17.7-.25,1.41-.35,2.11-.05.35-.09.7-.11,1.06-.04.35-.09.7-.14,1.05-.04.31-.07.61-.11.92-.08.57-.16.95-.3,1.21-.16.26-.35.4-.6.5-.11.05-.22.12-.33.14-.17.04-.32-.06-.45-.29-.13-.23-.28-.59-.3-1.04-.32-2.7.23-5.51,1-8.21.6-2,1.31-3.97,2.11-5.88l.05.02Z"/><path class="cls-1" d="m150.51,427.1c.02.42-4.69,13.04.67,9.07,2.44-1.81-3.75,8.83-4.69,9.06-.94.23-2.98-2.53-1.93-6.28,2.3-8.19,5.95-11.86,5.95-11.86Z"/><path class="cls-1" d="m152.72,437.69s2.13,1.21,5.08-1.75c2.95-2.96-2.06,4.19-3.98,6.19-1.93,2-4.2,4.94-5.86,4.34-1.66-.59,2.56-6.52,2.56-6.52l2.2-2.26Z"/><path class="cls-1" d="m115.66,404.89c-.67.56-1.37,1.1-2.08,1.62-.26.19-.5.41-.77.59-.96.62-1.98,1.17-3.1,1.53-.5.15-1.01.3-1.55.35-.34.02-.71.06-1.06-.07-.35-.08-.69-.29-.87-.62-.12-.19-.06-.21.17-.27.12-.03.27-.08.44-.17.17-.08.29-.08.43-.1.91.06,1.96-.29,3.07-.78.67-.28,1.26-.78,1.86-1.23.67-.5,1.32-1.03,1.96-1.59.39-.34.78-.7,1.15-1.06.57-.55,1.14-1.11,1.65-1.72.39-.47.7-1.01,1.03-1.52.07-.11.13-.24.21-.34.3-.4.49-.45.92-.22.1.05.2.1.29.16.31.2.4.55.24.9-.48,1.02-1.24,1.92-2.05,2.77-.6.63-1.26,1.23-1.91,1.82l-.03-.03Z"/><path class="cls-1" d="m124.41,417.55c-.81.96-1.66,1.94-2.91,2.67-.47.22-1.01.47-1.62.4-.49-.02-.92-.25-1.29-.46-.37-.18-.75-.61-.88-1.01-.18-.52-.12-.5-.14-.69v-.24c-.03.06-.06.12-.11.17-.03.06-.08.08-.12.13-.06.07-.45.31-.79.44-.35.12-.71.21-1.08.21-.94.03-1.9-.45-2.39-1.23-.16-.24-.06-.25.16-.14.21.12.58.32.97.51.52.24,1.1.29,1.64.14.27-.07.52-.18.75-.33.07-.05.09-.05.19-.14l.34-.37.08-.09.13-.3.26-.59.59-1.34c.08,1.09.07.65.09,1.28.02.43.02.94.06,1.38.01.12.02.25.05.36.02.12.05.24.06.27.03.1.07.2.12.29.11.18.21.28.41.38.39.23.8.14,1.16-.01.83-.34,1.7-1.16,2.41-2.06.45-.56.87-1.15,1.27-1.76.6-.93,1.19-1.89,1.69-2.88.39-.78.67-1.59,1.06-2.38.08-.17.15-.35.25-.53.2-.31.39-.48.6-.55.19-.08.37-.08.58-.03.09.02.19.04.27.07.25.11.31.49.27,1.04-.16.76-.48,1.46-.78,2.21-.36.71-.76,1.42-1.19,2.13-.64,1.05-1.35,2.08-2.13,3.09l-.04-.02Z"/><path class="cls-1" d="m142.33,410.23c-.06.97-.11,1.94-.17,2.91-.04.36-.01.71-.07,1.07-.19,1.26-.43,2.54-.82,3.8-.18.56-.32,1.13-.58,1.69-.17.35-.34.72-.63,1.02-.16.14-.31.28-.51.37-.09.05-.18.09-.28.14-.1.03-.22.03-.33.05-.28.01-.27-.09-.27-.41,0-.35-.07-.84-.02-1.15.35-.94.74-2.1,1.09-3.43.23-.79.15-1.67.18-2.52.02-.94.12-1.9.16-2.87l.09-1.79c.05-.91.13-1.82.16-2.73.02-.7-.06-1.41,0-2.12.01-.16,0-.31.04-.47.13-.58.37-.73.7-.79.08-.01.16-.03.23-.03.24,0,.41.27.54.69.28,1.21.35,2.43.43,3.7.04.94.12,1.9.1,2.86h-.06Z"/><path class="cls-1" d="m139.49,366.03c.89.03,1.78.09,2.68.21.32.03.65.01.98.06,1.15.13,2.28.45,3.4.73.5.12,1,.22,1.49.35.62.19,1.23.45,1.8.77.18.1.14.12-.04.15-.18.02-.53.12-.9.13-1.34.14-2.54,0-3.81-.17-.75-.11-1.55-.07-2.34-.1-.86-.03-1.73-.06-2.6-.09-.54-.02-1.07-.04-1.61-.03-.81,0-1.64.01-2.45.07-.63.05-1.24.2-1.86.29-.14.02-.27.06-.41.05-.52-.02-.69-.15-.83-.51-.03-.08-.07-.16-.09-.25-.07-.27.12-.53.49-.73.54-.32,1.1-.45,1.68-.61.58-.13,1.16-.29,1.76-.31.89-.06,1.78-.06,2.68-.07v.05Z"/><path class="cls-1" d="m132.96,360.69c-.02.32-.02.64,0,.94.01.14.01.31.03.43l.02.18s0,.03,0,.06c.02.03.02.06.07.1.07.08.24.18.36.27.3.19.65.32.99.5,1.19.63,2.5,1.13,3.81,1.56.59.18,1.19.31,1.79.39.76.15,1.53.26,2.31.26.25,0,.24.08.06.24-.18.17-.56.47-1.06.61-.43.1-.88.19-1.32.24-.45.04-.87-.03-1.3-.06-.43-.06-.85-.12-1.27-.22-.41-.11-.81-.27-1.21-.43-.94-.4-1.97-.66-2.94-1.11-.3-.15-.6-.29-.91-.49-.26-.14-.72-.48-.99-.9-.18-.38-.24-.67-.29-.94-.04-.27-.07-.54-.08-.8-.03-.74,0-1.46.1-2.18.14-1.09.44-2.15.86-3.18.33-.79.68-1.6,1.24-2.33.13-.15.25-.31.42-.43.62-.44.94-.39,1.28-.08.08.07.17.14.23.22.21.27.14.67-.08,1.04-.6,1.1-1.24,1.98-1.59,3.25-.27.9-.46,1.89-.48,2.87h-.05Z"/><path class="cls-2" d="m197.39,216.83c-1.02,2.59-3.83,3.95-6.51,3.2-1.72-.48-3.61-.75-5.08-.28-2.25.71-7.94,2.25-12.14.92-2.56-.81-3.99-3.54-3.45-6.17,1.41-6.75,4.65-23.98,3.64-35.44-.14-1.57-.99-3-2.29-3.89-1.55-1.06-3.79-2.38-6.03-2.93-3.9-.95-9.58-34.74-4.17-44.48.21-.38.4-.76.53-1.17,1.02-3.29,6.68-19.51,19.8-21.62,7.79-1.25,12.51-1.68,15.22-1.8,1.91-.09,3.62-1.19,4.5-2.88,2.52-4.84,8.9-14.06,21.11-14.32,16.56-.36,32.08,4.23,39.13,13.01s26.12,33.54,30.11,40.02c3.44,5.58,16.03,17.22,27.1,19.51,2.91.6,4.73,3.54,4.1,6.44-1.16,5.39-3.23,12.43-6.19,12.75-3.28.36-7.89,4.28-10.51,6.77-1.33,1.26-3.19,1.76-4.97,1.34l-17.08-4.07c-.16-.04-.31-.07-.47-.09l-23.39-3.4c-.88-.13-3.53-.05-4.21-.54-1.07-.77-.01-2.35-.29-3.71l-2.18-10.54c-.02-.1-.05-.2-.07-.3-.34-1.25-.56-2.51.66-2.93,3.66-1.27,10.53-4.41,11.45-10.28,0,0,1.42-6.29-1.62-9.08s-7.45-6.48-11.98-2.44c-3.14,2.8-2.58,11.64-3.64,14.73-3.21,9.33-12.22-15.17-14.14-16.94-7.76-7.16-47.57-2.27-51.4,21.73-.18,1.11-.16.76.13,1.85,4.39,16.52,14.32,31.58,18.28,36.06,5.28,5.96-1.63,15.14-3.93,21Z"/><path class="cls-1" d="m256.13,177.68s16.58,1.96,22.33,3c5.75,1.04,35.33,5.27,63.25,26.53,27.92,21.26,37.76,34.87,42.21,43.67,4.45,8.79,5.52,14.53,2.82,17.24-2.7,2.71-41.36,11.17-60.43,9.02-19.07-2.15-24.22-4.06-24.22-4.06,0,0-5.94-20.77-13.22-25.89-7.27-5.12-13.25,3.78-13.25,3.78,0,0-25.77-7.53-30.43-6.12-4.66,1.41-22.45,12.84-29.87,22.39-.99,1.27-6.42,23.75-8.72,27.86-2.31,4.11-21.83,43.41-21.83,43.41,0,0-8.33,19.36-15.22,19.36-6.89,0-40.84-1.95-41.79-7.51-.95-5.56,17.44-40.01,17.44-40.01,0,0,37.13-53.38,37.75-60.99s9.44-13.42,12.51-28.17c0,0,7.85-17.59,7.58-20.83,0,0,9.61,13.1,22.18,12.98s19.35-4.43,24.28-11.73c4.94-7.3,6.35-20.93,6.35-20.93l.28-3Z"/><path class="cls-1" d="m200.09,94.19c-.41.83-.76,1.72-1,2.65-.08.34-.1.69-.18,1.04-.34,1.21-.56,2.5-.65,3.8-.05.58.02,1.16.03,1.74.05.74.16,1.48,0,2.25-.05.24-.43.26-.86.11-.42-.15-.93-.47-1.06-.9-.2-.77-.45-1.54-.47-2.34-.03-.8.02-1.61.16-2.42.18-.96.1-1.98.25-2.98.22-1.09.49-2.17.91-3.21.23-.64.54-1.26.84-1.87.48-.92,1.05-1.79,1.61-2.63.44-.66.84-1.33,1.32-1.98.11-.14.22-.26.36-.38.53-.39.87-.33,1.29-.05.1.07.2.12.29.2.28.23.33.67.23,1.17-.19.71-.48,1.27-.76,1.83-.16.27-.26.57-.42.83-.18.25-.35.5-.5.77-.25.38-.49.76-.7,1.17-.24.39-.42.82-.61,1.24l-.07-.02Z"/><path class="cls-1" d="m193.23,101.88c-.41-.52-.91-.92-1.42-1.36-.2-.14-.42-.23-.62-.37-.71-.52-1.55-.89-2.44-1.22-.4-.14-.81-.22-1.22-.26-.53-.07-1.07-.06-1.61-.26-.17-.06-.15-.32,0-.59.15-.27.43-.6.76-.67,1.16-.17,2.42-.33,3.58.2.68.31,1.46.4,2.17.73.79.33,1.47.86,2.11,1.4.38.35.74.71,1.08,1.07.52.56.93,1.19,1.41,1.74.36.43.86.75,1.19,1.2.08.09.17.18.23.28.24.39.18.6-.21,1-.09.09-.17.18-.27.26-.31.27-.71.32-1.05.17-.47-.25-1.01-.45-1.35-.79-.37-.31-.7-.67-1.02-.99-.49-.48-.91-1-1.36-1.47l.04-.05Z"/><path class="cls-1" d="m283.92,266.58c-.65-.1-1.29-.21-1.94-.31-.24-.03-.47,0-.71-.04-.83-.14-1.66-.3-2.49-.48-.37-.07-.74-.08-1.1-.09-.47,0-.94.04-1.41-.15-.15-.06-.12-.4.01-.75.13-.35.37-.72.64-.77.96-.14,1.92-.22,2.89-.01.58.17,1.18.08,1.77.12.65.06,1.3.12,1.95.18.4.04.8.07,1.2.11.61.05,1.22.1,1.82.1.47,0,.93-.13,1.39-.17.1,0,.2-.02.3-.01.38.04.5.19.57.68.02.11.04.22.05.33.03.36-.13.67-.41.84-.21.12-.42.23-.63.33-.21.07-.43.14-.65.19-.43.08-.87.2-1.31.15-.65-.03-1.3-.12-1.95-.18v-.06Z"/><path class="cls-1" d="m149.73,377c.05,1.11.26,2.24.49,3.38.1.42.27.82.34,1.24.3,1.5.62,3.04.91,4.61.12.7.22,1.41.3,2.13.16.91,0,1.89-.34,2.76-.11.27-.27.2-.5-.06-.23-.26-.57-.69-.74-1.13-.57-1.57-.98-3.11-1.18-4.92-.14-1.07-.6-2.1-.87-3.2-.29-1.2-.48-2.46-.63-3.71-.04-.78-.13-1.56-.09-2.34l.02-.89.1-.89.1-.88.17-.87c.1-.91.33-1.79.62-2.65.08-.18.15-.37.24-.55.18-.33.31-.54.48-.65.2-.09.37-.11.57-.09.09,0,.18,0,.26.02.13.03.21.14.28.32.07.18.16.44.1.69-.06.38-.12.75-.17,1.12-.02.38-.04.75-.09,1.12-.1.35-.13.71-.18,1.07-.03.36-.14.71-.14,1.08-.07,1.08-.13,2.17.02,3.28h-.06Z"/><path class="cls-1" d="m120.24,412.68c-.64,1.18-1.29,2.35-2.08,3.55-.21.3-.42.6-.67.91-.25.31-.54.64-1.04.99-.16.09-.32.18-.48.25-.22.08-.51.13-.76.15-.3-.02-.53-.03-.82-.1-.58-.12-1.1-.41-1.5-.83-.58-.58-.86-1.55-.89-2.19-.04-.65.02-1.24.14-1.77.44-1.88,1.16-3.48,1.98-5.03.81-1.55,1.69-3.03,2.58-4.5.8-1.3,1.53-2.64,2.33-3.91.52-.81,1.04-1.63,1.59-2.43.58-.78,1.23-1.51,1.87-2.25.41-.45.46-.32.38.23-.1.54-.21,1.57-.58,2.64-1.53,3.65-3.66,6.89-5.54,10.29-.57,1.01-1.04,2.09-1.46,3.17-.4,1.07-.72,2.21-.77,3.14-.01.57.02.67.2.87.1.08.19.12.35.15l.13.02h0c-.01,1.15,0,.32,0,.57h0s0,0,0,0h0s0-.06,0-.06c0-.03,0-.06,0-.09-.01-.05-.03-.1-.06-.14l-.09-.25h0s.06-.05.08-.06c.31-.24.71-.79,1.04-1.3.35-.52.68-1.09,1-1.66.79-1.41,1.56-2.86,2.32-4.32,1.15-2.21,2.36-4.41,3.62-6.58.96-1.69,1.89-3.38,3.17-4.91.27-.34.55-.68.87-.99,1.19-1.18,1.86-1.28,2.42-1.02.13.06.28.11.38.19.32.27,0,.89-.67,1.68-1,1.21-1.86,2.61-2.7,4.08-.89,1.43-1.75,2.94-2.59,4.48-1.24,2.3-2.47,4.65-3.7,7.05l-.06-.03Z"/><path class="cls-1" d="m124.87,415.66c-.4.57-.81,1.14-1.26,1.7-.23.28-.44.57-.7.85-.13.14-.24.28-.38.42l-.27.27c-.11.12-.23.22-.34.32-.24.18-.49.33-.74.49-.25.16-.51.21-.76.29-.5.05-1.06.08-1.5-.26-.92-.59-1.26-1.68-1.08-2.88.05-.48.1-.66.15-.95.06-.26.11-.53.18-.78.13-.51.27-1.01.44-1.49,1.23-3.39,2.83-6.52,4.51-9.62.77-1.36,1.47-2.77,2.31-4.08.53-.85,1.06-1.7,1.67-2.51.65-.78,1.41-1.49,2.27-2.09.57-.35.57-.14.36.38-.22.53-.46,1.51-.9,2.53-.48.84-.99,1.67-1.45,2.54l-.7,1.3-.75,1.28c-.99,1.71-1.95,3.46-2.91,5.22-1.13,2.11-2,4.48-2.67,6.76-.09.31-.17.62-.24.93-.04.16-.06.31-.09.46-.03.14-.03.15-.04.22-.02.12-.03.25,0,.38.03.13.13.23.24.3.26.08.51-.12.71-.29.13-.11.41-.42.61-.63.21-.25.42-.49.62-.76.98-1.31,1.87-2.72,2.73-4.15,1.3-2.17,2.57-4.39,3.8-6.61.95-1.73,1.79-3.48,2.82-5.19.23-.38.44-.76.74-1.11,1.05-1.32,1.79-1.58,2.38-1.34.14.06.28.1.36.18.14.13.11.36.01.61-.1.26-.28.62-.57,1.06-1.7,2.99-3.44,6.07-5.21,9.18-1.36,2.37-2.75,4.75-4.31,7.09l-.05-.03Z"/><path class="cls-1" d="m137.43,417.97l.11.53s0,.07.01.1c.01.07.05.15.12.19.12.05.23-.03.31-.14.03-.05.02,0,.08-.15.05-.15.12-.28.17-.44.1-.31.2-.63.28-.96.2-.82.29-1.68.43-2.54.49-3.05.76-6.21,1.09-9.36.14-1.4.22-2.81.31-4.22.05-.9.16-1.8.32-2.7.09-.45.15-.9.32-1.34.16-.44.35-.87.56-1.29.28-.52.33-.41.44.1.05.25.16.62.28,1.04.06.21.15.44.19.68.03.23.05.48.04.73-.04.89.05,1.79-.04,2.69l-.16,2.71c-.12,1.81-.24,3.65-.49,5.49-.31,2.2-.34,4.51-.7,6.81-.17,1.03-.37,2.06-.73,3.13l-.15.41c-.06.17-.17.36-.26.54-.16.38-.41.67-.65.97-.5.56-1.22.83-1.94.73-.64-.15-1.17-.54-1.54-1.11-.12-.26-.29-.5-.38-.77-.09-.26-.22-.58-.25-.76-.11-.41-.17-.82-.23-1.22-.12-.8-.16-1.59-.2-2.37-.1-2.37.05-4.7.12-7.01.06-1.79.02-3.56.07-5.34.01-.39,0-.78.06-1.17.05-.36.11-.66.17-.91.07-.25.18-.44.28-.6.18-.32.43-.49.69-.61.12-.06.22-.14.3-.17.21-.11.69.54.88,1.62.23,1.6.09,3.19.06,4.81-.07,1.62-.14,3.25-.21,4.89-.04,2.4-.1,4.9.32,7.03l-.06.02Z"/><path class="cls-1" d="m102.68,397.82c-2.17,2.59-4.31,5.24-6.23,8.03-.7,1.02-1.36,2.06-2.01,3.11-2.45,3.61-4.56,7.44-6.43,11.38l-1.11,2.69-.53,1.35-.42,1.38c-.34,1.18-.73,2.36-1.02,3.55-.3,1.19-.69,2.36-1.23,3.52-.33.72-.54.59-.81-.13-.14-.36-.3-.87-.47-1.5-.13-.62-.18-1.33-.11-2.07.07-.66.24-1.3.41-1.93l.52-1.9.54-1.9.68-1.84c.87-2.48,2.16-4.78,3.41-7.08.83-1.33,1.59-2.74,2.34-4.15.82-1.38,1.6-2.79,2.45-4.14,1.94-2.93,3.96-5.79,6.15-8.52,1.32-1.7,2.73-3.33,4.14-4.96,2.14-2.46,4.43-4.79,6.76-7.08l.72-.66c.14-.12.2-.21.39-.35.19-.14.38-.28.58-.4.77-.35,1.55-.41,2.28-.41,1.43.05,2.68.36,3.86.6.52.11,1.02.16,1.51.25.9.18,1.4.22,1.79.4.37.17.63.41.91.74.13.16.3.3.4.45.18.26.11.54-.28.88-.37.34-1.09.66-1.98.69-1.32.07-2.54-.17-3.65-.4-1.1-.23-2.16-.47-2.93-.47-.18,0-.36,0-.48.04-.08,0-.13.02-.17.04l-.07.02h-.02s0,0,0,0h0s0,0,0,0h0c-.29-.77.64,1.72-.64-1.72.16.53.36,1.04.58,1.54l.08.19s0,0,0,.01h0s.01,0,.01,0h.02s.02,0,.02,0c.03-.03-.05.04-.09.08l-.14.13-.57.53c-.78.77-1.58,1.57-2.35,2.4-2.32,2.45-4.58,5.02-6.75,7.65l-.06-.05Z"/><path class="cls-1" d="m121.02,390.21c-2.44,2.92-4.92,5.79-7.39,8.66-.45.52-.89,1.06-1.32,1.59l-.65.8-.21.26-.09.09c-.22.22-.48.5-.78.84-.15.17-.31.35-.47.56-.08.1-.16.21-.23.34-.1.16.05.2.12.22.34.07.7-.11,1.09-.32.39-.22.81-.52,1.27-.87,1.64-1.33,3.21-2.83,4.74-4.32.99-.95,1.92-1.97,2.98-2.88,1.04-.92,2.11-1.84,3.53-2.41.44-.19.72-.15.74-.03.04.14-.11.35-.28.73-.18.36-.4.87-.66,1.49-.29.58-.71,1.16-1.24,1.74-.93,1.03-1.93,2-2.95,2.97-1.02.97-2.05,1.94-3.12,2.89-.54.47-1.08.94-1.63,1.4l-1.19.97c-.52.43-1.04.81-1.56,1.17-2.12,1.54-3.7,2.02-4.77,1.97-.34,0-.69-.03-1.05-.13-.17-.06-.35-.15-.52-.27-.01-.02-.06-.01-.05-.06l-.08-.05s-.07-.09-.08-.14c-.03-.09-.04-.16-.05-.23-.03-.27,0-.53.07-.83.05-.28.14-.62.31-1.02.1-.21.18-.41.34-.67l.22-.37.28-.41c.37-.54.88-1.14,1.32-1.7.8-.99,1.6-1.98,2.39-2.96l7.31-8.78c1.48-1.81,2.95-3.63,4.38-5.47,2.17-2.79,4.31-5.63,6.22-8.57,1.48-2.29,2.72-4.66,3.89-7.05.25-.53.5-1.04.77-1.57,1.01-1.94,1.41-2.51,2.21-2.69.17-.05.35-.13.48-.14.42-.06.61,1.01.04,2.6-.76,2.39-1.88,4.69-3.15,6.92-1.27,2.24-2.68,4.42-4.16,6.55-2.2,3.16-4.55,6.23-6.95,9.22l-.06-.04Z"/><path class="cls-1" d="m151.74,367.1c.02-.29.1-.59.15-.87.02-.1,0-.2.03-.3.11-.36.22-.7.37-1.02.06-.14.09-.29.12-.43.04-.18.06-.38.22-.53.05-.05.22,0,.4.09.18.09.38.22.41.31.07.35.17.67.02.99-.1.19,0,.4,0,.6,0,.22.02.44.02.67,0,.14,0,.28.02.42.02.21.04.43.13.62.09.14.22.26.32.38.02.03.05.05.07.08.04.12-.06.22-.4.42l-.23.14c-.26.15-.52.21-.69.16-.25-.07-.45-.19-.63-.33-.18-.14-.2-.34-.27-.53-.08-.28-.09-.58-.11-.87h.04Z"/><path class="cls-1" d="m148.24,365.79c.03-.4.07-.79.12-1.17.01-.14-.03-.27,0-.41.09-.49.22-.96.32-1.43.04-.2.06-.41.07-.61.01-.26-.02-.53.2-.76.07-.07.39-.02.71.07.33.1.69.25.73.38.07.24.13.47.15.69-.02.23-.07.46-.17.69-.12.29.02.57.03.86.02.31.04.64.06.95.02.2.04.39.06.59.04.3.07.61.21.87.1.21.37.35.51.53.03.04.06.08.07.13.02.19-.12.32-.56.58l-.3.17c-.33.18-.67.25-.93.19-.84-.14-.99-.68-1.15-1.17-.1-.38-.16-.77-.18-1.16h.06Z"/><path class="cls-1" d="m141.33,364.41c.01-.4.06-.81.12-1.2.02-.14-.02-.28,0-.43.09-.51.23-1.01.35-1.51.05-.22.11-.44.15-.67.07-.29.1-.61.45-.87.1-.07.26.1.45.3.18.19.43.34.47.45.05.18.11.41.14.63.03.23-.05.46-.13.71-.11.3.02.61.04.92.02.34.04.68.05,1.03.01.21.01.43.05.64.04.32.07.65.2.94.11.22.31.4.47.59.03.04.09.07.11.12-.05.22-.2.36-.58.59l-.25.15c-.27.15-.57.2-.88.15-.8-.23-1.02-.79-1.13-1.33-.09-.4-.1-.81-.13-1.22h.05Z"/><path class="cls-1" d="m137.57,364.16c-.02-.39-.01-.8,0-1.2,0-.14-.03-.29,0-.44.09-.52.22-1.06.51-1.53.11-.21.24-.41.35-.61.09-.12.17-.25.27-.36.11-.1.24-.18.39-.23.09-.03.23.17.34.4.11.23.23.5.19.59-.15.36-.14.65-.39.99-.15.22-.05.49-.05.76.01.29.04.61.08.92.03.2.06.39.12.59.08.29.14.61.27.89.1.22.31.39.48.59.04.04.09.08.11.13.09.19-.01.3-.44.52l-.29.15c-.33.15-.64.19-.82.11-.51-.26-.75-.68-.95-1.14-.14-.35-.16-.75-.22-1.13h.04Z"/><path class="cls-1" d="m135.59,363.5c1.86.56,3.9.94,5.94,1.28.75.12,1.51.16,2.26.28,2.66.46,5.35.88,8.02,1.56,1.19.29,2.39.55,3.58.89.76.23,1.51.53,2.23.94.7.42,1.35,1.02,1.82,1.72.29.45.06.5-.44.45-.47-.09-1.33-.02-2.09-.14-.67-.17-1.36-.31-2.06-.45-.68-.2-1.4-.36-2.12-.53-1.45-.33-2.95-.59-4.45-.99-1.81-.46-3.76-.54-5.66-.81-2.1-.3-4.21-.62-6.33-1.11-1.31-.31-2.62-.67-3.92-1.27-.49-.25-.99-.53-1.45-.95-.47-.39-.87-.99-1.08-1.66-.28-1.17-.2-2.26-.04-3.32.27-1.63.73-3.21,1.53-4.67.18-.32.36-.63.6-.91.43-.53.8-.81,1.12-.93.36-.08.65-.03.97.11.14.06.29.11.41.18.19.13.26.34.26.65,0,.31-.05.71-.25,1.08-.52,1.14-1,2.21-1.39,3.31-.35,1.09-.59,2.28-.51,3.22.02.17.04.32.07.45.01.08.03.03.02.05-.01,0-.01.02.02.04,0,.08.25.28.52.47.62.38,1.52.71,2.44.97v.07Z"/><path class="cls-1" d="m249.98,246.07c-1.79-.32-3.61-.59-5.24-.54-.4.02-.78.06-1.12.12-.17.04-.28.08-.46.13l-.6.25c-.81.34-1.63.75-2.43,1.17-1.17.64-2.29,1.37-3.43,2.09-2.02,1.24-3.99,2.59-5.9,4.03-1.93,1.41-3.79,2.93-5.58,4.53-1.59,1.42-3.09,2.96-4.49,4.54-1.87,1.98-3.35,4.28-5.43,6.11-.8.45-.87.26-.9-.67-.02-.93.24-2.45,1.28-3.68,3.55-4.45,7.59-8.55,12.22-11.99,2.76-2.05,5.57-4.27,8.6-6.09,1.67-1,3.37-1.93,5.22-2.71.41-.18,1.08-.42,1.61-.49.55-.1,1.08-.13,1.6-.14,1.03-.02,2.03.06,3,.18,2.4.3,4.71.81,7.01,1.32,3.48.8,6.91,1.74,10.33,2.52,2.66.6,5.31,1.02,7.95,1.4.58.07,1.15.15,1.74.22,1.08.16,1.78.29,2.26.49.48.23.74.48.94.86.09.17.22.35.27.51.08.28-.11.5-.54.68-.43.18-1.1.3-1.94.25-4.97-.23-9.99-1.41-14.96-2.58-3.69-.87-7.36-1.82-11-2.44v-.07Z"/><path class="cls-1" d="m281.95,251.64c.32-.16.64-.31.97-.45.12-.05.23-.12.35-.16.45-.12.9-.21,1.35-.27.21-.03.38-.06.59-.09.25-.04.49-.08.75,0,.08.02.09.16.05.33-.04.16-.12.38-.23.45-.2.12-.38.23-.59.36-.19.11-.42.11-.64.14-.28.02-.5.22-.74.34-.27.14-.56.25-.83.41-.17.09-.34.19-.5.29-.24.16-.5.32-.71.53-.16.17-.26.39-.41.56-.03.04-.05.09-.09.12-.13.13-.27.08-.52-.12l-.17-.14c-.18-.16-.27-.37-.25-.56.05-.25.14-.49.25-.7.14-.18.31-.34.49-.49.27-.22.57-.41.87-.6l.02.03Z"/><path class="cls-1" d="m286.54,257.58c.25-.1.51-.19.76-.29.09-.04.16-.12.26-.15.35-.12.72-.19,1.1-.2.16-.02.31-.07.46-.12.19-.07.37-.16.6-.06.07.03.12.3.13.58.02.28.02.6-.06.65-.26.21-.49.38-.83.4-.23-.02-.37.15-.55.24-.21.1-.43.21-.65.31-.14.07-.28.14-.41.22-.2.13-.44.21-.62.36-.14.12-.23.31-.36.47-.03.03-.05.08-.08.1-.14.08-.24,0-.48-.33l-.16-.23c-.17-.27-.26-.53-.24-.68.06-.45.26-.68.49-.91.16-.18.41-.25.63-.39l.03.04Z"/><path class="cls-1" d="m287.55,262.93c.26-.18.54-.37.85-.52.11-.05.2-.15.32-.2.43-.16.9-.23,1.33-.28.2,0,.38-.05.57-.07.23-.05.47-.1.71.07.07.05.06.37,0,.7-.05.33-.11.69-.2.75-.15.1-.28.18-.41.24-.13.05-.29,0-.47-.03-.23-.05-.37.14-.54.24-.22.12-.44.24-.66.35-.14.09-.28.17-.41.28-.2.16-.42.31-.58.52-.12.17-.17.4-.3.57-.03.04-.04.09-.07.12-.13.12-.26.08-.57-.19l-.22-.19c-.23-.22-.37-.46-.39-.62-.01-.24,0-.47.04-.67.07-.17.18-.33.31-.48.18-.22.41-.43.65-.64l.03.03Z"/><path class="cls-1" d="m283.69,259.55c-1.02-1.76-2.22-3.44-3.58-4.99-.52-.55-1.05-1.08-1.59-1.6-.45-.46-.91-.92-1.39-1.35l-.71-.66-1.16-.94-.39-.57-.2-.28-.02-.03v-.02s-.01,0-.01,0c-.06,0,.08-.01.07,0h0s0,0,0,0h0s-.02-.07-.03-.1c-.02-.06,0-.11-.01-.17.1-.44.41-.88.79-1.28.88-.91,1.34-1.21,1.99-1.67,1.06-.74,2.21-1.38,3.45-1.83.79-.29,1.65-.5,2.53-.53.44-.03.89.02,1.32.13.21.07.43.12.63.21.2.09.39.24.56.38.43.38.24.53-.28.81-.56.33-1.27.81-1.94.86-1.23.04-2.5.51-3.72,1.18-.6.35-1.21.71-1.79,1.13l-.41.3-.11.04c-.08.04-.18.08-.29.18-.04.07.04.12.09.19l.19.18.31.27.96.82c.64.55,1.26,1.13,1.85,1.72,1.55,1.59,2.92,3.34,4.12,5.19.75,1.14,1.4,2.33,2.02,3.54.91,1.84,1.63,3.78,2.24,5.72.43,1.52.91,3,1.17,4.55.06.34.14.67.19,1.02.1,1.29-.05,1.71-.46,2.01-.1.07-.19.16-.29.2-.32.14-.66-.35-.93-1.23-.36-1.3-.73-2.61-1.16-3.91-.43-1.3-.92-2.58-1.36-3.88-.73-1.91-1.6-3.77-2.68-5.52l.05-.03Z"/><path class="cls-1" d="m417.65,257.38l11.5.61c1.4.07,2.8.04,4.19.13,2.46.15,4.93.29,7.39.48l7.38.56c2.18.15,4.38.23,6.55.3,2.79.1,5.58.26,8.35.81.86.16.74.24,0,.45-.45.13-.98.29-1.54.45-.64.21-1.38.37-2.19.42l-2.14.15-1.07.08h-1.07s-4.27,0-4.27,0c-2.85-.03-5.7-.11-8.56-.28-3.42-.19-6.99-.16-10.5-.22l-11.57-.32c-2.37-.06-4.75-.12-7.12-.18-3.59-.08-7.21-.19-10.77-.14-2.77.07-5.49.21-8.23.31-.6.02-1.19.07-1.8.06-1.13,0-1.87-.06-2.4-.22-.52-.19-.83-.43-1.07-.79-.11-.16-.26-.32-.33-.47-.11-.26.06-.5.47-.73.41-.23,1.05-.49,1.88-.61,4.9-.77,10.09-1.25,15.29-1.14,3.86.01,7.74.08,11.61.21v.09Z"/><path class="cls-1" d="m377.4,273.08c1.13-.23,23.15-2.17,24-4.94.85-2.77-13.72-5.94-13.72-5.94l-.94,5.91-9.34,4.97Z"/><path class="cls-1" d="m164.21,430.69c-1.3,1.7-2.62,3.4-3.95,5.1-.49.62-.92,1.28-1.42,1.89-1.76,2.16-3.59,4.29-5.64,6.25-.92.87-1.88,1.72-3.01,2.41-.71.45-1.56.82-2.51.88-.97.11-1.96-.43-2.5-1.1-.37-.42-.08-.54.45-.56.26-.01.57,0,.9-.07.31,0,.6-.21.86-.19.97-.05,2.18-.95,3.24-1.92,1.12-.95,2.21-2.06,3.32-3.19,1.33-1.35,2.43-3.02,3.6-4.58l3.89-5.19,2.44-3.18c1.23-1.61,2.53-3.19,3.8-4.76,1-1.21,1.95-2.45,3.05-3.59.24-.25.46-.52.76-.73,1.04-.81,1.52-.89,1.99-.71.11.05.23.08.32.14.28.2.04.74-.52,1.44-.79,1.1-1.67,2.13-2.51,3.24-.42.56-.84,1.11-1.27,1.68l-1.33,1.67c-1.31,1.67-2.62,3.37-3.9,5.11l-.05-.03Z"/><path class="cls-1" d="m281.11,170.33c.23.91.49,1.82.78,2.71.11.32.28.62.38.95.37,1.14.78,2.28,1.34,3.33.13.23.27.45.42.67l.49.6c.43.51.94.86,1.14,1.67.07.25-.03.36-.37.49-.17.07-.41.15-.7.22-.27.05-.55.03-.76-.07-1.44-.87-2.24-2.32-2.76-3.76-.29-.88-.82-1.65-1.17-2.5-.39-.93-.68-1.89-.96-2.84l-.5-1.76c-.25-.89-.45-1.79-.75-2.65-.23-.67-.57-1.29-.82-1.95-.05-.15-.11-.28-.14-.44-.06-.58.08-.8.54-1.05.1-.06.2-.12.31-.16.34-.15.73,0,1.06.33.25.25.46.52.65.79.16.28.31.57.45.86.3.57.46,1.19.66,1.8.26.91.53,1.82.8,2.74l-.06.02Z"/><path class="cls-1" d="m250.63,203.46c-3.36,4.81-8.41,8.27-13.87,9.96l-1.5.45-1.53.35c-1.01.27-2.06.34-3.09.48-3.66.29-7.35-.15-10.83-1.19-3.47-1.03-6.75-2.59-9.71-4.67-2.64-1.82-4.95-4.09-6.93-6.56-2.56-3.15-4.48-6.85-5.29-10.79-.24-1.23-.06-1.11.68-.28.74.83,2.16,2.27,3.35,4.1.51.82,1,1.65,1.57,2.42.29.38.52.8.8,1.18l.83,1.15c1.16,1.5,2.43,2.9,3.82,4.17,2.79,2.52,6.04,4.57,9.66,6.01,2.15.84,4.44,1.47,6.81,1.64,2.36.2,4.75.08,7.07-.31,5.11-.88,9.92-3.41,13.45-7.22,2.18-2.34,3.82-5.14,5.02-8.18,1.85-4.57,2.7-9.59,2.75-14.53.04-3.86-.59-7.61-1.31-11.34-.15-.82-.38-1.61-.54-2.44-.66-3.05-.64-4.09-.1-4.95.1-.19.17-.43.26-.54.14-.2.37-.01.82.47.47.48.91,1.31,1.33,2.44,2.4,6.69,3.28,14.38,2.34,22.01-.67,5.67-2.48,11.31-5.81,16.22l-.07-.04Z"/><path class="cls-1" d="m264.03,146.57l-.05-.95-.02-.48-.07-.43c-.04-.28-.08-.57-.18-.85-.08-.28-.15-.57-.28-.84-.45-1.1-1.16-2.13-2.06-2.96-.64-.64-1.47-1.01-2.25-1.39-1.42-.6-3.02-.79-4.54-.32-1.52.5-2.96,1.4-3.77,2.82-.77,1.24-1.07,2.79-1.16,4.32-.05.99.02,1.99.11,2.99.05,1.01.06,2.04.05,3.09-.01.66-.21.62-.66.15-.44-.47-1.29-1.37-1.63-2.61-.38-2.21-.46-4.57.21-6.95.35-1.17.91-2.35,1.77-3.34.83-1.01,1.95-1.73,3.04-2.26,1.37-.59,2.87-.97,4.4-.95,1.53.01,3.05.41,4.36,1.13,2.87,1.59,4.95,4.42,5.52,7.64.3,1.9.27,3.82-.13,5.71-.26,1.43-.88,2.79-1.61,4.04-.75,1.26-1.76,2.32-2.83,3.28-1.71,1.44-3.66,2.57-5.81,3.21-.47.13-.93.33-1.43.36-.46.05-.84.08-1.16.08-.32-.01-.58-.11-.79-.19-.42-.17-.66-.42-.84-.77-.08-.16-.19-.32-.24-.47-.15-.51.54-1,1.65-1.4,1.64-.52,3.22-1.02,4.64-1.81,1.42-.78,2.68-1.79,3.63-3.05.69-.95,1.23-2.01,1.59-3.16.34-1.16.47-2.39.46-3.65h.08Z"/><path class="cls-1" d="m167.99,117.83c-2.43,4.01-4.43,8.36-5.69,12.91l-.35,1.25c-.09.42-.16.85-.24,1.27-.15.85-.34,1.69-.48,2.54-1,5.99-.95,12.21.11,18.31.42,2.71,1.14,5.39,1.91,8.01.24.84.54,1.67.81,2.51.27.84.53,1.68.82,2.51.59,1.66,1.03,3.38,1.31,5.16.17,1.11-.07,1.05-.82.32-.37-.36-.92-.87-1.47-1.53-.27-.33-.6-.68-.85-1.09-.23-.42-.44-.87-.62-1.35-1.33-3.42-2.34-6.97-3.13-10.58-.79-3.62-1.33-7.32-1.38-11.07-.11-4.47-.04-9.16.86-13.67.99-4.95,2.79-9.71,5.14-14.12,1.38-2.73,3.14-5.39,5.23-7.69,3.17-3.5,7.15-6.3,11.59-7.92,3.43-1.28,7.13-1.84,10.81-1.39.8.14,1.62.16,2.4.4,1.47.41,2.42.74,2.99,1.18.59.39.84.81.96,1.29.06.22.15.44.16.61.02.56-1.31.67-3.19.09-2.85-.74-5.83-.96-8.75-.53-2.92.42-5.78,1.48-8.41,3.02-1.97,1.12-3.77,2.56-5.4,4.18-1.63,1.62-3.1,3.44-4.27,5.42l-.07-.03Z"/><path class="cls-1" d="m252.4,91.27c1.86,1.2,3.75,2.35,5.47,3.74.86.69,1.79,1.3,2.6,2.04l2.48,2.18c3.21,3,6.22,6.21,8.9,9.63,1.02,1.22,1.98,2.48,2.94,3.73.98,1.24,1.9,2.52,2.81,3.81,6.37,9.09,11.92,18.61,19.19,26.74,3.22,3.55,6.97,6.67,11.03,9.13,2.61,1.58,5.39,2.87,8.26,3.83,2.87.98,5.83,1.55,8.86,1.92,1.91.43,1.7.32.05.88-.41.18-.92.3-1.52.4-.59.1-1.28.26-2.02.31-1.49.1-3.27-.02-5.1-.49-3.27-.79-6.33-2.2-9.22-3.82-2.88-1.64-5.59-3.56-8.08-5.73-1.23-1.1-2.43-2.24-3.56-3.45-1.16-1.19-2.15-2.47-3.22-3.7-1.06-1.24-2-2.56-3-3.85-.97-1.3-1.88-2.64-2.82-3.96-4.37-6.39-8.82-13.02-13.47-19.26-2.55-3.44-5.26-6.73-8.15-9.85-.73-.77-1.5-1.5-2.24-2.26l-1.13-1.13-1.19-1.05-2.39-2.09-2.53-1.92c-1.02-.82-2.13-1.5-3.22-2.21-1.1-.71-2.18-1.44-3.35-2.01-1.16-.6-2.29-1.26-3.47-1.82-1.2-.5-2.38-1.05-3.59-1.51-3.69-1.36-7.57-2.21-11.48-2.5-3.91-.32-7.87.1-11.58,1.22l-1.09.31c-.36.12-.7.28-1.05.41l-2.07.86c-.66.33-1.3.72-1.95,1.08l-.97.54c-.32.18-.6.43-.91.64l-1.79,1.3c-.58.45-1.09.99-1.64,1.48-1.14.94-2.03,2.13-3,3.23-.45.47-.77,1.04-1.14,1.56-.36.53-.73,1.06-1.1,1.6-.66,1.02-1.1,1.93-1.55,2.65-.22.36-.43.69-.61.98-.16.31-.3.59-.46.83-.6.97-1.1,1.48-1.66,1.84-.26.16-.54.4-.75.48-.36.13-.45-.32-.3-1.27.07-.48.21-1.07.4-1.79.09-.36.21-.74.35-1.14.15-.4.36-.8.57-1.23,2.37-5.18,6.25-10,11.33-13.41,5.08-3.43,11.29-5.13,17.42-5.38,4.57-.15,9.14.53,13.48,1.82,1.07.36,2.16.68,3.22,1.08l3.12,1.33c1.04.45,1.99,1.02,2.99,1.53.98.54,2.01.99,2.93,1.62l-.03.07Z"/><path class="cls-1" d="m302.96,163.9c.96,1.3,1.94,2.6,3.01,3.81.39.44.83.84,1.24,1.27,1.37,1.57,2.87,3.03,4.43,4.43.69.62,1.47,1.14,2.24,1.63.99.64,1.97,1.29,2.9,2.06.29.25.12.51-.33.69-.44.17-1.2.34-1.92.13-.61-.22-1.23-.43-1.82-.69-.55-.33-1.09-.67-1.63-1.02-1.04-.75-2.06-1.53-2.92-2.49-1.04-1.13-2.3-2.09-3.39-3.2-1.18-1.23-2.31-2.51-3.37-3.84-.67-.81-1.29-1.65-1.93-2.47-.94-1.27-1.81-2.59-2.74-3.85-.7-1-1.59-1.84-2.25-2.86-.16-.22-.32-.42-.46-.66-.5-.87-.46-1.25.03-1.78.11-.12.22-.25.34-.35.4-.33,1.01-.22,1.55.28,1.67,1.42,2.88,3.2,4.18,4.95.96,1.3,1.92,2.61,2.91,3.91l-.06.05Z"/><path class="cls-1" d="m175.89,192.93c-.21,2.24-.44,4.48-.76,6.72-.11.82-.13,1.64-.28,2.45-.48,2.87-1.2,5.7-2.05,8.48-.35,1.24-.71,2.48-1.06,3.71-.29.77-.56,1.55-.87,2.31-.37.74-.85,1.43-1.31,2.12-.31.42-.5.25-.68-.28-.16-.53-.42-1.47-.33-2.4.15-.8.32-1.58.49-2.36.2-.77.43-1.53.66-2.29.44-1.53.89-3.07,1.34-4.63.56-1.87.68-3.9.94-5.88.25-2.18.49-4.37.63-6.58.1-1.36.17-2.72.23-4.09.06-2.07.17-4.15.12-6.21-.02-1.6-.32-3.17-.39-4.76-.02-.35-.07-.69-.07-1.05-.02-1.31.26-1.73,1.01-2.01.17-.06.34-.15.5-.19.28-.06.53.04.77.28.23.24.46.61.56,1.08.75,2.82.85,5.81.87,8.83.03,2.24-.13,4.5-.25,6.76h-.08Z"/><path class="cls-1" d="m188.26,206.17c-.09,1.17-.2,2.34-.33,3.5-.04.43-.02.86-.08,1.28-.22,1.5-.48,3-.89,4.48-.17.66-.29,1.33-.45,1.99-.2.84-.48,1.73-1.14,2.43-.2.22-.51-.03-.79-.42-.28-.41-.55-.89-.51-1.33l.09-.56c.02-.2.03-.4.06-.59.1-.37.17-.76.26-1.15.18-.78.34-1.58.6-2.39.31-.97.28-2.03.37-3.06.11-1.13.21-2.28.28-3.42.04-.71.09-1.41.1-2.12.03-1.07.05-2.15,0-3.22-.05-.83-.25-1.63-.38-2.44-.03-.18-.06-.35-.07-.54,0-.68.22-.9.72-1.08.12-.04.23-.09.34-.12.38-.09.74.16,1.01.65.38.72.53,1.48.67,2.24.12.77.22,1.55.24,2.34.04,1.17,0,2.35-.05,3.53h-.06Z"/><path class="cls-1" d="m348.93,210.43c10.44,7.97,20.04,17.07,28.14,27.47,2.94,3.8,5.75,7.73,8.07,12,1.38,2.51,2.57,5.15,3.47,7.94.44,1.4.8,2.84,1,4.35.19,1.53.24,3.05-.21,4.79-.11.27-.23.53-.37.79-.15.24-.35.44-.5.63-.33.34-.66.6-.99.84-.65.46-1.31.83-1.97,1.17-1.31.68-2.65,1.18-3.99,1.68-2.68.95-5.4,1.69-8.14,2.33-5.47,1.27-11.01,2.1-16.56,2.66-7.41.76-14.89,1.08-22.28,1.02-4.74-.04-9.49-.22-14.23-.6-4.74-.37-9.46-.93-14.1-1.9-2.85-.9-2.44-.86.11-1.15,2.55-.22,7.15-.35,12.52.11,9.53.79,19.09.95,28.64.45,4.77-.26,9.54-.68,14.27-1.34,4.73-.65,9.45-1.51,14.06-2.73,2.09-.55,4.16-1.2,6.15-2,.99-.41,1.98-.84,2.86-1.36.45-.25.87-.53,1.21-.81.16-.14.35-.28.42-.39.1-.08.1-.16.16-.24.16-.59.2-1.46.16-2.25-.04-.81-.19-1.65-.38-2.49-.38-1.68-1-3.35-1.71-4.99-1.46-3.27-3.23-6.46-5.21-9.49-3.49-5.39-7.58-10.43-11.96-15.18-4.39-4.75-9.11-9.22-14.08-13.38-6.11-5.13-12.6-9.85-19.38-14.06-10.28-6.39-21.25-11.81-32.59-15.82-8.81-3.13-17.74-5.31-26.82-6.88-2-.34-3.97-.62-5.99-.91-1.87-.3-3.43-.54-4.73-.75-1.3-.2-2.36-.37-3.22-.57-1.72-.41-2.71-.77-3.49-1.21-.36-.2-.84-.39-1.04-.54-.35-.27.26-.42,1.68-.58,1.42-.18,3.63-.23,6.45-.02,16.73,1.31,34.12,6,50.4,13.22,12.1,5.36,23.61,12.18,34.21,20.15l-.04.08Z"/><path class="cls-1" d="m315.19,231.3c-1.4-.75-2.79-1.52-4.18-2.32-.5-.3-1.04-.52-1.54-.83-.86-.57-1.73-1.11-2.57-1.72l-1.26-.9c-.41-.32-.8-.65-1.21-.98-.72-.58-1.43-1.15-2.14-1.73-.42-.41-.86-.81-1.27-1.23-.41-.42-.66-1.01-.95-1.52-.16-.34.03-.42.45-.39.21.01.49.05.8.11.15.03.31.06.47.11.08.02.15.05.24.07.06.04.13.08.19.13.93.62,1.83,1.24,2.71,1.91.43.35.9.65,1.35.99.45.34.87.72,1.33,1.07,1.05.89,2.37,1.48,3.6,2.17,1.35.76,2.73,1.5,4.13,2.2.86.44,1.72.86,2.6,1.28,1.33.62,2.65,1.26,4.02,1.78,1.06.4,2.16.65,3.25.99.24.08.49.12.72.24.42.19.7.38.83.61.12.26.14.51.1.82-.02.14-.02.28-.05.4-.05.2-.2.34-.44.46-.24.11-.58.23-.9.16-2.01-.25-3.97-1.04-5.95-1.83-1.46-.6-2.91-1.29-4.36-1.97l.03-.06Z"/><path class="cls-1" d="m292.88,238.03c-2,.68-3.96,1.47-5.86,2.38-.47.23-.94.47-1.4.71l-.69.37-.17.1-.04.02-.08.04c-.1.05-.21.11-.32.18-.04.03-.15.07-.13.12l.14.1.1.07.22.13.03.02s0,0,.04.03l.23.15.45.3c.6.41,1.22.79,1.78,1.26,2.3,1.76,4.35,3.79,6.24,5.96,1.89,2.16,3.55,4.52,4.96,7.01,1.26,2.2,2.41,4.49,3.27,6.87.31.75.54,1.53.78,2.31.26.77.44,1.57.61,2.38.2.8.28,1.62.36,2.43.03.41.09.81.07,1.23.02.2-.06.41-.09.62-.06.21-.05.41-.16.62-.21.51-.35.72-.44.71-.1-.01-.2-.26-.53-.66-.73-.82-1.46-2.19-1.78-3.87-.61-2.98-1.67-5.89-3.02-8.66-1.32-2.79-2.94-5.48-4.81-8.02-2.26-3.04-5.29-5.64-8.45-7.84l-1.01-.7-1.7-1.02-.97-1.17-.03-.04-.02-.02h0s0-.01,0-.01c-.14,0,.19-.01.15-.01h0s-.02-.07-.02-.1v-.16c-.03-.11.02-.21.08-.32.11-.21.3-.44.53-.65.49-.43,1.11-.83,1.72-1.2l.46-.28.32-.18.61-.33c1.62-.87,3.29-1.63,4.98-2.31,2.55-1.02,5.17-1.85,7.82-2.52,4.02-1.01,8.16-1.57,12.26-1.79,3.19-.18,6.33-.24,9.5,0,.7.05,1.38.1,2.08.19,2.59.36,3.37.78,3.76,1.57.09.18.22.37.25.54.12.56-.99.77-2.82.6-5.44-.52-11.14-.66-16.81.05-4.21.51-8.39,1.45-12.41,2.87l-.03-.06Z"/><path class="cls-1" d="m243.16,267.18c3.06-.98,6.12-2.12,9.2-3.27,1.16-.42,2.15-.93,3.54-1.31.17-.05.43-.09.65-.11.22,0,.46,0,.67.02.41.03.65.11.99.17.56.14,1.09.29,1.59.45,1.02.3,1.99.59,2.99.83,1.98.49,3.98.83,6.02.9,1.81.05,3.62-.17,5.38-.55,2.26-.52,4.39-1.36,6.74-1.87.73-.16.76.09.35.71-.2.31-.51.72-.92,1.19-.21.23-.42.5-.69.71-.28.18-.58.35-.91.5-1.16.54-2.37,1-3.62,1.33-1.26.28-2.53.54-3.83.65-2.59.25-5.22.08-7.74-.47-1.47-.36-2.97-.73-4.47-1.09-.73-.18-1.46-.35-2.01-.42-.09.01-.15,0-.22,0-.04,0-.15.03-.31.08l-.99.35c-3.04,1.12-6.16,2.36-9.3,3.46-1.95.68-3.87,1.31-5.94,1.87-1.19.32-2.39.57-3.44.65-1.07.08-1.9-.02-2.67-.31-.31-.13-.64-.32-.88-.64-.27-.31-.31-.79-.19-1.09.23-.62.62-1.1,1.18-1.65.82-.92,2.72-1.87,3.96-2.68.99-.63,1.97-1.26,2.9-1.91.41-.29.79-.59,1.17-.88.75-.5,1.16-.83,1.51-.99.23-.05.36-.11.55-.14.12-.06.27-.1.41-.15.12-.04.24-.14.35-.18.17-.08.31.09.31.59-.01.24-.04.55-.12.91-.06.37-.32.67-.56,1-.74.98-1.65,1.68-2.54,2.35-.9.67-1.83,1.28-2.74,1.88-.13.17.03.1.01.11h0s-.03.04,0,.05c0,0,0,0,0,0l.49-.13,1.03-.3c.69-.21,1.38-.43,2.06-.67l.03.07Z"/><path class="cls-1" d="m233.71,258.32c-.64.29-1.26.6-1.88.92-.64.33-1.11.6-1.67,1.03-.4.29-.74.66-1.14.98-1.41,1.12-2.78,2.36-4.15,3.59-.61.55-1.17,1.15-1.71,1.75-.7.77-1.31,1.65-2.38,2.08-.36.11-.44-.04-.51-.49-.12-.5-.16-1.22.17-1.73.61-.88,1.35-1.65,2.07-2.45.74-.78,1.52-1.53,2.4-2.19,1.04-.8,1.92-1.84,2.96-2.72.58-.48,1.16-.95,1.84-1.4.68-.42,1.31-.75,1.97-1.1.8-.42,1.62-.82,2.43-1.21,1.24-.59,2.51-1.11,3.78-1.65.98-.42,1.93-.94,3.04-1.19.25-.05.48-.14.74-.13.99,0,1.35.31,1.45.8.03.11.06.22.06.32,0,.33-.37.63-.84.87-.37.18-.73.42-1.11.58-.39.2-.75.42-1.16.58-.81.32-1.66.68-2.51,1.04-1.26.55-2.56,1.12-3.81,1.76l-.03-.05Z"/><path class="cls-1" d="m237.88,262.58c-1.03.5-2.06,1.02-3.06,1.58-.36.21-.67.47-1,.68-1.19.74-2.41,1.55-3.54,2.53-.5.43-.96.92-1.4,1.42-.6.61-1.17,1.26-2.06,1.59-.27.11-.42-.09-.5-.5-.04-.2-.08-.46-.1-.75-.03-.29,0-.58.14-.78.23-.37.45-.76.71-1.11.29-.32.59-.64.9-.95.62-.62,1.3-1.22,2.06-1.75.9-.64,1.72-1.46,2.69-2.08,1.05-.66,2.1-1.21,3.17-1.77l1.98-1c1.01-.48,2.02-.97,3.03-1.45.39-.19.76-.42,1.14-.64.37-.24.76-.45,1.18-.59.18-.07.37-.15.56-.2.36-.1.63-.08.83.02.21.13.34.3.46.52.05.1.12.19.15.28.06.15.03.31-.05.51-.08.2-.2.48-.4.61-.59.47-1.12,1-1.78,1.32-.64.34-1.32.69-2,1.02-1.01.51-2.05,1.01-3.06,1.56l-.03-.06Z"/><path class="cls-1" d="m154.55,293.4c4.53-7,9.04-14.01,13.4-21.1,1.6-2.58,3.07-5.24,4.64-7.83,5.49-9.18,10.77-18.48,15.43-28.1,1.01-2.14,2.05-4.28,2.96-6.47.46-1.09.93-2.18,1.39-3.27.43-1.1.86-2.2,1.29-3.29.55-1.4,1.09-2.82,1.56-4.25.48-1.43,1.02-2.84,1.48-4.28.46-1.44.93-2.87,1.42-4.3.24-.71.45-1.44.68-2.15.24-.71.52-1.42.83-2.11.86-1.71,1.04-1.42,1.27.3.11.86.25,2.09.11,3.49-.09,1.42-.46,3.02-.96,4.71-3.75,11.98-8.95,23.41-15.07,34.37-3.67,6.55-7.32,13.45-11.22,20.05-4.28,7.26-8.74,14.4-13.23,21.52-2.77,4.37-5.54,8.74-8.3,13.11-4.16,6.63-8.38,13.27-12.13,20.05-2.91,5.27-5.45,10.61-7.51,16.09-.49,1.2-.78,2.41-1.21,3.62-.35,1.13-.58,2.07-.84,2.85-.21.78-.35,1.4-.56,1.91-.1.25-.21.48-.31.69-.08.2-.17.39-.26.55-.2.33-.43.6-.68.85-.23.22-.46.53-.67.67-.36.24-.64-.14-.9-1.11-.32-.98-.3-2.5,0-4.39,1.09-5.53,3.29-10.75,5.75-15.83,2.48-5.08,5.3-10.02,8.2-14.91,4.32-7.26,8.87-14.37,13.36-21.49l.08.04Z"/><path class="cls-1" d="m144.88,354.79c2.29.46,4.61.82,6.96,1.08.86.1,1.72.08,2.58.18,3.03.34,6.08.64,9.14.76,1.36.04,2.73.06,4.07.02,1.73-.12,3.48.04,5.23.25.55.08.49.31.04.67-.44.34-1.26.9-2.26,1.17-3.54.88-7.15.86-10.76.5-2.16-.24-4.42-.09-6.63-.29-2.43-.2-4.86-.51-7.28-.9-1.49-.25-2.97-.53-4.45-.85-2.24-.48-4.45-1.13-6.63-1.84-1.69-.56-3.41-1.05-5.07-1.87-.36-.19-.72-.37-1.06-.61-1.32-.84-1.23-1.72-1.06-2.34.05-.15.07-.31.13-.42.1-.19.31-.25.66-.27.35-.02.84-.03,1.31.13,1.32.53,2.62,1.07,4,1.59,1.38.51,2.81.99,4.29,1.41,2.19.63,4.48,1.15,6.79,1.55v.08Z"/><path class="cls-1" d="m203.24,304.89c-1.99,4.31-4.04,8.59-6.11,12.85-.76,1.56-1.44,3.14-2.21,4.69-2.74,5.44-5.59,10.83-8.5,16.18-1.28,2.38-2.56,4.78-3.83,7.15-.82,1.52-1.65,3.04-2.56,4.53-.94,1.48-1.81,2.97-3.38,4.18-.14.09-.28.16-.39.21-.15.05-.26.08-.37.08-.28-.01-.37-.07-.35-.16.01-.09.12-.2.19-.33.07-.15.13-.34.19-.58.13-.53.29-1.18.46-1.89.23-.74.59-1.55,1.09-2.38,3.49-5.93,6.64-12.19,10.05-18.36,2.03-3.7,3.77-7.74,5.59-11.66,2-4.3,3.99-8.62,5.9-12.97,1.18-2.67,2.35-5.36,3.46-8.05,1.71-4.08,3.42-8.19,4.88-12.33,1.14-3.22,2-6.45,2.88-9.7.2-.71.34-1.43.58-2.13.42-1.31.73-2.17,1.09-2.73.4-.55.77-.83,1.22-1.01.2-.08.41-.21.58-.25.29-.06.47.21.59.77.12.56.21,1.42.02,2.44-.44,3.06-1.32,6.08-2.24,9.12-.95,3.04-2.04,6.07-3.18,9.08-1.7,4.47-3.57,8.9-5.54,13.27l-.08-.03Z"/><path class="cls-1" d="m155.59,419.3c-1.55,2.76-3.05,5.54-4.47,8.35-1.41,2.81-2.74,5.67-3.78,8.58-.38,1.06-.7,2.14-.95,3.2-.13.53-.22,1.06-.3,1.59-.04.26-.06.52-.09.77l-.04.59c0,.22,0,.45.12.67.05.11.17.25.29.15.11-.06.19-.15.28-.25.09-.11.15-.18.27-.34.25-.36.49-.73.73-1.11.95-1.51,1.86-3.1,2.75-4.69l5.27-9.64c1.74-3.19,3.47-6.42,5.28-9.57,1.17-2.01,2.34-4.05,3.74-5.95,1.4-1.89,2.93-3.79,5.07-5.09.73-.32,1.11-.32,1.14-.21.05.13-.22.43-.52,1-.33.59-.75,1.35-1.22,2.21-.48.91-1.06,1.93-1.79,2.98-5.14,7.59-9.38,16.08-14.14,24.35-1.01,1.74-2,3.53-3.06,5.32l-.83,1.34-.52.79c-.25.34-.49.71-.77,1.02-.53.65-1.11,1.13-1.69,1.33-.29.1-.62.16-.97.07-.17-.05-.31-.14-.44-.23-.14-.08-.27-.18-.39-.31-.82-.84-1.25-2.2-1.26-3.65-.02-.41,0-.59.02-.84.01-.25.05-.48.07-.71.06-.47.14-.93.24-1.38.74-3.31,2.01-6.31,3.33-9.27,1.33-2.96,2.79-5.83,4.31-8.68,1.86-3.5,3.82-6.94,5.79-10.36,1.51-2.58,3.02-5.17,4.53-7.75.75-1.29,1.51-2.57,2.23-3.87l1.06-1.95c.4-.75.56-1.06.73-1.44.06-.15.13-.29.18-.45.02-.07.05-.15.04-.23-.04-.08-.14-.08-.21-.1-.32-.06-.64-.08-.95-.1-1.07-.07-2.14-.14-3.2-.21-2.29-.17-4.6-.39-6.91-.81-1.02-.18-2.02-.38-3.03-.67-1.88-.54-3.08-1.11-3.85-1.63-.77-.53-1.1-1.04-1.23-1.62-.06-.26-.17-.55-.17-.75.05-.7,1.55-.36,3.99.42,3.69,1.1,7.7,1.67,11.84,2.11l1.57.16.79.08.57.06.78.1c1,.14,2.12.29,2.49.9l.3.45.02.03v.02s.02,0,.02,0c-.02.02.22-.12.12-.06l.03.06s.05.09.06.13c.03.08.07.16.09.25.06.35.08.74-.02,1.2-.22.9-.8,1.93-1.22,2.75l-.81,1.45-1.64,2.82c-3.21,5.56-6.52,11.05-9.59,16.65l-.06-.02Z"/><path class="cls-1" d="m104.84,439.97c3.01.26,6.04.46,9.1.69,1.12.08,2.24.09,3.38.22,1.96.23,3.91.49,5.86.78,1.95.31,3.9.67,5.84,1.06,1.72.35,3.45.71,5.16,1.05,2.19.46,4.4.92,6.37,2.11.6.41.47.51-.2.73-.69.28-1.89.57-3.14.41-.28-.04-.56-.07-.83-.11l-.81-.19-1.63-.36-3.26-.67c-2.18-.43-4.37-.82-6.59-1.23-2.64-.51-5.51-.67-8.23-.91-3.02-.24-6.09-.41-9.16-.62-1.89-.13-3.78-.29-5.68-.46-2.87-.27-5.75-.65-8.59-1.17-2.21-.4-4.42-.75-6.61-1.62-.48-.19-.97-.37-1.42-.68-1.7-1.1-1.93-1.95-1.68-2.65.05-.17.09-.34.17-.47.27-.39,1.04-.14,2.06.33,3.08,1.4,6.95,2.2,10.91,2.76,2.95.41,5.97.71,9.01.91v.07Z"/><path class="cls-1" d="m103.28,446.51c2.06.27,4.15.51,6.26.72.77.08,1.55.08,2.32.17,2.72.33,5.47.64,8.17,1.24,1.2.24,2.41.49,3.6.76,1.52.36,3.03.88,4.41,1.63.43.23.29.41-.19.52-.47.1-1.28.2-2.14.07-.76-.13-1.52-.22-2.28-.32-.75-.14-1.5-.26-2.26-.37-1.51-.24-3.04-.41-4.58-.72-1.85-.34-3.81-.34-5.74-.47-2.12-.15-4.26-.29-6.4-.52-1.32-.14-2.64-.31-3.95-.5-1.99-.29-3.98-.71-5.94-1.17-1.52-.35-3.05-.66-4.55-1.15-.33-.1-.67-.18-.98-.35-1.17-.57-1.43-.99-1.39-1.63.01-.15,0-.31.04-.44.12-.45.75-.57,1.62-.36,1.33.22,2.56.65,3.87.97,1.29.35,2.63.65,3.98.92,2,.4,4.06.73,6.15.95v.06Z"/><path class="cls-1" d="m125.53,263.1c-5.76-.11-11.52-.22-17.28-.23-2.1-.01-4.2.09-6.3.08-7.4,0-14.81.03-22.2.31-1.64.05-3.29.14-4.92.25-1.64.1-3.28.2-4.9.3-4.18.3-8.35.76-12.58.52-1.32-.07-1.15-.17-.08-.6.6-.25,1.36-.56,2.21-.91.92-.34,2.02-.64,3.21-.86,1.06-.21,2.13-.33,3.2-.44l3.21-.34c2.14-.22,4.28-.42,6.43-.54,4.3-.22,8.61-.35,12.94-.34,5.18-.01,10.55-.31,15.84-.4,5.82-.08,11.63-.09,17.45-.06,3.58.02,7.16.04,10.73.06,5.42.02,10.85.14,16.23.08,4.18-.04,8.27-.28,12.4-.45.91-.03,1.8-.1,2.71-.13,3.4.05,4.48.31,5.21,1.13.17.18.39.36.49.53.33.56-1.05,1.16-3.54,1.46-1.85.26-3.72.38-5.61.47-1.89.1-3.8.17-5.73.22-3.85.1-7.75.12-11.65.12-5.8.01-11.63-.12-17.44-.17v-.08Z"/><path class="cls-1" d="m204.19,169.08c-.33-2.68-.95-5.33-1.91-7.87-.18-.46-.39-.91-.59-1.36-.22-.44-.45-.87-.66-1.32l-.27-.59c-.06-.09-.09-.17-.17-.26-.14-.16-.35-.35-.65-.49-.58-.3-1.39-.45-2.21-.53-1.66-.14-3.43.03-5.17.33-1.55.27-3.08.73-4.55,1.27-1.92.67-3.62,1.73-5.64,2.19-.65.12-.69-.07-.44-.74.21-.72.82-1.83,1.92-2.41,1.97-.97,4.02-1.75,6.14-2.32,2.12-.57,4.32-.93,6.61-.89,1.37.05,2.8.09,4.35.68.76.3,1.6.84,2.13,1.71.37.65.65,1.21.96,1.83,1.27,2.68,2.16,5.52,2.73,8.4.18.89.3,1.78.44,2.67.08.9.22,1.79.25,2.69.19,2.72.06,5.47-.27,8.16-.29,2.09-.53,4.17-1.11,6.22-.12.45-.26.89-.42,1.34-.26.85-.7,1.29-1.01,1.58-.32.29-.67.37-1.07.36-.18,0-.36.02-.5,0-.42-.06-.7-.97-.44-2.11.8-3.37,1.51-6.82,1.74-10.44.18-2.67.12-5.4-.27-8.09l.07-.02Z"/><path class="cls-1" d="m189.92,174.03c2.34,2.79,5.86,4.39,9.47,3.24,3.29-1.05,5.85-3.76,7.4-6.77.88-1.71-1.71-3.23-2.59-1.51-1.16,2.26-3.06,4.52-5.44,5.34-1.14.39-2.17.46-3.28.13-1.39-.41-2.51-1.43-3.44-2.54-.52-.62-1.58-.54-2.12,0-.61.61-.52,1.5,0,2.12h0Z"/><path class="cls-1" d="m211.5,166.84c1.48,1.26,3.18,2.41,5.14,2.75s3.97-.11,5.71-1.13c3.41-1.99,5.79-5.6,7.05-9.26.63-1.83-2.27-2.62-2.89-.8-.95,2.78-2.75,5.58-5.25,7.21-1.13.74-2.47,1.28-3.85,1.09s-2.71-1.07-3.79-1.98c-.62-.52-1.52-.61-2.12,0-.54.54-.62,1.59,0,2.12h0Z"/><path class="cls-1" d="m211.75,152.62c2.85-6.14,9.56-9.49,16.19-8.73.87.1,1.62-.82,1.62-1.62,0-.96-.75-1.52-1.62-1.62-7.64-.87-15.72,3.28-19,10.34-.37.8-.22,1.75.58,2.22.7.41,1.85.22,2.22-.58h0Z"/><path class="cls-1" d="m215.73,197.57c2.56-.48,4.81-1.98,6.85-3.52.38-.28.75-.57,1.13-.85.26-.19.58-.33.83-.53-.36.28-.33.1-.16.08.19-.03-.48.04-.25.03-.16,0-.81-.13-.91-.38.02.04.1.11.13.14.17.16-.21-.34-.1-.12.03.05.06.09.09.14.03.06.06.12.09.17.01.02.02.05.03.07.11.2-.08-.16-.08-.19.03.27.19.57.24.84.02.08.03.16.04.24.05.29-.04-.36-.02-.12.01.17.03.34.04.52.02.35,0,.7-.02,1.05,0,.08-.02.16-.02.24-.03.37.05-.29,0-.05-.03.19-.06.37-.1.55-.08.35-.18.7-.3,1.04-.03.08-.06.15-.09.23-.07.18.17-.35.01-.04-.08.16-.16.32-.25.48-.08.14-.17.28-.27.42-.16.23-.06.01.06-.07-.07.05-.13.15-.19.22-.11.12-.22.22-.34.33-.24.22.21-.13.06-.04-.07.04-.14.09-.21.14-.08.05-.16.09-.25.14-.03.01-.06.03-.09.04-.22.12.36-.12.12-.06-.18.05-.35.1-.53.14-.29.07.4-.02.03,0-.09,0-.19,0-.28,0-.11,0-.22-.01-.33-.02-.32-.02.36.08-.02,0-.23-.06-.46-.11-.68-.19-.06-.02-.11-.04-.17-.06-.21-.07-.02-.1.06.03-.04-.07-.28-.13-.35-.16-.29-.14-.56-.3-.83-.48-.13-.08-.26-.17-.39-.26-.07-.05-.13-.09-.2-.14-.06-.04-.35-.27-.1-.07-.62-.48-1.53-.65-2.12,0-.49.54-.66,1.61,0,2.12,1.84,1.44,4.27,2.82,6.67,2,1.88-.65,3.05-2.32,3.64-4.15.52-1.62.65-3.52.19-5.18-.2-.72-.55-1.52-1.12-2.02-.98-.86-2.12-.37-3.03.28-1.06.75-2.07,1.58-3.16,2.29-.68.44-1.38.85-2.11,1.19-.08.04-.15.07-.23.1-.16.08.22-.08-.05.02-.2.08-.39.15-.59.22-.4.13-.8.23-1.22.31-.77.14-1.28,1.12-1.05,1.85.27.83,1.02,1.2,1.85,1.05h0Z"/><path class="cls-1" d="m190.59,131.37c-.01.61-.02,1.23,0,1.85,0,.62,0,1.24.04,1.87.02.46.13.9.17,1.35.11,1.61.29,3.23.64,4.81.16.7.38,1.39.58,2.07.3.86.67,1.7.84,2.63.05.29-.3.43-.77.37-.46-.06-1.09-.29-1.4-.77-.52-.86-.99-1.75-1.37-2.68-.26-.96-.46-1.95-.54-2.95-.11-1.2-.47-2.38-.64-3.58-.17-1.32-.27-2.66-.25-4,.01-.82.03-1.64.08-2.46.05-1.24.24-2.48.37-3.71.13-.95.18-1.91.39-2.86.05-.21.05-.43.16-.62.37-.73.61-.91,1.11-.89.11,0,.21,0,.3,0,.28.04.53.47.56,1.03.1.85.03,1.64.03,2.45,0,.81-.07,1.61-.14,2.42-.06,1.21-.14,2.44-.1,3.67h-.07Z"/><path class="cls-1" d="m210.12,123.04c.04.98.13,1.99.31,2.99.06.37.23.71.29,1.07.27,1.29.59,2.6,1.05,3.87.2.56.49,1.09.79,1.6.22.32.39.66.54,1.01.07.18.17.34.19.55,0,.21.02.42.03.65,0,.28-.22.37-.65.39-.22,0-.5,0-.81-.03-.15-.02-.33-.03-.46-.07-.12-.05-.22-.12-.3-.21-.15-.15-.28-.31-.41-.47l-.2-.24-.15-.27c-.2-.36-.36-.74-.53-1.12-.32-.76-.58-1.56-.74-2.39-.2-.99-.68-1.92-.93-2.91-.3-1.09-.48-2.21-.62-3.33-.05-.7-.1-1.39-.1-2.09-.03-1.05.1-2.11.15-3.15.05-.4.05-.81.07-1.22.03-.41.09-.81.16-1.22.03-.18.04-.36.1-.53.22-.64.45-.79,1.05-.71.14.02.27.03.4.06.43.11.71.48.74.94.03.69.06,1.34.1,1.99.02.33-.02.64-.04.96,0,.32-.02.64-.04.96-.02.96-.04,1.93.08,2.92h-.07Z"/><path class="cls-1" d="m234.59,134.41c.47,1.51,1.11,2.98,1.8,4.44.27.52.62,1,.89,1.53.97,1.86,2.1,3.64,3.22,5.46.53.79,1.09,1.55,1.7,2.26.72.97,1.46,1.93,2.05,3.02.18.34-.03.46-.47.42-.43-.05-1.15-.2-1.74-.63-.51-.38-1.01-.79-1.5-1.19-.48-.42-.88-.9-1.3-1.38-.82-.96-1.62-1.95-2.21-3.1-.73-1.36-1.75-2.58-2.54-3.95-.89-1.48-1.62-3.06-2.31-4.65-.39-1-.78-1.99-1.09-3.02-.52-1.54-.79-3.14-1.16-4.7-.11-.61-.26-1.21-.43-1.81-.15-.6-.23-1.22-.32-1.83-.04-.27-.1-.54-.1-.81-.04-.51.15-.85.28-1.09.15-.24.35-.37.63-.48.13-.05.25-.11.37-.14.39-.09.79.31,1.16.99.4,1.02.73,2.03,1,3.04.14.51.25,1.02.36,1.53l.39,1.53c.44,1.5.84,3.02,1.39,4.51l-.07.03Z"/><path class="cls-1" d="m178.01,149.36c.12,1.31.35,2.61.65,3.91.12.47.31.92.43,1.39.45,1.65.91,3.34,1.6,4.94.28.72.61,1.43.97,2.11.46.87.94,1.75,1.36,2.66.13.29.01.32-.28.2-.28-.13-.79-.37-1.21-.8-1.47-1.51-2.78-3.23-3.43-5.27-.41-1.2-1.06-2.36-1.43-3.61-.44-1.36-.75-2.76-.99-4.17-.15-.86-.26-1.74-.35-2.61-.14-1.32-.16-2.66-.15-3.97-.01-1.02-.13-2.04-.02-3.05.02-.22.04-.44.08-.66.17-.82.4-1.06.86-1.15.11-.02.22-.06.32-.06.34-.02.59.36.72.96.08.44.12.88.22,1.32.1.44.18.88.18,1.31.09.87.11,1.74.22,2.62.07,1.3.12,2.61.31,3.92h-.06Z"/><path class="cls-1" d="m298.77,276.18c-.57.01-1.15.02-1.72.03-.21,0-.41.06-.63.05-.75-.04-1.53-.08-2.28-.33-.33-.11-.67-.18-.99-.31-.41-.14-.82-.37-1.09-.74-.08-.11.05-.24.26-.33.21-.1.48-.19.66-.15.67.18,1.3.09,2.04.24.44.11.92-.04,1.39-.1.53-.07,1.06-.14,1.59-.21.33-.05.67-.1,1-.15.51-.08,1.02-.13,1.52-.27.39-.09.74-.36,1.13-.45.09-.02.17-.06.26-.05.34.04.47.18.6.54.03.08.06.16.09.24.07.26-.02.53-.21.77-.56.77-1.27.82-1.98,1.01-.53.11-1.08.19-1.64.25v-.05Z"/><path class="cls-1" d="m150.41,97.29c.36-.2.66.17.93.91.09.23.07.94-.03,1.04-.2.19-.41.38-.62.51-.12.08-2.15.4-2.85.52-.68.11-1.35.13-2.03.09-1.38-.05-2.78-.12-4.18-.27-.31-.04-.62-.11-.92-.22-1.04-.37-2.09-.59-3.17-.79-.18-.04-.35-.1-.55-.04-.17.06-.97-.12-1.76-.38-.79-.26-1.57-.58-1.73-.7-.8-.56-1.6-1.08-2.36-1.65-.11-.08-.25-.12-.3-.29-.11-.4-.38-.49-.62-.65-.33-.21-.64-.47-.93-.75-.14-.14-.22-.38-.31-.6-.08-.19.23-.52.31-.53.22-.03.21-.28.3-.44.03-.06.07-.13.1-.17.08-.07,2.31.35,2.5.43.01,0,.2.09.47.21.28.11.65.25,1.03.4.76.27,1.56.52,1.73.54.18.03.32.16.47.26.06.1,2.43.51,2.52.52.47.16.98.13,1.41.5.09.07.19.07.29.08.85.1,1.7.32,2.56.47.44.07.89.08,1.35.11.08,0,.16.05.24.07.1.03.2.07.3.08,1.07.03,2.15.21,3.25.1.25-.02,1.45.31,1.74.27.16-.02.7.46.84.38Z"/><path class="cls-1" d="m159.18,83.83c.32.13.13.53-.38,1.1-.16.18-.77.55-.9.53-.25-.03-.49-.07-.69-.14-.12-.04-1.24-1.24-1.63-1.65-.39-.39-.67-.84-.93-1.31-.53-.95-1.07-1.9-1.56-2.89-.11-.22-.19-.45-.23-.7-.15-.85-.48-1.61-.85-2.37-.06-.13-.1-.26-.25-.35-.27-.13-1.05-2.28-1.05-2.6-.03-.76-.12-1.5-.16-2.24,0-.11-.07-.2.03-.33.23-.29.13-.49.09-.71-.05-.31-.07-.62-.05-.94.01-.16.14-.34.24-.52.09-.16.54-.18.59-.15.17.1.35-.05.52-.1.06-.02.14-.04.19-.05.11,0,1.26,1.45,1.31,1.61-.01.05.94,2.3,1.1,2.53.08.12.06.28.07.43-.01.08.94,1.79.97,1.85.12.38.39.7.31,1.17-.02.09.03.16.07.23.33.61.54,1.28.79,1.93.13.33.33.63.5.95.03.06.02.13.04.2.02.08.02.17.07.24.43.73.72,1.54,1.27,2.21.12.15.33,1.12.49,1.3.09.1-.1.7.03.76Z"/><path class="cls-1" d="m368.72,80.79c.54.07,1.06.29,1.48.59.41.3.72.66.95,1.03.45.75.64,1.51.71,2.26.05.54.07,1.14-.06,1.66-.22.93-.66,1.77-1.3,2.48-.63.7-1.59,1.27-2.61,1.27-.49.01-1-.13-1.4-.38-.4-.25-.68-.6-.91-.96-.28-.47-.48-1-.46-1.6,0-.3.1-.62.26-.9.19-.28.45-.51.74-.61.38-.13.38.26.4.66,0,.19.06.42.16.55.09.14.2.2.23.28.03.13.14.36.29.53.14.18.34.27.41.32.04.04.06.04.09.05.03.02.18.01.27,0,.21-.02.45-.1.7-.26.63-.4.93-1.38.98-2.18.09-.86-.28-1.92-.8-2.29-.3-.23-.71-.28-1.26,0-.4.19-.86.52-1.29.83-.43.32-.84.66-1.22,1.04-.58.59-1.01,1.3-1.43,1.99-.09.15-.16.32-.27.46-.19.27-.36.41-.59.45-.2.05-.4.02-.66-.06-.11-.04-.23-.06-.33-.1-.32-.13-.47-.57-.4-1.18.53-1.61,1.71-2.95,3.02-4.09.51-.43.97-.79,1.6-1.19.61-.38,1.56-.86,2.71-.72v.06Z"/><path class="cls-1" d="m392.27,106.1c-.22.08-.43.17-.64.27s-.39.25-.56.39c-.41.35-.6.86-.64,1.39-.03.48.18,1.05.55,1.35.22.18.36.26.62.36.15.06.33.08.49.08.33,0,.65-.09.93-.25.4-.23.72-.6.93-1.01.18-.34.34-.72.43-1.11.13-.59.18-1.18-.12-1.72s-.9-.83-1.49-.84c-.53,0-1.1.23-1.44.65-.1.13-.21.25-.29.4s-.14.31-.2.47c-.06.15-.09.3-.13.45-.07.33-.05.67.13.96.15.26.45.51.75.57.32.07.68.06.96-.13.27-.17.5-.43.57-.75.04-.17.08-.34.14-.5l-.13.3c.04-.09.09-.18.15-.27l-.2.25c.05-.06.1-.11.15-.16l-.25.2s.09-.06.14-.08l-.3.13c.05-.02.1-.03.15-.04l-.33.04c.06,0,.12,0,.18,0l-.33-.04c.05,0,.1.02.15.04l-.3-.13s.06.03.08.05l-.25-.2s.05.04.07.07l-.2-.25s.04.06.06.1l-.13-.3s.02.07.03.11l-.04-.33c.01.11,0,.23-.01.34l.04-.33c-.04.29-.12.56-.23.83l.13-.3c-.08.18-.17.37-.29.53l.2-.25c-.07.08-.14.16-.22.22l.25-.2c-.05.04-.11.07-.17.1l.3-.13s-.08.03-.12.03l.33-.04s-.08,0-.12,0l.33.04s-.08-.02-.12-.04l.3.13s-.05-.02-.07-.04l.25.2s-.06-.06-.09-.09l.2.25s-.04-.06-.05-.09l.13.3s-.03-.1-.04-.15l.04.33c0-.06,0-.13,0-.19l-.04.33c0-.06.02-.11.04-.16l-.13.3c.02-.05.05-.1.08-.15l-.2.25c.06-.07.12-.13.19-.19l-.25.2c.13-.09.27-.17.41-.23l-.3.13c.06-.03.13-.05.19-.08.16-.04.3-.11.43-.22.14-.09.24-.21.32-.35.16-.27.22-.66.13-.96s-.29-.59-.57-.75-.66-.25-.96-.13h0Z"/><path class="cls-1" d="m396.05,108.3c-.43,1.44-1.41,2.62-2.89,3.17-.54.18-1.13.32-1.72.24-1.11-.17-1.98-.93-2.37-1.74-.42-.8-.57-1.66-.43-2.52.15-.74.54-1.55,1.25-1.93.06-.02.1-.05.16-.07l.47-.22.2.23c.61.71.94,1.56.66,2.35-.1.25-.24.15-.39-.06-.15-.22-.42-.48-.6-.69-.09-.09-.14-.2-.28-.23-.14-.02-.27,0-.38.04l1.23.03c.02.23,0,.28,0,.37-.01.07.01.18.01.28,0,.21-.06.53,0,.86.03.27.21.48.38.58.17.12.3.14.53.16.46.05,1.13-.34,1.48-.99.23-.39.35-.84.3-1.25-.05-.62-.53-1.3-1.24-1.59-.55-.23-1.17-.16-1.7-.05l-.34.11c-.2.08-.38-.02-.53-.08-.15-.07-.28-.18-.44-.34-.07-.07-.15-.14-.22-.21-.2-.22-.16-.63.27-1.1.32-.34.74-.47,1.17-.61.43-.13.89-.19,1.35-.16.92.07,1.87.4,2.67,1.07.6.5,1.08,1.15,1.35,1.96.27.81.28,1.66.09,2.41h-.06Z"/><path class="cls-1" d="m352.93,331.02c.09-.05.03-.05-.03.11-.06.15-.05.33-.05.33,0,0-.02-.08-.07-.16l-.02-.03.27.36s.04.04.02.03c-.01-.01-.03-.02-.05-.03-.04,0-.09,0-.17.03-.15.06-.31.2-.46.39-.15.16-.11.27-.17.38-.03.13.18.2.07.34-.03.04-.46.29-.99.47-.23.07-.58.15-.77.12-.09-.02-.21-.04-.32-.07-.11-.03-.1-.11-.15-.18-.09-.12-.17-.24-.23-.38-.05-.07-.01-.14,0-.21.03-.07-.05-.15-.07-.22-.08-.29-.04-.55.05-.77.09-.27.17-.38.26-.52.1-.14.23-.3.39-.45.38-.36.62-.94,1.42-1.28.4-.15.8-.18,1.21-.1.4.08.87.29,1.19.72.39.51.38,1.18.23,1.58-.23.62-.59.89-.82,1.23-.1.13-.19.33-.39.54-.1.11-.23.22-.4.3-.17.1-.45.16-.66.16-.2,0-.39-.03-.58-.13-.34-.19-.52-.53-.47-.79.08-.29.28-.44.55-.52.12-.04.24-.06.34-.07.08,0,.15,0,.22,0h0s.02,0,.07-.05c.08-.08.08-.17.07-.09,0,.02,0,.04,0,.06v.02s0,0,0,0h0s0,0,0,0l-.05-.2h0s0,0,0,0v-.03s-.06-.12-.14-.23c-.08-.12-.19-.26-.42-.5l-.2-.21s0,0,0-.01c0,0,0-.02.01-.03l.12-.18s.04-.05.05-.06c.01,0-.01-.01.02,0l.19.09c.11.06.23.1.33.14.41.15.64.11.62.11h0Z"/><path class="cls-1" d="m355.38,331.33c-.04.53-.2,1.08-.48,1.57-.28.48-.66.86-1.07,1.15-.3.21-.61.43-.97.54-.63.19-1.35.21-2-.06-.64-.24-1.19-.85-1.39-1.42-.19-.52-.28-1.04-.23-1.57.03-.34.12-.69.31-1.01.19-.32.52-.59.9-.67.24-.05.3.34.37.74.04.4.26.77.26.83-.04.14-.05.41,0,.65.06.25.11.39.21.56.2.24.63.17,1-.01.43-.19.8-.54.93-.98.1-.29.09-.62.05-.97-.09-.52-.36-1.07-.8-1.43-.12-.1-.26-.18-.4-.24l.5.04c-.16.1-.3.26-.39.43-.03.06-.05.13-.07.19-.08.22-.21.28-.56.38l-.23.08c-.22.08-.56-.1-.6-.58-.05-.76.32-1.66,1.22-2.13l.37-.19.63.27c.53.23,1.01.58,1.41,1.01.65.73,1.15,1.72,1.1,2.84h-.05Z"/><path class="cls-1" d="m370.02,327.53c-.12.08-.25.15-.39.18-.14.05-.27.09-.4.1-.26.02-.52.02-.8-.02-.26-.06-.52-.12-.81-.28-.33-.16-.71-.32-1.04-.6-.29-.23-.54-.51-.72-.78-.16-.29-.3-.55-.37-.81l-.07-.37v-.35c0-.23.08-.44.2-.64.06-.1.08-.15.17-.26.09-.12.22-.2.34-.27.24-.13.48-.17.69-.18.51-.06,1.01.04,1.3.47.09.14-.16.35-.41.57-.26.22-.48.52-.54.56-.07.03-.13.07-.13.1,0-.21-.11-.44-.16-.48,0,0-.02-.02,0,0h0c1.28.81.35.23.64.41h0s0,0,0,0h0s0,0,0,0h0s-.01,0-.01,0c-.01,0-.01,0-.02,0-.02,0-.04,0-.06,0-.04,0-.09.02-.13.06-.07.11.11.2.2.29.06.06.14.12.23.2.08.05.19.14.31.15.15.03.33-.01.43-.13.15-.16.26-.42.18-.66-.07-.19-.31-.29-.48-.3-.04,0-.1.02-.1.02.1-.07.17-.21.18-.21l.02-.03s.05-.1.07-.15c.05-.11.1-.25.16-.41.05-.15.09-.29.13-.44.07-.24.16-.45.33-.61.15-.16.45-.3.66-.22.73.2,1.09.59,1.4,1.12.25.54.37,1.17.32,1.77-.06.9-.52,1.76-1.24,2.23l-.05-.05Z"/><path class="cls-1" d="m93.9,200.25c.51,1.09.43,2.37-.3,3.23l-.11.12c-.28.31-.61.59-1.03.73-1.44.51-3.36-.31-3.93-1.81-.21-.55-.33-1.11-.37-1.65-.05-.69-.02-1.41.43-1.96.14-.17.56.05.96.35.39.3.79.64.79.87-.02.43.03.81.1,1.11.15.37-.02.33.06.61.11.3.41.25.64.2.08-.02.16-.04.23-.09.19-.12.31-.37.27-.62-.03-.21-.13-.44-.33-.59-.29-.24-.77-.3-1.16-.02-.36.25-.54.7-.62,1.11-.03.09,0,.19-.05.26-.12.29-.28.35-.86.36h-.39c-.43.02-.79-.25-.84-.75-.09-.74.22-1.46.7-2.07.25-.3.55-.58.91-.81.16-.1.41-.24.67-.32.25-.1.51-.16.77-.2,1.58-.23,2.97.76,3.54,1.93l-.05.02Z"/><path class="cls-1" d="m362.25,171.88c.73,1.17.96,2.68.33,4.02-.23.46-.53.94-.97,1.25-.78.53-1.66.7-2.48.61-.82-.07-1.61-.43-2.19-1.04-.52-.54-.82-1.28-.84-1.99-.05-.89.29-1.88,1.09-2.37.26-.15.39.17.48.53.08.38.19.77.12,1.02-.16.46-.11.98.08,1.29.16.32.53.6,1.04.79.63.25,1.4-.05,1.74-.47.44-.45.56-1.29.25-2.05-.19-.46-.49-.9-.9-1.16-.59-.41-1.44-.46-2.14-.09-.55.28-.93.82-1.14,1.33-.05.12-.1.22-.16.33-.22.4-.35.51-.8.59-.1.02-.2.05-.3.06-.3.05-.61-.25-.62-.84-.06-.89.35-1.77,1-2.42.63-.66,1.52-1.18,2.54-1.29.75-.09,1.56.03,2.27.39.7.35,1.25.88,1.64,1.47l-.04.03Z"/></svg>