<svg id="Layer_1" data-name="Layer 1" xmlns="http://www.w3.org/2000/svg" width="520" height="520" viewBox="0 0 520 520"><defs><style>.cls-1{fill:#221f1f;}.cls-2{fill:none;stroke:#221f1f;stroke-miterlimit:10;stroke-width:3px;}</style></defs><title>Notioly v2</title><g id="_24.Breakfast" data-name="24.Breakfast"><path class="cls-1" d="M335.25,339.53c10,3.72,20.53-.27,23.69-10.73.56-1.88-3.86-1.35-4.39.4-2.38,7.9-9.38,10.33-16.75,7.58-1.69-.63-5.08,1.81-2.55,2.75Z"/><path class="cls-1" d="M290.31,158.77a12,12,0,0,1,1.09,7,7.37,7.37,0,0,1-1.79,3.65,6.08,6.08,0,0,1-1.87,1.34,7.86,7.86,0,0,1-2.08.57,7.08,7.08,0,0,1-4.22-.77,4.94,4.94,0,0,1-1.75-1.57,6.31,6.31,0,0,1-.88-1.89,8.88,8.88,0,0,1-.18-3.74c.18-1.15.4-2.22.61-3.38,1.06,2.13,1.18,4.6,2.13,6.1a4.91,4.91,0,0,0,.75,1,2.39,2.39,0,0,0,.82.51,4.83,4.83,0,0,0,2.3.26,4,4,0,0,0,2-.78,5.85,5.85,0,0,0,1.5-2.09A30.39,30.39,0,0,0,290.31,158.77Z"/><path class="cls-1" d="M251.07,161.69a29.94,29.94,0,0,0,1.53,6.25,6.12,6.12,0,0,0,1.5,2.1,4,4,0,0,0,2,.77,4.65,4.65,0,0,0,2.29-.28,2.12,2.12,0,0,0,.81-.51,4.83,4.83,0,0,0,.75-1c.94-1.49,1.06-4,2.15-6.09.23,1.17.45,2.22.64,3.39a8.69,8.69,0,0,1-.19,3.73,6.07,6.07,0,0,1-.88,1.91,5.06,5.06,0,0,1-1.77,1.56,7.08,7.08,0,0,1-4.22.76,6.52,6.52,0,0,1-3.95-1.91,7.52,7.52,0,0,1-1.78-3.65A12.1,12.1,0,0,1,251.07,161.69Z"/><path class="cls-2" d="M252.67,219.88c5.89,5.39,13.83,9.81,21.32,9.66,6.11-.12,14.15-4.83,17.78-9.35"/><path class="cls-1" d="M354.74,214.24C330.53,232.41,301,226.47,289.25,223c16.07-15.7,18.23-56,16.32-81A55.84,55.84,0,0,0,286,122.93c-26.87-1-33.05,29.46-60.49,34.74,3.19,20.49,13,49.26,28.41,63.38-30.51,21.25-77.79,2-77.79,2,9.46-187.2,104.11-135.6,104.11-135.6S350.84,50.86,354.74,214.24Z"/><path class="cls-1" d="M188.72,150.44l-.52,1.77-.44,1.79-.86,3.6c-.56,2.4-1.2,4.78-1.69,7.2l-1.39,7.28c-.45,2.42-1,4.84-1.27,7.3l-1.07,7.34-.54,3.67c-.17,1.22-.27,2.46-.41,3.68l-.79,7.39c-.25,2.46-.56,4.92-.69,7.39l-.52,7.42-.26,3.7-.11,1.52v.19s0,.06,0,.08l.08,0,.77.28,1.73.61c1.15.39,2.32.76,3.49,1.12,2.34.72,4.71,1.36,7.09,1.95a124.52,124.52,0,0,0,14.45,2.68,96.6,96.6,0,0,0,14.61.75,67.78,67.78,0,0,0,20.81-3.65c1.63-.64,3.28-1.26,4.84-2l1.19-.56,1.15-.63,1.15-.63.56-.31.18-.12.76-.49c-.12-.15-.3-.3-.46-.48l-.85-.85-.92-1.07L247,216.22a89.79,89.79,0,0,1-10.22-16.65,139,139,0,0,1-7.16-18,157.46,157.46,0,0,1-4.81-18.77c-.17-.79-.3-1.59-.43-2.39l-.64-3.79s0-.09,0-.12l.11,0,.23-.05.46-.1.91-.2,1.83-.41.42-.1.28-.08.55-.16,1.11-.32a39.55,39.55,0,0,0,8.39-3.79c5.34-3.16,10-7.49,14.52-11.93s9.14-9.12,14.79-12.63a33.87,33.87,0,0,1,9.11-4c.81-.18,1.62-.38,2.44-.53s1.66-.27,2.49-.34,1.66-.15,2.49-.15h2.46a2.35,2.35,0,0,1,.42.21c.62.34.85.49,1.24.72l1,.66c.69.45,1.36.92,2,1.39q2,1.44,3.86,3a57.25,57.25,0,0,1,6.91,6.93c.91,1.13,1.83,2.26,2.66,3.46.43.59.84,1.18,1.22,1.8l.59.92c.2.37.67.84.58,1.4l.15,2.26.12,2.14c.07,1.43.14,2.86.18,4.29q.25,8.56-.14,17.14c-.57,11.4-1.93,22.82-5.1,33.8a73.69,73.69,0,0,1-3.83,10.36c-.39.84-.82,1.67-1.23,2.5s-.89,1.63-1.39,2.43-1,1.59-1.54,2.34l-.82,1.15-.52.64c-.37.47-.58.67-.85,1,0,0-.09.07-.07.09l.14,0,.28.08.55.14,1.78.44,2.61.56a92.59,92.59,0,0,0,10.6,1.5A77.57,77.57,0,0,0,329,224a62.69,62.69,0,0,0,19.83-7.31,13.37,13.37,0,0,0,1.33-.78l1.11-.7c.68-.42,1.24-.75,1.7-1,.9-.48,1.37-.61,1.42-.44.09.33-1.42,2-4.44,4.44a52.89,52.89,0,0,1-14.24,7.5,66.66,66.66,0,0,1-22.89,3.4,97.32,97.32,0,0,1-11.32-1c-.94-.11-1.87-.31-2.8-.46s-1.87-.33-2.79-.54-1.86-.38-2.77-.62l-2.05-.51-2.63-.74-2.65-.74-.66-.18-.17,0s.07-.08.09-.12l.23-.25.88-1,3.35-3.81.41-.46c.12-.14.31-.34.34-.4l.38-.52.76-1.05c.46-.74.95-1.45,1.39-2.21a57.85,57.85,0,0,0,4.4-9.66,110.1,110.1,0,0,0,4.91-21.1,189.23,189.23,0,0,0,1.7-21.84q.12-5.49,0-11c-.05-1.83-.13-3.66-.23-5.49l-.16-2.63s0,0,0-.05l-.18-.29-.71-1.12a54.64,54.64,0,0,0-15-15c-.37-.25-.74-.49-1.12-.72l-.88-.54c-.06,0,0,0-.58,0h-1.31a29.49,29.49,0,0,0-5.14.64,27.3,27.3,0,0,0-4.95,1.55,34.32,34.32,0,0,0-4.64,2.45c-6,3.78-11.06,9.23-16.53,14.37a81,81,0,0,1-10.61,8.68,51.43,51.43,0,0,1-6.1,3.45,44.22,44.22,0,0,1-6.64,2.41,9.07,9.07,0,0,1-1,.26l-.34.07c-.1,0-.29,0-.22.14l.33,2c.43,2.2.86,4.41,1.39,6.6,1,4.39,2.21,8.75,3.63,13.05a132.69,132.69,0,0,0,4.81,12.68c.87,2.1,1.9,4.11,2.86,6.15s2.09,4,3.27,5.91a66.8,66.8,0,0,0,7.83,10.88,14.45,14.45,0,0,0,1.11,1.24l1.77,1.76,2,2c-.66.51-1.5,1-2.24,1.49l-2.3,1.48-1.57.87-1.55.84-1.59.75a61.07,61.07,0,0,1-14.68,4.61,81.55,81.55,0,0,1-15.26,1.23,105.48,105.48,0,0,1-15.18-1.25,129.69,129.69,0,0,1-14.87-3.15c-2.44-.66-4.87-1.39-7.27-2.2l-1.8-.62-1-.35-1.4-.53-.69-.27-.35-.14-.09,0s0-.06,0-.09v-.18l.09-1.49.15-2.26c.37-5,.66-10,1.09-15s1-10,1.6-15c.75-5,1.4-10,2.23-14.93,1.17-6.08,2.2-12.2,3.77-18.2l1.08-4.53c.35-1.51.86-3,1.28-4.47l1.32-4.47c.44-1.49.86-3,1.43-4.43,3.95-11.75,9.17-23.22,16.59-33.31l1.58-2.12a20.89,20.89,0,0,1,1.66-2.07l3.55-4a67.71,67.71,0,0,1,8.05-7,54,54,0,0,1,19.21-9l1.29-.34c.44-.09.88-.15,1.32-.23l2.63-.45a26.16,26.16,0,0,1,2.65-.28c.89-.07,1.77-.16,2.66-.22a65,65,0,0,1,21,2.75c1.69.49,3.36,1.07,5,1.71.83.3,1.63.67,2.45,1l1.21.56.74.36.46-.22.77-.32c.57-.22,1.14-.44,1.72-.63,1.16-.4,2.33-.73,3.51-1A46.88,46.88,0,0,1,293.87,83a38.55,38.55,0,0,1,14.28,1.8l1.33.42c.43.15.85.36,1.28.53.84.38,1.71.71,2.54,1.12a43.65,43.65,0,0,1,4.75,2.82c.74.53,1.53,1,2.25,1.59l2.1,1.77,1.05.89c.34.31.64.64,1,1l1.91,2a73.64,73.64,0,0,1,11.94,18.06c1.67,3.2,2.9,6.57,4.28,9.89.61,1.68,1.17,3.39,1.75,5.08l.87,2.55c.29.85.5,1.72.75,2.58,1,3.44,2,6.88,2.74,10.38l1.2,5.24c.37,1.75.66,3.52,1,5.28.58,3.1,1.18,6.17,1.58,9.27s.94,6.19,1.28,9.35c1.34,11.71,1.66,19.46,1.88,24.9a73.81,73.81,0,0,1-.5,11.13c-.17,1.15-.32,2.67-.5,3.34-.32,1.13-.72-.69-1.14-4.92-.21-2.12-.43-4.84-.65-8.1s-.59-7.05-.95-11.31A329.52,329.52,0,0,0,347,154.17a171.65,171.65,0,0,0-10.34-34.62,90.78,90.78,0,0,0-8.92-15.65,49.2,49.2,0,0,0-12.8-12.22c-.62-.38-1.28-.71-1.92-1.07a17.12,17.12,0,0,0-1.94-1A33.27,33.27,0,0,0,307,88a32.1,32.1,0,0,0-8.59-1.59,35.07,35.07,0,0,0-8.79.57c-.73.13-1.44.31-2.17.46s-1.42.38-2.13.6-1.4.45-2.07.72c-.35.12-.68.26-1,.4l-.45.19-.53.26-1.07.52-1.2-.62-.58-.3-.29-.14L278,89l-1.2-.54c-.82-.35-1.63-.7-2.48-1s-1.69-.63-2.54-.91-1.72-.54-2.59-.79a57.21,57.21,0,0,0-28.54-1.08l-3.47.91-3.37,1.23a26.72,26.72,0,0,0-3.29,1.45,30.09,30.09,0,0,0-3.19,1.65l-3.07,1.88a12.35,12.35,0,0,0-1.48,1l-1.44,1.09a53.3,53.3,0,0,0-5.48,4.72c-7,6.75-12.42,15.09-16.72,23.95a35.24,35.24,0,0,0-1.56,3.35l-1.48,3.39c-.48,1.14-1,2.26-1.45,3.41l-1.25,3.5-1.26,3.49-.63,1.75c-.21.59-.36,1.19-.54,1.78l-2.11,7.14Z"/><path class="cls-1" d="M182.49,364.74c-.58.2-1.08-.1-1.56-.68-.15-.19-.16-.78,0-.87a7.52,7.52,0,0,1,1-.48c.2-.08,3.51-.47,4.65-.56a24.24,24.24,0,0,1,3.3-.06c2.23.08,4.44.21,6.63.36a14.39,14.39,0,0,1,1.45.19,33,33,0,0,0,5,.47,2.56,2.56,0,0,0,.83,0c.45-.11,4.94.09,5.53.16,1.44.22,2.89.36,4.34.52a1.45,1.45,0,0,1,.62.1,2.58,2.58,0,0,0,1.33.24c.63,0,1.25.07,1.87.16a4.12,4.12,0,0,1,.92.3c.27.1.12.47,0,.51-.28.11-.06.29,0,.44a.45.45,0,0,1,0,.16,34.4,34.4,0,0,1-4,.71l-6,.13a4.23,4.23,0,0,1-.94-.1h-4.55a11.42,11.42,0,0,1-2.61-.3,1.88,1.88,0,0,0-.53-.06c-1.5-.06-3-.25-4.47-.41-.76-.08-1.52-.1-2.28-.15-.13,0-.27-.05-.4-.07a4.5,4.5,0,0,0-.51-.08c-1.79-.07-3.57-.25-5.35-.15-.41,0-2.37-.23-2.85-.17C183.61,365,182.73,364.66,182.49,364.74Z"/><path class="cls-1" d="M348.21,281.79a24.87,24.87,0,0,1-3-3.17,21.87,21.87,0,0,1-2.2-3.15c-.39-.68.17-1.13.91-.58,1.43,1.07,2.89,2.16,4.26,3.38.43.36,3.82,3.63,7.33,7.63s7.12,8.69,8.87,11.12c3.44,4.68,6.57,9.58,9.54,14.56s5.89,10.19,8.71,15.33,5.65,10.33,8.14,15.71c1.11,2.39,2.13,4.83,3,7.31a89.68,89.68,0,0,1,3.81,13.14,49,49,0,0,1,.9,6.88,31,31,0,0,1-.31,7.06c-.08.79-.33,1.57-.48,2.36s-.43,1.55-.65,2.31c-.1.31-.36,1-.74,1.87a22.19,22.19,0,0,1-1.9,3.2,20.52,20.52,0,0,1-1.47,1.81c-.53.62-1.18,1.17-1.81,1.78a18.94,18.94,0,0,1-4.69,3,20.47,20.47,0,0,1-10.31,1.51,19,19,0,0,1-2.06-.28,14.56,14.56,0,0,1-1.7-.34l-1.3-.32-.83-.26a49.38,49.38,0,0,1-10.93-5.24,71.47,71.47,0,0,1-9.54-7.18,26,26,0,0,1-2.45-2.32c-1.54-1.84-3.31-3.5-4.93-5.34a63.34,63.34,0,0,1-6.18-8,32.06,32.06,0,0,1-2.31-4.42c-.62-1.36.17-.85.46-.43.85,1.24.44.08.53-.13s.08-.16.16-.12.19.27.48.72.73,1.07,1.24,1.82c1.06,1.49,2.54,3.42,4.18,5.3a96.31,96.31,0,0,0,7.93,8c.1.08,1.41,1.32,3.49,3a73.09,73.09,0,0,0,8.06,5.73,48.8,48.8,0,0,0,9.22,4.38,28.92,28.92,0,0,0,5.68,1.35c.76.12,1.52.14,2.29.23a21.5,21.5,0,0,0,2.27,0l1.1-.11a18.37,18.37,0,0,0,2.37-.59,15,15,0,0,0,6-3.74,16.68,16.68,0,0,0,3.88-6,25.53,25.53,0,0,0,1-3.51c.8-4.19.38-8.64-.26-13a22.42,22.42,0,0,0-.56-2.63,117.39,117.39,0,0,0-8.51-21.88c-1.78-3.62-3.76-7.16-5.72-10.74-.36-.64-.67-1.3-1-1.95-.43-.82-.84-1.65-1.29-2.45a264,264,0,0,0-15-24.55c-.32-.44-.92-1.33-1.67-2.43s-1.67-2.41-2.62-3.71c-1.89-2.61-3.92-5.15-4.75-6.11-.48-.53-1.39-1.74-2.29-2.94S348.66,282.23,348.21,281.79Z"/><path class="cls-1" d="M329.81,338.53a2.23,2.23,0,0,1-1.65-1.62c-.08-.26.24-.76.48-.73.46.06.94.12,1.4.21.14,0,1.25.45,2.53.83s2.73.75,3.47.89c1.42.29,2.83.61,4.25.83a20.47,20.47,0,0,0,8.41-.16c.29-.07.56-.18.85-.25a6,6,0,0,0,.85-.27,8.06,8.06,0,0,0,4.53-3.79,4.36,4.36,0,0,0,.4-1,27.75,27.75,0,0,0,1-3.28c.16-.79.26-1.61.37-2.27s.1-1.19.13-1.38a25.57,25.57,0,0,0,.25-2.91c0-1,0-2,0-3a3.47,3.47,0,0,1,0-.85,5.06,5.06,0,0,0,0-1.86c-.07-.86-.24-1.71-.31-2.57a8.25,8.25,0,0,1,.05-1.31.27.27,0,0,1,.49-.15c.19.37.3,0,.44,0a.27.27,0,0,1,.16-.05,5.37,5.37,0,0,1,.31.78l.58,1.75c.43,1.29.73,2.7.79,3,0,0,.1.52.18,1.26s.2,1.72.28,2.73.12,2,.1,2.9,0,1.5-.05,1.72a6.05,6.05,0,0,1-.24,1.38s-.06.48-.14,1.1-.31,1.42-.48,2.23-.51,1.61-.79,2.21-.5,1-.53,1.08a19.45,19.45,0,0,1-1.17,1.73,7.77,7.77,0,0,1-1.56,1.42,4.65,4.65,0,0,0-.66.51,13.05,13.05,0,0,1-6.45,2.62,26.58,26.58,0,0,1-3.43.28,6,6,0,0,1-.61-.06l-.77-.07a41.22,41.22,0,0,1-7.78-1.33c-.6-.11-3.23-1.27-3.88-1.5C331.16,339.46,330.14,338.61,329.81,338.53Z"/><path class="cls-1" d="M337.75,339.24a3.9,3.9,0,0,1-3-2.67c-1.36-3.77-2.72-7.51-4.08-11.25-1.17-3.21-2.24-6.46-3.58-9.58-.58-1.33-1.19-2.65-1.87-3.89a18.87,18.87,0,0,0-1.07-1.77c-.41-.56-.82-1.12-1.29-1.66-1.81-2.18-4.05-4.23-5.87-6.83a17.06,17.06,0,0,1-2.46-5.16,16,16,0,0,1-.55-5.49,3.91,3.91,0,0,1,.11-.91c.29-.75,1-.76,1.53-.14.11.14.3.3.29.43a3.48,3.48,0,0,0,.35,1.8,6.63,6.63,0,0,1,.52,1.73,11.34,11.34,0,0,0,2.77,6.21c.57.74,1.18,1.49,1.81,2.25.79,1,1.59,2,2.44,3,.29.35.86,1,1.62,1.94a24,24,0,0,1,2.43,3.8,99.48,99.48,0,0,1,4.51,10.62c2.79,7.55,5,14.89,5.13,15.27A18.7,18.7,0,0,1,337.75,339.24Z"/><path class="cls-1" d="M358.85,331.21c-2.47-1.12-3.92-3.2-5.11-5.38-4-7.29-7.84-14.62-11.44-22.15-.58-1.22-1.14-2.47-1.69-3.73-.26-.64-.55-1.25-.79-1.92l-.38-1-.39-1.31.26-3.56.19-3.3c.1-2.2.17-4.4.18-6.59,0-3-.05-6.08-.29-9.08-.12-1.5-.29-3-.55-4.43a15.18,15.18,0,0,0-1.16-4,5.42,5.42,0,0,0-.41-.69l-.74-.7-1.67-1.55q-1.68-1.55-3.4-3.05a59.32,59.32,0,0,0-7.08-5.46,3.77,3.77,0,0,0-1.79-.69,8.62,8.62,0,0,0-2.26.44,33,33,0,0,0-4.83,2,21.27,21.27,0,0,0-4.14,2.54,5.1,5.1,0,0,0-1.29,1.48,2.52,2.52,0,0,0-.1.29.34.34,0,0,1,0,.1v.18a.7.7,0,0,0,.12.44,2.82,2.82,0,0,0,.63.48c.41.28.77.58.82.88s-.15.6-.75.73a1.47,1.47,0,0,1-.88,0,3.5,3.5,0,0,1-1.68-1.35,3.13,3.13,0,0,1-.4-1.05,3,3,0,0,1,0-1.17,4.75,4.75,0,0,1,.92-2.11,7.11,7.11,0,0,1,1.62-1.57,30.41,30.41,0,0,1,3.57-2.09c1.2-.61,2.41-1.19,3.67-1.72a18.75,18.75,0,0,1,4.06-1.29l.59-.09.67,0a7.43,7.43,0,0,1,.76.09c.26.05.42.14.64.2s.42.15.59.23l.5.25a9.46,9.46,0,0,1,.95.54,39.13,39.13,0,0,1,5.21,3.91c2.07,1.79,4,3.69,5.94,5.56l1.33,1.29.54.52.51.76.4.78c.11.27.22.54.33.83a34.28,34.28,0,0,1,1.49,8.34c.25,3.22.33,6.83.29,10.66,0,1.92-.07,3.89-.16,5.89,0,1-.09,2-.14,3l-.18,2.84.16.49a5.83,5.83,0,0,0,.25.69c.18.48.35.95.57,1.43.4,1,.83,1.9,1.26,2.85.87,1.89,1.76,3.76,2.64,5.57,1.77,3.62,3.48,7,5,10l5.33,10.41C357.65,328,358.07,329.28,358.85,331.21Z"/><path class="cls-1" d="M328.62,262.89c-1.61.82-2.4.65-3.06.24-1.11-.68-2.23-1.34-3.36-1.94-.56-.31-1.12-.59-1.67-.84-.28-.13-.55-.24-.8-.33a2.3,2.3,0,0,0-.33-.1h0l-1,.46-1.57.68c-1.05.45-2.08.9-3.06,1.4a22.6,22.6,0,0,0-4.65,3,15.31,15.31,0,0,0-1.88,2c-.3.36-.59.72-.85,1.09a13,13,0,0,0-.76,1.12,6.35,6.35,0,0,0-1.05,2.6.75.75,0,0,0,.14.63c.06,0,.05,0,.2,0s.09-.09.15,0a1.65,1.65,0,0,1,.63,1.35c0,.14,0,.38-.14.41a6.62,6.62,0,0,1-1.53.46,1.87,1.87,0,0,1-1.77-1,5.35,5.35,0,0,1-.15-3.44,10.8,10.8,0,0,1,1.07-2.68,10.4,10.4,0,0,1,1.25-1.79c.62-.67,1.28-1.29,2-1.93a25.29,25.29,0,0,1,3.77-2.88,66.58,66.58,0,0,1,6.87-3.5l.88-.42.24-.12.4-.18a1.06,1.06,0,0,1,.42-.09,2.16,2.16,0,0,1,.44,0,3.68,3.68,0,0,1,.81.14c.19.06.39.12.55.19.35.13.66.28,1,.42a32.63,32.63,0,0,1,3,1.73c1.7,1.09,2.79,1.93,2.9,2A7.86,7.86,0,0,1,328.62,262.89Z"/><path class="cls-1" d="M322.87,268c-1.32,1.15-2,1.14-2.53.9s-1.16-.5-1.71-.69a6,6,0,0,0-.69-.19.1.1,0,0,0-.08.06l-.33.2-.47.28-.95.52c-1.55.83-3.15,1.47-4.6,2.31a19.09,19.09,0,0,0-3.39,2.45,10.37,10.37,0,0,0-1.28,1.47c-.38.57-.75,1.18-1.08,1.79a10,10,0,0,0-.94,2.16,2.66,2.66,0,0,0-.1.86.28.28,0,0,0,0,.17c-.11.06-.14,0-.23.09a.35.35,0,0,0-.1.08l0,0,0-.06h0l.05-.07.08-.14a3.55,3.55,0,0,0-.13.57,1.56,1.56,0,0,1-.33.82c-.09.1-.25.26-.32.23a3.49,3.49,0,0,1-1.24-.6,2.06,2.06,0,0,1-.48-.61,1.34,1.34,0,0,1-.15-.71,15.85,15.85,0,0,1,1.2-4.25,7.8,7.8,0,0,1,.84-1.42,12.82,12.82,0,0,1,1.52-1.62,17.59,17.59,0,0,1,1.7-1.51,27.47,27.47,0,0,1,3.11-2.08c1.17-.69,2.4-1.33,3.51-1.9l1.55-.81,1.35-.74a2.53,2.53,0,0,1,1.92-.09,7.53,7.53,0,0,1,1,.38c.57.25,1,.47,1.33.65.67.36,1,.54,1,.58A4.74,4.74,0,0,1,322.87,268Z"/><path class="cls-1" d="M317.77,282.28c-1.82.41-2.48.34-3.15,0a8.24,8.24,0,0,0-1.39-.51l-.36-.09-.19,0h-.05a.35.35,0,0,0-.11,0s0,0-.07.11l-.07.1-.22.26c-.3.34-.61.66-.93,1a23.5,23.5,0,0,1-2,1.82,11.09,11.09,0,0,1-3.71,2,5,5,0,0,1-1.29.21,7.53,7.53,0,0,1-.83-.07,5.37,5.37,0,0,1-.83-.27,2.6,2.6,0,0,1-1.26-1.05,2.66,2.66,0,0,1-.34-1.59,4.7,4.7,0,0,1,.4-1.38,7.57,7.57,0,0,1,.48-.85,14.46,14.46,0,0,1,1-1.42c.72-.88,1.48-1.68,2.24-2.45l1.12-1.14c.18-.18.36-.37.49-.52s.38-.43.59-.64a11.62,11.62,0,0,1,2.85-2.21,7.91,7.91,0,0,1,4.44-.93,9.87,9.87,0,0,1,1.09.16c.34.07.65.15,1,.24.63.17,1.24.37,1.84.59a1.71,1.71,0,0,1,.59.24c.42.39.21,1.12-.37,1.48-.13.08-.3.23-.39.2-.87-.34-1.89.3-2.73,0a4.44,4.44,0,0,0-4.15.69c-.49.33-1,.69-1.48,1.08-.31.26-.64.52-.95.8l-.55.51-.54.48c-.38.36-1.32,1.24-2.42,2.45a14.3,14.3,0,0,0-1.55,2c-.25.46-.23.45-.25.57a.23.23,0,0,0,.19.23l.19,0a1.14,1.14,0,0,0,.21,0,.91.91,0,0,0,.26,0,5.33,5.33,0,0,0,1.19-.5,14.78,14.78,0,0,0,2.28-1.6c.69-.58,1.3-1.15,1.79-1.65l.36-.37c.12-.13.18-.18.37-.41l.9-1.05c.37,0,.73.08,1.07.12l.49.1.41.1a10.41,10.41,0,0,1,1,.32,10,10,0,0,1,1.36.64,6.93,6.93,0,0,1,.92.61A5.21,5.21,0,0,1,317.77,282.28Z"/><path class="cls-1" d="M327.93,352.05l-.57,2.39-.5,1.93-.68,2.52c-.48,1.68-1,3.35-1.47,5-1,3.33-2.12,6.63-3.33,9.9s-2.51,6.51-4,9.69a61,61,0,0,1-5.2,9.23,22.61,22.61,0,0,1-5.55,5.81l-.43.31-.48.25c-.32.16-.64.34-1,.49a8.78,8.78,0,0,1-2.17.57,14,14,0,0,1-2,.13l-1.88.06c-8.86.29-17.74.67-26.63.87-4.45.1-8.9.16-13.35.15s-8.91-.1-13.4-.52c-1.19-.11-2.38-.26-3.58-.48a16.33,16.33,0,0,1-1.83-.46,4.09,4.09,0,0,1-1.94-1.15,80.5,80.5,0,0,1-8.77-14.3,107.93,107.93,0,0,1-5.72-14.11,78.74,78.74,0,0,1-3.36-14.86c-.33-3.17.42-2.78,1.43-.26s2.52,7.08,4.19,12.52a109.49,109.49,0,0,0,5.93,15.32c1.15,2.49,2.47,4.89,3.83,7.25A72.62,72.62,0,0,0,240,397a2.43,2.43,0,0,0,.7.32,13.52,13.52,0,0,0,1.49.37c1.06.21,2.19.35,3.32.47,2.28.23,4.6.35,6.92.43,4.66.17,9.35.19,14.06.17,6.17,0,12.47-.25,18.8-.52l9.53-.41,4.77-.19,1.2,0a9.52,9.52,0,0,0,1.13-.06,5.21,5.21,0,0,0,.95-.15c.31-.11.63-.19.94-.32a11.76,11.76,0,0,0,3.76-2.81,27.2,27.2,0,0,0,3.08-3.94,64.92,64.92,0,0,0,4.85-9,157.46,157.46,0,0,0,7.06-19.47q.92-3.08,1.74-6.16l.26-1,.1-.37,0-.19c0-.07-.1,0-.14,0l-2.16,0-12.84-.06c-13,0-26-.12-38.86-.09-10,0-19.82.22-29.71.34l-6.5.09c-8.14,0-10.73-.14-12.48-.85a7,7,0,0,1-1.16-.49c-.78-.55,2.54-1,8.5-1.16,17.68-.48,36.33-.55,55.05-.56l20.89,0,10.46,0,5.23,0h5.16l1.25,0H328c.16,0,.07.11.06.21l-.08.3Z"/><path class="cls-1" d="M242.8,352.15c1.64-2.63,5-7.06,8.32-4.37,1.79,1.47,3.13,3.43,4.87,5,.78.68,3.5-.44,2.69-1.15-2.53-2.22-4.79-6.55-8.58-6.51-4.38,0-7.85,3.53-10,7-.73,1.16,2.18.91,2.7.08Z"/><path class="cls-1" d="M249.38,351.91c-1.57-1.28-3.7-4.53-5.34-4.5-2.36,0-9,4.9-6.09,4.46C238.53,351.79,249.38,351.91,249.38,351.91Z"/><path class="cls-1" d="M250.72,351.31c-2.73-2.4-4.43-5.89-8.52-4.35a17.32,17.32,0,0,0-4.29,2.43c-.65.49-2.15,1.45-2.15,2.41,0,1.65,4.33,1,5.31,1,2.6,0,5.19,0,7.78.07,1.26,0,3-1.87,1.06-1.89-3.58,0-7.18-.12-10.77-.06-.12,0-.73-.09-.84,0-.29.28.2.46.52.41.63-.1,2-1.57,2.61-1.94,1.33-.78,2.07-1.35,3.32-.25s2.11,2.34,3.3,3.38C248.92,353.29,251.65,352.13,250.72,351.31Z"/><path class="cls-1" d="M270.81,351.58c-1.57-3.3-4.19-6.91-8.13-7.34-3.58-.39-6.27,2.67-8.8,4.7-1.18.95,1.69.65,2.25.19,2.13-1.71,3.93-4.44,6.8-2.82a13.1,13.1,0,0,1,5,6c.37.79,3.18-.18,2.9-.77Z"/><path class="cls-1" d="M307.11,351.58c-1.17-3.35-3.38-8.31-7.37-9-3.6-.62-5.94,2.65-8.68,4.25-1.22.7,1.67.4,2.21.08a21.7,21.7,0,0,0,2.71-2c.72-.58,1.09-1.15,2-1a4,4,0,0,1,1.69,1c2.27,1.85,3.56,4.76,4.52,7.46.23.68,3.1-.19,2.89-.77Z"/><path class="cls-1" d="M283.29,282.31c-1-2.79-2.81-6.87-6-7.8s-5.08,1.85-7.44,3.22c-1.67,1,1,1,1.7.52a17.18,17.18,0,0,0,2.27-1.6c1.16-1,1.6-.92,2.76.1a15,15,0,0,1,3.76,6.34c.27.77,3.14-.09,2.9-.78Z"/><path class="cls-1" d="M283,346.07c-1.83-2.15-4.43-5.06-6.18-5.2-3.27-.27-8,3.3-10.4,6.66l2.91,3.88,8.66.25Z"/><path class="cls-1" d="M284.39,345.55c-2.56-3-4.95-6-9.16-5.1s-7.61,3.92-10.1,7.15c-.14.18-.17.26,0,.44.92,1.23,2,3.44,3.41,4,1.86.77,5.47.17,7.47.22,4,.11,5.87-3.47,8.38-6.27.66-.74-2.13-.43-2.64.14l-5,5.59,2.24-.71-5-.15a14.69,14.69,0,0,1-3-.09c-1.06-.27,0,.36-.81-.59a10.92,10.92,0,0,1-1.85-2.47c-.43-1.18-.43.21,0-1,.26-.74,1.46-1.63,2-2.12,1.84-1.68,4.61-3.88,7.13-2.3,1.64,1,3,2.83,4.21,4.26C282.18,347.17,284.92,346.17,284.39,345.55Z"/><path class="cls-1" d="M288.1,344.31c3.18.81,5.68,3.89,7,7.82l-14.33-.72S285.89,344.59,288.1,344.31Z"/><path class="cls-1" d="M287.26,345.26c3.38,1.05,5.24,4.09,6.39,7.26l2-1.41-14.33-.72.7,1.42c1.45-1.93,3.94-6,6.38-6.55,1.79-.43,1.28-2.34-.51-1.91-3.48.84-6.25,5-8.28,7.66a.84.84,0,0,0,.69,1.42l14.33.72c.63,0,2.31-.41,2-1.41-1.35-3.74-3.64-7.15-7.6-8.38C287.75,343,285.53,344.72,287.26,345.26Z"/><path class="cls-1" d="M338.28,242.8c-3.43,3.54-6.48,7.59-10.66,10.32-2.44,1.6,1.38,1.87,2.63,1,4.72-3.09,8.16-7.42,12-11.42.74-.77-.64-1.06-1.13-1.09a4,4,0,0,0-2.88,1.14Z"/><path class="cls-1" d="M301.54,274.38c-7.37,4.55-16.12,7.67-24.83,7.88-2.79.07-12.26,0-13.66-3.57-.85-2.18-6-.69-5.22,1.4,2,5.15,12.15,5.71,16.52,5.73,10.76.05,21.49-3.71,30.58-9.33,3-1.85-1.38-3.35-3.39-2.11Z"/><path class="cls-1" d="M303.6,249.66c-4.14,5.06-18,8.61-33.72,8.5-11.19-.08-22.69-1.72-30.95-8.78C269.64,239.78,292.68,245.47,303.6,249.66Z"/><path class="cls-1" d="M298.48,252.06a27.6,27.6,0,0,1,4.75-2.29.53.53,0,0,1,.64.83,11.86,11.86,0,0,1-2.72,2.8,17.35,17.35,0,0,1-2.12,1.23,34.28,34.28,0,0,1-4.48,1.9,63.69,63.69,0,0,1-9.33,2.44,74.4,74.4,0,0,1-11.7,1.21,103.93,103.93,0,0,1-12-.34,56.06,56.06,0,0,1-11.92-2.31,31.49,31.49,0,0,1-5.06-2.12c-.68-.39-1.39-.73-2.05-1.17l-1-.65a19,19,0,0,1-1.65-1.18c-1.06-.81-2.12-1.6-3.14-2.45l-1.54-1.25,1.84-.6,1.85-.59,2-.57,3-.85,4.4-1.08,1.48-.36c.49-.1,1-.22,1.45-.36s1.68-.39,3.45-.74,4-.63,6.29-.9,4.58-.44,6.45-.47,3.29-.1,3.83-.06a101.59,101.59,0,0,1,15.76,1.63,14.74,14.74,0,0,1,2.2.49,42.31,42.31,0,0,0,4.68,1.24,61.93,61.93,0,0,1,6.46,2,24.23,24.23,0,0,1,3,1.42c.89.46.23.68-.11.61-1-.21-.3.26-.28.47s0,.16-.05.19-.81-.21-2-.53l-2-.51-2.37-.54c-3.27-.69-6.72-1.19-7.4-1.3l-3.06-.48-3.05-.36c-1.12-.12-2.33-.18-3.55-.28a89.21,89.21,0,0,0-11,0c-1.09.08-2.19,0-3.28.08-.25,0-4,.32-7.8,1-1.88.24-3.74.7-5.18,1s-2.44.53-2.58.57l-4.44,1.05c-2.14.6-1.19.29-1.72.31-.13,0-.23,0-.11,0l.17.12.08.05,0,0,.16.1a32.82,32.82,0,0,0,3.31,1.78,40.15,40.15,0,0,0,7.18,2.51A53.58,53.58,0,0,0,262,256c.48,0,.95.12,1.43.18s1.2.13,1.81.17a89.87,89.87,0,0,0,18.91-.86c.36-.06,1.06-.16,1.93-.27s1.91-.29,2.95-.5a35.48,35.48,0,0,0,4.92-1.21c.44-.14,1.4-.37,2.34-.63A10.8,10.8,0,0,0,298.48,252.06Z"/><path class="cls-1" d="M133.22,394.34a19.74,19.74,0,0,1,.78-6.79c.19-.62.78-.53.86.22.17,1.48.36,3,.44,4.49,0,.46.1,4.36-.09,8.77s-.63,9.33-1,11.82a66.17,66.17,0,0,1-3.43,14.28,31.4,31.4,0,0,1-3.44,6.95,16.12,16.12,0,0,1-6.27,5.13,17.28,17.28,0,0,1-15.65-.66,15.7,15.7,0,0,1-5.24-4.91l-.82-1.3c-.26-.44-.43-.87-.65-1.31-.4-.87-.87-1.72-1.22-2.61l-1.06-2.66c-.34-.89-.6-1.8-.91-2.7a91.87,91.87,0,0,1-2.8-11c-.27-1.23-.46-2.49-.74-3.68a110.73,110.73,0,0,1-1.55-12.15c-.11-1.41-.2-2.83-.27-4.18l-.09-2,0-1.25,0-1.73L90,384c.86.36,1.67.75,2.38,1.06l1.86.86,1,.42a54.1,54.1,0,0,0,18.21,4.81c.9.07,1.86,0,2.68.13a17.28,17.28,0,0,0,2.88.05c1,0,1.93-.25,2.9-.36a33.27,33.27,0,0,0,7.77-2.25c1.26-.47,2.44-1.06,3.65-1.64s.74.11.38.37c-1,.73,0,.37.14.43s.14.06.11.12a6,6,0,0,1-.61.43l-1.6,1.06-2.42,1.24c-.9.46-1.93.78-2.94,1.19s-2.1.62-3.12.92-2,.4-2.91.58c-1.79.27-3.16.33-3.61.38h-1.18c-.71,0-1.7.05-2.87-.06a51.9,51.9,0,0,1-8.58-1.2,59.31,59.31,0,0,1-8.68-2.62c-.62-.22-1.18-.47-1.71-.68l-.19-.07-.08,0s0,.05,0,.05a.33.33,0,0,1,0,.17l0,1.89c0,.32.28,5.1.88,9.86s1.45,9.45,1.55,9.81c.65,3.75,1.68,7.41,2.62,11.05.19.71.45,1.43.69,2.14s.62,1.49.92,2.24l.46,1.12c.16.36.35.71.53,1.07.36.71.7,1.44,1.08,2.13l.61.93a5.21,5.21,0,0,0,.65.91,13.58,13.58,0,0,0,7.42,4.68,13.72,13.72,0,0,0,9-1,11.16,11.16,0,0,0,1.46-.75,8.11,8.11,0,0,0,1.68-1.22,13.32,13.32,0,0,0,1.84-2,12.51,12.51,0,0,0,.74-1.15,9.43,9.43,0,0,0,.68-1.22,42.43,42.43,0,0,0,2.23-5.39,64.78,64.78,0,0,0,2.71-11.5c.14-.9.59-3.49.92-6.15s.57-5.37.6-6.43S133.28,395.4,133.22,394.34Z"/><path class="cls-1" d="M92.47,385.84a1.76,1.76,0,0,1-1.72-.95c-.13-.21,0-.8.19-.86a8.55,8.55,0,0,1,1.16-.29l2.16-.09c1.09-.1,2.3-.25,2.91-.38l1.77-.3,1.78-.3c2.42-.43,4.83-1.06,7.24-1.73.54-.15,1.09-.27,1.64-.38a54.23,54.23,0,0,0,5.64-1.44,5,5,0,0,0,.94-.33,16,16,0,0,1,3.24-.81,11.94,11.94,0,0,1,3.69,0,18.75,18.75,0,0,1,5.2,1.87,2.1,2.1,0,0,1,.65.41,5.19,5.19,0,0,0,1.32,1,12.27,12.27,0,0,1,1.79,1.42,5.12,5.12,0,0,1,.66.92c.18.29-.2.45-.31.41-.33-.12-.24.18-.32.31a.27.27,0,0,1-.1.13s-.92-.51-1.88-1-2-.81-2.16-.91l-.87-.37a14.62,14.62,0,0,0-1.92-.61,11.8,11.8,0,0,0-3.25-.39c-.32,0-.63,0-1-.07,0,0-.34,0-.76.08a15.47,15.47,0,0,0-1.54.35c-1.16.3-2.35.68-2.44.7a16.61,16.61,0,0,1-2.91.66,2.41,2.41,0,0,0-.59.14c-1.64.52-3.35.93-5,1.33l-2.61.67c-.16,0-.32,0-.49.07l-.6.09c-2.08.5-4.23.74-6.38,1.05-.49.1-2.9-.06-3.48-.05C93.79,386.22,92.75,385.78,92.47,385.84Z"/><path class="cls-1" d="M137.37,394.73c-.57.09-1-.22-1.41-.87-.14-.2-.12-.79.06-.86a7.09,7.09,0,0,1,1.13-.36,9,9,0,0,1,2.21.24,13.13,13.13,0,0,1,2.87,1,8.28,8.28,0,0,1,1.59,1l.73.61.64.7a12.23,12.23,0,0,1,3.08,7,7.16,7.16,0,0,1,0,1.73,16.18,16.18,0,0,1-1.89,5.5,8,8,0,0,0-.48.85,8.65,8.65,0,0,1-2.16,2.37,11.25,11.25,0,0,1-2.85,1.64,15.53,15.53,0,0,1-4.88.76,1.77,1.77,0,0,1-.69-.07,4.18,4.18,0,0,0-1.46-.27l-1-.17c-.33-.09-.65-.19-1-.3a4.54,4.54,0,0,1-.86-.56c-.25-.18,0-.48.13-.5.31,0,.14-.26.17-.41a.54.54,0,0,1,0-.15s.91.05,1.81,0,1.81-.19,2-.19l.8-.07a14.28,14.28,0,0,0,1.68-.34,11.11,11.11,0,0,0,2.57-1.1,4,4,0,0,1,.75-.35,8.67,8.67,0,0,0,2.58-2.82,5.17,5.17,0,0,0,.51-1c.15-.34.36-.65.54-1a1.4,1.4,0,0,0,.15-.42,10.55,10.55,0,0,0,.23-3.8c-.08-.33-.16-.65-.25-1s-.25-.61-.37-.92a3.57,3.57,0,0,0-.1-.35c-.06-.14-.11-.29-.18-.42a8.75,8.75,0,0,0-3.26-3.43c-.15-.11-.59-.39-1.05-.68a5.56,5.56,0,0,0-1.19-.55C138.31,395.24,137.6,394.72,137.37,394.73Z"/><path class="cls-1" d="M116.8,374.52a28.2,28.2,0,0,1-8.48-5c-5.8-5.42,2.72-7.71,6.87-9.9,3.58-1.88,9.17-4.93,6.78-9.78-.91-1.85-10.63-7.57-9.09-8.65,2.41-1.69-1.11-3.29-2.89-2-5.1,3.58,1.11,7.5,4.35,9.44,1.31.77,3.54,1.83,3.75,3.54.31,2.47-3.09,3.94-4.84,4.87-2.64,1.4-5.58,2.36-8,4.06-9.49,6.51,3,14,9.1,16.48,1.88.77,5.06-1.92,2.5-3Z"/><path class="cls-1" d="M405.87,383.26a3.16,3.16,0,0,1-2.62-.76c-.24-.19-.21-.78.08-.86a17.48,17.48,0,0,1,1.73-.43c.35-.07,6-.34,7.87-.46s3.69-.13,5.54-.13c3.76,0,7.51,0,11.27,0,.83,0,1.67,0,2.5.08,2.86.19,5.72.2,8.58.15a7.53,7.53,0,0,0,1.43-.08c.76-.15,8.52-.14,9.52-.07,2.5.18,5,.29,7.5.42a4.1,4.1,0,0,1,1.06.1,8.1,8.1,0,0,0,2.3.22c1.07,0,2.14.07,3.21.15a10.6,10.6,0,0,1,1.57.3c.48.1.22.47,0,.51-.48.11-.09.29,0,.44a.3.3,0,0,1,0,.16c-.05.09-6.21.74-6.88.74-.17,0-9.16.21-10.18.26-.53,0-1.07,0-1.6-.07-.25,0-7.44.21-7.73.2a33.39,33.39,0,0,1-4.47-.14,5.26,5.26,0,0,0-.89,0c-2.56,0-5.12,0-7.68-.09-1.31,0-2.62,0-3.92,0-.24,0-.48,0-.71,0s-.6-.05-.89,0c-3.1,0-6.2-.09-9.3,0-.71,0-4.11-.24-4.94-.2C407.78,383.59,406.28,383.19,405.87,383.26Z"/><path class="cls-1" d="M323.49,383.26c-.39.17-.71-.15-1-.76a1.24,1.24,0,0,1,0-.86,4.12,4.12,0,0,1,.66-.43c.14-.07,2.28-.34,3-.46a13.59,13.59,0,0,1,2.11-.13c1.44,0,2.87,0,4.3,0a6.22,6.22,0,0,1,1,.08,14.94,14.94,0,0,0,3.27.15,1.15,1.15,0,0,0,.55-.08,20,20,0,0,1,3.64-.07c1,.18,1.9.29,2.86.42.13,0,.28,0,.4.1a1.31,1.31,0,0,0,.88.22,9.91,9.91,0,0,1,1.22.15,2,2,0,0,1,.61.3c.18.1.08.47,0,.51s0,.29,0,.44a.85.85,0,0,1,0,.16,16.55,16.55,0,0,1-2.62.74c-.07,0-3.5.21-3.89.26a2.54,2.54,0,0,1-.61-.07c-.1,0-2.84.21-2.95.2a5,5,0,0,1-1.71-.14.78.78,0,0,0-.34,0c-1,0-1.95,0-2.93-.09-.5,0-1,0-1.5,0a1.28,1.28,0,0,1-.27,0,1.32,1.32,0,0,0-.34,0c-1.18,0-2.36-.09-3.55,0-.27,0-1.57-.24-1.88-.2S323.65,383.19,323.49,383.26Z"/><path class="cls-1" d="M53.75,383.26c-.53.17-1-.15-1.35-.76-.13-.19-.11-.78,0-.86a6,6,0,0,1,.89-.43c.18-.07,3.08-.34,4.06-.46a24.88,24.88,0,0,1,2.86-.13c1.94,0,3.87,0,5.81,0a11.17,11.17,0,0,1,1.29.08,27.35,27.35,0,0,0,4.43.15,2,2,0,0,0,.73-.08,36.41,36.41,0,0,1,4.92-.07c1.28.18,2.57.29,3.86.42a1.15,1.15,0,0,1,.55.1,2.26,2.26,0,0,0,1.18.22c.56,0,1.11.07,1.66.15a3.33,3.33,0,0,1,.81.3c.25.1.11.47,0,.51-.25.11,0,.29,0,.44a.45.45,0,0,1,0,.16,28.5,28.5,0,0,1-3.55.74c-.08,0-4.72.21-5.25.26a4.54,4.54,0,0,1-.82-.07c-.13,0-3.84.21-4,.2a8.88,8.88,0,0,1-2.3-.14,1.43,1.43,0,0,0-.46,0c-1.32,0-2.64,0-4-.09-.67,0-1.34,0-2,0a2.23,2.23,0,0,1-.36,0,2.45,2.45,0,0,0-.46,0c-1.6,0-3.2-.09-4.8,0-.37,0-2.12-.24-2.55-.2C54.74,383.59,54,383.19,53.75,383.26Z"/><path class="cls-1" d="M271.08,295.63c-.31,0-.21-.39.06-1.09a2.38,2.38,0,0,1,.62-.84,3.13,3.13,0,0,1,.69-.12,11.36,11.36,0,0,1,2,1.09,4.53,4.53,0,0,1,1.16,1.15,10.25,10.25,0,0,1,1.65,3.13,3.47,3.47,0,0,1,.1.85,23.15,23.15,0,0,1-.25,2.89,1,1,0,0,0,0,.49,4.86,4.86,0,0,1-.47,1.5,6.82,6.82,0,0,1-.89,1.26,21.54,21.54,0,0,1-1.87,1.28c-.08.06-.14.16-.29.12a.68.68,0,0,0-.67.17,3.83,3.83,0,0,1-.79.38,1.4,1.4,0,0,1-.53,0c-.17,0-.36-.44-.36-.5s-.18-.3-.29-.45a.76.76,0,0,1-.11-.16,8.42,8.42,0,0,1,.72-1.67,7.18,7.18,0,0,0,1.18-1.74c0-.1.14-.14.23-.21s.06-.09.12-.21a2.63,2.63,0,0,0,.09-.44l.1-.43c0-.11,0-.19,0-.2a1,1,0,0,1,.27-.66.15.15,0,0,0,0-.14,4.62,4.62,0,0,0-.06-.63,2.26,2.26,0,0,0-.39-1.35s0-.1,0-.15a.53.53,0,0,0,0-.18,5.31,5.31,0,0,0-1.2-1.54c-.12-.09-.43-.85-.61-.93S271.21,295.63,271.08,295.63Z"/><path class="cls-1" d="M263.32,281.16s8.51,2.42,10.13,1.55c-.61-1.84-2.78-5.87-4.31-5.87-1.77,0-4.36,3.93-5.82,4.32"/><path class="cls-1" d="M262.44,282q2.63.75,5.31,1.28c2,.38,4.34.9,6.28.08.3-.13,1-.54.87-1-.78-2.17-2.46-6.2-5.2-6.32a5.34,5.34,0,0,0-3.35,1.33c-1.15.9-2.24,2.7-3.6,3.22-1.89.72-.18,1.73,1.15,1.22,2-.75,2.84-3,4.65-3.83q.43-.19,0-.24a3.36,3.36,0,0,1,.7.6,8.59,8.59,0,0,1,1,1.36A16,16,0,0,1,272,283.1l.87-1c.37-.15-.49-.05-.67-.06a12.1,12.1,0,0,1-1.21-.14c-1.06-.16-2.11-.38-3.16-.62-1.21-.27-2.42-.57-3.62-.91-.94-.27-3.41,1.13-1.77,1.59Z"/><path class="cls-1" d="M133.09,387.07C129,378.24,98.46,389,97.19,389,97.19,389,121.48,396.38,133.09,387.07Z"/><path class="cls-1" d="M293.39,146.79a4.49,4.49,0,0,1-3.85,1.45c-4-.28-8.1-.17-11.56,1.16a8.75,8.75,0,0,0-3.69,2.52,10,10,0,0,0-1.83,4.25,27.18,27.18,0,0,0-.21,8.69,33,33,0,0,0,2.21,8.5,19.08,19.08,0,0,0,2.45,4.43,10.47,10.47,0,0,0,3.42,3,4.36,4.36,0,0,1,.65.32.89.89,0,0,1-.27,1.51c-.16.07-.37.21-.5.16a16.05,16.05,0,0,0-2-.55,3.86,3.86,0,0,1-1.9-1,24.54,24.54,0,0,1-4.71-6.92,19.23,19.23,0,0,1-1.09-3.12,41.31,41.31,0,0,1-.73-4.12,39.42,39.42,0,0,1-.46-7.19,23,23,0,0,1,.9-5.86,12.7,12.7,0,0,1,1.39-3.1,9.68,9.68,0,0,1,2.45-2.57,14.73,14.73,0,0,1,6.07-2.44,28.59,28.59,0,0,1,5.44-.42,39.54,39.54,0,0,1,5.49.47A14.79,14.79,0,0,1,293.39,146.79Z"/><path class="cls-1" d="M263.88,150.85c-1.44,1.42-1.94,1.61-2.45,1.47a25.94,25.94,0,0,0-4.89-.84c-.7-.08-1.4-.09-2.11-.15a12.39,12.39,0,0,0-2.11.11,17.65,17.65,0,0,0-6.82,2.63c-.6.42-1.22.83-1.8,1.27s-1,1-1.5,1.53c-.08.09-.12.22-.26.24-.38,0-1.05-.53-1.33-1.16-.06-.14-.19-.36-.14-.4.41-.42,0-1.58.53-2a7.8,7.8,0,0,0,.68-.61c.23-.2.46-.4.68-.61.45-.42.89-.86,1.37-1.27a7.88,7.88,0,0,1,1.3-.73,11.75,11.75,0,0,1,1.82-.6,21.58,21.58,0,0,1,8.64-1.62,20,20,0,0,1,5.23.83,15,15,0,0,1,2.37.91A4.19,4.19,0,0,1,263.88,150.85Z"/><path class="cls-1" d="M265.71,198.2c1.63.55,3.08,1.08,4.47,1.51a18.19,18.19,0,0,0,4,.84,8.88,8.88,0,0,0,3.76-.46,13.25,13.25,0,0,0,2-.79c.71-.3,1.34-.77,2.18-1.1a9,9,0,0,1-1,2.37,7.51,7.51,0,0,1-1.84,1.94,7.62,7.62,0,0,1-5.32,1.53,9.89,9.89,0,0,1-5-1.89A9.44,9.44,0,0,1,265.71,198.2Z"/><path class="cls-1" d="M235.06,247.31a3.91,3.91,0,0,1-.7-.71,3.44,3.44,0,0,1-.41-.84,4.36,4.36,0,0,1-.2-1.84c0-.4.75-.82,1.07-.6.61.45,1.2.88,1.75,1.36l1,.94c.27.26.58.55.91.88l1.14.93.59.49.64.44,1.25.86,2.08,1.17a58,58,0,0,0,6.17,2.62A53.73,53.73,0,0,0,264,255.48c1,.09,2.1.14,3.14.28a55.6,55.6,0,0,0,10.87,0,9.67,9.67,0,0,0,1.79-.27c.47-.16,3.14-.46,5.81-.95s5.32-1.11,5.93-1.23a29.25,29.25,0,0,0,8.57-2.94,5.39,5.39,0,0,1,1.05-.61,3.52,3.52,0,0,0,1.87-1.61,3.43,3.43,0,0,0,.4-2.93c0-.13-.06-.27-.09-.41s-.1-.28-.14-.43a5.6,5.6,0,0,0-.33-.88.37.37,0,0,1,.52-.5c.52.4.4-.15.52-.34s.1-.14.17-.15a1.5,1.5,0,0,1,.31.27,5.07,5.07,0,0,1,.69.82,5.78,5.78,0,0,1,1.14,3.37,6.81,6.81,0,0,1-1.21,3.7,8.81,8.81,0,0,1-1.36,1.6,17.34,17.34,0,0,1-1.77,1.37,27.73,27.73,0,0,1-4,2.17,54.86,54.86,0,0,1-6.93,2.42,15.18,15.18,0,0,1-2.12.38c-.17,0-2.6.6-5.05,1s-4.92.69-5.11.7a29.4,29.4,0,0,1-5.93.09,7.87,7.87,0,0,0-1.19,0,73.61,73.61,0,0,1-10.16-.54c-1.73-.21-3.47-.39-5.21-.69-.31-.06-.61-.17-.92-.25s-.77-.22-1.16-.29a45.51,45.51,0,0,1-11.82-4.4,23.11,23.11,0,0,1-2.73-2L238,250.89c-.46-.4-.8-.78-1-1a8,8,0,0,1-1-1.31A7,7,0,0,0,235.06,247.31Z"/><path class="cls-1" d="M297.43,246.46A32.56,32.56,0,0,1,310,252.33c1,.82.45,1.3-.89.7a79.13,79.13,0,0,0-8.34-3l-1.79-.52c-.94-.28-2.19-.68-3.72-1l-2.43-.59c-.87-.21-1.8-.34-2.76-.53l-3-.53-3.17-.38c-2.15-.31-4.38-.38-6.57-.5s-4.38-.06-6.43,0c-1,0-2,0-3,.08l-2.73.23c-1.72.16-3.24.25-4.45.41a124.34,124.34,0,0,0-27.58,6.94c-2.24.88-4.54,1.7-6.74,2.64s-4.29,2.07-6.39,3.23a100.18,100.18,0,0,0-11.94,8.09,157.87,157.87,0,0,0-21,20.08c-2.85,3.24-5.63,6.57-8.32,9.94a187.22,187.22,0,0,0-23.38,37.7c-1,2.24-2.07,4.54-2.85,6.79-.33.92-1.51,3.94-2.87,8.09a84.59,84.59,0,0,0-3.48,14.9c-.71,5.4-.52,10.92.83,14.89a17,17,0,0,0,2.36,4.72l.61.79.57.62a8,8,0,0,0,.87.84,14,14,0,0,0,3.59,2.36l1,.45,1.11.38,2.23.74c1.5.48,3.08.8,4.61,1.2s3.15.61,4.72.92A179.66,179.66,0,0,0,188,395c1.85.1,3.83.14,5.52.29a115.93,115.93,0,0,0,12,.32c5.59,0,11.19-.16,16.77-.34,2.76-.09,5.5-.08,8.22-.13,2.48,0,1.17.49.3.6-2.51.31-.45.38-.2.54.08.06.19.13.07.19s-.56.08-1.47.17l-3.76.34c-3.1.27-7.26.56-11.53.81-8.54.49-17.51.62-19.28.54-.22,0-3.33,0-8-.21s-10.8-.53-17.1-1.44c-3.15-.46-6.33-1-9.35-1.76l-1.13-.26L158,394.3l-2.16-.67-1.05-.34-1-.43A18.43,18.43,0,0,1,146.2,387a11.88,11.88,0,0,1-.79-1.15,10.62,10.62,0,0,1-.6-1l-.74-1.44a25.77,25.77,0,0,1-2-8.75,42.59,42.59,0,0,1-.05-7,71.55,71.55,0,0,1,2.38-13.63,131.32,131.32,0,0,1,7-19.36A155.26,155.26,0,0,1,162.68,314c.86-1.28,1.69-2.64,2.55-4a199.8,199.8,0,0,1,25.2-31.68,156.73,156.73,0,0,1,15.4-13.93c1-.76,2-1.48,3-2.21q1.95-1.35,3.93-2.66a82,82,0,0,1,10.77-6.11c1.89-.9,3.81-1.6,5.73-2.33l5.74-2.2,5.9-1.78,2.95-.89c1-.25,2-.45,3-.69,2-.44,4-.92,6-1.33l6.1-.93c.47-.07,1.15-.2,2-.27l3.05-.2,3.73-.22c1.32-.06,2.7,0,4.09,0s2.77,0,4.11.09l3.8.29c2.37.12,4.29.5,5.38.6.61.08,1.56.22,2.66.42l3.62.86c1.26.27,2.48.64,3.53,1S296.9,246.34,297.43,246.46Z"/><circle class="cls-1" cx="237.3" cy="362.99" r="1.16"/><circle class="cls-1" cx="243.3" cy="366.74" r="1.16"/><circle class="cls-1" cx="250.04" cy="362.58" r="0.75"/><circle class="cls-1" cx="248.88" cy="371.38" r="1.16"/><circle class="cls-1" cx="255.84" cy="375.73" r="1.16"/><circle class="cls-1" cx="239.62" cy="374.57" r="1.16"/><circle class="cls-1" cx="232.84" cy="371.38" r="1.16"/><circle class="cls-1" cx="244.46" cy="375.73" r="0.82"/><circle class="cls-1" cx="242.96" cy="383.16" r="0.82"/><circle class="cls-1" cx="247.72" cy="367.48" r="0.82"/></g></svg>