<?xml version="1.0" encoding="UTF-8"?><svg id="Layer_1" xmlns="http://www.w3.org/2000/svg" width="520" height="520" viewBox="0 0 520 520"><defs><style>.cls-1,.cls-2,.cls-3,.cls-4,.cls-5,.cls-6,.cls-7{fill:#231f20;}.cls-2{opacity:.2;}.cls-3{opacity:.75;}.cls-4{opacity:.25;}.cls-5{opacity:.45;}.cls-6{opacity:.35;}.cls-7{opacity:.65;}</style></defs><path class="cls-7" d="m89.53,422.45s-25.6,7.96-22.78,9.44c2.82,1.48,37.36-6.86,37.36-6.86l-14.58-2.58Z"/><path class="cls-7" d="m183.08,434.5s-24.74,8.82-19.44,10.19c5.31,1.37,34.65-9.16,34.65-9.16l-15.21-1.03Z"/><path class="cls-7" d="m113.05,274.23c-8.67,3.03-21.08,2.71-23.32,0-1.33-1.61-1.03-1.55-3.05-1.02l-22.59,5.86,13.75,7.33,35.21-12.16Z"/><path class="cls-1" d="m88.57,282.68c-11.51,2.63-18.3-4.19-18.3-4.19l-5.05,1.82,12.63,6.08,10.73-3.71Z"/><path class="cls-6" d="m75.01,321.73c.77-7.15,1.57-29.53-13.78-32.55l1-8.88,14.87,8.12s1.11,13.2.73,18.9c-.38,5.69-2.82,14.4-2.82,14.4Z"/><path class="cls-1" d="m71.69,334.35c3.32-4.99,6.14-29.2,3.21-41.91-1.32-5.73-13.67-11.03-13.67-11.03l1.99-1.11,14.61,6.99s-.03,16.38,0,22.21c.03,5.84-6.14,24.83-6.14,24.83Z"/><path class="cls-1" d="m88.74,333.66c-16.98,6.72-15.07-2.75-15.07-2.75l-1.91,7.83,16.98-5.08Z"/><path class="cls-1" d="m127.69,241.81s16.18-10.34,16.49-6.76c.31,3.59-.44,4.54-.44,4.54l-2.54-.48s-1.82,14.83-4.15,20.17c-2.33,5.34-7.8,14.03-7.8,14.03,0,0,.47,2.44,3.57,4.19,3.47,1.97,25.56,7.89,31.7,6.88,6.14-1.01,20.15-5.3,19.16-7.45s-11.85-32.71-14.44-33.76,16.09-4.62,16.09-4.62l17.89,42.85s14.85,51.22,17.34,64.86c2.49,13.64,9.87,72.82,7.67,73.19s-19.57,10.99-26.04,12.42c-6.47,1.43-46.78,7.63-52.8-7.21l5.67-34.99,1.52-50.32s-8.01,46.92-11.34,54.56c-3.33,7.65-8.67,24.24-13.34,26.21-4.66,1.97-47.43,11.3-60.15-10.8l28.02-70.48s25.61-63.37,27.13-77.29c1.5-13.78.79-19.77.79-19.77Z"/><path class="cls-5" d="m183.91,278.27c-.11.65-16.64-4.95-16.64-4.95l-3.63,10.33,20.27-5.39Z"/><path class="cls-1" d="m172.07,281.41s6.37-2,7.61-4.1c1.03-1.76,1.41,3.34-1.23,3.65-2.64.31-6.37.45-6.37.45Z"/><path class="cls-1" d="m178.44,277.83s3.17-.13,1.63-7.68c-1.05-5.15,3,9.27,3,9.27l-4.64-1.59Z"/><path class="cls-1" d="m164.52,283.42s8.56-30.89,6.42-35.62-2.05-2.08-2.05-2.08c0,0,.57,15.8-.11,15.86s-4.26,21.84-4.26,21.84Z"/><path class="cls-1" d="m192.02,222.75c-.28.52,1.87,10.13,1.51,11.89-.28,1.36-5.57.38-9.85,3.63l12.96-1.51-4.62-14.01Z"/><path class="cls-1" d="m189.91,247.23s8.38-5.42,6.45-8.67c-1.64-2.75-12.6-2.63-10.84.89,1.75,3.52,4.4,7.78,4.4,7.78Z"/><path class="cls-1" d="m90.87,230.88c-.73-.07-1.47-.13-2.22-.14-.27,0-.54.04-.81.05-.95,0-1.92.08-2.85.28-.42.07-.82.24-1.21.38-.49.22-.99.42-1.53.56-.17.04-.24-.13-.21-.38.03-.25.17-.6.44-.81.49-.36,1.05-.59,1.62-.78.57-.18,1.16-.31,1.75-.37.71-.07,1.42-.26,2.15-.34.79-.07,1.59-.1,2.38-.06.49.01.97.05,1.45.08.73.05,1.46.16,2.18.21.56.05,1.13,0,1.7,0,.13,0,.25,0,.37.01.46.07.58.22.58.69,0,.11,0,.22,0,.32-.03.36-.27.62-.61.67-1,.17-1.97,0-2.97-.1-.73-.09-1.47-.19-2.21-.24v-.04Z"/><path class="cls-1" d="m80.57,218.22c-.28.42-5.76,7.72-1.85,9.02,2.99,1,11.79,1.18,11.79,1.18,0,0-17.12,6.48-15.5-1.09,1.62-7.56,5.56-9.12,5.56-9.12Z"/><path class="cls-1" d="m121.46,213.32c-.36.3-.74.58-1.08.91-.13.12-.22.26-.34.38-.45.41-.89.84-1.29,1.31-.17.21-.33.43-.47.65-.18.29-.34.6-.61.84-.09.07-.25-.03-.38-.21-.13-.18-.25-.44-.19-.64.12-.35.26-.7.43-1.02.18-.32.41-.61.68-.87.32-.32.51-.74.79-1.09.3-.39.63-.76.97-1.13.22-.21.43-.43.65-.64.33-.33.68-.62.98-.97.24-.26.4-.6.6-.9.04-.07.08-.14.13-.2.2-.22.34-.2.72.14l.24.21c.23.23.41.59.32.79-.23.63-.65,1.07-1.09,1.52-.33.32-.67.64-1,.96l-.03-.03Z"/><path class="cls-1" d="m124.19,211.58c.03.42-7.06,10.66-3.28,14.54,3.43,3.53-4.22-1.56-3.78-3.88.45-2.33,7.06-10.66,7.06-10.66Z"/><path class="cls-4" d="m111.21,218.22l7.36,24.67,24.03-9.26s-26.72-5.86-26.12-9,3.86-6.18-.06-6.25-5.21-.16-5.21-.16Z"/><path class="cls-1" d="m103.81,218.18c-.92-.29-1.84-.59-2.76-.9-.33-.11-.68-.17-1.01-.3-1.16-.43-2.32-.9-3.45-1.41-.5-.23-1.01-.44-1.52-.64-.32-.14-.66-.25-.96-.42-.3-.19-.58-.42-.86-.65-.17-.15-.09-.25.16-.34.24-.08.67-.23,1.08-.2.37,0,.68.16,1.01.24.33.09.66.19.99.3.67.18,1.3.46,1.93.78.76.37,1.62.53,2.45.77.91.27,1.81.54,2.73.78l1.7.44c.86.21,1.72.43,2.59.55.68.08,1.35.09,2.02.16.15.01.29.02.44.04.55.09.71.23.78.63.02.09.04.19.05.27.02.3-.24.53-.67.6-.63.11-1.28.17-1.94.2-.65,0-1.29-.12-1.94-.22-.96-.17-1.91-.38-2.85-.63v-.05Z"/><path class="cls-1" d="m133.03,233.51c-1.24-.29-2.46-.63-3.68-.98-.45-.12-.9-.23-1.34-.37-1.56-.5-3.06-1.15-4.56-1.79-.66-.3-1.34-.54-1.99-.84-.83-.39-1.65-.82-2.42-1.34-.24-.16-.16-.24.12-.27.28-.02.77-.04,1.28.09,1.85.38,3.5,1.14,5.22,1.83.51.22,1.05.39,1.6.54l1.64.47c1.2.36,2.4.68,3.62.98.75.18,1.5.35,2.26.5,1.15.22,2.3.44,3.46.59.9.11,1.79.12,2.68.17.2,0,.39.03.58.06.73.12.95.27,1.08.57.03.07.07.13.09.2.05.2-.27.38-.82.46-.82.15-1.66.14-2.5.09-.84-.04-1.7-.13-2.55-.23-1.27-.16-2.52-.43-3.78-.69v-.04Z"/><path class="cls-1" d="m117.34,238.58s6.07,3.24,20.29-2.99c7.06-3.09-18.78,8.26-18.78,8.26l-1.51-5.27Z"/><path class="cls-1" d="m85.85,165.11s7.11.67,8.58,4.56c2.03,5.37,8.7,30.27,8.7,30.27,0,0,2.51-.03,1.61-3.3-.9-3.27-9.28-30.87-9.28-30.87l-9.61-.67Z"/><path class="cls-1" d="m108.13,217.32s7.24,22.1,5.16,22.32c-2.07.22,5.55,4.2,4.58.81-.97-3.38-6.67-23.3-6.67-23.3l-3.08.17Z"/><path class="cls-4" d="m129.74,206.35c-24.16-25.69-8.83-55.33,1.4-54.18l-35.67,13.6,10,33.26s-3-13.07-.77-11.39c2.22,1.67,8.63,16.98,11.73,18.72,3.11,1.73,6.11,3.81,9.71,1.9l3.6-1.9Z"/><path class="cls-7" d="m83.71,160.62s-3.71,2.59.63,3.74,11.11,1.42,11.11,1.42l45.65-18.62-13.62-4.33-43.78,17.8Z"/><path class="cls-1" d="m158.05,177.28s7.23,10.11,8.8,7.46c1.94-3.28,4.08-6.11,5.89-7.84,3.07-2.93-7.19,15.75-7.19,15.75l-7.5-15.36Z"/><path class="cls-1" d="m181.19,146.15c-.74.3-1.46.65-2.17,1.02-.26.14-.48.33-.74.47-.89.51-1.82,1.01-2.68,1.6-.38.27-.73.57-1.06.89-.22.19-.45.38-.68.57-.26.16-.5.33-.86.4-.21.06-.24,0-.26-.25-.04-.26-.09-.74.05-1.1.16-.28.37-.52.56-.78.2-.24.46-.44.7-.64.48-.41,1.01-.77,1.57-1.08.67-.37,1.26-.9,1.93-1.3.72-.45,1.49-.84,2.25-1.22.48-.22.95-.44,1.42-.65.72-.33,1.47-.59,2.17-.92.55-.25,1.06-.59,1.6-.88.12-.07.23-.14.36-.18.47-.17.66-.09.92.36.06.1.12.2.17.31.16.36.08.73-.21.97-.85.71-1.84,1.07-2.83,1.51-.73.32-1.48.6-2.2.96l-.02-.04Z"/><path class="cls-1" d="m176.31,141c-15.08,1.82-10.02-7.06-10.02-7.06,0,0-4.7,2.73-4.05,4.72.66,2,.97,5.35,3.48,4.9,2.52-.44,10.59-2.57,10.59-2.57Z"/><path class="cls-1" d="m220.02,69.89c0-12.42-26-28.99-45.54-10.35,0,0-8.31,10.57-12.28,10.35s-15.31-1.44-19.6,3.86c-4.29,5.3-7.92,14.98-7.34,24.1.58,9.12,8.35,19.23,13.97,22.46,5.62,3.23,14,6.93,19.02,7.29,5.01.36,2.21-2.8,2.21-2.8,0,0-3.43-11.63-2.45-15.54s-1.17-4.42-1.17-4.42c0,0-5.87-3.37-5.52-6.99.35-3.62,1.54-8.76,6.67-8.39,5.13.38,6.7,3.7,6.97,5.04s.38,5.2,2.96,3.55c2.58-1.65,9.04-9.23,9.36-12.11s2.85,1.05,6.75,1.83,21.29,2.13,24.45-.86c2.09-1.98,3.07,8.96,1.72,11.97s-3.33,18.52-9.45,25.16c-6.11,6.64-13.18,12.01-17.7,12.25-4.52.24-11.29-2.02-11.29-2.02,0,0-.58,4.72,1.74,6.4s13.31,5.09,16.41,9.51c3.1,4.43,6.69,16.08,9.05,22.29,2.36,6.22,13.09,15.4,20.05,16.46,6.96,1.05,20.05,4.24,27.33-2.85,7.27-7.09,11.93-12.56,11.83-18.26s-1.33-12.68-5-18.25c-3.67-5.57-14.38-16.73-13.91-21.97s4.28-11.86,6.7-18.57c2.42-6.72,4.62-13.04,3.95-18.8-.68-5.76-3.22-11.6-4.35-15.41-1.13-3.8-18.26-13.4-35.53-4.93Z"/><path class="cls-1" d="m197.78,245.21c-.52.65-1.12,1.22-1.71,1.77-.22.19-.4.42-.63.61-.83.62-1.69,1.16-2.57,1.62-.4.19-.76.44-1.14.65-.24.14-.47.3-.72.42-.26.1-.55.16-.83.19-.18.02-.26-.2-.26-.51,0-.3.06-.75.26-1,.85-.65,1.61-1.33,2.58-1.77.57-.29.99-.8,1.43-1.25.5-.48.96-1.01,1.39-1.55.25-.35.5-.7.72-1.07.34-.55.65-1.15.82-1.77.12-.49.08-1.01.06-1.51,0-.11-.03-.22-.02-.33.04-.4.22-.5.81-.55.13,0,.27-.03.4-.03.44-.01.8.2.92.57.37,1.09.14,2.25-.26,3.31-.31.79-.69,1.56-1.22,2.22l-.05-.03Z"/><path class="cls-1" d="m185.59,239.18c-1.78.41-3.57.95-5.35,1.55-.65.22-1.28.5-1.93.72-2.3.79-4.65,1.53-7.06,2.14-1.06.27-2.15.53-3.25.72-.7.12-1.43.21-2.16.13-.37-.03-.73-.07-1.09-.17-.18-.05-.36-.08-.53-.14-.17-.07-.34-.17-.5-.26-.4-.23-.28-.33.13-.49.43-.17,1.08-.43,1.79-.52,1.25-.21,2.53-.36,3.84-.71,1.3-.33,2.62-.73,3.96-1.11,1.61-.47,3.21-1.21,4.83-1.83,1.79-.67,3.61-1.31,5.47-1.86,1.14-.34,2.31-.63,3.49-.86,1.79-.35,3.65-.51,5.51-.41,1.44.09,2.91.27,4.31.82.32.11.62.22.91.39.55.29.87.56,1.01.84.14.28.13.54.01.87-.06.15-.1.31-.18.45-.26.44-.9.52-1.54.19-2-.84-4.04-1.33-6.38-1.22-1.71.04-3.51.35-5.28.81l-.02-.05Z"/><path class="cls-1" d="m192.89,228.35l-.89-4.81c-.11-.58-.27-1.15-.37-1.74-.34-2.06-.55-4.15-.83-6.21-.12-.92-.29-1.83-.46-2.73-.23-1.15-.48-2.31-.36-3.52.03-.38.18-.35.48-.09.15.13.34.32.56.55.23.23.42.51.51.83.4,1.14.62,2.31.89,3.48.25,1.17.46,2.35.62,3.54.2,1.43.62,2.87.94,4.3.35,1.58.69,3.16,1.06,4.73.23.97.47,1.93.72,2.9.38,1.46.75,2.93,1.25,4.34.39,1.1.92,2.12,1.41,3.16.1.23.24.45.33.68.17.44.25.74.19,1-.08.26-.24.46-.49.66-.11.09-.22.2-.33.27-.19.12-.4.12-.65.03-.24-.09-.55-.27-.73-.58-1.19-1.78-1.95-3.86-2.62-5.97-.49-1.57-.94-3.16-1.29-4.77l.06-.02Z"/><path class="cls-1" d="m189.39,446.79l-8.57.08c-1.04.01-2.08.09-3.13.09-3.68-.01-7.36-.02-11.03-.03-1.63,0-3.27.06-4.89.07-1.04.02-2.08.03-3.12.05-1.04-.02-2.09,0-3.13-.26-.65-.34-.56-.3-.01-.74.55-.42,1.55-.96,2.74-1.01,2.11-.12,4.22-.28,6.34-.3,2.12-.02,4.24-.01,6.38.05,2.56.08,5.21-.16,7.82-.24,2.87-.09,5.75-.18,8.63-.23l5.31-.11c2.68-.07,5.38-.08,8.04-.19,2.07-.08,4.1-.3,6.15-.42.45-.03.89-.09,1.35-.09,1.69-.01,2.23.17,2.59.83.08.15.19.3.23.45.16.51-.53.93-1.76,1.1-3.64.49-7.46.59-11.32.72-2.87.07-5.75.15-8.62.22v-.06Z"/><path class="cls-1" d="m164.59,444c1.78,0,3.73-.29,5.65-.62,1.93-.35,3.87-.79,5.79-1.29,1.41-.36,2.78-.84,4.18-1.25,4.94-1.43,9.86-3.03,14.65-4.93.73-.29,1.46-.6,2.17-.93l.64-.31.41-.2c.14.02.27.17.41.24.06.03.14.13.2.11l.16-.05.31-.1c.2-.07.39-.14.55-.21.11-.05.23-.1.27-.15.08.01.2.08.29.11.17.09.49.16.77.23.1.24.15.51.22.76.17.51.21,1.11.28,1.67.01.32.05.45.04.66,0,.2-.03.39-.04.58,0,.77,0,1.52-.05,2.27-.07,1.5-.32,2.97-.63,4.4-.32.88-.34.79-.72-.01-.2-.4-.38-.97-.57-1.65-.21-.68-.36-1.46-.39-2.29-.05-.89-.08-1.77-.24-2.61-.08-.21-.16-.42-.24-.61,0-.08-.05-.26-.01-.23,0-.01,0,0,0,0l.02-.03s0-.02,0-.02c0,0-.01-.01-.03-.02-.02,0,0-.01-.05,0l-.65.29c-.86.38-1.73.72-2.59,1.05-1.73.66-3.48,1.26-5.26,1.82-3.49,1.08-7.01,2.48-10.6,3.54-3.95,1.15-7.93,2.2-12.11,2.71-1.31.13-2.57.23-4.02.09-.93-.09-1.85-.33-2.55-.78-.36-.22-.65-.5-.88-.83-.12-.16-.2-.35-.28-.54-.01-.21-.07-.41-.04-.6.06-.58.44-1.09.86-1.58.47-.47,1.03-.93,1.58-1.29.84-.55,1.67-1.05,2.53-1.5,1.71-.91,3.46-1.72,5.22-2.46,2.74-1.15,5.44-2.27,8.37-2.98.65-.16,1.28-.31,1.97-.4,2.54-.31,3.56.23,3.87,1.06.07.2.17.4.18.58,0,.3-.27.49-.65.59-.41.13-.97.2-1.75.31-2.3.29-4.76,1.07-7.19,1.94-2.44.89-4.89,1.91-7.23,3.09-.87.44-1.73.9-2.54,1.39-.4.23-.82.53-1.13.75-.03.01-.02,0-.04.01-.03,0-.06.05-.03.08.1.02-.27.05.94.06v.08Z"/><path class="cls-1" d="m97.32,434.9l-9.07.02c-1.1,0-2.2.05-3.3.04-3.88-.05-7.76-.17-11.64-.31-1.72-.05-3.45-.08-5.16-.1-1.1-.02-2.2,0-3.29-.06l-1.64-.14c-.55-.05-1.09-.12-1.64-.25-.68-.16-.59-.18,0-.37.58-.24,1.66-.58,2.92-.68,4.47-.14,8.93-.07,13.43.05,2.69.11,5.49-.04,8.25-.09,3.03-.05,6.06-.11,9.08-.21,1.86-.06,3.73-.12,5.59-.21,2.82-.13,5.65-.26,8.45-.51,2.17-.2,4.28-.55,6.42-.87.47-.07.93-.15,1.4-.22,1.76-.21,2.34-.06,2.78.57.1.15.23.29.29.44.22.5-.46,1-1.74,1.3-3.81.81-7.88,1.12-11.97,1.34-3.04.16-6.1.24-9.14.32v-.05Z"/><path class="cls-1" d="m68.33,431.16s-.05,0,.08.02c.1.02.21.03.32.04.21.03.44.04.66.06.45.03.92.04,1.39.03.95,0,1.92-.05,2.91-.13,1.96-.17,3.95-.44,5.93-.79,1.45-.25,2.87-.62,4.32-.91,5.09-1.04,10.18-2.28,15.17-3.79,1.07-.33,2.14-.68,3.18-1.07.52-.19,1.03-.4,1.54-.61.4-.12.8-.54,1.16.1.1.16.16.05.24.05l.22-.07.4-.14c.06-.03.13-.05.18-.08.05-.01.05-.06.08-.05l.12.05.24.1c.15.06.45.11.67.16.09.21.14.46.21.69l.1.35v.4c.01.26.04.54.02.79v.65c0,.69-.06,1.36-.16,2.01-.18,1.31-.57,2.53-.86,3.73-.34.86-.35.79-.72-.04-.19-.41-.33-1.01-.47-1.72-.15-.71-.23-1.51-.2-2.31.01-.59,0-1.15-.06-1.69l-.02-.16s.02,0,0,0c0,0,0,0,0,0l.02-.02s-.01.02,0,0c0,.02,0,0-.02,0l-.73.28-.79.29c-1.05.37-2.1.71-3.15,1.03-2.11.63-4.23,1.19-6.38,1.68-3.6.81-7.27,1.94-10.97,2.72-4.08.82-8.18,1.58-12.48,1.61-.47,0-.95-.02-1.43-.06-.24-.02-.48-.04-.73-.07-.12-.01-.24-.03-.37-.05-.17-.03-.34-.05-.51-.09-1.33-.28-2.52-.86-3.08-1.9l-.13-.33c.03-.13-.03-.24-.03-.36,0-.12,0-.23.01-.35l.11-.32c.18-.42.47-.81.83-1.17.49-.46,1.09-.92,1.64-1.25.43-.27.86-.51,1.3-.75.87-.47,1.75-.9,2.64-1.31,1.77-.82,3.57-1.55,5.37-2.22,2.81-1.05,5.57-2.09,8.52-2.75.65-.14,1.29-.29,1.97-.38,2.53-.31,3.48.11,3.88.91.09.19.22.38.25.55.06.61-.85.82-2.43,1.07-2.39.35-4.9,1.07-7.4,1.87-2.5.82-5.03,1.76-7.48,2.84-1.41.64-2.83,1.27-4.1,2.06-.32.19-.63.39-.92.59-.08.05-.04.02-.07.03-.02,0-.08.03-.06.06-.01.04.03.06.08.08l-.02.08Z"/><path class="cls-1" d="m218.76,346.02c-.39-2.32-.87-4.62-1.35-6.92l-1.41-6.91c-.98-4.6-2.1-9.16-3.15-13.74-.82-3.33-1.8-6.62-2.66-9.94l-1.14-4.39-1.27-4.35-2.54-8.7-2.81-8.62-1.42-4.31c-.47-1.44-1.03-2.84-1.55-4.26-1.89-5.02-3.73-10.09-5.92-14.94l-2.04-4.71c-.67-1.57-1.36-3.14-2.1-4.68l-2.13-4.67c-.71-1.56-1.31-3.17-1.94-4.77-.69-2.04-.56-1.79.57-.34.57.73,1.34,1.78,2.28,3.05.9,1.29,1.85,2.86,2.8,4.61l1.24,2.33c.41.78.73,1.6,1.1,2.4l2.14,4.82c1.42,3.22,2.89,6.42,4.09,9.73,1.22,3.3,2.43,6.61,3.65,9.93,1.07,3.36,2.15,6.73,3.22,10.1.32,1.01.65,2.02.97,3.04.3,1.02.6,2.05.91,3.09.62,2.06,1.24,4.13,1.87,6.21,1.32,4.14,2.43,8.36,3.55,12.54,1.28,4.58,2.34,9.23,3.43,13.86,1.15,4.62,2.04,9.3,3.03,13.95.63,2.86,1.14,5.74,1.66,8.62.51,2.88,1.1,5.75,1.55,8.64,1.44,8.75,2.74,17.56,3.74,26.3.21,1.7.42,3.39.62,5.07.18,1.69.35,3.37.53,5.05.4,3.36.64,6.73.88,10.11.13,1.49.19,2.95.22,4.47.03,1.4.04,2.56.04,3.54,0,.97-.12,1.77-.2,2.42-.18,1.3-.44,2.03-.82,2.61-.17.26-.35.61-.52.75-.58.48-.9-1.8-.96-5.79-.54-11.94-1.96-24.55-3.66-37.15-.33-2.34-.65-4.68-.98-7.03l-1.13-7.02c-.7-4.69-1.63-9.34-2.48-14.01l.06-.02Z"/><path class="cls-1" d="m98.63,425.35c-4.45-.58-8.89-1.5-13.22-2.94-2.16-.75-4.29-1.62-6.35-2.72-2.04-1.13-4.02-2.5-5.72-4.28-.21-.22-.43-.44-.63-.67l-.57-.75c-.19-.25-.38-.5-.56-.76l-.47-.83c-.15-.28-.32-.55-.45-.84l-.34-.9c-.1-.32-.25-.53-.33-1.04-.03-.24-.09-.5-.1-.73l.03-.6c.14-1.42.49-2.45.81-3.57.33-1.1.71-2.15,1.08-3.2,1.53-4.19,3.22-8.25,4.93-12.31,2.5-5.92,4.97-11.83,7.52-17.7,9.01-20.7,18.02-41.38,25.88-62.51,3.48-9.37,6.68-18.91,9.39-28.44,1.75-6.12,3.24-12.32,4.56-18.53,1.28-6.22,2.31-12.49,2.79-18.79.33-3.92.58-3.45,1.16-.05.27,1.7.47,4.14.48,7.09-.02,2.94-.32,6.38-.95,10.06-1.08,6.52-2.67,12.91-4.46,19.23-1.79,6.32-3.78,12.57-5.91,18.78-4.26,12.41-9.06,24.63-14.16,36.77-6.08,14.53-12.43,29.63-18.81,44.4l-5.2,12.19c-1.69,4.07-3.39,8.15-4.81,12.27-.35,1.03-.68,2.06-.94,3.07-.12.5-.22.99-.29,1.45-.02.48-.04.45.18,1.03.65,1.83,1.91,3.44,3.46,4.78,3.13,2.71,7.21,4.38,11.32,5.64,5.11,1.5,10.45,2.36,15.81,2.75,5.36.4,10.77.36,16.09-.25,2.01-.23,4.02-.55,5.96-1.03,1.93-.48,3.86-1.1,5.43-2.07.63-.46,1.27-1.18,1.83-1.98.57-.79,1.11-1.64,1.61-2.52,1.02-1.74,1.92-3.57,2.79-5.42,3.43-7.42,6.18-15.18,8.59-22.96,3.68-12.13,6.32-24.31,7.97-36.68.16-1.36.31-2.71.47-4.07.12-1.35.25-2.71.37-4.09.44-5.11.49-8.47.69-10.83.08-1.18.17-2.12.31-2.9.16-.78.33-1.41.49-1.97.15-.51.26-1.19.36-1.49.18-.51.41.27.91,2.15.31.94.41,2.16.55,3.62.14,1.46.15,3.17.15,5.09-.17,11.4-1.87,23-4.43,34.53-2.64,11.52-6.07,23.01-10.53,34.22-1.69,4.15-3.46,8.27-5.76,12.3-.57,1.01-1.19,2-1.92,3.01l-.55.75-.67.76c-.12.13-.21.25-.36.38l-.46.39-.47.38c-.16.12-.29.18-.44.27-2.33,1.36-4.62,1.98-6.9,2.51-4.56,1-9.11,1.34-13.65,1.44-4.54.05-9.07-.16-13.57-.75v-.08Z"/><path class="cls-1" d="m96.55,259.23c.32.8.59,1.61.84,2.44.08.31.24.58.3.89.21,1.1.32,2.21.3,3.31,0,.49,0,.96-.01,1.44-.03.3-.03.61-.08.91-.08.3-.2.59-.3.88-.07.18-.12.14-.22-.03-.09-.17-.3-.48-.4-.81-.12-.3-.11-.58-.17-.86-.05-.28-.11-.56-.16-.84-.12-.55-.23-1.1-.26-1.67-.05-.69-.39-1.34-.63-2-.25-.73-.54-1.47-.87-2.19-.2-.44-.42-.89-.65-1.32-.36-.65-.71-1.32-1.17-1.91-.35-.47-.84-.81-1.23-1.24-.09-.09-.2-.16-.24-.29-.19-.45-.12-.69.21-1.06.08-.08.14-.17.22-.25.25-.24.63-.28,1.04-.14.15.06.3.11.45.16.15.06.24.16.36.24.22.17.43.36.61.58.35.43.67.9.96,1.4.44.73.8,1.51,1.16,2.3l-.05.03Z"/><path class="cls-1" d="m77.99,241.61c-.77,1.39-1.31,2.88-1.49,4.41-.07.56,0,1.11.02,1.67.05,1.95.75,3.95,2.12,5.48.61.66,1.36,1.22,2.15,1.59.51.24,1.05.38,1.57.44.26.01.5.05.76.1.25.01.51.03.8,0,.36-.03.45.04.32.51-.06.23-.21.6-.52.89-.15.15-.34.31-.55.42-.1.06-.22.11-.34.17-.12.02-.24.03-.36.04-1.73.03-3.21-.62-4.46-1.5-1.2-.95-2.14-2.17-2.74-3.53-.71-1.61-1.35-3.36-1.37-5.16,0-1.96.46-3.86,1.23-5.57.44-1.06,1.05-2.04,1.63-2.99.89-1.37,1.78-2.74,2.52-4.17.58-1.12.98-2.29,1.44-3.45.1-.26.18-.52.29-.77.41-.94.77-1.13,1.47-1.02.16.02.33.03.48.08.5.14.71.72.55,1.48-.59,2.21-1.61,4.38-2.81,6.48-.44.78-.92,1.54-1.39,2.29l-.36.56-.31.52c-.22.34-.4.69-.58,1.05l-.06-.03Z"/><path class="cls-1" d="m83.31,255.41c-.76-.67-1.33-1.43-1.81-2.2-.16-.29-.41-.52-.52-.84-.43-1.09-.68-2.21-.81-3.32-.06-.49-.11-.99-.09-1.48.02-.63.09-1.31.51-1.85.12-.17.26-.05.41.17.14.23.31.52.35.81.04.5.18,1,.34,1.49.1.5.26,1,.38,1.53.15.64.62,1.17.97,1.72.37.62.81,1.21,1.31,1.7.31.31.65.56,1.01.76.61.31,1.23.56,1.58.37.32-.15.69-.67,1.17-1.09.11-.09.2-.21.32-.29.45-.3.69-.21,1.07.36.09.13.18.26.25.39.25.46.27.93.07,1.2-.3.41-.55.74-1,1.13-.24.19-.52.42-1.02.63-.49.2-1.07.26-1.56.21-.71-.08-1.21-.31-1.64-.51-.45-.22-.95-.53-1.34-.84l.03-.05Z"/><path class="cls-1" d="m94.68,249.46c.25.3.5.61.78.99.12.16.36.51.49.8.15.31.24.63.26.97,0,.67-.2,1.33-.59,1.88-.42.58-.81.86-1.28,1.14-.66.37-1.35.64-2.13.65-1.45-.02-2.49-.74-3.3-1.43-.82-.72-1.46-1.56-1.99-2.45-.46-.8-.9-1.61-1.15-2.51-.16-.57-.3-1.17-.28-1.79l.02-.46c.05-.15.1-.3.16-.45.09-.3.29-.56.46-.81.23-.31.32-.19.49.17.09.18.18.4.35.65.14.25.36.48.37.72.08.86.46,1.7.86,2.54.42.84.97,1.65,1.61,2.37.38.44.87.76,1.35.96.51.19.85.21,1.32.1.25-.06.49-.15.7-.28.21-.12.39-.31.45-.39.08-.12.16-.27.15-.43,0-.08-.04-.15-.08-.23-.02-.04-.03-.06-.07-.11l-.14-.18c-.52-.63-1.22-1.31-1.85-2.04-.96-1.11-1.77-2.48-2.19-3.98-.33-1.16-.48-2.39-.33-3.6.03-.27.08-.52.14-.78.3-.94.62-1.14,1.27-1.06.15.02.3.03.44.07.48.13.7.62.66,1.21-.08,1.79-.06,3.18.68,4.54.54,1.02,1.37,2,2.38,3.15l-.04.05Z"/><path class="cls-1" d="m97.33,236.76c0,1.03,0,2.08-.04,3.16,0,.39.03.79,0,1.18-.15,1.39-.44,2.87-1.23,4.13-.33.56-.7,1.1-1.15,1.56-.28.3-.59.57-.92.8-.35.21-.74.34-1.13.43-.25.05-.29-.14-.23-.45.06-.31.19-.76.41-1.08.95-.94,1.35-1.99,1.8-3.24.31-.76.23-1.66.23-2.54,0-.97-.05-1.98-.13-2.99l-.12-1.9c-.06-.97-.08-1.96-.1-2.96,0-.77-.15-1.58,0-2.44.04-.19.06-.38.13-.56.28-.69.6-.81,1.17-.61.13.05.27.09.39.15.41.21.61.61.63.97.03.56.12,1.07.11,1.63.02.6.04,1.2.07,1.8.06.99.13,1.98.19,2.97h-.06Z"/><path class="cls-1" d="m82.52,230.98c-1.03.18-2.06.39-3.15.56-.54.09-1.1.16-1.71.22-.33.03-.57.04-1.04.02l-.69-.11c-.21-.08-.44-.13-.63-.25-.58-.31-.95-.94-1.22-1.51-.22-.49-.32-1-.36-1.5-.09-1.76.54-3.17,1.13-4.46.63-1.29,1.35-2.47,2.08-3.63.64-1.03,1.25-2.08,1.8-3.12.75-1.32,1.5-2.59,2.14-3.85.2-.39.39-.37.67.1.3.47.53,1.46.26,2.39-.24.81-.5,1.6-.83,2.34-.39.7-.79,1.38-1.2,2.05-.81,1.33-1.65,2.62-2.41,3.91-.9,1.52-1.4,3.42-1.08,4.68.07.2.08.27.13.35.03.09.11.15.19.19.1.04.16.05.3.06.2.02.44,0,.67-.01.96-.09,1.99-.31,3.03-.53,1.27-.27,2.57-.54,3.88-.77,1.99-.34,4.03-.54,6.09-.46,1.59.08,3.25.19,4.83.88.35.14.69.28,1.02.49,1.2.77,1.36,1.31,1.04,1.98-.07.16-.14.33-.23.46-.35.46-.99.4-1.68.04-1.03-.54-2.1-.89-3.28-1.09-1.16-.21-2.43-.27-3.73-.21-1.94.09-3.96.41-6.01.83l-.02-.06Z"/><path class="cls-1" d="m101.24,217c-2.27-.67-4.51-1.48-6.68-2.43-.79-.34-1.61-.66-2.38-1.06-2.71-1.43-5.26-3.23-7.39-5.5-.48-.49-.91-1.04-1.36-1.56-.4-.57-.81-1.13-1.14-1.74-.88-1.52-1.56-3.33-1.17-5.12.1-.55.16-.46.46-.05.27.43.99,1.09,1.35,1.87.1.17.2.34.29.51.08.17.14.35.24.52.2.33.35.67.58.99.41.65.91,1.23,1.39,1.84.97,1.22,2.12,2.34,3.37,3.42,1.52,1.28,3.42,2.18,5.26,3.07,2.04.97,4.17,1.81,6.35,2.5,1.34.42,2.7.81,4.08,1.11,2.08.47,4.21.86,6.32,1.02,1.65.12,3.27.02,4.87-.1.35-.03.7-.06,1.05-.08,1.31-.06,1.74.08,2.09.61.08.12.18.24.24.36.19.4-.33.84-1.34,1.14-.75.21-1.53.32-2.31.43-.78.06-1.58.11-2.37.1-1.59,0-3.2-.12-4.79-.34-2.37-.31-4.72-.83-7.03-1.45v-.06Z"/><path class="cls-1" d="m110.9,199.12c-.97-2.09-1.87-4.15-2.93-6.1-.38-.71-.85-1.34-1.28-1.95-.18-.26-.41-.56-.57-.76-.06-.09-.13-.17-.21-.27-.17-.16-.36-.41-.65-.51-.16-.05-.28.07-.3.19-.03.12-.03.25-.02.39,0,.14.03.29.06.45l.04.24.11.48c.3,1.26.73,2.51,1.05,3.79.19.83.38,1.67.45,2.56.07.87.03,1.85-.48,2.73-.38.54-.52.23-.67-.26-.15-.52-.6-1.17-.76-1.98-.33-1.48-1-2.99-1.42-4.61l-.35-1.23-.17-.63-.04-.17c-.02-.1-.05-.19-.08-.29l-.14-.59c-.19-.78-.29-1.54-.23-2.15.04-.63.23-1.05.52-1.43,1.94-2.19,5.72,2.06,6.43,3.32,1.33,2.04,2.31,4.14,3.31,6.22.61,1.28,1.2,2.56,1.86,3.78,1,1.85,2.06,3.69,3.48,5.15,1.09,1.15,2.41,1.99,3.79,2.62.29.16.62.24.92.38,1.12.52,1.45.77,1.48,1.55,0,.17.04.35.03.52-.04.55-.71.78-1.78.59-1.55-.38-3.08-1.13-4.45-2.14-1.36-1.02-2.51-2.3-3.5-3.64-1.47-2-2.54-4.16-3.57-6.24l.06-.03Z"/><path class="cls-1" d="m254.2,185.32c1.39-.84,2.73-1.77,3.93-2.83,1.22-1.07,2.34-2.15,3.31-3.49,2.03-2.55,3.65-5.4,4.53-8.45.93-3.05.95-6.29.35-9.45-.6-3.17-1.92-6.23-3.48-9.16-2.33-4.28-5.36-8.22-8.3-12.28-1.29-1.8-2.59-3.62-3.79-5.56-1.18-1.94-2.31-4.01-2.85-6.47-.09-.3-.1-.63-.14-.95-.02-.32-.09-.63-.06-.97,0-.68.11-1.31.25-1.92.28-1.21.7-2.31,1.16-3.35.92-2.1,1.96-4.05,2.95-6.01,2-3.91,3.88-7.83,5.13-11.97,1.27-4.12,1.91-8.42,1.72-12.71-.16-3.79-.97-7.65-2.36-11.14-1.46-3.46-3.89-6.48-6.89-8.72-3.86-2.9-8.58-4.63-13.4-5.3-4.83-.67-9.81-.32-14.45,1.21-1.46.46-2.08.71-2.1.58,0-.1.59-.6,1.75-1.29,1.15-.7,2.92-1.51,5.18-2.14,2.26-.62,5.04-.92,8.03-.75,5.29.35,10.57,1.86,15.14,4.79,2.29,1.44,4.34,3.3,6.07,5.43,1.71,2.15,2.99,4.65,3.84,7.25,1.62,5.07,2.22,10.51,1.62,15.83-.56,5.33-2.32,10.42-4.51,15.16-1.31,2.84-2.81,5.6-4.18,8.36-.67,1.38-1.34,2.77-1.79,4.15-.22.69-.41,1.37-.48,2.02-.06.62,0,1.27.13,1.94.28,1.33.89,2.7,1.64,4.01.74,1.32,1.57,2.61,2.47,3.89,1.78,2.56,3.7,5.07,5.53,7.66,2.02,2.84,3.96,5.78,5.59,8.94,1.65,3.14,2.91,6.56,3.47,10.15.56,3.59.2,7.35-.97,10.78-1.18,3.45-3.17,6.52-5.45,9.24-2.9,3.4-6.61,5.92-10.56,7.79-3.97,1.84-8.27,3.06-12.71,3.13-6.67-.06-13.27-2.05-18.78-5.77-5.52-3.71-9.8-8.95-12.91-14.66-1.24-2.23-2.14-4.69-2.78-7.11-.65-2.43-1.12-4.84-1.85-7.09-.72-2.26-1.76-4.33-3.25-6.06l-.55-.65c-.2-.21-.42-.39-.63-.59-.43-.38-.81-.81-1.3-1.13l-1.4-1.03-1.52-.89-.66-.39-.7-.33-1.4-.66c-.93-.45-1.88-.76-2.92-1.15-1.92-.71-3.59-1.44-4.88-2.36-1.3-.91-2.2-2.02-2.65-3.05-.48-1.02-.55-1.92-.53-2.62.03-.7.22-1.23.41-1.68.22-.4.45-.9.64-1.1.35-.34.46.36.67,1.67.07.32.12.69.27,1.06.09.39.31.76.51,1.17.48.77,1.18,1.54,2.27,2.23,1.64,1.02,3.64,1.65,5.8,2.42,2.21.84,4.28,1.88,6.34,3.15,2,1.36,3.91,2.99,5.41,5.05,1.52,2.05,2.49,4.44,3.16,6.75.67,2.32,1.1,4.59,1.68,6.72.57,2.15,1.29,4.11,2.31,6.01,1.03,1.96,2.24,3.83,3.56,5.6,1.31,1.78,2.77,3.44,4.39,4.93,2.38,2.23,5.06,4.12,7.98,5.53,2.93,1.4,6.08,2.33,9.33,2.79.81.08,1.64.19,2.44.26l1.18.04c.39,0,.79-.03,1.19-.04,1.59-.1,3.2-.31,4.77-.72,3.16-.78,6.23-2.06,9.02-3.77l.05.05Z"/><path class="cls-1" d="m172.36,62.92c-1.54,1.8-3.2,3.57-5.18,5.11-.97.78-2.07,1.46-3.23,2.05-1.19.54-2.46,1.01-3.81,1.17-.66.12-1.37.09-2.01.12l-1.7-.05c-1.11-.02-2.2.02-3.29.11-2.16.19-4.26.68-6.19,1.54-2.82,1.23-5.12,3.36-6.71,5.99l-.29.42-.23.46-.45.93-.45.93c-.14.31-.23.66-.34.98l-.66,1.99-.43,2.08c-.35,1.37-.41,2.82-.56,4.24l-.11,1.07-.03,1.07c0,.72-.05,1.43,0,2.15.14,5.72,1.79,11.38,5.03,16.1,1.43,2.1,3.16,4,5.09,5.66,1.94,1.66,4.07,3.09,6.29,4.33,5.75,3.17,12.21,4.86,18.71,5.94,2.04.42,1.8.45,0,.92-.9.22-2.21.43-3.81.54-1.59.07-3.45-.08-5.42-.5-3.49-.74-6.86-2.01-10.08-3.6-1.61-.8-3.17-1.73-4.67-2.74-1.47-1.06-2.89-2.2-4.21-3.47-2.62-2.53-4.88-5.5-6.51-8.79-1.62-3.29-2.68-6.85-3.09-10.45-.1-1.08-.23-2.16-.25-3.25-.07-1.09-.04-2.18-.01-3.27,0-1.09.18-2.17.25-3.27l.15-1.64.31-1.63c.76-4.32,2.48-8.77,5.71-12.09,1.78-1.78,3.92-3.24,6.26-4.12,2.33-.89,4.78-1.35,7.2-1.5,1.21-.09,2.42-.07,3.61-.04l.87.03c.28,0,.52-.02.78-.02.51.02,1.01-.11,1.52-.19,2.01-.46,3.91-1.6,5.6-3.02,2.09-1.77,3.93-3.91,5.74-6.11.91-1.1,1.79-2.23,2.75-3.33l1.5-1.62.75-.81.83-.73c3.29-3.02,7.32-5.31,11.68-6.43,1.07-.35,2.2-.44,3.3-.64.55-.11,1.12-.09,1.67-.14.56-.02,1.12-.09,1.68-.07,1.11.06,2.24.03,3.34.22.55.08,1.11.12,1.65.23l1.63.35c3.36.79,6.57,2.1,9.43,4.12,2.83,2.04,5.1,4.74,6.81,7.76.77,1.33,1.39,2.7,1.91,4.16.93,2.73,1.11,4.67,1.05,6.01-.02.67-.12,1.2-.27,1.63-.13.43-.32.76-.56,1.05-.21.26-.43.59-.64.72-.76.4-.74-1.76-1.53-5.39-.61-2.69-1.7-5.33-3.21-7.71-.74-1.19-1.59-2.33-2.55-3.35-.96-1.02-1.99-2-3.14-2.75-2.27-1.58-5-2.72-7.8-3.4-2.81-.68-5.73-.94-8.6-.63-4.26.46-8.35,2.11-11.83,4.7-.46.28-.85.67-1.27,1.03l-1.24,1.07c-.81.74-1.51,1.6-2.27,2.39-1.48,1.67-2.89,3.58-4.44,5.39l-.06-.04Z"/><path class="cls-1" d="m171.94,144.25c-1.75.31-3.6.5-5.55.15-.7-.12-1.45-.3-2.14-.66-.59-.36-1.16-.78-1.59-1.33-.45-.53-.72-1.15-.94-1.75-.09-.3-.16-.61-.24-.91l-.13-.89c-.08-.72.09-1.45.37-2.02.51-1.03,1.22-1.76,1.91-2.45.45-.44.91-.86,1.39-1.24.45-.41,1.04-.66,1.55-.98.33-.19.38-.07.29.3-.04.19-.12.45-.22.75-.05.15-.11.31-.18.47-.03.08-.08.16-.11.25l-.16.2c-.81.92-1.6,1.83-2.12,2.72-.25.44-.43.85-.51,1.17-.03.17-.05.28-.03.47.05.25.06.52.12.77.11.61.42,1.12.8,1.52.38.41.86.68,1.42.89,1.25.46,2.85.41,4.41.17.97-.15,1.94-.38,2.9-.67,1.46-.43,2.92-.94,4.31-1.59,1.08-.5,2.06-1.18,3.07-1.8.22-.14.43-.3.66-.42.86-.47,1.23-.44,1.74.14.12.13.25.26.34.4.33.48.18,1.07-.39,1.54-1.69,1.38-3.73,2.46-5.89,3.35-1.62.64-3.31,1.14-5.07,1.53l-.02-.07Z"/><path class="cls-1" d="m88.33,204.83c-.8-.56-1.58-1.15-2.33-1.79-.27-.23-.57-.43-.83-.68-.9-.89-1.7-1.88-2.42-2.9-.33-.46-.69-.92-.98-1.45-.19-.34-.34-.73-.39-1.17-.06-.43.03-.95.36-1.29.2-.22.42,0,.68.28.13.14.3.29.47.41.16.11.27.18.31.27.06.16.18.34.3.55.11.22.25.45.4.69.36.51.72,1.03,1.1,1.57.45.67,1.14,1.14,1.77,1.65.68.58,1.39,1.14,2.14,1.66.46.32.93.63,1.42.91.74.43,1.49.87,2.29,1.19.62.25,1.28.37,1.93.53.14.04.29.05.43.1.52.17.62.38.5.98-.03.14-.05.28-.09.41-.13.45-.48.72-.91.69-1.26-.1-2.46-.56-3.63-1.13-.87-.43-1.72-.92-2.55-1.45l.03-.05Z"/><path class="cls-1" d="m153.87,430.83c-1.23-.7-2.41-1.51-3.52-2.47-.53-.52-1.11-.96-1.56-1.58l-.82-1.02c-.29-.51-.49-1.1-.49-1.72-.01-.57.02-.84.04-1.23l.11-1.04c.08-.68.17-1.34.27-2.01l.63-3.92c.88-5.19,1.79-10.35,2.62-15.52.61-3.77,1.09-7.56,1.63-11.34,1.93-13.31,3.35-26.71,3.65-40.15.12-5.96-.02-11.96-.45-17.85-.28-3.79-.71-7.57-1.24-11.33-.25-1.88-.5-3.77-.78-5.65-.15-.94-.28-1.88-.4-2.83-.14-.94-.27-1.89-.43-2.82-.34-2.35-.2-2.07.64-.2.42.94.99,2.28,1.64,3.92.62,1.65,1.18,3.63,1.65,5.81,1.36,7.77,2.01,15.64,2.2,23.51.12,7.87-.24,15.75-.95,23.62-.86,9.4-1.79,19.18-3.19,28.72-.78,5.24-1.64,10.47-2.54,15.69l-1.34,7.81c-.21,1.3-.42,2.6-.6,3.89-.09.64-.16,1.28-.22,1.91-.02.28-.04.67-.04.82,0,.14,0,.31.13.42l.63.78c.22.3.53.52.79.79.52.54,1.16.97,1.77,1.43.62.45,1.32.81,1.97,1.23.71.34,1.4.71,2.12,1.02,2.89,1.26,5.98,2.12,9.11,2.75,9.54,1.8,19.52,1.71,29.06.1,7.4-1.31,14.52-3.62,20.87-7.26.69-.42,1.38-.82,2.04-1.26.65-.45,1.3-.91,1.97-1.37,1.17-.93,2.17-1.65,2.92-2.36.39-.33.75-.63,1.07-.91.3-.29.58-.55.84-.78,1.07-.89,1.69-1.39,2.41-1.68.32-.13.71-.34.97-.38.43-.07.37.47-.15,1.54-.26.54-.63,1.2-1.2,1.9-.28.36-.59.74-.91,1.15-.34.4-.75.78-1.17,1.2-2.51,2.46-5.44,4.51-8.56,6.23-3.12,1.72-6.45,3.1-9.87,4.2-6.85,2.21-14.06,3.44-21.32,3.81-5.39.3-10.83.09-16.23-.67-5.38-.81-10.79-2.1-15.81-4.85l.02-.07Z"/><path class="cls-1" d="m153.48,140.96c-.68.18-1.37.38-2.04.61-.25.08-.46.23-.71.31-.87.28-1.75.58-2.6.93-.39.14-.74.34-1.09.55-.43.29-.87.56-1.43.65-.18.03-.33-.25-.4-.61-.07-.36-.07-.85.14-1.09.38-.43.84-.73,1.3-1.04.45-.32.97-.52,1.53-.66.66-.17,1.22-.58,1.84-.85.68-.3,1.38-.56,2.08-.81.43-.15.86-.3,1.29-.45.65-.24,1.32-.42,1.94-.7.49-.21.92-.56,1.38-.85.1-.06.19-.15.3-.2.4-.18.58-.06.88.59.07.15.14.29.2.45.2.51.17,1-.07,1.24-.72.71-1.59,1.04-2.49,1.35-.67.22-1.35.43-2.02.65l-.02-.05Z"/><path class="cls-1" d="m188.26,134.79c5.04.55,10.2-1.21,14.41-4.35,1.55-1.13,2.94-2.49,4.26-3.89,4.67-4.99,8.18-11.2,10.34-17.83.99-2.94,1.58-6.01,1.99-9.05.5-3.93.39-7.85.24-11.84,0-1.26-.01-1.1.47-.12.26.49.57,1.21.94,2.1.32.89.61,1.98.76,3.17.69,8.48-1.54,16.95-5.45,24.44-2.36,4.46-5.22,8.98-9.03,12.6-4.13,3.96-9.5,6.96-15.37,7.48-3.59.33-7.22-.32-10.49-1.72-4.99-2.1-9.09-6.02-11.67-10.67-2.01-3.62-3.17-7.67-3.22-11.82-.04-.91.02-1.81.08-2.73.43-3.39,1.07-4.37,1.95-4.83.21-.11.43-.26.61-.29.32-.06.49.27.54.88.02.31.01.68-.04,1.12-.02.44-.06.95-.14,1.51-.18,1.67-.25,3.36-.14,5.04.12,1.68.42,3.35.86,4.98.88,3.26,2.55,6.34,4.84,8.89,3.38,3.79,8.18,6.41,13.26,6.87v.07Z"/><path class="cls-1" d="m166.16,91.64c-1.45.45-2.71,1.77-3.26,3.44-.21.61-.23,1.26-.27,1.89-.14,2.25,1.05,4.65,3.04,6.18.87.7,1.91,1.23,2.98,1.59,1.4.46,2.84.67,4.33,1.1.47.17.41.3,0,.6-.41.34-1.23.8-2.21.79-.43,0-.86-.01-1.29-.07-.42-.08-.85-.15-1.27-.26-.84-.21-1.67-.52-2.48-.9-1.61-.76-3.01-2.06-3.96-3.62-.56-.94-1.06-1.91-1.39-3.01-.32-1.08-.46-2.23-.36-3.35.23-2.45,1.52-4.83,3.6-6.24,1.27-.87,2.83-1.31,4.33-1.28,2.27.03,4.45,1.02,6.03,2.6,1.25,1.21,2.19,2.79,2.54,4.57.08.39.13.77.16,1.17,0,1.48-.45,1.89-1.29,1.97-.19.02-.39.05-.57.04-.61-.05-1.06-.67-1.14-1.43-.14-1.15-.44-2.16-.92-3.03-.51-.86-1.21-1.61-2.11-2.13-1.31-.76-3.07-1.08-4.46-.54l-.03-.07Z"/><path class="cls-1" d="m188.91,83.88l1.37.75.17.09.11.05.22.1.43.2c.57.26,1.15.54,1.76.74,1.19.46,2.44.81,3.7,1.1.93.19,1.86.31,2.81.43,3.31.46,6.73.61,10.11.21,1.5-.18,2.99-.49,4.41-.94,1.85-.55,3.51-1.41,5.46-1.82.6-.15.62.01.33.55-.15.27-.37.65-.66,1.1-.15.23-.31.46-.52.66-.22.18-.46.34-.72.49-3.83,1.82-8.03,2.59-12.2,2.58-2.49-.02-5.09.01-7.63-.34-2.78-.42-5.53-1.17-8.11-2.33-.68-.27-.93-.45-1.33-.66l-.35-.2c-.14-.11-.23.08-.29.16-.07.11-.14.22-.2.34-.08.14-.09.17-.23.46-1.09,2.29-2.33,4.62-3.88,6.74-1.19,1.64-2.51,3.27-4.34,4.45-.4.26-.8.51-1.25.71-1.68.7-2.36.5-2.8-.21-.11-.17-.23-.33-.3-.5-.21-.6.35-1.12,1.24-1.57,2.65-1.33,4.75-3.72,6.54-6.65.65-1.08,1.25-2.21,1.84-3.39l.45-.91.41-.82c.15-.29.31-.57.49-.83.36-.52.76-.86,1.29-1.03.14-.06.25-.04.4,0l.4.07.8.14.09.05v.08Z"/><path class="cls-1" d="m161.61,197.69c1.03-1.92,1.99-3.91,2.92-5.92.34-.73.61-1.5.95-2.23,1.22-2.59,2.45-5.19,3.78-7.75.58-1.14,1.15-2.3,1.78-3.41.4-.71.81-1.43,1.27-2.12.43-.7,1.06-1.28,1.65-1.86.38-.35.5-.17.48.35,0,.26-.04.6-.1,1-.03.2-.06.41-.11.63-.02.11-.06.21-.08.33-.05.1-.09.2-.15.3-.77,1.4-1.39,2.88-2.13,4.32-.74,1.45-1.48,2.89-2.23,4.36-.92,1.75-1.57,3.72-2.35,5.6-.86,2.07-1.75,4.13-2.7,6.18-.58,1.26-1.21,2.51-1.86,3.75-1.01,1.87-2.16,3.68-3.42,5.4-.99,1.33-2,2.68-3.35,3.8-.31.23-.6.48-.92.71-1.26.75-1.82.7-2.33.11-.12-.14-.25-.26-.34-.41-.29-.51.04-1.11.72-1.61,2-1.51,3.72-3.53,5.28-5.91,1.15-1.75,2.19-3.67,3.19-5.62l.06.02Z"/><path class="cls-1" d="m114.62,234.58c-.28-1.16-.57-2.31-.88-3.46-.11-.42-.29-.82-.4-1.24-.4-1.48-.72-2.99-1.14-4.47-.18-.66-.41-1.3-.65-1.94-.16-.4-.32-.81-.43-1.23-.12-.42-.21-.85-.2-1.31,0-.29.19-.31.52-.19.17.06.39.16.62.28.22.13.4.31.53.53.49.77.74,1.62,1.05,2.45.29.84.55,1.69.75,2.57.24,1.05.71,2.07,1.03,3.12.36,1.15.7,2.31,1.03,3.48l.61,2.15c.31,1.08.59,2.18.95,3.24.28.82.68,1.59,1.03,2.38.08.17.16.34.22.52.22.67.13.93-.42,1.24-.12.07-.24.15-.37.21-.43.19-.89.02-1.18-.43-.86-1.34-1.31-2.87-1.77-4.41-.32-1.15-.64-2.31-.95-3.46l.05-.02Z"/><path class="cls-1" d="m119.55,244.53c-.39-.05-.86-.13-1.16-.26l-.66-.24-1.27-.48-2.49-.99-4.93-2.04c-1.2-.5-2.42-.94-3.61-1.46-1.2-.53-2.39-1.07-3.58-1.64-.6-.29-1.19-.57-1.79-.89-.3-.16-.59-.3-.92-.5-.13-.1-.37-.18-.56-.37-.19-.18-.4-.34-.57-.52l-.27-.53-.17-.46c-.1-.26-.16-.49-.24-.74-.15-.48-.28-.96-.4-1.44l-.73-2.86c-.48-1.97-1.09-3.9-1.59-5.84-.34-1.24-.69-2.48-1.03-3.72-.28-1.26-.57-2.51-.75-3.81-.1-.81-.02-.73.45-.17.49.55,1.38,1.58,2.07,2.94.53,1.22.98,2.47,1.44,3.71.23.62.46,1.24.67,1.87l.56,1.9c.35,1.26.71,2.53,1.06,3.8.32,1.21.65,2.42.97,3.64,0,.05.01.08.02.12-.08.08.75.53,1.38.84.67.33,1.36.65,2.07.96,1.42.6,2.85,1.21,4.27,1.8,3.27,1.39,6.56,2.77,9.86,4.05.5.19,1.02.39,1.51.56.18.06.27.12.4.1.06-.02.12-.03.19-.06l.33-.12,3.06-1.17c3.09-1.21,6.22-2.4,9.26-3.68,2.37-.99,4.64-2.1,6.96-3.14.51-.23,1.01-.47,1.53-.69,1.94-.8,2.65-.86,3.3-.37.15.11.33.21.43.34.36.44-.28,1.12-1.64,1.81-4.04,2.03-8.42,3.93-12.86,5.77-1.65.67-3.31,1.34-4.97,2.01l-2.5.99-1.26.49-.65.25c-.37.15-.82.27-1.22.29v-.07Z"/><path class="cls-1" d="m100.56,178.48c.46,1.81.92,3.63,1.41,5.45.18.66.43,1.3.59,1.97.57,2.36,1.14,4.71,1.71,7.07.25,1.05.58,2.08.85,3.11.34,1.33.84,2.62.83,4.04,0,.44-.26.45-.7.19-.22-.13-.49-.32-.77-.57-.26-.25-.47-.57-.61-.93-.47-1.31-.99-2.6-1.35-3.94-.36-1.34-.7-2.69-.99-4.07-.34-1.65-.99-3.28-1.49-4.92l-1.55-5.47-.93-3.38c-.47-1.71-.89-3.43-1.39-5.12-.39-1.31-.9-2.56-1.34-3.85-.1-.28-.21-.56-.3-.85-.3-1.07-.21-1.46.43-1.85.15-.09.29-.19.44-.26.52-.22,1.06.11,1.4.86.99,2.22,1.66,4.62,2.33,7.06.49,1.81.98,3.63,1.47,5.45l-.06.02Z"/><path class="cls-1" d="m102.05,131.06c-1.29-.5-2.66-.71-4.02-.53-1.37.18-2.7.66-3.8,1.49-.8.62-1.44,1.43-2.02,2.3-1.02,1.55-1.66,3.42-2.06,5.36-.43,1.94-.58,3.96-.57,5.99.03,1.8.25,3.61.56,5.37.44,2.25,1.07,4.5,1.99,6.53.33.57.19.66-.42.31-.28-.19-.66-.51-1.04-.94-.36-.44-.72-1.01-.98-1.66-1.85-4.61-2.56-9.61-1.87-14.61.21-1.49.52-3.01,1.01-4.51.49-1.49,1.18-2.98,2.2-4.27,1.12-1.4,2.65-2.53,4.34-3.16,1.67-.63,3.51-.88,5.28-.6,2.18.29,4.15,1.29,5.85,2.48,2.6,1.84,4.63,4.25,6.43,6.72,1.39,1.93,2.72,3.87,3.79,6.01.23.47.47.94.66,1.44.7,1.86.63,2.61.05,3.14-.13.12-.25.27-.39.34-.46.23-.98-.4-1.51-1.58-1.73-3.49-3.86-7.14-6.53-10.26-1.97-2.29-4.31-4.34-6.95-5.29l.02-.06Z"/><path class="cls-1" d="m111.12,150.89c-2.47.87-4.93,1.76-7.39,2.68l-2.66,1.06c-3.16,1.18-6.33,2.35-9.49,3.53-1.4.53-2.78,1.13-4.16,1.69-1.78.7-3.5,1.55-5.41,1.91-.59.13-.6-.11-.25-.59.17-.24.44-.55.77-.89.32-.35.74-.68,1.24-.9,3.5-1.72,7.15-3.08,10.87-4.37,2.23-.76,4.45-1.79,6.69-2.67,2.46-.97,4.93-1.92,7.41-2.85l4.58-1.7c2.31-.86,4.66-1.67,6.95-2.54,1.78-.67,3.49-1.45,5.24-2.16.38-.16.75-.33,1.15-.47,1.46-.54,1.99-.5,2.49-.03.11.11.25.21.34.33.28.4-.19.98-1.21,1.48-3.05,1.43-6.36,2.62-9.68,3.83-2.47.9-4.96,1.8-7.44,2.7l-.02-.05Z"/><path class="cls-1" d="m84.82,174.85c.24,1.32.49,2.64.77,3.96.1.48.27.95.36,1.43.31,1.72.63,3.44.94,5.15.15.76.34,1.51.5,2.26.19.97.55,1.9.42,2.94-.04.32-.19.31-.5.11-.15-.1-.36-.24-.58-.42-.2-.18-.34-.42-.43-.68-.32-.95-.65-1.89-.92-2.84-.24-.96-.46-1.94-.63-2.93-.19-1.19-.67-2.36-.96-3.57-.33-1.32-.65-2.65-.95-3.98l-.54-2.47c-.28-1.24-.49-2.51-.78-3.75-.22-.96-.57-1.88-.83-2.84-.06-.21-.14-.41-.18-.63-.15-.8.02-1.08.64-1.33.14-.06.28-.12.42-.16.48-.13.94.14,1.19.68.67,1.61.98,3.35,1.34,5.1.26,1.3.49,2.63.78,3.95l-.05.02Z"/><path class="cls-1" d="m154.63,175.55l-3.48-7.34c-.43-.89-.9-1.76-1.31-2.66l-4.32-9.54c-.64-1.41-1.33-2.81-1.99-4.2-.41-.9-.82-1.81-1.18-2.73-.18-.47-.38-.92-.52-1.4-.17-.47-.18-1-.28-1.49-.08-.63-.04-.55.34-.14.19.2.49.49.86.81.32.34.6.78.89,1.27.48.88.94,1.75,1.45,2.62.48.88.89,1.79,1.35,2.68.89,1.8,1.77,3.61,2.6,5.45,1,2.21,2.28,4.38,3.44,6.58,1.26,2.42,2.44,4.88,3.66,7.33l2.22,4.53c1.11,2.3,2.23,4.6,3.33,6.88.43.89.9,1.75,1.37,2.61.45.88.92,1.73,1.35,2.63.18.4.38.79.55,1.2.33.75.45,1.32.41,1.74-.03.42-.2.69-.51.94-.14.11-.28.25-.43.32-.51.25-1.15-.26-1.61-1.22-1.51-2.96-3.13-6.21-4.7-9.49-1.18-2.44-2.36-4.9-3.54-7.35l.06-.03Z"/><path class="cls-1" d="m128.2,154.44l-11.4,4.33c-1.39.52-2.75,1.12-4.14,1.63-4.9,1.82-9.81,3.59-14.77,5.28l-1.66.57-.84.28c-.28.1-.69.19-1.03.26-1.26.03-2.39-.12-3.57-.26-1.49-.2-2.97-.46-4.43-.87-1.45-.43-2.87-1-4.16-1.78-.75-.6-.61-.56.22-.52.83.06,2.26.22,3.88.49,1.42.31,2.86.56,4.31.71.72.08,1.45.13,2.17.17.68,0,1.57.13,1.79-.08,1.28-.42,2.76-.97,4.16-1.47,1.42-.51,2.84-1.01,4.27-1.52,3.43-1.18,6.9-2.68,10.36-4.05l11.4-4.5c2.33-.94,4.66-1.88,6.99-2.83l4.01-1.67,1.5-.63,1.26-.55c.48-.21.95-.44,1.37-.67l.04-.02-.13.02c-.65-.03-1.3-.15-1.88-.23l-.71-.1-.32-.04-.15-.02-.29-.05c-.87-.17-1.74-.36-2.61-.55-.63-.15-1.26-.27-1.89-.44-2.34-.65-3.06-1.14-3.26-2.03-.05-.2-.13-.4-.12-.57.03-.55,1.04-.66,2.7-.29,1.36.28,2.74.57,4.14.86.75.15,1.51.31,2.27.46.7.15,1.41.29,2.12.44.34.08.76.13,1.04.24l.74.39c.33.51.67,1.04,1.02,1.57h0c.3.53.6,1.07.9,1.62-.72.35-1.5.74-2.16,1.03l-2.46,1.09-1.23.54-.85.36-2.85,1.17-5.72,2.29-.03-.06Z"/><path class="cls-1" d="m119.23,138.19c-1.79-.98-3.71-1.71-5.65-1.8-.96-.05-1.93.02-2.84.3-.48.09-.88.33-1.32.49-.38.26-.83.43-1.16.76-1.06.85-1.79,2.08-2.34,3.43-.49,1.19-.81,2.5-.97,3.85-.18,1.34-.25,2.73-.22,4.11.04,2.78.42,5.58.95,8.34.48,2.46,1.17,4.89,1.96,7.25,1.05,3.01,2.19,6.03,3.49,8.9.35.91.17.92-.6.38-.75-.56-1.84-1.84-2.65-3.55-1.45-3.03-2.47-6.22-3.36-9.45-.86-3.24-1.5-6.56-1.71-9.96-.12-2.03-.18-4.12.01-6.25.21-2.11.65-4.3,1.77-6.28.63-1.07,1.47-2.04,2.48-2.82,1.04-.72,2.19-1.31,3.39-1.57,2.41-.61,4.93-.31,7.15.48,2.76.97,5.15,2.6,7.3,4.41,3.25,2.78,5.91,6.15,8.18,9.68,1.75,2.75,3.35,5.55,4.54,8.6.27.67.52,1.33.74,2.03.78,2.6.61,3.54.04,4.19-.13.15-.26.34-.4.43-.48.3-1.04-.68-1.58-2.42-1.67-5.19-4.36-10.37-7.87-14.96-2.6-3.38-5.71-6.48-9.33-8.5l.02-.06Z"/><path class="cls-1" d="m112.74,175.24c-.41.14-.82.28-1.22.42-.15.05-.27.15-.42.2-.54.15-1.1.24-1.62.39-.23.06-.45.17-.66.27-.26.15-.54.29-.88.26-.11-.01-.21-.27-.25-.56-.04-.29-.05-.65.08-.77.47-.41,1.01-.65,1.62-.79.37-.07.65-.35.99-.5.37-.16.75-.33,1.13-.49.23-.1.46-.2.69-.32.34-.18.69-.33.99-.57.23-.18.39-.46.58-.71.04-.05.07-.12.12-.17.17-.17.31-.1.68.34l.25.29c.27.34.39.69.31.9-.23.61-.7.97-1.19,1.27-.37.22-.77.39-1.16.57l-.03-.04Z"/><path class="cls-1" d="m138.85,163.67c-.38.11-.75.22-1.12.34-.14.05-.25.13-.38.18-.49.14-.98.28-1.45.47-.21.08-.39.2-.59.31-.24.15-.46.32-.77.37-.1.01-.2-.16-.26-.38-.06-.22-.07-.5.05-.63.42-.45.92-.78,1.5-.95.35-.1.63-.36.95-.53.36-.17.73-.33,1.1-.48.23-.09.46-.19.68-.28.34-.15.7-.27,1.02-.46.25-.14.45-.38.68-.57.05-.04.09-.1.15-.14.21-.13.32-.05.55.39l.16.3c.16.35.2.68.09.83-.33.47-.78.69-1.26.88-.35.15-.73.26-1.09.39l-.02-.04Z"/><path class="cls-1" d="m84.38,192.67c.1-.16.24-.21.32-.28.38-.09.65-.15,1.02-.18.17-.03.44.05.66.08.29.1.53.14.86.29,1.27.55,2.8,1.46,4.08,2.2.59.36,1.22.64,1.82.98,2.1,1.19,4.24,2.27,6.52,2.96,1.01.31,2.06.42,3.08.46.66.03,1.31,0,1.96-.07.64-.11,1.33-.03,2.01-.15.43-.04.46.14.21.53-.13.19-.32.48-.59.75-.14.14-.29.28-.46.42-.09.07-.18.13-.27.2-.1.03-.2.08-.31.11-1.53.45-3.17.62-4.7.33-1.54-.24-3.01-.69-4.38-1.34-1.62-.79-3.34-1.46-4.91-2.32l-1.22-.69-.47-.32c-.34-.23-.73-.5-1.19-.75-.13-.07-.28-.15-.42-.18-.31-.11-.41.21-.37.37.03.19.12.37.23.56.22.36.5.71.83,1.08.18.19.32.34.55.55.32.29.66.58,1,.85,1.07.83,2.26,1.47,3.44,1.96.26.11.52.18.77.28.94.34,1.09.48,1.27,1.12.04.14.11.29.14.43.16.47-.48.92-1.5.78-1.45-.23-2.69-.86-3.87-1.57-.59-.36-1.14-.76-1.68-1.18-.27-.21-.54-.43-.8-.65l-.4-.35-.7-.66c-1.35-1.33-2.59-2.79-2.98-3.89-.21-.55-.27-1-.22-1.41.06-.4.13-.85.61-1.31l.05.04Z"/><path class="cls-1" d="m154,231.45c2.87-.11,5.73-.33,8.55-.73,2.81-.41,5.61-.99,8.19-1.94,1.27-.48,2.5-1.06,3.49-1.81.5-.37.86-.75,1.34-1.32.46-.51.9-1.08,1.34-1.63,1.74-2.24,3.35-4.65,4.88-7.1,2.23-3.58,4.25-7.3,6.2-11.05,3.42-6.62,6.52-13.43,8.94-20.47,2.4-7.02,4.32-14.32,4.4-21.7,0-3.25-.39-6.54-1.57-9.51-.12-.39-.3-.74-.49-1.09l-.55-1.06c-.39-.69-.9-1.3-1.34-1.95-.54-.57-1.08-1.14-1.65-1.68-.64-.45-1.24-.97-1.91-1.36-1.69-1.07-3.68-1.53-5.67-1.57-2-.03-4.02.38-5.96,1.04-3.91,1.33-7.41,3.73-10.64,6.36-1.93,1.72-1.88,1.37-.57-.52,1.31-1.86,4.26-5.11,8.97-7.27,2.08-.92,4.32-1.64,6.69-1.82,2.36-.2,4.84.15,7.06,1.17.54.28,1.09.56,1.61.86l1.44,1.06c.5.33.91.76,1.33,1.2.4.44.87.83,1.21,1.32,1.51,1.87,2.49,4.05,3.21,6.26,1.28,4.48,1.29,9.08.83,13.52-.48,4.45-1.5,8.79-2.77,13.03-3.12,10.12-7.37,20.28-12.56,29.74-2.87,5.19-5.94,10.27-9.68,15-.48.6-.96,1.15-1.52,1.74-.6.61-1.26,1.11-1.94,1.52-1.37.84-2.8,1.42-4.25,1.91-2.9.95-5.86,1.5-8.82,1.88-7.3.91-14.64.88-21.91.22-5.5-.55-11.02-1.41-16.32-3.32-1.32-.49-2.62-1.07-3.86-1.79-1.23-.74-2.44-1.64-3.31-2.96-.41-.68-.77-1.39-.78-2.34,0-.85.21-1.57.43-2.26.46-1.38,1.11-2.63,1.79-3.85,1.08-1.88,2.3-3.65,3.62-5.34,1.34-1.68,2.77-3.28,4.5-4.66.88-.68,1.8-1.33,3.08-1.71l.59-.1c.2-.01.39.03.59.05l.83.2,1.52.38c2.02.5,4.04.99,6.07,1.43,1.79.39,3.55.73,5.35,1.07,6.71,1.23,8.81,1.44,10.24,2.26.32.18.76.37.95.54.67.54-2.25,1.09-7.34.45-3.77-.45-7.54-1.18-11.31-2.02-1.88-.42-3.77-.89-5.65-1.36l-.7-.17c-.2-.05-.53-.13-.48-.11-.03,0-.02,0-.07.02-.12.05-.27.09-.43.17-.63.29-1.34.79-2.01,1.35-2.68,2.33-5.06,5.44-6.95,8.64-.47.81-.9,1.63-1.25,2.44-.35.8-.66,1.67-.72,2.29-.03.16-.01.27-.01.34.02.03-.01.02.01.09l.06.19c.11.26.23.53.45.8.41.54,1.03,1.08,1.75,1.54,2.15,1.39,4.89,2.31,7.61,3.04,2.75.72,5.59,1.23,8.46,1.61,5.73.75,11.57.99,17.36.77l.02.07Z"/><path class="cls-1" d="m178.14,278.25c-.69-.29-1.38-.58-2.07-.87-.25-.1-.52-.16-.77-.27-.89-.38-1.72-.91-2.57-1.36-.38-.2-.77-.37-1.15-.54-.25-.11-.5-.21-.74-.33l-.18-.1-.15-.16c-.09-.1-.18-.21-.29-.34-.11-.15-.05-.22.16-.32.15-.07.3-.15.42-.2.1-.05.19-.08.27-.11.05-.02.09-.03.14-.05.04,0,.07.01.11.02,1.02.29,2.03.58,3,1.06.58.28,1.25.4,1.87.61.69.23,1.38.47,2.07.71.43.14.86.29,1.29.41.66.19,1.3.44,1.97.58.52.11,1.06.09,1.59.13.12,0,.23.02.34.05.42.13.51.31.47.83,0,.12-.01.24-.03.35-.06.38-.31.66-.65.75-.52.15-1.01.16-1.5.11-.49-.04-.98-.13-1.47-.24-.73-.14-1.43-.4-2.14-.65v-.05Z"/><path class="cls-1" d="m138.21,250.25l.57-2.35.47-2.37c.12-.79.27-1.59.35-2.39l.11-1.2.06-.6c.01-.07.02-.26.02-.43l.02-.5.03-1.06.37-.92.09-.23.05-.11h0s0-.02,0-.02h0c.29.36.08.1.14.18h0s0,0,0,0l.02-.02.04-.04c.1-.09.2-.19.32-.29.55-.29,1.55.06,2.36.23l6.28,1.71c2.05.54,4.1,1.06,6.16,1.53,1.83.39,3.68.77,5.51,1.04,2.36.33,4.7.6,7.04.81.73.07.68.12.07.47-.59.41-1.82.9-3.26.96-1.27.07-2.53,0-3.77-.13-1.24-.12-2.48-.27-3.71-.46-2.45-.42-4.86-1.02-7.26-1.67-1.43-.4-2.9-.75-4.39-1.08l-2.22-.49-.82-.18-.37-.09c-.25-.13-.18.16-.21.31l-.04.49-.12,1.01c-.08.71-.17,1.42-.29,2.12-.19,1.41-.46,2.81-.75,4.2-.45,2.03-.98,4.04-1.6,6.01-.93,3-2.1,5.93-3.37,8.77-.99,2.21-1.93,4.41-3.14,6.51-.25.47-.51.93-.8,1.38-.56.83-1,1.33-1.39,1.61-.38.29-.71.37-1.09.33-.17-.01-.35,0-.49-.04-.45-.13-.34-1.05.36-2.25.95-1.84,1.99-3.66,2.93-5.58.92-1.93,1.85-3.89,2.64-5.92,1.2-3,2.25-6.1,3.02-9.25h.06Z"/><path class="cls-1" d="m145.07,238.41c-.08.73-.14,1.47-.18,2.21-.02.27.02.54,0,.81-.09.95-.16,1.92-.16,2.88,0,.43.07.85.12,1.26.04.54.19,1.06.03,1.64-.07.18-.23.19-.51.09-.31-.09-.69-.3-.81-.6-.48-1.07-.58-2.21-.53-3.36.05-.69-.13-1.39-.17-2.09-.04-.77,0-1.54.03-2.31.02-.47.05-.95.07-1.41.05-.73.1-1.46.15-2.18.03-.58-.01-1.19.15-1.82.03-.14.05-.28.11-.42.28-.47.55-.52,1.02-.31.11.05.22.09.32.15.33.2.5.52.56.83.09.46.06.8.08,1.21-.03.43-.06.85-.09,1.27-.05.72-.09,1.45-.14,2.17h-.05Z"/><path class="cls-1" d="m169.85,259.4c-.3,2.08-.64,4.15-1.05,6.2-.15.75-.22,1.51-.39,2.26-.57,2.63-1.25,5.23-1.95,7.82-.3,1.15-.58,2.31-.85,3.46-.17.74-.35,1.48-.57,2.2-.11.36-.24.72-.37,1.08-.12.36-.38.68-.56,1.02-.27.41-.39.31-.57-.16-.09-.23-.21-.56-.34-.95-.1-.38-.09-.79-.02-1.22.12-.76.25-1.51.46-2.24l.55-2.22c.36-1.48.75-2.96,1.17-4.45.5-1.78.72-3.69,1.03-5.55.33-2.05.65-4.09.93-6.15.18-1.26.32-2.53.45-3.8.18-1.93.35-3.86.36-5.78,0-1.49-.17-2.96-.31-4.42-.04-.32-.07-.64-.11-.96-.08-1.21.11-1.6.75-1.89.15-.07.29-.15.44-.19.5-.14.94.34,1.15,1.24.56,2.67.58,5.53.44,8.38-.1,2.12-.33,4.23-.57,6.33h-.06Z"/><path class="cls-1" d="m162.32,285.29c-2.96-.31-5.87-.74-8.78-1.24-1.06-.19-2.13-.3-3.18-.53-3.71-.78-7.4-1.73-10.99-3.03-1.6-.56-3.19-1.17-4.74-1.84-.98-.48-2.01-.87-2.89-1.56-.45-.32-.92-.61-1.33-.99-.42-.38-.7-.91-1.03-1.34-.38-.58-.27-.54.35-.38.31.07.76.16,1.28.22.27.03.46.17.73.24.26.08.53.18.79.31,1.82.89,3.71,1.76,5.66,2.51.99.35,1.99.71,2.99,1.06,1.01.33,2.03.66,3.05,1,2.45.8,5.13,1.2,7.73,1.67,2.87.5,5.76.93,8.66,1.25l1.34.14.67.06c.24.02.2.02.5-.01.89-.1,1.78-.22,2.67-.35,2.69-.4,5.4-.84,8.01-1.51,2.03-.53,3.96-1.27,5.82-2.07.4-.19.8-.37,1.21-.56,1.5-.69,1.97-.79,2.66-.3.16.11.34.21.47.33.44.41.04,1.2-1.12,1.91-3.44,2.03-7.41,2.97-11.33,3.78-1.46.29-2.94.55-4.41.77l-2.22.31-1.11.14-.59.07c-.17.03-.35.03-.53.01l-.31-.03v-.06Z"/><path class="cls-1" d="m178.37,265.49c-.53-1.82-1.12-3.63-1.75-5.42-.23-.66-.53-1.28-.76-1.93-.84-2.3-1.73-4.58-2.67-6.85-.42-1.01-.89-2-1.36-2.97-.62-1.24-1.26-2.48-1.65-3.84-.1-.43-.03-.41.3-.16.35.23.94.69,1.4,1.36.78,1.2,1.44,2.47,2.11,3.73.66,1.27,1.28,2.56,1.78,3.92.62,1.61,1.44,3.2,2.12,4.83.75,1.79,1.43,3.6,2.09,5.43.39,1.13.78,2.26,1.15,3.39.56,1.72,1.03,3.47,1.57,5.19.4,1.34.92,2.62,1.34,3.94.1.29.21.57.29.87.26,1.11.1,1.52-.39,1.87-.12.08-.22.18-.34.23-.39.19-.85-.18-1.24-.93-.98-2.26-1.61-4.71-2.37-7.15-.55-1.82-1.11-3.65-1.66-5.47l.05-.02Z"/><path class="cls-1" d="m162.82,228.14c.22-3.07.19-6.15-.18-9.17-.08-.55-.18-1.09-.29-1.63l-.37-1.6c-.43-1.88-1.06-3.7-2.02-5.31-.95-1.6-2.23-3-3.86-3.86-.74-.36-1.51-.68-2.28-.76-.79-.09-1.6-.02-2.39.14-1.02.22-2.01.64-2.94,1.17-.94.52-1.85,1.14-2.72,1.84-.6.39-.66.25-.51-.45.16-.67.65-1.89,1.77-2.86,1.02-.8,2.19-1.46,3.48-1.88.64-.22,1.33-.36,2.02-.43.7-.03,1.42,0,2.14.13,1.45.31,2.62.89,3.77,1.66,1.12.78,2.04,1.77,2.8,2.83,1.74,2.59,2.91,5.51,3.51,8.45.65,3.24.81,6.5.74,9.73-.03,1.99-.2,3.97-.4,5.94-.32,2.98-.84,5.95-1.44,8.86-.46,2.26-.86,4.51-1.49,6.74-.13.49-.26.98-.43,1.47-.65,1.81-1.13,2.3-1.95,2.34-.19,0-.39.04-.56.02-.59-.11-.64-.96-.29-2.22,1.04-3.76,2-7.79,2.72-11.9.53-3.05.94-6.14,1.09-9.24h.07Z"/><path class="cls-1" d="m62.03,299.13c-.45,2.63-.98,5.24-1.62,7.82-.21.95-.41,1.89-.66,2.83-.9,3.29-2.05,6.49-3.16,9.69-.51,1.41-.94,2.86-1.4,4.28-.61,1.81-1.11,3.67-2.04,5.37-.32.52-.5.37-.69-.22-.22-.6-.36-1.63-.08-2.69.25-.94.48-1.89.74-2.82l.86-2.78c.59-1.85,1.2-3.7,1.85-5.54.39-1.1.71-2.25,1-3.41.31-1.16.57-2.33.86-3.48.64-2.54,1.2-5.1,1.64-7.68.29-1.59.5-3.18.7-4.78.25-2.43.48-4.88.48-7.31.02-1.89-.18-3.74-.33-5.6-.03-.41-.08-.81-.09-1.22-.04-1.53.12-2.03.72-2.39.14-.08.27-.19.41-.24.46-.17.88.44,1.11,1.57.76,3.36.71,6.97.56,10.58-.11,2.68-.45,5.37-.81,8.03h-.06Z"/><path class="cls-1" d="m79.23,306.5c-.26,2.79-.55,5.57-1.01,8.34-.14,1.01-.26,2.02-.45,3.03-.68,3.53-1.55,7.02-2.52,10.47-.45,1.52-.82,3.08-1.23,4.6-.27.97-.48,1.97-.8,2.93-.16.48-.33.96-.52,1.43-.16.48-.53.89-.79,1.33-.39.53-.53.39-.77-.24-.12-.32-.29-.77-.45-1.3-.11-.51-.08-1.05.05-1.62,1.02-3.94,2.22-7.8,3.35-11.74.7-2.35,1.02-4.89,1.41-7.36.43-2.72.79-5.46,1.04-8.21.17-1.69.28-3.39.37-5.09.11-2.58.21-5.17.13-7.74-.05-2-.29-3.95-.47-5.91-.04-.43-.09-.86-.11-1.29-.07-1.62.09-2.15.71-2.53.14-.09.28-.2.42-.25.48-.18.91.47,1.15,1.65.73,3.52.83,7.28.85,11.06.02,2.81-.13,5.63-.3,8.45h-.06Z"/><path class="cls-1" d="m75.74,262.27c-.32,1.1-.56,2.24-.75,3.39-.06.42-.05.85-.11,1.28-.2,1.5-.33,3.03-.43,4.56-.04.68.02,1.37.03,2.04-.02.87,0,1.75-.2,2.64-.06.28-.21.25-.45.04-.23-.21-.66-.61-.82-1.11-.7-1.76-.66-3.59-.46-5.43.16-1.1.07-2.24.17-3.37.1-1.24.31-2.48.55-3.7.17-.75.35-1.5.58-2.24.31-1.13.76-2.21,1.15-3.3.33-.84.56-1.71.91-2.55.07-.19.13-.38.23-.55.34-.66.68-.74,1.24-.55.13.05.27.08.39.14.41.19.59.65.49,1.17-.41,1.46-1.01,2.82-1.5,4.26-.35,1.07-.73,2.15-.96,3.28h-.06Z"/><path class="cls-1" d="m67.19,279.9s.09.06.18.11l.17.09.1.05.78.35c1.09.49,2.16,1,3.21,1.53,1.06.53,2.1,1.08,3.12,1.63l1.52.8c.25.13.49.25.71.35l.18.08s.07.02.1.02c-.01.02.32-.04.52-.07.22-.03.47-.08.71-.13.49-.1.98-.21,1.47-.33.99-.24,1.98-.51,2.98-.76,7.03-1.83,13.99-4.12,20.76-6.85,1.5-.62,2.99-1.25,4.46-1.94l2.19-1.04,1-.52.58-.32s.06-.02.05-.05c-.02-.02-.05-.04-.07-.05-.06-.03-.11-.05-.17-.07l-.35-.11-.66-.19-.31-.09c-.11-.03-.15-.04-.46-.16-.99-.37-1.97-.77-2.93-1.23-.98-.42-1.82-1.19-2.63-1.91-.5-.47-.66-.72-.62-.75.05-.04.35.11.9.24.55.14,1.39.17,2.37.18.95.08,1.99.32,3.12.63.47.14,3.35.91,5.01,1.67.19.1.34.22.5.33.1.11.24.23.3.34.14.23.27.42.32.62.03.1.03.2.04.32-.01.07.03.17-.02.22l-.22.17-.88.69-1.76,1.38-.88.68-.22.17-.11.09-.17.09-.59.28-2.94,1.32c-3.94,1.7-7.97,3.21-12.08,4.53-4.91,1.57-9.96,3.35-15.12,4.61-.72.16-1.42.34-2.16.47-.36.07-.73.15-1.13.2-.21.03-.34.07-.68.07-.3.02-.59,0-.87-.09-.62-.2-.84-.35-1.22-.52l-.98-.5-1.91-1c-1.27-.66-2.54-1.3-3.82-1.9-.64-.3-1.29-.59-1.94-.87-.49-.21-1.05-.41-1.57-.61l-.79-.3-.85-.28-.84-.28-.45-.18c-.12-.06-.17-.11-.25-.17l-.46-.34c-.14-.1-.35-.25-.42-.32l-.26-.23-.26-.23c-.02-.12.13-.18.2-.26.18-.16.41-.32.74-.5.38-.17.64-.39,1.22-.57.59-.17,1.28-.31,1.92-.46l3.35-.75c5.21-1.27,10.43-2.54,15.54-4.02,3.97-1.15,7.8-2.47,11.61-3.87.84-.32,1.65-.63,2.5-.95,1.57-.58,2.59-.96,3.36-1.11.77-.14,1.28-.08,1.72.05.2.06.45.08.58.15.22.11.05.37-.43.82-.47.46-1.3,1.02-2.45,1.51-6.78,3.01-14.23,5.21-21.72,7.25-2.79.75-5.59,1.46-8.39,2.15l-2.1.52c-.09.03-.17.05-.26.08l-.12.03h0s-.02,0-.02,0h-.04c-.06,0-.16.02-.26.04h-.23Z"/><path class="cls-1" d="m103.55,305.09c-.73,1.25-1.83,2.36-3.08,3.24-1.36.83-2.72,1.29-4.28,1.4-1.13.06-2.34-.1-3.36-.65-1.79-.99-2.89-2.59-3.64-4.15-.77-1.58-1.26-3.22-1.65-4.86-.34-1.46-.63-2.92-.87-4.37-.15-.93-.29-1.86-.4-2.8-.09-.94-.12-1.88-.12-2.82,0-.59.19-.52.46-.06.26.47.67,1.33.92,2.38.7,3.71,1.57,7.37,2.91,10.75.8,1.99,2.33,3.82,4.14,4.19.98.25,2.09.05,3.16-.36.28-.09.52-.22.76-.36.24-.14.49-.25.72-.41.42-.38.9-.68,1.24-1.16.5-.51.85-1.16,1.24-1.79.32-.68.66-1.34.89-2.07.76-2.17,1.18-4.53,1.27-6.87.06-1.82-.16-3.61-.44-5.37-.07-.39-.16-.76-.22-1.15-.24-1.43-.14-1.89.51-2.36.15-.11.29-.24.44-.32.51-.28,1.12.24,1.49,1.37,1.01,3.34,1.08,7,.6,10.65-.38,2.7-1.1,5.45-2.64,7.99l-.06-.03Z"/><path class="cls-1" d="m82.45,337.71c-2.58.8-5.2,1.51-7.93,1.96-.5.08-.99.18-1.5.24-.51.07-1.01.14-1.54.14h-.69c-.13,0-.2.02-.39,0l-.25-.03-.17-.03c-.46-.07-.88-.16-1.32-.25-.86-.18-1.71-.4-2.55-.64-1.68-.47-3.34-1.03-4.96-1.67-1.44-.58-2.88-1.19-4.26-1.91-.88-.48-1.73-1.03-2.53-1.67-.81-.63-1.43-1.49-1.95-2.37-.32-.56-.03-.63.59-.49.31.07.7.19,1.12.34.23.06.47.13.7.22.12.04.23.1.35.13.1.07.21.13.3.21l1.16.7c.4.22.82.4,1.21.64.8.44,1.62.87,2.48,1.25,1.71.78,3.5,1.45,5.33,2.09,1.1.38,2.25.65,3.42.86l.87.14.42.06c.13.01.13.03.31.01.57-.03,1.13-.02,1.71-.1,2.53-.24,5.11-.86,7.64-1.6,1.56-.46,3.11-.96,4.65-1.52,2.33-.84,4.66-1.73,6.91-2.74,1.75-.78,3.4-1.7,5.08-2.58.37-.2.74-.37,1.12-.54.71-.31,1.21-.46,1.61-.47.39-.02.65.04.9.19.11.07.25.12.33.19.27.23-.17.8-1.08,1.56-.72.47-1.42,1.01-2.2,1.42-.77.42-1.55.84-2.35,1.24-1.6.79-3.24,1.54-4.92,2.24-2.49,1.05-5.03,1.99-7.62,2.86l-.02-.06Z"/><path class="cls-1" d="m191.68,98.55c-.32,1.21-.32,2.49-.16,3.71.18,1.39.53,2.78,1.25,4s1.86,2.22,3.24,2.51,2.66-.23,3.69-1.17,1.76-2.14,2.72-3.14c.47-.49.49-1.28,0-1.77s-1.3-.49-1.77,0c-.76.79-1.38,1.7-2.11,2.52-.16.18-.33.36-.5.52-.1.09-.2.18-.29.26-.02.02-.15.11-.02.02.14-.11-.07.05-.1.07-.09.06-.18.11-.28.16-.26.15.13-.02-.07.04-.11.03-.23.05-.34.09.01,0,.25,0,.11-.01-.07,0-.15,0-.23,0-.06,0-.12,0-.19-.01.03,0,.22.06.09,0-.1-.04-.24-.06-.35-.09-.21-.06-.07-.02-.01,0-.07-.03-.14-.07-.21-.1-.15-.08-.3-.18-.44-.27-.26-.15.1.12-.11-.08-.08-.07-.16-.14-.23-.22-.05-.05-.29-.36-.11-.11-.08-.11-.15-.21-.22-.33-.13-.2-.25-.42-.35-.64-.03-.06-.06-.13-.09-.19.02.04.09.22,0,0-.05-.14-.11-.28-.15-.42-.18-.54-.32-1.09-.41-1.66-.01-.08-.02-.15-.04-.23.02.12.01.11,0,0-.02-.17-.04-.34-.05-.51-.02-.31-.03-.62-.03-.93,0-.27.03-.55.05-.82.02-.24,0,0,0,.05.01-.08.03-.15.04-.23.03-.13.06-.26.09-.39.17-.65-.22-1.36-.87-1.54s-1.37.22-1.54.87h0Z"/><path class="cls-1" d="m210.95,110.22c-.09.24.13-.27.02-.04-.03.05-.05.11-.08.16-.06.12-.13.24-.2.36-.04.06-.08.13-.13.19-.03.04-.16.23-.04.06s-.02.02-.05.06c-.05.06-.1.12-.16.18-.09.1-.18.19-.28.28-.06.05-.12.11-.18.16l-.06.05c-.08.07-.08.07,0,0q.08-.06,0,0l-.06.05c-.06.05-.13.09-.2.13-.12.08-.25.15-.38.22-.06.03-.12.06-.18.09-.24.13.27-.1.01,0-.12.04-.24.09-.36.12-.13.04-.27.06-.41.09-.15.03.3-.02.07-.01-.07,0-.15,0-.22,0-.06,0-.12,0-.18,0-.22,0,0-.02.08.02-.12-.06-.3-.06-.43-.11-.05-.02-.26-.06-.06-.02s0,0-.06-.04c-.14-.08-.28-.17-.4-.27-.24-.18-.69-.2-.96-.13-.29.08-.6.3-.75.57-.35.66-.11,1.28.45,1.71,1.35,1.04,3.15.89,4.6.16s2.47-1.95,3.01-3.39c.23-.61-.26-1.4-.87-1.54-.71-.16-1.29.22-1.54.87h0Z"/><path class="cls-1" d="m182.01,115.38c-.78,1.71-.78,3.72.22,5.36.45.73,1.06,1.33,1.77,1.8.76.5,1.6.74,2.49.86.65.09,1.28-.64,1.25-1.25-.03-.75-.55-1.16-1.25-1.25.35.05-.11-.03-.2-.06-.15-.04-.29-.09-.43-.14-.19-.07.04-.01.05.02,0-.02-.18-.08-.2-.1-.13-.07-.27-.14-.39-.23-.06-.04-.13-.08-.19-.13-.17-.12.04.02.04.03,0,0-.3-.27-.34-.3-.09-.09-.25-.22-.3-.34.06.13.1.13,0,0-.04-.06-.08-.13-.12-.19-.08-.12-.13-.25-.2-.38s.07.2-.01-.02c-.03-.08-.06-.16-.08-.24-.05-.16-.09-.32-.12-.48,0-.03-.01-.07-.02-.1-.02-.09-.01-.07.01.09-.02-.03-.01-.16-.02-.2-.01-.17-.01-.33,0-.5,0-.08.01-.17.02-.25,0-.18-.06.3,0-.01.03-.15.06-.29.1-.44.02-.08.05-.16.08-.24.07-.25-.09.19.03-.07.27-.59.19-1.37-.45-1.71-.55-.29-1.42-.19-1.71.45h0Z"/><path class="cls-1" d="m205.43,93.35c-1.78-3.92-6.32-5.76-10.14-7.03-.64-.21-1.37.25-1.54.87-.19.68.23,1.32.87,1.54,1.86.62,3.43,1.21,5.11,2.22,1.55.93,2.78,2,3.54,3.66.28.61,1.17.76,1.71.45.63-.37.73-1.09.45-1.71h0Z"/><path class="cls-1" d="m212.48,99.51c.3-.1.61-.19.93-.25.16-.03.31-.06.47-.08-.26.04.22-.02.26-.02.32-.02.64-.03.96-.01.16,0,.32.02.48.03.15.02.16.02.03,0,.08.01.16.02.24.04,1.34.23,2.21.6,3.31,1.43.52.39,1.42.1,1.71-.45.35-.66.11-1.29-.45-1.71-2.41-1.81-5.75-2.33-8.6-1.39-.62.2-1.09.87-.87,1.54.2.62.87,1.09,1.54.87h0Z"/><path class="cls-1" d="m207.35,115.13c.15,1.32.3,2.72-.1,4.31-.15.57-.33,1.24-.89,1.8-.5.49-1.16.74-1.79.8-.6.01-1.15-.09-1.59-.29-.91-.37-1.62-.88-2.3-1.4-.6-.46-1.19-.92-1.76-1.39-.36-.3-.74-.58-1.07-.93-.31-.36-.6-.74-.87-1.13-.17-.25-.06-.31.25-.29.3.03.87.07,1.37.3,1.6.98,3.05,2.12,4.51,2.86.42.21.89.31,1.19.26.3-.06.41-.2.57-.48.17-.32.27-.85.28-1.41.01-.56-.02-1.16-.08-1.77-.08-.74-.2-1.55-.31-2.33-.18-1.19-.29-2.45-.31-3.71,0-.98-.09-1.99.12-2.96.05-.21.06-.43.13-.64.29-.76.57-.92,1.15-.87.13.01.27.01.39.04.41.09.64.51.67,1.06.1,1.64-.1,2.97.04,4.5.09,1.12.27,2.4.47,3.66h-.06Z"/><path class="cls-1" d="m283.29,80.11c.02.35-.42.34-1.15.13-.23-.07-.83-.45-.87-.58-.08-.24-.15-.47-.18-.68-.02-.13.53-1.62.7-2.14.16-.5.41-.95.68-1.38.55-.88,1.08-1.78,1.62-2.66.12-.2.27-.37.45-.53.61-.55,1.04-1.21,1.42-1.91.06-.12.15-.22.13-.39-.04-.27,1.11-2.09,1.33-2.28.55-.47,1.03-.99,1.54-1.48.07-.07.09-.18.25-.19.36-.02.43-.22.57-.39.18-.23.38-.46.62-.66.12-.1.34-.13.53-.18.17-.05.51.25.53.32.05.19.28.21.44.29.05.03.13.07.17.1.09.07-.17,1.92-.27,2.08-.03.04-1.14,2.28-1.23,2.55-.05.14-.19.23-.3.33-.05.05-.89,1.87-.93,1.94-.25.33-.36.75-.81.95-.09.04-.12.12-.16.19-.33.63-.79,1.17-1.22,1.74-.22.29-.38.62-.57.92-.03.06-.1.09-.15.13-.06.06-.14.11-.18.18-.42.75-1,1.39-1.35,2.19-.08.18-.85.81-.93,1.03-.05.12-.67.22-.67.36Z"/><path class="cls-1" d="m286.49,89.67c-.31.1-.38-.32-.3-1.07.02-.24.28-.9.38-.97.2-.13.4-.26.58-.33.11-.05,1.53.13,2.03.16.48.03.92.17,1.35.33.88.32,1.77.61,2.65.93.2.07.38.17.55.31.59.45,1.25.71,1.94.9.11.03.22.09.37.03.24-.1,2.05.57,2.25.74.51.41,1.05.75,1.57,1.12.07.05.18.05.21.2.07.34.27.36.44.45.24.12.47.26.69.44.11.09.17.3.25.47.07.16-.14.55-.2.58-.16.09-.14.32-.19.5-.02.06-.04.14-.06.18-.05.1-1.75.3-1.91.24-.04-.01-2.22-.55-2.48-.58-.14-.02-.24-.13-.35-.21-.05-.04-1.82-.41-1.89-.44-.34-.16-.73-.17-.98-.55-.05-.07-.13-.09-.2-.1-.62-.17-1.18-.48-1.76-.76-.29-.14-.61-.22-.92-.33-.06-.02-.1-.08-.14-.12-.06-.05-.12-.11-.19-.13-.74-.23-1.41-.63-2.18-.77-.18-.03-.86-.63-1.07-.65-.12-.01-.3-.59-.43-.55Z"/><path class="cls-1" d="m308.35,349.79s6.04-3.78,5.99-.53-3.63,7.95-5.51,6c-1.88-1.95-.48-5.47-.48-5.47Z"/><path class="cls-1" d="m367.02,469.21s9.21.07,7.35,1.72c-2.36,2.09-11.72,2.49-11.72,2.49l4.36-4.21Z"/><path class="cls-1" d="m340.93,464.4s10.44-1.85,10.81-2.61-4.61-1.18-4.61-1.18l-6.2,3.78Z"/><path class="cls-1" d="m425.34,473.79s11.22-.33,12.42-1.45-4.32-1.99-4.32-1.99l-8.1,3.44Z"/><polygon class="cls-2" points="307.3 434.52 326.33 407.19 323.88 445.16 307.3 434.52"/><path class="cls-5" d="m298.33,442.93c-17.37-13.54,1.83-43.29,13.41-53.84l-8.81-3.56s-13.82,22.26-18.54,28.1c-4.72,5.85-11.66,14.17-11.66,14.17,0,0,7.85,9.25,14.07,11.24,6.22,1.99,11.53,3.87,11.53,3.87Z"/><path class="cls-1" d="m279.94,435.19c-8.95-4.83.83-15.37,1.4-15.72l-8.61,8.35,7.21,7.37Z"/><path class="cls-1" d="m322,413.23s3.4-4.77,3.2-4-3.04,29.04-1.33,35.93c1.84,7.39,2.44-34.64,3.95-42.32,1.51-7.68-5.83,10.39-5.83,10.39Z"/><path class="cls-3" d="m325.2,446c-13.17-8.36-17.9-11.48-17.9-11.48,0,0-5.94,10.21-3.03,10.64,2.91.43,20.93.84,20.93.84Z"/><path class="cls-1" d="m312.59,445.63s8.1-.88,4.71-4.41,5.65,5.08,5.65,5.08l-10.36-.68Z"/><path class="cls-1" d="m372.73,411.34c0,2.06-2.36,3.63-4.46,2.95-1.59-.52-2.57-2.29-2.1-3.8,1.03-3.34,6.56-2.62,6.56.85Z"/><path class="cls-1" d="m411.35,421.51c0,1.57-1.28,2.85-2.85,2.85-2.4,0-4.77-1.89-3.39-3.89,2.15-3.1,6.24-1.33,6.24,1.04Z"/><path class="cls-1" d="m346.87,428.29s2.55,3.88,1.92,5.62c-.63,1.74-2.62,3.38-3.83,3.05s1.91-8.67,1.91-8.67Z"/><path class="cls-1" d="m379.22,369.34s-6.4,3.89-4.49,6.57c1.9,2.68,7.49-.96,7.49-.96l-3-5.61Z"/><path class="cls-1" d="m412.9,401.93s-2.32,6.07,2.3,6.4c4.63.33,5.15-4.44,4.2-4.92-.95-.48-6.51-1.49-6.51-1.49Z"/><path class="cls-1" d="m383.47,438.42s-.84-4.22,4-4.99c4.84-.77,6.77,6.76,4.32,7.37-2.45.61-8.32-2.39-8.32-2.39Z"/><path class="cls-1" d="m368.89,448.76s-5.67,1.94-3.17,5.79c1.28,1.97,3.67-1.42,3.67-1.42l-.5-4.37Z"/><path class="cls-1" d="m433.01,448.76s-2.89-.82-2.88,2.34,3.29,2.17,3.29,2.17l-.41-4.52Z"/><path class="cls-1" d="m439.95,420.47s-5.61,1.18-3.97-3.12c1.64-4.31,7.33-.95,7.33-.95l-3.36,4.08Z"/><path class="cls-1" d="m374.07,377.8c-.3-.22-.56-.52-.81-.8-.21-.32-.46-.62-.57-.98l-.2-.52c-.05-.17-.08-.34-.11-.5-.08-.33-.11-.67-.11-1.01-.02-.25-.01-.49,0-.74.01-.25.02-.49.1-.72.44-1.68,1.59-2.85,2.78-3.7.53-.39,1.07-.74,1.62-1.07.71-.42,1.55-.7,2.42-.61.27.03.24.32.09.66-.16.33-.38.77-.69.97-1.14.7-2.2,1.5-3.13,2.44-.56.57-.84,1.35-.92,2.06-.1.78.04,1.67.5,2.23.29.36.74.64,1.25.83.78.27,1.71.36,2.58.19.68-.14,1.29-.5,1.8-.88.11-.09.21-.19.31-.26.37-.3.52-.24,1.1.17l.39.27c.43.31.53.84.13,1.33-.58.69-1.32,1.14-2.12,1.43-.8.29-1.64.45-2.52.45-1.28.02-2.68-.3-3.94-1.18l.03-.05Z"/><path class="cls-1" d="m416.14,409.9c-.98.06-1.96-.08-2.87-.41-.33-.12-.67-.23-.97-.41-.53-.32-1.02-.74-1.39-1.23-.36-.5-.62-1.04-.8-1.6-.16-.49-.27-1-.3-1.51-.08-.65.12-1.33.48-1.86.11-.17.19-.09.25.1.05.19.16.51.2.81.09,1.07.44,2.02,1.03,2.87.33.53.91.85,1.5,1.09.65.27,1.38.39,2.11.37.45-.02.91-.09,1.35-.22.66-.2,1.31-.51,1.79-1,.37-.38.56-.88.65-1.33.02-.1.01-.2.03-.3.03-.17.1-.27.25-.33.13-.06.31-.1.56-.12l.34-.04c.35-.03.71.21.83.72.05.72-.23,1.44-.62,2.03-.4.6-.94,1.07-1.53,1.44-.88.55-1.88.85-2.87.94v-.05Z"/><path class="cls-1" d="m385.79,432.51c1.23-.35,2.55-.38,3.78-.09.44.11.9.19,1.31.39,1.45.66,2.66,1.81,3.35,3.25.28.65.55,1.32.61,2.03.11.89.11,1.89-.45,2.62-.16.24-.64-.05-1.08-.43-.44-.39-.8-.82-.78-1.12.19-1.09-.02-2.1-.75-3.22-.44-.67-1.25-1.05-2.01-1.32-.85-.31-1.76-.41-2.7-.26-.57.11-1.13.28-1.65.55-.78.42-1.5,1.02-1.94,1.78-.34.6-.4,1.28-.34,1.88,0,.13.04.26.07.39.05.48,0,.64-.54.91-.12.06-.24.13-.36.19-.41.19-.83.02-1.06-.53-.3-.81-.32-1.76-.08-2.64.24-.89.71-1.7,1.32-2.36.9-.99,2.06-1.67,3.29-2.07l.02.05Z"/><path class="cls-1" d="m434.32,418c.11-.62.3-1.19.56-1.67.23-.44.59-1.04,1.04-1.42.15-.16.31-.29.48-.42.16-.14.33-.26.51-.34,1.28-.62,2.56-.74,3.78-.67.54.04,1.08.07,1.62.16.68.09,1.44.3,1.93.94.15.19-.09.4-.42.6-.33.18-.72.45-.99.45-.49-.03-1-.08-1.53-.05-.26,0-.53,0-.8.03-.27-.01-.54-.02-.83-.03-.68-.02-1.29.36-1.75.69-.27.18-.48.38-.66.6-.19.27-.36.61-.48.92-.12.39-.18.78-.11,1.16.13.57.49,1.17,1.08,1.55.45.3,1.03.39,1.57.48.12.02.24.02.36.04.43.1.53.26.49.93,0,.15,0,.3-.02.45-.05.5-.35.86-.8.9-1.32.06-2.74-.44-3.88-1.65-.87-.85-1.38-2.34-1.23-3.63h.06Z"/><path class="cls-1" d="m363.59,453.36c-.08-1.01,0-1.84.23-2.79.09-.33.13-.68.28-.99.24-.56.58-1.07,1.01-1.49.41-.43.87-.8,1.37-1.09.44-.25.87-.51,1.34-.66.59-.2,1.22-.43,1.84-.21.19.06.17.25.04.51-.13.26-.34.65-.6.75-.93.42-1.66.92-2.38,1.55-.44.39-.63.99-.81,1.55-.2.61-.27,1.31-.25,2.03,0,.43.07.83.21,1.16.2.48.59.79,1.21.86.48.05,1-.12,1.52-.27.11-.03.23-.09.35-.1.44-.08.61.07.75.7.03.14.08.29.1.43.09.49-.07.91-.4,1.08-.5.25-1.05.4-1.67.44-.62.03-1.36-.03-2.17-.4-.6-.28-1.16-.8-1.5-1.38-.31-.57-.47-1.14-.53-1.64h.05Z"/><path class="cls-1" d="m350.05,430.68c.08.89.02,1.78-.15,2.63-.08.31-.08.63-.2.92-.18.53-.43,1.03-.72,1.48-.28.46-.63.93-1.05,1.28-.37.32-.75.63-1.18.87-.56.28-1.3.42-1.89.12-.18-.09-.1-.24.08-.42.18-.16.4-.44.59-.56.18-.1.33-.23.48-.38.15-.14.31-.25.46-.41.29-.31.59-.64.91-.99.38-.47.5-1.1.63-1.69.14-.65.19-1.33.13-2.01-.03-.42-.11-.84-.23-1.24-.19-.61-.44-1.22-.86-1.71-.33-.38-.78-.61-1.2-.83-.09-.05-.2-.08-.28-.13-.33-.19-.34-.37-.09-.96.06-.13.1-.27.17-.4.2-.44.57-.67.97-.57,1.2.27,2.15,1.25,2.71,2.35.44.82.69,1.72.81,2.62h-.05Z"/><path class="cls-1" d="m429.29,452.72c-.19-.65-.26-1.34-.19-1.99.02-.24,0-.47.06-.7.21-.8.62-1.49,1.1-2.08.2-.27.43-.51.68-.73.3-.29.66-.55,1.09-.61.14-.02.21.17.24.42.03.25.05.57-.04.73-.18.28-.3.57-.43.84-.18.22-.37.45-.58.7-.25.3-.25.72-.28,1.08-.04.41-.02.81.1,1.22.07.25.16.5.3.73.21.34.45.7.81.91.27.17.62.18.9.22.06.02.12.02.18.04.21.1.24.26.19.78l-.03.35c-.04.39-.24.69-.57.79-.23.06-.48.1-.72.1-.23-.02-.46-.09-.68-.18-.45-.16-.82-.47-1.14-.82-.48-.51-.81-1.14-1.04-1.79l.05-.02Z"/><path class="cls-1" d="m410.41,425.19c-1.5.63-3.14.66-4.65.04-.53-.24-1.05-.49-1.46-.89-.72-.69-1.22-1.6-1.37-2.56-.18-.96.1-1.95.61-2.67.44-.65,1.06-1.17,1.75-1.45.87-.39,1.82-.52,2.72-.41.57.08-.19.18-1.14.45-.42.11-.83.26-1.18.48-.34.24-.63.52-.84.84-.43.65-.57,1.35-.52,2.02.02.85.72,1.61,1.47,1.98.82.46,1.85.46,2.85.19.61-.16,1.17-.47,1.57-.88.59-.61.79-1.53.34-2.28-.35-.6-1.02-.85-1.64-1.04-.14-.04-.29-.05-.44-.09-.54-.14-.7-.33-.77-1.04-.02-.16-.05-.32-.05-.48-.03-.53.33-.98,1.01-1.03.98-.06,2.15.15,3.13.95.94.8,1.64,2.02,1.67,3.46.02,1.02-.33,2.08-.94,2.85-.6.77-1.36,1.28-2.11,1.63l-.03-.05Z"/><path class="cls-1" d="m371.86,415.99c-1.82.25-3.65-.09-5.17-1.19-.55-.4-1.07-.89-1.43-1.51-.27-.56-.48-1.15-.51-1.8-.02-.32.05-.65.09-.96.09-.3.2-.6.34-.88.6-1.08,1.54-1.72,2.47-2.16.83-.39,1.7-.67,2.6-.78,1.12-.21,2.43.04,3.32.86.27.26.11.32-.23.34-.34,0-.85.07-1.37.13-.46.02-.92.14-1.37.17-.46.1-.91.21-1.34.39-.86.34-1.65.84-2.18,1.44-.29.37-.4.81-.34,1.24.06.44.31.89.6,1.26.7.82,1.98,1.32,3.25,1.29.78,0,1.57-.18,2.19-.57.5-.28.82-.71,1.06-1.18.06-.26.19-.5.17-.79l.02-.42c-.02-.13-.03-.27-.07-.4-.22-.82-.93-1.43-1.63-1.72-.16-.07-.32-.09-.48-.14-.57-.16-.72-.35-.92-.93-.04-.13-.11-.26-.15-.4-.14-.41.23-.9,1.12-.98,1.29-.04,2.59.63,3.47,1.7.43.55.76,1.2.92,1.92.18.73.13,1.45.02,2.16-.21,1.1-.88,2.11-1.7,2.78-.84.68-1.79.99-2.71,1.19v-.06Z"/><path class="cls-1" d="m315.99,350.76c-.13.95-.44,1.84-.94,2.54-.17.27-.3.55-.53.77-.76.79-1.66,1.37-2.65,1.67-.21.09-.45.11-.67.18-.22.07-.44.11-.68.13l-.45.05c-.15-.01-.31-.03-.46-.05-.31-.01-.6-.2-.85-.38-.16-.12.03-.33.27-.54.26-.22.5-.42.7-.47.73-.06,1.4-.52,2.25-.81.52-.19.83-.7,1.16-1.11.31-.49.62-1,.69-1.58.1-.35.04-.7.02-1.06-.09-.26-.13-.54-.25-.8-.15-.25-.28-.51-.46-.73-.36-.31-.72-.57-1.18-.74-.1-.04-.19-.08-.28-.13-.15-.11-.22-.21-.21-.37.02-.17.1-.37.23-.64l.18-.36c.11-.19.25-.33.42-.43.17-.1.39-.17.56-.12.55.13,1.07.34,1.47.77.21.2.42.41.61.63.18.24.33.53.48.8.46.81.63,1.83.62,2.79h-.05Z"/><path class="cls-1" d="m423.83,449.29l-.22,4.39c-.02.54.01,1.07-.02,1.6-.11,1.89-.27,3.78-.5,5.67-.11.84-.22,1.67-.33,2.51-.11,1.07-.46,2.12-.88,3.11-.13.31-.18.25-.24-.06-.05-.3-.16-.85-.17-1.46-.03-.54-.04-1.08.01-1.6l.06-1.59c0-1.06.09-2.12.21-3.2.13-1.29.02-2.64,0-3.96l-.05-4.4c-.01-.9,0-1.81,0-2.72,0-1.37.06-2.76.04-4.13,0-1.07-.13-2.12-.16-3.19,0-.24-.04-.47-.02-.71.06-.88.27-1.15.87-1.26.14-.03.27-.06.41-.07.45-.02.79.37.88.99.23,1.84.2,3.73.21,5.68-.01,1.45-.03,2.92-.04,4.37h-.05Z"/><path class="cls-1" d="m318.24,442.84c-.68-.57-1.35-1.13-2.03-1.67-.25-.2-.53-.34-.77-.55-.84-.74-1.7-1.48-2.6-2.13-.4-.29-.83-.53-1.26-.77-.56-.28-1.1-.61-1.61-1.01-.16-.13-.08-.22.13-.3.21-.07.6-.15.97-.07,1.29.37,2.47.97,3.56,1.72.64.47,1.41.79,2.09,1.21.74.49,1.45,1,2.17,1.51l1.33.93c.68.45,1.34.93,2.05,1.31.56.28,1.16.47,1.74.68.13.05.26.08.39.13.46.2.51.44.33,1.02-.04.13-.07.26-.12.39-.16.41-.54.67-.95.62-.61-.08-1.18-.26-1.75-.48-.56-.23-1.06-.57-1.56-.9-.74-.5-1.44-1.06-2.15-1.6l.03-.04Z"/><path class="cls-1" d="m324.23,439.25c.1-3.75.24-7.51.42-11.27.06-1.37.07-2.74.18-4.11.35-4.82.82-9.64,1.4-14.45.28-2.13.55-4.27.82-6.39.19-1.36.37-2.72.62-4.08.12-.68.26-1.35.42-2.02.16-.67.33-1.34.63-1.98.42-.78.53-.63.78.16.3.81.48,2.17.24,3.71-.41,2.72-.73,5.46-1.04,8.21-.28,2.75-.7,5.5-1.05,8.28-.44,3.32-.55,6.81-.76,10.23-.26,3.76-.49,7.53-.67,11.3-.1,2.32-.2,4.65-.3,6.97l-.06,1.4c-.04.31,0,.68-.16.9l-.1.17s-.02.03-.03.04h0s0,.02,0,.02h0c.12.12.03.03.06.06h-.03s-.1.04-.1.04l-.42.13c-.29.08-.59.14-.88.18l-.68.07c-.45.05-.9.08-1.34.1-1.79.09-3.56.08-5.32.04-2.73-.06-5.42-.1-8.12-.29-.6-.04-1.18-.06-1.78-.12-2.22-.23-2.92-.51-3.28-1.17-.08-.15-.2-.31-.23-.45-.11-.5.82-.68,2.41-.55,2.38.19,4.8.38,7.26.57,2.46.19,4.97.32,7.45.24.92-.03,1.84-.07,2.73-.16l.72-.07c.07,0,.03,0,.04-.03.09-1.86.08-3.77.12-5.66h.05Z"/><path class="cls-1" d="m327.52,374.77c-.39-1.08-.95-1.92-1.82-2.44-1.01-.61-2.09-.96-3.21-.97-.82,0-1.62.26-2.41.59-1.41.58-2.74,1.6-3.93,2.78-1.21,1.16-2.31,2.51-3.31,3.92-.89,1.25-1.65,2.62-2.37,3.98-.47.87-.91,1.76-1.36,2.65-.44.89-.91,1.77-1.5,2.6-.36.52-.53.35-.62-.26-.05-.31-.08-.74-.09-1.24.02-.49.13-1.03.34-1.58,1.46-3.88,3.5-7.61,6.45-10.79.89-.94,1.85-1.87,2.91-2.72,1.07-.84,2.3-1.59,3.69-2,1.52-.46,3.23-.41,4.73.07.38.12.73.28,1.09.43.34.18.68.35,1.01.55.33.25.67.5.99.77l.79.93c1.12,1.64,1.51,3.49,1.7,5.26.22,2.71-.15,5.38-.68,7.94-.43,1.99-.87,3.96-1.57,5.88-.15.42-.3.84-.48,1.25-.32.78-.64,1.24-.96,1.51-.31.27-.61.36-.97.35-.17,0-.34.01-.49-.02-.49-.11-.55-.91-.21-2.01,1.13-3.21,2.21-6.58,2.68-10.04.16-1.28.27-2.57.2-3.82-.03-1.26-.24-2.48-.64-3.54l.06-.03Z"/><path class="cls-1" d="m325.95,374.3c-1.15-.28-2.29-.6-3.41-.99-.41-.14-.84-.21-1.23-.39-.71-.28-1.4-.62-2.07-.97-.66-.4-1.31-.78-1.93-1.21-.57-.35-1.11-.75-1.67-1.1-.34-.25-.68-.52-1-.79-.31-.3-.59-.62-.84-.96-.16-.22.05-.38.41-.45.36-.07.88-.08,1.27.15.73.37,1.4.78,2.07,1.19.68.39,1.36.79,2.06,1.2.83.5,1.82.76,2.76,1.07,1.05.32,2.11.63,3.2.85.67.15,1.35.26,2.03.37,1.03.13,2.08.28,3.12.29.81,0,1.61-.16,2.41-.26.18-.02.35-.07.53-.09.66-.05.87.12,1.01.82.03.16.08.32.09.47.06.54-.21.98-.7,1.12-1.47.43-3.04.41-4.61.27-1.17-.1-2.34-.32-3.51-.53v-.06Z"/><path class="cls-1" d="m341.21,447.12c1.87-5.08,2.49-10.83,2.88-16.47.13-2.07.14-4.15.18-6.23.19-7.33-.06-14.69-.45-22.05-.19-3.26-.48-6.54-.82-9.77-.22-2.07-.44-4.15-.66-6.23-.21-2.08-.44-4.15-.42-6.26.18-1.34.09-1.15.62-.11.28.52.58,1.27.95,2.18.33.91.6,2,.8,3.19.72,4.22,1.2,8.48,1.59,12.75.38,4.27.68,8.56.71,12.89.05,5.17.33,10.54.16,15.84-.08,2.91-.26,5.83-.56,8.74-.31,2.91-.73,5.82-1.43,8.7-.46,1.77-.98,3.53-1.77,5.23-.17.43-.44.83-.65,1.25l-.34.62-.42.59c-.28.39-.54.79-.92,1.13-.36.34-.64.73-1.19,1.04-1.61.86-3.09,1.4-4.53,2.14-.71.36-1.41.74-2.02,1.17-.3.21-.59.44-.8.68-.24.25-.32.41-.41.63-.13.74.05,1.28.75,1.75.68.46,1.62.73,2.57.9,1.93.31,3.95.23,5.91-.03.98-.14,1.95-.33,2.88-.58.46-.13.92-.27,1.34-.44.41-.16.83-.37,1.02-.54.03-.04.03-.03.09-.09l.19-.24c.13-.16.26-.32.37-.49.24-.33.45-.66.64-.99.71-1.25.76-2.02.88-2.69.13-.66.27-1.17.58-1.59.13-.19.27-.43.41-.54.25-.18.51.03.83.59.29.54.8,1.62.57,3.21-.17,1.15-.64,2.21-1.2,3.12-.28.45-.59.89-.91,1.3l-.24.31c-.13.14-.32.33-.48.46l-.45.32-.42.24c-1.08.56-2.06.85-3.07,1.11-1,.25-2.01.43-3.03.55-2.04.23-4.1.3-6.29-.02-1.09-.18-2.23-.43-3.46-1.1-.6-.34-1.26-.8-1.78-1.57-.53-.74-.83-1.76-.77-2.64.02-.34.07-.63.15-.97.11-.33.25-.65.38-.97.2-.3.39-.59.58-.8l.55-.55c.18-.16.36-.29.54-.43.71-.52,1.41-.92,2.09-1.26,1.36-.69,2.71-1.22,3.97-1.75l.89-.39.35-.17s.03.02.16-.12l.59-.56c.2-.18.36-.46.54-.68.74-.92,1.23-2.13,1.72-3.32l.06.02Z"/><path class="cls-1" d="m400.18,442.72l-2.15-.07-2.14-.18c-1.43-.1-2.84-.28-4.26-.47-1.03-.12-2.07-.21-3.09-.41-3.61-.64-7.17-1.5-10.64-2.68-1.55-.48-3.08-1.03-4.6-1.57-.96-.38-1.94-.74-2.85-1.26l-1.37-.75c-.44-.29-.87-.6-1.25-.96-.48-.44-.37-.44.21-.37.62.03,1.61.21,2.72.55,1.94.62,3.88,1.25,5.83,1.87,1.97.57,3.95,1.14,5.94,1.71,2.39.71,4.96,1.03,7.48,1.39,1.38.2,2.78.32,4.16.5,1.39.09,2.79.21,4.19.27,1.72,0,3.45.12,5.16-.02,1.3-.06,2.61-.1,3.9-.28,1.29-.14,2.59-.28,3.84-.59.97-.24,1.96-.4,2.88-.75l2.79-.98c.41-.13.78-.36,1.18-.52,1.49-.61,2.03-.63,2.63-.13.14.11.3.22.4.34.36.42-.1,1.07-1.21,1.66-3.28,1.83-7.15,2.82-11.04,3.32-1.45.17-2.9.35-4.35.37l-2.18.08c-.73.02-1.45-.02-2.18-.02v-.06Z"/><path class="cls-1" d="m431.85,442.52c-.04-2.08-.08-4.15,0-6.3.02-.53.06-1.08.11-1.64.07-.58.12-1.12.33-1.85.12-.42.24-.63.35-.89.11-.25.22-.52.35-.75.24-.49.48-.97.74-1.43,2.03-3.72,4.26-7.17,6.38-10.69,1.56-2.56,3.02-5.17,4.48-7.77,2.55-4.58,4.96-9.26,6.49-14.18.76-2.45,1.26-4.98,1.12-7.43,0-.31-.03-.61-.09-.91-.05-.3-.08-.6-.15-.89l-.24-.86c-.04-.17-.07-.24-.11-.32l-.1-.24c-.07-.17-.14-.32-.22-.44-.09-.11-.13-.31-.27-.35-.27.12-.46.38-.68.6l-.43.49-.56.67-1.11,1.36-2.21,2.75c-1.48,1.84-2.97,3.67-4.5,5.45-1.97,2.28-4.01,4.54-6.31,6.57-1.15,1.01-2.36,1.97-3.7,2.78-.67.41-1.38.76-2.14,1.02-.76.24-1.56.49-2.4.41-1.04-.17-1.4-.47-1.36-.5.04-.07.53.04,1.28-.25,1.51-.49,3.61-2.18,6.09-4.39,4.4-3.96,8.11-8.81,11.87-13.61.95-1.2,1.89-2.41,2.88-3.63l.97-1.14c.48-.54,1-1.11,1.52-1.4.26-.14.52-.25.77-.28.13-.03.25-.03.39-.02.13.02.3,0,.39.13l1.25,1.19c.34.52.62,1.15.92,1.72.18.32.23.52.29.73l.18.64c.14.43.18.86.25,1.29.07.43.12.86.12,1.29.1,1.71-.11,3.36-.44,4.96-.79,3.81-2.22,7.41-3.79,10.91-1.58,3.51-3.4,6.9-5.29,10.2-2.08,3.62-4.28,7.16-6.41,10.7-1.06,1.77-2.12,3.55-3.04,5.35-.22.45-.46.9-.65,1.35-.24.51-.29.72-.38,1.21-.15.92-.18,1.95-.21,2.96-.09,5.03.19,10.16.35,15.27.13,3.87.24,7.76.12,11.68-.09,1.96-.16,3.91-.65,5.94-.06.25-.14.51-.25.78-.08.26-.23.54-.41.81-.37.52-.84.9-1.31,1.18-.95.58-1.93.88-2.91,1.14-3.04.74-6.08.88-9.1.75-1.52-.08-3.03-.24-4.56-.61-.77-.19-1.53-.42-2.32-.82-.4-.23-.79-.45-1.19-.9-.21-.22-.35-.49-.47-.75-.09-.28-.17-.53-.24-.79-.13-.93.05-1.88.44-2.59.17-.38.41-.67.62-1.01.24-.28.48-.59.75-.84.97-.96,1.88-1.56,2.65-2.01.78-.45,1.45-.73,2.01-.93,1.13-.38,1.86-.41,2.47-.25.28.06.63.14.79.25.54.42-1.23,1.07-3.98,3.01-1,.7-1.95,1.5-2.59,2.36-.28.42-.54.87-.54,1.18-.03.09-.03.16,0,.22.02.06-.02.14.02.2.07.15.06.19.11.21.08.08.57.38,1.08.54.53.18,1.11.33,1.72.45,1.22.23,2.52.35,3.82.4,2.59.09,5.29-.06,7.71-.64.6-.14,1.18-.33,1.68-.55.5-.21.92-.49,1.08-.68.03-.01.02-.06.09-.04-.05-.06,0-.05,0-.08,0-.02.02-.02.04-.06l.05-.15c.08-.16.14-.47.21-.72.12-.57.21-1.2.28-1.85.35-3.9.22-8.08.11-12.2-.15-4.16-.3-8.32-.45-12.48h.07Z"/><path class="cls-1" d="m412.04,457.82c-.18.07-.43.15-.56.19l-.33.09-.63.17-1.22.36c-.81.24-1.59.52-2.33.85-.55.23-1.02.57-1.49.85-.82.5-1.52,1.15-1.73,1.78-.14.3-.14.45.06.74.18.29.59.57,1.04.79.81.4,1.77.62,2.72.79.61.12,1.24.16,1.86.29.62.14,1.24.31,1.86.54.39.15.29.36-.09.59-.37.22-1.03.56-1.78.62-.67.07-1.32-.06-1.99-.12-.67-.08-1.35-.2-2.04-.36-.7-.2-1.39-.39-2.12-.83-.18-.08-.37-.25-.54-.38-.18-.12-.36-.3-.52-.5l-.24-.3c-.07-.12-.13-.26-.19-.38-.06-.13-.11-.26-.16-.39-.03-.14-.04-.29-.07-.43-.02-.17-.06-.34-.07-.5l.07-.46c.04-.33.14-.58.25-.82.2-.52.52-.92.83-1.31.64-.77,1.39-1.29,2.15-1.74,1.68-.94,3.43-1.49,5.14-1.98l.78-.22c.16-.05.26-.06.39-.13.1-.09.14-.22.19-.35.04-.1.11-.43.16-.65.28-1.54.45-3.19.49-4.8.04-1.26-.1-2.5-.16-3.76,0-.28-.04-.55-.03-.83,0-1.03.25-1.37.85-1.56.14-.04.27-.1.4-.12.42-.06.82.36.98,1.11.49,2.24.41,4.62.28,7.04-.06.9-.15,1.81-.29,2.74-.04.24-.07.47-.13.72l-.08.38c-.03.11-.05.27-.14.49-.16.39-.28.81-.53,1.14-.26.31-.63.51-.99.71l-.03-.05Z"/><path class="cls-1" d="m321.5,414.72l-4.78,7.44c-.58.9-1.08,1.85-1.65,2.75-1.99,3.2-4.08,6.34-5.93,9.63-.8,1.47-1.58,2.96-2.27,4.47-.46.96-.87,1.95-1.38,2.89-.48.95-1.01,1.89-1.65,2.78-.4.55-.4.46-.38-.15.01-.3.01-.74.01-1.27.02-.52.12-1.1.29-1.7.26-1.09.72-2.09,1.16-3.1.43-1.01.89-2.02,1.38-3.01.95-1.99,2.01-3.94,3.16-5.84,1.37-2.27,2.64-4.73,4.07-7.03l4.73-7.55c.97-1.54,1.92-3.09,2.86-4.65,1.4-2.37,2.79-4.76,4.02-7.2.99-1.88,1.73-3.83,2.63-5.73.19-.42.36-.84.56-1.26.75-1.56,1.18-1.96,1.76-2.11.14-.03.28-.09.39-.1.38-.01.39.76.07,2.02-.27.92-.53,1.86-.84,2.79-.31.93-.69,1.84-1.05,2.77-.78,1.83-1.57,3.69-2.57,5.44-1.41,2.64-2.98,5.2-4.53,7.76l-.06-.03Z"/><path class="cls-1" d="m375.92,361.57c-1.16-2.38-2.68-4.51-4.36-6.47-.91-.9-1.79-1.84-2.82-2.57-.51-.38-1.07-.71-1.6-1.07l-1.71-.95c-4.7-2.38-10-3.74-15.3-4.7-3.89-.67-7.84-1.01-11.79-1.19-3.48-.16-6.97-.14-10.44.11-3.46.27-6.92.72-10.22,1.64-1.64.47-3.24,1.06-4.68,1.84-1.43.77-2.72,1.82-3.23,3.1-.53,1.29-.41,2.91.19,4.36.59,1.48,1.58,2.86,2.7,4.11,4.06,4.47,9.59,7.68,15.18,10.09,3.62,1.53,7.38,2.77,11.23,3.52,3.83.71,7.78,1.14,11.56.36,2.34-.48,2.18-.31.29.85-.96.53-2.46,1.08-4.34,1.43-1.87.35-4.12.43-6.5.11-8.41-1.14-16.34-4.36-23.34-9.16-3.44-2.46-6.85-5.28-8.91-9.5l-.36-.8-.28-.86c-.21-.56-.26-1.2-.37-1.8-.04-.31-.02-.63-.02-.95,0-.32,0-.63.07-.95l.17-.95c.09-.32.24-.63.36-.95l.2-.46.27-.41c.18-.27.37-.54.56-.79.44-.42.85-.92,1.33-1.25.47-.35.94-.72,1.44-.97.49-.28.98-.56,1.49-.77,2.41-1.09,4.91-1.73,7.43-2.23,2.52-.5,5.06-.84,7.62-1.04,5.11-.41,10.27-.37,15.34.08,5.57.52,11.14,1.44,16.53,3.12,2.69.85,5.34,1.87,7.85,3.26l.94.52.91.59c.62.37,1.18.83,1.76,1.28.6.42,1.06.99,1.59,1.48.52.5,1.04,1,1.47,1.58,2.29,2.7,4.02,5.78,5.37,8.98,1.36,3.2,2.4,6.51,3.18,9.86.59,2.55,1.02,5.13,1.32,7.73l.18,1.96.09,1.97c0,1.33.05,2.62-.27,4.07-.33,1.45-1.13,2.65-2.05,3.68-.92,1.03-2,1.88-3.14,2.59-2.29,1.42-4.85,2.33-7.47,2.77-4.06.67-8.42.21-12.06-1.93-.9-.53-1.76-1.14-2.54-1.85-.4-.34-.76-.72-1.12-1.11l-.27-.29-.31-.42c-.18-.3-.33-.64-.41-.99-.16-.69-.1-1.37.03-1.95.14-.57.33-1.1.54-1.59.43-.98.92-1.85,1.4-2.72.85-1.52,1.64-2.97,2.32-4.49,1.25-2.82,1.5-4.76,1.65-6.13.13-1.37.19-2.2.43-2.94.08-.33.12-.78.22-1,.15-.37.55.03,1.04,1.21.48,1.16.83,3.23.38,5.78-.66,3.79-2.69,7.12-4.32,10.16-.4.76-.76,1.52-.92,2.16-.1.32-.11.59-.09.76.02.18.04.24.14.36l.03.05.1.11.21.22.41.44c.3.26.58.56.9.8.62.5,1.29.96,2,1.34,2.83,1.55,6.27,1.97,9.6,1.47,3.31-.5,6.63-1.91,8.92-4.14.84-.82,1.48-1.77,1.8-2.72.03-.24.1-.42.14-.7l.08-.91c.03-.62.03-1.28.03-1.93-.06-2.64-.38-5.34-.85-7.99-.47-2.66-1.09-5.3-1.92-7.86-.79-2.58-1.81-5.07-3.03-7.43l.05-.04Z"/><path class="cls-1" d="m313.34,389.63c1.31.59,2.67,1.1,4.06,1.54.51.15,1.03.24,1.54.39,1.79.55,3.63,1.03,5.51,1.35.83.13,1.67.25,2.51.31.54.06,1.07.06,1.61.12.54.08,1.07.19,1.61.31.34.09.29.22,0,.43-.29.2-.82.57-1.46.74-1.13.13-2.27.17-3.4.16-1.13-.06-2.26-.27-3.38-.53-1.33-.35-2.75-.45-4.11-.81-1.49-.39-2.95-.87-4.39-1.43-.89-.33-1.75-.73-2.61-1.11-1.3-.6-2.57-1.29-3.81-1.97-.98-.52-1.99-.95-2.95-1.51-.21-.12-.42-.24-.62-.39-.36-.28-.58-.48-.67-.71-.07-.25-.04-.48.07-.76.05-.13.08-.26.14-.36.1-.18.27-.28.51-.34.24-.05.57-.07.85.07,1.78.7,3.38,1.71,5.1,2.59,1.26.68,2.57,1.3,3.9,1.86l-.02.06Z"/><path class="cls-1" d="m285.8,414.89c-2.88,3.51-5.84,6.95-8.83,10.36l-1.61,1.88c-.26.32-.54.62-.78.95l-.09.12s-.02.02-.04.03c-.02.01-.02.04-.04.06l-.1.11c-.07.07.03.16.04.25.02.05.29.38.44.61.16.25.42.49.63.74.21.25.44.49.7.72l.75.7.81.66c.52.46,1.11.85,1.68,1.28,2.3,1.65,4.79,3.09,7.33,4.4,2.25,1.2,4.61,2.22,6.98,3.12,3.05,1.15,6.16,2.1,9.14,3.58.93.48.8.46-.12.52-.46.02-1.13.13-1.92.16-.8.07-1.71,0-2.65-.21-1.68-.33-3.32-.85-4.92-1.45-1.61-.57-3.2-1.21-4.77-1.9-3.15-1.35-6.16-3.07-9-5.08-1.7-1.19-3.43-2.44-5.05-3.94-.42-.35-.79-.79-1.18-1.2-.2-.2-.38-.42-.55-.68-.17-.26-.33-.45-.54-.81l-.41-1.17-.1-.29v-.04s-.02-.02-.02-.02h0s.22,0,.12,0h0s.02-.07.02-.07l.04-.13c.06-.17.07-.35.21-.52.11-.18.21-.36.33-.53l.42-.46c.18-.19.36-.38.53-.58,2.99-3.44,5.95-6.88,8.84-10.39,1.78-2.16,3.53-4.34,5.24-6.55,2.58-3.35,5.13-6.76,7.43-10.27,1.78-2.73,3.32-5.54,4.77-8.39.33-.63.6-1.26.92-1.89,1.16-2.35,1.65-3.03,2.49-3.28.19-.06.4-.15.57-.16.56-.04.54,1.15-.18,3.02-2.22,5.49-5.55,10.75-9.1,15.79-2.65,3.75-5.48,7.38-8.35,10.95l-.05-.03Z"/><path class="cls-1" d="m411.84,401.77c-1.09-.48-2.18-.96-3.3-1.37-1.11-.45-2.24-.84-3.37-1.22-.82-.29-1.68-.47-2.52-.72-2.94-.91-5.95-1.66-8.98-2.26-1.35-.29-2.72-.41-4.08-.58-.87-.08-1.75-.11-2.62-.23-.87-.1-1.75-.17-2.62-.36-.54-.25-.47-.26,0-.55.47-.28,1.35-.6,2.39-.68,1.83-.09,3.65.08,5.48.26,1.82.22,3.64.46,5.42.95,2.13.54,4.39.95,6.56,1.54,1.2.32,2.37.72,3.55,1.07,1.16.42,2.34.81,3.49,1.26l2.12.85c.7.29,1.39.62,2.09.92,2.11.93,4.14,2.04,6.18,3.09.78.43,1.56.84,2.36,1.22.79.39,1.55.84,2.33,1.27.34.19.69.36,1.01.59,1.22.82,1.43,1.31,1.27,2.02-.04.16-.06.34-.12.48-.21.48-.95.49-1.9.06-2.71-1.41-5.41-3.05-8.27-4.49-1.06-.54-2.13-1.06-3.21-1.59-1.1-.47-2.17-1.01-3.29-1.45l.02-.06Z"/><path class="cls-1" d="m355.54,474.93c-1.85.14-3.72.14-5.64-.08-.96-.12-1.94-.31-2.95-.69-.5-.19-1.02-.45-1.53-.8-.5-.4-1.03-.88-1.33-1.61-.69-1.42-.2-3.04.54-4,.74-.98,1.61-1.57,2.46-2.09,1.7-1,3.45-1.61,5.18-2.16l1.57-.5.63-.21c.06-.03.14-.04.15-.11.02-.04.04-.07.06-.13l.11-.37c.06-.33.15-.63.19-.99.11-.68.19-1.4.26-2.12.37-4.43.3-8.99.18-13.52-.14-4.54-.41-9.08-.77-13.61-.33-4.02-.74-8.06-1.24-12.03-.65-5.11-1.48-10.19-2.06-15.31-.1-1.62-.09-1.4.46-.13.61,1.26,1.53,3.65,2.14,6.58,1.05,5.19,1.75,10.43,2.39,15.69.58,5.26.95,10.56,1.15,15.88.12,3.19.25,6.44.31,9.72.03,1.64.03,3.29-.02,4.95-.06,1.67-.14,3.31-.49,5.06-.05.27-.11.55-.22.84-.08.33-.29.74-.48,1.1l-.15.2c-.08.03-.12.11-.19.16-.12.12-.27.19-.43.26l-.48.19-.34.12-1.19.4c-.78.26-1.55.53-2.3.81-1.48.59-2.97,1.21-4.08,2.1-1.15.89-1.45,1.93-.66,2.59.41.37,1.08.66,1.79.85.72.2,1.49.32,2.27.38,2.08.17,4.24.05,6.36-.24,2.12-.3,4.24-.75,6.2-1.49.73-.29,1.45-.61,2.04-1.01.3-.19.54-.42.69-.62.03-.05.06-.1.09-.14.03-.06.05-.16.08-.24l.17-.5c.38-1.51.59-3.17.79-4.8.37-3.28.56-6.58.68-9.87.17-5.11,0-10.13-.38-15.15-.08-1.11-.19-2.18-.3-3.29-.38-4.11-.48-5.39.08-6.39.12-.23.24-.52.38-.67.23-.25.53.03.85.75.33.73.68,1.91.92,3.44.77,4.56,1.11,9.27,1.22,14.04.09,4.78.03,9.62-.39,14.48-.17,1.81-.35,3.61-.64,5.45-.14.92-.31,1.84-.59,2.87l-.29.84c-.09.26-.4.8-.63,1.03-.51.61-.99.9-1.48,1.22-1.9,1.11-3.71,1.6-5.56,2.06-1.84.42-3.69.71-5.56.86l-.02-.06Z"/><path class="cls-1" d="m305.52,412.09c-.33-.26-.67-.53-1-.79-.12-.09-.26-.16-.38-.26-.42-.35-.81-.74-1.22-1.08-.18-.15-.38-.29-.57-.42-.25-.17-.5-.34-.71-.56-.14-.13.27-.31.6-.2.57.24,1.13.49,1.62.85.3.22.67.34.99.53.35.21.71.42,1.06.63.22.13.44.26.66.38.34.18.67.38,1.02.54.27.12.58.15.87.22.06.02.13.02.19.04.23.08.26.2.15.57l-.08.25c-.1.28-.29.46-.49.46-.6.02-1.13-.18-1.65-.43-.37-.21-.71-.47-1.06-.71l.02-.03Z"/><path class="cls-1" d="m303.97,417.06c-.28-.17-.56-.34-.83-.5-.1-.06-.22-.09-.32-.15-.34-.22-.71-.46-1.04-.68-.15-.1-.32-.18-.48-.25-.21-.09-.44-.16-.6-.35-.11-.11.37-.68.63-.62.45.14.89.28,1.26.59.23.18.52.24.77.36.28.14.57.27.85.41.18.08.36.17.53.25.27.12.54.25.82.32.22.06.46.05.69.07.05,0,.1,0,.15,0,.18.04.21.14.14.47l-.05.23c-.06.25-.2.43-.36.46-.46.08-.89,0-1.29-.17-.3-.12-.59-.28-.88-.43v-.03Z"/><path class="cls-1" d="m342.04,349.74c-2.44.79-6.25,3.28-4.73,6.32,1.31,2.64,4.53,2.46,6.94,1.79,1.11-.31,2.17-.77,3.27-1.08,1.39-.39.8-2.56-.6-2.17-.8.22-1.56.54-2.35.8-.49.16-.98.31-1.48.42-.25.06-.51.11-.76.16-.07.01-.14.02-.2.03.02,0,.18-.02.05,0-.15.02-.3.03-.45.04-.23.01-.46.01-.69,0-.06,0-.44-.06-.17-.01-.12-.02-.24-.04-.36-.08-.1-.03-.2-.06-.3-.1-.16-.05.16.08.02,0-.04-.02-.08-.04-.12-.06-.11-.06-.21-.12-.31-.19.19.12-.07-.06-.13-.12-.04-.04-.27-.32-.14-.14-.07-.1-.13-.2-.19-.3-.03-.05-.05-.09-.08-.14.08.17,0,.02,0-.02-.01-.06-.03-.13-.05-.19.03.16.01.08.01-.04,0-.05,0-.09,0-.14-.02.23-.01.07,0,.02.02-.06.04-.13.05-.19,0-.02.07-.16.02-.05-.04.09.1-.18.13-.23.04-.06.08-.12.12-.18.11-.16-.02.01.06-.07.22-.25.45-.47.7-.68.1-.08.09-.07.25-.19.15-.1.3-.2.46-.3.63-.38,1.01-.57,1.61-.76s.95-.78.79-1.38c-.16-.57-.8-.97-1.38-.79h0Z"/><path class="cls-1" d="m456.39,374.47c-.06-.01-.42-.2-.8-.32-.38-.13-.79-.17-.79-.17-.02,0-.05-.06-.07-.17-.04-.16-.06-.36-.03-.49.02-.09.04-.17.06-.18.1-.05.2-.09.31-.1.14-.02.27-.02.41-.02.11,0,.22.05.34,0,.18-.06.34.04.52-.01.18-.06.34,0,.51,0,.23,0,.45.05.67.1.07.01.16-.01.23,0,.09.03.16.1.25.13.11.04.24.06.36.1.18.06.34.15.51.23.05.02.12.02.16.05.06.04.1.11.15.15.09.06.18.11.27.17,0,0,.03,0,.05-.01.17-.04.25.03.33.1.16.13.3.24.45.36.06.04.52.58.79,1.2.3.61.46,1.24.48,1.28,0,.01,0,.02.01.03.02.03-.05.1.14.07.07,0,.03.03.03.05,0,.02-.05.05.07.03.06,0,.04.02.01.04-.14.11-.28.22-.07.23.06,0,0,.05.02.06.11.07,0,.2.2.25.07.02-.04.09-.07.14-.01.02-.04.04,0,.05.12.04.11.1.07.17-.06.09.03.16.05.24.02.07.05.14.06.22.01.1,0,.2.04.3.01.03.06.06.07.09.02.09.08.18.1.27,0,.05-.04.09-.05.14-.02.21-.05.42-.08.63,0,.08.03.17-.01.24-.07.13-.11.25-.09.39.02.1-.13.17-.2.25-.08.09-.15.19-.21.28-.05.08-.49-.06-.92-.21-.22-.08-.43-.16-.59-.21-.16-.06-.26-.1-.26-.11.07-.1-.2-1.18-.21-1.27.02-.14.04-.28.04-.43,0-.1-.05-.19-.06-.29-.02-.1.02-.21-.02-.3-.03-.07-.11-.14-.17-.2,0,0,0-.02,0-.04,0-.02.01-.03,0-.05-.01-.02-.03-.04-.05-.05,0,0-.01-.01-.02-.02,0,0-.06,0-.04,0,.12-.09.08-.13.04-.17,0,0,0-.03,0-.04-.11-.08-.29-.12-.21-.27.02-.03.02-.06-.07-.04-.05.01-.06,0-.04-.02.11-.12-.09-.09-.09-.15,0-.07-.09-.09-.07-.16.01-.08-.1-.09-.12-.15-.01-.07-.22-.28-.27-.34-.03-.05-.05-.11-.09-.16-.08-.12-.17-.22-.27-.33-.12-.12-.26-.23-.39-.35-.05-.04-.28-.4-.61-.69-.32-.3-.71-.54-.77-.54Z"/><path class="cls-1" d="m461.79,368.74c-.07-.01-.41-.34-.79-.59-.18-.14-.38-.25-.52-.34-.15-.08-.25-.14-.25-.14-.03,0-.02-.09,0-.22.03-.2.1-.44.17-.59.05-.1.11-.18.14-.18.12-.02.24-.02.35,0,.15.03.29.06.43.11.12.04.21.13.35.12.21-.02.34.14.55.13.21-.01.36.09.54.13.24.05.44.18.67.26.07.03.17.01.24.05.09.05.14.15.23.2.11.07.24.1.35.17.17.09.32.22.48.32.05.03.12.03.17.07.06.05.08.13.14.18.08.08.17.14.25.21,0,0,.04,0,.06,0,.18-.03.26.05.33.12.14.14.28.27.42.4.06.04.47.61.81,1.21.34.6.59,1.22.61,1.25,0,.01.01.02.02.03.03.03-.04.11.16.05.07-.02.04.02.04.04,0,.02-.05.06.08.02.06-.02.04,0,.02.03-.13.14-.27.28-.04.25.06,0,0,.05.03.06.12.05.03.2.25.22.08,0-.03.1-.05.15,0,.02-.03.05,0,.05.13.01.13.08.1.16-.05.11.05.16.09.23.04.07.08.14.11.21.04.1.04.2.1.29.02.03.08.05.09.08.03.09.12.16.15.24.02.04-.03.1-.02.15.02.22.03.43.04.65,0,.08.06.16.04.24-.04.14-.05.28.01.41.05.09-.07.21-.1.31-.04.12-.06.23-.09.34-.02.09-.47.12-.92.12-.45,0-.89-.01-.89-.03.05-.13-.6-1.27-.67-1.37-.05-.16-.05-.34-.1-.5-.04-.11-.11-.21-.16-.32-.04-.11-.03-.24-.1-.34-.05-.08-.16-.13-.24-.2-.01,0,0-.03,0-.04,0-.02,0-.04,0-.05-.02-.02-.04-.04-.07-.05,0,0-.01-.02-.03-.02-.01,0-.06.01-.05,0,.11-.12.07-.17.01-.21-.01,0,0-.03-.01-.04-.14-.08-.35-.11-.28-.31.01-.04.01-.07-.08-.04-.06.02-.07,0-.05-.02.1-.15-.11-.1-.13-.18-.01-.08-.11-.1-.1-.2,0-.1-.12-.1-.15-.18-.03-.08-.28-.34-.34-.43-.04-.06-.07-.13-.12-.19-.11-.14-.22-.28-.34-.4-.16-.15-.32-.3-.47-.44-.06-.04-.32-.49-.65-.87-.32-.39-.69-.75-.76-.76Z"/><path class="cls-1" d="m288.88,354.64c-.06-.14.07-.26.3-.35.07-.03.29-.02.33.01.07.07.13.14.19.21.02.05.25.72.38.92.11.21.2.41.27.62.13.42.29.83.49,1.22.04.09.07.18.09.28.06.34.22.64.43.9.04.04.06.1.14.11.11.04.68.72.73.82.1.28.25.54.4.8.02.04.07.05.05.13-.05.19.04.23.1.3.08.1.17.2.23.32.03.06.02.18.02.29,0,.1-.19.3-.23.31-.1.03-.14.16-.21.26-.02.03-.05.07-.07.1-.05.07-1-.15-1.06-.25-.04,0-.98-.89-1.07-1.01-.06-.05-.07-.14-.1-.22-.03-.02-.68-.84-.68-.89-.09-.2-.23-.37-.2-.62,0-.05-.02-.09-.04-.12-.17-.33-.25-.69-.34-1.05-.06-.2-.11-.36-.16-.53,0-.03,0-.07,0-.1,0-.04,0-.09,0-.13-.12-.42-.13-.86-.19-1.29-.02-.1.09-.59.08-.7-.01-.06.16-.28.14-.33Z"/><path class="cls-1" d="m283.87,365.82c-.15,0-.2-.18-.15-.46.01-.09.14-.32.19-.34.09-.04.18-.08.26-.1.03,0,.69.04.92.02.23-.02.43.01.65.04.43.07.88.09,1.31.15.1.01.19.04.28.09.31.16.65.22.99.23.06,0,.11.02.18-.03.11-.09,1.03,0,1.14.07.28.17.56.29.85.43.04.02.09,0,.12.08.06.19.16.17.25.2.13.04.25.08.37.16.06.04.11.15.16.24.05.08-.03.34-.05.37-.07.07-.04.21-.05.32,0,.04,0,.09-.02.12-.02.07-.82.41-.9.4-.02,0-1.08-.02-1.26-.02-.07,0-.13-.05-.19-.09-.03-.01-.92-.06-.95-.07-.18-.06-.37-.04-.52-.22-.03-.04-.07-.04-.1-.04-.31-.05-.61-.18-.91-.29-.15-.05-.31-.09-.47-.14-.03,0-.05-.04-.08-.05-.03-.02-.06-.05-.1-.06-.38-.1-.73-.29-1.12-.38-.09-.03-.45-.31-.56-.35-.06-.02-.17-.27-.23-.27Z"/></svg>