<?xml version="1.0" encoding="UTF-8"?><svg id="Layer_1" xmlns="http://www.w3.org/2000/svg" width="520" height="520" viewBox="0 0 520 520"><defs><style>.cls-1{opacity:.65;}.cls-1,.cls-2,.cls-3,.cls-4{fill:#231f20;stroke-width:0px;}.cls-2{opacity:.2;}.cls-3{opacity:.45;}.cls-5{opacity:.35;}.cls-6{opacity:.55;}</style></defs><path class="cls-4" d="m190.23,385.08l4.05,6.53,2.07,3.22,1.06,1.58c.18.26.36.51.54.75.09.13.18.24.26.33.06.08.06.07.09.11.07,0,.26.13.42.18,1.56.51,3.56.5,5.44.52,6.77.01,13.68-.63,20.52-1.4,3.04-.34,6.09-.77,9.1-1.2,1.93-.29,3.87-.54,5.82-.77l2.92-.31c.97-.1,1.97-.08,2.95-.09,1.24.1,1.06-.01.05.27-.5.15-1.21.37-2.06.68-.85.27-1.87.5-2.97.72-3.91.78-7.85,1.43-11.8,2.02-3.96.6-7.94,1.11-11.96,1.46-2.41.21-4.86.45-7.34.64-2.48.19-5,.28-7.54.1-.75-.06-1.5-.14-2.26-.29-.39-.09-.76-.14-1.16-.29-.4-.11-.75-.26-1.24-.52-.16-.11-.31-.26-.45-.4l-.28-.36-.45-.63-.86-1.24-1.64-2.5-3.19-5.03c-1.75-2.84-3.5-5.68-5.25-8.51-2.61-4.32-5.22-8.66-7.81-12.95-1.99-3.34-4.03-6.58-5.97-9.91-.43-.73-.85-1.45-1.28-2.19-1.54-2.78-1.88-3.75-1.78-4.57.02-.19.02-.42.08-.55.19-.43,1.03.57,2.25,2.54,3.6,5.83,7.51,11.93,11.26,18.16,2.79,4.62,5.59,9.26,8.46,13.85l-.04.03Z"/><path class="cls-4" d="m152.76,186.18s4.81,5.85,12.61,5.83c5.1-.01,7.83-4.45,7.83-4.45,0,0-13.4.85-13.64.81s-6.8-2.2-6.8-2.2Z"/><path class="cls-4" d="m157.37,139.15c-1.81-1.34-4.16-1.84-6.37-1.55-2.37.31-4.48,1.41-6.28,2.96-.51.44-.45,1.32,0,1.77.51.51,1.25.44,1.77,0,2.68-2.3,6.61-3.25,9.62-1.01.54.4,1.4.09,1.71-.45.37-.64.1-1.31-.45-1.71h0Z"/><path class="cls-4" d="m253.27,472.39c-.03.98-.22,2.04-.61,3.17-1.3,3.81-4.72,6.44-8.56,6.44-5.01,0-9.07-4.3-9.07-9.61,0-12.39,18.53-10.53,18.23,0Z"/><path class="cls-4" d="m341.55,464.92c-.03.98-.22,2.05-.6,3.18-1.29,3.81-4.7,6.44-8.52,6.44-4.98,0-9.02-4.31-9.02-9.62,0-12.41,18.43-10.55,18.14,0Z"/><path class="cls-2" d="m146.86,277.97c-.88-.22,52.01,105.87,60.68,108.66,15.8,5.08,34.48-.66,65.21-4.28,33.28-3.92,66.34-7.36,73.13-13.23l15.14-71.08c0-6.59-24.19-38.04-24.19-38.04l-72.56,8.16s1.01,4.27-1.19,4.11c-2.2-.16-3.33,4.82-7.85,4.92-4.52.09-10.92-2.64-10.92-2.64,0,0,1.76,3.45-.86,3.94s-11.79-5.4-11.79-5.4c0,0-1.09-1.76-4.29-1.65-3.2.11-63.48,4.26-63.48,4.26l-17.05,2.28Z"/><path class="cls-4" d="m204.07,274.93l-11.06.21-4.03.16c-4.74.13-9.48.2-14.22.4-2.1.08-4.21.23-6.29.37-2.67.23-5.36.38-8.06.27-.84-.07-.73-.03-.04-.23.69-.24,1.96-.67,3.49-.94.68-.11,1.36-.26,2.04-.31l2.05-.18,4.11-.31c2.74-.18,5.49-.32,8.25-.4,3.31-.1,6.74-.35,10.12-.48l11.15-.37c2.29-.07,4.57-.13,6.86-.2,3.46-.1,6.94-.17,10.37-.33,2.67-.12,5.28-.36,7.92-.56.58-.05,1.15-.09,1.73-.14,1.09-.06,1.8-.07,2.31.01.51.1.8.27,1.05.51.11.11.26.22.32.33.11.18-.05.36-.44.54-.39.17-1,.37-1.79.44-4.71.55-9.68.77-14.68.94-3.71.13-7.44.21-11.16.3v-.05Z"/><path class="cls-4" d="m294.14,267.07l-7.69.93-2.79.42c-3.3.4-6.59.8-9.88,1.26-1.46.2-2.92.47-4.35.74-.92.18-1.85.33-2.78.47-.93.15-1.86.26-2.82.22-.6-.02-.56-.25-.13-.66.21-.21.52-.47.91-.76.39-.26.86-.46,1.38-.6.94-.22,1.87-.47,2.81-.66l2.85-.45c1.9-.28,3.82-.52,5.75-.7,2.31-.22,4.67-.7,7.02-1.04,2.58-.37,5.16-.71,7.75-1.04l4.77-.6c2.41-.31,4.83-.58,7.22-.92,1.86-.26,3.66-.65,5.5-.9.4-.06.8-.14,1.21-.19,1.52-.16,2.02-.07,2.4.4.09.11.19.21.25.32.18.37-.4.76-1.49,1.01-1.62.37-3.28.73-4.97,1.02-1.7.27-3.42.52-5.15.76-2.57.34-5.16.69-7.73,1.03v-.05Z"/><path class="cls-4" d="m248.73,275.08c.64.24,1.28.47,1.94.65.24.07.49.1.73.16.85.23,1.7.49,2.57.69.39.07.78.12,1.17.14.25.02.5,0,.75.05.25.07.5.17.75.26.16.07.14.11,0,.22-.13.1-.39.36-.69.52-.07.03-.13.07-.2.09h-.2s-.4.02-.4.02c-.27,0-.53,0-.8-.01-.53-.02-1.06-.1-1.59-.23-.62-.15-1.28-.22-1.92-.35-.7-.17-1.39-.36-2.07-.58-.42-.14-.84-.28-1.25-.41-.63-.21-1.25-.46-1.88-.67-.49-.15-.99-.27-1.48-.43-.11-.04-.22-.06-.32-.1-.39-.17-.46-.33-.38-.7.02-.09.03-.17.06-.25.09-.27.34-.42.65-.39.92.08,1.81.24,2.66.59.64.23,1.28.48,1.93.69v.04Z"/><path class="cls-4" d="m235.4,274.73c.55.57,1.13,1.11,1.74,1.62.22.19.48.32.71.5.81.61,1.62,1.26,2.55,1.71.4.23.84.33,1.26.5.55.16,1.11.31,1.69.43.18.04.16.08,0,.14-.16.06-.46.18-.83.24-1.3.13-2.59-.21-3.71-.8-.68-.35-1.4-.65-2.06-1.05-.72-.44-1.41-.94-2.07-1.45-.4-.33-.81-.64-1.19-1-.57-.53-1.15-1.06-1.72-1.58-.45-.4-.98-.7-1.44-1.09-.09-.09-.2-.17-.28-.28-.31-.39-.31-.61-.04-.97.06-.08.12-.17.18-.24.22-.25.57-.29.91-.14.25.11.51.22.75.34.21.15.42.3.63.47.41.33.8.68,1.2,1.04.58.53,1.17,1.07,1.76,1.6l-.03.04Z"/><path class="cls-4" d="m284.79,189.5l1.62-5.03c.2-.61.36-1.24.58-1.86l.16-.42c.07-.15.08-.23.23-.52.06-.12.13-.24.21-.34l.23-.21c.16-.14.31-.26.46-.34.61-.38,1.18-.54,1.75-.74,1.13-.37,2.28-.49,3.4-.69.99-.17,1.98-.34,2.96-.51,1.25-.24,2.51-.42,3.75-.71.39-.09.35-.06.05.13-.29.18-.83.56-1.52.86-1.23.51-2.47.95-3.72,1.33-1.23.33-2.46.66-3.71,1-.73.16-1.47.42-1.99.76-.16.08-.19.17-.3.24h0s0,.01,0,.01h0s0,0,0,0h0c.12.1-1.04-.87-.54-.45.15.14.3.27.46.4.11.09.09.07.09.07h0s0,.01,0,.01c0,0,0,.02,0,.02,0-.01-.05.15-.07.22l-.35,1.11-1.53,5.05-.92,3.12c-.45,1.58-.93,3.17-1.32,4.75-.3,1.23-.49,2.47-.77,3.7-.06.27-.1.54-.17.81-.27,1-.51,1.3-1.05,1.36-.12.01-.25.04-.37.04-.39-.03-.57-.52-.48-1.26.13-1.11.3-2.26.53-3.4.25-1.14.55-2.29.86-3.43.46-1.7.97-3.4,1.46-5.1h.05Z"/><path class="cls-1" d="m284.54,181.2l3.19-.38-20.14,78.2c1.15.04.56-7.07-2.27-11.14-.85-1.21,1.48-6.32,3.21-12.76,4.78-17.75,15.55-53.86,16.01-53.92Z"/><path class="cls-4" d="m282.3,182.64c.37-.08.74-.16,1.1-.23.14-.02.26-.08.4-.09.47-.05.97-.09,1.43-.14.22-.03.4-.07.61-.1.26-.05.52-.1.79-.07.09,0,.1.11.06.24-.04.13-.12.32-.25.4-.23.15-.46.3-.69.42-.24.11-.49.16-.75.21-.32.04-.59.23-.89.35-.32.14-.67.21-1,.33-.21.07-.41.13-.62.21-.31.12-.62.22-.9.4-.21.14-.39.34-.58.51-.04.04-.08.08-.13.1-.19.09-.3.02-.52-.29l-.15-.21c-.16-.24-.2-.49-.12-.67.23-.56.65-.84,1.12-1.03.34-.15.71-.25,1.07-.37l.02.03Z"/><path class="cls-1" d="m353.13,175.41s4.99,10.86,20.14,5.41l6.55,10.37-23.75,23.92-6.7-2.11-5.47-33.61,9.22-3.99Z"/><path class="cls-3" d="m452.69,160.87l4.44-5.93s-4.89-22.59-8.18-26.73c-3.29-4.15-6.78-8.31-7.45-6.38s2.96,14.42,2.96,14.42l4.5,18.7,3.73,5.93Z"/><path class="cls-4" d="m352.61,214.27l45.39-35.4s37.36-35.54,38.44-34.74c1.08.79,20.39,19.19,22.28,25.83,1.89,6.64.9,8.15-1.29,10.29-2.19,2.14-44.61,38.62-44.61,38.62l-24.94,18.14c-3.65-2.94-22.78-20.93-35.26-22.73Z"/><path class="cls-4" d="m263.1,266.58l24.62-21.02s24.82-21.44,35.57-25.64c10.74-4.19,19.02-4.5,23.33-3.11s23.54,12.51,29.43,16.95c5.89,4.44,26.75,21.36,26.75,21.36l32.41,29.87s-2.62,8.93-5.3,12.55c-2.68,3.62-18.14,20.2-24.69,22.5-6.55,2.3-8,1.96-8,1.96,0,0-25.28-27.72-27.65-30.61-2.37-2.89-27.6-31.97-27.6-31.97l-77.69,8.74-1.19-1.58Z"/><path class="cls-4" d="m370.52,201.63c-1.43,1.14-2.88,2.25-4.35,3.34-.53.4-1.03.85-1.56,1.24-1.91,1.37-3.82,2.74-5.73,4.11-.85.61-1.66,1.26-2.51,1.85-1.07.79-2.19,1.52-3.37,2.14-.37.19-.41.04-.25-.33.17-.36.51-.98,1.05-1.53.48-.48.96-.96,1.46-1.41.5-.46.98-.93,1.52-1.32,1.06-.82,2.15-1.63,3.26-2.4,1.34-.92,2.56-2.09,3.84-3.16l4.22-3.49c.86-.72,1.74-1.43,2.59-2.17,1.29-1.11,2.61-2.21,3.83-3.38.95-.91,1.78-1.91,2.65-2.89.19-.21.36-.44.56-.65.75-.77,1.11-.88,1.74-.55.14.08.3.14.43.23.43.31.41.92-.07,1.57-1.41,1.91-3.2,3.61-5.04,5.25-1.38,1.22-2.8,2.39-4.22,3.57l-.04-.04Z"/><path class="cls-4" d="m346.47,189.51c.22,1.57.46,3.14.74,4.71.1.57.27,1.13.37,1.7.37,2.02.58,4.08.94,6.11.15.9.37,1.8.59,2.68.1.57.23,1.15.32,1.72.1.58.16,1.16.08,1.78-.04.38-.18.36-.51.12-.17-.12-.39-.29-.65-.5-.23-.22-.42-.49-.56-.8l-.67-1.67c-.19-.56-.31-1.15-.45-1.72-.27-1.16-.49-2.33-.65-3.53-.2-1.43-.65-2.86-.91-4.31-.3-1.59-.56-3.19-.82-4.8l-.44-2.97c-.23-1.5-.38-3.01-.62-4.5-.17-1.16-.48-2.28-.69-3.43-.05-.25-.12-.5-.15-.76-.12-.95.05-1.27.68-1.51.14-.05.28-.12.43-.16.47-.11.94.24,1.14.91.58,1.98.85,4.06,1.18,6.17.24,1.57.46,3.15.74,4.72h-.06Z"/><path class="cls-4" d="m347.73,176.21c.86-.24,1.71-.48,2.57-.72.31-.09.61-.22.92-.3,1.11-.26,2.25-.44,3.36-.68.49-.1.98-.25,1.47-.33.63-.13,1.27-.21,1.92-.28.2-.02.18-.01.03.08-.15.08-.41.3-.74.49-.59.31-1.15.7-1.76.91-.61.22-1.23.42-1.86.58-.76.18-1.49.57-2.25.8-.83.27-1.67.55-2.5.82-.51.17-1.02.35-1.53.54-.76.3-1.55.55-2.29.89-.58.26-1.08.65-1.65.9-.12.06-.24.13-.37.18-.48.19-.67.16-.92-.11-.06-.06-.12-.12-.17-.18-.16-.22-.07-.52.22-.8.44-.39.88-.84,1.4-1.12.52-.3,1.06-.56,1.61-.8.81-.38,1.68-.63,2.53-.92l.02.04Z"/><path class="cls-4" d="m119.96,261.48c.31,1.85,1.05,3.58,2,5.19l1.27,1.61c1.55,1.88,3.64,3.29,5.81,4.57.5.26,1,.51,1.51.75.51.24,1.05.4,1.58.6,1.34.55,2.71,1.04,4.1,1.51.43.16.36.18-.03.18-.4,0-1.13,0-2-.04-1.55-.05-3.06-.42-4.5-.96-.72-.29-1.45-.56-2.16-.89-.69-.37-1.37-.78-2.01-1.23-.74-.6-1.51-1.17-2.26-1.78l-1.06-1c-.17-.17-.36-.33-.52-.51l-.45-.58c-1.4-1.63-2.28-3.65-2.89-5.66-.14-.64-.33-1.26-.43-1.9l-.23-1.92c-.04-.97-.05-1.95,0-2.91.11-.96.12-1.93.3-2.87.12-.73.16-1.47.3-2.19l.44-2.15c.07-.31.16-.62.25-.93.37-1.15.59-1.48,1.04-1.6.1-.03.21-.07.3-.08.31-.01.41.53.29,1.38-.23,1.26-.35,2.55-.53,3.84-.14,1.29-.37,2.58-.39,3.87-.13,1.92,0,3.82.33,5.67h-.05Z"/><path class="cls-4" d="m156.03,239.84c.4-.67.8-1.35,1.2-2.02.14-.25.25-.52.4-.76.55-.85,1.15-1.69,1.73-2.53.26-.37.48-.77.72-1.14.32-.48.59-1.01,1.11-1.35.15-.11.28.02.38.27.08.24.23.68.07.95-.47,1.03-1.04,2-1.73,2.94-.42.56-.65,1.25-1.01,1.87-.39.68-.77,1.37-1.16,2.05l-.71,1.27c-.34.65-.74,1.28-1.07,1.93-.26.51-.45,1.04-.69,1.56-.05.11-.09.23-.16.34-.24.41-.4.48-.77.37-.08-.03-.17-.04-.25-.08-.26-.11-.37-.4-.29-.73.25-.99.65-1.94,1.08-2.89.32-.71.74-1.37,1.1-2.07l.04.02Z"/><path class="cls-4" d="m216.11,263.42c-.44.64-.89,1.27-1.3,1.91-.16.23-.26.49-.4.72-.53.81-1.05,1.63-1.34,2.5-.08.19-.11.39-.13.58-.03.2-.04.39-.02.57l.03.35c.03.11.07.21.09.32.04.1.02.23.03.34,0,.06,0,.12,0,.19,0,.07-.11.2-.13.29-.11.27-.03.21-.29.19-.31.04-1.05.02-1.25-.4-.14-.37-.27-.75-.28-1.13-.07-.39,0-.74.06-1.09.12-.69.38-1.3.71-1.85.39-.65.62-1.37.98-2.02.39-.71.84-1.37,1.26-2.03l.79-1.22c.38-.62.79-1.23,1.08-1.88.24-.5.32-1.06.5-1.57.04-.11.05-.23.09-.34.15-.41.33-.49.83-.4.11.02.23.03.34.06.37.09.6.38.6.75-.01.56-.09,1.12-.28,1.63-.19.51-.42,1.01-.69,1.48-.38.71-.82,1.37-1.23,2.04l-.04-.02Z"/><path class="cls-4" d="m190.8,206.45c.5-.31.85-.82,1.17-1.35.09-.21.11-.44.21-.65.27-.78.31-1.64.16-2.5-.06-.39-.27-.72-.47-1.05-.15-.19-.31-.38-.46-.59-.16-.19-.35-.36-.51-.59-.1-.14,0-.29.23-.38.23-.09.64-.16,1.01,0,.29.18.58.37.85.59.22.26.43.54.63.83.16.31.29.63.42.95.09.33.11.68.13,1.02-.06.81.04,1.64-.2,2.44-.21.88-.71,1.66-1.26,2.34l-.59.57c-.2.19-.45.31-.67.46-.69.45-1.47.68-2.22.88-.29.11-.58.15-.88.23-.29.06-.6.18-.89.16-.13,0-.26.01-.39,0-.49-.05-.64-.19-.68-.62-.01-.1-.03-.2-.03-.29,0-.32.21-.59.52-.72.23-.09.45-.17.67-.24.22-.1.42-.18.62-.23.43-.07.78-.26,1.17-.37.25-.15.52-.24.76-.39.22-.17.48-.3.67-.52l.04.04Z"/><path class="cls-4" d="m269.77,101.26s.02-.09.03-.17c0-.05-.06-.03-.11-.04-.02,0-.04.01-.1.03-.05.01-.21.05-.31.06-.81.07-1.73-.04-2.37-.62-.28-.23-.52-.49-.7-.8-.25-.37-.31-.88-.15-1.28.05-.13.07-.1.12.01.04.11.18.29.3.44.39.58.97.81,1.51.98.36.14.79.02,1.19-.09.5-.14,1.26-.53,1.7-.65,0,.3.02.63.04.92.01.16.02.31.05.44.02.06.03.13.05.19.02.05.02.07.04.1.06.13.13.25.21.36.24.33.58.61,1.01.75.34.1.7.08,1.07.1.08,0,.16.03.23.05.29.12.37.28.38.61,0,.07.01.15.01.22,0,.22-.17.43-.44.56-.79.43-1.68.17-2.51-.41-.61-.41-1.1-1.16-1.29-1.76l.03-.02Z"/><path class="cls-4" d="m255.92,117.26c.65.55,1.31,1.1,1.98,1.62.24.19.52.34.76.54.86.68,1.72,1.39,2.62,2.02.41.28.81.55,1.21.82.53.33,1.06.66,1.55,1.07.15.13.07.23-.15.28-.22.05-.58.08-.93-.04-.61-.23-1.22-.47-1.8-.74-.57-.31-1.09-.69-1.61-1.09-.61-.49-1.34-.85-1.98-1.32-.71-.51-1.41-1.04-2.09-1.58l-1.26-1c-.64-.5-1.26-1.04-1.9-1.52-.5-.38-1.05-.67-1.58-1.01-.12-.07-.24-.13-.35-.22-.41-.31-.46-.5-.26-.9.05-.09.09-.19.14-.28.19-.29.53-.37.87-.21,1.02.49,1.91,1.19,2.81,1.91.66.54,1.33,1.08,1.99,1.62l-.02.03Z"/><path class="cls-4" d="m156.4,123.87s10.81-1.25,16.87-6.14c8.11-6.55,1.13-30.97-21.27-28.19,0,0-14.85,2.72-21.67,10.41-6.83,7.7-11.93,15.51-13.3,20.51-1.37,5-2.61,11.13-2.61,11.13,0,0-6.27.56-10.6,6.21-4.33,5.65-7.2,10.12-7.74,14.85s1.91,10.62,4,13.42c2.09,2.8,9.82,12.42,18.74,13.61,8.92,1.18,7.94-.31,7.94-.31,0,0-1.96-4.02.2-6.59,2.15-2.58,3.06-3.91,5.23-3.75s9.05,3.61,9.05,3.61c0,0,.04-2.74-.52-8.15s-3.79-10.22-4.91-11.83c-1.12-1.62-3.16-4.07-3.16-4.07,0,0,8.61-.75,10.49-1.45,1.88-.69,8.55-3.95,10.45-8.2,1.9-4.24,3.88-8.11,3.88-10.37s-1.06-4.71-1.06-4.71Z"/><path class="cls-4" d="m317.34,153.04c-.86-.98-1.87-1.77-3.05-2.21-.58-.25-1.21-.37-1.85-.47-.32-.02-.68-.06-.97-.05h-.41s-.41.09-.41.09c-.81.16-1.56.7-2.3,1.31-1.33,1.08-2.42,2.68-3.39,4.34-.95,1.69-1.73,3.51-2.37,5.39-.57,1.67-.96,3.41-1.25,5.14-.29,2.23-.67,4.45-.94,6.69-.09.69-.48.64-.95.03-.45-.6-1.02-1.79-1.05-3.17-.01-.61,0-1.22.01-1.84.02-.61.13-1.21.21-1.81.18-1.2.41-2.39.7-3.58.58-2.36,1.38-4.69,2.52-6.91.68-1.32,1.37-2.68,2.26-3.98.9-1.28,1.92-2.58,3.39-3.52.78-.52,1.7-.92,2.67-1.12.48-.12,1-.13,1.46-.15.45.03.9,0,1.35.09,1.79.21,3.56.89,5,1.97,1.79,1.3,3.07,3.08,4.04,4.9,1.48,2.79,2.19,5.82,2.73,8.8.41,2.32.8,4.6.92,6.96.03.52.07,1.03.06,1.55-.04,1.95-.46,2.55-1.42,2.81-.22.06-.44.15-.66.17-.71.06-1.22-.77-1.3-2.07-.26-3.87-.55-7.9-1.5-11.75-.7-2.83-1.79-5.59-3.56-7.54l.06-.06Z"/><path class="cls-4" d="m275.57,201.49c-1.35,3.85-2.69,7.71-4,11.59-.47,1.41-.86,2.85-1.34,4.26l-5.09,14.93c-.74,2.21-1.4,4.46-2.03,6.69-.85,2.85-1.66,5.72-2.98,8.43-.62.79-.52.69-.73-.19-.12-.44-.17-1.04-.22-1.75-.02-.36-.03-.74-.02-1.14,0-.2.02-.4.02-.62.04-.2.08-.41.12-.62.33-1.49.64-2.98,1.02-4.45.42-1.46.86-2.92,1.31-4.37.9-2.91,1.86-5.8,2.92-8.69,1.27-3.44,2.27-7.13,3.42-10.69,1.27-3.92,2.59-7.83,3.91-11.74.82-2.4,1.64-4.81,2.46-7.21,1.27-3.63,2.54-7.29,3.8-10.89.18-.51.37-1.01.55-1.52l.27-.75.13-.38c.06-.11.09-.36.21-.49.2-.68.85-1.06,1.48-1.33.52-.22.96-.36,1.44-.52.93-.29,1.85-.54,2.77-.76.64-.16,1.25-.33,1.89-.46,2.38-.48,3.17-.41,3.81.25.15.15.33.29.43.45.33.54-.56,1.18-2.26,1.67-1.41.39-2.83.78-4.27,1.18-.7.2-1.41.41-2.07.63l-.47.17-.2.08s-.02.01-.02.02c0,0-.01.02-.02.03h0s0,.03,0,.03h0s0,0,0,0h0s0,0,0,0h0s0,0,0,0c-.03-.02.07.04-.07-.04.13.07.04.02.07.04h0s0,0,0,0h0s0,0,0,0h0s0,0,0,0h0s-.04.14-.04.14l-.13.42-.27.84c-.19.56-.37,1.12-.54,1.7-.39,1.13-.79,2.27-1.18,3.4-1.33,3.88-2.67,7.78-4,11.67l-.07-.02Z"/><path class="cls-4" d="m310.56,201.57c.83.51,2.09.79,3.37,1,1.3.22,2.65.3,4.2.62.28.07.62.17.9.26.26.1.53.19.79.3.52.22,1.03.45,1.52.77.85.55,1.69,1.19,2.36,2.15.32.5.6,1.07.68,1.75.06.66-.05,1.39-.37,1.92-.59,1.09-1.49,1.7-2.35,2.17-.87.45-1.75.78-2.64,1.04-1.57.46-3.15.81-4.73,1.04-1.02.1-2.05.18-3.08.17-1.03-.04-2.07-.16-3.07-.44-.62-.2-.5-.26.05-.33.55-.05,1.51-.28,2.62-.48.98-.15,1.96-.34,2.92-.6.96-.23,1.93-.41,2.87-.69.94-.26,1.87-.56,2.74-.93.87-.37,1.68-.79,2.22-1.3.34-.31.55-.66.56-.93.03-.27-.08-.58-.37-.93-.58-.7-1.6-1.29-2.63-1.72-.29-.12-.58-.23-.88-.33-.3-.09-.51-.15-.84-.21-.6-.13-1.29-.21-1.97-.31-1.38-.19-2.82-.37-4.28-.79-.9-.28-1.81-.66-2.64-1.3-.84-.62-1.48-1.65-1.65-2.68-.12-.37-.1-.81-.08-1.24.03-.41.17-.8.29-1.18.32-.71.73-1.34,1.22-1.87.97-1.06,2.12-1.85,3.31-2.51,1.86-1,3.81-1.77,5.93-2.07.46-.09.93-.1,1.41-.13,1.79.02,2.34.4,2.54,1.1.05.16.11.33.12.48,0,.54-.7.77-1.77.82-1.6.09-3.21.44-4.75,1.01-1.54.56-3.03,1.38-4.17,2.4-.82.73-1.48,1.68-1.43,2.2,0,.07-.01.12-.01.2.03.09.05.18.07.27,0,.21.14.31.18.48.21.25.44.54.88.76l-.03.06Z"/><path class="cls-4" d="m349.27,158.99c.27-.49.63-.99,1.08-1.46.45-.47,1.06-.92,1.81-1.18,1.49-.46,2.84-.06,3.87.51.75.43,1.39.89,1.91,1.45,1.77,2,2.75,4.23,3.54,6.49.35,1,.71,1.99,1.01,2.99.2.64.39,1.29.52,1.95.11.67.12,1.36.09,2.04-.03.43-.16.37-.4.06-.23-.32-.69-.87-1.04-1.52-.91-2.43-2.09-4.73-3.24-7-.64-1.39-1.73-2.61-2.8-3.45-.59-.47-1.21-.77-1.77-.83-.28-.02-.58.01-.76.07-.21.07-.45.23-.68.48-.57.62-1.02,1.58-1.34,2.57-.48,1.52-.79,3.16-.85,4.8-.05,1.27.14,2.53.33,3.76.04.27.12.53.15.8.16.99-.08,1.32-.75,1.67-.16.08-.31.17-.47.23-.52.21-1.1-.16-1.43-.96-.79-2.4-.84-4.98-.55-7.58.25-1.94.65-3.88,1.7-5.9l.07.03Z"/><path class="cls-4" d="m368.39,176.33l-.92-1.71-.46-.86-.23-.43s-.01-.06-.02-.09c-.03-.05-.05-.13-.12-.13-.03,0-.06-.01-.1-.02h-.05s-.02,0-.11,0c-.62.07-1.29.18-1.96.32-.94.19-1.86.49-2.81.71-3.35.79-6.73,1.65-10.1,2.51-1.49.39-2.98.85-4.44,1.3-.94.29-1.89.56-2.85.8-.48.12-.96.23-1.45.33-.48.1-1,.1-1.5.14-.63.02-.6-.21-.19-.68.21-.24.5-.55.87-.89.37-.32.83-.59,1.36-.79.93-.35,1.86-.73,2.8-1.06l2.86-.91c1.92-.59,3.85-1.14,5.83-1.61,2.37-.53,4.75-1.4,7.17-2.03.99-.26,1.99-.5,3.03-.69.54-.09.96-.19,1.88-.24l.59.02c.18.05.38.05.55.15.08.04.18.07.24.15.05.02.05.1.13.06l.09.11c.12.15.24.29.35.45l.41.69.26.46.52.91,2.52,4.34c1.28,2.2,2.58,4.41,3.85,6.59,1.01,1.69,2.13,3.29,3.13,5.01.22.38.46.74.66,1.13.69,1.48.63,2.08-.01,2.71-.15.14-.28.31-.44.42-.52.37-1.28-.03-1.94-.97-1.9-2.83-3.58-5.92-5.4-9.06-1.34-2.36-2.69-4.72-4.04-7.08l.06-.04Z"/><path class="cls-4" d="m458.28,154.95c.81-.52,1.65-.99,2.47-1.49.3-.18.55-.42.86-.6,1.07-.63,2.14-1.25,3.16-1.93.46-.3.88-.64,1.3-.98.53-.45,1.02-.94,1.74-1.15.22-.07.33.11.37.44.02.31.05.88-.2,1.2-1,1.01-2.04,1.97-3.25,2.73-.73.45-1.32,1.12-1.99,1.68-.74.61-1.49,1.21-2.26,1.78l-1.42,1.05c-.71.55-1.45,1.06-2.09,1.67-.5.47-.89,1.07-1.31,1.62-.09.12-.17.26-.27.37-.39.41-.66.37-1.28-.2-.14-.13-.29-.25-.42-.39-.45-.46-.61-1.02-.41-1.42.61-1.18,1.59-2,2.61-2.79.76-.58,1.57-1.11,2.36-1.66l.04.05Z"/><path class="cls-4" d="m439.93,128.41c-.17-.61-.34-1.22-.5-1.85l-.27-1.18c-.12-.57-.22-1.13-.27-1.68-.08-1.1.07-2.04.54-2.7.22-.33.6-.67,1.01-.83.41-.1.84-.17,1.27-.19l.86.15c.29.07.58.21.87.31.58.16,1.13.6,1.7.91.26.16.56.43.71.55.16.14.34.28.48.43.29.3.6.58.87.89,1.06,1.18,2.03,2.37,2.81,3.66,2.73,4.56,4.53,9.43,5.93,14.39.61,2.21,1.12,4.45,1.5,6.7.23,1.44.45,2.9.49,4.38.04,1.47,0,3-.65,4.4-.42.86-.38.71-.59-.08-.08-.39-.37-.96-.52-1.58-.23-.64-.38-1.35-.44-2.13-.25-2.78-.89-5.55-1.65-8.29-.4-1.37-.79-2.74-1.19-4.11-.43-1.37-.87-2.74-1.35-4.09-1.16-3.25-2.96-6.41-4.99-9.16-.66-.9-1.38-1.76-2.16-2.48-.19-.19-.39-.35-.59-.51-.1-.1-.18-.15-.28-.22-.18-.14-.4-.25-.63-.33-.16-.05-.34-.12-.5-.06-.15.08-.17.27-.19.42-.02.32.03.67.1,1.02.43,2.22,1.16,4.64,1.87,6.95,1.09,3.54,2.17,7.12,3.18,10.68.78,2.78,1.64,5.49,2.09,8.42.09.64.19,1.28.22,1.96.05,1.25-.1,2.12-.37,2.69-.26.57-.61.85-1.05.98-.21.06-.42.14-.6.14-.62-.06-.68-.95-.81-2.44-.1-2.26-.65-4.7-1.27-7.16-.63-2.47-1.38-4.98-2.16-7.5-1.16-3.76-2.4-7.52-3.56-11.43l.07-.03Z"/><path class="cls-4" d="m407.1,226.94c1.79-.11,3.58-.24,5.37-.41.65-.06,1.3-.17,1.95-.22,2.31-.14,4.63-.3,6.94-.53,1.02-.1,2.05-.26,3.05-.42l.97-.16.99-.08c.65-.07,1.32-.09,1.98-.09.41,0,.39.23.08.54-.31.3-.88.74-1.61.96-1.27.5-2.59.68-3.9.95-1.31.25-2.64.45-3.98.58-1.61.15-3.24.59-4.87.87-1.79.3-3.6.49-5.41.71l-3.34.36c-1.69.19-3.39.31-5.07.53-1.31.16-2.57.49-3.88.7-.29.05-.57.13-.86.15-1.09.08-1.44-.13-1.68-.98-.05-.2-.12-.39-.15-.59-.1-.67.33-1.22,1.07-1.43,2.22-.61,4.56-.88,6.96-1.07,1.79-.15,3.58-.3,5.37-.44v.07Z"/><path class="cls-4" d="m312.64,264.93l-12.36.94c-1.5.12-3,.33-4.5.45l-15.91,1.22c-2.35.19-4.71.46-7.04.7-1.5.15-3,.3-4.5.45-.75.06-1.5.11-2.26.15-.37.04-.76,0-1.14-.05-.38-.06-.76-.04-1.15-.15-.49-.17-.7-.25-.69-.29,0-.05.24-.09.61-.36.37-.27.91-.55,1.56-.96.65-.33,1.43-.52,2.29-.65,6.07-.9,12.17-1.45,18.35-1.84,3.7-.22,7.51-.8,11.28-1.19,4.14-.43,8.29-.84,12.44-1.19,2.56-.22,5.11-.44,7.67-.66,3.87-.34,7.77-.6,11.61-.96,2.99-.28,5.9-.72,8.86-1.06.65-.08,1.28-.18,1.94-.23,2.44-.21,3.23,0,3.79.85.13.19.29.38.37.57.26.63-.7,1.29-2.46,1.58-5.23.85-10.76,1.3-16.33,1.76-4.14.34-8.29.67-12.44,1.01v-.08Z"/><path class="cls-4" d="m245.87,278.83c-.43.45-1.01.75-1.63.93-.65.13-1.37.14-2.08-.04-.17-.03-.36-.07-.52-.13l-.37-.14c-.22-.09-.42-.19-.64-.28-.4-.2-.79-.42-1.16-.64-.53-.33-1.08-.61-1.56-.98-1.69-1.31-3.19-2.72-4.76-4.02-.7-.57-1.43-1.11-2.16-1.59-.46-.33-.98-.55-1.41-.9-.45-.32-.9-.64-1.4-.89-.3-.16-.27-.29.09-.46.35-.16,1.09-.36,1.84-.22,2.58.7,4.38,2.39,6.14,3.99,1.04.98,2.3,1.76,3.46,2.53.64.43,1.28.83,1.93,1.14.16.07.32.15.48.21.16.06.19.08.29.11.16.05.35.08.54.07.23-.01.48-.11.66-.29.11-.08.07-.23.02-.33-.05-.11-.12-.21-.19-.31-.11-.15-.24-.3-.37-.45-.2-.23-.49-.52-.75-.78-.52-.53-1.06-1.05-1.62-1.56-.86-.8-1.79-1.5-2.65-2.4-.19-.2-.39-.39-.56-.62-.56-.91-.51-1.42,0-1.82.11-.09.22-.19.34-.25.42-.19.86,0,1.31.36,1.32,1.17,2.81,2.6,4.37,4.1l.87.87.5.52c.27.29.54.59.77.89.48.6.82,1.22.87,1.78.1.55-.21,1.18-.62,1.63l-.05-.03Z"/><path class="cls-4" d="m258.56,275.35l-.56-.09c-.09-.03-.19,0-.27-.07l-.16-.05-.63-.21c-.42-.13-.82-.29-1.22-.45-.8-.31-1.56-.67-2.32-1.02-.54-.27-1.12-.48-1.64-.78-1.86-1.03-3.65-2.1-5.45-3.16-.8-.46-1.63-.86-2.46-1.25l-1.6-.7c-.53-.26-1.06-.5-1.59-.75-.33-.16-.27-.22.07-.26.33-.02.97-.12,1.66,0,2.42.54,4.73,1.38,6.88,2.51,1.26.72,2.68,1.23,4.02,1.8,1.47.63,2.93,1.26,4.42,1.69l.62.18.36.09c.25.07.52.09.79.13h.65c.11,0,.23-.08.21-.19,0-.1-.05-.19-.09-.27-.2-.34-.51-.66-.83-.95-.13-.12-.25-.2-.4-.32l-.68-.52-1.4-1.01c-.21-.15-.42-.28-.62-.44-.72-.62-.8-1-.63-1.52.04-.12.07-.25.12-.36.17-.35.69-.37,1.38-.1.98.45,1.87,1.06,2.78,1.71l.67.51c.42.31.84.69,1.25,1.06.81.75,1.53,1.6,1.73,2.29.16.52.15.91,0,1.38-.09.24-.26.55-.39.68l-.63.37-.31.18c-.1.06-.19.13-.4.12l-1.06.04c-.67.08-1.49-.09-2.26-.19v-.07Z"/><path class="cls-4" d="m177.05,207.51c2.39.52,4.84.82,7.28.78.89-.05,1.77-.14,2.64-.27,1.55-.15,3.05-.5,4.41-1.06,1.37-.53,2.59-1.38,2.73-2.45.2-.96-.52-2.24-1.4-3.22-.59-.65-1.27-1.22-1.96-1.81-.69-.62-1.38-1.23-2.09-1.85-.43-.43-.4-.34.13-.27.52.08,1.59.05,2.68.49.48.19.95.42,1.37.72.44.28.86.59,1.28.93.82.7,1.62,1.5,2.22,2.64.13.3.27.6.38.93.09.35.15.71.17,1.07-.02.38-.04.76-.1,1.13-.11.36-.24.72-.38,1.07-.7,1.33-1.76,2.03-2.74,2.6-2.4,1.18-4.87,1.84-7.35,2.11-2.72.25-5.42.07-8.07-.35-.41-.07-.81-.12-1.22-.2l-1.2-.27-1.2-.27-1.18-.35c-1.2-.31-2.36-.79-3.52-1.22l-1.7-.76c-.57-.23-1.13-.51-1.67-.81-.43-.22-.86-.43-1.29-.63-.43-.21-.83-.46-1.26-.69l-1.25-.72-1.17-.84c-.34-.25-.7-.47-1.03-.75-1.1-1.16-1.31-1.67-1.06-2.35.06-.15.09-.32.17-.45.26-.43,1.01-.29,1.93.27.67.43,1.36.83,2.05,1.24.35.2.66.43,1.02.62l1.07.56c.67.43,1.4.78,2.13,1.15.71.39,1.46.71,2.21,1.03,2.24.93,4.57,1.75,7,2.19v.07Z"/><path class="cls-4" d="m116.57,252.93c1.08-5.59,3.06-10.83,5.45-15.83.89-1.81,1.75-3.64,2.75-5.39,3.54-6.15,7.7-11.92,12.43-17.17,2.11-2.32,4.33-4.56,6.7-6.59,3.03-2.57,6.38-5.02,10.26-6.15,1.18-.38,1.03-.28.11.23-.24.14-.51.3-.81.48-.3.23-.63.47-.98.73-.73.5-1.51,1.21-2.39,1.88-3.08,2.48-5.89,5.26-8.46,8.28-1.32,1.47-2.6,2.99-3.87,4.52-.65.76-1.29,1.52-1.91,2.3-.64.77-1.26,1.55-1.87,2.35-2.96,3.79-5.44,8.16-7.68,12.52-1.24,2.4-2.38,4.84-3.39,7.33-1.02,2.49-1.91,5.03-2.57,7.62-.82,3.18-1.36,6.45-1.28,9.69.08,2.44.52,4.87,1.55,7.02.95,2.14,2.83,3.74,4.92,4.92,1.62.95,3.42,1.58,5.23,2.07,1.81.5,3.67.82,5.55,1.02.82.11,1.64.11,2.46.18,3.07.1,4.01.3,4.76.88.17.14.4.27.52.41.42.43-.88,1.22-3.36,1.49-3.65.24-7.38-.14-11.09-1.16-1.85-.53-3.71-1.19-5.48-2.18-1.76-.99-3.49-2.23-4.87-3.98-.26-.31-.47-.68-.71-1.03-.22-.35-.48-.7-.62-1.06-.3-.72-.71-1.42-.9-2.17-.5-1.47-.8-2.98-.95-4.47-.3-2.99-.07-5.93.41-8.76h.08Z"/><path class="cls-4" d="m154.07,243.37c.66-.99,1.3-2.04,1.97-3.09.24-.38.42-.8.68-1.18.91-1.33,1.88-2.62,2.94-3.83.45-.55.87-1.11,1.29-1.68.51-.74,1.04-1.47,1.86-1.95.27-.14.45.07.59.49.16.44.27,1.07.03,1.52-.46.76-.95,1.49-1.47,2.2-.49.72-1.03,1.42-1.61,2.1-.72.8-1.16,1.83-1.7,2.77l-1.79,3.19c-.38.66-.76,1.33-1.16,1.99-.59,1.02-1.31,1.96-1.96,2.94-.5.76-.95,1.55-1.48,2.3-.11.17-.22.33-.35.48-.5.55-.81.59-1.41.2-.14-.09-.28-.17-.41-.27-.43-.34-.55-.87-.33-1.36.66-1.45,1.46-2.71,2.35-3.94.63-.94,1.3-1.88,1.9-2.91l.06.03Z"/><path class="cls-4" d="m194.24,250.99c-3.47.51-6.96,1.21-10.45,1.86-1.28.24-2.54.55-3.82.78-4.53.78-9.09,1.47-13.69,1.83-2.04.12-4.09.33-6.13.31-1.31-.01-2.62.03-3.92-.03-.65-.06-1.3-.16-1.95-.25-.65-.08-1.29-.19-1.93-.38-.79-.22-.68-.24.03-.44.71-.25,1.98-.61,3.45-.68,2.6-.08,5.18-.21,7.77-.47l1.95-.11,1.95-.2c1.3-.13,2.61-.22,3.92-.4,1.57-.18,3.16-.43,4.75-.78,1.59-.32,3.19-.67,4.77-1.02,3.49-.73,7.01-1.48,10.54-2.14,2.19-.38,4.37-.77,6.58-1.05,1.66-.27,3.36-.37,5.03-.53,1.68-.15,3.38-.13,5.05-.23,1.31.04,2.6.03,3.9.01,1.3.03,2.59.16,3.9.25l.86.06c.28.05.56.1.85.15,2.11.43,2.74.77,2.98,1.6.05.19.14.39.15.57.03.61-.92.89-2.4.71-4.39-.53-8.97-.88-13.65-.57-.87,0-1.74.14-2.61.19-.87.09-1.74.12-2.62.25-1.75.24-3.5.43-5.24.76l-.02-.06Z"/><path class="cls-4" d="m216.29,260.38c-.74.85-1.46,1.7-2.08,2.6-.21.33-.39.69-.58,1.02-.77,1.16-1.33,2.41-1.71,3.75-.1.3-.14.6-.16.91-.01.31-.07.62-.06.92.01.4.03.8.04,1.19.02.2-.08.42-.08.63-.01.21-.02.41-.04.64-.02.27-.07.25-.25.07-.2-.18-.48-.53-.97-.97-.69-1.71-.8-3.76-.09-5.52.42-1.04.72-2.15,1.21-3.15.55-1.08,1.19-2.1,1.85-3.07.4-.61.84-1.18,1.25-1.76.63-.88,1.3-1.72,1.83-2.64.42-.71.64-1.51.92-2.27.06-.17.09-.35.17-.51.29-.58.59-.66,1.38-.39.18.06.37.11.54.18.59.24.91.73.85,1.28-.19,1.64-1.06,3.01-1.91,4.33-.65.97-1.36,1.88-2.03,2.79l-.06-.04Z"/><path class="cls-4" d="m259.3,266.36c-2.91-2.07-6.05-3.96-9.24-5.71-1.17-.64-2.38-1.18-3.55-1.77-.51-.25-1.04-.52-1.53-.72l-.65-.22-.78-.17c-1.08-.19-2.22-.31-3.38-.39-2.31-.15-4.66-.18-7.01-.17-2.09.02-4.18.17-6.25.36-1.33.11-2.65.25-3.98.39l-1.99.19c-.33.04-.67.03-1,.01-.34-.02-.67,0-1.01-.04-.88-.2-.76-.16-.13-.68.31-.27.77-.6,1.34-.98.57-.33,1.27-.57,2.04-.71,1.37-.26,2.73-.47,4.11-.66,1.37-.18,2.75-.28,4.14-.37,2.77-.16,5.55-.25,8.36,0,1.69.15,3.39.22,5.19.49.47.1.89.13,1.4.3.24.08.51.15.73.23l.61.26c.8.35,1.58.73,2.34,1.11,3.34,1.72,6.58,3.59,9.74,5.63.97.63,1.92,1.29,2.87,1.97.47.34.94.7,1.4,1.07.23.19.46.37.69.57l.42.36.45.44c.74.74,1.32,1.54,1.5,2.34.12.39.09.84-.09,1.24-.2.4-.57.68-.94.87-1.11.53-2.56.33-3.94-.12-1.07-.36-1.99-.76-2.93-1.19-2.47-1.12-4.85-2.23-7.23-3.22-.52-.22-1.05-.39-1.56-.6-1.91-.76-2.4-1.08-2.72-1.88-.07-.18-.18-.37-.22-.54-.17-.56.9-.97,2.63-.65,2.51.52,4.79,1.56,7.03,2.57,1.12.51,2.2,1.08,3.27,1.59.54.25,1.07.5,1.59.72.26.11.52.22.78.31l.19.07s.02,0,.02,0h0s0,0,.01,0c.02,0,.05,0,.04-.04,0,0,0,0-.01-.02l-.33-.3c-.26-.22-.51-.44-.78-.65-.54-.43-1.09-.85-1.67-1.25l.03-.06Z"/><path class="cls-4" d="m249.16,276.34c-1.2-.58-2.35-1.2-3.5-1.82-.42-.22-.86-.39-1.28-.62-1.45-.84-2.89-1.68-4.29-2.57-.62-.4-1.28-.73-1.91-1.1-.41-.23-.82-.46-1.22-.7-.39-.27-.74-.61-1.09-.93-.22-.21-.14-.26.16-.3.29-.02.86-.12,1.42-.05,1.83.59,3.59,1.28,5.19,2.34.96.63,2.09,1.02,3.14,1.51,1.16.54,2.31,1.09,3.48,1.58.72.31,1.44.61,2.17.87,1.1.38,2.24.78,3.31.84.4.02.82-.05.99-.18.03-.04.03-.05.06-.08.05-.05.08-.1.08-.12-.09-.1.22.19.31.21.07.03.07.04.12.04-.03,0,.02,0-.05,0-.07,0-.2.04-.4.14-.05.02-.1.05-.15.08-.01.02-.01,0-.02,0-.01,0-.01,0-.03-.02-.26-.23-.42-.55-.09-1.24.07-.16.12-.33.2-.48.26-.5.78-.77,1.45-.43.25.13.51.3.79.62.26.3.63.91.52,1.74-.13.82-.59,1.3-.88,1.57-.18.15-.28.25-.49.38-.21.12-.49.26-.66.31-.82.27-1.42.25-1.96.19-.55-.05-1.04-.16-1.52-.27-1.4-.37-2.64-.91-3.87-1.44l.02-.06Z"/><path class="cls-4" d="m248.39,174.58c-3.51,5.58-6.99,11.16-10.27,16.84-1.19,2.08-2.29,4.2-3.42,6.3-2,3.7-3.89,7.45-5.46,11.31-.41.96-.73,1.94-1.1,2.91-.29.98-.65,1.96-.88,2.95-.53,1.97-.81,3.99-.8,6.03.01,1.8.2,3.62.66,5.38.45,1.76,1.05,3.49,1.74,5.19.89,2.18,2.02,4.28,3.14,6.4l1.66,3.2c.55,1.07.98,2.21,1.44,3.32.55,1.41.29,1.3-.6.34-.48-.53-1.09-1.22-1.8-2-.7-.85-1.43-1.89-2.15-3.08-1.26-2.11-2.48-4.27-3.65-6.51-.57-1.13-1.12-2.28-1.58-3.49-.43-1.22-.79-2.47-1.06-3.75-.54-2.56-.69-5.23-.41-7.84.27-2.63.97-5.15,1.86-7.52,1.06-2.85,2.27-5.66,3.57-8.44,1.3-2.78,2.66-5.53,4.13-8.19,3.21-5.86,6.67-11.56,10.16-17.22,2.15-3.48,4.31-6.96,6.46-10.43,3.24-5.27,6.54-10.55,9.54-15.89,2.34-4.15,4.4-8.35,6.36-12.61.44-.93.82-1.87,1.24-2.81,1.59-3.5,2.25-4.53,3.29-5.01.24-.11.5-.28.71-.31.68-.14.61,1.55-.34,4.29-2.97,8.07-7.41,15.91-11.95,23.63-3.4,5.73-6.96,11.38-10.44,17.04l-.07-.03Z"/><path class="cls-4" d="m262,64.94l-.06-.55-.06-.48s0-.1,0-.17c0-.12-.03-.31-.16-.43-.22-.13-.34.13-.45.33-.03.05-.04.11-.06.17l-.14.58-.34,1.37c-.84,3.27-1.41,6.72-1.89,10.15-.2,1.53-.36,3.07-.48,4.6-.08.98-.16,1.97-.24,2.95-.06.49-.09.99-.2,1.47-.12.49-.25.97-.4,1.46-.23.6-.39.48-.67-.07-.14-.28-.31-.66-.48-1.12-.08-.23-.18-.48-.23-.74-.04-.26-.05-.53-.04-.81.12-4,.3-8.04,1.04-12.07.44-2.41.6-4.96,1.18-7.47.04-.22.11-.44.17-.65l.09-.34.16-.5c.21-.67.47-1.3.78-1.84.32-.53.66-.97,1.09-1.24.4-.32.97-.4,1.52-.32,1.24.41,1.88,1.67,2.29,3.2l.21.95.1.67c.06.44.11.87.15,1.3.08.86.12,1.72.15,2.57.09,2.59-.03,5.16-.13,7.71-.07,1.98-.03,3.93-.16,5.92-.03.44-.03.87-.09,1.31-.24,1.64-.63,2.13-1.48,2.27-.19.03-.39.08-.58.08-.62-.03-.93-.75-.92-1.87.08-3.34.39-6.91.47-10.48.06-2.65.09-5.34-.21-7.87h.07Z"/><path class="cls-4" d="m269.26,69.97c.89-1.49,2.16-3.72,3.28-4.6.57-.46,1.04-.69,1.49-.85.47-.21.81-.19,1.36-.14.11.01.22.02.34.05.8.49.96.82,1.11,1.42.12.6.16,1.34-.11,2.43-.26,1.08-.72,2.3-1.24,3.4-.49,1.23-.71,1.64-1.02,2.32l-.89,1.89c-.53,1.12-1,2.26-1.45,3.38-.54,1.47-1.18,2.88-1.86,4.29-.22.44-.2.39-.29-.05-.11-.45-.25-1.31-.11-2.24.1-.83.33-1.61.56-2.38.23-.78.47-1.54.72-2.31.5-1.53,1.07-3.02,1.7-4.48.44-.73.55-1.2.67-1.95.01-.14.02-.35-.11-.42-.29-.07-.47.16-.69.35-.21.21-.43.47-.66.77l-.27.36-.48.71c-.36.55-.72,1.11-1.07,1.68-1.05,1.71-2.11,3.45-3.04,5.23-.72,1.39-1.28,2.82-1.94,4.24-.15.31-.27.63-.43.94-.67,1.11-1.09,1.36-1.78,1.24-.16-.03-.33-.04-.47-.09-.48-.18-.55-.82-.27-1.7.86-2.61,2.26-5.15,3.6-7.76,1.01-1.93,2.1-3.84,3.25-5.75l.06.03Z"/><path class="cls-4" d="m272.1,108.24c-.91.93-1.86,1.8-2.85,2.55-.36.29-.67.6-1.04.86-1.29.9-2.55,1.72-3.7,2.64-.24.21-.5.43-.71.67-.22.24-.41.5-.63.74-.26.32-.48.67-.74.99-.13.16-.23.35-.36.51-.11.18-.25.34-.46.47-.26.17-.28.13-.39-.17-.16-.32-.29-.88-.13-1.41.59-1.88,2-3.37,3.52-4.39.93-.6,1.71-1.39,2.53-2.07.89-.75,1.77-1.5,2.53-2.35.49-.5.9-1.07,1.34-1.62l.87-1.35c.25-.48.48-.96.69-1.45.27-.79.4-1.61.52-2.43.03-.18.03-.36.07-.54.15-.66.38-.82,1.07-.8.16,0,.31,0,.47.01.52.05.85.43.87.99.02.83-.02,1.68-.29,2.49-.12.41-.23.82-.39,1.23l-.55,1.19c-.58,1.17-1.35,2.26-2.18,3.28l-.05-.04Z"/><path class="cls-4" d="m269.97,96.03c1.26-1.26,2.39-2.79,3.43-4.35.38-.58.67-1.2,1.01-1.79.59-1.05,1.15-2.13,1.53-3.23.2-.55.34-1.1.4-1.62.06-.52,0-.97-.17-1.13-.49-.56-1.4-.32-2.29.16-1.12.66-2.09,1.68-3.1,2.65-.3.31-.35.23-.29-.18.06-.41.19-1.22.69-1.94.44-.64.94-1.25,1.57-1.81.63-.54,1.41-1.13,2.59-1.17.29,0,.6.03.89.1.29.1.61.19.83.37.25.17.48.31.73.63.26.29.35.59.47.88.3,1.14.11,1.99-.08,2.78-.54,1.87-1.16,3.63-2.01,5.29-.94,1.81-2.05,3.51-3.37,5.08-.41.48-.83.96-1.28,1.41-.48.47-.84.83-1.67,1.4-.91.59-1.91.95-2.83.58-.66-.25-1.13-.89-1.24-1.56-.11-.68.02-1.41.27-2.13.09-.22.18-.5.26-.68l.22-.52.46-1.01c.31-.66.66-1.3,1.03-1.92.16-.27.3-.55.48-.81.67-.96,1-1.1,1.71-.91.17.04.33.07.5.11.57.11.62.94.27,1.7-.54,1.16-1.1,2.28-1.66,3.33l-.39.78-.17.38c-.06.14-.02.06-.02.08.01,0,.02,0,.02,0,0,0,0,0,0,0,0,.01,0,.03.03.04h0s-.05.04.04-.03c.12-.09.24-.21.37-.31.24-.22.49-.46.72-.71l.05.04Z"/><path class="cls-4" d="m275.36,97.95c1.15-1.08,2.2-2.37,3.11-3.75.34-.5.59-1.05.9-1.57.54-.92,1.03-1.86,1.42-2.83.2-.48.36-.98.49-1.46.15-.49.23-.97.22-1.41,0-.2-.05-.35-.1-.51-.09-.16-.17-.31-.29-.41-.22-.21-.55-.29-.94-.23-.5.06-1.04.33-1.54.62-.52.28-1.06.57-1.54.94-.29.23-.34.15-.25-.22.11-.35.34-1.04.9-1.64.53-.47,1.15-.87,1.94-1.12.4-.12.87-.19,1.38-.1.52.07,1.04.38,1.4.75.18.18.3.39.44.59.11.22.23.48.29.7.12.46.14.87.14,1.27-.01.79-.19,1.48-.44,2.14-.58,1.56-1.16,3.11-1.94,4.55-.87,1.57-1.89,3.05-3.06,4.42-.73.84-1.52,1.64-2.45,2.34-.71.52-1.52,1.01-2.59,1.13-.52.07-1.13-.05-1.62-.33-.24-.14-.47-.3-.64-.5-.19-.17-.36-.4-.52-.65l-.1-.14c-.48-.73-.26-1.79-.1-2.38.18-.67.42-1.28.7-1.87.13-.27.25-.53.4-.78.6-.91,1.03-1.09,1.71-.77.16.07.32.14.45.23.44.35.54.87.28,1.51-.28.69-.56,1.37-.84,2.06-.12.32-.22.64-.26.86-.01.12.02.06.04.08h0s.07.06.09.1c.05.03.05.04.06.05-.01.05.52,0,1.09-.35.57-.33,1.17-.84,1.72-1.39l.05.04Z"/><path class="cls-4" d="m424.95,152.1l4.95-4.7,2.49-2.35.63-.59c.23-.21.35-.34.79-.72l1.11-.97,1.23-.61c.37.05.72.16,1.08.27.19.07.37.11.56.2l.53.41c.35.26.72.59,1.03.86l.57.52c.75.69,1.48,1.39,2.21,2.09,1.44,1.41,2.85,2.84,4.23,4.31,2.75,2.93,5.41,5.95,7.88,9.16,2.81,3.69,5.64,7.47,7.21,12.19.36,1.03.58,2.16.69,3.32l.02,1.12-.04.31c-.08.09-.06.21-.11.3-.06.2-.16.39-.29.57-.1.18-.26.37-.38.52l-.27.33-.53.6c-1.42,1.54-2.86,2.93-4.33,4.33-2.93,2.79-5.91,5.49-8.92,8.16-6.01,5.35-12.14,10.56-18.36,15.65-5.51,4.53-11.08,9.05-16.68,13.39-3.6,2.78-7.21,5.57-10.96,8.17-3.74,2.61-7.55,5.14-11.56,7.3-2.55,1.27-2.21,1.09-.33-.43.93-.77,2.26-1.85,3.82-3.19,1.59-1.31,3.48-2.79,5.55-4.37,14.77-11.1,28.86-23.08,42.97-35.27,4.21-3.65,8.42-7.5,12.48-11.49,1.01-1,2.02-2.01,2.99-3.03.48-.51.96-1.03,1.39-1.54l.31-.38.09-.11.05-.07c.09-.09.07-.22.06-.32-.17-2.38-1.44-4.95-2.82-7.29-2.64-4.46-5.99-8.63-9.51-12.6-1.77-1.99-3.6-3.92-5.47-5.81-.94-.94-1.89-1.87-2.86-2.78l-1.38-1.26-.33-.28c-.06-.04-.11-.09-.17-.14-.06-.04-.13-.11-.18-.04-.16.11-.29.24-.48.41l-.78.72-1.99,1.88c-5.6,5.34-11.22,10.68-16.88,15.97-8.57,8.01-17.34,15.9-26.15,23.53-6.85,5.93-13.58,11.75-20.75,17.2-1.59,1.18-3.12,2.39-4.78,3.52-6.13,4.22-8.45,5.07-10.26,5.04-.42,0-.93.04-1.2-.04-.94-.31,1.45-2.12,5.82-5.13,3.25-2.23,6.46-4.64,9.66-7.13,3.21-2.49,6.4-5.07,9.58-7.71,6.38-5.28,12.72-10.8,19.02-16.41,9.33-8.36,18.55-16.94,27.64-25.65l.07.05Z"/><path class="cls-4" d="m208.14,397.8c19.07-1.87,38.16-3.91,57.23-5.98,6.96-.8,13.91-1.6,20.85-2.4l36.77-4.07,18.38-2.07,9.17-1.1c1.52-.19,3.05-.39,4.55-.62.2-.03.36-.05.54-.09.16-.07.19-.29.27-.44.03-.1.19-.52.29-.87l.34-1.08c1.55-5.19,2.9-10.53,4.27-15.82,1.36-5.31,2.71-10.6,4.05-15.86,3.44-13.52,6.82-27.15,11.57-40.32,1.6-4.06,1.4-3.5.66.12-.35,1.81-.86,4.39-1.42,7.51-.6,3.11-1.35,6.73-2.26,10.64l-1.21,5.2-1.29,5.18-2.55,10.37c-1.7,6.92-3.36,13.85-5.12,20.77-.88,3.46-1.77,6.92-2.73,10.4l-.75,2.61-.4,1.32c-.07.22-.14.45-.23.68-.12.31-.24.8-.46,1.12-.22.34-.41.7-.66,1-.09.19-.3.24-.48.32l-.54.24c-.4.11-.82.18-1.23.27l-.73.11-2.69.37c-7.13.93-14.24,1.74-21.39,2.52-17.08,1.87-34.83,4.08-52.3,6.05-19.21,2.15-38.43,4.24-57.66,6.25l-17.77,1.78-4.46.4-2.41.18c-.55,0-1.1,0-1.59-.11-.14,0-.23-.1-.31-.2-.09-.09-.18-.19-.26-.3l-.48-.64c-.17-.2-.3-.47-.43-.69l-.28-.49-.55-.98-1.08-1.97-2.11-3.94c-8.51-15.9-16.76-32.01-24.87-47.96-6.29-12.4-12.53-24.52-18.52-36.91-1.32-2.73-2.62-5.39-3.91-8.17-4.73-10.3-5.9-13.74-5.99-16.34-.03-.59-.12-1.34-.07-1.71.19-1.25,2.53,2.76,6.05,10.23,10.57,22.11,22.24,45.2,34.14,68.29,4.44,8.57,8.91,17.14,13.46,25.67,1.13,2.14,2.29,4.25,3.47,6.36l1.77,3.15,1.68,2.92s.01.05.04.05h.04s.74-.05.74-.05l3.58-.31,7.21-.7.03.09Z"/><path class="cls-4" d="m246.25,483.29c-4.13-.08-8.06-2.14-10.45-5.4-.85-1.2-1.59-2.52-1.95-3.98-.64-2.58-.13-5.37,1.1-7.57,1.18-2.25,3.09-3.96,5.19-5.15,1.86-1.07,3.94-1.75,6.05-1.98,1.35-.16,2.76-.13,4.08.29,1.31.43,2.51,1.12,3.54,1.95.65.52.42.61-.29.48-.35-.07-.82-.19-1.39-.25-.56-.1-1.24-.04-1.9-.09-.61.04-1.17-.02-1.74-.01-.28-.01-.57,0-.85.04-.28.02-.57,0-.85.05-1.13.1-2.24.43-3.31.84-2.13.85-4.02,2.26-5.43,4.05-.46.52-.73,1.15-1.05,1.76l-.32.98c-.11.33-.11.67-.17,1.01-.14,1.35.12,2.73.66,3.99,1.18,2.8,3.91,5.03,7.02,5.69,1.9.44,3.95.31,5.79-.41,1.38-.57,2.67-1.4,3.75-2.48,1.04-1.11,1.86-2.42,2.37-3.84.76-2.23.54-4.63-.36-6.6-.25-.42-.49-.82-.72-1.24-1.02-1.46-1.33-1.94-1-2.89.07-.21.11-.45.21-.64.16-.32.47-.43.93-.31.43.14,1.09.43,1.67,1.08,1.79,1.87,2.89,4.63,2.86,7.43,0,2.79-.94,5.58-2.62,7.82-2.47,3.33-6.6,5.54-10.81,5.46v-.08Z"/><path class="cls-4" d="m334.11,476.38c-4.13-.08-8.06-2.14-10.45-5.4-.85-1.2-1.59-2.52-1.95-3.98-.64-2.58-.13-5.37,1.1-7.57,1.18-2.25,3.09-3.96,5.19-5.15,1.86-1.07,3.94-1.75,6.05-1.98,1.35-.16,2.76-.13,4.08.29,1.31.43,2.51,1.12,3.54,1.95.65.52.42.61-.29.48-.35-.07-.82-.19-1.39-.25-.56-.1-1.24-.04-1.9-.09-.61.04-1.17-.02-1.74-.01-.28-.01-.57,0-.85.04-.28.02-.57,0-.85.05-1.13.1-2.24.43-3.31.84-2.13.85-4.02,2.26-5.43,4.05-.46.52-.73,1.15-1.05,1.76l-.32.98c-.11.33-.11.67-.17,1.01-.14,1.35.12,2.73.66,3.99,1.18,2.8,3.91,5.03,7.02,5.69,1.9.44,3.95.31,5.79-.41,1.38-.57,2.67-1.4,3.75-2.48,1.04-1.11,1.86-2.42,2.37-3.84.76-2.23.54-4.63-.36-6.6-.25-.42-.49-.82-.72-1.24-1.02-1.46-1.33-1.94-1-2.89.07-.21.11-.45.21-.64.16-.32.47-.43.93-.31.43.14,1.09.43,1.67,1.08,1.79,1.87,2.89,4.63,2.86,7.43,0,2.79-.94,5.58-2.62,7.82-2.47,3.33-6.6,5.54-10.81,5.46v-.08Z"/><path class="cls-4" d="m288.42,181.58s0,.01,0,.02c0,0,0,.01-.01.02h0s0,.01-.01.08l-.12.65-.24,1.29c-.15.86-.34,1.72-.52,2.57-.36,1.71-.72,3.41-1.13,5.1-.78,3.39-1.61,6.76-2.5,10.11-.64,2.47-1.22,4.96-1.9,7.42l-7.28,25.95c-1.04,3.84-2.06,7.71-2.97,11.55-.61,2.46-1.14,4.95-1.72,7.42-.54,2.48-1.14,4.94-1.86,7.38-.71,1.47-.63,1.28-.88-.13-.15-.71-.19-1.69-.21-2.88-.03-1.19.1-2.54.39-3.99,1.03-5.11,2.18-10.19,3.45-15.23,1.29-5.04,2.71-10.06,4.19-15.07,1.77-6,3.29-12.33,4.86-18.52,1.72-6.81,3.46-13.61,4.84-20.47.16-.7.27-1.41.4-2.12l.44-2.44.26-.71c.14-.21.32-.38.56-.48.45-.22,1.06-.36,1.5-.46.73-.16,1.45-.3,2.16-.43,1.43-.26,2.86-.49,4.29-.71,6.5-1.01,13.04-1.82,19.49-2.73,5.01-.7,9.91-1.53,14.87-2.27,1.09-.16,2.16-.35,3.26-.49,4.09-.53,5.42-.46,6.39.27.22.17.5.33.64.5.46.6-1.15,1.29-4.12,1.8-8.81,1.52-18.14,2.77-27.49,4.08-3.47.5-6.95.99-10.42,1.49-1.73.26-3.47.53-5.18.82-.86.15-1.71.3-2.54.47l-.61.13-.13.03h0s-.02,0-.02,0c-.02,0-.05,0-.05.03l-.07-.04Z"/><path class="cls-4" d="m344.96,188.99c.37,1.98.78,3.96,1.23,5.94.16.72.4,1.42.56,2.15.55,2.56,1.11,5.13,1.66,7.69.25,1.14.53,2.28.82,3.4.19.72.35,1.45.49,2.19.03.18.07.37.09.55v.57c0,.38-.02.76-.04,1.14-.04.48-.28.44-.68.11-.2-.17-.45-.4-.72-.69-.13-.14-.27-.3-.39-.47-.07-.08-.11-.17-.19-.26l-.1-.29c-.42-1.42-.76-2.86-1.1-4.31-.36-1.45-.68-2.92-.96-4.41-.34-1.79-.99-3.56-1.49-5.36-.54-1.97-1.06-3.96-1.55-5.96-.31-1.23-.58-2.47-.86-3.7-.42-1.87-.72-3.79-1.1-5.66-.27-1.47-.68-2.88-.94-4.36-.06-.32-.16-.64-.18-.97-.08-1.23.11-1.64.83-1.92.17-.06.33-.14.5-.18.56-.12,1.06.35,1.31,1.18.7,2.47,1.11,5.05,1.68,7.69.4,1.97.8,3.94,1.21,5.92l-.07.02Z"/><path class="cls-4" d="m313.48,201.24l.63,4.15c.08.5.2,1,.27,1.5.24,1.78.48,3.56.72,5.34.1.79.23,1.58.37,2.35.18,1,.39,1.99.43,3.01.01.32-.22.32-.5.09-.28-.22-.63-.66-.77-1.22-.49-2.01-.98-4.01-1.19-6.08-.14-1.24-.48-2.49-.73-3.74l-.81-4.11-.53-2.53c-.28-1.27-.56-2.55-.89-3.8-.26-.97-.63-1.89-.96-2.83-.07-.21-.16-.4-.2-.62-.13-.81.04-1.13.33-1.39.07-.06.13-.13.18-.17.18-.13.55.11.97.62.31.38.5.8.68,1.23.18.43.35.86.5,1.31.29.89.6,1.79.78,2.72.3,1.38.54,2.77.79,4.16h-.04Z"/><path class="cls-4" d="m317.85,198.64c.12,1.42.26,2.85.49,4.27.08.52.22,1.02.31,1.54.28,1.83.65,3.66,1.03,5.49.17.81.41,1.61.65,2.39.32,1,.7,1.99.86,3.05.05.33-.27.39-.68.24-.4-.16-.92-.53-1.16-1.1-.81-2.02-1.59-4.07-1.92-6.27-.21-1.31-.64-2.61-.93-3.93-.3-1.45-.55-2.91-.76-4.39-.13-.9-.23-1.81-.32-2.73-.15-1.38-.19-2.77-.29-4.15-.06-1.07-.22-2.13-.23-3.21,0-.24-.05-.47-.02-.71.07-.89.26-1.16.87-1.26.14-.02.28-.06.42-.06.46-.01.8.38.89.99.26,1.81.37,3.66.47,5.56.09,1.41.2,2.84.36,4.26h-.06Z"/><path class="cls-4" d="m281.78,431.79c-.2-2.27-.33-4.56-.56-6.84-.08-.83-.26-1.65-.34-2.48-.26-2.95-.52-5.9-.77-8.85-.14-1.3-.31-2.61-.47-3.91-.1-.83-.23-1.66-.32-2.49-.03-.42-.02-.84-.02-1.27,0-.42.03-.85.12-1.28.12-.54.31-.49.76-.1.48.38,1.19,1.11,1.51,2.03.42,1.65.78,3.3,1.12,4.97.24,1.68.43,3.37.54,5.08.13,2.05.67,4.13,1,6.2.36,2.28.68,4.57.99,6.87l.49,4.26c.25,2.15.42,4.32.71,6.45.11.83.27,1.64.46,2.46.17.81.28,1.63.4,2.46.05.36.12.72.14,1.08.07.68-.12,1.14-.27,1.47-.18.33-.44.52-.81.69-.17.08-.33.17-.5.22-.54.16-1.09-.36-1.56-1.31-.35-.7-.49-1.43-.74-2.15-.2-.73-.46-1.45-.56-2.2-.26-1.49-.43-3-.62-4.52-.26-2.27-.52-4.54-.77-6.82l.09-.02Z"/><path class="cls-4" d="m417.88,321.8l1.93,2.6c.24.31.54.57.77.89.84,1.1,1.56,2.32,2.36,3.47.37.5.74.99,1.1,1.49.48.62.97,1.25,1.28,2.01.1.24-.13.37-.5.4-.36.03-.91-.02-1.27-.29-.64-.49-1.28-.97-1.88-1.5-.53-.58-1.03-1.2-1.47-1.88-.54-.8-1.28-1.47-1.91-2.23l-2.04-2.53-1.26-1.56c-.65-.78-1.26-1.59-1.96-2.32-.54-.57-1.21-1.01-1.81-1.52-.13-.11-.29-.2-.41-.33-.44-.48-.39-.79.14-1.38.12-.13.22-.27.34-.39.39-.38,1-.54,1.44-.32,1.28.69,2.22,1.74,3.17,2.82.7.81,1.36,1.67,2.04,2.5l-.05.05Z"/><path class="cls-4" d="m451.17,314.37c2.02-1.02,4-2.17,5.66-3.52.79-.6,1.69-1.66,1.62-1.61.05-.1.14-.24.09-.37-.05-.13-.19-.17-.32-.2-.05-.01-.1-.02-.15-.02h-.09s-.25,0-.25,0c-.38.01-.77.04-1.17.09-.79.09-1.61.22-2.43.34-5.84.85-11.75,2.3-17.63,3.68-2.61.64-5.24,1.29-7.9,1.78-.86.16-1.72.31-2.62.4-.9.1-1.92.04-2.81-.19-.91-.24-1.74-.64-2.51-1.09-.77-.44-1.48-.96-2.14-1.53-.81-.72-.68-.66.22-.4.92.2,2.62.66,4.34.91.76.13,1.46.19,2.16.09.73-.1,1.56-.29,2.37-.5,1.63-.42,3.29-.92,4.96-1.41,3.37-.83,6.78-1.68,10.24-2.41,2.07-.43,4.17-.96,6.29-1.46,2.13-.49,4.28-1,6.53-1.22.62-.06,1.25-.11,1.9-.12h.52c.24.02.48.01.72.05.48.05.95.14,1.37.29.82.29,1.56.89,1.71,1.77.05.21,0,.43,0,.64,0,.21-.02.43-.1.64l-.18.64c-.09.21-.22.41-.33.62-.12.2-.21.42-.35.6l-.4.5c-.21.28-.45.5-.68.73-.46.47-.95.87-1.45,1.26-.99.78-2.03,1.43-3.06,2.07-2.58,1.54-5.26,2.8-7.97,3.95-4.12,1.73-8.38,3.12-12.65,4.31-3.32.91-6.59,1.82-10.01,2.34-.75.13-1.49.23-2.26.31-1.43.06-2.38,0-3.05-.19-.66-.21-1.03-.49-1.31-.83-.13-.16-.3-.31-.37-.45-.12-.24.12-.44.62-.65.5-.19,1.27-.45,2.24-.57,5.76-.86,11.8-2.2,17.73-4.14,4.39-1.44,8.76-3.11,12.83-5.23l.04.06Z"/><path class="cls-4" d="m189.64,165.85c.05,1.24-.2,2.47-.34,3.7-.05.62-.27,1.22-.41,1.82l-.49,1.8-.71,1.72c-.25.56-.43,1.17-.78,1.68l-.93,1.6-.47.8-.56.74c-.56.71-1.05,1.47-1.7,2.1-.62.65-1.21,1.34-1.94,1.87-4.87,4.09-11.19,5.95-17.31,5.86l-2.05-.08-2.03-.26c-.68-.05-1.34-.25-2-.39-.66-.18-1.33-.29-1.96-.55-.81-.31-1.65-.56-2.44-.93-.78-.38-1.56-.78-2.3-1.22l-2.1-1.52c-.67-.54-1.27-1.17-1.9-1.74-.76-.74-.55-.74.29-.37.42.19,1,.46,1.68.8.67.35,1.54.61,2.37,1.03.71.42,1.56.58,2.29.93.74.36,1.54.55,2.31.79.39.11.77.26,1.17.34.4.08.8.14,1.2.23l1.18.27,1.21.15c3.22.42,6.53.24,9.74-.53,3.85-.91,7.55-3.09,10.27-6.02.37-.41.78-.78,1.11-1.22l.98-1.33c.63-.9,1.1-1.92,1.67-2.87.23-.5.41-1.03.62-1.54.18-.52.46-1.02.56-1.56l.4-1.62c.06-.27.15-.54.19-.81l.1-.83c.46-2.71.24-5.52-.21-8.26-.75-4.16-2.24-8.25-4.17-12.05-1.51-2.95-3.31-5.68-5.18-8.39-.42-.59-.83-1.17-1.25-1.77-1.49-2.26-1.8-3.1-1.54-3.99.06-.2.09-.44.18-.6.29-.52,1.31.13,2.65,1.65,1.93,2.31,3.72,4.84,5.41,7.51,1.63,2.71,3.1,5.59,4.33,8.6,1.8,4.48,2.99,9.38,2.93,14.4h-.07Z"/><path class="cls-4" d="m99.99,169c-2.41-3.27-4.31-7.03-5.01-11.14l-.34-2.24c-.04-.74-.09-1.49-.1-2.23.07-2.63.53-5.25,1.39-7.73.85-2.48,2.19-4.78,3.83-6.79,1.48-1.76,3.13-3.45,5.11-4.64,1.28-.74,2.61-1.44,4.06-1.78l1.09-.23c.37-.06.74-.07,1.11-.1.37-.01.73-.07,1.1-.04l1.09.09c.91.09.75.32.02.69-.36.2-.86.38-1.43.68-.56.34-1.21.58-1.86.95-.59.29-1.18.54-1.74.87-.28.16-.57.29-.84.47l-.79.55c-.55.33-1,.81-1.51,1.19-.52.37-.96.85-1.46,1.26-1.87,1.78-3.39,3.98-4.54,6.4-1.41,2.91-1.82,6.36-1.64,9.68.11,3.63,1.42,7.18,3.36,10.36,1.15,1.99,2.68,3.76,4.27,5.43,2.49,2.48,5.38,4.61,8.54,6.13,2.48,1.14,5.07,1.83,7.68,2.27.58.07,1.15.11,1.73.2,1.07.2,1.78.23,2.28.4.5.16.78.4,1.02.76.11.16.25.33.32.49.22.54-.72.95-2.48,1.06-2.59.04-5.29-.3-7.86-1.17-1.32-.35-2.55-.95-3.82-1.47-.61-.31-1.22-.63-1.82-.96l-.91-.49-.87-.56c-3.46-2.19-6.53-5.01-9.03-8.28l.05-.05Z"/><path class="cls-4" d="m169.68,92.18c-2.83-1.39-6.04-2.11-9.29-2.3-3.26-.18-6.58.17-9.82.92-1.17.34-2.36.6-3.49,1.06l-1.71.62-1.68.71c-7.91,3.33-14.98,8.92-19.95,16.08-2.22,3.16-4.01,6.65-5.41,10.23-.41,1.16-.79,2.35-1.18,3.52-.34,1.19-.59,2.41-.95,3.6-.3,1.21-.52,2.44-.8,3.66-.27,1.22-.38,2.47-.58,3.71-.24,1.55-.32,1.35-.45,0-.07-.74-.15-1.7-.25-2.8-.07-1.17-.03-2.54.05-4.03.22-2.64.84-5.22,1.55-7.78.35-1.28.85-2.52,1.28-3.79.2-.64.52-1.23.8-1.84l.87-1.81c.63-1.18,1.33-2.33,2.01-3.48.79-1.09,1.54-2.2,2.37-3.25,1.7-2.07,3.52-4.06,5.55-5.81,4.79-4.24,10.4-8.02,16.61-10.2,6.75-2.42,14.25-3.31,21.36-1.46,2.15.63,4.29,1.41,6.21,2.64,1,.54,1.87,1.28,2.76,1.98.46.33.82.79,1.23,1.17.38.42.83.78,1.15,1.25.5.7,1.08,1.34,1.5,2.08.41.75.89,1.47,1.22,2.25.31.79.66,1.57.94,2.38.21.84.5,1.67.57,2.54.31,1.71.16,3.47-.14,5.17-.24.83-.39,1.69-.76,2.47l-.5,1.19-.64,1.12c-1.36,2.29-3.2,4.22-5.25,5.82-2.09,1.56-4.39,2.77-6.79,3.74-1.06.41-2.12.75-3.21,1.1-4.13.97-5.52.74-6.49.05-.22-.17-.5-.32-.63-.5-.45-.62,1.15-1.3,3.94-2.01,4.12-1.12,8.22-2.66,11.59-5.17,1.66-1.27,3.09-2.79,4.15-4.5,1.07-1.71,1.73-3.64,1.86-5.63.04-1.47-.09-2.96-.57-4.38-.24-.72-.59-1.45-.88-2.18-.34-.7-.77-1.36-1.14-2.05-1.68-2.63-4.16-4.68-7.02-6.05l.03-.07Z"/><path class="cls-4" d="m156.1,137.79l-.41.81-.51.76-1.03,1.49c-.37.47-.8.9-1.2,1.35-.41.44-.79.9-1.27,1.27-.33.28-.65.58-.97.87-.32.3-.64.6-1.02.81-2.51,1.78-5.46,2.82-8.41,3.27l-.98.16c-.33.05-.67.03-1,.05-.66.01-1.32.07-1.98.06-.84-.09-1.69-.12-2.52-.26-.81-.25-1.6-.59-2.36-.9-.47-.21-.36-.31.12-.44.48-.11,1.33-.36,2.22-.39.81-.1,1.57-.04,2.34-.05.77,0,1.53-.17,2.29-.22.38,0,.75-.13,1.13-.19l1.14-.18c.39-.04.76-.14,1.13-.25l1.13-.3c.47-.09.89-.3,1.32-.51.43-.22.85-.43,1.28-.65.4-.26.78-.56,1.18-.84.38-.29.81-.53,1.15-.87.78-.71,1.61-1.37,2.25-2.22.33-.41.73-.77,1-1.23l.86-1.34c.4-.53.6-1.16.9-1.75l.42-.89c.13-.3.2-.63.3-.94l.42-1.44c.16-.48.17-.99.26-1.48l.21-1.49c0-.5-.02-1-.04-1.5-.03-.78-.08-1.54-.32-2.28-.2-.74-.38-1.48-.6-2.2-.13-.31-.28-.61-.39-.93-.42-1.17-.27-1.63.43-2.16.16-.12.32-.27.49-.36.57-.34,1.23.01,1.71.93.33.69.66,1.4.9,2.15.19.76.36,1.55.5,2.34.19.79.18,1.61.19,2.43,0,.82.07,1.65-.1,2.47-.18,1.22-.32,2.45-.75,3.62-.19.59-.36,1.18-.58,1.76l-.79,1.67-.06-.03Z"/><path class="cls-4" d="m141.42,174.42c-.09,0-.12.06-.27-.01l-.38-.14-.76-.27c-.68-.48-1.35-.92-2.01-1.37-.14-.1-.38-.23-.48-.29l-.25-.15c-.16-.1-.33-.2-.49-.28-.66-.35-1.33-.68-2-.88-1.35-.47-2.66-.52-3.76-.1-.9.35-1.61,1.13-2.26,2.03-1.21,1.58-1.59,3.47-.95,5.28.61,1.8,2.22,3.36,4.06,4.18,1.68.72,3.65.78,5.47.32,2.39-.56,4.44-1.83,6.8-3.08.76-.38.73-.3.5.47-.1.4-.29.94-.57,1.61-.14.34-.31.7-.54,1.04-.24.33-.53.63-.87.9-.58.51-1.24.94-1.94,1.28-.35.18-.7.36-1.07.5-.37.14-.73.32-1.12.4-1.53.41-3.17.57-4.81.38-1.63-.19-3.28-.72-4.67-1.67-1.39-.92-2.53-2.16-3.33-3.63-.96-1.74-1.43-3.86-1.09-5.9.17-1.01.5-1.99.99-2.85.24-.43.52-.81.79-1.21.27-.4.64-.75.96-1.12,1.53-1.58,4.04-2.42,6.15-2.06,1.07.11,2.05.44,2.98.81.46.19.92.39,1.35.62.22.11.44.22.65.34l.32.18.15.09.06.04.51.35.55.4.14.11s.05.04.07.05c.03,0,.04-.03.05-.06.04-.1.06-.2.07-.31.05-.42.05-.88.02-1.35l-.04-.51-.06-.62-.16-1.25c-.12-.83-.27-1.66-.46-2.48-.37-1.64-.85-3.25-1.47-4.8-.96-2.41-2.33-4.57-3.85-6.58-.34-.44-.7-.85-1.05-1.28-.32-.4-.59-.73-.8-1.02-.2-.3-.32-.58-.41-.82-.19-.48-.19-.86-.09-1.27.05-.19.06-.4.13-.55.2-.49,1.22-.24,2.55.81,3.6,3.43,6.11,8.25,7.49,13.28.52,1.87.89,3.79,1.1,5.74l.07.73.04.51.04.68c.04.9.05,1.8-.05,2.59-.09.8-.36,1.38-.71,1.72-.09.09-.18.17-.28.24-.09.06-.27.18-.35.18l-.6.12-.04-.09Z"/><path class="cls-4" d="m217.15,149.78c2.92-5.87,5.84-11.76,8.82-17.63,1.09-2.14,2.11-4.32,3.26-6.44,1.44-2.65,2.93-5.29,4.57-7.87.82-1.29,1.69-2.56,2.62-3.81.48-.62.95-1.25,1.5-1.85l.84-.89c.33-.31.63-.51,1.09-.94.43-.21.84-.47,1.33-.51.47-.05.96-.04,1.44.07.79.19,1.44.48,2.03.79,1.19.62,2.23,1.33,3.25,2.05,3.11,2.21,6.07,4.49,9.13,6.51,1.96,1.3,3.99,2.49,6.04,3.55,2.01,1.16,4.03,2.23,6.15,3.25.62.49.9.73.86.8-.04.08-.4.05-1.11.26-.72.21-1.69.23-2.89.2-1.19-.05-2.58-.25-3.94-.78-4.24-1.97-7.95-4.63-11.54-7.27-1.79-1.32-3.5-2.72-5.22-3.96-.85-.62-1.72-1.21-2.52-1.64-.36-.2-.84-.39-.96-.42-.05-.03-.2-.07-.27.02-.05-.03-.06.03-.09.04l-.21.15c-.15.1-.29.2-.44.35-.29.28-.6.53-.89.83-1.9,1.97-3.45,4.54-4.95,7.08-1.49,2.57-2.88,5.25-4.27,7.9-3.06,5.82-5.97,11.76-8.9,17.68-1.8,3.65-3.61,7.3-5.41,10.95-2.73,5.53-5.58,11.04-8.43,16.47-2.23,4.22-4.33,8.41-6.82,12.47-.56.89-1.05,1.79-1.68,2.66-1.09,1.64-2.01,2.6-2.7,3.22-.76.57-1.32.79-1.86.86-.25.03-.53.11-.72.09-.6-.07.02-1.59,1.45-3.95,4.42-6.91,8.51-14.7,12.55-22.56,2.98-5.86,5.92-11.78,8.81-17.74l.08.03Z"/><path class="cls-4" d="m251.16,93.69c0-.41.1-.83.15-1.25.07-.42.07-.84.18-1.26.21-.84.37-1.69.75-2.48l.25-.6.13-.3.07-.15.12-.2c.32-.58.76-.95,1.18-1.3.86-.64,1.72-.99,2.56-1.26,1.22-.38,2.41-.65,3.61-.73,2.11-.1,4.18.09,6.23.6,1.03.27,2.05.6,3.07,1.24.5.32,1.04.76,1.42,1.43.37.65.45,1.45.28,2.17-.16.64-.56,1.2-1.07,1.61-.49.38-.95.59-1.42.78-.93.35-1.85.51-2.75.62-2.3.26-4.61.29-6.84-.58-.73-.32-.42-.67.23-.99.65-.31,1.71-.81,2.89-.86,1.05,0,2.1-.06,3.11-.19.99-.13,1.99-.36,2.63-.69.15-.08.28-.17.32-.2.02,0,.04,0,.06-.02.04-.03.08-.08.09-.16,0-.03,0-.07-.06-.15-.07-.08-.19-.19-.35-.3-.3-.22-.73-.42-1.18-.6-2.21-.87-5.05-.74-7.51-.41-1.34.19-2.74.58-3.52,1.22-.11.07-.16.16-.25.23-.06.1-.11.09-.2.27l-.47.9c-.18.29-.29.62-.39.95-.11.33-.23.65-.32.99-.39,1.69-.37,3.5-.26,5.32.2,2.77.64,5.62.7,8.54.06,2.25-.13,4.64-1.13,6.84-.16.51-.48.92-.76,1.38-.52.85-1.03,1.26-1.43,1.49-.41.23-.74.25-1.13.13-.17-.05-.37-.09-.51-.17-.48-.29-.32-1.14.32-2.12.82-1.56,1.44-3.1,1.73-4.81.29-1.71.23-3.6.03-5.55-.29-2.9-.84-6.03-.66-9.39h.07Z"/><path class="cls-4" d="m193.63,274.65c-5.13.24-10.25.51-15.38.83l-5.6.43-19.78,1.23c-2.92.2-5.86.48-8.76.7-1.86.15-3.73.3-5.6.45-.93.06-1.87.06-2.81.07-.94.01-1.87.03-2.82-.11-1.19-.25-1.02-.12-.07-.54.95-.47,2.71-1.18,4.84-1.58,1.89-.27,3.79-.47,5.68-.7,1.9-.22,3.79-.45,5.7-.58,3.81-.3,7.63-.55,11.47-.73,4.6-.21,9.36-.78,14.05-1.15,5.16-.41,10.33-.77,15.5-1.11,3.18-.2,6.37-.4,9.54-.6,4.82-.27,9.66-.55,14.45-.82,3.72-.22,7.36-.62,11.04-.9.81-.06,1.6-.16,2.42-.19,3.03-.13,4.01.09,4.68.92.15.19.35.38.44.57.3.65-.92,1.23-3.12,1.51-6.54.77-13.43,1.11-20.37,1.52-5.15.28-10.33.55-15.5.83v-.07Z"/><path class="cls-4" d="m387.46,240.02c7.42,5.91,14.66,12.03,21.79,18.26,7.12,6.25,14.15,12.59,20.99,19.17,1.25,1.21,2.49,2.41,3.72,3.66.62.63,1.22,1.24,1.85,1.96.23.26.84.96.99,1.68.08.36.2.75.16,1.06,0,.29.01.62-.04.86-.29,2.12-1.04,3.78-1.83,5.41-.8,1.62-1.72,3.15-2.68,4.63-4.03,6.08-8.87,11.5-14.32,16.29-2.75,2.36-5.66,4.57-8.82,6.42-1.57.94-3.23,1.75-4.92,2.49-1.74.7-3.43,1.27-5.38,1.68-.25.03-.51.04-.76.04-.25-.04-.51-.07-.74-.15-.47-.16-.79-.32-1.13-.51-.63-.37-1.2-.77-1.71-1.2-1.04-.84-1.98-1.73-2.9-2.63-1.82-1.82-3.52-3.7-5.19-5.61-3.33-3.82-6.53-7.72-9.72-11.63-6.81-8.37-13.62-16.79-20.55-24.92-4.43-5.23-8.97-10.39-13.67-15.38-2.35-2.49-4.69-4.99-7.15-7.36-2.47-2.34-4.88-4.77-7.59-6.84-1.69-1.28-2.5-1.74-2.41-1.77.08-.01,1.04.4,2.66,1.25,1.61.86,3.92,2.13,6.51,3.95,2.58,1.84,5.39,4.24,8.27,7.02,9.97,10.06,18.91,20.93,27.79,31.83,4.44,5.45,8.84,10.93,13.33,16.33,2.25,2.7,4.51,5.38,6.85,7.96,1.17,1.29,2.36,2.56,3.58,3.75.61.6,1.23,1.17,1.86,1.68.62.51,1.3,1.01,1.82,1.23.22.09.24.1.38.09l1.34-.32c.47-.13.93-.29,1.4-.43.93-.32,1.86-.66,2.76-1.09,1.82-.81,3.59-1.79,5.29-2.91,3.42-2.21,6.61-4.88,9.59-7.77,2.98-2.9,5.74-6.04,8.25-9.36,1.25-1.66,2.42-3.38,3.5-5.13,1.05-1.75,2.06-3.57,2.71-5.39.19-.51.33-1.02.45-1.51.03-.23.09-.48.1-.69-.01-.2.03-.42,0-.48,0-.1-.06-.19-.12-.27l-.48-.57c-.39-.42-.78-.84-1.19-1.26-1.63-1.68-3.34-3.33-5.05-4.97-3.43-3.27-6.92-6.49-10.44-9.68-7.04-6.38-14.21-12.62-21.51-18.7-8.99-7.47-18.15-14.76-27.75-21.37-3.64-2.49-7.34-4.91-11.19-7.02l-2.91-1.52c-.99-.44-1.97-.94-2.98-1.32-2.01-.83-4.03-1.37-6.15-1.56-2.12-.21-4.27-.08-6.4.26-2.13.34-4.24.85-6.31,1.51-4.14,1.33-8.14,3.14-12,5.17-12.04,6.36-22.76,14.43-33.08,23.09-2.27,1.91-4.46,3.83-6.72,5.79-8.36,7.31-11.11,9.56-13.46,10.52-.53.22-1.19.56-1.55.63-1.21.24,1.8-3.19,7.79-8.74,8.91-8.21,18.39-16.4,28.82-23.71,5.22-3.64,10.69-7.04,16.4-10.09,5.73-3.01,11.79-5.71,18.45-7.01,2.47-.46,5.02-.7,7.62-.55,1.29.06,2.6.25,3.88.55.64.17,1.28.34,1.91.52l1.79.67c1.2.44,2.29,1.01,3.43,1.51,1.08.57,2.19,1.12,3.26,1.71,2.13,1.19,4.21,2.45,6.25,3.74,8.13,5.22,15.79,11.02,23.31,16.95l-.03.08Z"/><path class="cls-4" d="m302.18,450.05l-17.32,1.7c-2.11.21-4.2.54-6.31.73-3.72.35-7.44.68-11.16.98l-11.17.85c-3.3.29-6.62.58-9.9.87-2.1.19-4.21.41-6.33.54-1.06.06-2.12.08-3.18.09-1.06.02-2.12,0-3.18-.07-1.33-.1-1.17-.44-.09-1.04,1.07-.63,3.06-1.51,5.45-1.9,2.12-.4,4.26-.57,6.39-.85,2.13-.27,4.27-.53,6.4-.77,4.28-.46,8.58-.8,12.91-1.09,5.18-.36,10.53-1.12,15.81-1.71,5.81-.62,11.62-1.24,17.43-1.86,3.58-.38,7.16-.77,10.73-1.15,5.41-.61,10.86-1.14,16.23-1.81,4.17-.52,8.24-1.27,12.37-1.86.91-.13,1.79-.31,2.72-.37,3.43-.25,4.54-.04,5.35.89.18.21.42.41.54.63.39.71-.95,1.48-3.4,2.03-3.63.9-7.4,1.37-11.22,1.93-3.82.52-7.71.99-11.61,1.43-5.8.64-11.62,1.28-17.44,1.92l-.02-.1Z"/><path class="cls-4" d="m203.89,321.82l6.13,13.24c.75,1.61,1.58,3.18,2.33,4.79,2.62,5.68,5.24,11.36,7.97,16.98,1.21,2.49,2.47,4.99,3.73,7.43,1.62,3.14,3.36,6.24,4.67,9.54.42,1.03.21.97-.47.28-.34-.35-.81-.85-1.37-1.46-.53-.62-1.1-1.39-1.64-2.26-1.8-3.14-3.55-6.31-5.25-9.51-1.67-3.22-3.25-6.48-4.79-9.79-1.83-3.96-3.98-7.96-5.94-11.96l-6.34-13.28c-1.29-2.73-2.58-5.46-3.87-8.19-1.96-4.13-3.89-8.29-5.89-12.36-1.56-3.16-3.24-6.19-4.85-9.28-.35-.68-.71-1.34-1.05-2.04-.63-1.29-.98-2.17-1.11-2.84-.14-.67-.11-1.11.05-1.52.07-.19.12-.42.22-.55.3-.45,1.2.42,2.37,2.19.8,1.35,1.59,2.72,2.36,4.11.75,1.41,1.49,2.84,2.22,4.29,1.46,2.9,2.89,5.86,4.3,8.84,2.08,4.43,4.17,8.88,6.26,13.32l-.06.03Z"/><path class="cls-4" d="m253.1,315.16l5.63,12.34,2.13,4.46c2.41,5.29,4.84,10.58,7.36,15.82,1.13,2.32,2.27,4.65,3.42,6.93.75,1.46,1.5,2.93,2.18,4.43.34.75.71,1.49,1.02,2.26.3.77.61,1.54.91,2.31.37.96.33.83-.19.12-.26-.35-.66-.84-1.16-1.42-.25-.29-.54-.6-.8-.94-.26-.35-.52-.73-.77-1.13-1.86-2.82-3.42-5.8-5.06-8.75-1.57-2.98-3.03-6.02-4.46-9.1-1.7-3.68-3.71-7.39-5.55-11.11-2.03-4.09-3.97-8.21-5.91-12.34-1.19-2.54-2.38-5.09-3.57-7.63-1.81-3.84-3.57-7.73-5.42-11.53-1.41-2.96-3.03-5.75-4.44-8.67-.32-.64-.65-1.25-.95-1.91-1.09-2.44-1.19-3.33-.82-4.12.09-.18.15-.4.26-.53.35-.44,1.21.36,2.27,2.02,3.07,4.95,5.62,10.49,8.23,16.03,1.91,4.13,3.83,8.27,5.75,12.41l-.06.04Z"/><path class="cls-4" d="m296.53,315.05l5.23,10.82c.64,1.31,1.36,2.59,1.99,3.91l6.59,13.98c.98,2.07,2.02,4.11,3.06,6.13,1.38,2.57,2.63,5.21,3.73,7.92.34.85.08.84-.54.29-.61-.55-1.65-1.61-2.57-3.02-.83-1.25-1.56-2.55-2.27-3.85l-2.14-3.92c-1.42-2.62-2.77-5.29-4.02-8.01-1.5-3.26-3.39-6.49-5.02-9.77l-5.4-10.84-3.33-6.67c-1.7-3.36-3.36-6.75-5.12-10.04-1.36-2.57-2.9-4.97-4.29-7.48-.31-.55-.64-1.08-.93-1.64-.55-1.05-.88-1.75-.98-2.31-.07-.58,0-.97.2-1.35.09-.17.15-.38.25-.5.17-.21.45-.15.85.12.4.28.96.74,1.42,1.48,2.94,4.26,5.45,9.04,7.94,13.87,1.84,3.59,3.62,7.23,5.44,10.84l-.06.04Z"/><path class="cls-4" d="m275.31,313.82c-7.3.58-14.59,1.21-21.88,1.97-2.66.26-5.3.64-7.96.93-9.36,1-18.73,2-28.06,3.28-4.14.54-8.29,1.23-12.38,1.91-5.25.89-10.49,2-15.82,2.41-1.7-.05-1.49-.18-.2-.95,1.29-.79,3.73-1.85,6.74-2.52,10.72-2,21.51-3.66,32.44-4.88,6.54-.73,13.3-1.77,19.99-2.51,7.35-.82,14.71-1.54,22.08-2.19,4.53-.4,9.07-.77,13.61-1.12,6.87-.54,13.78-.98,20.6-1.45,2.65-.17,5.28-.38,7.89-.6,2.62-.17,5.23-.34,7.85-.51,1.16-.07,2.28-.16,3.45-.19,4.32-.16,5.71-.01,6.66.54.22.13.5.24.63.37.43.41-1.31.9-4.46,1.25-4.67.49-9.47,1.02-14.33,1.48-2.43.2-4.88.4-7.34.6-2.46.2-4.93.4-7.4.57-7.35.52-14.73,1.05-22.09,1.7l-.02-.07Z"/><path class="cls-4" d="m279.38,345.47l-17.4,1.74-6.33.72-22.36,2.24c-3.31.33-6.62.74-9.9,1.15-4.21.5-8.42,1.07-12.67,1.29-1.32.08-1.15.02-.07-.32.61-.19,1.37-.44,2.23-.71.92-.32,2.02-.63,3.22-.86l6.39-1.23c2.14-.34,4.28-.68,6.42-1.03,2.14-.33,4.29-.63,6.45-.92,2.16-.26,4.33-.47,6.5-.69,5.2-.49,10.57-1.32,15.87-1.97,5.83-.67,11.67-1.33,17.5-2,3.59-.41,7.18-.81,10.77-1.22,5.43-.64,10.9-1.23,16.28-1.92,4.19-.54,8.26-1.26,12.39-1.91.91-.14,1.79-.31,2.71-.41,3.41-.41,4.52-.33,5.35.29.19.14.43.27.55.42.4.49-.93,1.13-3.39,1.71-3.65.89-7.44,1.49-11.28,2.11-3.84.6-7.75,1.14-11.67,1.65-5.83.7-11.69,1.29-17.54,1.93l-.02-.07Z"/><path class="cls-4" d="m179.34,214.39c.51.13,1.03.25,1.56.32.53.1,1.06.16,1.59.19.39.04.78,0,1.17,0,1.38.06,2.78-.02,4.12-.34.3-.06.6-.14.88-.25.28-.11.58-.19.84-.34.34-.17.67-.37,1.01-.54.17-.09.36-.16.52-.26.16-.1.32-.21.49-.32.22-.13.26-.08.22.17-.05.22-.1.79-.45,1.21-1.27,1.44-3.13,1.95-4.85,2.1-1.05.09-2.11.27-3.17.3-.58,0-1.16-.02-1.74-.05-.58-.06-1.16-.11-1.73-.19-.7-.12-1.41-.23-2.1-.41-.53-.12-1.05-.27-1.55-.45-.51-.16-1.02-.33-1.52-.53-.8-.24-1.57-.53-2.34-.87-.17-.08-.33-.16-.49-.26-.58-.37-.7-.59-.59-1.01.03-.1.04-.2.08-.29.13-.3.51-.38.96-.26.66.22,1.35.38,2.03.57.67.19,1.32.45,2,.64.51.13,1,.32,1.52.42.51.13,1.02.3,1.55.38v.05Z"/><path class="cls-3" d="m411.88,316.05l7.98,8.68s31.05-5.41,35.9-10.92,1.37-6.77,1.37-6.77c0,0-30.31,7.27-31.91,7.14-1.6-.13-7.57-3.57-7.57-3.57l-5.77,5.45Z"/><path class="cls-4" d="m357.64,191.28c.14.74-.04,1.3-.31,1.83-.1.19-.2.38-.35.54-.49.56-1.42.88-2.11.48-.29-.15-.51-.38-.68-.64-.21-.32-.31-.82-.03-1.16.08-.1.16-.01.23.12.06.13.19.27.23.36.07.18.24.34.42.44.19.09.32.17.51.16.27,0,.48-.26.62-.52.17-.29.27-.65.24-.99-.02-.2-.07-.35-.16-.41-.12-.12-.47-.15-.71.01-.18.13-.28.39-.36.64-.02.06-.02.12-.05.18-.09.21-.21.25-.59.12l-.26-.08c-.29-.11-.47-.32-.45-.55.03-.34.15-.71.43-1.07.26-.35.77-.7,1.3-.78.4-.07.85,0,1.28.23.44.24.73.71.81,1.09h-.03Z"/><path class="cls-4" d="m360.56,194.85c-.41.48-.82.96-1.23,1.44-.15.18-.26.37-.41.55-.53.61-1.06,1.23-1.58,1.84-.23.27-.44.57-.65.86-.26.38-.49.78-.84,1.08-.21.19-.66-.59-.41-1.05.49-.79.99-1.58,1.65-2.25.39-.41.69-.91,1.03-1.37.38-.5.77-1,1.16-1.49.24-.31.48-.62.71-.92.35-.47.73-.93,1.04-1.42.25-.38.42-.8.63-1.2.04-.09.08-.18.13-.27.19-.32.33-.36.69-.21.08.03.17.06.24.1.26.14.38.39.28.66-.27.79-.75,1.49-1.26,2.17-.38.51-.79,1-1.18,1.5l-.03-.02Z"/><path class="cls-4" d="m365.15,197.24c-.26.36-.68.69-1.11.82-.15.05-.3.12-.47.13-.57.05-1.25-.25-1.5-.8-.11-.22-.18-.44-.21-.69-.03-.29.02-.72.36-.85.11-.05.27.19.44.41.17.22.4.39.41.38.05,0,.03.07-.02.19.03.12.17.06.29.03.15-.04.28-.09.41-.22.08-.08.15-.18.19-.31.07-.18.13-.41.09-.62v-.03s.15.33.15.33c-.06,0-.14.1-.14.17,0,.03,0,.02,0,0,0-.03-.02-.05-.03-.06,0-.01-.11-.17-.25-.32l-.2-.22c-.24-.24-.35-.55-.13-.77.44-.43,1.25-.53,1.86.04l.31.29.04.45c.01.15,0,.3,0,.46-.05.41-.2.84-.45,1.23l-.03-.02Z"/><path class="cls-4" d="m162.94,139.87c.66,1.75,1.68,3.4,2.9,4.9.42.57.99,1,1.46,1.53,1.76,1.77,3.88,3.21,6.22,4.19.52.2,1.07.35,1.61.51.55.09,1.1.2,1.65.27.71.02,1.42.09,2.14.06.72.05,1.44.04,2.18.04.47.01.47.23.13.59-.17.18-.42.4-.74.64-.16.12-.34.24-.54.35-.2.09-.42.17-.65.22-.41.08-.82.15-1.24.19-.42.02-.83,0-1.25,0-.42,0-.83-.07-1.24-.13-.41-.07-.83-.09-1.23-.22-1.63-.36-3.17-1.03-4.56-1.92-1.63-1.09-3.33-2.2-4.75-3.62-1.55-1.55-2.82-3.36-3.78-5.33-.31-.6-.55-1.23-.77-1.87-.13-.31-.22-.64-.31-.97-.1-.33-.18-.66-.23-1-.42-2.02-.22-4.28.87-6.16.87-1.43,2.23-2.57,3.78-3.11.34-.11.67-.25,1.03-.3.33-.05.6-.08.83-.09.23,0,.42.07.57.11.31.11.48.25.63.45.06.09.15.18.18.26.12.28-.37.6-1.14.96-1.16.43-2.21.97-2.96,1.7-.38.36-.67.77-.91,1.2-.24.43-.43.91-.54,1.43-.34,1.55-.04,3.38.69,5.1l-.06.03Z"/><path class="cls-4" d="m169.24,138.6c.17.2.34.41.5.61.04.05.08.11.13.16.13.16-.18-.24.03.04.1.13.2.27.3.4.4.55.77,1.13,1.09,1.74.07.14.14.28.21.42.03.07.07.14.1.21-.08-.2,0-.01,0,.03.12.32.22.64.29.98.01.07.03.14.04.22-.04-.25,0-.06,0,0,0,.16.02.32.01.48,0,.07-.01.14-.01.21,0,.17.07-.17,0-.02s-.09.35-.14.51c-.06.18.09-.17,0,0-.04.06-.07.13-.11.19-.05.08-.11.16-.16.24.02-.03.17-.16.06-.08-.06.04-.11.11-.16.16-.21.21.23-.13-.04.03-.13.07-.33.24-.48.25.18-.01.22-.08.1-.04-.05.01-.09.03-.14.05-.12.04-.25.08-.37.11-.1.03-.21.05-.32.07-.05.01-.11.02-.16.03.33-.06.13-.01.04,0-.26.02-.53.04-.79.03-.12,0-.24,0-.37-.02-.07,0-.53-.08-.18-.01-.29-.05-.57-.11-.85-.19-.14-.04-.29-.09-.43-.14-.04-.01-.24-.09-.09-.03s-.15-.07-.18-.08c-.3-.14-.59-.31-.86-.5-.06-.04-.12-.08-.18-.13.21.16-.07-.06-.09-.08-.14-.12-.28-.25-.41-.39-.12-.13-.24-.26-.35-.39-.14-.17.16.24-.06-.08-.07-.1-.14-.2-.21-.31-.37-.56-1.1-.8-1.71-.45-.56.33-.82,1.14-.45,1.71,1.75,2.65,4.86,4.03,8,3.44,1.17-.22,2.24-.79,2.91-1.79.97-1.45.82-3.31.18-4.86-.69-1.68-1.76-3.12-2.92-4.5-.43-.52-1.32-.45-1.77,0-.51.51-.43,1.25,0,1.77h0Z"/><path class="cls-4" d="m150.93,152.97c1.9,2.37,4.99,3.97,8.06,3.92,1.52-.02,2.99-.47,4.18-1.43,1.31-1.05,1.67-2.73,1.18-4.3-.58-1.86-1.88-3.43-3.02-4.97-.4-.54-1.08-.82-1.71-.45-.53.31-.85,1.17-.45,1.71.88,1.19,1.83,2.37,2.49,3.7.15.29.18.35.28.67.04.12.06.25.1.38,0,0,.04.21.02.08-.02-.14.01.17.01.2,0,.12,0,.24-.01.35.03-.24-.04.11-.07.18-.04.13,0,0,.01-.02-.03.05-.06.11-.09.16-.11.19-.03.09-.2.26-.19.19-.35.3-.59.44-.12.07-.24.13-.36.19s0,0,.03,0c-.07.03-.15.06-.22.08-.25.09-.5.15-.75.2-.06.01-.42.06-.21.04-.16.02-.33.03-.5.03-.63.02-1.06-.03-1.53-.13-.28-.06-.57-.13-.84-.22s-.57-.19-.73-.26c-1.36-.61-2.39-1.41-3.32-2.57-.42-.53-1.33-.44-1.77,0-.52.52-.42,1.24,0,1.77h0Z"/><path class="cls-4" d="m165.2,168.32c2.47,1.98,5.73,2.74,8.81,1.88.69-.19,1.19-.98.96-1.69s-.95-1.17-1.69-.96c-.3.08-.61.15-.92.2-.16.02-.16.02.01,0-.08,0-.16.02-.24.02-.16.01-.31.02-.47.03-.32,0-.63,0-.94-.03-.06,0-.56-.08-.22-.02-.14-.02-.27-.05-.41-.07-.29-.06-.58-.13-.86-.22-.15-.05-.3-.1-.45-.15-.07-.03-.15-.06-.22-.09.15.06.15.06,0,0-.28-.14-.56-.28-.83-.44-.13-.08-.27-.17-.4-.26-.06-.04-.13-.09-.19-.14.12.1.12.1,0,0-.56-.45-1.4-.59-1.94,0-.46.5-.6,1.46,0,1.94h0Z"/><path class="cls-4" d="m243.2,132.84c1.33-.2,2.64-.76,3.71-1.57.3-.23.53-.45.63-.82.09-.33.05-.77-.14-1.06s-.47-.55-.82-.63-.77-.08-1.06.14c-.49.38-1.03.69-1.6.93l.33-.14c-.57.24-1.17.41-1.78.5-.32.05-.67.37-.82.63-.17.29-.25.73-.14,1.06s.31.65.63.82l.33.14c.24.07.49.07.73,0h0Z"/><path class="cls-4" d="m240.24,151.38c.05.11.1.21.15.32l-.14-.33c.18.43.3.89.37,1.36l-.05-.37c.05.38.06.77.03,1.15-.03.33.17.74.4.97s.63.42.97.4.72-.13.97-.4.37-.59.4-.97c.1-1.22-.19-2.44-.73-3.52-.15-.3-.51-.55-.82-.63-.33-.09-.77-.05-1.06.14s-.55.47-.63.82c-.09.37-.03.71.14,1.06h0Z"/><g class="cls-6"><path class="cls-4" d="m185.12,230.42l2.26,2.25c.25.25.62.4.97.4s.74-.15.97-.4.42-.61.4-.97-.14-.71-.4-.97l-2.26-2.25c-.25-.25-.62-.4-.97-.4s-.74.15-.97.4-.42.61-.4.97.14.71.4.97h0Z"/></g><path class="cls-4" d="m212.18,234.05c1.04-.56,2.07-1.13,3.11-1.69.3-.16.54-.5.63-.82s.05-.77-.14-1.06c-.41-.64-1.21-.86-1.88-.49-1.04.56-2.07,1.13-3.11,1.69-.3.16-.54.5-.63.82s-.05.77.14,1.06c.41.64,1.21.86,1.88.49h0Z"/><path class="cls-4" d="m136.88,234.75c1.01-.25,2-.69,2.87-1.27.3-.2.53-.47.63-.82.09-.33.05-.77-.14-1.06s-.47-.55-.82-.63-.75-.07-1.06.14c-.43.28-.87.53-1.35.73l.33-.14c-.39.16-.79.3-1.2.4-.33.08-.65.34-.82.63s-.25.73-.14,1.06.31.65.63.82.69.23,1.06.14h0Z"/><g class="cls-6"><path class="cls-4" d="m142.19,262.91c.66.56,1.32,1.13,1.98,1.69.12.13.27.23.44.28.16.09.34.13.53.12.34,0,.74-.15.97-.4s.42-.61.4-.97-.13-.74-.4-.97c-.66-.56-1.32-1.13-1.98-1.69-.12-.13-.27-.23-.44-.28-.16-.09-.34-.13-.53-.12-.34,0-.74.15-.97.4s-.42.61-.4.97.13.74.4.97h0Z"/></g><path class="cls-4" d="m194.11,264.82l2.54-1.69c.3-.2.53-.47.63-.82.09-.33.05-.77-.14-1.06s-.47-.55-.82-.63-.75-.07-1.06.14l-2.54,1.69c-.3.2-.53.47-.63.82-.09.33-.05.77.14,1.06s.47.55.82.63.75.07,1.06-.14h0Z"/><g class="cls-6"><path class="cls-4" d="m221.74,187.06c1.68-.27,3.22-1.04,4.55-2.09.26-.2.4-.66.4-.97,0-.34-.15-.74-.4-.97s-.61-.42-.97-.4l-.37.05c-.23.07-.44.18-.61.35-.03.03-.07.06-.11.08l.28-.22c-.57.43-1.19.8-1.84,1.08l.33-.14c-.64.27-1.3.46-1.99.57-.32.05-.67.36-.82.63-.17.29-.25.73-.14,1.06s.31.65.63.82c.35.18.67.2,1.06.14h0Z"/></g><g class="cls-6"><path class="cls-4" d="m50.51,184.79c.04.14.11.28.17.41.01.03.03.06.05.09.08.12.17.23.26.34.02.02.05.05.07.07.13.11.28.24.44.31s.33.16.5.2c.15.03.3.05.45.06.03,0,.07,0,.11,0,.18,0,.38-.03.55-.06.07-.01.13-.03.19-.05.16-.06.35-.12.5-.23.12-.08.23-.17.34-.26.03-.02.05-.05.07-.07.09-.11.18-.22.26-.34.02-.03.03-.06.05-.09.06-.13.13-.27.17-.41.04-.15.05-.31.07-.46,0-.03,0-.07,0-.1,0-.15-.03-.31-.06-.46,0-.04-.02-.07-.03-.1-.05-.14-.11-.28-.18-.41-.02-.03-.04-.06-.06-.08-.09-.12-.17-.24-.28-.35-.02-.03-.05-.05-.08-.07-.12-.09-.23-.19-.36-.27-.15-.1-.34-.17-.51-.23-.19-.07-.39-.09-.59-.11s-.39.02-.59.05c-.04,0-.08.01-.11.02-.15.05-.29.11-.43.18s-.25.18-.36.27c-.03.03-.07.06-.09.09-.13.12-.23.27-.28.44-.09.16-.13.34-.12.53,0,.19.03.37.12.53.06.17.15.32.28.44.26.24.61.42.97.4s.73-.13.97-.4c.03-.03.06-.06.09-.09l-.28.22s.09-.06.14-.08l-.33.14c.05-.02.11-.04.16-.04l-.37.05c.07,0,.15,0,.22,0l-.37-.05c.08.01.16.03.24.07l-.33-.14c.08.03.16.08.23.13l-.28-.22c.06.05.11.1.16.16l-.22-.28c.04.05.08.11.1.17l-.14-.33s.03.1.04.15l-.05-.37c0,.05,0,.11,0,.16l.05-.37c0,.06-.02.11-.04.16l.14-.33s-.05.09-.08.14l.22-.28s-.07.08-.11.11l.28-.22c-.05.04-.11.08-.17.1l.33-.14c-.08.03-.16.05-.24.07l.37-.05c-.09.01-.18.01-.27,0l.37.05c-.08-.01-.16-.03-.24-.07l.33.14c-.06-.03-.11-.06-.16-.09l.28.22s-.08-.07-.11-.11l.22.28s-.06-.09-.08-.14l.14.33s-.01-.04-.02-.06c-.11-.34-.32-.64-.63-.82-.16-.1-.33-.15-.51-.16-.18-.04-.37-.03-.55.02-.33.11-.65.31-.82.63s-.25.7-.14,1.06h0Z"/></g><path class="cls-4" d="m91.58,115.2h.38c.26,0,.5-.04.72-.16.23-.08.43-.2.6-.39.18-.17.31-.37.39-.6.12-.22.17-.46.16-.72l-.07-.5c-.09-.32-.25-.59-.48-.83l-.38-.29c-.29-.17-.61-.25-.95-.26h-.38c-.26,0-.5.04-.72.16-.23.08-.43.2-.6.39-.18.17-.31.37-.39.6-.12.22-.17.46-.16.72l.07.5c.09.32.25.59.48.83l.38.29c.29.17.61.25.95.26h0Z"/><path class="cls-4" d="m104.31,214.17l.09-1.11-1.74,1.33s.08.02.11.04l-.33-.14s.09.05.13.08l-.28-.22s.08.08.12.12l-.22-.28c.04.06.08.12.11.18l-.14-.33c.03.07.05.14.06.22l-.05-.37c0,.07,0,.13,0,.2l.05-.37c0,.06-.02.11-.04.16l.14-.33s-.05.09-.08.14l.22-.28s-.02.02-.03.03c-.13.12-.23.27-.28.44-.09.16-.13.34-.12.53,0,.19.03.37.12.53.06.17.15.32.28.44l.28.22c.21.12.45.19.69.19l.37-.05c.23-.07.44-.18.61-.35.11-.13.24-.27.31-.43s.16-.33.19-.5c.02-.16.07-.36.05-.54s-.03-.37-.09-.55c-.12-.35-.28-.64-.53-.91-.12-.13-.27-.24-.42-.33s-.32-.17-.5-.2c-.24-.07-.49-.07-.73,0-.18.04-.33.12-.47.25-.15.1-.27.23-.35.39-.12.21-.19.45-.19.69l-.09,1.11c0,.19.03.37.12.53.06.17.15.32.28.44.12.13.27.23.44.28.16.09.34.13.53.12l.37-.05c.23-.07.44-.18.61-.35l.22-.28c.12-.21.19-.45.19-.69h0Z"/><g class="cls-5"><path class="cls-4" d="m73.87,264.08c.04.08.13.17.16.22.04.06.1.15.17.21.27.27.36.29.65.42.32.14.33.15.77.17.01,0,.02,0,.03,0,0,0,.01,0,.02,0l.5-.07s0,0,.01,0c.02,0,.04-.01.06-.02.05-.02.37-.13.51-.22s.3-.21.43-.33c0,0,.02-.02.03-.03,0,0,0,0,.01-.01.05-.07.1-.13.15-.2.05-.06.1-.13.15-.2.01-.02.03-.04.04-.07.07-.14.17-.33.21-.51.02-.09.03-.21.04-.27,0,.01.03-.18.03-.26,0-.01,0-.02,0-.04-.01-.19-.02-.39-.08-.57s-.13-.36-.22-.52c0-.01-.02-.03-.02-.04,0,0-.01-.01-.02-.02-.09-.12-.2-.27-.3-.39-.02-.02-.04-.04-.06-.06-.01-.01-.03-.02-.04-.03-.14-.11-.27-.22-.41-.32-.06-.04-.13-.08-.19-.11-.21-.09-.43-.19-.66-.27-.25-.08-.5-.09-.75-.03-.25.01-.48.09-.7.22-.22.12-.39.28-.53.48-.17.18-.28.39-.34.64l-.07.5c0,.34.09.65.26.95l.29.38c.23.23.51.39.83.48.06.02.13.04.19.07l-.45-.19c.09.04.17.08.25.14l-.38-.29s.08.07.11.11l-.29-.38s.05.07.06.11l-.19-.45s.02.05.02.08l-.07-.5s0,.04,0,.07l.07-.5s-.01.05-.02.07l.19-.45s-.03.06-.05.08l.29-.38s-.05.05-.08.08l.38-.29s-.05.03-.08.05l.45-.19s-.05.02-.07.02l.5-.07s-.04,0-.06,0l.5.07s-.03,0-.04-.01l.45.19s-.02-.01-.04-.02l.38.29s-.02-.02-.03-.03l.29.38s-.01-.02-.02-.03c-.12-.22-.28-.39-.48-.53-.18-.17-.39-.28-.64-.34-.25-.08-.5-.09-.75-.03-.25.01-.48.09-.7.22l-.38.29c-.23.23-.39.51-.48.83l-.07.5c0,.34.09.65.26.95h0Z"/></g><path class="cls-4" d="m339,112.78c-.03.21-.08.43-.08.64,0,.14.02.28.04.41s.03.27.06.4c.06.2.16.42.24.59.04.1.1.2.17.28.16.21.31.44.52.61s.41.35.65.45c.19.08.38.18.58.23s.43.07.64.09c.01,0,.03,0,.04,0h.02c.17-.02.33-.04.5-.07l.45-.19.38-.29s.02-.02.03-.04c.14-.17.28-.34.4-.52.16-.23.26-.52.36-.77.05-.13.09-.27.11-.42.05-.31.11-.62.07-.93,0-.26-.04-.5-.16-.72-.08-.23-.2-.43-.39-.6-.17-.18-.37-.31-.6-.39-.22-.12-.46-.17-.72-.16l-.5.07c-.32.09-.59.25-.83.48l-.29.38c-.17.29-.25.61-.26.95.02.14.02.29,0,.43l.07-.5c-.02.15-.06.3-.12.44l.19-.45c-.06.14-.13.27-.23.39l.29-.38s-.05.06-.08.09l1.33-.55s-.05,0-.08,0l.5.07c-.09-.01-.17-.04-.26-.07l.45.19c-.1-.04-.18-.09-.27-.15l.38.29c-.09-.07-.16-.15-.23-.23l.29.38c-.07-.09-.12-.18-.17-.28l.19.45c-.04-.1-.07-.19-.08-.3l.07.5c-.01-.09-.01-.18,0-.27l-.07.5s0-.03,0-.04c.08-.25.09-.5.03-.75-.01-.25-.09-.48-.22-.7-.12-.22-.28-.39-.48-.53-.18-.17-.39-.28-.64-.34l-.5-.07c-.34,0-.65.09-.95.26l-.38.29c-.23.23-.39.51-.48.83h0Z"/><g class="cls-6"><path class="cls-4" d="m350.42,75.64c-.18-.09-.35-.19-.51-.31l.28.22c-.09-.07-.16-.14-.23-.23l.22.28c-.05-.07-.1-.14-.13-.22l.14.33c-.02-.05-.04-.1-.04-.16l.05.37s0-.1,0-.14l-.05.37c0-.05.02-.11.05-.16l-.14.33c.02-.05.05-.1.08-.14l-.22.28s.08-.09.13-.13l-.28.22s.07-.05.12-.07l-.33.14s.07-.03.11-.03l-.37.05s.06,0,.09,0l-.37-.05s.05.01.08.02l-.33-.14s.06.03.09.05v-2.37c-.32.17-.64.35-.96.52-.16.09-.29.2-.39.35-.12.13-.2.29-.25.47-.06.18-.07.37-.02.55,0,.18.06.35.16.51.19.29.47.55.82.63l.37.05c.25,0,.48-.06.69-.19.32-.17.64-.35.96-.52.42-.23.68-.72.68-1.19,0-.25-.06-.48-.19-.69-.12-.21-.29-.37-.49-.49-.07-.06-.17-.09-.25-.12-.24-.1-.32-.12-.62-.14-.02,0-.03,0-.05,0-.13,0-.28.03-.4.05-.09.02-.18.06-.26.1s-.18.07-.26.12c-.12.08-.25.18-.36.28s-.19.23-.28.35c-.03.04-.05.08-.07.12-.07.13-.13.28-.18.42,0,.02,0,.04-.01.05-.03.14-.05.28-.06.42,0,.04,0,.08,0,.13.02.16.03.33.08.48s.11.3.18.44c.02.05.05.09.08.13.12.17.24.34.4.47.27.23.54.42.85.58.16.1.33.15.51.16.18.04.37.03.55-.02.18-.04.33-.12.47-.25.15-.1.27-.23.35-.39.17-.32.25-.71.14-1.06-.11-.33-.31-.65-.63-.82h0Z"/></g><g class="cls-5"><path class="cls-4" d="m296.99,136.3s0-.04-.01-.06l.05.37c-.01-.08,0-.16,0-.24l-.05.37c.01-.09.04-.17.07-.25l-.14.33c.04-.08.08-.15.13-.22l-.22.28c.05-.07.11-.13.18-.18l-.28.22c.06-.05.13-.08.2-.12l-.33.14c.05-.02.11-.04.16-.05l-1.34-.35c.05.05.1.1.15.15l-.22-.28c.06.08.11.17.15.26l-.14-.33c.04.09.06.19.08.29l-.05-.37c.01.09.01.19,0,.28l.05-.37s-.02.1-.03.15c-.06.18-.07.37-.02.55,0,.18.06.35.16.51.09.16.2.29.35.39.13.12.29.2.47.25l.37.05c.25,0,.48-.06.69-.19l.28-.22c.17-.17.29-.37.35-.61.01-.05.02-.1.03-.15.02-.16.06-.33.06-.5,0-.22-.03-.44-.09-.65-.01-.05-.03-.09-.04-.13-.06-.15-.12-.31-.2-.46-.02-.04-.05-.08-.08-.12-.1-.13-.19-.27-.31-.39-.02-.02-.04-.04-.05-.05,0,0-.02-.01-.03-.02l-.28-.22-.33-.14c-.27-.09-.58-.06-.85.03-.19.07-.39.14-.56.26s-.34.24-.46.4-.27.32-.35.5c-.07.15-.14.3-.19.46s-.06.33-.08.5c-.03.22.01.46.06.67.04.18.12.33.25.47.1.15.23.27.39.35.16.1.33.15.51.16.18.04.37.03.55-.02l.33-.14c.21-.12.37-.29.49-.49l.14-.33c.07-.24.07-.49,0-.73h0Z"/></g><path class="cls-4" d="m370.26,90.22s-.02.02-.02.03c-.08.15-.15.31-.2.48,0,.01,0,.02,0,.03-.02.08-.04.26-.03.26,0,0-.03.17-.03.26,0,0,0,.01,0,.02,0,.01,0,.02,0,.04.01.14.03.36.07.53,0,.01,0,.02,0,.03,0,0,0,0,0,0,.05.12.14.33.19.45,0,0,0,.01,0,.02.04.09.14.19.19.26s.12.18.2.24c.13.11.27.22.41.31.01,0,.02.01.03.02,0,0,.01,0,.02,0,0,0,0,0,0,0,.11.05.34.15.45.19.01,0,.02,0,.04.01,0,0,.01,0,.02,0,.08.01.22.03.26.03.05,0,.17.03.26.03.01,0,.03,0,.04,0,.18-.02.36-.03.53-.07,0,0,.01,0,.02,0,0,0,0,0,0,0l.45-.19s0,0,0,0c.22-.12.39-.28.53-.48.17-.18.28-.39.34-.64.08-.25.09-.5.03-.75-.01-.25-.09-.48-.22-.7l-.29-.38c-.23-.23-.51-.39-.83-.48l-.5-.07c-.34,0-.65.09-.95.26,0,0,0,0,0,0l.45-.19s-.04.01-.06.02l.5-.07s-.04,0-.06,0l.5.07s-.05,0-.07-.02l.45.19s-.05-.03-.07-.04l.38.29s-.05-.04-.07-.07l.29.38s-.04-.05-.05-.09l.19.45s-.02-.05-.02-.08l.07.5s0-.04,0-.07l-.07.5s0-.04.01-.05l-.19.45s.02-.04.03-.05c.14-.22.21-.45.22-.7.06-.25.04-.5-.03-.75-.06-.24-.17-.46-.34-.64-.13-.2-.31-.37-.53-.48l-.45-.19c-.33-.09-.66-.09-1,0l-.45.19c-.28.17-.51.39-.67.67h0Z"/><path class="cls-4" d="m67.73,250.6s-.01-.01-.02-.02l.29.38s-.03-.04-.03-.06l.19.45s-.02-.05-.02-.08l.07.5s0-.06,0-.09l-.07.5s.01-.07.03-.1l-.19.45s.03-.06.05-.09l-.29.38s.04-.04.06-.06l-.38.29s.04-.03.07-.04l-.45.19s.05-.02.07-.02l-.5.07s.02,0,.03,0c.26,0,.5-.04.72-.16.23-.08.43-.2.6-.39.18-.17.31-.37.39-.6.12-.22.17-.46.16-.72l-.07-.5c-.09-.32-.25-.59-.48-.83l-.38-.29c-.29-.17-.61-.25-.95-.26,0,0-.01,0-.02,0,0,0,0,0,0,0-.07,0-.43.06-.5.07-.01,0-.03,0-.04,0-.08.02-.2.08-.26.11-.06.02-.18.07-.26.11-.01,0-.02.01-.03.02-.07.05-.32.24-.38.3,0,0,0,0,0,0,0,0-.01,0-.02.01,0,0-.02.02-.03.03,0,0,0,0-.01.01-.06.08-.24.3-.3.38,0,0,0,0,0,.01-.02.02-.03.04-.04.07,0,0,0,0,0,.01-.04.1-.15.35-.19.45,0,0,0,.01,0,.02,0,.01,0,.03-.01.04,0,.01,0,.02,0,.04-.01.08-.03.2-.03.26,0,.04-.03.17-.03.26,0,0,0,.01,0,.02,0,.01,0,.02,0,.04,0,0,0,.01,0,.02,0,0,0,0,0,0,.02.13.04.37.07.5,0,.02,0,.03.01.04,0,0,0,.01,0,.02.03.08.09.2.1.23.01.03.06.16.1.23,0,.01.01.03.02.04,0,0,0,0,0,0h0c.1.13.2.26.29.38,0,0,.01.01.02.02.17.18.37.31.6.39.22.12.46.17.72.16.26,0,.5-.04.72-.16.23-.08.43-.2.6-.39l.29-.38c.17-.29.25-.61.26-.95l-.07-.5c-.09-.32-.25-.59-.48-.83h0Z"/><path class="cls-4" d="m261.54,48.05c.18.07.22.27.21.54,0,.09-.13.25-.2.25-.13-.01-.25-.03-.38-.06-.07,0-1.08-.56-1.41-.78-.34-.19-.62-.45-.91-.7-.59-.51-1.22-1.03-1.69-1.68-.1-.14-.19-.3-.24-.47-.19-.58-.47-1.11-.76-1.65-.05-.09-.08-.19-.2-.25-.23-.08-.79-1.68-.76-1.92.02-.28.03-.56.04-.83.03-.27.07-.55.11-.82.01-.08-.03-.16.08-.23.26-.17.2-.33.23-.49.03-.22.1-.44.21-.66.05-.11.2-.2.32-.3.11-.09.47,0,.51.03.11.1.29.04.44.04.05,0,.12,0,.16,0,.05,0,.23.3.43.58.21.29.41.56.4.62-.01.01.08.39.16.78.09.39.18.79.22.87.04.08,0,.18-.03.28-.03.05.41,1.17.43,1.21.03.25.19.45.09.77-.02.06,0,.11.03.15.18.4.29.83.45,1.25.06.23.19.42.28.64.02.04.02.09.02.13.01.06.02.11.05.16.26.49.51,1.01.93,1.38.08.1.41.64.54.73.06.06.16.37.24.4Z"/><path class="cls-4" d="m268.81,47.33c0,.17-.22.14-.57,0-.11-.04-.39-.26-.41-.32-.03-.12-.06-.24-.07-.34,0-.06.29-.76.37-1.01.08-.24.21-.45.35-.65l.82-1.23c.06-.09.14-.17.23-.24.32-.23.54-.53.73-.86.03-.05.08-.1.06-.19-.03-.15.55-.98.67-1.06.29-.19.55-.4.83-.6.04-.03.05-.09.14-.07.21.03.24-.07.32-.14.1-.1.21-.2.34-.27.07-.04.2-.03.31-.03.1,0,.31.2.32.24.03.11.17.15.27.21.03.02.08.05.1.08.06.05-.04.99-.1,1.05,0,0-.16.27-.32.54-.16.27-.33.56-.35.62-.03.07-.11.09-.17.13-.03.02-.5.85-.53.87-.14.14-.21.33-.45.39-.05.01-.07.05-.09.08-.19.28-.45.5-.69.74-.12.12-.21.27-.32.4-.02.02-.06.03-.08.05-.03.02-.08.04-.1.07-.24.33-.56.6-.76.96-.05.08-.46.33-.51.43-.03.05-.35.06-.35.13Z"/></svg>