<svg id="Layer_1" data-name="Layer 1" xmlns="http://www.w3.org/2000/svg" width="520" height="520" viewBox="0 0 520 520"><defs><style>.cls-1{fill:#221f1f;}.cls-2{opacity:0.6;}.cls-3{fill:#232020;}</style></defs><title>Notioly v2</title><g id="_33.Details" data-name="33.Details"><path class="cls-1" d="M202.58,398.13a32.69,32.69,0,0,1-9-5,50.83,50.83,0,0,1-7.32-7,70.85,70.85,0,0,1-4.55-5.72A123.68,123.68,0,0,1,169.59,358c-1.48-3.47-2.92-7-4.24-10.46a125.17,125.17,0,0,1-4.47-13.7c-.36-1.45.11-1.38.91-.3a24,24,0,0,1,2.81,5.73q2.43,6.87,5.1,13.64c1.81,4.51,3.77,9,5.93,13.35a88.57,88.57,0,0,0,9.47,15.1c4,5.14,8.67,9.88,14.38,12.91a23.12,23.12,0,0,0,11.34,2.82,24.72,24.72,0,0,0,8.74-1.93,48.21,48.21,0,0,0,8.05-4.22,89.82,89.82,0,0,0,11-8.67c.77-.67,1.5-1.38,2.27-2.07,2.84-2.61,3.87-3.3,4.9-3.42a2.93,2.93,0,0,1,.69-.07c.58.08-.28,1.47-2.27,3.53a103.63,103.63,0,0,1-9.74,8.67A64.92,64.92,0,0,1,223,396.23a31.66,31.66,0,0,1-9.95,3.11,24.34,24.34,0,0,1-10.49-1.16Z"/><path class="cls-1" d="M363.16,238.52c.12-2,.31-4,.54-5.91.08-.72.1-1.44.2-2.15.37-2.52.86-5,1.44-7.49l.75-3.32a17.2,17.2,0,0,1,.59-2.15,4.31,4.31,0,0,1,1.32-2c.49-.37.69.13.9.72.11.31.23.64.34,1a1.77,1.77,0,0,1,0,1c-.86,2.44-1.51,5.26-2.26,8a37.67,37.67,0,0,0-.78,5.23c-.23,1.93-.43,3.87-.56,5.82-.08,1.19-.14,2.39-.15,3.58a35.86,35.86,0,0,0,.24,5.4,11.29,11.29,0,0,0,1.19,3.72,3.47,3.47,0,0,0,.41.51c.24.25.18.17.22.32a3,3,0,0,0,.37.56c.1.12.22.23.31.35a.52.52,0,0,1-.05.72,1.1,1.1,0,0,1-.6.33,1.73,1.73,0,0,1-1.06-.09,3.2,3.2,0,0,1-1.24-.92,6.09,6.09,0,0,1-.68-1,10.51,10.51,0,0,1-.78-2.07,22.71,22.71,0,0,1-.63-4.12,55.55,55.55,0,0,1,0-6Z"/><path class="cls-1" d="M239.26,178.33c-.15-.33.09-.63.57-.9a.91.91,0,0,1,.69,0,4.59,4.59,0,0,1,.37.57,21,21,0,0,1,.36,2.76,6.93,6.93,0,0,1-.2,2.1,6.35,6.35,0,0,1-1,2.21,4.47,4.47,0,0,1-2.14,1.55,3.19,3.19,0,0,1-1.08.21,6.64,6.64,0,0,1-3.62-.82,2.37,2.37,0,0,0-.53-.31,4.57,4.57,0,0,1-1.4-1.29,8.54,8.54,0,0,1-1-1.55c-.31-.86-.6-1.69-.85-2.51,0-.12-.11-.22-.07-.36a1.28,1.28,0,0,0-.15-.78,9.9,9.9,0,0,1-.33-1,2.15,2.15,0,0,1,0-.57c0-.18.31-.24.36-.2s.22-.08.33-.15l.11-.06a13.43,13.43,0,0,1,1.51,1.89l.23.45.5.94a12.15,12.15,0,0,0,.9,1.44,2.49,2.49,0,0,1,.22.43,5.4,5.4,0,0,0,.72.82,6.74,6.74,0,0,0,.79.57l.43.22a1.46,1.46,0,0,1,.43.25.34.34,0,0,0,.2,0,3.83,3.83,0,0,0,1.76-.25,1,1,0,0,0,.35-.24,1.67,1.67,0,0,0,.28-.31s.1-.05.13-.1a1.07,1.07,0,0,0,.14-.16,5.28,5.28,0,0,0,.6-2.53,14.47,14.47,0,0,0,.19-1.56C239,179,239.32,178.47,239.26,178.33Z"/><path class="cls-1" d="M255,176c-.13-.31.13-.57.62-.77a1,1,0,0,1,.7.06,3.49,3.49,0,0,1,.32.5c0,.1.26,1.77.32,2.38a7.1,7.1,0,0,1,0,1.78,8.85,8.85,0,0,1-.46,1.93,5.11,5.11,0,0,1-1.22,1.93,2.73,2.73,0,0,1-.92.59,5.83,5.83,0,0,1-1.75.42,3.17,3.17,0,0,1-1-.07,4.15,4.15,0,0,1-1-.37A2.81,2.81,0,0,0,250,184a3.81,3.81,0,0,1-1.18-1.42,6.71,6.71,0,0,1-.62-1.55c-.13-.83-.22-1.6-.27-2.37,0-.11-.06-.22,0-.34a1,1,0,0,0,0-.71,6.24,6.24,0,0,1-.06-1,1.64,1.64,0,0,1,.14-.5c.05-.15.35-.14.4-.09s.23,0,.35-.06l.12,0a13.28,13.28,0,0,1,1,1.89l.12.42c.07.25.17.57.27.89a9,9,0,0,0,.55,1.38,1.07,1.07,0,0,1,.1.4,3.89,3.89,0,0,0,.5.75,1.91,1.91,0,0,0,.34.32.54.54,0,0,1,.14.08c.07.06.12,0,.18.09s.09.08.21.11.09,0,.13,0A1.92,1.92,0,0,0,254,181c0-.06.06-.1.08-.15a.72.72,0,0,0,.11-.19,8.15,8.15,0,0,0,.3-2.48c0-.19.23-1.18.2-1.43S255,176.12,255,176Z"/><path class="cls-1" d="M93.34,404.29c0,.12-.19.07-.4-.07a.71.71,0,0,1-.21-.27,1,1,0,0,1,0-.25s.4-.49.52-.65a2.16,2.16,0,0,1,.41-.39l.9-.74a1,1,0,0,1,.22-.13,2.9,2.9,0,0,0,.73-.51.19.19,0,0,0,.09-.12,3.85,3.85,0,0,1,.75-.63c.25-.11.47-.23.71-.35a.14.14,0,0,1,.11,0c.12,0,.17,0,.24-.08a1.59,1.59,0,0,1,.29-.15.34.34,0,0,1,.2,0c.07,0,.14.13.14.15s.06.1.1.14l0,.05a3.06,3.06,0,0,1-.37.68s-.68.65-.75.73a.32.32,0,0,1-.14.08s-.55.55-.58.56-.22.22-.39.24l-.08.05a5,5,0,0,1-.64.47,3.76,3.76,0,0,0-.31.25s0,0-.07,0l-.08.05c-.25.21-.52.37-.75.6,0,0-.39.19-.44.25S93.35,404.24,93.34,404.29Z"/><path class="cls-1" d="M97.55,404.11c.11,0,.06.16-.09.37a.85.85,0,0,1-.28.21H97s-.44-.33-.59-.44a2.32,2.32,0,0,1-.35-.35c-.2-.26-.42-.52-.63-.78a.76.76,0,0,1-.12-.19,2,2,0,0,0-.43-.64s0-.07-.1-.08a2.68,2.68,0,0,1-.56-.64c-.08-.22-.18-.42-.28-.63,0,0-.05-.05,0-.1a.2.2,0,0,0-.06-.21,1.34,1.34,0,0,1-.13-.27s0-.11,0-.18.14-.13.16-.13.1-.07.14-.11l0,0a2.46,2.46,0,0,1,.61.3l.65.64a.27.27,0,0,1,.07.13s.48.47.49.49.19.19.21.35a.07.07,0,0,0,0,.06,5.66,5.66,0,0,1,.4.56,2.88,2.88,0,0,0,.22.27.19.19,0,0,1,0,.07.25.25,0,0,0,0,.07,8.06,8.06,0,0,0,.52.64s.16.35.22.4S97.51,404.1,97.55,404.11Z"/><path class="cls-1" d="M95,405.09c0,.11-.1.16-.35.18a1,1,0,0,1-.34-.09,1.51,1.51,0,0,1-.12-.2s0-.59,0-.78a2.33,2.33,0,0,1,.07-.53c.08-.35.15-.7.23-1.06a1,1,0,0,1,.09-.22,2.49,2.49,0,0,0,.24-.79c0-.05,0-.09,0-.14a3.2,3.2,0,0,1,.18-.9c.13-.22.22-.44.33-.66,0,0,0-.07.06-.09a.25.25,0,0,0,.14-.2,1.23,1.23,0,0,1,.13-.29.65.65,0,0,1,.15-.12c.05,0,.19,0,.2.05s.11,0,.17,0h.06a3.08,3.08,0,0,1,.14.71s-.12.88-.12,1a.35.35,0,0,1-.06.14s-.09.72-.09.75,0,.28-.16.4,0,.05,0,.08a4.14,4.14,0,0,1-.2.71c0,.12,0,.25-.08.37l0,.06s0,.05,0,.08a8.44,8.44,0,0,0-.2.87c0,.07-.18.37-.19.45S95,405.05,95,405.09Z"/><path class="cls-1" d="M98,401.78c.09-.07.16.06.21.31a.78.78,0,0,1,0,.35.81.81,0,0,1-.16.16s-.54.1-.71.14a1.63,1.63,0,0,1-.49,0l-1,0a.85.85,0,0,1-.22,0,2.19,2.19,0,0,0-.76-.11.17.17,0,0,0-.13,0,3,3,0,0,1-.85,0c-.21-.08-.43-.14-.65-.21,0,0-.07,0-.09,0a.23.23,0,0,0-.2-.1,1.57,1.57,0,0,1-.29-.08.71.71,0,0,1-.13-.12.25.25,0,0,1,0-.21s0-.11,0-.18v-.06a2.77,2.77,0,0,1,.63-.26l.91-.05a.4.4,0,0,1,.15,0s.66,0,.69,0a.78.78,0,0,1,.39.08.12.12,0,0,0,.08,0,3.92,3.92,0,0,1,.68.07c.12,0,.23,0,.35,0l.06,0s.05,0,.08,0a7.68,7.68,0,0,0,.83,0c.06,0,.36.12.43.11S98,401.8,98,401.78Z"/><g class="cls-2"><path class="cls-1" d="M126.56,390.4c0,.07-.12.05-.25,0a.48.48,0,0,1-.13-.17l0-.15s.26-.31.34-.41a1.66,1.66,0,0,1,.27-.26l.58-.47.14-.09a1.85,1.85,0,0,0,.46-.33s.06,0,.07-.07a2.41,2.41,0,0,1,.48-.41l.45-.23s0,0,.07,0a.18.18,0,0,0,.15-.06l.19-.1a.28.28,0,0,1,.13,0s.08.08.08.09,0,.06.06.09l0,0a2,2,0,0,1-.24.42l-.49.47a.16.16,0,0,1-.09.05l-.37.36a.63.63,0,0,1-.26.16s0,0-.05,0a3.08,3.08,0,0,1-.41.3l-.2.17,0,0-.06,0c-.15.14-.33.24-.48.39s-.25.13-.28.17S126.57,390.37,126.56,390.4Z"/><path class="cls-1" d="M129.27,390.31c.07,0,0,.1-.05.23a.42.42,0,0,1-.16.12h-.14s-.28-.22-.37-.29a1,1,0,0,1-.23-.23l-.41-.5a.35.35,0,0,1-.07-.12,1.49,1.49,0,0,0-.28-.41.13.13,0,0,0-.07-.05,1.82,1.82,0,0,1-.35-.42c-.06-.14-.13-.26-.19-.4s0,0,0-.06,0-.1,0-.14a.51.51,0,0,1-.09-.16.48.48,0,0,1,0-.12s.08-.08.09-.08.06,0,.09-.06l0,0a1.35,1.35,0,0,1,.38.19s.37.38.42.42a.3.3,0,0,1,0,.08s.31.31.32.32.12.12.13.22,0,0,0,.05a3.32,3.32,0,0,1,.26.36,2.09,2.09,0,0,0,.14.17.06.06,0,0,1,0,0l0,.05a4.23,4.23,0,0,0,.33.41s.11.22.14.25S129.24,390.3,129.27,390.31Z"/><path class="cls-1" d="M127.64,390.93c0,.07-.06.1-.21.11a.43.43,0,0,1-.21-.05.42.42,0,0,1-.07-.13s0-.38,0-.5a1.27,1.27,0,0,1,0-.34l.15-.68a.88.88,0,0,1,.05-.15,1.52,1.52,0,0,0,.16-.51s0-.05,0-.09a2.32,2.32,0,0,1,.12-.57c.07-.15.14-.29.2-.43s0,0,0-.06.07-.08.08-.13l.08-.18a.27.27,0,0,1,.1-.08s.11,0,.12,0,.06,0,.1,0h0a2,2,0,0,1,.07.45s-.08.57-.08.63a.18.18,0,0,1,0,.09s-.06.46-.06.48a.64.64,0,0,1-.1.26s0,0,0,.05a2.42,2.42,0,0,1-.13.46c0,.08,0,.16-.05.24l0,0s0,0,0,.05a5.66,5.66,0,0,0-.13.56c0,.05-.11.24-.12.29S127.63,390.9,127.64,390.93Z"/><path class="cls-1" d="M129.6,388.81c.06,0,.1,0,.14.19a.47.47,0,0,1,0,.21.87.87,0,0,1-.11.09s-.34.06-.45.09a1.74,1.74,0,0,1-.32,0l-.65,0a.35.35,0,0,1-.14,0,1.65,1.65,0,0,0-.49-.06s-.06,0-.08,0a1.7,1.7,0,0,1-.55,0l-.42-.13s-.05,0-.06,0a.13.13,0,0,0-.13-.06l-.18-.05s-.06,0-.09-.07,0-.12,0-.13,0-.07,0-.1v0a2.19,2.19,0,0,1,.41-.16s.53,0,.58,0a.16.16,0,0,1,.1,0l.44,0a.48.48,0,0,1,.26.05h.05a3.49,3.49,0,0,1,.44.05h.26l.05,0a4.7,4.7,0,0,0,.53,0l.28.07S129.57,388.82,129.6,388.81Z"/></g><path class="cls-1" d="M171.34,388.45c0,.08-.11.05-.24,0a.39.39,0,0,1-.13-.17.8.8,0,0,1,0-.15,3.76,3.76,0,0,1,.34-.41,1.23,1.23,0,0,1,.26-.25l.58-.48.14-.09a2,2,0,0,0,.47-.32.17.17,0,0,0,.06-.08,2.14,2.14,0,0,1,.49-.4l.45-.24s0,0,.07,0a.23.23,0,0,0,.15-.05,1.18,1.18,0,0,1,.19-.11h.12s.08.08.08.09,0,.06.07.09,0,0,0,0a2.11,2.11,0,0,1-.25.42s-.44.42-.48.47a.33.33,0,0,1-.1.06l-.37.35c-.08.06-.14.14-.25.16a.09.09,0,0,0,0,0,2.86,2.86,0,0,1-.41.3l-.2.17,0,0s0,0-.05,0a4.54,4.54,0,0,0-.48.39s-.25.12-.29.16S171.36,388.42,171.34,388.45Z"/><path class="cls-1" d="M174.06,388.36c.07,0,0,.1-.05.23a.48.48,0,0,1-.17.13l-.14,0s-.28-.21-.37-.28a2.39,2.39,0,0,1-.22-.23c-.13-.17-.27-.34-.41-.5a.33.33,0,0,1-.07-.13,1.86,1.86,0,0,0-.28-.41.18.18,0,0,0-.07,0,2,2,0,0,1-.36-.41,2.93,2.93,0,0,0-.19-.4s0,0,0-.07a.11.11,0,0,0,0-.13,1.3,1.3,0,0,1-.08-.17.2.2,0,0,1,0-.11s.08-.08.09-.08.06,0,.08-.07l0,0a2.07,2.07,0,0,1,.39.2s.37.38.41.41,0,.06,0,.09.3.3.31.31a.59.59,0,0,1,.14.23.05.05,0,0,0,0,0,3,3,0,0,1,.26.36c0,.06.1.11.14.17s0,0,0,0,0,0,0,.05.21.29.34.41.1.22.14.26S174,388.35,174.06,388.36Z"/><path class="cls-1" d="M172.42,389c0,.07-.06.1-.21.11a.37.37,0,0,1-.2,0,.57.57,0,0,1-.08-.13s0-.37,0-.49a1.41,1.41,0,0,1,.05-.35c0-.22.09-.45.15-.68a.58.58,0,0,1,.05-.14,2,2,0,0,0,.16-.51.27.27,0,0,0,0-.09,1.92,1.92,0,0,1,.11-.58c.08-.14.14-.29.21-.43s0-.05,0-.06a.16.16,0,0,0,.08-.13,1.42,1.42,0,0,1,.08-.18.73.73,0,0,1,.09-.08s.11,0,.12,0,.07,0,.1,0h0a2,2,0,0,1,.08.45s-.08.57-.09.63a.29.29,0,0,1,0,.1s-.06.46-.06.47,0,.19-.1.26a.07.07,0,0,0,0,.06,3.81,3.81,0,0,1-.13.45c0,.08,0,.16-.05.24l0,0,0,.05a5.59,5.59,0,0,0-.12.56c0,.05-.12.24-.12.29S172.41,389,172.42,389Z"/><path class="cls-1" d="M174.38,386.86c.06,0,.11,0,.14.19a.69.69,0,0,1,0,.21.87.87,0,0,1-.11.09,4.16,4.16,0,0,1-.46.09,1.13,1.13,0,0,1-.32,0l-.64,0-.14,0a1.42,1.42,0,0,0-.49-.07.15.15,0,0,0-.09,0,2,2,0,0,1-.54,0c-.14-.05-.29-.08-.43-.12s0,0-.06,0-.08-.05-.13-.06a.61.61,0,0,1-.18-.05.18.18,0,0,1-.08-.07.12.12,0,0,1,0-.12s0-.07,0-.11v0a1.58,1.58,0,0,1,.4-.15l.59,0s.06,0,.09,0,.43,0,.45,0a.45.45,0,0,1,.25.05h.05a3.12,3.12,0,0,1,.44,0h.23l0,0h.05a4.7,4.7,0,0,0,.53,0,2.29,2.29,0,0,0,.28.07S174.36,386.88,174.38,386.86Z"/><path class="cls-1" d="M124.62,327.42c-.07-.11,0-.2.29-.29a.69.69,0,0,1,.35,0,1,1,0,0,1,.18.17s.16.6.22.8a2.1,2.1,0,0,1,.07.56c0,.39,0,.78.07,1.16a.76.76,0,0,1,0,.26,3,3,0,0,0,0,.89s0,.1,0,.14a3.52,3.52,0,0,1,.07,1c-.06.26-.09.52-.13.78,0,0,0,.07,0,.11s-.08.16-.08.24a1.88,1.88,0,0,1,0,.33c0,.06-.07.11-.11.17s-.19,0-.2,0-.12,0-.18,0H125a3,3,0,0,1-.33-.69s-.13-.94-.15-1.05a.44.44,0,0,1,0-.16s-.12-.76-.12-.79a.9.9,0,0,1,0-.46.17.17,0,0,0,0-.1,7,7,0,0,1,0-.79c0-.13,0-.27,0-.4a.14.14,0,0,1,0-.07.18.18,0,0,0,0-.1,7.46,7.46,0,0,0,0-.95c0-.08.08-.43.06-.51S124.65,327.46,124.62,327.42Z"/><path class="cls-1" d="M122.29,330.93c-.09.07-.17-.05-.25-.29a.82.82,0,0,1,0-.35.86.86,0,0,1,.14-.18s.53-.16.69-.21a1.73,1.73,0,0,1,.5-.07l1-.06a.55.55,0,0,1,.22,0,2.22,2.22,0,0,0,.77,0,.17.17,0,0,0,.13,0,2.59,2.59,0,0,1,.84-.06c.23.06.45.09.68.14,0,0,.07,0,.1,0a.19.19,0,0,0,.2.08,1.35,1.35,0,0,1,.29.05c.05,0,.1.07.15.11a.24.24,0,0,1,0,.2c0,.05,0,.12,0,.18v.06a2.84,2.84,0,0,1-.6.33l-.9.14a.39.39,0,0,1-.15,0l-.68.11a.7.7,0,0,1-.4,0H125a5.3,5.3,0,0,1-.69,0l-.35,0-.06,0h-.08a5.78,5.78,0,0,0-.83.05c-.06,0-.37-.09-.44-.07S122.33,330.9,122.29,330.93Z"/><path class="cls-1" d="M123,328.31c-.11,0-.07-.18.07-.39a.67.67,0,0,1,.27-.22h.23s.48.35.64.45a2.23,2.23,0,0,1,.38.37c.24.28.49.54.72.81a.77.77,0,0,1,.14.21,2.63,2.63,0,0,0,.49.66.23.23,0,0,0,.11.08,2.89,2.89,0,0,1,.62.68c.11.22.23.43.35.65,0,0,0,.05,0,.1a.27.27,0,0,0,.08.23,1.75,1.75,0,0,1,.16.27.59.59,0,0,1,0,.19c0,.06-.13.14-.16.14s-.09.07-.13.11l0,0a2.94,2.94,0,0,1-.65-.31s-.64-.61-.72-.67a.39.39,0,0,1-.08-.14s-.53-.49-.55-.51-.21-.19-.24-.36a.1.1,0,0,0,0-.07,5.09,5.09,0,0,1-.46-.58,3.47,3.47,0,0,0-.25-.29l0-.06a.2.2,0,0,0,0-.08c-.21-.21-.36-.47-.59-.67-.05,0-.19-.36-.25-.41S123,328.32,123,328.31Z"/><path class="cls-1" d="M123.89,332.69c0,.12-.15.1-.38,0a.44.44,0,0,1-.3-.46s.23-.5.3-.66a1.86,1.86,0,0,1,.28-.41l.62-.79a.61.61,0,0,1,.17-.15,2.13,2.13,0,0,0,.53-.55.26.26,0,0,0,0-.12,2.8,2.8,0,0,1,.52-.68c.19-.12.37-.27.55-.41,0,0,0,0,.09,0s.15-.05.2-.1a1.41,1.41,0,0,1,.23-.18.32.32,0,0,1,.18,0c.06,0,.16.1.16.12s.08.08.13.12a.1.1,0,0,1,0,0,2.53,2.53,0,0,1-.16.66s-.45.68-.49.76-.07.07-.11.1-.36.56-.37.58-.15.23-.3.27,0,0-.06.06a4.41,4.41,0,0,1-.46.51,2.88,2.88,0,0,0-.22.27l0,0-.07.05c-.16.23-.38.41-.52.65,0,.06-.3.22-.34.29S123.89,332.65,123.89,332.69Z"/><g class="cls-2"><path class="cls-1" d="M98.1,354.82c0-.07,0-.13.17-.19a.49.49,0,0,1,.21,0l.11.11s.1.39.13.52a2.23,2.23,0,0,1,0,.36c0,.25,0,.5,0,.75a1,1,0,0,1,0,.17,1.82,1.82,0,0,0,0,.57.15.15,0,0,0,0,.09,2.6,2.6,0,0,1,0,.63,4.33,4.33,0,0,0-.08.5s0,.05,0,.07-.05.1-.05.16a.76.76,0,0,1,0,.21s0,.07-.06.11-.11,0-.12,0-.07,0-.11,0h0a2.74,2.74,0,0,1-.2-.45s-.07-.6-.09-.67,0-.07,0-.11-.07-.49-.07-.51a.58.58,0,0,1,0-.29.13.13,0,0,0,0-.06,2.9,2.9,0,0,1,0-.51,2.11,2.11,0,0,0,0-.26s0,0,0,0,0,0,0-.06c0-.2,0-.41,0-.61s0-.28,0-.33S98.11,354.84,98.1,354.82Z"/><path class="cls-1" d="M96.58,357.06c-.06.05-.11,0-.16-.17a.52.52,0,0,1,0-.21l.1-.11.45-.13a1.1,1.1,0,0,1,.31,0l.65,0h.14a1.4,1.4,0,0,0,.5,0,.09.09,0,0,0,.08,0,2.46,2.46,0,0,1,.55,0c.14,0,.29.06.43.09s0,0,.06,0a.14.14,0,0,0,.14.05l.18,0a.3.3,0,0,1,.1.07.17.17,0,0,1,0,.12s0,.07,0,.11v0a1.43,1.43,0,0,1-.39.2s-.52.07-.58.09h-.09s-.43.06-.44.06-.17,0-.26,0h0a3.38,3.38,0,0,1-.45,0l-.22,0h-.09a3.26,3.26,0,0,0-.54,0s-.24-.05-.28,0S96.6,357.05,96.58,357.06Z"/><path class="cls-1" d="M97,355.38c-.07,0-.05-.11,0-.24a.38.38,0,0,1,.16-.13h.15l.4.3a1.88,1.88,0,0,1,.25.24c.15.17.31.34.46.52l.09.13a1.46,1.46,0,0,0,.32.42s0,.05.07.06a2.35,2.35,0,0,1,.4.43c.07.15.15.28.22.42s0,0,0,.07,0,.1,0,.14a.59.59,0,0,1,.1.17s0,.08,0,.12-.07.09-.09.08,0,.05-.08.07l0,0a2.28,2.28,0,0,1-.41-.21l-.46-.44a.22.22,0,0,1,0-.08s-.34-.32-.35-.33-.14-.13-.16-.23a.05.05,0,0,0,0-.05,3.37,3.37,0,0,1-.29-.37c0-.07-.11-.12-.16-.19s0,0,0,0l0,0a5.08,5.08,0,0,0-.38-.43s-.12-.23-.16-.26S97.07,355.39,97,355.38Z"/><path class="cls-1" d="M97.6,358.21c0,.07-.1.06-.24,0a.56.56,0,0,1-.16-.14.71.71,0,0,1,0-.14s.15-.31.2-.42a1.2,1.2,0,0,1,.18-.26l.4-.51a.36.36,0,0,1,.11-.1,1.42,1.42,0,0,0,.33-.36.1.1,0,0,0,0-.07,2,2,0,0,1,.33-.44c.13-.08.24-.17.36-.26s0,0,0,0a.13.13,0,0,0,.13-.07l.14-.12.11,0s.1.06.1.07,0,.05.08.07l0,0a1.87,1.87,0,0,1-.11.42,4.65,4.65,0,0,0-.32.49l-.08.06-.24.37c-.06.06-.09.15-.19.18s0,0,0,0a3.18,3.18,0,0,1-.3.33l-.14.18,0,0,0,0c-.1.15-.24.27-.33.42s-.2.15-.22.19S97.6,358.18,97.6,358.21Z"/></g><g class="cls-2"><path class="cls-1" d="M217.1,404.73c0-.07,0-.13.17-.19a.49.49,0,0,1,.21,0l.11.11s.1.39.13.52a2.23,2.23,0,0,1,.05.36c0,.25,0,.5,0,.75a1,1,0,0,1,0,.17,1.82,1.82,0,0,0,0,.57.15.15,0,0,0,0,.09,2.6,2.6,0,0,1,.05.63c0,.17-.05.33-.08.5,0,0,0,.05,0,.07s0,.1,0,.16a1.49,1.49,0,0,1,0,.21.34.34,0,0,1-.07.11s-.11,0-.12,0-.07,0-.11,0h0a2.1,2.1,0,0,1-.19-.45s-.08-.6-.09-.67a.22.22,0,0,1,0-.11s-.08-.49-.08-.51a.74.74,0,0,1,0-.29s0,0,0-.06a2.9,2.9,0,0,1,0-.51,2.11,2.11,0,0,0,0-.26s0,0,0-.05a.13.13,0,0,0,0-.06c0-.2,0-.41,0-.61s0-.28,0-.33S217.12,404.75,217.1,404.73Z"/><path class="cls-1" d="M215.58,407c-.06,0-.11,0-.16-.17a.49.49,0,0,1,0-.21l.09-.11.45-.13a1.12,1.12,0,0,1,.32,0l.64,0h.15a1.35,1.35,0,0,0,.49,0s.06,0,.08,0a2.46,2.46,0,0,1,.55,0c.14,0,.29.06.43.09s0,0,.07,0a.12.12,0,0,0,.13.05l.19,0a.28.28,0,0,1,.09.07s0,.11,0,.12,0,.07,0,.11v0a1.52,1.52,0,0,1-.38.2s-.53.07-.59.09h-.09s-.42.06-.44.06-.17,0-.26,0h0a3.23,3.23,0,0,1-.44,0l-.23,0h-.09a3.08,3.08,0,0,0-.53,0s-.24-.05-.29,0S215.6,407,215.58,407Z"/><path class="cls-1" d="M216,405.29c-.07,0,0-.11,0-.24a.57.57,0,0,1,.16-.13h.15s.3.23.4.3a1.42,1.42,0,0,1,.25.24c.15.17.31.34.46.52a.38.38,0,0,1,.09.13,1.46,1.46,0,0,0,.32.42.13.13,0,0,0,.07.06,2.35,2.35,0,0,1,.4.43c.07.15.15.28.23.42s0,0,0,.07,0,.1,0,.14a1,1,0,0,1,.11.17.45.45,0,0,1,0,.12s-.08.09-.09.08-.06.05-.09.07l0,0a2.35,2.35,0,0,1-.42-.21l-.46-.44a.56.56,0,0,1-.05-.08s-.34-.32-.35-.33-.13-.13-.15-.23l0,0a3.47,3.47,0,0,1-.3-.37c-.05-.07-.11-.12-.16-.19l0,0s0,0,0-.05a5.08,5.08,0,0,0-.38-.43s-.12-.23-.16-.26S216.07,405.3,216,405.29Z"/><path class="cls-1" d="M216.6,408.12c0,.07-.09.06-.23,0s-.16-.11-.16-.14a.78.78,0,0,1,0-.14s.15-.31.2-.42a1.2,1.2,0,0,1,.18-.26l.4-.51a.52.52,0,0,1,.11-.1,1.46,1.46,0,0,0,.34-.36.15.15,0,0,0,0-.07,2,2,0,0,1,.34-.44l.35-.26s0,0,.05,0,.1,0,.13-.07l.14-.12.12,0s.09.06.09.07.05.05.08.07l0,0a1.45,1.45,0,0,1-.11.42s-.29.43-.32.49l-.07.06s-.23.36-.25.37-.09.15-.18.18l0,0a3.18,3.18,0,0,1-.3.33l-.14.18,0,0,0,0c-.11.15-.25.27-.34.42s-.19.15-.22.19S216.6,408.09,216.6,408.12Z"/></g><g class="cls-2"><path class="cls-1" d="M270.34,418.2c0-.06,0-.12.18-.18a.34.34,0,0,1,.2,0,.38.38,0,0,1,.11.11s.1.39.14.51a1.55,1.55,0,0,1,0,.37c0,.25,0,.5.05.74a.88.88,0,0,1,0,.17,2.18,2.18,0,0,0,0,.57s0,.07,0,.09a2.69,2.69,0,0,1,0,.64c0,.16-.05.33-.08.5a.07.07,0,0,1,0,.07.17.17,0,0,0,0,.15,1.92,1.92,0,0,1,0,.22.3.3,0,0,1-.07.1s-.11,0-.12,0-.07,0-.1,0h0a2.66,2.66,0,0,1-.2-.45s-.08-.61-.09-.67a.21.21,0,0,1,0-.11s-.07-.49-.07-.51a.61.61,0,0,1,0-.3s0,0,0-.06a4.34,4.34,0,0,1,0-.51c0-.08,0-.17,0-.26a.06.06,0,0,1,0,0s0,0,0-.06c0-.21,0-.41,0-.62,0-.05.05-.27,0-.33S270.36,418.23,270.34,418.2Z"/><path class="cls-1" d="M268.82,420.45c-.05,0-.11,0-.16-.17a.49.49,0,0,1,0-.21l.09-.11a4.66,4.66,0,0,1,.45-.13,1.17,1.17,0,0,1,.32,0l.65,0h.14a1.35,1.35,0,0,0,.49,0,.15.15,0,0,0,.09,0,1.6,1.6,0,0,1,.54,0l.44.08s0,0,.06,0a.12.12,0,0,0,.13.05.63.63,0,0,1,.19,0s.06,0,.09.06a.15.15,0,0,1,0,.13s0,.07,0,.1,0,0,0,0a2,2,0,0,1-.39.19l-.58.09a.17.17,0,0,1-.1,0l-.44.07a.47.47,0,0,1-.26,0h0a2.16,2.16,0,0,1-.44,0h-.32c-.18,0-.35,0-.53,0s-.24,0-.29,0S268.85,420.43,268.82,420.45Z"/><path class="cls-1" d="M269.28,418.77c-.07,0,0-.11,0-.25a.48.48,0,0,1,.17-.13l.14,0a3.73,3.73,0,0,1,.4.29,1.43,1.43,0,0,1,.25.24c.15.18.31.35.47.52l.08.13a1.72,1.72,0,0,0,.32.43s0,.05.07.05a2.1,2.1,0,0,1,.4.44c.07.14.15.28.23.42s0,0,0,.06a.13.13,0,0,0,.05.14,1.62,1.62,0,0,1,.1.18.45.45,0,0,1,0,.12s-.08.08-.09.08-.06,0-.08.07l0,0a1.55,1.55,0,0,1-.41-.2L271,421a.24.24,0,0,1-.06-.08s-.33-.32-.34-.34-.14-.12-.16-.23,0,0,0,0-.2-.25-.3-.38a1.29,1.29,0,0,0-.16-.18s0,0,0,0a.08.08,0,0,0,0-.05c-.13-.14-.24-.3-.38-.43s-.13-.23-.17-.26S269.31,418.77,269.28,418.77Z"/><path class="cls-1" d="M269.84,421.59c0,.07-.09.06-.23,0a.45.45,0,0,1-.16-.14.78.78,0,0,1,0-.14s.16-.32.2-.42a1.59,1.59,0,0,1,.18-.27c.14-.16.27-.34.41-.5a.47.47,0,0,1,.1-.1,1.45,1.45,0,0,0,.34-.36.1.1,0,0,0,0-.08,1.9,1.9,0,0,1,.33-.43c.12-.08.24-.18.35-.27s0,0,.06,0,.09,0,.12-.07l.15-.12s.07,0,.11,0,.09.06.1.07.05,0,.08.07l0,0a1.79,1.79,0,0,1-.12.42l-.32.49a.11.11,0,0,1-.07.06l-.24.38c-.06.06-.1.14-.19.17s0,0,0,0a2.3,2.3,0,0,1-.3.33c-.05.05-.09.12-.14.17l0,0,0,0a4.78,4.78,0,0,0-.34.42s-.19.14-.21.19S269.85,421.57,269.84,421.59Z"/></g><path class="cls-1" d="M176.22,431.34c-.05-.07,0-.13.17-.19a.49.49,0,0,1,.21,0l.11.11s.1.39.13.52a2.23,2.23,0,0,1,0,.36c0,.25,0,.5,0,.75a1,1,0,0,1,0,.17,1.82,1.82,0,0,0,0,.57.15.15,0,0,0,0,.09,2.6,2.6,0,0,1,0,.63,4.33,4.33,0,0,0-.08.5s0,0,0,.07a.18.18,0,0,0,0,.16,1.49,1.49,0,0,1,0,.21.34.34,0,0,1-.07.11s-.11,0-.12,0-.07,0-.11,0h0a2.1,2.1,0,0,1-.19-.45s-.08-.6-.1-.67,0-.07,0-.1-.07-.49-.07-.51a.76.76,0,0,1,0-.3.13.13,0,0,0,0-.06,2.9,2.9,0,0,1,0-.51,2.28,2.28,0,0,0,0-.26s0,0,0-.05a.13.13,0,0,0,0-.06c0-.2,0-.41,0-.61s0-.28,0-.33S176.24,431.36,176.22,431.34Z"/><path class="cls-1" d="M174.7,433.58c-.06.05-.11,0-.16-.17a.37.37,0,0,1,0-.21.45.45,0,0,1,.09-.1,4.66,4.66,0,0,1,.45-.13,1.12,1.12,0,0,1,.31-.05l.65,0a.39.39,0,0,1,.15,0,1.61,1.61,0,0,0,.49,0,.12.12,0,0,0,.08,0,2,2,0,0,1,.55-.05c.14,0,.29.06.43.09s0,0,.06,0a.16.16,0,0,0,.14,0l.18,0a.3.3,0,0,1,.1.07s0,.11,0,.12,0,.07,0,.11v0a1.77,1.77,0,0,1-.39.19s-.52.07-.58.09-.06,0-.09,0-.43.07-.44.06-.17,0-.26,0H176a.89.89,0,0,0-.23,0h-.09a4.89,4.89,0,0,0-.54,0s-.23-.05-.28,0S174.72,433.57,174.7,433.58Z"/><path class="cls-1" d="M175.16,431.9c-.07,0,0-.11,0-.24a.38.38,0,0,1,.16-.13h.15l.4.3a1.88,1.88,0,0,1,.25.24c.15.17.31.34.46.52l.09.13a1.66,1.66,0,0,0,.32.43.13.13,0,0,0,.07,0,2.35,2.35,0,0,1,.4.43c.07.15.15.28.22.42s0,0,0,.07a.16.16,0,0,0,0,.14,1,1,0,0,1,.11.17s0,.08,0,.12-.08.09-.1.09-.05,0-.08.06l0,0a2.28,2.28,0,0,1-.41-.21l-.46-.43a.26.26,0,0,1-.05-.09l-.35-.33a.51.51,0,0,1-.15-.23l0-.05A2.63,2.63,0,0,1,176,433c0-.07-.11-.12-.16-.18l0-.05,0,0a5.2,5.2,0,0,0-.38-.44s-.12-.23-.16-.26S175.19,431.91,175.16,431.9Z"/><path class="cls-1" d="M175.72,434.73c0,.07-.1.06-.24,0s-.15-.11-.15-.14a.59.59,0,0,1,0-.14s.15-.31.2-.42a1.51,1.51,0,0,1,.18-.26l.4-.51a.52.52,0,0,1,.11-.1,1.67,1.67,0,0,0,.34-.36.15.15,0,0,0,0-.07,2,2,0,0,1,.34-.44l.35-.26s0,0,.05,0,.1,0,.13-.06a.53.53,0,0,1,.14-.12.35.35,0,0,1,.11,0s.1.06.1.08.05,0,.08.07l0,0a1.74,1.74,0,0,1-.11.42s-.3.44-.32.49-.05,0-.07.06-.24.36-.25.37-.09.15-.19.18,0,0,0,0a3.06,3.06,0,0,1-.3.32l-.14.18,0,0,0,0c-.1.14-.24.26-.33.41s-.19.15-.22.19S175.72,434.7,175.72,434.73Z"/><path class="cls-1" d="M261.14,216.14a43.62,43.62,0,0,1-5.05,9.9,23.48,23.48,0,0,1-8.38,7.54,20.31,20.31,0,0,1-8,2.25,26.48,26.48,0,0,1-7.22-.52,24.4,24.4,0,0,1-6.73-2.62,36,36,0,0,1-10.52-9.46A76.69,76.69,0,0,1,202.68,198c-.38-1.62.21-1.53,1.1-.36a27,27,0,0,1,3.26,6.15,83.48,83.48,0,0,0,7.06,14.08,43,43,0,0,0,10.35,11.62,22.54,22.54,0,0,0,8.52,3.87c.77.15,1.56.26,2.35.36a23.75,23.75,0,0,0,2.39.11,20.59,20.59,0,0,0,4.71-.49,18.37,18.37,0,0,0,9-4.93,30.2,30.2,0,0,0,6-8.68,64.2,64.2,0,0,0,4.27-12.52,153.06,153.06,0,0,0,3.22-19.94c.55-5.19.81-10.3,1.38-15.47.13-1.14.26-2.26.46-3.41a14.8,14.8,0,0,1,1.34-4.52,2.65,2.65,0,0,1,1.72-1.53,1.34,1.34,0,0,1,.73,0c.12.07.11.18,0,.32a4.13,4.13,0,0,0-.33.56,12,12,0,0,0-1,3,57.34,57.34,0,0,0-1,6.78c-.21,2.34-.43,4.71-.64,7.1-.41,4.78-.88,9.66-1.54,14.54a105,105,0,0,1-4.89,21.54Z"/><path class="cls-1" d="M183.66,179.26a14.25,14.25,0,0,1,.8-9.61,12.13,12.13,0,0,1,1.85-3.06,9.23,9.23,0,0,1,5.43-3.31,6.59,6.59,0,0,1,3.27.25,8.89,8.89,0,0,1,2.77,1.49,19.69,19.69,0,0,1,3.75,3.83,17.84,17.84,0,0,1,3,6c.16.69-.26.71-.86.33a7.16,7.16,0,0,1-2-2.17,29.12,29.12,0,0,0-1.75-2.62A21.71,21.71,0,0,0,198,168c-1.41-1.44-3.08-2.67-4.87-2.81a5.16,5.16,0,0,0-3.27,1,9.59,9.59,0,0,0-2.56,2.67,12.18,12.18,0,0,0-.24,13,15.51,15.51,0,0,0,2.51,3.16,19.34,19.34,0,0,0,3.27,2.42,23.82,23.82,0,0,0,5.83,2.32c.45.12.89.21,1.34.34,1.67.42,2.17.66,2.42,1.32a3.89,3.89,0,0,1,.16.44c.07.47-.71.65-2,.46a24.22,24.22,0,0,1-11.4-4.89,17.7,17.7,0,0,1-3.37-3.59,15.43,15.43,0,0,1-2.13-4.51Z"/><path class="cls-1" d="M194.27,113c-15-8.07-21.58,11.85-15.24,17.67-5.54,9.85-6.56,29.16-6.53,30.19,1.68,67.08-78.62,48.77-77.09,17,.87-17.86,20.89-16.2,22.36-30C127.94,53,198.05,85.58,194.27,113Z"/><path class="cls-1" d="M117.09,154.55a21.2,21.2,0,0,1-5.26,5.11c-1.92,1.39-3.86,2.57-5.69,3.82a28.68,28.68,0,0,0-5,4.11,15.2,15.2,0,0,0-3.24,5.22,18.52,18.52,0,0,0-1,6.16,17.06,17.06,0,0,0,1.15,6.14,25,25,0,0,0,7.65,10.18,43.76,43.76,0,0,0,17.16,8.35,46.92,46.92,0,0,0,16.89,1.21A39.47,39.47,0,0,0,148,203a33.66,33.66,0,0,0,7.55-3.75,32.57,32.57,0,0,0,11-12.6,47.62,47.62,0,0,0,4.61-16.41,67.4,67.4,0,0,0,.38-7.66v-2c0-.7.06-1.33.1-2,.1-1.31.21-2.61.35-3.91a104.2,104.2,0,0,1,2.67-15.4l.69-2.43.82-2.39q.47-1.18,1-2.37l.47-.93c0-.16.25-.34,0-.45a1.57,1.57,0,0,1-.18-.19l-.39-.54a9.29,9.29,0,0,1-.65-1.25,10.08,10.08,0,0,1-.74-2.65,14.62,14.62,0,0,1,.21-5.32,14.34,14.34,0,0,1,5.62-8.86,10.59,10.59,0,0,1,5.15-1.79,12.9,12.9,0,0,1,5.26.83c.51.21.93.4,1.29.57s.6.37.81.51c.4.3.53.49.44.6s-.4.11-.9.05l-2-.33c-.42-.07-.89-.1-1.39-.16s-1-.07-1.59,0a9.23,9.23,0,0,0-3.5.75,9.59,9.59,0,0,0-3.27,2.41,13.42,13.42,0,0,0-2.41,4,13.56,13.56,0,0,0-.9,4.33,9,9,0,0,0,.71,4.1,4.63,4.63,0,0,0,.47.81l.18.25c.14.19.3.32.44.49l.83.93.1.12s0,.09-.05.14l-.14.28-.29.56-.57,1.13c-.22.46-.38.71-.54,1.11a42.9,42.9,0,0,0-1.67,4.53,98.47,98.47,0,0,0-3.5,19.51c-.07.82-.13,1.66-.18,2.47,0,.46,0,.65,0,1.15v1.29c0,.86,0,1.73-.05,2.59s0,1.73-.13,2.59a60.2,60.2,0,0,1-1.57,10.3,40.06,40.06,0,0,1-9.81,18.44,35.35,35.35,0,0,1-10.35,7.4A41.07,41.07,0,0,1,140,207.36a50.07,50.07,0,0,1-25.15-3.62,42.61,42.61,0,0,1-11.92-7.44A30.76,30.76,0,0,1,98.21,191a23.32,23.32,0,0,1-3.1-6.48,19.16,19.16,0,0,1-.74-7.18,19.51,19.51,0,0,1,1.79-7,19,19,0,0,1,4.35-5.75,42.86,42.86,0,0,1,5.61-4.22,50.27,50.27,0,0,0,6.69-4.85,12.12,12.12,0,0,0,3.87-6.66l.16-1,.13-1,.25-2.1c.16-1.41.4-2.8.6-4.2.42-2.8.93-5.59,1.51-8.36a96.89,96.89,0,0,1,8.34-24.35A55.67,55.67,0,0,1,134.82,97a40.42,40.42,0,0,1,4.55-4.61,35.71,35.71,0,0,1,5.24-3.83,33.48,33.48,0,0,1,19.18-4.86A37.35,37.35,0,0,1,182.55,90a34.22,34.22,0,0,1,6.7,5.75,23.3,23.3,0,0,1,5.61,10.36,13,13,0,0,1,.29,3.18c0,.42-.07.81-.12,1.15a9.42,9.42,0,0,1-.26,1,6.93,6.93,0,0,1-.6,1.48c-.16.24-.28.14-.37-.25s-.12-1.06-.23-2a22.11,22.11,0,0,0-2.56-8A30.94,30.94,0,0,0,179.14,91a35,35,0,0,0-16.36-4.68,30.8,30.8,0,0,0-16.5,4.29,40.09,40.09,0,0,0-12.56,12.15c-5,7.31-8.23,15.83-10.5,24.54-1.13,4.37-2,8.81-2.71,13.29L120,144l-.41,3.37-.1.86-.15,1a14.1,14.1,0,0,1-.47,1.89,13.86,13.86,0,0,1-1.72,3.52Z"/><path class="cls-1" d="M236.8,235.75c-18.53-2.3-19.23-10.79-22.41-13.2-1.76,5.66,1.26,11.25,4.06,14C226.59,244.4,236.08,237.71,236.8,235.75Z"/><path class="cls-1" d="M215,234.25a16.8,16.8,0,0,1-1.91-4.83,16.25,16.25,0,0,1-.35-2.6v-.66a5.65,5.65,0,0,1,.05-1,15.48,15.48,0,0,1,.31-2l.69-2.73c.32.24.68.6,1,.89s.6.56.9.88l.8.95c.25.32.47.69.71,1l.95,1.44A19.07,19.07,0,0,0,220,228a18.41,18.41,0,0,0,4.68,3.61,21.4,21.4,0,0,0,2.44,1.1l1.26.46,1.29.36c2.19.66,4.49,1,6.74,1.51.7.18.56.59-.11.92a5.81,5.81,0,0,1-3.25.43,29.26,29.26,0,0,1-7.14-2,20.53,20.53,0,0,1-6.35-4.1,27.73,27.73,0,0,1-3-3.48l-1-1.36a4,4,0,0,0-.46-.57s-.08-.11-.09-.07a3.7,3.7,0,0,0-.19.73c0,.15,0,.25,0,.46a9.57,9.57,0,0,0,0,1.07,13.34,13.34,0,0,0,1,4.23,14.74,14.74,0,0,0,3.14,4.7,11.57,11.57,0,0,0,7.58,3.54,11.75,11.75,0,0,0,6.22-1.69,13.27,13.27,0,0,0,1.18-.77c1.44-1,1.73-1.33,2.4-1.28l.48-.06c.24,0,.38.19.27.7a2.68,2.68,0,0,1-.33.73,6.2,6.2,0,0,1-.66.81,13.39,13.39,0,0,1-6,3.26A12.66,12.66,0,0,1,223,241a13.55,13.55,0,0,1-4.63-2.71,15.15,15.15,0,0,1-3.41-4Z"/><path class="cls-1" d="M173.42,362.93a168,168,0,0,1-10.52-26.36A190.77,190.77,0,0,1,156.54,309a158,158,0,0,1-1.95-20.59,112.55,112.55,0,0,1,.95-18.25,68.47,68.47,0,0,1,4.67-17.73,41.07,41.07,0,0,1,4.53-8.07,30.32,30.32,0,0,1,6.45-6.69,29,29,0,0,1,8.25-4.3,32,32,0,0,1,9.13-1.52l2.05,0,2,.12a10.23,10.23,0,0,1,4.19.94,27.64,27.64,0,0,1,6.52,5.1c3.83,3.85,7.22,8,10.86,11.81a64.68,64.68,0,0,0,7.4,6.86,29.89,29.89,0,0,0,4.17,2.69l1.12.5.56.26.57.18,1.16.38,1.18.22a12,12,0,0,0,9-2.3,30.56,30.56,0,0,0,6.85-7.17c2.35-3.45,2.49-2.78.91.53a27.64,27.64,0,0,1-4.34,6.27c-.59.56-1.16,1.18-1.85,1.74l-1.1.81a7.35,7.35,0,0,1-1.19.77l-1.32.68a9.6,9.6,0,0,1-1.45.53,14,14,0,0,1-3.16.6,18.33,18.33,0,0,1-10.63-3.44,51.09,51.09,0,0,1-8.19-7c-5-5-9.24-10.64-14.21-15.2a20.6,20.6,0,0,0-3.92-2.79l-1-.41-1-.22-2.51-.16a33.5,33.5,0,0,0-9.95,1,25.91,25.91,0,0,0-8.91,4.37,30.15,30.15,0,0,0-6.81,7.38c-4.48,6.83-6.76,15.19-7.86,23.59a122.37,122.37,0,0,0-.36,25.6A177.88,177.88,0,0,0,162,323.87a181.12,181.12,0,0,0,8.66,26.82,137.45,137.45,0,0,0,7.52,15.61,91.7,91.7,0,0,0,9.72,14.26,51.71,51.71,0,0,0,9.43,8.92,26.81,26.81,0,0,0,11.69,5,18,18,0,0,0,6.32-.1,29.66,29.66,0,0,0,6.14-1.83A59.94,59.94,0,0,0,232.61,386c2.74-2,5.36-4.08,7.88-6.29s5-4.47,7.39-6.8c4.8-4.65,9.4-9.5,14-14.37,2-2.15,4-4.27,6.1-6.41a80.51,80.51,0,0,1,8.68-8.06,11.72,11.72,0,0,1,4.79-2.5,7.15,7.15,0,0,1,.91-.14,3.59,3.59,0,0,1,.74.05c.27.06.19.21-.13.42a15.48,15.48,0,0,0-1.64,1.06,66.22,66.22,0,0,0-6.64,6c-8.39,8.47-16.55,17.8-25.69,26.48a145,145,0,0,1-14.55,12.38,68.29,68.29,0,0,1-8.23,5.23,38.24,38.24,0,0,1-9.31,3.62,23.26,23.26,0,0,1-7.63.44,25.82,25.82,0,0,1-7.34-2,36.73,36.73,0,0,1-6.48-3.73,50.47,50.47,0,0,1-5.59-4.8c-6.95-6.9-12.12-15.16-16.52-23.66Z"/><path class="cls-1" d="M261.69,270.23c0-2.38-.14-4.76-.4-7.11-.11-.86-.27-1.71-.42-2.55a33.7,33.7,0,0,0-.94-4.4,15.5,15.5,0,0,0-1.67-4.09,7,7,0,0,0-2.69-2.58,8.13,8.13,0,0,0-4.66-.54c-.51,0-.58-.38-.21-.9a3.33,3.33,0,0,1,.88-.79,3.92,3.92,0,0,1,1.54-.39,7.93,7.93,0,0,1,5.69,2.5,12.86,12.86,0,0,1,2.89,5.11,46.81,46.81,0,0,1,1.65,6.65,68.1,68.1,0,0,1,.66,7.38c.06,1.51.07,3,.09,4.53,0,2.28-.07,4.57-.08,6.83,0,1.76.09,3.49.12,5.23,0,.38,0,.75,0,1.14,0,1.43-.21,1.87-.87,2.15a3,3,0,0,1-.44.17c-.51.12-.88-.49-1-1.53-.28-3.11-.21-6.34-.2-9.58,0-2.41,0-4.82-.05-7.22Z"/><path class="cls-1" d="M203.7,337.71l-1.82-3.54-1.71-3.58c-.4-.88-.87-1.72-1.27-2.6-1.35-3.12-2.66-6.25-3.85-9.42-.55-1.4-1.13-2.79-1.72-4.16a34.35,34.35,0,0,1-1.9-5.44c-.13-.6.29-.65.88-.33a4.7,4.7,0,0,1,1.84,2c.85,1.74,1.68,3.49,2.41,5.28s1.51,3.58,2.16,5.43a67.51,67.51,0,0,0,3,6.5c.56,1.19,1.12,2.38,1.72,3.55s1.16,2.36,1.78,3.51c.73,1.44,1.52,2.85,2.33,4.25a56.68,56.68,0,0,0,4,6.1,20.43,20.43,0,0,0,1.83,2.09c.32.33.62.68,1,1l1,.89c.29.27.6.5.89.78,1.15.86,1.39,1.28,1.24,2.07a3.22,3.22,0,0,1-.1.54c-.18.55-1,.53-2-.1a28.2,28.2,0,0,1-7.52-7.83c-.74-1.13-1.48-2.27-2.19-3.42l-2-3.49Z"/><path class="cls-1" d="M273.73,323.93c3.23-3.45,7.6-12.44,8.86-14.12A82.83,82.83,0,0,1,289,329.07C292.5,348.25,275.77,333.07,273.73,323.93Z"/><path class="cls-1" d="M287.84,333.54a39.28,39.28,0,0,0-1.5-9.82c-.31-1.2-.72-2.38-1.08-3.56-.51-1.67-1.05-3.32-1.64-5-.78-2.06-.78-2.18-1.14-3.08,0-.1-.05,0-.08,0l-.08.1-.16.23-.33.51-.19.29-.32.56-.73,1.3-1.43,2.6a26.06,26.06,0,0,1-4.35,6.4c-.62.58-1,0-1.1-.94a5.42,5.42,0,0,1,.84-3.37c1.13-1.72,2.2-3.56,3.29-5.39l1.86-3.12c.26-.45.53-.87.79-1.29l.39-.63.4-.56c.53-.73,1-1.45,1.57-2.13.64,1.49,1.27,2.93,1.82,4.31l.69,1.75.42,1.12.84,2.26c.56,1.51,1.11,3,1.57,4.58a56.94,56.94,0,0,1,2.18,10.44,18.22,18.22,0,0,1,0,3.39,6.29,6.29,0,0,1-1.23,3.52,3.11,3.11,0,0,1-1.39.93,5.5,5.5,0,0,1-.81.15c-.26,0-.51,0-.77,0a7.53,7.53,0,0,1-2.57-1,20.57,20.57,0,0,1-4-3.14,36.19,36.19,0,0,1-5-5.87c-.29-.49-.62-1-.88-1.47-1-1.94-.94-2.76-.37-3.37a2.39,2.39,0,0,1,.39-.39c.52-.3,1.08.36,1.74,1.57a33.76,33.76,0,0,0,3.65,5.23,26.91,26.91,0,0,0,4.66,4.47,8.93,8.93,0,0,0,1.87,1.06,1.88,1.88,0,0,0,1.21.2H287a.1.1,0,0,1,.05,0s.08-.09.13-.14.09-.17.15-.26a1.51,1.51,0,0,0,.14-.38,7.66,7.66,0,0,0,.28-2.09Z"/><path class="cls-1" d="M258.87,308.14l-9.6,10.74c-1.17,1.3-2.28,2.66-3.45,3.95-4.15,4.58-8.34,9.11-12.53,13.64-1.87,2-3.69,4.08-5.5,6.11-1.18,1.3-2.31,2.64-3.53,3.91a28.11,28.11,0,0,1-4,3.62c-1,.69-1.18,0-.92-1.12a7.87,7.87,0,0,1,.28-.87,8.44,8.44,0,0,1,.47-1,10.49,10.49,0,0,1,1.59-2.17c4.86-5.1,9.65-10.38,14.67-15.5,3-3.07,5.85-6.52,8.77-9.8l9.64-10.84,2.95-3.34,1.48-1.67a17.45,17.45,0,0,1,1.68-1.76l1.58-1.45.19-.18.05-.05,0,0h0s0,.16,0,.09h0a.37.37,0,0,1,.11,0,.77.77,0,0,1,.34.21,3.26,3.26,0,0,1,.62.82c.2.33.37.71.55,1.08l.46,1,.68,1.56,2.68,6.18c1.42,3.18,2.95,6.22,4.49,9.27l1,2c1.26,2.5,1.54,3.27,1.25,4.15a4.73,4.73,0,0,1-.17.6c-.25.6-1.45-.22-2.53-2a155.22,155.22,0,0,1-8.39-17.28l-1.45-3.29c-.18-.39-.11-.25-.12-.28h0s0-.05,0,0l-.06,0-.05.05-.3.34-.6.69-2.39,2.73Z"/><path class="cls-1" d="M304.08,249.17a49.31,49.31,0,0,0-8.17,3.88,19.55,19.55,0,0,0-6.46,5.74c-1.13,1.88-2.16,3.93-3.26,5.89-3.89,7-7.81,13.94-11.93,20.81-1.82,3-3.65,6.11-5.53,9.1-1.21,1.92-2.44,3.84-3.79,5.69a24,24,0,0,1-4.73,5.09c-1.33.82-1.28.3-.67-.76a10.33,10.33,0,0,1,.51-1c.2-.37.42-.78.68-1.2s.52-.91.82-1.4a16,16,0,0,1,1-1.51c2.67-3.63,5.09-7.53,7.5-11.44l7.12-11.87c2.86-4.77,5.48-9.92,8.23-14.91.78-1.38,1.49-2.72,2.4-4.14a17.73,17.73,0,0,1,3.41-3.6,38.25,38.25,0,0,1,8.23-4.94,62,62,0,0,1,11.05-3.83,30.56,30.56,0,0,1,8.89-1.05,7.14,7.14,0,0,1,1.19.18l.61.18.68.37a2.16,2.16,0,0,1,.56,2.75,5,5,0,0,1-1.65,1.88,11.43,11.43,0,0,1-2,1.17,27.46,27.46,0,0,1-3.86,1.46c-.65.2-1.3.38-1.95.55l-1,.24-.88.2-1.08.56-1.17.63c-.77.43-1.54.86-2.3,1.32s-1.61,1-2.43,1.54c-3,1.93-4,2.55-4.94,2.57a3.8,3.8,0,0,1-.66,0c-.57-.1.3-1.44,2.46-3.17a44.22,44.22,0,0,1,4.41-3c.77-.47,1.56-.92,2.35-1.37l1.21-.65.62-.31.81-.4.6-.11.4-.09.82-.19c.55-.14,1.09-.28,1.63-.44a29.15,29.15,0,0,0,3.15-1.07,11.23,11.23,0,0,0,2.67-1.46,2.52,2.52,0,0,0,.67-.78l0,0-.15,0a4.33,4.33,0,0,0-.84-.16,13,13,0,0,0-2.08,0,31.45,31.45,0,0,0-4.43.62,56.73,56.73,0,0,0-8.77,2.57Z"/><path class="cls-1" d="M313.44,259.36a.88.88,0,0,0,.23-.68,2.83,2.83,0,0,0-.23-.59,3.18,3.18,0,0,0-.41-.66,3.7,3.7,0,0,0-.37-.42,3.54,3.54,0,0,1-.42-.35,5.31,5.31,0,0,0-1.79-.91,7.48,7.48,0,0,0-2.19-.22,8.68,8.68,0,0,0-2,.37,21.24,21.24,0,0,1-2.56.82c-.29,0-.45-.38-.41-.9a1.68,1.68,0,0,1,.8-1.4,12.51,12.51,0,0,1,2.94-1,8.21,8.21,0,0,1,3.23.12,8.35,8.35,0,0,1,3.73,1.68,7.19,7.19,0,0,1,1.39,1.74,5.05,5.05,0,0,1,.47,1.14c0,.22.08.44.1.66a4.11,4.11,0,0,1-.06.69,4,4,0,0,1-1.72,2.36,18.54,18.54,0,0,1-3.35,1.75c-.86.39-1.66.88-2.47,1.3-.19.09-.35.2-.53.29-.68.3-.94.24-1.34-.29-.09-.12-.19-.24-.27-.37a.92.92,0,0,1,.35-1.27,27.56,27.56,0,0,1,4.42-2.32c.53-.25,1-.52,1.47-.79a4.13,4.13,0,0,0,.95-.82Z"/><path class="cls-1" d="M312.3,267.89a9.12,9.12,0,0,0,2.23-1.29,4.65,4.65,0,0,0,.54-.65,2,2,0,0,0,.3-.38,1.19,1.19,0,0,0,0-.51,1.56,1.56,0,0,0-.69-1.06,2.62,2.62,0,0,0-1.3-.44c-.62,0-1.29-.05-2,0-.45,0-.26-1.38.7-1.74a4.21,4.21,0,0,1,2.75-.09,3.71,3.71,0,0,1,2.32,2.12,4.14,4.14,0,0,1,.3,2c0,.17-.06.35-.1.53s-.14.36-.21.51-.29.48-.46.71a8,8,0,0,1-2.68,2.09c-.59.3-1.19.56-1.79.8-.91.36-1.83.64-2.71,1a17.7,17.7,0,0,0-1.94,1c-.14.07-.26.16-.41.23-.53.21-.76.08-1.1-.43-.08-.12-.16-.23-.23-.35a1,1,0,0,1,.22-1.19,12.56,12.56,0,0,1,3.57-1.82c.9-.34,1.8-.65,2.61-1.05Z"/><path class="cls-1" d="M285.64,300.06c1.77-3,3.54-6,5.41-9,.68-1.09,1.32-2.21,2.09-3.29l.54-.71a4.39,4.39,0,0,1,.28-.36l.37-.39a4.19,4.19,0,0,1,.8-.71,8.09,8.09,0,0,1,.83-.47c1.07-.55,2.1-1,3.13-1.43,2.07-.89,4.11-1.77,6.08-2.77a25.73,25.73,0,0,0,4.87-3.15,9.53,9.53,0,0,0,2.25-2.59,3.49,3.49,0,0,0,.44-1.42,3,3,0,0,0-.24-1.51c-.26-.64,0-.85.78-.47a1.81,1.81,0,0,1,.6.45,2.56,2.56,0,0,1,.6.82,3.38,3.38,0,0,1,.13,2.63,7.88,7.88,0,0,1-1.17,2.1c-.23.32-.48.57-.72.86s-.53.5-.8.74a23.88,23.88,0,0,1-3.39,2.38,52.53,52.53,0,0,1-7.2,3.42,46.12,46.12,0,0,0-4.27,1.93,4.26,4.26,0,0,0-.83.54l-.3.34a2.3,2.3,0,0,0-.31.39c-.45.61-.89,1.23-1.31,1.91-1.89,2.89-3.67,5.94-5.44,9l-3.23,5.64c-1.6,2.85-3.25,5.71-4.79,8.57-1.21,2.23-2.27,4.48-3.47,6.7-.26.49-.5,1-.78,1.47-1.2,1.71-1.83,2.14-2.48,2.21a3.66,3.66,0,0,1-.42,0c-.38-.07-.16-.91.39-2.29a30.13,30.13,0,0,1,1.43-3.05q.8-1.51,1.59-3.06c1.07-2,2.2-4.12,3.33-6.19l5.16-9.23Z"/><path class="cls-3" d="M308.6,247.4s0,0,0-.05a.32.32,0,0,1-.08-.23l3.15-22.29a.29.29,0,0,1,.14-.18.05.05,0,0,0,0,0c0-.15-.77-.38-1.78-.53s-1.82-.13-1.84,0,0,0,0,0a.28.28,0,0,1,.08.23l-.12.91-3,21.38c0,.07-.05.13-.13.19s0,0,0,0,.77.38,1.77.52S308.58,247.55,308.6,247.4Z"/><path class="cls-1" d="M328,217.27c-3,5.28-15.28,7.78-13.87,7.39a21,21,0,0,0,11-7.39c7.32-10.13,7.09-26-.49-35.42a22.29,22.29,0,0,0-3.58-3.48c2,0,4.81,2.73,6.8,5.25C334.91,192.51,333.93,206.91,328,217.27Z"/><path class="cls-1" d="M322.58,178.33a19.38,19.38,0,0,1,3.17,3.41,25.8,25.8,0,0,1,2.42,3.95,30.15,30.15,0,0,1,2.72,8.75,34.58,34.58,0,0,1,.37,6.66,31.55,31.55,0,0,1-2.66,11.39,28,28,0,0,1-2.92,5.1,18.79,18.79,0,0,1-4.23,4.12,23.9,23.9,0,0,1-4.54,2.57,21.21,21.21,0,0,1-2.46.89l-.16.05-.06,0h0v0a1.58,1.58,0,0,1-.09-.25,1.24,1.24,0,0,0-.12-.28.71.71,0,0,0,0-.32l0-.24h.1l.14,0,.6-.14,1.2-.34a38,38,0,0,0,5.95-2.32,16.26,16.26,0,0,0,5-3.57c.4-.47.62-.66.75-.56s.16.48,0,1.08a8.71,8.71,0,0,1-4.25,4.25,35.51,35.51,0,0,1-6.33,2.55c-.54.17-1.09.32-1.64.46l-.84.21-.23,0-.13,0h-.35c-.33-.17.6.37-.76-.39.23-3,.29-1,.28-1.64l.17-.08.05,0,.06,0,.08,0,.1,0,.18-.05a19.82,19.82,0,0,0,2.95-1.11,21.31,21.31,0,0,0,5.28-3.46,16.63,16.63,0,0,0,2.12-2.32,30.56,30.56,0,0,0,1.75-2.71,29.35,29.35,0,0,0,3.5-15.34,27.78,27.78,0,0,0-5.52-16.36,22.6,22.6,0,0,0-3.48-3.43l-1.3-1.09,1.66.08a5.69,5.69,0,0,1,3.07,1.3,17.88,17.88,0,0,1,2.32,2.09,23.38,23.38,0,0,1,4.71,7.11,27.42,27.42,0,0,1,2,8.24c.14,1.09.12,2.18.16,3.26s0,2.17-.16,3.24a36.56,36.56,0,0,1-1.13,6.39c-.28.91-.49,1.83-.85,2.73-1.25,3.35-2,4.27-2.72,4.74a2.7,2.7,0,0,1-.49.29c-.22.07-.22-.25,0-.86s.57-1.51,1-2.69a39,39,0,0,0,2.64-11c.1-1,.11-1.93.14-2.89s0-1.94-.13-2.9a26.84,26.84,0,0,0-1.08-5.69,21.46,21.46,0,0,0-3.7-7.07,24.2,24.2,0,0,0-2.76-2.95,10.72,10.72,0,0,0-1.54-1.14,3.19,3.19,0,0,0-1.45-.53l.67-1.85.87.73Z"/><path class="cls-1" d="M315.45,224.55a17.46,17.46,0,0,1-17.21-6.19c-7.47-9.45-7.63-25.22-.37-35.26,6.2-8.56,16.67-10.52,24.16-4.25-6.27-2.53-14.44-.73-19.41,6.14-6.93,9.59-6.93,24.59,0,33.52C305.83,222.6,311.27,224.39,315.45,224.55Z"/><path class="cls-1" d="M310.69,177.72a16.86,16.86,0,0,1,11.69.27l-.94,1.56a14.44,14.44,0,0,0-11.1-3.4,15.93,15.93,0,0,0-7.58,3.14,20.34,20.34,0,0,0-5,5.4,27.13,27.13,0,0,0-3.17,6.76,33,33,0,0,0-1.35,7.39,32.12,32.12,0,0,0,.42,7.52,25.66,25.66,0,0,0,5.4,12,17.56,17.56,0,0,0,15.06,5.82c1.71-.26,1.64.17.16.85a10.28,10.28,0,0,1-3.24.7,13.73,13.73,0,0,1-4.73-.61,18.57,18.57,0,0,1-7.92-5,25.59,25.59,0,0,1-4.77-7.93,32.16,32.16,0,0,1-1.28-18.11,30.49,30.49,0,0,1,4.16-10.31,20.78,20.78,0,0,1,8.29-7.62,17.87,17.87,0,0,1,4.46-1.49,15.92,15.92,0,0,1,13.2,3.63l3.2,2.63-3.84-1.55a15,15,0,0,0-5.67-1.06,16.22,16.22,0,0,0-12.45,6.12,25.42,25.42,0,0,0-2.92,4.65,28.71,28.71,0,0,0-1.88,5.19,31.35,31.35,0,0,0-.9,5.44,30.58,30.58,0,0,0,.12,5.5,26.76,26.76,0,0,0,2.19,8.12,16.27,16.27,0,0,0,.95,1.86,16.82,16.82,0,0,0,1.11,1.76,13.4,13.4,0,0,0,2.73,3,15.87,15.87,0,0,0,3.05,1.89,25.16,25.16,0,0,0,4.52,1.61,10.7,10.7,0,0,1,2.08.73,4.33,4.33,0,0,1,.65.33c.22.17-.15.32-1,.36a13.6,13.6,0,0,1-4-.54,17.21,17.21,0,0,1-7.1-3.87,20.85,20.85,0,0,1-4.57-6.89,31.25,31.25,0,0,1-2-16.39,31.72,31.72,0,0,1,1.52-6.05c.3-1,.8-1.93,1.19-2.9s.95-1.87,1.56-2.73a18.52,18.52,0,0,1,9.73-7.91Z"/><path class="cls-1" d="M155.89,380.48c.63-2.84,1.19-5.69,1.79-8.55.22-1,.34-2.1.56-3.14l2.25-11.06c.31-1.64.59-3.3.87-4.94a27,27,0,0,1,1.55-6.3c.28-.65.59-.38.8.29a6,6,0,0,1,.21,1.22,5.76,5.76,0,0,1-.07,1.64c-.7,4.21-1.22,8.53-2.11,12.81-.55,2.57-.83,5.28-1.27,7.93-.47,2.91-1,5.81-1.63,8.71-.35,1.78-.77,3.55-1.13,5.33-.59,2.7-1.27,5.38-1.92,8.05-.53,2.07-.89,4.14-1.53,6.2-.13.45-.23.9-.38,1.36-.68,1.66-1.08,2.11-1.87,2.14a3.12,3.12,0,0,1-.53,0c-.56-.1-.69-.94-.35-2.1,1-3.49,1.91-7.22,2.8-11,.66-2.83,1.31-5.69,1.9-8.56Z"/><path class="cls-1" d="M262.06,388.51q-.13-2.89-.23-5.81c0-.7-.11-1.41-.12-2.12,0-2.49,0-5,.15-7.49,0-1.1.07-2.22.06-3.32a18.81,18.81,0,0,1,.37-4.23c.22-.86,2,.45,1.92,2-.07,2.8-.18,5.6-.37,8.46a43.77,43.77,0,0,0,.16,5.23c.1,1.92.2,3.85.35,5.78.08,1.18.17,2.37.28,3.55.18,1.8.33,3.6.59,5.38.21,1.37.56,2.71.86,4.06.07.3.15.58.21.89.19,1.12.06,1.5-.62,1.83a3.82,3.82,0,0,1-.46.21c-.53.18-1-.23-1.29-1a40.11,40.11,0,0,1-1.41-7.56c-.21-1.93-.35-3.88-.51-5.83Z"/><path class="cls-1" d="M380.28,290.94c.8-8.11,1.59-16.22,2.31-24.34s1.41-16.25,1.6-24.29c.06-6,.08-11.92.23-17.87q.79-31.47,2.69-62.88c.59-9.3,1.18-18.64,2-27.85.51-5.92,1.08-11.85,1.88-17.77l.65-4.43c.28-1.47.53-2.94.84-4.4a71.94,71.94,0,0,1,2.3-8.7c1.49-3.5,1.57-2.82,1.08.26-.06.8-.21,1.73-.35,2.8s-.25,2.29-.39,3.62c-.3,2.65-.53,5.76-1,9.12-.83,6-1.45,12-2,18s-1.06,12-1.51,18.07c-.89,12.08-1.6,24.2-2.27,36.39-.79,14.57-1.09,29.76-1.36,44.69l-.18,12.32c0,2.08-.15,4.14-.27,6.2s-.28,4.11-.42,6.16c-.61,8.21-1.35,16.4-2.13,24.58l-3,30.19c-1.48,15.24-3.14,30.54-4.24,45.67-.72,11.77-1,23.36-1.23,35,0,2.57-.06,5.08-.09,7.67-.11,9.6-.27,12.65-1,14.72a13.4,13.4,0,0,1-.49,1.36c-.55.92-1-3-1.1-10-.12-10.46.06-21.21.48-32.09.22-5.45.44-10.91.8-16.44s.86-11,1.36-16.53c1.49-16.37,3.2-32.77,4.77-49.14Z"/><path class="cls-1" d="M402.09,207.6l.25-12.92c0-1.57,0-3.14,0-4.71.14-5.54.32-11.08.63-16.62.13-2.46.25-4.93.38-7.37a57.3,57.3,0,0,1,1-9.4c.22-1,.52-.78.76.09a15.76,15.76,0,0,1,.4,4.18c-.15,3.17-.21,6.35-.28,9.53s-.21,6.39-.4,9.6c-.25,3.85-.16,7.86-.22,11.8l-.18,13c0,2.67-.07,5.35-.1,8-.06,4.05-.12,8.11-.18,12.13,0,3.12.05,6.19,0,9.3,0,.69,0,1.36-.07,2.06-.22,2.58-.58,3.44-1.36,3.83a2.07,2.07,0,0,1-.51.23c-.54,0-.61-.93-.54-2.72.17-5.37.13-11.19.22-17,0-4.33.09-8.68.13-13Z"/><path class="cls-1" d="M422.75,203.81a44.09,44.09,0,0,1,.55-4.42l.4-2.13.36-2.11c.16-1,.26-2.08.42-3.12.56-3.65,1.09-7.32,1.54-11,.19-1.63.34-3.28.47-4.9.16-2.08.23-4.18.46-6.24.07-.64.43-.57.79,0a5.11,5.11,0,0,1,.68,2.83c-.07,2.16-.17,4.3-.35,6.45s-.47,4.28-.8,6.42c-.4,2.56-.59,5.24-.93,7.87-.18,1.44-.38,2.88-.62,4.34l-.35,2.13c-.1.7-.19,1.41-.26,2.12-.17,1.75-.25,3.51-.26,5.28,0,2.68.07,5.39.26,8.07.14,2.08.42,4.13.55,6.21,0,.46.09.9.09,1.37.05,1.72-.15,2.27-.74,2.62a2.12,2.12,0,0,1-.41.23c-.46.15-.82-.55-1-1.78-.43-3.63-.76-7.45-.95-11.39a84.44,84.44,0,0,1,0-8.86Z"/><path class="cls-1" d="M396.06,313.26l-.42,12.09c-.06,1.48-.07,2.95-.15,4.42-.31,5.18-.72,10.37-1.35,15.54-.27,2.29-.58,4.59-.91,6.87a39.34,39.34,0,0,1-2.06,8.65c-.34.87-.76.58-1-.3a6.62,6.62,0,0,1-.19-1.69,8.62,8.62,0,0,1,.21-2.25c.6-2.86,1-5.78,1.38-8.72s.74-5.89,1.06-8.87c.41-3.57.45-7.31.59-11l.39-12.14c.07-2.5.13-5,.19-7.49.11-3.78.21-7.58.32-11.34.09-2.93.07-5.8.32-8.73,0-.65.12-1.29.2-1.94.4-2.42.92-3.22,1.72-3.45a2.31,2.31,0,0,1,.51-.14c.25,0,.37.26.41.7a8.7,8.7,0,0,1-.14,1.87c-.32,2.43-.43,5-.54,7.68s-.17,5.35-.24,8.07c-.08,4-.17,8.11-.25,12.16Z"/><path class="cls-1" d="M415,387.44l.44-6.59c.05-.8.06-1.6.12-2.4.22-2.82.51-5.64.79-8.45.13-1.25.26-2.51.38-3.75a21.76,21.76,0,0,1,.82-4.77c.15-.49.42-.34.64.14a4.68,4.68,0,0,1,.32,2.16c-.3,3.18-.41,6.41-.79,9.66-.21,1.95-.18,4-.24,6l-.22,6.6-.12,4.07c0,2-.11,4.12-.06,6.16,0,1.58.21,3.14.33,4.7,0,.35.07.69.08,1,.06,1.29-.14,1.71-.75,2a3,3,0,0,1-.43.18c-.47.13-.88-.39-1.06-1.34a51.25,51.25,0,0,1-.48-8.74c0-2.21.11-4.43.18-6.64Z"/><path class="cls-1" d="M365.35,247.23a72,72,0,0,1,.15-12.3c.12-1.48.21-3,.4-4.43.35-2.6.79-5.18,1.4-7.75a34.17,34.17,0,0,1,1.15-3.83,11.82,11.82,0,0,1,.91-1.91,3.43,3.43,0,0,1,2-1.61,3.65,3.65,0,0,1,2.22.16,8.64,8.64,0,0,1,1.71.9,21.59,21.59,0,0,1,2.75,2.32,40.7,40.7,0,0,1,3,3.29,24.84,24.84,0,0,1,2.54,3.62c.45.75,0,1-.9.72a7.65,7.65,0,0,1-1.63-.76,7.53,7.53,0,0,1-1.7-1.53q-1.39-1.69-2.85-3.26a17.48,17.48,0,0,0-3-2.65,3.45,3.45,0,0,0-1.29-.53c-.24,0-.37,0-.67.37a8.6,8.6,0,0,0-.87,1.67c-.26.65-.5,1.33-.72,2a57.05,57.05,0,0,0-1.84,10.67,87.35,87.35,0,0,0-.54,12c.05,1.23.13,2.45.29,3.64a10.87,10.87,0,0,0,.89,3.32,1.44,1.44,0,0,0,.56.65c.15.05.29.08.7-.17l.55-.31.53-.39a11.73,11.73,0,0,0,1-.86,27.63,27.63,0,0,0,3.62-4.15,36.17,36.17,0,0,0,4.09-7.39c.26-.57.42-1.14.64-1.71.37-1.06.58-1.75.79-2.21a2.07,2.07,0,0,1,.78-.94,4.2,4.2,0,0,1,.48-.3c.25-.11.46.08.59.57a4.8,4.8,0,0,1,0,2.17,27.27,27.27,0,0,1-3.12,7.63,39.77,39.77,0,0,1-5,6.82,21.75,21.75,0,0,1-2.42,2.24l-.7.52L371,254a3.36,3.36,0,0,1-1.27.43,2.9,2.9,0,0,1-1.71-.36,4.15,4.15,0,0,1-1.59-1.88,10,10,0,0,1-.6-1.71,22.5,22.5,0,0,1-.55-3.23Z"/><path class="cls-1" d="M358.27,216a67.71,67.71,0,0,1,2.05-9.92c.18-.59.35-1.19.57-1.81a7.25,7.25,0,0,1,.4-1,2.74,2.74,0,0,1,.34-.55,2.77,2.77,0,0,1,.46-.52,3.29,3.29,0,0,1,2.24-.86,5.68,5.68,0,0,1,2,.37,13.25,13.25,0,0,1,3,1.71,34.65,34.65,0,0,1,4.85,4.42c1.3,1.41,2.6,2.83,3.76,4.35,1.47,1.94,3,4,3.5,6.58.1.86-.35.74-.93.27a11.07,11.07,0,0,1-2.28-2.23,65.91,65.91,0,0,0-4.28-5.6A49,49,0,0,0,369,206c-1.94-1.8-5.39-3.58-5.8-1.37a35.37,35.37,0,0,0-1.36,4.61c-.38,1.6-.69,3.21-.95,4.83-.32,2-.56,4-.68,6a43.45,43.45,0,0,0,.28,9.13,24,24,0,0,0,2,6.56c.22.45.45.88.7,1.3.89,1.6,1.15,2.1.88,2.82a2.79,2.79,0,0,1-.18.49c-.14.23-.41.25-.77.07a3.88,3.88,0,0,1-1.29-1.21,18.72,18.72,0,0,1-3-6.21,33.17,33.17,0,0,1-1.12-6.87,57.43,57.43,0,0,1,.37-10.25Z"/><path class="cls-1" d="M382.91,237.48c-.58,1.52-1.16,3.05-1.71,4.59-.2.56-.33,1.14-.53,1.7-.77,2-1.56,3.92-2.27,5.9-.32.87-.57,1.78-.81,2.67a13.35,13.35,0,0,1-1.11,3.43c-.19.34-.71.09-1.16-.38a2.1,2.1,0,0,1-.64-1.83,44.91,44.91,0,0,1,2.3-6.92c.6-1.36.9-2.86,1.38-4.28l1.67-4.67,1.06-2.87c.52-1.45,1.09-2.89,1.57-4.34.37-1.14.62-2.3,1-3.46a7.92,7.92,0,0,1,.26-.78,3.46,3.46,0,0,1,.29-.58,1.28,1.28,0,0,1,.36-.37.92.92,0,0,1,.86,0,2.32,2.32,0,0,1,.46.18,1.22,1.22,0,0,1,.52,1.38,53.55,53.55,0,0,1-1.78,6.06L383,237.5Z"/><path class="cls-1" d="M231.19,276.83a18.7,18.7,0,0,1-7.3-2.75c-.4-.23-.79-.49-1.18-.73a12.84,12.84,0,0,1-1.14-.79,49.65,49.65,0,0,1-6.94-6.64l-2.84-3.11-1.82-2c-.57-.65-1.1-1.4-1.65-2-.29-.28-.22-.59.42-.61a4.42,4.42,0,0,1,2.43,1c2.55,2.68,4.85,5.39,7.31,8a29.45,29.45,0,0,0,5,4.19,20,20,0,0,0,6.37,3,11.5,11.5,0,0,0,10.19-2.38,14,14,0,0,0,1.82-1.79c.27-.33.56-.64.82-1l.74-1,.66-.91c.8-1.15,1.17-1.43,1.79-1.4a2.67,2.67,0,0,1,.42,0c.42.1.37.78-.12,1.76a13.61,13.61,0,0,1-1.27,2.13c-.25.34-.49.69-.76,1l-.86,1a16.8,16.8,0,0,1-4.18,3.3,13.57,13.57,0,0,1-8,1.6Z"/><path class="cls-1" d="M238.29,274.31c-1.1.89-5.83,2.32-7.6,1.8.14,2.69.69,6.26,4.66,6.58C239.05,283,239,277.25,238.29,274.31Z"/><path class="cls-1" d="M234.85,283.85a5.52,5.52,0,0,1-2.36-1,5.36,5.36,0,0,1-1.65-1.94,6.87,6.87,0,0,1-.63-1.62,9.44,9.44,0,0,1-.23-1.74c0-.47,0-.89,0-1.31v-.62a.89.89,0,0,1,0-.29l.08-.19,1,.27c.32.06.61.08.89.12a8.41,8.41,0,0,0,1,0,12.43,12.43,0,0,0,2.24-.48c.92-.29,1.87-.61,2.72-.94.24-.1.41.1.34.49a2,2,0,0,1-1,1.24,12.29,12.29,0,0,1-1.49.66,13.83,13.83,0,0,1-1.56.43,12.45,12.45,0,0,1-1.64.23c-.79,0-.57,0-.82-.1h0l-.08,0s0,0,0,0,0,.08,0,.12v.23l0,.23a8.68,8.68,0,0,0,.42,1.67,3.63,3.63,0,0,0,2.27,2.44,5.56,5.56,0,0,0,1.09.24h.5a3,3,0,0,0,.45-.11c.88-.32,1.41-1.53,1.54-2.7a9,9,0,0,0-.23-2.79c0-.2-.12-.4-.15-.6-.15-.75-.08-1,.46-1.29.13-.07.25-.15.38-.21.42-.19.88.06,1.11.68a9.06,9.06,0,0,1,.55,2.92,8.57,8.57,0,0,1-.5,3.2,4.68,4.68,0,0,1-1.76,2.32,4,4,0,0,1-2.94.48Z"/><path class="cls-1" d="M246.1,180.17a18.48,18.48,0,0,1,0-7.73,16.17,16.17,0,0,1,.74-2.75,15.93,15.93,0,0,1,2.67-4.23,9.11,9.11,0,0,1,4.4-2.67,17.48,17.48,0,0,1,4.33-.58,14.9,14.9,0,0,1,2.75.18,7.18,7.18,0,0,1,2.6.89c.5.3.23.76-.37,1.18a6.74,6.74,0,0,1-1.11.6,2.78,2.78,0,0,1-1.31.17c-3.15-.37-6.44-.41-8.79,1.29l-.5.42c-.16.18-.32.37-.47.56l-.46.58-.38.65c-.12.21-.26.42-.37.65l-.29.69a9.79,9.79,0,0,0-.52,1.4,15,15,0,0,0-.57,6.62,18.88,18.88,0,0,0,1,4.08,22.58,22.58,0,0,0,3.14,5.66,21.07,21.07,0,0,0,1.68,1.85c.58.59,1.24,1.1,1.85,1.66.27.25.56.46.85.69,1.05.87,1.25,1.29,1,2a3.65,3.65,0,0,1-.15.5c-.23.49-1,.49-1.88-.1a23.11,23.11,0,0,1-6.9-7.14,23.7,23.7,0,0,1-3-7.14Z"/><path class="cls-1" d="M222.57,168.7c-.16.31-.52.28-1,.07-.16-.06-.47-.42-.43-.54a3.14,3.14,0,0,1,.23-.63,15.91,15.91,0,0,1,2-1.9,9,9,0,0,1,1.67-1,19.79,19.79,0,0,1,3.77-1.39,3.83,3.83,0,0,1,.9-.12c.52,0,1-.07,1.54-.08l.77,0h.78a1.53,1.53,0,0,0,.52,0,6.1,6.1,0,0,1,1.71.11,8.62,8.62,0,0,1,1.73.5,15.82,15.82,0,0,1,2.33,1.47c.1.08.23.14.28.27a1.29,1.29,0,0,0,.56.61,5.49,5.49,0,0,1,.78.82,2,2,0,0,1,.25.53c.06.16-.21.31-.27.3s-.19.15-.26.25l-.09.09a6.64,6.64,0,0,1-1-.42c-.46-.25-1-.38-1.06-.45l-.39-.24c-.23-.12-.56-.25-.88-.39a10.49,10.49,0,0,0-1.52-.48,1.17,1.17,0,0,1-.44-.16,10.79,10.79,0,0,0-2.27-.14,6.63,6.63,0,0,1-1.33-.07.61.61,0,0,0-.27,0c-.76.12-1.54.2-2.3.37a7.74,7.74,0,0,0-1.15.38l-.22,0a.82.82,0,0,0-.27.06,13.24,13.24,0,0,0-2.57,1.31,5.84,5.84,0,0,1-.69.33,4.16,4.16,0,0,0-.68.39C223.21,168.53,222.63,168.56,222.57,168.7Z"/><path class="cls-1" d="M202.25,171.43c8.44,1.27,4-32.56,30-25.91,23.94,6.13,53.09,23.81,58.25-4.5,8-44.1-85.83-63.48-111.56-2.12-8,19.18,5.47,45.43,4.83,39.88C182.69,169.45,191.64,157.71,202.25,171.43Z"/><path class="cls-1" d="M221,100.85A75.26,75.26,0,0,1,247.12,99a67.3,67.3,0,0,1,25,7.51A42.33,42.33,0,0,1,286.74,119a28.75,28.75,0,0,1,5.34,16.14,32.65,32.65,0,0,1-1.08,8.48,22.75,22.75,0,0,1-3.6,7.85,14.37,14.37,0,0,1-7.1,5.07,22.06,22.06,0,0,1-8.55.86,72.54,72.54,0,0,1-16.34-3.67c-4.69-1.51-9.32-3.16-14-4.7-2.33-.76-4.66-1.49-7-2.15a36.3,36.3,0,0,0-7-1.41,17,17,0,0,0-4.46.24,14,14,0,0,0-2.14.57,13.49,13.49,0,0,0-2,1,16.72,16.72,0,0,0-6,6.53,55,55,0,0,0-3.59,8.51c-.52,1.47-1,3-1.62,4.44a21.63,21.63,0,0,1-1,2.19,8.25,8.25,0,0,1-1.49,2.05,4,4,0,0,1-1.23.79,3.35,3.35,0,0,1-1,.15c-.52-.06-.73-.15-.68-.23s.33-.16.77-.25c.21-.11.47-.2.73-.36a3.6,3.6,0,0,0,.75-.72c1-1.19,1.64-3.41,2.39-6.11a65,65,0,0,1,3.07-9.39,30.11,30.11,0,0,1,2.41-4.41,19.3,19.3,0,0,1,3.48-3.81,15.06,15.06,0,0,1,4.61-2.54,17.43,17.43,0,0,1,5.13-.88,33,33,0,0,1,9.83,1.65c3.11.88,6.17,1.88,9.21,2.91,6.07,2,12.07,4.26,18.18,5.85a52.65,52.65,0,0,0,9.22,1.65c.77.07,1.54.05,2.31.08s1.53,0,2.27-.16a15,15,0,0,0,4.31-1.13,13.47,13.47,0,0,0,7-7.81,23.8,23.8,0,0,0,.91-2.66c.26-.91.42-1.86.64-2.78a31,31,0,0,0,.46-5.68,28.22,28.22,0,0,0-.75-5.63,27.65,27.65,0,0,0-2-5.34,32,32,0,0,0-6.9-9.08c-6.18-5.77-14.11-9.52-22.32-11.74a72.88,72.88,0,0,0-25.43-2.1,66.67,66.67,0,0,0-29.66,9.94,59.12,59.12,0,0,0-17,16.56,64.06,64.06,0,0,0-5.77,10.45,32.38,32.38,0,0,0-2.81,11.39,53.39,53.39,0,0,0,2.13,18.06c.42,1.46.88,2.9,1.4,4.32l.41,1.06.39,1c.17.41.29.65.44,1a8,8,0,0,0,.47.82,1.36,1.36,0,0,0,.3.33c.08.07.15,0,.14-.12s0-.17,0-.26a6.4,6.4,0,0,1,0-1c0-.16,0-.31,0-.47l0-.22V174l.06-.25a13.67,13.67,0,0,1,.55-2,16,16,0,0,1,.84-2,12.35,12.35,0,0,1,2.7-3.54,8.55,8.55,0,0,1,3.49-1.93,7.84,7.84,0,0,1,3.38-.14,10.94,10.94,0,0,1,7.54,5.86,14.79,14.79,0,0,1,.58,1.4c.11.53-.53,0-1.88-1.17a30.92,30.92,0,0,0-2.64-2.06,10.14,10.14,0,0,0-4-1.68,6.28,6.28,0,0,0-5.93,2.84,11.68,11.68,0,0,0-1.71,3.31,12.33,12.33,0,0,0-.52,2,7.41,7.41,0,0,0-.11.87l-.1,1c0,.4,0,.83,0,1.25l0,.63v.31l-.05.2-.19.76a2,2,0,0,1-.1.36l-.11.15-.22.31-.14.17c-.12.12-.12.19-.32.29a1.39,1.39,0,0,1-.9,0,3,3,0,0,1-1.62-1.29,19.57,19.57,0,0,1-1.75-3.2c-.28-.62-.53-1.21-.74-1.71l-.4-1q-.39-1-.75-2.07c-.47-1.39-.9-2.79-1.28-4.22a56.07,56.07,0,0,1-1.94-17.66,37.4,37.4,0,0,1,1.64-9,33,33,0,0,1,1.68-4.23c.58-1.38,1.29-2.7,1.95-4a62.43,62.43,0,0,1,17.05-20.32A65.59,65.59,0,0,1,221,100.8Z"/><path class="cls-1" d="M242.71,211.23c-.24-.08-.18-.38.11-.8a1.54,1.54,0,0,1,.56-.41,3.52,3.52,0,0,1,.46,0,8.8,8.8,0,0,0,1.21.65,7.74,7.74,0,0,1,.8.44,6.38,6.38,0,0,0,1.66.72,1.65,1.65,0,0,1,.36.16,1.86,1.86,0,0,0,1.27.22c.07,0,.14,0,.2-.08a2.29,2.29,0,0,1,.58-.23c.24-.12.5-.21.56-.24a2.21,2.21,0,0,0,1-.47s.05-.11.15-.1.27-.12.35-.22a2.73,2.73,0,0,1,.33-.45,1.13,1.13,0,0,1,.33-.17.51.51,0,0,1,.39.12c0,.12.21.1.33.13l.12,0a2.22,2.22,0,0,1,0,.75,2.39,2.39,0,0,1-.17.87l-.18.31a5.07,5.07,0,0,1-.48.65,6.12,6.12,0,0,1-1,.93,1,1,0,0,1-.4.13,4.43,4.43,0,0,1-.9.4,3.92,3.92,0,0,1-.94.24,1.77,1.77,0,0,1-1.09-.11.49.49,0,0,0-.21,0,6.35,6.35,0,0,1-.87-.16l-.82-.3c-.26-.12-.54-.21-.81-.32a.41.41,0,0,1-.13-.1.79.79,0,0,0-.15-.12,17.7,17.7,0,0,1-1.72-1.07c-.16-.07-.56-.73-.71-.83S242.8,211.26,242.71,211.23Z"/><path class="cls-1" d="M309.23,203.08a18.34,18.34,0,0,1-2.08-1.53,4.13,4.13,0,0,1-1.35-2.89,5.31,5.31,0,0,1,.37-2.15,10.64,10.64,0,0,1,1.9-2.79,9.33,9.33,0,0,0,1.65-2.37,5.57,5.57,0,0,0,.65-2.38,1.12,1.12,0,0,0-.12-.55.48.48,0,0,0-.3-.21,4,4,0,0,0-1.38.07c-.33.05-.44-.3-.25-.74a1.67,1.67,0,0,1,1.73-1,2.19,2.19,0,0,1,1.47.76,2.65,2.65,0,0,1,.55,1.42,5.8,5.8,0,0,1-.3,2.16,10.39,10.39,0,0,1-1.87,3.44c-.29.34-.49.54-.7.83a7.88,7.88,0,0,0-.57.85,7.21,7.21,0,0,0-.75,1.74,2.35,2.35,0,0,0,.11,1.7,4.11,4.11,0,0,0,1.44,1.35,7.84,7.84,0,0,1,2.49,2.1,4,4,0,0,1,.52,2.61,11.58,11.58,0,0,1-.6,2.32,11.89,11.89,0,0,0-.69,3.16,4.49,4.49,0,0,0,.05.55c0,.31.08.45,0,.68a4.31,4.31,0,0,1-.31.6c-.07.1-.11.21-.17.29s-.24.17-.5.1a2.67,2.67,0,0,1-.46-.2,1.4,1.4,0,0,1-.46-.5,3.42,3.42,0,0,1-.33-1,5,5,0,0,1,0-1,6.91,6.91,0,0,1,.37-1.8c.36-1.09.79-2,1-2.88a2.37,2.37,0,0,0,0-1.49c-.1-.37-.49-.73-1.1-1.14Z"/></g></svg>