<svg id="Layer_1" data-name="Layer 1" xmlns="http://www.w3.org/2000/svg" width="520" height="520" viewBox="0 0 520 520"><defs><style>.cls-1,.cls-5{fill:none;}.cls-1,.cls-4,.cls-5{stroke:#221f1f;stroke-width:2px;}.cls-1{stroke-linecap:round;stroke-linejoin:round;}.cls-2{opacity:0.35;}.cls-3,.cls-4{fill:#221f1f;}.cls-4,.cls-5{stroke-miterlimit:10;}.cls-6{fill:#232020;}</style></defs><title>Notioly v2</title><g id="_64.Reading" data-name="64.Reading"><path class="cls-1" d="M252,225.35s13.8-5.27,17-5.44"/><g class="cls-2"><path class="cls-3" d="M304.81,453.62l-7.16.28c-.87,0-1.74.14-2.61.17l-9.22.3c-1.37.06-2.73.18-4.08.32a29.32,29.32,0,0,1-5.21.35c-1.09-.09.09-2.5,2.09-2.67a102.62,102.62,0,0,1,10.69-.38c2.15,0,4.36-.22,6.55-.33l7.23-.33,4.44-.21c2.24-.13,4.5-.22,6.72-.41,1.73-.15,3.41-.44,5.11-.67.38-.05.74-.13,1.12-.17,1.4-.14,1.86,0,2.2.61a2.91,2.91,0,0,1,.23.42c.17.48-.38.93-1.4,1.16a68.64,68.64,0,0,1-9.47,1.18c-2.4.18-4.81.3-7.22.44Z"/></g><path class="cls-4" d="M238.49,463.18c.53-.14,1.83,9.19,1.83,9.19H225.46c-.11-2.57,1.38-11.36,1.38-11.36S236.58,463.66,238.49,463.18Z"/><path class="cls-4" d="M363.45,463.71c-.52-.14-1.83,9.27-1.83,9.27h14.86c.12-2.57-1.38-11.44-1.38-11.44S365.37,464.19,363.45,463.71Z"/><path class="cls-3" d="M340.45,154.47a33.51,33.51,0,0,1-7-12.92c-.25-.85-.52-1.7-.71-2.56a23.14,23.14,0,0,1-.56-2.6,66.57,66.57,0,0,1-.31-18.48c.29-2.71.65-5.43,1.11-8.1a37.4,37.4,0,0,1,2.84-10.12c.61-1.06,1-.51,1.2.51a10.89,10.89,0,0,1-.28,4.58,99.62,99.62,0,0,0-3.08,20.44,47.7,47.7,0,0,0,1.23,12.62,39.56,39.56,0,0,0,2.06,6.64,32.42,32.42,0,0,0,3.34,6.05,27.11,27.11,0,0,0,6,6,29.79,29.79,0,0,0,11.89,4.89c3.33.45,6.74.42,10.18,1.06a20.56,20.56,0,0,1,2.27.51,9.07,9.07,0,0,1,2.86,1.31,1.91,1.91,0,0,1,.86,1.25,2.16,2.16,0,0,1,.09.58c0,.27-.36.33-.85.23s-1.19-.36-2.09-.66a37.64,37.64,0,0,0-8.76-1.46c-1.56-.14-3.15-.25-4.8-.48a20.36,20.36,0,0,1-2.52-.49l-2.42-.71a29.74,29.74,0,0,1-12.61-8Z"/><path class="cls-3" d="M324.7,135.35a5.32,5.32,0,0,1-.45-2.35c0-.37.08-.73.14-1.09a8.06,8.06,0,0,1,.33-1,7.3,7.3,0,0,1,.63-1.35,17.78,17.78,0,0,1,3.26-3.52c.52-.46,1-.94,1.49-1.41a6.15,6.15,0,0,1,2.06-1.62c.52-.18,1.34,2.08.65,2.66-1.26,1.06-2.53,2.09-3.85,3.1a7.37,7.37,0,0,0-1.75,2.3,4.93,4.93,0,0,0-.53,1.33,3.53,3.53,0,0,0,0,1.37,2.38,2.38,0,0,0,.78,1.44,5.24,5.24,0,0,0,2.57,1.3,8.62,8.62,0,0,0,2.38.06c.18,0,.35,0,.53,0,.65,0,.85.14,1,.79a3.48,3.48,0,0,1,.1.44.91.91,0,0,1-.76,1,8.87,8.87,0,0,1-5.1-.38,7.61,7.61,0,0,1-1.94-1.07,5.4,5.4,0,0,1-1.55-1.91Z"/><path class="cls-3" d="M377.45,107.42C367,107.42,331,102.94,320,85.23c-7.7-12.35-4.42-29.12,8.2-35.83,34.14-18.15,62.55,15.65,66.12,24.9,4.82-5.84,58.36,1.87,32,57.21-1.92,4.05,3.1,9.32,3.73,13.68,4.79,33.23-27.09,35.55-40.25,29.43-18.4-8.57-14.09-38.24-8.28-40.83,20.76-9.25,3.29-23.33-2.33-12.75C377.65,124,377.8,110.71,377.45,107.42Z"/><path class="cls-3" d="M424.83,130.78a80.42,80.42,0,0,0,5.71-15.45,42.36,42.36,0,0,0,1.14-16.09,27,27,0,0,0-6.47-14.33,32.25,32.25,0,0,0-13.31-8.77,35.82,35.82,0,0,0-8.64-2,24.35,24.35,0,0,0-4.35-.05,11.67,11.67,0,0,0-2,.34,4.21,4.21,0,0,0-.46.14,1.3,1.3,0,0,0-.26.1l-.45.28a19.92,19.92,0,0,0-1.87,1.65,5.92,5.92,0,0,1-.54-1.1c-.18-.42-.36-.86-.54-1.21l-.53-1.11-.13-.26L392,72.8l-.19-.32c-.47-.84-1-1.67-1.57-2.48a64.48,64.48,0,0,0-14.8-15,50.36,50.36,0,0,0-19-8.82,39,39,0,0,0-20.75,1.16,50.13,50.13,0,0,0-4.91,2c-.78.4-1.61.75-2.36,1.17s-1.5.86-2.19,1.37a21.59,21.59,0,0,0-6.71,7.74,25.28,25.28,0,0,0-1.84,18,27.17,27.17,0,0,0,3.91,8.33,29.57,29.57,0,0,0,6.55,6.47c6.45,4.71,14.15,7.6,21.92,9.76a136.37,136.37,0,0,0,23.88,4.21c2.5.19,3.57.35,3.51.63s-1.32.61-3.5.82a70.25,70.25,0,0,1-21.75-2.08,97.58,97.58,0,0,1-12.15-3.8,61.15,61.15,0,0,1-11.47-5.8,37.38,37.38,0,0,1-5.16-4,28.32,28.32,0,0,1-4.37-5A31.58,31.58,0,0,1,316,81.18c-.35-1.05-.72-2.11-1-3.18a28.08,28.08,0,0,1-.61-3.27,27.75,27.75,0,0,1,1.36-13.15,24.66,24.66,0,0,1,7.61-10.86,20,20,0,0,1,2.75-1.93c.48-.28,1-.59,1.45-.85l1.46-.69a28.93,28.93,0,0,1,3-1.31c1-.39,2-.82,3.06-1.11a42.13,42.13,0,0,1,12.81-2.06l1.84,0,1.85.13c1.23,0,2.45.31,3.68.46a47.11,47.11,0,0,1,7.18,1.88A55.75,55.75,0,0,1,375.64,52a74.35,74.35,0,0,1,5.91,4.56c1.87,1.64,3.67,3.36,5.38,5.18a61.48,61.48,0,0,1,4.78,5.75c.73,1,1.44,2,2.09,3.13.31.53.71,1.21.76,1.34s.14.27.17.35l.06.14s0,.06,0,.05l.06-.05a.86.86,0,0,1,.22-.15l.12-.06.06,0,.2-.06a10.25,10.25,0,0,1,1.79-.46,27.51,27.51,0,0,1,8.84.24,39.87,39.87,0,0,1,8.38,2.44,33.61,33.61,0,0,1,13.93,10.35A30.18,30.18,0,0,1,434.49,101a48.85,48.85,0,0,1-2,17.12A82.16,82.16,0,0,1,429,128c-.35.81-.7,1.61-1.08,2.41l-.55,1.19-.14.3-.08.24a2,2,0,0,0-.16.49,7.78,7.78,0,0,0,.81,4.47c.66,1.54,1.5,3.06,2.21,4.72a14.59,14.59,0,0,1,.87,2.64,10.39,10.39,0,0,1,.21,1.37l.14,1.32a38.37,38.37,0,0,1-.33,10.64,25.58,25.58,0,0,1-2.7,7.68,22.16,22.16,0,0,1-5.23,6.29,28.8,28.8,0,0,1-14.89,6,37.61,37.61,0,0,1-15.95-1.45A22.65,22.65,0,0,1,385,172.5a22,22,0,0,1-5.21-6.2A31.31,31.31,0,0,1,376,154.51a39.83,39.83,0,0,1,.34-12.28,24,24,0,0,1,1.86-6,8.59,8.59,0,0,1,2-2.75A3.51,3.51,0,0,1,381,133c.29-.17.46-.23.69-.36L383,132a21.29,21.29,0,0,0,4.66-3.27,8,8,0,0,0,2.6-4.48,4.72,4.72,0,0,0-1.26-3.92,5.57,5.57,0,0,0-3.83-1.77,4.66,4.66,0,0,0-2.3.48,5.23,5.23,0,0,0-.91.58,1.63,1.63,0,0,0-.3.3l-.34.4a4.82,4.82,0,0,0-.66.83l-.89,1-.58.33a1.12,1.12,0,0,1-.52.22.94.94,0,0,1-.68-.35,3,3,0,0,1-.73-1.35,11.24,11.24,0,0,1-.32-1.9c0-.32-.05-.64-.08-1s0-.51,0-.76,0-.73,0-1.07c0-.68,0-1.3,0-1.87a26.36,26.36,0,0,1,.46-4.9c.13-.65.24-1.51.37-1.9.21-.68.6.37.88,2.77.15,1.2.28,2.74.44,4.57,0,.45.08.93.12,1.42,0,.24.05.49.07.75l0,.35,0,.14a3.52,3.52,0,0,0,.26,1c0,.07.13,0,.16-.06l.11-.19a2.07,2.07,0,0,1,.22-.35,2.32,2.32,0,0,1,.16-.18l.09-.09.05-.06.16-.12.64-.47c.22-.14.46-.26.7-.39a7.32,7.32,0,0,1,3.11-.8,8.21,8.21,0,0,1,5.81,2.3,7.85,7.85,0,0,1,1.82,2.7,7.35,7.35,0,0,1,.48,3.28,9.76,9.76,0,0,1-2.64,5.64,20.57,20.57,0,0,1-4.52,3.66c-.83.46-1.65,1-2.5,1.35l-.63.31a2.58,2.58,0,0,0-.5.26,1,1,0,0,0-.26.2,1.49,1.49,0,0,0-.3.31,12.12,12.12,0,0,0-2,4.21,30.57,30.57,0,0,0-1,5,37.23,37.23,0,0,0,.21,10.38,27.81,27.81,0,0,0,3.35,9.67,21.43,21.43,0,0,0,3.05,4,20.6,20.6,0,0,0,4,3,26.78,26.78,0,0,0,9.81,3,33.73,33.73,0,0,0,15.81-1.73,23,23,0,0,0,6.75-4,18.93,18.93,0,0,0,4.73-6.1,24,24,0,0,0,2.25-7.54,37.59,37.59,0,0,0,.09-8.08l-.23-2a7.59,7.59,0,0,0-.15-.88c-.06-.28-.16-.57-.24-.85a36,36,0,0,0-1.65-3.68,27,27,0,0,1-1.74-4.2,9,9,0,0,1-.4-2.56,6.77,6.77,0,0,1,.59-2.82Z"/><path class="cls-3" d="M335.5,253.59q3.45-4.18,7-8.3c.85-1,1.67-2,2.54-3q4.63-5.22,9.49-10.25c1.44-1.48,2.84-3,4.26-4.51a32.51,32.51,0,0,1,5.89-5.39c.71-.47,1,.16.91,1.12a4.88,4.88,0,0,1-.49,1.59,5.4,5.4,0,0,1-1.2,1.64c-3.8,3.6-7.47,7.46-11.3,11.24-2.3,2.26-4.38,4.9-6.52,7.4q-3.56,4.11-7,8.31c-1.43,1.71-2.83,3.45-4.23,5.19-2.09,2.66-4.21,5.31-6.18,8-1.54,2.11-2.89,4.29-4.31,6.44-.31.48-.59,1-.92,1.43-1.2,1.75-1.74,2.2-2.58,2.16a2.6,2.6,0,0,1-.57,0c-.57-.15-.44-1.12.34-2.48a113.57,113.57,0,0,1,8.08-11.95c2.19-2.91,4.47-5.78,6.75-8.63Z"/><path class="cls-3" d="M295.05,263.81c-1.2-1.54-2.26-3.19-3.38-4.78s-2.12-3.26-3.12-4.93c-.72-1.22-1.52-2.39-2.22-3.62-2.42-4.37-4.55-8.89-6.55-13.44C279,235,278,233,277.14,231c-1.11-2.56-2.32-5-3.45-7.47-.36-.74.25-1.06,1.22-.77a5.26,5.26,0,0,1,3,2.77c1.27,2.68,2.22,5.36,3.32,7.95s2.17,5.22,3.28,7.86a86.06,86.06,0,0,0,4.94,9.2c1,1.65,1.95,3.3,3,4.9s2.13,3.2,3.23,4.77c.65,1,1.41,1.9,2.11,2.85s1.45,1.86,2.22,2.75a58.51,58.51,0,0,0,7.46,7.63l1.61,1.26c.54.42,1.13.75,1.69,1.12a33.1,33.1,0,0,0,3.49,1.93c.51.29,1.07.4,1.6.64s.9.39,1.24.53a4.77,4.77,0,0,1,.83.36,1.73,1.73,0,0,1,.82,1,3.52,3.52,0,0,1,.21.56c.12.6-.89.8-2.68.47a24.25,24.25,0,0,1-7.19-3.38,30.36,30.36,0,0,1-3.23-2.4c-1.08-.81-2-1.78-3-2.68a78,78,0,0,1-7.83-8.93Z"/><path class="cls-3" d="M337.08,228.64c-2.27,3.35-4.55,6.69-6.77,10.06-.81,1.23-1.56,2.5-2.36,3.73-2.84,4.34-5.64,8.71-8.24,13.19-.56,1-1.11,2-1.65,3s-1,2.06-1.51,3.08c-1.17,2.66-2.29,5.37-3.19,8-.32.82-.9.61-1.28-.29a5.42,5.42,0,0,1-.34-1.83,6.78,6.78,0,0,1,.47-2.36c.27-.74.57-1.45.9-2.15l.95-2.09c.7-1.36,1.38-2.73,2.13-4q2.22-4,4.75-7.79c2-3,3.9-6.31,5.91-9.43,2.22-3.43,4.49-6.82,6.77-10.21,1.4-2.08,2.83-4.15,4.17-6.24.48-.76.94-1.59,1.4-2.43l1.4-2.49c.93-1.66,1.85-3.31,2.73-5,1.37-2.58,2.54-5.2,3.68-7.83.25-.58.48-1.16.72-1.75.93-2.16,1.34-2.79,2.13-3a3.06,3.06,0,0,1,.53-.15c.54,0,.58,1,0,2.72a93.31,93.31,0,0,1-6.92,14.7l-2.94,5.35c-1.14,1.93-2.26,3.52-3.39,5.26Z"/><path class="cls-3" d="M303.88,233.6c-.3-4.15-.48-8.3-.61-12.43l-.22-4.52c-.06-1.91-.11-3.83-.21-5.72,0-1-.11-1.89-.2-2.82-.05-.48-.08-.93-.16-1.41l-.36-2.24,1.64-.65,1.18-.5,2-.85c2.2-.89,4.41-1.8,6.66-2.59a40.22,40.22,0,0,1,4.41-1.35,15.8,15.8,0,0,1,4.66-.5c1,0,.82.74.07,1.45a7.83,7.83,0,0,1-3.59,1.79,60,60,0,0,0-7.6,2.29c-1.27.45-2.53.94-3.79,1.44l-1.91.76-.48.19-.12.05h-.08l-.2,0c0,.05,0,.1,0,.18v.12l.06.48c.29,3.81.55,7.65.71,11.43.15,4.16.28,8.3.56,12.44.17,2.54.36,5.09.63,7.62.18,1.92.45,3.83.68,5.75s.57,3.82.93,5.7c.3,1.46.62,2.9,1,4.32s.76,2.84,1.15,4.26c.15.62.37,1.22.54,1.85.64,2.33.66,3.12.1,3.81a3,3,0,0,1-.39.46c-.47.37-1.15-.47-1.75-2.17a88.5,88.5,0,0,1-3.9-16.14c-.65-4.15-1.11-8.34-1.46-12.53Z"/><path class="cls-3" d="M325.66,218.41c-.11-1.43-.22-2.87-.36-4.31-.05-.52-.17-1-.21-1.56-.16-1.84-.3-3.7-.5-5.54a24,24,0,0,0-.44-2.42,12,12,0,0,1-.57-3.06c0-.67,2.47-.4,2.73.85a32,32,0,0,1,.73,6.47,37.93,37.93,0,0,0,.46,3.95c.16,1.46.29,2.91.42,4.37l.24,2.68c.13,1.36.22,2.72.39,4.06.14,1,.4,2.06.58,3.11,0,.23.09.45.12.69.09.87-.1,1.19-.73,1.36a3.39,3.39,0,0,1-.43.11,1,1,0,0,1-1.06-.85,34.9,34.9,0,0,1-1-5.58c-.14-1.44-.29-2.88-.44-4.32Z"/><path class="cls-3" d="M252.39,207a36.28,36.28,0,0,1-5.65-7.84c-1.56-2.74-2.93-5.54-4.33-8.29-.51-1-1-2-1.58-2.94-.27-.48-.55-1-.84-1.4s-.67-1-.7-1a.59.59,0,0,0-.29-.25c-.14,0-.24.09-.3.2a1.59,1.59,0,0,0-.18.63,7.4,7.4,0,0,0-.14,1.3,25.1,25.1,0,0,0,.56,5.66,74.34,74.34,0,0,0,3.32,11.29,83.92,83.92,0,0,0,11.47,20.77c.83,1,.29,1.37-1,.87a11.09,11.09,0,0,1-4.58-4.2,82.85,82.85,0,0,1-6.51-12.45,80.58,80.58,0,0,1-4.4-13.35,38.52,38.52,0,0,1-1.17-8.68,8.94,8.94,0,0,1,.37-2.49,2.8,2.8,0,0,1,2.05-2.32,3.29,3.29,0,0,1,2.69,1.63,17.07,17.07,0,0,1,1.26,1.93c1.59,2.78,2.9,5.59,4.35,8.34a64.51,64.51,0,0,0,4.7,7.92,19.57,19.57,0,0,0,3.72,4,8.66,8.66,0,0,0,1.1.72l.21.11a.51.51,0,0,0,.17.07.53.53,0,0,0,.35,0,.94.94,0,0,0,.52-.5,7.07,7.07,0,0,0,.46-1.18c.72-2.66.94-5.62,1.44-8.51a17.18,17.18,0,0,1,1.19-4.4,3.63,3.63,0,0,1,.84-1.14,2,2,0,0,1,1.39-.52,2.23,2.23,0,0,1,1.39.52,3.16,3.16,0,0,1,.86,1.16,12.92,12.92,0,0,1,.84,3.46c.16,1.13.25,2.26.33,3.37.15,2.23.24,4.44.35,6.64.07,1,.13,1.91.2,2.88.26,3.59.4,4.6,0,5.51a5.27,5.27,0,0,1-.26.62c-.32.54-1.37-.89-1.77-3.65-.62-4-.64-8.15-.9-12.2-.07-1-.15-2-.28-3a10.3,10.3,0,0,0-.59-2.6c-.07-.17-.15-.31-.12-.26h0s-.13.24-.2.38a9.48,9.48,0,0,0-.41,1.24c-.69,2.77-.89,5.93-1.48,9.11a19.8,19.8,0,0,1-.62,2.5,6.87,6.87,0,0,1-.63,1.4,3.3,3.3,0,0,1-1.68,1.46,2.47,2.47,0,0,1-1.08.15l-.54-.12a2.09,2.09,0,0,1-.54-.16c-.43-.21-.54-.27-.76-.4a5.65,5.65,0,0,1-.58-.36,13.36,13.36,0,0,1-2-1.65Z"/><path class="cls-3" d="M228.08,169.35c-1.08-2.1-2.16-4.21-3.28-6.29-.41-.76-.88-1.48-1.29-2.25-1.43-2.68-2.84-5.37-4.34-8-.66-1.18-1.39-2.33-2.13-3.44a30.59,30.59,0,0,1-2.71-4.4c-.44-1,2.25-1.09,3.33.59a84.56,84.56,0,0,1,5.2,9.26c.93,1.93,2.14,3.78,3.19,5.69,1.15,2.1,2.27,4.21,3.38,6.33l2,3.91c1,2,2,4,3.11,5.91.84,1.51,1.78,2.92,2.66,4.37.19.32.4.63.59,1,.68,1.22.74,1.69.31,2.25a2.79,2.79,0,0,1-.3.38c-.37.34-1,0-1.6-.81a75.74,75.74,0,0,1-4.85-8.1c-1.12-2.09-2.25-4.2-3.37-6.31Z"/><path class="cls-3" d="M241.75,176.05c-1.48-3-3-6-4.53-9-.56-1.09-1.19-2.14-1.75-3.22-2-3.81-4.05-7.59-6.25-11.28l-1.52-2.42c-.52-.8-1.08-1.57-1.62-2.34-.68-1-1.46-1.94-2.2-2.88s-1.52-1.85-2.23-2.81c-.45-.6-.05-.88.72-.72a4.32,4.32,0,0,1,1.38.59,5.06,5.06,0,0,1,1.48,1.32,82.61,82.61,0,0,1,8.06,12.8c1.4,2.68,3,5.37,4.46,8.09,1.6,3,3.13,6,4.65,9l2.79,5.59,4.17,8.48c1.09,2.17,2.25,4.26,3.37,6.39.24.47.49.93.74,1.4.88,1.77,1,2.4.76,3a2.84,2.84,0,0,1-.18.39c-.27.34-.9-.25-1.63-1.51-2.15-3.73-4.16-7.77-6.19-11.84-1.5-3-3-6.05-4.52-9.07Z"/><path class="cls-3" d="M269.92,162c-2.82-4.87-5.76-9.69-8.78-14.44-1.1-1.74-2.28-3.43-3.4-5.15L255,138.16c0-.08-.1-.08-.17-.08l-.39,0-1.35-.07-2.71-.12c-3.62-.14-7.25-.22-10.87-.24-3.22,0-6.45.07-9.64.22-4.08.22-8.21.53-12.18.88-1.19.14-1.24-.48-.25-1.28a10.29,10.29,0,0,1,5.37-1.79,212.6,212.6,0,0,1,25.37-.13l3.84.18,1.94.08,1.08,0,.81,0h.31l.06.09.23.33,2.43,3.51c.73,1.08,1.46,2.16,2.17,3.25q4.68,7.17,9.06,14.52c1.8,3,3.55,6.06,5.29,9.11,2.6,4.64,5.16,9.33,7.58,14,.95,1.82,1.89,3.62,2.84,5.41s1.85,3.61,2.74,5.44c.39.8.81,1.58,1.17,2.4,1.33,3.08,1.59,4.13,1.27,5a2.79,2.79,0,0,1-.22.6c-.34.47-1.24-.63-2.31-2.8-3.18-6.45-6.58-13.22-10.2-19.93-2.66-5-5.48-9.94-8.36-14.84Z"/><path class="cls-3" d="M271.51,215.12c5.86-5.82,12.51-10.69,19-15.7,1.17-.9-.64-1.36-1.38-.78-6.66,5.12-13.45,10.08-19.42,16-.93.92,1.19,1,1.77.47Z"/><path class="cls-3" d="M274.43,217.31c5.28-5.84,11.83-10.18,17.86-15.16,1.19-1-1.68-.7-2.25-.23-6.17,5.09-12.87,9.54-18.26,15.5-.69.76,2.12.47,2.65-.11Z"/><path class="cls-3" d="M270,120.94l-3,3.21c-.36.39-.66.83-1,1.22l-3.91,4.06c-.58.6-1.11,1.25-1.63,1.89-.34.42-.66.86-1,1.27a4.76,4.76,0,0,1-1.36,1.12c-.3.16-.44,0-.54-.24s-.11-.52-.23-.82a1.78,1.78,0,0,1,.09-1.74,51.07,51.07,0,0,1,4.52-4.56,32.86,32.86,0,0,0,2.67-3l2.95-3.25,1.8-2c.9-1,1.83-2,2.66-3.11.65-.84,1.17-1.74,1.75-2.61.13-.2.24-.4.38-.59.51-.68.81-.79,1.43-.52.13.06.28.11.41.18a1,1,0,0,1,.24,1.36,26.31,26.31,0,0,1-3.29,4.79c-.93,1.14-1.91,2.24-2.87,3.35Z"/><path class="cls-3" d="M279.8,118.12q3.09,4.77,6.12,9.6c.74,1.17,1.51,2.32,2.23,3.5,2.54,4.16,5,8.39,7.38,12.65l3.21,5.64a70.28,70.28,0,0,1,3.86,7.34c.67,1.59-1.92.46-3.4-2.32-2.68-4.92-5.35-9.83-8.05-14.81-1.62-3-3.56-5.92-5.39-8.86q-3-4.85-6.14-9.64l-2.14-3.3-1,1.06-7.21,7.86c-1.84,2-3.56,4.11-5.3,6.18l-1.14,1.37c-1.46,1.69-2,2.14-2.71,2.17a2.43,2.43,0,0,1-.46,0c-.43-.09-.08-1,.92-2.3,3-3.87,6.41-7.67,9.86-11.46l3.09-3.38,4.13-4.58,2.16,3.23Z"/><path class="cls-3" d="M293.24,197.44c5.34-2.55,10.88-5.39,16.63-6.86,1.29-.34,1-1.32-.27-1-5.94,1.53-11.67,4.41-17.19,7.05-1.36.65-.1,1.24.83.79Z"/><path class="cls-3" d="M311.56,167.87a59.67,59.67,0,0,0-4.76-4.37c-.83-.69-1.69-1.35-2.55-2l-.65-.44c-.2-.15-.51-.32-.48-.32a.74.74,0,0,0-.36-.16c-.22,0-.21.32-.18.49a2.12,2.12,0,0,0,.05.25c0,.16.09.33.13.5.1.34.22.69.34,1a17.09,17.09,0,0,0,4.5,6.48,14.44,14.44,0,0,0,1.58,1.22,9,9,0,0,0,.84.52l.11.06a1.18,1.18,0,0,1,.18.13l.34.24a2.93,2.93,0,0,1,.5.67,5,5,0,0,1,.41,2.58,21.58,21.58,0,0,1-.26,2.21c-.42,2.53-.88,5-1.05,7.44a19.18,19.18,0,0,0,1.26,8.91c.38.82-.16,1.11-1.13.64a5.43,5.43,0,0,1-2.55-4,31.07,31.07,0,0,1,.55-10.29c.29-1.63.64-3.24.79-4.72a7.29,7.29,0,0,0,0-1,2.23,2.23,0,0,0-.08-.62.37.37,0,0,0-.05-.11l-.06,0-.29-.17c-.38-.23-.75-.5-1.11-.76a20.93,20.93,0,0,1-4.5-4.56,16.18,16.18,0,0,1-2.81-5.88,4.9,4.9,0,0,1-.09-.6,4,4,0,0,1-.05-.68,3.63,3.63,0,0,1,.18-1.26,2.18,2.18,0,0,1,.67-1,1.71,1.71,0,0,1,1.11-.35,3.83,3.83,0,0,1,.58.07c.2,0,.4.16.6.23a6.71,6.71,0,0,1,1.13.61c.5.32,1,.64,1.43,1a56.33,56.33,0,0,1,5.25,4.32,61.82,61.82,0,0,1,5.73,6,35.75,35.75,0,0,1,3.64,5.22,20.74,20.74,0,0,1,2.08,6.06c.6,3.24.81,6.39,1.11,9.53.07.7.13,1.37.2,2.07.21,2.58.13,3.4-.46,4a2.16,2.16,0,0,1-.4.4c-.47.3-1-.72-1.27-2.63-.43-2.82-.66-5.76-.92-8.64a27.44,27.44,0,0,0-1.71-8.18,17.29,17.29,0,0,0-1.43-2.68c-.58-.87-1.2-1.75-1.87-2.6a50.43,50.43,0,0,0-4.29-4.85Z"/><path class="cls-3" d="M369.9,282l4.29-10.18c.52-1.25,1-2.51,1.49-3.75L381.23,255c.81-1.94,1.57-3.91,2.3-5.87a64.39,64.39,0,0,1,3.06-7.45c.78-1.49,2.12,1.36,1,4.21-2,5.08-4.11,10.13-6.44,15.14-1.39,3-2.55,6.23-3.83,9.35L373,280.69,370.39,287c-1.33,3.2-2.7,6.39-4,9.58-1,2.48-1.87,5-2.84,7.42-.22.55-.42,1.09-.65,1.63-.86,2-1.37,2.57-2.13,2.7a2.53,2.53,0,0,1-.52.08c-.53,0-.51-1,0-2.48,1.58-4.41,3.41-9,5.3-13.63q2.11-5.15,4.25-10.3Z"/><path class="cls-3" d="M361.38,311.88c-.83,4-3.17,8.94-4.26,13-19.26,2.67-28.21,2.29-53.05,4-17.92,1.2-55.24-1.33-55.54-1.34-10.95-5.68-24.79-12.89-27.85-12.09-1.69.45-81.53,61.45-83.35,60.79-7.82-6.12-17.74-22.75-17.74-22.75s78.78-77.73,99.93-82.81c13.09-3.15,71.64,27.1,88.8,36.26,9.3,5,22.44-2.8,27.44-6.32C341,305.24,346.84,309.77,361.38,311.88Z"/><path class="cls-3" d="M166.78,311.33q-11.84,10.46-23.38,21.24-5.78,5.39-11.5,10.83l-5.71,5.46-4.93,4.76.22.37.79,1.25,1.59,2.49c1.09,1.64,2.19,3.28,3.33,4.88a89.6,89.6,0,0,0,7.31,9.17c.44.48.88,1,1.35,1.38a18.91,18.91,0,0,0,1.4,1.3l.25.22c.07.06.15,0,.22-.05l.55-.33.82-.52c2.17-1.43,4.33-3,6.48-4.49,4.3-3.07,8.56-6.2,12.83-9.32,15-11,30-22.18,45-33.29l11.28-8.3,2.84-2.06,1.44-1,.76-.51a5.4,5.4,0,0,1,.56-.31,2.2,2.2,0,0,1,.67-.12,3.89,3.89,0,0,1,1.1,0,8.44,8.44,0,0,1,1,.18c.62.14,1.19.33,1.77.51,1.14.39,2.24.82,3.33,1.28,4.35,1.84,8.52,3.94,12.69,6.06l6.22,3.23,1.55.81.22.11.25,0,.87.06,3.49.22c8.25.51,16.54.9,24.81,1.15,4.14.11,8.27.21,12.39.21s8.23,0,12.3-.28l15.81-1,15.83-.89q7.91-.5,15.74-1.37l3.92-.47L356,324l.21,0c.06,0,.17,0,.17-.07l.14-.45c.82-2.57,1.84-5,2.72-7.47,1.12-3,1.48-4.36,1.72-4.22s.21,1.78-.44,4.53c-.32,1.38-.78,3-1.3,4.87-.26.92-.54,1.91-.78,2.93-.12.44-.23.89-.35,1.34l-.08.35c0,.08-.07.07-.13.08l-.17,0-.71.12-1.19.2-.88.16a157.32,157.32,0,0,1-16.42,2.06c-10.81.75-21.55,1.12-32.29,1.84-5.4.38-10.88.48-16.28.43s-10.83-.2-16.23-.41-10.81-.48-16.21-.8l-8.11-.51-.5,0-.37,0a1.54,1.54,0,0,1-.48-.06l-1.15-.6-1.79-.94-3.59-1.87c-4.8-2.47-9.61-5-14.51-7a38.49,38.49,0,0,0-3.68-1.37c-.31-.12-.6-.16-.9-.25a4.89,4.89,0,0,0-.83-.15,2.07,2.07,0,0,0-.5,0l-.13.06-.4.26c-2.19,1.5-4.39,3.12-6.59,4.7C193,337,171.53,353.44,150,369c-2.95,2.11-5.89,4.22-8.93,6.25l-1.15.75-.6.37-.3.18-.49.28a2.55,2.55,0,0,1-1,.3h-.25s0,0-.07.05l-.06,0-.11,0a2.53,2.53,0,0,1-.45-.25l-1.34-1.14a50.05,50.05,0,0,1-3.85-4,109,109,0,0,1-6.69-8.68q-1.56-2.25-3.05-4.53l-1.47-2.3-.73-1.16-1.12-1.86,4.55-4.42,4-3.84,8-7.64q8.06-7.61,16.22-15.09,10-9.12,20.16-18c6.8-5.9,13.68-11.72,20.78-17.28,5.38-4.2,10.86-8.3,16.67-12a48.83,48.83,0,0,1,9.27-4.68l1.27-.41c.44-.1.92-.14,1.37-.21a15,15,0,0,1,2.68,0,34.89,34.89,0,0,1,5.14.85,96.71,96.71,0,0,1,9.87,2.94q4.84,1.68,9.57,3.61c6.33,2.54,12.54,5.29,18.69,8.11,9.57,4.4,18.94,9,28.22,13.63q7,3.5,13.85,7.11a13.85,13.85,0,0,0,7,1.51A25.46,25.46,0,0,0,323,306a43.45,43.45,0,0,0,6.09-2.68q1.47-.78,2.91-1.65c.47-.3.95-.58,1.42-.9l.71-.47,1.19-.81a3,3,0,0,1,.54-.34l.49.42,1,.84,1.19,1c.74.61,1.46,1.17,2.16,1.7a35.67,35.67,0,0,0,4,2.56,44.39,44.39,0,0,0,6.54,2.89c3.67,1.28,5.87,1.83,7.6,2.51.8.28,1.86.6,2.32.82.78.36-.58.43-3.69,0a47.22,47.22,0,0,1-5.91-1.19,38.05,38.05,0,0,1-7.93-3.1,36.93,36.93,0,0,1-6-4c-.47-.37-.93-.75-1.39-1.13l-.38-.31c-.06,0-.12-.13-.17-.12.11-.06-1.3.9-2.24,1.47A44.24,44.24,0,0,1,320,309.37a21.12,21.12,0,0,1-7.62.32,10.92,10.92,0,0,1-1.93-.42c-.32-.09-.64-.16-.95-.28l-.92-.39-.92-.41-.8-.41-1.59-.84q-6.36-3.33-12.84-6.59c-8.63-4.35-17.38-8.62-26.24-12.7s-17.85-8-27-11.32c-3.4-1.22-6.84-2.34-10.3-3.21a40.08,40.08,0,0,0-5.17-1l-1.26-.11h-1.22a9.91,9.91,0,0,0-1.11.13,8.3,8.3,0,0,0-1.16.34,46.07,46.07,0,0,0-9.37,4.78c-3,1.93-6,4-8.95,6.17-5.86,4.31-11.55,8.89-17.17,13.57s-11.14,9.46-16.61,14.31Z"/><path class="cls-3" d="M316.06,308.46c7.63-.13,14.86-4.21,21-8.45.57-.39,0-1.33-.54-.93-6,4.14-13,8.17-20.43,8.3a.54.54,0,0,0,0,1.08Z"/><path class="cls-3" d="M213.81,425.43a167,167,0,0,0,3.31,19.43c.6,2.32,1.24,4.63,2,6.9l.46,1.51.11.38.11.24a2.11,2.11,0,0,0,.26.49,6.41,6.41,0,0,0,2,1.77,24.65,24.65,0,0,0,5.56,2.41,82.89,82.89,0,0,0,12.33,2.65c3.72.56,7.5.9,11.23,1.15,4.8.31,9.62.36,14.42.81,3,.28-.89,2.76-6.49,2.51-4.94-.23-9.89-.59-14.83-1.19a100.22,100.22,0,0,1-14.79-2.78,36.18,36.18,0,0,1-8.77-3.42,11.26,11.26,0,0,1-2-1.6,7,7,0,0,1-.86-1.11,2.9,2.9,0,0,1-.35-.65,5.13,5.13,0,0,1-.25-.64c-.46-1.47-.94-2.94-1.37-4.42a152.31,152.31,0,0,1-4-19.78c-.55-4.1-1-8.21-1.36-12.32-.55-6.22-.84-12.49-1.07-18.68-.17-4.82-.39-9.54-.47-14.31,0-1,0-2.07,0-3.13,0-3.92.28-5.17,1-6a3.35,3.35,0,0,1,.51-.54c.56-.35,1,1.26,1,4.11.27,8.47.39,17.38.85,26.3.34,6.63.83,13.28,1.64,19.87Z"/><path class="cls-3" d="M410.43,310.84c9.23-25.39,19.33-50.45,27.37-76.13.73-2.34,1.39-4.7,2.08-7.05s1.26-4.74,1.89-7.1,1.11-4.76,1.66-7.14,1-4.79,1.33-7.19a85.48,85.48,0,0,0,1.17-12.74c0-1.06.06-2.12,0-3.18l-.28-3.14a22.84,22.84,0,0,0-1.36-6c-1.41-3.82-3.86-7.44-7.31-9.33a9.16,9.16,0,0,0-5.55-1.11A11.75,11.75,0,0,0,426,173c-3.26,2.42-5.49,6.1-7.59,9.82s-3.88,7.66-5.59,11.63c-3.43,7.93-6.47,16-9.38,24.2-5.14,14.49-9.82,29.25-14.4,43.82-2.95,9.36-5.84,18.76-8.88,28.13-1.53,4.67-3.08,9.35-4.75,14a137.94,137.94,0,0,1-5.61,13.74c-1.41,2.79-2.56,3.81-2.67,3.56s.5-1.65,1.32-4.09c1.65-4.89,4.29-14,7.81-24.72,6.25-19,12.1-38.19,18.47-57.26,3.18-9.53,6.48-19.05,10.07-28.49,1.82-4.72,3.66-9.43,5.72-14.07a127.61,127.61,0,0,1,6.85-13.69,32.76,32.76,0,0,1,5.83-7.5,14.54,14.54,0,0,1,9.08-3.89,12.17,12.17,0,0,1,5,1.06,15.25,15.25,0,0,1,4.14,2.87,22.27,22.27,0,0,1,5.19,8.27,26.65,26.65,0,0,1,1.27,4.71c.26,1.6.33,3.18.5,4.77a66.75,66.75,0,0,1-.2,9.49,124.28,124.28,0,0,1-3.12,18.5l-.58,2.5-.65,2.47-1.33,4.95c-1,3.27-1.88,6.56-2.94,9.8-2,6.52-4.26,12.95-6.5,19.38-4.54,12.83-9.36,25.55-14.1,38.29-5.86,15.68-11.61,31.39-16.81,47.27-3.92,12-7.53,24.19-10.41,36.51a217.51,217.51,0,0,0-5.75,37.27,125.21,125.21,0,0,0,.05,14.5A78.82,78.82,0,0,1,386,445.4a44.62,44.62,0,0,1-1.37,7.26,17.64,17.64,0,0,1-3.44,6.81,7.8,7.8,0,0,1-3.4,2.27,33.37,33.37,0,0,1-3.62.95c-2.4.51-4.8.9-7.21,1.25-4.23.63-8.38,1.14-12.66,1.59-7.93.81-13.17,1.15-16.86,1.3a42.48,42.48,0,0,1-7.55-.2c-.79-.12-1.82-.22-2.28-.35C326,465.8,332.45,465,344,464c8.57-.85,17.29-1.76,25.92-3.2a61.19,61.19,0,0,0,6.31-1.36l.73-.23a6.11,6.11,0,0,0,.57-.24l.54-.31c.16-.14.34-.26.5-.4a8.45,8.45,0,0,0,1.73-2.18,22,22,0,0,0,2.12-5.82,48.23,48.23,0,0,0,1-6.42q.3-3.27.29-6.59c0-2.22-.18-4.32-.27-6.67a129.83,129.83,0,0,1-.06-13.81,191.21,191.21,0,0,1,3.5-27.39,365.92,365.92,0,0,1,10.23-39.71c4.07-13.06,8.58-25.95,13.23-38.77Z"/><path class="cls-3" d="M237,329.62c4-.39,8.31-.91,12.35-.37,1.59.22,3.94-2,1.41-2.33-4.34-.58-9,0-13.31.39-1.93.19-3,2.56-.45,2.31Z"/><path class="cls-3" d="M240.86,328.35c-11.89,0-23.4,1.79-27.51,15.14-1.38,4.47-3.72,36-3.72,36-15.75,27.75-56.42,83.47-56.42,83.47a115.66,115.66,0,0,0-26.54-14.35c27.45-38.11,45-73,66.87-108.67,0,0,25.06-18.49,27.33-19.65C222.37,319.5,233.38,324.32,240.86,328.35Z"/><path class="cls-3" d="M146.73,421.59l-4.6,7.05-4.69,7-4.79,6.92-3.86,5.4c-.38-.16,2.52,1,4.25,1.83,1.93.88,3.84,1.79,5.71,2.77a114.51,114.51,0,0,1,11,6.42c.74.52,1.5,1,2.24,1.53l.76.55.13.09s.09.09.12,0l2.52-3.48,6.24-8.69q11-15.3,21.78-30.8c7.14-10.34,14.17-20.77,20.79-31.43,1.49-2.36,2.87-4.78,4.29-7.17l.19-.33c0-.09,0-.14,0-.28l.08-1,.17-2.09.33-4.19c.45-5.57.92-11.13,1.46-16.65.38-3.56.69-7.08,1.33-10.69a16.32,16.32,0,0,1,.83-2.7,19.1,19.1,0,0,1,1.11-2.55,8.08,8.08,0,0,1,.68-1.22l.74-1.19c.28-.38.58-.74.87-1.11a8.51,8.51,0,0,1,.92-1.07l1-1c.33-.33.73-.59,1.09-.89a19.12,19.12,0,0,1,2.34-1.57,24.06,24.06,0,0,1,5.15-2.08,42.37,42.37,0,0,1,10.79-1.39c4.49,0,3.85.62.14,1.3-1.86.36-4.48.8-7.51,1.57a33.93,33.93,0,0,0-4.7,1.6,25,25,0,0,0-2.39,1.16,20.62,20.62,0,0,0-2.27,1.54,17.32,17.32,0,0,0-5.63,8.07l-.43,1.2c-.08.39-.18.73-.25,1.15-.15.86-.3,1.72-.41,2.62-.25,1.76-.46,3.56-.65,5.36-.78,7.19-1.42,14.43-2,21.67l-.22,2.72-.11,1.36-.1,1a2.42,2.42,0,0,1-.29.58l-.2.35-2.81,4.73c-1.93,3.11-3.85,6.23-5.85,9.28-4,6.16-8.08,12.21-12.24,18.25-10,14.43-20.39,29.42-30.9,43.95L156,460.89l-1.69,2.32-.58.8-.29.4c-.12,0-.27-.17-.4-.24L151.47,463l-1.05-.75c-.32-.24-.65-.45-1-.67-.66-.44-1.3-.89-2-1.32-1.33-.85-2.68-1.69-4-2.49q-4.1-2.4-8.38-4.49c-1.42-.69-2.86-1.36-4.31-2l-2.19-.93-.7-.29-.9-.34-1.82-.68,3.74-5.26c1-1.41,2-2.81,3-4.24,2-2.86,3.95-5.69,5.85-8.58,6.75-10.06,13.19-20.34,19.43-30.73,9.44-15.74,18.56-31.79,27.82-47.51l3.95-6.68,4-6.7,10.85-8.09q5.34-4,10.73-7.9l2.8-2,1.41-1c.51-.35.89-.62,1.62-1.05a3,3,0,0,1,1.73-.16c.46.07.86.17,1.27.27a55.71,55.71,0,0,1,7,2.61c1.85.82,3.31,1.54,4.5,2.17a22.77,22.77,0,0,1,4.62,3,15.19,15.19,0,0,1,1.24,1.15c.72,1-3.52-1-11.25-4.26-1.45-.6-2.91-1.17-4.38-1.68-.74-.25-1.48-.49-2.22-.68-.36-.09-.72-.18-1-.23s-.36,0-.46,0l-.28.18c-.12.06-.26.17-.4.26l-.82.57-1.67,1.19-3.34,2.42q-3.33,2.48-6.72,5L194.73,341q-2.13,3.56-4.29,7.13c-1.47,2.48-2.94,5-4.42,7.47l-8.79,15.1c-9.86,17.05-19.78,34.21-30.44,50.89Z"/><path class="cls-3" d="M131.9,370.79C118.59,383.1,86.46,384.22,78.14,381c-10-3.84,32.89-11.43,44.9-22.18Z"/><path class="cls-3" d="M93,373.9c-3,1-6,2-9,3-1.47.54-2.93,1.11-4.27,1.76-.31.16-.69.36-.91.5l-.2.12-.11.08a.36.36,0,0,0-.13.23.39.39,0,0,0,.17.21,1.08,1.08,0,0,0,.23.1l.62.21c.52.14,1,.27,1.59.38,1.08.21,2.19.36,3.31.49a77.9,77.9,0,0,0,12,.32,90,90,0,0,0,12-1.34,62.67,62.67,0,0,0,10.35-2.78,47.46,47.46,0,0,0,11.86-6.41c1.1-.84,1.41-.29.87,1a10.62,10.62,0,0,1-4.53,4.55,54,54,0,0,1-13.62,5.09,81.06,81.06,0,0,1-14.28,2c-5.76.27-11.75.53-17.68-.46a22.12,22.12,0,0,1-2.45-.56c-.19-.05-.44-.14-.66-.22a6.72,6.72,0,0,1-.72-.27,3.76,3.76,0,0,1-1.5-1.05,1.73,1.73,0,0,1-.35-1.62,3.27,3.27,0,0,1,1-1.44,10.59,10.59,0,0,1,1.34-.88c.37-.21.75-.39,1.13-.57a92.86,92.86,0,0,1,9.09-3.4c3.74-1.25,7.49-2.44,11.21-3.72a124.49,124.49,0,0,0,16.47-6.63,36.49,36.49,0,0,0,3.44-2c.55-.36,1.09-.74,1.6-1.14.19-.14.64-.51,1-.84s.78-.68,1.17-1l4,5.12,1.85,2.36c2.26,3,2.84,4,2.81,5.06a3,3,0,0,1,0,.69c-.18.58-1.42-.4-3.17-2.51q-1.71-2.07-3.41-4.21l-1.71-2.15-.42-.55-.21-.26,0,0a.21.21,0,0,0-.08-.06l0,.06,0,0v0l-.11.08c-.5.39-1,.75-1.53,1.1-1,.69-2.1,1.33-3.19,1.92a73.74,73.74,0,0,1-6.67,3.16c-6,2.52-12.12,4.51-18.2,6.54Z"/><path class="cls-3" d="M146.77,458.58c-2.77,3.88-6.69,9.39-11,11.85s-52.29,1.66-47.29-2c8.74-6.38,41.92-6.7,44.58-8.66a17.2,17.2,0,0,0,4.79-6.25Z"/><path class="cls-3" d="M101.63,465.62A51,51,0,0,0,92.35,468a11.4,11.4,0,0,0-1.07.44l-.26.11-.22.12c-.07,0-.16.13-.08.19a1.09,1.09,0,0,0,.45.2l.25.06.57.12,1.18.2c2.32.36,4.7.52,7.07.72a244,244,0,0,0,25.23.72c1.86-.05,3.73-.16,5.57-.34.92-.1,1.83-.22,2.71-.38a9.56,9.56,0,0,0,1.23-.32,1.74,1.74,0,0,0,.47-.24l.56-.34a26.12,26.12,0,0,0,5-4.75c1.52-1.78,2.95-3.67,4.44-5.53.93-1.17,1.32-.65,1.07.73a13.63,13.63,0,0,1-2.93,5.84,30.5,30.5,0,0,1-5.55,5.38c-.28.19-.54.39-.84.56l-.43.27-.22.13-.34.17a9.54,9.54,0,0,1-2.16.57c-1.3.22-2.54.33-3.79.43a144.28,144.28,0,0,1-14.85.11c-5.91-.24-12.06-.31-18.11-.89-1.67-.16-3.33-.35-5-.63l-1.26-.23a17.86,17.86,0,0,1-1.81-.46,5.27,5.27,0,0,1-1.52-.77,1.5,1.5,0,0,1-.64-1.25,1.12,1.12,0,0,1,.29-.62l.53-.55.27-.28a3.16,3.16,0,0,1,.41-.24l.83-.48a7.62,7.62,0,0,1,.85-.44l.6-.26c.4-.18.8-.31,1.2-.46a45.76,45.76,0,0,1,4.88-1.41,120.89,120.89,0,0,1,12.16-2c6.14-.77,12.35-1.21,18.41-1.95,1.12-.14,2.23-.31,3.3-.52a10.28,10.28,0,0,0,1.49-.41c.14,0,.14-.08.22-.11a3.24,3.24,0,0,0,.28-.22c.2-.17.4-.34.58-.52a13.05,13.05,0,0,0,2-2.46c.29-.45.56-.92.82-1.4.39-.71.82-1.58,1.23-2.39l.9.49,3.3,1.77c3.4,1.86,4.39,2.61,4.81,3.58a3.25,3.25,0,0,1,.26.65c.08.61-1.5.19-4-1.07l-2.73-1.38-1.31-.67-.23-.06c-.09.22.11-.06-.49,1a18.31,18.31,0,0,1-1.5,2.21,13.62,13.62,0,0,1-1.94,2l-.27.22a2.65,2.65,0,0,1-.36.26,5.6,5.6,0,0,1-.54.28l-.4.14a11.26,11.26,0,0,1-1.4.37c-3.48.66-6.8.92-10.19,1.29-6.58.68-13.18,1.28-19.62,2.45Z"/><path class="cls-3" d="M276.12,457.63l-5.29.38-.29,0h-.19v2.49l0,5.3c0,.44,0,.88,0,1.33l-.15,1.32-.3,2.66-.22,1.94-.11,1,0,.24v.06h0l.92,0h0v.15c0,.06,0,.18,0,.2h.23l1.61-.06c9.12-.27,18.23-.23,27.34-.12l12.11.07c5.15,0,10.32-.07,15.46.23,3.2.18-.89,2.19-6.82,2.13-10.52-.1-21-.32-31.58-.5-3.17-.06-6.4,0-9.64.06l-4.87.16-5.85.23c-.14.05-.06-.13-.08-.2v-3.43l0-2.68,0-5.35,0-5.35,0-3.25v-.52l.52,0,1-.08,1.54-.12,13.13-1,19.86-1.49c5.12-.41,10.12-.93,15.17-1.38l3.33-.28c4.17-.29,5.51-.21,6.47.37a2.44,2.44,0,0,1,.55.41c.15.21-.23.41-.86.56a26.9,26.9,0,0,1-3.42.5c-9,.91-18.52,1.72-28.08,2.46l-21.35,1.62Z"/><path class="cls-5" d="M325.4,452.84c-.67,8.2.3,14.13,0,22.65"/><path class="cls-3" d="M305.07,442l-11.38-.26-4.15,0-13.41-.48v.61l0,.78.07,1.61c.05,1.08.13,2.15.21,3.22.22,2.74.56,5.49.59,8.25,0,1.72-2-.3-2.23-3.48-.16-1.93-.29-3.86-.39-5.81-.05-1-.09-1.94-.11-2.92l0-1.47V439.3l2.52.08,1.33.07,2.66.15c3.39.2,6.92.17,10.39.25l11.45.24,7,.09H315c.89,0,1.77,0,2.66-.05.44,0,.88,0,1.32-.06l1.37-.09c.51-.05,1-.13,1.48-.2l.18,0c.06,0,.14,0,.12.05v1.1l.06,2.33c.05,1.36.1,2.71.14,4.07,0,.59,0,1.18.07,1.78,0,2.24-.1,2.95-.6,3.43a1.62,1.62,0,0,1-.34.31c-.38.22-.7-.69-.81-2.33-.17-2.42-.27-4.92-.32-7.45l0-.95v-.28h0l-.25,0-.49,0-1,.06-1.94.07c-3.84.09-7.68.05-11.51,0Z"/><path class="cls-3" d="M268.15,440.93c-.23.1-.41-.09-.57-.46a.7.7,0,0,1,0-.52,2,2,0,0,1,.37-.25c.08,0,1.31-.19,1.72-.25a7,7,0,0,1,1.21-.06h2.46l.54.06a8.44,8.44,0,0,0,1.87.12.55.55,0,0,0,.31-.05,12,12,0,0,1,2.08,0c.55.12,1.09.19,1.63.28.08,0,.16,0,.23.06a.68.68,0,0,0,.5.14,5.62,5.62,0,0,1,.7.1,1.68,1.68,0,0,1,.34.19c.1.06,0,.28,0,.3s0,.18,0,.27a.14.14,0,0,1,0,.09,7.89,7.89,0,0,1-1.5.42l-1,.05-1.18.08a1.48,1.48,0,0,1-.35-.05l-1.68.1a2.69,2.69,0,0,1-1-.11.41.41,0,0,0-.19,0c-.56,0-1.12,0-1.67-.08-.29,0-.57,0-.86,0l-.15,0-.19,0c-.68,0-1.35-.08-2,0-.16,0-.9-.16-1.08-.14S268.24,440.89,268.15,440.93Z"/><path class="cls-3" d="M292.25,426l9.57.48,3.49.11,6.15.29,3.07.13,3.74.12h0l0,3.4,0,2.71a67.71,67.71,0,0,1,0,7c-.13,1.45-1.93-.39-2-3.07v-4.67l0-2.34,0-1.08a.62.62,0,0,0,0-.1l-.1,0-1.19-.07-2.46-.16c-2.86-.2-5.84-.19-8.77-.31l-9.64-.44-5.94-.26c-3-.12-6-.25-9-.28-2.32,0-4.58.07-6.87.14l-1.5,0c-1.88,0-2.48-.1-2.88-.6a2.12,2.12,0,0,1-.27-.34c-.18-.38.59-.7,2-.81,4.1-.32,8.42-.3,12.76-.21,3.21.08,6.44.21,9.67.34Z"/><path class="cls-6" d="M272.1,441.09a1.54,1.54,0,0,0,.53-.91,4.2,4.2,0,0,0,.09-.53c0-.33.06-.63.07-.93,0-.6,0-1.18,0-1.76,0-1.16-.11-2.3-.2-3.44-.18-2.28-.41-4.54-.67-6.8a3.84,3.84,0,0,0-1.87.22c.26,2.24.48,4.49.66,6.73.09,1.12.16,2.24.2,3.35,0,.55,0,1.11,0,1.64,0,.27,0,.53-.05.77s0,.22-.05.3,0,0,0,.06l.25.12a.67.67,0,0,1,.15.06c.09,0,.2.17.23.19l0,0v0a.76.76,0,0,0,0,.15,1.15,1.15,0,0,0,.13.63A.35.35,0,0,0,272.1,441.09Z"/><path class="cls-3" d="M394.22,474.65l-16.71-.27c-2,0-4.07,0-6.1,0-7.16-.13-14.32-.3-21.48-.41-3.18,0-6.38,0-9.53,0-4,0-8.12.25-12.17,0-2.52-.18.68-2.75,5.35-2.78,8.27-.05,16.54.07,24.88.44,5,.22,10.18.1,15.29.16l16.83.21c3.46,0,6.91.1,10.36.13,5.23,0,10.49.12,15.68.09,4,0,8-.22,12-.34.88,0,1.74-.07,2.62-.09,3.29,0,4.33.14,5,.85a2.61,2.61,0,0,1,.46.49c.32.55-1,1-3.42,1.16-7.14.48-14.66.55-22.21.56-5.61,0-11.24-.07-16.86-.1Z"/><path class="cls-3" d="M191.41,474.65l-29.67-.27c-3.61,0-7.22,0-10.82,0-12.72-.13-25.43-.3-38.15-.41-5.64,0-11.31,0-16.91,0-7.19,0-14.41.25-21.6,0-4.48-.18,1.2-2.75,9.49-2.78,14.69-.05,29.37.07,44.18.44,8.85.22,18.07.1,27.13.16L185,472q9.2.07,18.39.13c9.29,0,18.62.12,27.83.09,7.17,0,14.19-.22,21.27-.34,1.56,0,3.09-.07,4.66-.09,5.83,0,7.69.14,8.94.85a4.32,4.32,0,0,1,.82.49c.56.55-1.81,1-6.08,1.16-12.66.48-26,.55-39.42.56-10,0-20-.07-29.94-.1Z"/><path class="cls-3" d="M354.89,326.51c2.57,0,5.15-.13,7.72-.34,2.86-.24,6.43-.37,8.88-2.07,2.09-1.46-1-2.5-2.45-1.52-1.85,1.29-5.78,1.06-8,1.19-1.93.12-3.87.2-5.81.21s-3,2.56-.39,2.53Z"/><path class="cls-3" d="M323.4,304.79a51.14,51.14,0,0,0,11.61-6,88.13,88.13,0,0,0,10.36-8.29,159,159,0,0,0,17.88-19.91c4-5.18,7.72-10.57,11.34-16q4.79-7.2,9.28-14.63c3-4.92,5.95-10,8.89-14.88a60.75,60.75,0,0,0,6.12-15.87,39.72,39.72,0,0,0,1-8.39,23.29,23.29,0,0,0-1.26-8.19,15.4,15.4,0,0,0-4-6,17.48,17.48,0,0,0-6.28-3.58,11.62,11.62,0,0,0-3.51-.44,12.88,12.88,0,0,0-3.51.66,25.13,25.13,0,0,0-6.49,3.47c-2.64,1.84-5.11,4-7.71,6-1.3,1-2.64,2-4.07,2.95a18.79,18.79,0,0,1-4.67,2.29,10.78,10.78,0,0,1-2.67.5,6.9,6.9,0,0,1-2.89-.35,3.5,3.5,0,0,1-1.45-1,3.3,3.3,0,0,1-.76-1.63,6.08,6.08,0,0,1,.31-2.94,18.86,18.86,0,0,1,2.36-4.63,36.58,36.58,0,0,1,3.09-4c1.4-1.56,2.26-2,2.39-1.8s-.39,1.17-1.24,2.68a66.27,66.27,0,0,0-3.23,6.19,15.57,15.57,0,0,0-.71,2,4.79,4.79,0,0,0-.23,1.81.67.67,0,0,0,.15.41c0,.06.1.08.27.16a4.71,4.71,0,0,0,1.83.16c2.68-.18,5.45-1.92,8-3.8s5.16-4.11,7.91-6.16a31,31,0,0,1,9.31-5.11,14.47,14.47,0,0,1,5.65-.58,15.27,15.27,0,0,1,5.39,1.64,19.39,19.39,0,0,1,4.56,3.11,17.84,17.84,0,0,1,3.4,4.38,22.84,22.84,0,0,1,2.59,10.44,41,41,0,0,1-1.16,10.4,60.8,60.8,0,0,1-3.23,9.83q-1.22,2.85-2.68,5.6c-.49.92-1,1.83-1.56,2.73l-1.58,2.61L386,241.31c-4.27,7.11-8.72,14.19-13.47,21a216.11,216.11,0,0,1-16.91,21.51c-6.14,6.77-12.84,13.14-20.62,18.12a45.1,45.1,0,0,1-15.7,6.67,19.47,19.47,0,0,1-4.38.19,22.36,22.36,0,0,1-4.3-.66,32.47,32.47,0,0,1-8-3.21,56.82,56.82,0,0,1-10.4-7.59,99.17,99.17,0,0,1-8.88-9.23,165.3,165.3,0,0,1-14.81-20.65c-3.43-5.59-6.61-11.26-9.49-17.06a123.53,123.53,0,0,1-7.46-18c-.21-.69-.4-1.39-.58-2.09-.09-.35-.19-.7-.26-1.06l-.16-.75-.16-.85-.16-.85,0-.11s.06,0,.08-.06l.2-.08.39-.18,1.55-.71,1.94-.89c9.65-4.43,13-5.49,15.38-5.57a10.62,10.62,0,0,1,1.59,0c1.11.24-2.84,1.8-9.83,5.13l-7.89,3.7-.22.11-.11.06-.1,0,0,.11.34,1.36c.36,1.37.79,2.74,1.26,4.11a143.17,143.17,0,0,0,7,16.21,193.37,193.37,0,0,0,18.91,30.66c5.45,7.09,11.5,13.84,18.64,19A35.33,35.33,0,0,0,311,305.46a19.94,19.94,0,0,0,6.22.67,18.79,18.79,0,0,0,3.07-.45,14.33,14.33,0,0,0,1.53-.44l1.55-.51Z"/><path class="cls-3" d="M342.56,124.46a5.68,5.68,0,0,1-1.77,1,4.42,4.42,0,0,1-1.15.14,3.38,3.38,0,0,1-1.12-.22,4.73,4.73,0,0,1-.72-.31,5.28,5.28,0,0,1-.63-.42l-.07-.06a3,3,0,0,1-.77-1.33,5.38,5.38,0,0,1-.16-1.14,12.36,12.36,0,0,1,.12-2l.21-1.77a3.73,3.73,0,0,1,.77-2.24c.2-.2.7.17,1.16.6s.9.88.81,1.18c-.32,1.12-.58,2.42-.82,3.67a2.1,2.1,0,0,0,0,.87.76.76,0,0,0,.2.41,1.22,1.22,0,0,1,.22.15,1.56,1.56,0,0,0,.77.33,1.71,1.71,0,0,0,.9-.26,4.91,4.91,0,0,0,1.18-1,10.54,10.54,0,0,0,1.47-2.16,13,13,0,0,0,.67-2c0-.15.07-.3.13-.45.22-.53.45-.64,1.08-.46l.43.13a1,1,0,0,1,.67,1,9.71,9.71,0,0,1-1.41,3.78,11.19,11.19,0,0,1-2.15,2.64Z"/><path class="cls-3" d="M337.77,149.92c.15-1.6.21-1.92.32-2,.36-.22.67-.42,1-.59A9.67,9.67,0,0,0,340,147a4.21,4.21,0,0,0,1.18-1.2,1.74,1.74,0,0,0,.23-.39.65.65,0,0,0,0-.37s-.06,0,0,0a8,8,0,0,1,1.47.29,1.55,1.55,0,0,1,.32.12c0,.16.87.62.75.84a8.74,8.74,0,0,0-.34,1.24,1,1,0,0,1-.3.39c-.17.12-.39.2-.56.3a11.29,11.29,0,0,1-2.22,1.54,6.67,6.67,0,0,1-1.57.54,3.58,3.58,0,0,1-.81.09C338,150.29,337.92,150.11,337.77,149.92Z"/><path class="cls-3" d="M347.84,105.86a10.74,10.74,0,0,0-2.36-.79c-.3,0-.6-.07-.9-.09a9.91,9.91,0,0,0-3.26,0,4,4,0,0,0-1.35.5,7.07,7.07,0,0,1-1.5.87c-.17,0-.63-.38-.89-1s-.26-1.33.15-1.61a7.6,7.6,0,0,1,4.56-1.19,10.9,10.9,0,0,0,1.4,0,12.91,12.91,0,0,1,1.39,0,13.11,13.11,0,0,1,2.93.74l.86.33c.28.13.54.28.82.4a8.66,8.66,0,0,1,1.19.67c.39.25.8.44,1.17.7.57.38,1.27.6,1.85,1a3.26,3.26,0,0,1,.4.24c.47.33.5.58.16,1.13l-.23.37a1,1,0,0,1-1.13.43,21.44,21.44,0,0,1-3.05-1.59,16.09,16.09,0,0,0-2.23-1.13Z"/><g class="cls-2"><path class="cls-3" d="M297.48,442l-6.36-.57c-.77-.07-1.55-.08-2.32-.16l-8.17-.83c-1.21-.12-2.43-.19-3.63-.25a26.08,26.08,0,0,1-4.65-.4.5.5,0,0,1-.16-.05l-.15-.1a.23.23,0,0,1,0-.25,1.83,1.83,0,0,1,.45-.6,2.82,2.82,0,0,1,2.1-.76c3.14.21,6.29.51,9.44,1,1.89.28,3.87.33,5.81.5l6.41.54,3.94.31c2,.14,4,.3,6,.36,1.53,0,3.05,0,4.56-.06l1-.05c1.25,0,1.58.07,1.87.54a1.13,1.13,0,0,0,.25.29c.17.14.12.37-.23.57a2.54,2.54,0,0,1-1.1.35,51.67,51.67,0,0,1-8.54.11c-2.14-.11-4.29-.27-6.44-.42Z"/></g><g class="cls-2"><path class="cls-3" d="M273.39,452.54l-.4-4.19c-.05-.51-.17-1-.21-1.53-.07-.87-.11-1.75-.14-2.63l0-.66v-.33a.5.5,0,0,1,0-.19l.05-.65-.09,0a4.8,4.8,0,0,0-.55,0l-1.12,0a10.07,10.07,0,0,1-3.05-.1c-.63-.17.18-2.47,1.36-2.47.72,0,1.44,0,2.17.05l1.54.09,2,.13c0,.61,0,1.23-.05,1.86l0,.86,0,.32v.24a21.92,21.92,0,0,0,.31,3.76l.44,4.2.29,2.59.16,1.46c0,.56.09,1.11.14,1.65l-2.27.13-.88,0-.78.06c-.52,0-1.05.06-1.59.05a5.67,5.67,0,0,1-.71,0c-.88-.11-1.16-.39-1.15-1.05a3.29,3.29,0,0,1,0-.45,1,1,0,0,1,1-.81l2.55-.11.65,0,.33,0c.15,0,.14,0,.14,0s0,0,0,0h0l0-.2-.24-2Z"/></g><g class="cls-2"><path class="cls-3" d="M268.6,427.53c-.23-.2.12-.42.83-.66a3.1,3.1,0,0,1,1-.11,4,4,0,0,1,.55.31c.09.07.55,1.24.73,1.63a3.51,3.51,0,0,1,.28,1.17l.27,2.43a1.49,1.49,0,0,1-.05.55,4.54,4.54,0,0,0,0,1.87c0,.1,0,.21.12.3a5,5,0,0,1,.19,2.1c-.19.56-.31,1.13-.5,1.7,0,.09,0,.18-.12.25-.3.16-.26.35-.3.54a2.58,2.58,0,0,1-.34.86,1.44,1.44,0,0,1-.84.52c-.27,0-.29-.14-.28-.26s0-.27,0-.3-.1-.18-.08-.17l0,0h0l-.05,0c-.08-.12-.17-.17-.43-.27l-.22-.11a.09.09,0,0,1-.06-.05l-.13-.17a3.72,3.72,0,0,1-.34-.66l0-.29c0-.17-.05-.4-.09-.64-.07-.48-.17-1-.2-1.1s0-.22.06-.33-.33-1.53-.33-1.59c0-.31-.13-.62.11-.95a.19.19,0,0,0,0-.19,8,8,0,0,1,0-1.62,7.8,7.8,0,0,0-.09-.83.83.83,0,0,1,0-.15.48.48,0,0,0,0-.2,11.78,11.78,0,0,0-.23-1.95c0-.15.2-.9.13-1.07S268.69,427.6,268.6,427.53Z"/></g><path class="cls-3" d="M306.92,356.8c-6.15.38-12.32.63-18.48.82q-3.37.12-6.75.2-11.88.14-23.77-.28l-10.54-.38a116.41,116.41,0,0,1-13.44-1c-1.39-.21-1.13-.74.09-1.15a16.73,16.73,0,0,1,6-.54c9.07.66,18.17,1,27.36,1.33,1.37.05,2.76.08,4.16.1l4.21,0c2.82,0,5.66-.11,8.47-.17q9.29-.2,18.55-.72c3.81-.2,7.61-.49,11.41-.76l8.63-.77c2.87-.29,5.73-.62,8.57-1,4.42-.56,8.73-1.29,13.07-2l2.85-.51c3.57-.59,4.73-.62,5.59-.17a3,3,0,0,1,.57.3c.42.38-1,1-3.6,1.5-1.93.39-3.9.77-5.89,1.14s-4,.64-6,1c-4.06.64-8.21,1.1-12.37,1.58-6.17.67-12.39,1.18-18.6,1.61Z"/><g class="cls-2"><path class="cls-3" d="M253.84,147.33c-1.4.14-2.8.3-4.2.51s-2.83.42-4.29.54-2.93,0-4.29.12a7.24,7.24,0,0,0-3.52.82c-.19.16-1.85-1.77-1.26-2.1a9.18,9.18,0,0,1,4.76-.83c1.48,0,2.91.23,4.24.25s2.81-.08,4.23-.14,2.87-.15,4.31-.07A.45.45,0,1,1,253.84,147.33Z"/></g><g class="cls-2"><path class="cls-3" d="M257.33,152.6a31.31,31.31,0,0,1-3.69.41c-1.22.08-2.43.14-3.62.24a23,23,0,0,0-3.48.56,7.09,7.09,0,0,0-2.9,1.36c-.22.2-1.56-1.08-1.16-1.38a8.53,8.53,0,0,1,3.68-1.63,22.26,22.26,0,0,1,3.77-.4c2.48-.08,4.91.13,7.29,0A.41.41,0,0,1,257.33,152.6Z"/></g></g></svg>