<svg id="Layer_1" data-name="Layer 1" xmlns="http://www.w3.org/2000/svg" width="520" height="520" viewBox="0 0 520 520"><defs><style>.cls-1{fill:#221f1f;}</style></defs><title>Notioly v2</title><g id="_81.Sleeping" data-name="81.Sleeping"><path class="cls-1" d="M190.11,396.14a92.9,92.9,0,0,0-7.65-10.2c-1-1.18-2.08-2.33-3.12-3.48-3.68-4.1-7.52-8-11.43-12-1.73-1.73-3.51-3.44-5.25-5.14a49.94,49.94,0,0,1-6.4-7c-.56-.85-.12-.95.68-.54a13.41,13.41,0,0,1,3.26,2.58c4.36,4.56,9,9,13.4,13.69,2.63,2.82,5.48,5.65,8.11,8.61a110,110,0,0,1,8.15,10.2,58.9,58.9,0,0,1,4.18,6.9,25.17,25.17,0,0,1,3.13,11.8,14,14,0,0,1-3.43,8.8,19.09,19.09,0,0,1-1.46,1.52c-2,1.71-2.85,2-3.52,1.9a1.53,1.53,0,0,1-.45-.06c-.19-.08-.1-.31.22-.65s.87-.79,1.56-1.36a15.18,15.18,0,0,0,4.73-6.24,14,14,0,0,0,.4-7.93,35.8,35.8,0,0,0-5.14-11.44Z"/><path class="cls-1" d="M116.26,270.41a12,12,0,0,1-2.14-4.65,7.75,7.75,0,0,1-.21-1.94,4.38,4.38,0,0,1,1.54-3.27,5.12,5.12,0,0,1,3.28-1.05,10.72,10.72,0,0,1,2.85.41,6.8,6.8,0,0,1,3.19,1.68c.27.26-.08.6-.6.81a2.11,2.11,0,0,1-1.67,0c-1.75-.93-3.88-1.43-5.52-.82a2.57,2.57,0,0,0-1.24,2.78,9.74,9.74,0,0,0,1.39,4.05,7.57,7.57,0,0,0,1.76,2,8.35,8.35,0,0,0,3.75,1.55,16.14,16.14,0,0,0,3.26,0l.72,0c.9,0,1.2.1,1.39.6a2.92,2.92,0,0,1,.13.34c.09.39-.29.71-1,.82a14.57,14.57,0,0,1-6.51-.35,9.12,9.12,0,0,1-4.44-2.95Z"/><path class="cls-1" d="M159.54,285.85c4.13-.79,6.18-5.2,6-9.42a23.05,23.05,0,0,0-.67-4.71,56.91,56.91,0,0,0-2.6-8.2c-1-2.7-2.21-5.38-3.35-8.06-1-2.39-2.07-4.78-3-7.21a37.08,37.08,0,0,1-1.5-4.83,12.09,12.09,0,0,1-.15-5.19c.28-1.1.7-.75,1,.15a34.57,34.57,0,0,1,1,4.07,50.71,50.71,0,0,0,3.07,9.31c1.26,3.1,2.62,6.21,3.83,9.41,1.44,3.82,3.1,7.79,3.81,12a17.16,17.16,0,0,1-.12,7.13,10,10,0,0,1-4,6,14.37,14.37,0,0,1-8.55,1.71A35.19,35.19,0,0,1,142,284.62a39.41,39.41,0,0,1-8.42-5.24c-.56-.47-1.11-.94-1.63-1.47-1.94-2-2.29-2.84-2.24-3.58a1.93,1.93,0,0,1,.05-.5c.2-.43,1,.3,2.33,1.66a38.52,38.52,0,0,0,14.73,9.12,32.47,32.47,0,0,0,6.4,1.49,17.11,17.11,0,0,0,6.36-.29Z"/><path class="cls-1" d="M126.47,224.79c-.1.05-.34.48-.22.24,15.17-28.24,32.68-37.22,47.38-20,4.84,5.68,10.94,32.57-33.92,30.78-16-.64-11.56,25.09-17.54,25-20-.43-23.12-15-20.28-22.39C108.06,222.23,124.64,223.84,126.47,224.79Z"/><path class="cls-1" d="M128,242.18a16,16,0,0,1,2.51-3.82,10.92,10.92,0,0,1,3.83-2.73,11.54,11.54,0,0,1,4.57-.88c.79,0,1.46,0,2.17,0l2.1.06a64.65,64.65,0,0,0,16.62-1.69,26.82,26.82,0,0,0,10.64-5.24,16.69,16.69,0,0,0,3.36-3.9,15.27,15.27,0,0,0,1.87-4.78,18.62,18.62,0,0,0-.85-10.28,14.76,14.76,0,0,0-1.11-2.34,10.85,10.85,0,0,0-.71-1l-.88-1c-.58-.69-1.24-1.28-1.86-1.92s-1.31-1.2-2-1.72a17.71,17.71,0,0,0-9.59-3.94,15,15,0,0,0-4.63.37,18.52,18.52,0,0,0-4.42,1.58,31.79,31.79,0,0,0-7.67,5.51c-5.9,5.64-10.34,12.67-14.48,19.73l-.43.7-.19.26-.08.11,0,0v0h0a.63.63,0,0,1-.16-.1l-.11,0c-.07,0-.17-.05-.21-.1s-.16-.12-.24-.17l-.13-.09-.06,0h0l0,0,0,0,.08-.07.15-.11c.09-.05.27-.11.25,0a1,1,0,0,0-.08.28l0,.17,0,.1h0s0,0,.06,0V225a9.07,9.07,0,0,1,.31-1.28,37.82,37.82,0,0,1,5-9.88,66.75,66.75,0,0,1,8.16-10,33.29,33.29,0,0,1,10.76-7.4,19.79,19.79,0,0,1,6.57-1.4,17.53,17.53,0,0,1,6.65,1.12,26.28,26.28,0,0,1,10.46,7.91,12.92,12.92,0,0,1,2.11,3.52,21.71,21.71,0,0,1,1.16,3.86,20,20,0,0,1,.05,8.09,18.42,18.42,0,0,1-1.3,3.9,17.17,17.17,0,0,1-2.21,3.47,20.62,20.62,0,0,1-6.31,5.09c-5.23,2.78-11.07,3.86-16.81,4.35-2.88.19-5.76.29-8.64.21l-2.16-.06a17.19,17.19,0,0,0-2,0,8.86,8.86,0,0,0-3.78,1.14,9.85,9.85,0,0,0-3.49,3.42,20.77,20.77,0,0,0-2.14,4.63c-1.11,3.27-1.66,6.73-2.5,10.19a13.44,13.44,0,0,1-1.47,3.91,3,3,0,0,1-1.94,1.44,4.21,4.21,0,0,1-1.12,0l-1-.07-2-.15-2-.35a30.1,30.1,0,0,1-4-1,20.64,20.64,0,0,1-7-4.19,16,16,0,0,1-4.32-6.9,17.57,17.57,0,0,1-.76-6.27,10.47,10.47,0,0,1,.18-1.58,10.17,10.17,0,0,1,.33-1.55,18.72,18.72,0,0,1,1.13-2.93,21.41,21.41,0,0,1,8-9.47,17.89,17.89,0,0,1,2.42-1.34c.42-.19.83-.41,1.26-.57l1.32-.46a19.8,19.8,0,0,1,7.24-1,7.08,7.08,0,0,1,3.19.76l.49.28a2.27,2.27,0,0,1,.34.3c.1.14,0,.2-.23.21l-1.2,0a28.83,28.83,0,0,0-5.35.3,21.06,21.06,0,0,0-9.62,4,20.42,20.42,0,0,0-6.39,8.37l-.54,1.24-.38,1.23a15.87,15.87,0,0,0-.36,2.58,15.11,15.11,0,0,0,.61,5.22,8.72,8.72,0,0,0,.45,1.24,6.88,6.88,0,0,0,.54,1.21l.63,1.16.78,1.06.39.53.46.48.92.95,1,.82a6.57,6.57,0,0,0,1.1.77,20.58,20.58,0,0,0,7.52,2.82l2,.35,2.07.14c1.81.12,1.67.27,2.4-.86a18.65,18.65,0,0,0,1.2-3.78l.92-4.18a39.71,39.71,0,0,1,2.65-8.45Z"/><path class="cls-1" d="M137.63,281.63c.37,2.69,7,12.9,16.15,11.34,3-.52,2.37-2.78.79-5.23C144.84,285.84,138.47,283.48,137.63,281.63Z"/><path class="cls-1" d="M154.83,286.6l.41.09c.13,0,.16.22.24.32l.41.69c.16.28.3.57.44.86a6.75,6.75,0,0,1,.61,2.05,3.2,3.2,0,0,1-.14,1.31,2.57,2.57,0,0,1-.8,1.18,4.2,4.2,0,0,1-2.14.84,11.74,11.74,0,0,1-5.21-.36,15.76,15.76,0,0,1-2.24-.93,16.62,16.62,0,0,1-3.87-2.74,26.29,26.29,0,0,1-2.86-3,17.79,17.79,0,0,1-1.57-2.16,7.45,7.45,0,0,1-1.05-2.57c-.08-.66.43-.54,1-.25a4,4,0,0,1,1.68,1.54,22.78,22.78,0,0,0,6.67,7.19,10.14,10.14,0,0,0,5.7,1.62c.54,0,1.11-.07,1.63-.13a2,2,0,0,0,1.16-.47c.47-.34.2-1.52-.3-2.48-.14-.3-.35-.67-.39-.75s-.13-.1-.21-.12l-.44-.1-2.15-.5c-2.17-.51-4.32-1.11-6.45-1.73a47.17,47.17,0,0,1-4.93-1.6,9.23,9.23,0,0,1-1.07-.48c-1.31-.71-1.67-1.38-1.43-1.94a1,1,0,0,1,.19-.34c.34-.22.68-.06,1.45.34a28.16,28.16,0,0,0,4.06,1.58c1.45.47,3,.9,4.48,1.31,1.12.31,2.26.59,3.41.87l1.72.4,2,.43Z"/><path class="cls-1" d="M129,303.51a29.58,29.58,0,0,1,5.91-7.54c.57-.55,1.18-1.06,1.78-1.58l1.2-1c.51-.7,1.21,0,1.76.21a6,6,0,0,1,.64.38l.51.35.95.7,1.85,1.42c1.78,1.4,3.57,2.75,5.35,4.09a90.71,90.71,0,0,0,9.76,6.59,37.34,37.34,0,0,0,10.76,4.38,17.69,17.69,0,0,0,5.07.33,2.54,2.54,0,0,0,1-.21.57.57,0,0,0,.31-.53,4.94,4.94,0,0,0-.74-2.09,50.78,50.78,0,0,0-3.84-5.4c-.68-.9-1.36-1.8-2-2.75a12.38,12.38,0,0,1-1.66-3.15c-.25-.82.08-1.38.24-1.25s.17.18.26.34a5.74,5.74,0,0,0,.46.58c.75.87,2.3,2.29,3.86,4.34a67.46,67.46,0,0,1,4.06,5.71,14.07,14.07,0,0,1,.87,1.69,4.58,4.58,0,0,1,.4,2.35A2.42,2.42,0,0,1,177,313a3.45,3.45,0,0,1-.69.46,6.08,6.08,0,0,1-.64.22l-.58.1c-.2,0-.32,0-.48,0l-.93,0a22.8,22.8,0,0,1-7.14-1.14A37.31,37.31,0,0,1,160,309.9a102.63,102.63,0,0,1-14.25-9.41l-3.68-2.87c-.61-.47-1.22-.94-1.83-1.39-.31-.23-.62-.45-.92-.65a4.35,4.35,0,0,0-.62-.38s-.07-.05-.1,0l-.09.07-.21.17c-.3.24-.6.48-.88.73-.59.49-1.14,1-1.69,1.53a31.47,31.47,0,0,0-3,3.41,23.46,23.46,0,0,0-4.49,10.11c-1,5.58.06,11.42,2,16.75a111,111,0,0,0,5.5,12c.43.88.87,1.73,1.27,2.65a12.89,12.89,0,0,1,1.17,3.86,2.4,2.4,0,0,1-.51,1.9,1.24,1.24,0,0,1-.51.37c-.26,0-.22-.27-.27-.79a10.31,10.31,0,0,0-.7-2.59c-.68-1.75-1.6-3.52-2.5-5.32s-1.84-3.63-2.71-5.52a57.14,57.14,0,0,1-4.21-12,31.54,31.54,0,0,1-.62-9.66,24.93,24.93,0,0,1,2.81-9.34Z"/><path class="cls-1" d="M148,342.09c1.3-.76,2.63-1.47,4-2.14.49-.25,1-.53,1.46-.76,1.75-.8,3.53-1.52,5.32-2.21.79-.31,1.57-.66,2.33-1a13.56,13.56,0,0,1,3-1.19c.67-.13.53,1.86-.6,2.33-2,.84-4,1.62-6.13,2.31a29.14,29.14,0,0,0-3.65,1.67c-1.32.65-2.62,1.33-3.9,2.07-.79.44-1.56.91-2.32,1.41a36.32,36.32,0,0,0-3.34,2.41,27.6,27.6,0,0,0-2.23,2.23l-.46.51c-.6.61-.88.71-1.36.48a2,2,0,0,1-.33-.16c-.33-.21-.3-.69.09-1.22a21.82,21.82,0,0,1,4.32-4.2c1.2-.93,2.49-1.76,3.78-2.57Z"/><path class="cls-1" d="M203,335.45c-2.05-1.62-4.08-3.27-6.09-4.93-.74-.6-1.5-1.18-2.22-1.8-2.55-2.2-5-4.46-7.42-6.85q-.81-.78-1.59-1.59c-.53-.54-1.08-1-1.58-1.6-.65-.71-1.35-1.38-1.94-2.16a12.67,12.67,0,0,1-.87-1.17q-.39-.63-.72-1.29c-.28-.55.2-.7.87-.52A4.35,4.35,0,0,1,183.6,315a107.12,107.12,0,0,0,7.74,8.34c1.63,1.64,3.54,3.12,5.36,4.64,2,1.68,4,3.32,6.09,4.95,1.27,1,2.53,2,3.82,3,1.94,1.47,3.89,3,5.88,4.35,1.54,1.09,3.12,2.05,4.68,3.06l1,.66c1.27.86,1.59,1.25,1.57,1.84a1.82,1.82,0,0,1,0,.41c-.1.4-.79.3-1.78-.26a96.57,96.57,0,0,1-8.67-5.72c-2.12-1.54-4.22-3.14-6.31-4.74Z"/><path class="cls-1" d="M188,393.09c-3-3.89-6.47-7.49-9.74-11.33-1.18-1.38-2.43-2.69-3.65-4-4.31-4.72-8.88-9.25-13.25-14-1.94-2.11-3.87-4.25-5.71-6.43a54.37,54.37,0,0,1-6.37-9c-.55-1,0-1.11.85-.55a9.28,9.28,0,0,1,1.59,1.33,15,15,0,0,1,1.81,2.15c4.23,6,9.27,11.32,14.35,16.81,3,3.28,6.41,6.52,9.49,9.94,1.72,1.88,3.31,3.83,5,5.68s3.37,3.75,5,5.69a77.46,77.46,0,0,1,5.64,7.48c2.57,4,4.77,8.39,5.25,13.21a15.41,15.41,0,0,1-2.78,10.63,17.36,17.36,0,0,1-1.54,1.93,9.15,9.15,0,0,1-2.61,2,2.28,2.28,0,0,1-1.52.26,2.72,2.72,0,0,1-.52-.15c-.4-.29.62-.86,2.11-2.18a14.88,14.88,0,0,0,4-16.89A44.47,44.47,0,0,0,188,393.13Z"/><path class="cls-1" d="M199.91,390.12a145,145,0,0,0-9-13.23c-1.17-1.56-2.41-3.06-3.62-4.59-4.27-5.39-8.75-10.62-13.36-15.75-2-2.28-4.15-4.51-6.25-6.72-1.34-1.42-2.7-2.83-4-4.29a31.18,31.18,0,0,1-3.68-4.7c-.63-1.24,0-1.16.84-.56a19.52,19.52,0,0,1,3.9,3.37c5.31,5.87,10.82,11.68,16,17.9,3.08,3.7,6.4,7.47,9.44,11.36,3.36,4.26,6.55,8.67,9.48,13.25,1.81,2.81,3.49,5.72,5,8.69A64.63,64.63,0,0,1,210.2,409a17,17,0,0,1-.49,11.75,10.4,10.4,0,0,1-.61,1.2,9.14,9.14,0,0,1-.74,1.13,7.73,7.73,0,0,1-.74.9,6.22,6.22,0,0,1-.68.68,6.08,6.08,0,0,1-1.15.87,2.45,2.45,0,0,1-1.56.47,2.24,2.24,0,0,1-.55-.05c-.23-.08-.1-.37.28-.78l.76-.75c.3-.29.65-.62,1-1a12.85,12.85,0,0,0,3.41-8.84,17.51,17.51,0,0,0-.7-5l-.31-1.28-.39-1.27c-.26-.85-.52-1.69-.85-2.52a80.36,80.36,0,0,0-7-14.34Z"/><path class="cls-1" d="M203.23,419.44a12.05,12.05,0,0,1-4,6.18c-.4.31.35.33.5.32a2.74,2.74,0,0,0,1.46-.51,12.42,12.42,0,0,0,4.23-6.38c.12-.37-2-.15-2.14.39Z"/><path class="cls-1" d="M199.06,419.35a9.69,9.69,0,0,1-4.31,5.44c-1.31.7-.12,1.71.93,1.15a11.92,11.92,0,0,0,5.58-6.8c.3-.91-1.91-.65-2.2.21Z"/><path class="cls-1" d="M328.37,361.47c-7.11-4-39.59-32.52-53-31.21-13,1.27-45.92,33.12-52.1,37.64,0,0,23.47,6,36.58,5.52,0,0,18.42-18,19.37-19.89,0,0,23.63,13.89,26.47,14.1A131,131,0,0,0,328.37,361.47Z"/><path class="cls-1" d="M245.64,373.54c-3.83-.57-7.63-1.27-11.41-2.05q-2.83-.58-5.65-1.23l-2.82-.66-2.37-.59-2.48-.63,2.68-2.06,1.15-.95.69-.57,2.73-2.34,5.46-4.73c3.45-3,6.89-6,10.42-8.89a183.44,183.44,0,0,1,19.49-14.35,57.84,57.84,0,0,1,5.36-2.94,22.15,22.15,0,0,1,5.92-2,15,15,0,0,1,6.24.69,42,42,0,0,1,5.71,2.24,137.61,137.61,0,0,1,18.34,11.14q5.61,3.9,11.08,8c3.66,2.71,7.24,5.54,10.88,8.19,1.14.8,1.58,1.18,1.46,1.33s-.85,0-2-.46a56.53,56.53,0,0,1-10.27-6.43c-7.41-5.56-14.83-11.1-22.69-15.92a64.19,64.19,0,0,0-12.23-6.07,14.12,14.12,0,0,0-6.37-.91,21.75,21.75,0,0,0-6.27,2.2,94.09,94.09,0,0,0-14.14,9.19c-4.56,3.45-9,7.13-13.36,10.82-2.91,2.45-5.79,4.94-8.67,7.44l-4.32,3.75L226,366.67l-.6.48-.45.36c.15.07.45.12.68.19L227,368l3.62.83c2.42.53,4.84,1,7.27,1.5,3.8.72,7.61,1.36,11.43,1.83q2.87.35,5.75.53c.95,0,1.92.12,2.87.1h1.41c.32.06.34-.13.77-.51q4.8-4.68,9.55-9.42,2.37-2.37,4.7-4.76l2.29-2.42a23.91,23.91,0,0,0,2.42-2.88l4.05,2.36,3.61,2.07c3.94,2.23,7.86,4.39,11.82,6.44,2,1,4,2,6,2.83a3.78,3.78,0,0,0,1.23.35l1.6-.32,3.26-.7c1.92-.44,3.77-.91,5.68-1.43,3.52-1,5.82-1.7,7.46-2.14a15.24,15.24,0,0,1,3.44-.66,8.67,8.67,0,0,1,1.1,0c.79.1-1.9,1.5-7.06,3.23a108.91,108.91,0,0,1-10.85,3l-2.78.6-1.4.29-.26.05a1.17,1.17,0,0,1-.32,0l-.55-.12-.47-.12c-.16,0-.25-.09-.38-.13a56.54,56.54,0,0,1-5.32-2.46c-3.44-1.75-6.82-3.61-10.21-5.51l-5.07-2.87-4.09-2.36h0l-.29.34a4.55,4.55,0,0,1-.35.4l-1.39,1.51c-4.35,4.61-8.84,9-13.34,13.47l-3.66,3.58c-.07.05-.12.17-.22.17h-2.72c-.81,0-1.61-.06-2.41-.09-3.21-.19-6.38-.55-9.52-1Z"/><path class="cls-1" d="M331.45,360.4c3.68,0,25.7-11.61,25.7-11.61l-9-10.05-29.21,11.84C320.17,351.92,328.37,357.63,331.45,360.4Z"/><path class="cls-1" d="M335.84,342.45l12.53-4.89,1,1.16,3.33,3.72,2.88,3.3,1.69,1.93,1.18,1.35c-.49.29-1.06.56-1.59.83L352.63,352l-3.95,1.92-7,3.39c-1.49.72-3,1.44-4.53,2.1a22.79,22.79,0,0,1-4.85,1.59c-1.24.11-.92-.42-.2-1a14.22,14.22,0,0,1,3.71-2.26c6.13-2.59,12.19-5.58,18.35-8.44l.69-.33.34-.16.15-.07.21-.09.11-.05.06,0,0,0-.35-.41-1-1.17-4.19-4.66-2.22-2.54-8.59,3.36-7.86,3.1-6,2.36-5.25,2.12-.16.06-.08,0s0,0,0,.05l.27.23c.18.15.37.28.54.41l1.9,1.38,4,2.81c.58.42,1.16.81,1.75,1.25,2.15,1.61,2.74,2.29,2.85,3.05a2.43,2.43,0,0,1,.06.51c-.08.45-1.06,0-2.66-1.14-2.37-1.66-4.83-3.34-7.29-5.13l-.92-.68-1.13-.86c-.56-.47-1.16-.95-1.65-1.42s-1.54-1.07-.41-1.28c.62-.3,1.24-.6,2-.89l1.62-.66,2.13-.87,12.78-5.1Z"/><path class="cls-1" d="M351.31,342.42c3,1.29,8-2.37,8-2.37s2.91-21.35,6.38-21.15,3.55,14.49.75,23.38c-1,3.2-6.15,5-9.28,5.51C353.34,348.44,353.4,345.11,351.31,342.42Z"/><path class="cls-1" d="M367,332.83a48.34,48.34,0,0,0,.31-5.64,22.82,22.82,0,0,0-.59-5.47,4.38,4.38,0,0,0-.72-1.55,1.12,1.12,0,0,0-.19-.19.31.31,0,0,0-.1-.05.26.26,0,0,0-.24,0,2.12,2.12,0,0,0-.38.42,5,5,0,0,0-.43.68,15.4,15.4,0,0,0-.73,1.59c-.43,1.11-.81,2.27-1.15,3.45-.67,2.35-1.23,4.75-1.72,7.17-.21,1.07-.41,2.15-.58,3.24l-.25,1.62-.23,1.71-.08.59c-.2.16-.41.3-.63.45l-.47.32-.88.55a17.41,17.41,0,0,1-1.88.95,7,7,0,0,1-4.35.55c-1-.38-.54-.74.2-1s1.76-.82,3.11-1.36a15.35,15.35,0,0,0,1.8-.84l.87-.52.38-.24h0l.44-2.65c.18-1.06.39-2.12.6-3.18.44-2.12.95-4.23,1.55-6.33.49-1.68,1-3.4,1.61-5.12a13.21,13.21,0,0,1,1.24-2.58,6.73,6.73,0,0,1,.49-.63,2.28,2.28,0,0,1,.85-.6,2,2,0,0,1,2.07.3,5.51,5.51,0,0,1,1.6,3,18.71,18.71,0,0,1,.48,3,42,42,0,0,1,0,5.93,57.81,57.81,0,0,1-.9,7.2c-.18.9-.37,1.8-.6,2.69-.11.44-.24.89-.37,1.33a10.27,10.27,0,0,1-.48,1.37,6.52,6.52,0,0,1-1.91,2.24,13,13,0,0,1-2.42,1.45,23.07,23.07,0,0,1-4,1.46,9.59,9.59,0,0,1-2.2.39,3.63,3.63,0,0,1-2.4-.8,5.81,5.81,0,0,1-1.32-1.63,16.29,16.29,0,0,1-1-2.17,2.05,2.05,0,0,1-.14-1.13,2.88,2.88,0,0,1,.09-.46c.14-.43,1.09.16,2,1.66.63,1.08,1.23,2.18,1.9,2.47a2.19,2.19,0,0,0,1.21.17c.46-.06,1.1-.21,1.68-.35a20.39,20.39,0,0,0,3.41-1.23,9.5,9.5,0,0,0,2.82-1.9,4.75,4.75,0,0,0,.65-.88c.07-.16.12-.3.19-.47l.21-.67c.26-.9.48-1.81.69-2.74a52.75,52.75,0,0,0,.88-5.63Z"/><path class="cls-1" d="M331.71,361.89A250.24,250.24,0,0,1,291,372.29c-5,.83-10.1,1.58-15.21,2a175.94,175.94,0,0,1-53.64-4.84,186.09,186.09,0,0,1-22.79-7.31c-4.76-1.82-9.42-3.92-14-6.14s-9.06-4.71-13.35-7.45c-2.69-1.68-2.06-1.87.47-.9,1.28.47,3,1.29,5.09,2.22,1,.48,2.16,1,3.34,1.61s2.44,1.18,3.73,1.85a182,182,0,0,0,58.81,18.3,163.12,163.12,0,0,0,18.88,1.22c1.6,0,3.19.06,4.79,0l4.79-.18c3.19-.06,6.35-.44,9.51-.81a240.16,240.16,0,0,0,41-8.87,234.14,234.14,0,0,0,24.26-9c6-2.62,11.88-5.48,17.62-8.61s11.28-6.58,16.61-10.26A168.1,168.1,0,0,0,403.87,316l2.08-2.14,1.05-1.07.79-.81c.3-.29.6-.64.89-.87l.64.72a5.81,5.81,0,0,0,1.34,1.11,6.65,6.65,0,0,0,1.08.52,7.91,7.91,0,0,0,2.05.47,12.53,12.53,0,0,0,3.25-.25c.87-.22,1.58-.38,2.15-.57s1.07-.27,1.51-.38a10.36,10.36,0,0,1,1.18-.27c.45,0,0,.44-1.3,1.3a15.69,15.69,0,0,1-2.69,1.26,11.08,11.08,0,0,1-4.23.64,9.73,9.73,0,0,1-3.05-.71,8.9,8.9,0,0,1-1.41-.79l-.43-.31-.12-.11-3.51,3.62c-1.41,1.49-3,2.84-4.45,4.27s-3.07,2.78-4.65,4.14l-2.38,2-2.46,2a182.89,182.89,0,0,1-20.95,14.37,221.67,221.67,0,0,1-38.51,17.76Z"/><path class="cls-1" d="M120.6,305.42l-1.48-2.08c-.18-.26-.4-.47-.57-.73l-1.8-2.76a14.11,14.11,0,0,0-.89-1.15,4.42,4.42,0,0,1-1.07-1.52c-.12-.39,1.64-1,2-.47a19.18,19.18,0,0,1,2,3.15,13.58,13.58,0,0,0,1.34,1.87l1.5,2.06.94,1.25c.49.62,1,1.27,1.5,1.84a17.3,17.3,0,0,0,1.37,1.2l.31.25c.35.35.37.55.07,1-.07.09-.13.19-.21.28a.72.72,0,0,1-1,.15,10.54,10.54,0,0,1-2.53-2.28c-.56-.64-1.09-1.33-1.62-2Z"/><path class="cls-1" d="M92.45,298.49c-1.18,0-2.34-.14-3.51-.23s-2.33-.21-3.49-.34c-.85-.09-1.7-.13-2.54-.27-3-.41-5.92-1-8.84-1.63-1.3-.29-2.61-.52-3.91-.78A26.64,26.64,0,0,1,65.22,294c-1-.41.79-1.76,2.64-1.33l10,2.32c1,.23,2,.41,3.08.56l3.15.39,3.45.38,3.46.26c1.42.08,2.84.1,4.27.13l3.23-.09c1.08,0,2.14-.18,3.21-.29a16.38,16.38,0,0,0,2.42-.45c.8-.19,1.59-.36,2.38-.58.34-.11.67-.23,1-.33,1.28-.37,1.72-.35,2.15,0a2.56,2.56,0,0,1,.29.27c.24.34-.21.79-1.17,1.15-.71.28-1.43.54-2.18.78s-1.52.36-2.29.52a39.45,39.45,0,0,1-4.74.66,67.67,67.67,0,0,1-7.12.13Z"/><path class="cls-1" d="M293.4,432.77a204.94,204.94,0,0,1-73.66,3.81c-2.23-.29-4.45-.69-6.68-1s-4.44-.85-6.65-1.27c-4.4-1-8.79-2.07-13.09-3.52A201.5,201.5,0,0,1,151,409.15a210.21,210.21,0,0,1-19-14.34l-2.28-1.91-2.21-2c-1.47-1.34-3-2.65-4.4-4-2.84-2.76-5.71-5.49-8.42-8.39-2.47-2.5-4.78-5.17-7.15-7.78-1.15-1.32-2.28-2.68-3.42-4l-1.71-2-1.64-2.06c-4.44-5.46-8.57-11.15-12.49-16.93-10-14.86-18.78-30.74-25-47.56-1-2.63-1.2-3.84-1-3.83s.86,1.25,1.91,3.37c2.1,4.24,5.83,12,10.54,21.14,16.66,32.26,40,61.3,69.33,83.29a192.5,192.5,0,0,0,28.37,17.54c1.23.68,2.51,1.28,3.79,1.86l3.82,1.79c2.53,1.25,5.18,2.24,7.78,3.33a93.65,93.65,0,0,0,16,5.13c3,.75,6,1.3,9,1.9s6.07,1,9.14,1.35l4.59.55,4.61.37c3.07.31,6.16.35,9.24.49a199,199,0,0,0,36.89-2.4c3.77-.48,7.48-1.33,11.2-2.07s7.39-1.77,11.08-2.69,7.28-2.16,10.91-3.29l2.71-.87,1.36-.44,1.3-.52c1.75-.65,3.46-1.52,5.17-2.33a231.15,231.15,0,0,0,56.66-39,171.64,171.64,0,0,0,32.45-41.24c1-1.66,1.79-3.39,2.67-5.09.43-.85.88-1.7,1.29-2.56s.8-1.75,1.2-2.64c3-6.54,4.56-11,5.72-14.17.29-.78.56-1.48.8-2.11l.6-1.72c.38-1,.72-1.83,1.05-2.55s.68-1.51.9-1.88c.38-.62.24.51-.36,3.09-.15.64-.33,1.37-.52,2.2s-.43,1.72-.76,2.69-.64,2-1,3.14-.73,2.34-1.24,3.57a150.07,150.07,0,0,1-24.24,41.94A203.54,203.54,0,0,1,360.15,400a242.77,242.77,0,0,1-31.52,20.05c-2.76,1.46-5.55,2.87-8.38,4.2l-2.13,1c-.73.32-1.49.6-2.23.9a22.9,22.9,0,0,1-2.23.79l-2.23.71c-3,.93-5.93,2-8.93,2.81l-9.06,2.37Z"/><path class="cls-1" d="M72.61,257.15l6.08,9.57L81,270.18c2.6,4.1,5.17,8.22,7.81,12.29,1.17,1.81,2.4,3.6,3.63,5.34,1.58,2.22,3.24,4.49,4.75,6.63a1.79,1.79,0,0,1,.13.22.21.21,0,0,1,0,.11l0,.13-.08.2,0,0,0,0-.06.05a.34.34,0,0,1-.16.07,1.28,1.28,0,0,1-.56-.06,6.46,6.46,0,0,1-3-2.4c-3.28-4.6-6.31-9.31-9.24-14.17-1.74-2.9-3.75-5.8-5.62-8.71l-6.15-9.62-3.8-5.91c-1.92-3-3.84-6-5.81-8.9-1.53-2.27-3.13-4.42-4.71-6.62l-1-1.44c-1.28-1.82-1.57-2.48-1.43-3.15a2,2,0,0,1,.1-.46c.2-.39,1,.18,2,1.47,3,3.82,5.86,8,8.7,12.31l6.24,9.58Z"/><path class="cls-1" d="M65.65,258.24l4.93,9.24,1.86,3.34,6.38,11.86c1,1.75,2,3.48,3,5.18,1.3,2.19,2.68,4.33,3.77,6.63.68,1.44-1.88.6-3.35-1.93-2.61-4.49-5.11-9-7.47-13.72-1.4-2.8-3.08-5.59-4.61-8.4l-5-9.3-3.07-5.73q-2.31-4.35-4.63-8.68c-1.2-2.23-2.46-4.37-3.66-6.59-.27-.48-.53-1-.77-1.47-.94-1.83-1-2.65-.71-3.19a1.38,1.38,0,0,1,.22-.36c.16-.14.38,0,.64.26a8.07,8.07,0,0,1,.89,1.39c2.15,3.85,4.42,8,6.66,12.14q2.49,4.65,5,9.3Z"/><path class="cls-1" d="M60.49,258l3.44,9.25,1.31,3.36,4.38,11.92c.66,1.76,1.36,3.5,2.07,5.22a68.81,68.81,0,0,1,2.61,6.7c.44,1.44-1.88.46-2.91-2.1-1.83-4.55-3.55-9.13-5.12-13.83-.94-2.81-2.14-5.63-3.21-8.46l-3.51-9.32L57.39,255c-1.11-2.89-2.19-5.8-3.34-8.64-.89-2.22-1.87-4.34-2.81-6.51l-.63-1.42c-.74-1.79-.85-2.42-.54-3a2,2,0,0,1,.22-.38c.29-.31.88.31,1.5,1.59,1.86,3.79,3.53,7.9,5.16,12.05q1.78,4.62,3.58,9.28Z"/><path class="cls-1" d="M429.22,283.6l-4.2,7.87c-.51.95-1,1.93-1.49,2.89l-5.56,10c-.82,1.48-1.61,3-2.38,4.49a40.63,40.63,0,0,1-3.25,5.67c-.47.59-.77.17-.86-.54a5,5,0,0,1,.63-2.91c2.11-3.83,4.23-7.7,6.52-11.51,1.37-2.28,2.57-4.78,3.84-7.18l4.2-7.92,2.55-4.9c1.26-2.48,2.55-5,3.72-7.47.91-1.95,1.69-3.91,2.48-5.87.16-.44.32-.86.49-1.3.65-1.61.9-2,1.46-2.22.13-.05.26-.15.38-.2s.38.05.43.52a4.28,4.28,0,0,1-.23,1.55,82.34,82.34,0,0,1-4.63,11c-1.31,2.7-2.69,5.37-4.06,8Z"/><path class="cls-1" d="M433.15,285.44c-1.33,2.48-2.69,4.95-4.06,7.41-.5.9-.95,1.82-1.46,2.71-1.79,3.15-3.64,6.26-5.47,9.38-.81,1.38-1.58,2.8-2.34,4.2a47.65,47.65,0,0,1-3.07,5.32c-.75,1-1.49-1.26-.34-3.31,2-3.63,4.14-7.22,6.4-10.78,1.34-2.12,2.52-4.46,3.77-6.71,1.36-2.47,2.73-5,4.07-7.44l2.42-4.62c1.18-2.35,2.37-4.71,3.41-7.1.43-.92.75-1.87,1.1-2.81s.67-1.88,1-2.82l.39-1.25c.44-1.54.68-2,1.27-2.22a2.39,2.39,0,0,1,.39-.15c.42-.08.55.65.31,1.9A52.34,52.34,0,0,1,437,277.8c-1.21,2.58-2.5,5.13-3.81,7.65Z"/><path class="cls-1" d="M337.9,378.39a201.38,201.38,0,0,1-32,11.33c-2,.58-4,1-6,1.55s-4,1-6,1.4a210.73,210.73,0,0,1-43.27,4.86,185.2,185.2,0,0,1-19.31-.8,139,139,0,0,1-24.32-4.2c-2.48-.66-2-1,.19-1,1.11,0,2.64.19,4.48.41s4,.58,6.28.95a192.42,192.42,0,0,0,49.8,2,209.06,209.06,0,0,0,30.33-5.11,215.37,215.37,0,0,0,32.32-10.19,188.83,188.83,0,0,0,18.83-9,184.68,184.68,0,0,0,26.37-17.36,177.91,177.91,0,0,0,17.86-16.23l1.84-1.89,1.78-1.95,4.78-5.14a10.8,10.8,0,0,1,2.42-2,6.59,6.59,0,0,1,.87-.5c.72-.23-.81,2-3.93,5.79a180.38,180.38,0,0,1-15.57,15.89,182.24,182.24,0,0,1-18,14.2,192,192,0,0,1-29.76,17Z"/><path class="cls-1" d="M144.49,362.19c-1.73-1.4-3.47-2.78-5.13-4.27s-3.37-2.9-5-4.43c-1.18-1.11-2.44-2.14-3.58-3.28-4.11-4-8-8.14-11.84-12.36l-5.12-5.57-3.31-3.5c-.55-.59-1.1-1.17-1.65-1.73l-.82-.86c-.27-.28-.56-.52-.83-.79-.68-.65-.35-1,.61-.81a7.82,7.82,0,0,1,3.78,2.35c4.53,4.84,8.76,9.79,13.2,14.68,1.34,1.45,2.73,2.91,4.18,4.32s2.92,2.82,4.4,4.19c3.24,3,6.56,6,10,8.8,2.14,1.7,4.22,3.48,6.45,5.06l2.5,1.84c.82.63,1.67,1.23,2.53,1.8,1.72,1.15,3.44,2.31,5.16,3.42,1.37.82,2.75,1.6,4.12,2.37s2.74,1.55,4.16,2.24l1.86.92c2.3,1.2,3,1.7,3.23,2.41a2.14,2.14,0,0,1,.17.48c.05.46-1,.24-2.78-.57a83,83,0,0,1-7.78-4l-3.87-2.26-3.78-2.48-2.8-1.86-2.72-2-2.72-2c-.9-.66-1.76-1.39-2.65-2.08Z"/><path class="cls-1" d="M309.78,404.73l-4.95,1.4c-1.65.45-3.33.83-5,1.24-3.32.87-6.7,1.5-10,2.22-2.46.43-4.91,1-7.38,1.33-4.36.64-8.74,1.21-13.14,1.54-2.19.18-4.4.31-6.61.37-.55,0-1.1,0-1.65,0h-1.19l-.41,0c-1.1.09-2.2.16-3.3.23-3.91.21-7.84.3-11.73.23a95.52,95.52,0,0,1-14.92-1.21c-3.05-.57,1.08-1.7,6.71-1.22a148.09,148.09,0,0,0,15.05.5c2.52,0,5-.15,7.55-.32l1-.06a.71.71,0,0,1,.22,0h.81c.63,0,1.26,0,1.89,0,1.26,0,2.53-.07,3.8-.14a151.06,151.06,0,0,0,18.48-2.27c6.75-1.11,13.43-2.68,20.06-4.43l6.08-1.74c2-.6,4-1.31,6-2,3.05-.95,6-2.13,9-3.25s5.92-2.41,8.83-3.68c1.13-.49,2.25-1,3.36-1.5l3.26-1.66c2.16-1.13,4.34-2.2,6.47-3.37l2.78-1.6c3.49-2,4.67-2.47,5.67-2.46a4.6,4.6,0,0,1,.67,0c.54.15-.74,1.22-3.28,2.74-1.88,1.13-3.79,2.27-5.74,3.4l-6.06,3.1L339,393.77l-3.17,1.41c-2.12.92-4.24,1.87-6.39,2.77-3.23,1.21-6.44,2.52-9.72,3.64l-4.93,1.64-2.47.82-2.5.72Z"/><path class="cls-1" d="M157.37,385.21l-4.31-2.87c-1.43-1-2.83-2-4.25-3-1-.71-2.07-1.43-3.08-2.18-3.58-2.62-7-5.39-10.45-8.22l-4.54-3.76a56.87,56.87,0,0,1-5.59-5.05c-1.05-1.18,1.43-.88,3.55,1,3.79,3.37,7.66,6.65,11.59,9.94,2.36,2,5,3.81,7.52,5.64,2.8,2,5.63,4,8.53,5.87,1.76,1.2,3.57,2.31,5.38,3.42,1.36.86,2.75,1.68,4.15,2.48s2.77,1.63,4.2,2.35c2.22,1.12,4.39,2.23,6.64,3.2l1.47.66c1.83.86,2.36,1.24,2.57,1.81a2.07,2.07,0,0,1,.14.39c0,.39-.83.27-2.21-.29a105.73,105.73,0,0,1-12.36-6c-3-1.68-6-3.53-9-5.37Z"/><path class="cls-1" d="M216.24,352l-.81.08-.93,0c-.44,0-.85-.11-1.27-.17a10.16,10.16,0,0,1-1.06-.41c-.22-.26-.54-.42-.65-.76a1.73,1.73,0,0,1,.45-1.7,8,8,0,0,1,1.52-1.2c.36-.22.73-.42,1.09-.61.74-.38,1.48-.72,2.23-1.05l2-.91a5.71,5.71,0,0,1,2.81-.79c.45.06.23.55.06,1s-.37,1-.81,1.13c-1.58.54-3.26,1.26-4.94,1.91a7.49,7.49,0,0,0-1.42.77,4.19,4.19,0,0,0-.5.39c-.06.07-.16.16-.13.26s.12.11.2.17a1.31,1.31,0,0,0,.38.11l.23,0h.48a13,13,0,0,0,2.17-.37,24,24,0,0,0,3.28-1c.84-.33,1.61-.77,2.43-1.16l.55-.26a1.29,1.29,0,0,1,1-.1l.47.06.11.11a.76.76,0,0,1,.23.52.59.59,0,0,1-.22.46l-.14.07c-.06,0-.1,0-.12,0s-.12-.11-.17-.19a.58.58,0,0,0-.24-.25.23.23,0,0,1-.11-.37c0-.09.11-.16.14-.22v0h0l.05.14a1.8,1.8,0,0,0,.17.39c0,.05,0,0,0,.07a2.44,2.44,0,0,0-.19.32l.38.3a1,1,0,0,1-.32.26,26.84,26.84,0,0,1-4.48,2.05,23.75,23.75,0,0,1-3.82,1Z"/><path class="cls-1" d="M222.78,353.74a23.43,23.43,0,0,1-2.7.8c-.34.07-.68.2-1,.24a6.67,6.67,0,0,1-2,0,2.64,2.64,0,0,1-.52-.13,3.38,3.38,0,0,1-.57-.24,4,4,0,0,1-.54-.38,6.14,6.14,0,0,1-.42-.47c-.08-.16-.19-.31-.27-.47l-.18-.49a1.16,1.16,0,0,1,.28-1,3.2,3.2,0,0,1,1.15-.85,2.78,2.78,0,0,1,1-.3c.15,0,.41.41.44.91s-.14,1.07-.44,1.2c0,0,0,0-.09,0a.14.14,0,0,0-.05.1c0,.06-.07.11.2.24a3.31,3.31,0,0,0,2,0,16.62,16.62,0,0,0,2.48-.67c.51-.17,1-.36,1.53-.57.76-.33,1.53-.65,2.26-1.05.56-.32,1.06-.73,1.61-1.09a3.41,3.41,0,0,1,.37-.25c.49-.27.79-.23,1.05.22a1.48,1.48,0,0,1,.14.32c.05.39.09.68-.18.92a13.41,13.41,0,0,1-2.95,1.92c-.81.41-1.67.78-2.54,1.13Z"/><path class="cls-1" d="M221.89,355.06a10.23,10.23,0,0,0,2.25-.14c.28-.05.54-.15.82-.21a18.73,18.73,0,0,0,2.94-.78,5.49,5.49,0,0,0,1.17-.63,8,8,0,0,1,1.29-.93c.15-.05.52.25.74.69s.26,1.06-.07,1.3a8.16,8.16,0,0,1-3.65,1.58c-.76.14-1.49.45-2.26.63a15.83,15.83,0,0,1-2.58.33,9.44,9.44,0,0,1-1.67-.08c-.22-.05-.43-.09-.65-.16a3.76,3.76,0,0,1-.64-.29A3.62,3.62,0,0,1,219,356a1.92,1.92,0,0,1-.31-.36,1.75,1.75,0,0,1-.12-.32,1.51,1.51,0,0,1,0-.42,1.41,1.41,0,0,1,.53-.62,4.31,4.31,0,0,1,.47-.29c.29-.17.57-.3.85-.43.12-.05.24-.12.36-.16.45-.16.6-.08.86.36,0,.1.12.2.17.3a.7.7,0,0,1-.26.94c-.47.31-1,.54-1.33.74a.82.82,0,0,0-.17.11s0,.05-.09-.11a1.15,1.15,0,0,0-.19-.26c-.21-.18-.21-.24-.35-.28s0,0,.46-.29a1.48,1.48,0,0,0,.25-.25c.05-.06,0-.06,0-.06h0l.06.05c.09,0,.26.17.33.17a.9.9,0,0,0,.33.11,1.4,1.4,0,0,0,.44.07,2.8,2.8,0,0,0,.51,0Z"/><path class="cls-1" d="M232.26,345.73c-.29-.28-.64-.48-1-.74s-.72-.4-1.1-.57-.6-.16-.88-.27c-.51-.19-1.06-.29-1.6-.44s-1.12-.16-1.68-.2a12.79,12.79,0,0,0-1.52.11,5.72,5.72,0,0,1-1.93.28c-.43-.06-.29-1.91.54-2.06.35-.07.71-.13,1.07-.18l1.11,0a8.24,8.24,0,0,1,2.2.27c.44.07.88.2,1.33.27l.67.11.66.21.71.24.67.34a7.86,7.86,0,0,1,1.3.78,4.94,4.94,0,0,1,.72.58,5.07,5.07,0,0,1,.67.64,9.67,9.67,0,0,1,1.57,2.32,7.17,7.17,0,0,1,.72,2.15,1.45,1.45,0,0,1,0,.55,1,1,0,0,1-.29.73.58.58,0,0,1-.58.07,1.83,1.83,0,0,1-.33-.11,1.09,1.09,0,0,1-.56-.72,8,8,0,0,0-1-2.57,7.67,7.67,0,0,0-1.55-1.73Z"/><path class="cls-1" d="M125,75.86a13.29,13.29,0,0,1,6.14,2.67,10.38,10.38,0,0,1,3.57,5.91,13.65,13.65,0,0,1-.34,6.64,12.77,12.77,0,0,1-1.34,3.06l-.22.36-.19.27a.53.53,0,0,1-.09.11l-.19.18c-.45.17,0,.2.25.25l3.13.51a28.32,28.32,0,0,1,8.54,2.69,11.61,11.61,0,0,1,3.3,2.64,8.72,8.72,0,0,1,1.9,4,14.16,14.16,0,0,1-1.23,8,44.87,44.87,0,0,1-3.1,6,41.45,41.45,0,0,1-4,5.38,42,42,0,0,1-10.36,8.4c-7.71,4.49-16.31,6.76-24.8,8.49-7.56,1.54-15.22,2.64-22.54,4.44A44.94,44.94,0,0,0,70.18,151a18.94,18.94,0,0,0-5.05,4.63,17.72,17.72,0,0,0-2.85,6.2c-.34,1.4-.59,2-.9,1.94s-.58-.85-.67-2.22a12.74,12.74,0,0,1,1-5.62,15.62,15.62,0,0,1,5.15-6.54c4.4-3.3,9.46-4.94,14.38-6.24s9.92-2.1,14.85-3c9.82-1.71,19.66-3.39,28.67-7.33a39.81,39.81,0,0,0,14.31-10.26,36.51,36.51,0,0,0,5-7.39c1.37-2.67,2.64-5.44,2.68-8.12a6,6,0,0,0-2-4.81,13.59,13.59,0,0,0-5.21-2.69,44.09,44.09,0,0,0-6.19-1.3l-2-.31a22.64,22.64,0,0,1-2.45-.48c-.76-.19-1.46-.38-2.24-.61l-.29-.08s0,0,0-.06l0-.12s-.17-.14-.27-.21l-.37-.24,1.33-.69.66-.35a5.19,5.19,0,0,0,.6-.32l.85-.56.42-.28a1.05,1.05,0,0,0,.33-.28,5,5,0,0,0,.43-.56,3.14,3.14,0,0,0,.24-.35c.13-.24.28-.46.4-.71A11,11,0,0,0,132,89a9.24,9.24,0,0,0-.95-6.29,8.18,8.18,0,0,0-4.22-3.38,16.55,16.55,0,0,0-5.78-.89,43.54,43.54,0,0,0-12,2.15c-.38.1-.75.24-1.12.36l-1.53.52-1.64.52s-.07,0-.09,0l0-.11-.06-.2-.12-.42-.23-.84c-.16-.54-.29-1.12-.4-1.68-.09-.4-.14-.81-.2-1.21-.13-.81-.19-1.61-.27-2.41-.27-3.14-.39-6.31-2.14-8.58a9,9,0,0,0-3.37-2.65A20.89,20.89,0,0,0,95.78,63c-.71-.24-1.44-.39-2.16-.57a15.91,15.91,0,0,0-8.74,1.1c-4.34,1.84-8,5-11.44,8.25s-6.65,6.85-10.17,10.23a51.43,51.43,0,0,1-4.86,4.28c-3.28,2.48-6,3.56-8.06,3.79a5.83,5.83,0,0,1-4-.71,5.7,5.7,0,0,1-1-.77c-.28-.38.41-.47,1.71-.47a12.93,12.93,0,0,0,5.69-1.58c3.55-1.83,6.66-4.83,9.74-7.88s6.11-6.37,9.45-9.5a58.5,58.5,0,0,1,5.33-4.49,31.36,31.36,0,0,1,6.21-3.67,19.63,19.63,0,0,1,7.36-1.65,17.93,17.93,0,0,1,7.47,1.51,13.36,13.36,0,0,1,4.86,3.43,11.69,11.69,0,0,1,2.51,5.47,48.66,48.66,0,0,1,.62,5.27c.08.82.16,1.62.28,2.39,0,.2.06.4.1.58l0,.14s0,0,0,0h0v0s0,0,.05,0l1.08-.36,1.26-.37c1.67-.5,3.38-.92,5.11-1.27A30.54,30.54,0,0,1,125,75.78Z"/><path class="cls-1" d="M71.45,130.83a91.24,91.24,0,0,0-4.16,9.55c-.43,1.2-.82,2.41-1.23,3.62-1.47,4.24-2.76,8.56-3.88,12.92-.5,1.94-.91,3.91-1.28,5.86a66,66,0,0,1-1.58,7.56,1.27,1.27,0,0,1-.11.26.92.92,0,0,1-.18.23.22.22,0,0,1-.3,0,1.28,1.28,0,0,1-.26-.32,4.86,4.86,0,0,1-.27-.48,5.8,5.8,0,0,1-.36-3.51,123.91,123.91,0,0,1,3.81-15.33c1-3,1.82-6.21,2.88-9.28a101.83,101.83,0,0,1,4-9.95c.94-2,1.94-4,3-5.86A48.92,48.92,0,0,1,77.42,118a26.35,26.35,0,0,1,5.83-5.15l.73-.47c.25-.14.52-.27.78-.39.5-.23.92-.41,1.27-.55a6.45,6.45,0,0,1,.93-.18,1.56,1.56,0,0,1,1.13.26,1.9,1.9,0,0,1,.37.29c.28.38-.43,1-1.74,1.5a24.8,24.8,0,0,0-5.34,3.65,34.7,34.7,0,0,0-4.53,5,57.49,57.49,0,0,0-5.35,8.88Z"/><path class="cls-1" d="M54.51,244.55q-1.12,25.36-1.89,50.73-.23,9.27-.47,18.51c-.61,21.75-1.15,43.51-1.5,65.26-.15,9.65-.21,19.36-.21,28.94q.06,9.22.11,18.48c.07,6.15.05,12.34.24,18.43,0,.47,0,.88,0,1.22s0,.55,0,.76c0,.4-.1.61-.22.62s-.28-.17-.49-.58a9.15,9.15,0,0,1-.61-1.86,79,79,0,0,1-1.56-16.33c-.18-25.17.24-50.3,1-75.64.35-15.16.72-30.93,1.08-46.44q.7-25.56,1.71-51.14c.43-10.49.88-21,1.42-31.46.41-7.94.86-15.9,1.41-23.83s1.14-15.86,2.11-23.72l.33-2.29.16-1.14.08-.57,0-.24,0-.27c.11-1.5.19-3,.26-4.54q.21-4.55.28-9.08c.11-6,.07-12.06-.22-18.08-.13-2.65-.33-5.24-.59-7.89a70.49,70.49,0,0,0-1.65-10.23A30.76,30.76,0,0,0,54,117.88a5.37,5.37,0,0,0-.76-1.21c-.16-.24-.06-.31.36-.2a4,4,0,0,1,1.7,1.33c1.3,1.56,2.36,4.4,3.1,8a112.65,112.65,0,0,1,1.69,16.55c.23,5.58.23,11.22.1,16.88q-.11,4.26-.31,8.53c-.08,1.43-.15,2.85-.26,4.31,0,.18,0,.36-.07.66l-.08.52-.14,1-.3,2.08c-.69,5.61-1.21,11.3-1.63,17-1.25,17-2.1,34-2.81,51.1Z"/><path class="cls-1" d="M77,129.69a16.42,16.42,0,0,0-2.21,1.2c-.27.15-.49.38-.75.55-.93.59-1.86,1.23-2.74,1.92a7.51,7.51,0,0,0-1.06,1,5.1,5.1,0,0,1-1.36,1.34c-.38.19-1.53-1.6-1-2.16A12.66,12.66,0,0,1,71,131.05a23.71,23.71,0,0,0,2-1.49,24.42,24.42,0,0,1,2.37-1.43c.52-.25,1-.53,1.55-.74a12.17,12.17,0,0,1,1.24-.46,12.65,12.65,0,0,1,1.28-.36,10.35,10.35,0,0,1,1-.24,3.61,3.61,0,0,1,1.1-.13,2.17,2.17,0,0,1,.51,0c.62.15.78.37.66.92a2.33,2.33,0,0,1-.08.38,1.06,1.06,0,0,1-.78.73,16.15,16.15,0,0,0-2.71.59,13.11,13.11,0,0,0-2.19.92Z"/><path class="cls-1" d="M438.54,242l2,51.38q.44,9.38.85,18.73,1.41,33,2.81,66.05c.43,9.77.94,19.59,1.45,29.28.64,12.45,1.46,24.94,1.64,37.42,0,3.92-.62,3.37-1.3.11a110.52,110.52,0,0,1-1.88-16.44c-1.23-25.43-2.41-50.84-3.31-76.49-.55-15.34-1.41-31.3-2.09-47l-2.1-51.76q-.6-15.93-1.18-31.86c-.57-16.09-1.07-32.25-1.53-48.22-.35-12.42-.79-24.58-.91-36.88,0-2.7-.06-5.35,0-8.09.12-10.12.65-13.41,1.67-15.49.13-.24.24-.51.38-.74a3.87,3.87,0,0,1,.41-.54c.19-.17.27,0,.27.31s-.06,1-.11,1.84c-.09,1.78-.16,4.63-.22,8.31-.13,10.92.16,22.19.41,33.6s.63,23,1,34.61c.56,17.24,1.16,34.56,1.84,51.84Z"/><path class="cls-1" d="M416.35,148.93c2.09,1.81,4.12,3.68,6.1,5.63.72.7,1.46,1.38,2.17,2.11a73.7,73.7,0,0,1,6.78,8.26c.91,1.3,1.81,2.63,2.61,4a13.31,13.31,0,0,1,2.14,5.84c0,.68-.52.61-1.14.19a4.7,4.7,0,0,1-1.66-2.1,46.32,46.32,0,0,0-6-10,52.42,52.42,0,0,0-5-5.48q-2.88-2.91-6-5.63c-1.27-1.11-2.56-2.2-3.87-3.25-2-1.59-4.05-3.16-6.17-4.54a47,47,0,0,0-5.1-2.79l-1.15-.51c-1.42-.66-1.81-.91-1.94-1.57a4,4,0,0,1-.09-.45c0-.46.78-.62,2-.23a39.83,39.83,0,0,1,9.76,5.36c2.28,1.61,4.47,3.36,6.62,5.14Z"/><path class="cls-1" d="M427.09,121.55a14.82,14.82,0,0,0,1.27,2.34c.17.28.42.5.62.77a29.45,29.45,0,0,0,2.24,2.82,9.6,9.6,0,0,0,1.2,1.1,5.45,5.45,0,0,1,1.51,1.44c.22.4-1.59,1.54-2.18,1a15.78,15.78,0,0,1-2.9-3.23c-.49-.75-1.18-1.37-1.73-2.1a17.08,17.08,0,0,1-1.6-2.58,18.55,18.55,0,0,1-.76-1.71,19.47,19.47,0,0,1-.73-2.74c-.16-.72-.35-1.42-.47-2.15a3.93,3.93,0,0,1-.06-.48c0-.61.15-.8.72-.87l.39,0a.91.91,0,0,1,.91.63c.3,1.15.47,2.26.76,3.36a13.66,13.66,0,0,0,.85,2.42Z"/><path class="cls-1" d="M419.63,146.28a15.38,15.38,0,0,1,.81,2,6.22,6.22,0,0,1,.29.71,16,16,0,0,1,.46,2.65,11.33,11.33,0,0,0,.23,1.16,2.36,2.36,0,0,1,.07,1.53c-.13.31-2.2-.12-2.23-.54a18.61,18.61,0,0,1-.14-2.65,4.92,4.92,0,0,0-.43-1.63,18.28,18.28,0,0,0-.66-1.74,8.86,8.86,0,0,0-.54-1,5.3,5.3,0,0,0-1.07-1.32,3.1,3.1,0,0,0-1.15-.51l-.25-.06c-.3-.07-.33-.24-.22-.81l.07-.39c.09-.44.36-.72.74-.71a4.14,4.14,0,0,1,2.77,1.46,9.92,9.92,0,0,1,1.3,1.84Z"/><path class="cls-1" d="M385.89,95.89a36.26,36.26,0,0,0,1.58-9.27c.21-3.23.21-6.55.52-10a28.17,28.17,0,0,1,1-5.19,13.75,13.75,0,0,1,2.64-5,12.65,12.65,0,0,1,4.7-3.18,20.61,20.61,0,0,1,5.26-1.08c.64,0,1.28-.1,1.91-.12l1.88,0h.95l.92.08,1.86.15c1.24.11,2.45.32,3.67.48a16.36,16.36,0,0,1,1.92.39,16.05,16.05,0,0,1,1.89.62,21.86,21.86,0,0,1,5.77,3.63A65.17,65.17,0,0,1,427,72.05c1.48,1.52,2.93,3,4.47,4.37a26.16,26.16,0,0,0,2.38,1.88l.63.41.31.2c.07,0,.09,0,.14.08a2.28,2.28,0,0,0,1,.06,28.68,28.68,0,0,0,5.78-1.71c2-.74,4-1.48,6.1-2.09A32.53,32.53,0,0,1,454.3,74a17.53,17.53,0,0,1,6.73.69,14.32,14.32,0,0,1,5.23,3.07,19.3,19.3,0,0,1,3.68,4.7,39.3,39.3,0,0,1,3.95,10.86,91.15,91.15,0,0,1,1.91,14.49,121.42,121.42,0,0,1-.06,14.53c-.19,3-.93,2.56-1.59,0a68.89,68.89,0,0,1-1.49-12.65,100.15,100.15,0,0,0-1.52-14.33,49.73,49.73,0,0,0-1.78-6.84,25.41,25.41,0,0,0-3-6.13,13,13,0,0,0-4.71-4.29,12.8,12.8,0,0,0-6.27-1.27A27.6,27.6,0,0,0,448.57,78c-2.3.65-4.58,1.5-6.94,2.33a34,34,0,0,1-4.5,1.32,6.18,6.18,0,0,1-2.93,0,4.14,4.14,0,0,1-.82-.37l-.5-.33c-.33-.22-.68-.44-1-.67A57.44,57.44,0,0,1,425,74a43.39,43.39,0,0,0-6.61-5.85,15.54,15.54,0,0,0-3.75-1.84,5.81,5.81,0,0,0-1-.27c-.34-.07-.65-.17-1-.22l-2.21-.32a37.82,37.82,0,0,0-9.6-.29c-3.08.41-6.07,1.53-7.68,4s-2.16,5.69-2.4,8.91-.23,6.61-.5,10a42,42,0,0,1-.91,6.25,25.08,25.08,0,0,1-2.24,6,20.1,20.1,0,0,1-4,5,15.47,15.47,0,0,1-1.26,1,10.74,10.74,0,0,1-1.31.93l-1.37.83c-.23.14-.48.28-.61.38l-.25.15-.24.22a10.75,10.75,0,0,0-2.4,3.47,18,18,0,0,0-1.31,4.22,21,21,0,0,0,.33,8.86c1.42,5.85,5,11,9.22,15.31a62.33,62.33,0,0,0,11,8.7c1,.66,2,1.23,3,1.83s2,1.2,3.05,1.73l3.09,1.64,3.17,1.53c1.84.93,3.74,1.64,5.64,2.52,7.11,3,9.4,3.93,10.68,5.28a6.19,6.19,0,0,1,.85.89c.25.42-.41.46-1.82.17-.7-.14-1.59-.37-2.64-.68s-2.27-.7-3.62-1.22c-2-.76-4-1.5-6-2.38l-3-1.28-3-1.41c-2-.91-3.92-2-5.89-3s-3.87-2.22-5.73-3.5A67,67,0,0,1,382,143a42,42,0,0,1-8.25-11.36,27.25,27.25,0,0,1-2.68-10.37,21.48,21.48,0,0,1,2.14-10.69,12.58,12.58,0,0,1,.69-1.24,11.59,11.59,0,0,1,.82-1.2,8.56,8.56,0,0,1,2.38-2.22l2-1.22c.61-.44,1.21-.91,1.8-1.37a17,17,0,0,0,4.86-7.44Z"/><path class="cls-1" d="M147.8,344.38c1.07-.72,2.17-1.4,3.28-2,.41-.23.79-.5,1.2-.73,1.47-.75,3-1.42,4.46-2.07.67-.29,1.32-.62,2-.94a9.93,9.93,0,0,1,2.53-1.09c.57-.11.62,1.83-.33,2.27-1.68.76-3.36,1.47-5.12,2.1a21.62,21.62,0,0,0-3,1.58c-1.08.61-2.16,1.24-3.19,1.93-.65.42-1.27.86-1.88,1.33a21.08,21.08,0,0,0-2.61,2.29,15.88,15.88,0,0,0-1.59,2.1c-.1.17-.18.34-.29.5-.4.59-.64.7-1.14.54a1.69,1.69,0,0,1-.34-.11c-.37-.15-.45-.58-.2-1.1a13.74,13.74,0,0,1,3.17-4.14,34.55,34.55,0,0,1,3.07-2.47Z"/><path class="cls-1" d="M306.9,407c-1.25.37-2.52.66-3.78,1l-3.8.9c-2.52.65-5.09,1.1-7.64,1.61l-2.78.57c-.93.19-1.87.33-2.81.48l-4.95.76-5,.59c-1.66.22-3.33.36-5,.49s-3.33.31-5,.37l-4.45.25-4.43.17a78.55,78.55,0,0,1-11.37-.33c-1.19-.16-1-.55.06-.86a17.15,17.15,0,0,1,5-.54,218.35,218.35,0,0,0,23-.81c2.3-.23,4.64-.51,7-.83l7-1.16,7.65-1.51c2.54-.54,5.06-1.19,7.6-1.79,1.56-.34,3.1-.79,4.64-1.24l4.62-1.32c1.17-.31,2.33-.69,3.47-1.08l3.46-1.16,3.44-1.16c1.15-.38,2.26-.87,3.39-1.3,3.46-1.42,6.88-2.75,10.2-4.41l2.2-1c2.76-1.27,3.69-1.57,4.47-1.45a2.33,2.33,0,0,1,.52.09c.41.17-.61.93-2.61,1.94A157.8,157.8,0,0,1,322,402.33l-7.46,2.52L306.91,407Z"/><path class="cls-1" d="M158.39,387.5l-3.94-2.56-3.89-2.65-2.83-2q-4.87-3.58-9.52-7.47l-4.12-3.42a46.19,46.19,0,0,1-5-4.67c-.94-1.08,1.42-.88,3.31.86,3.39,3.1,6.9,6.08,10.47,9.07,2.14,1.79,4.52,3.45,6.86,5.08,1.27.91,2.56,1.81,3.86,2.68s2.61,1.74,3.93,2.59c1.61,1.07,3.28,2.05,4.92,3.06,2.52,1.49,5.06,3,7.64,4.31,2,1.05,4,1.94,6.05,2.87l1.35.59c1.66.77,2.14,1.12,2.32,1.68a1.92,1.92,0,0,1,.11.37c0,.38-.77.3-2-.19a98.24,98.24,0,0,1-11.29-5.4c-2.77-1.52-5.49-3.15-8.19-4.81Z"/><path class="cls-1" d="M57.15,229a7.71,7.71,0,0,1,.8.3c.24.14.47.28.7.44L59,230l.27.27.53.55.13.16a2.59,2.59,0,0,1,.3.48,2.31,2.31,0,0,1,.27,1.05,2,2,0,0,1,0,.46,2.59,2.59,0,0,1-.09.4,2.79,2.79,0,0,1-.24.57,4.84,4.84,0,0,1-1,1.23,10.32,10.32,0,0,1-1.36,1.12,21.33,21.33,0,0,1-5.24,2.14,23.19,23.19,0,0,1-2.55.63,3.4,3.4,0,0,1-2.32-.32,2.43,2.43,0,0,1-.64-.6,2.14,2.14,0,0,1-.36-.79,2,2,0,0,1,0-.71,1.59,1.59,0,0,1,.14-.58c.19-.46,1-.08,1.87.25.21.07.41.15.61.2l.3,0h.12l-.17,0-.25,0a.6.6,0,0,0-.2.07l0,0,0,0,0,0a.24.24,0,0,0,.06-.09.94.94,0,0,0,.13-.24,4.88,4.88,0,0,0,.21-.71c0-.07,0-.12,0-.21s0,0,0,0h0s.09,0,.13,0a7.17,7.17,0,0,0,1-.09c.79-.13,1.68-.32,2.61-.5a8.5,8.5,0,0,0,2.94-1.57c.24-.17.46-.34.65-.5s.15-.15.24-.22l.07-.07c.06,0-.05,0,.08,0a3.33,3.33,0,0,0,.53.17c.22,0,.19,0,.28,0s0,0,0,0a.08.08,0,0,0,0,0h0l-.57.5h0l0,0,0,0-.06-.06a2.16,2.16,0,0,0-.46-.45,1.89,1.89,0,0,0-1.55-.36,6.27,6.27,0,0,0-3,1.36,10.87,10.87,0,0,0-1.82,2.1c-.13.16-.22.35-.36.5-.51.58-.87.61-1.64.06a6.15,6.15,0,0,1-.52-.37,1.38,1.38,0,0,1-.47-1.66A10.36,10.36,0,0,1,51.55,230a8.1,8.1,0,0,1,1.14-.58l.61-.25L54,229a7.13,7.13,0,0,1,1.5-.22,6.09,6.09,0,0,1,1.68.21Z"/><path class="cls-1" d="M436.21,263.14c-.08,0-.2.06-.33.06s-.14.09-.21.12l-.12.07-.06,0,0,0h0c.8.81-1.1-1.1-.91-.91h0s0-.06-.07-.06.06,0,.15,0a.88.88,0,0,0,.36,0,1.54,1.54,0,0,0,.54-.15c.3-.12.16,0,.19-.05s0,0,0,.07a.92.92,0,0,0,.11.23,5.53,5.53,0,0,0,.68.74,12.77,12.77,0,0,0,3.19,2.73,3.21,3.21,0,0,0,1.58.45.46.46,0,0,0,.28-.08v0a1.67,1.67,0,0,1,.07.2.5.5,0,0,0,.08.14l0,0c.05.05-.05,0-.11-.06l-.18-.08-.12,0s0,0,0,0a1.06,1.06,0,0,0,.17-.25,2.66,2.66,0,0,1,1.87-.16,1.76,1.76,0,0,1,1.18.74,1.28,1.28,0,0,1,.18.35,1.72,1.72,0,0,1,0,.46,1.77,1.77,0,0,1-.37,1.05,3.36,3.36,0,0,1-1.75,1.22,4.36,4.36,0,0,1-1.47.16,5.78,5.78,0,0,1-1.94-.49,8.58,8.58,0,0,1-2.65-1.81c-.87-.88-1.94-1.47-2.82-2.46a7.34,7.34,0,0,1-.69-.9,4,4,0,0,1-.6-1.32,2.28,2.28,0,0,1-.08-.52,2.16,2.16,0,0,1,.07-.64,2,2,0,0,1,.31-.67,3.11,3.11,0,0,1,.23-.28l.13-.11a6.87,6.87,0,0,1,1-.67,4.24,4.24,0,0,1,3.06-.43,8,8,0,0,1,3.39,2.12c.71.63,1.48,1.16,2.16,1.76.15.14.32.24.45.38.5.53.42.79-.18,1.52-.13.16-.26.34-.4.5a1.33,1.33,0,0,1-1.67.37,31.18,31.18,0,0,1-3.43-2.66,4.87,4.87,0,0,0-.86-.55c-.2,0-.29-.13-.42-.08Z"/><path class="cls-1" d="M129.75,334.55c-.85-2.07-1.62-4.18-2.28-6.32-.23-.79-.51-1.56-.7-2.36a36.75,36.75,0,0,1-1.11-8.61c0-1.29,0-2.58.15-3.86a15.9,15.9,0,0,1,1.07-4.82c.2-.48.57-.27.83.26a3.59,3.59,0,0,1,.23,2.2,33.14,33.14,0,0,0-.59,9.46,29.14,29.14,0,0,0,1.18,5.83,64.92,64.92,0,0,0,2.12,6.26c.51,1.26,1,2.52,1.59,3.77.85,1.89,1.72,3.78,2.61,5.65a44.56,44.56,0,0,1,2,4.44,9,9,0,0,1,.29,1.08,3.53,3.53,0,0,1,.07.94,1.62,1.62,0,0,1-.13.66.79.79,0,0,1-.61.57.83.83,0,0,1-.34,0c-.16,0-.25-.21-.3-.41a3.19,3.19,0,0,0-.05-.37c0-.14,0-.3-.06-.5a15.78,15.78,0,0,0-1.32-3.77c-.6-1.31-1.24-2.64-1.88-4-1-2-1.9-4.06-2.78-6.13Z"/><path class="cls-1" d="M268.26,454.2a42.55,42.55,0,0,0-6.72-.76c-2.22-.05-4.57.08-6.88.25-4.65.32-9.29.9-14,1.5-3.4.44-6.8,1-10.23,1.36-3,.33-6.07.61-9.13.77-1.53.09-3.06.13-4.59.15h-2.31c-.79-.06-1.59,0-2.38-.15-6.37-.63-12-3.41-17.64-5.07a33.85,33.85,0,0,0-7.69-1.43,57.68,57.68,0,0,0-7.89.08c-6.74.49-13.4,2.14-20.25,2.9-2.14.24-2-.56-.29-1.56a26.7,26.7,0,0,1,8.7-3c6.92-1.2,14.12-2.11,21.42-1.3A47.05,47.05,0,0,1,199,450.71a98.5,98.5,0,0,0,9.83,3.28,25.77,25.77,0,0,0,6,.76c2.11,0,4.23-.06,6.37-.21,4.27-.28,8.56-.8,12.82-1.34,4.69-.6,9.4-1.26,14.14-1.78,2.37-.25,4.74-.49,7.13-.65,1.19-.09,2.39-.13,3.59-.19s2.44-.05,3.65,0c6,.28,11.78,2,17.34,3.69,4.24,1.27,8.43,2.65,12.71,3.13a58.88,58.88,0,0,0,13-.12c6.74-.69,13.31-2.12,20.17-2.51.76-.07,1.51-.07,2.26-.09s1.51-.06,2.28,0c5.71.25,7.48,1.15,8.45,2.14a3.89,3.89,0,0,1,.63.7c.18.35-.32.51-1.33.51-.5,0-1.14-.05-1.88-.14s-1.63-.09-2.61-.19a55,55,0,0,0-8.88.11c-3,.23-6.05.64-9.14,1.08-6.18.86-12.61,1.88-19.24,1.7-1.24-.07-2.47-.06-3.7-.25a30.74,30.74,0,0,1-3.69-.57,70.19,70.19,0,0,1-7.07-1.83,131.55,131.55,0,0,0-13.56-3.67Z"/><path class="cls-1" d="M135.28,254.19c1.42,3,5.47,5.89,8.83,4.34,3.8-1.74.1-5.28-1-7.56-.34-.72-2.46,0-2.17.59.71,1.5,3.23,3.78,2.66,5.57-.45,1.4-2.35.2-3.11-.28a8,8,0,0,1-3.06-3.24c-.34-.73-2.47,0-2.17.58Z"/><path class="cls-1" d="M146.92,250c1.16,1.31,1.82,3.16,3.3,4.16a4.11,4.11,0,0,0,4.45.23c2.16-1.59,1-5.8-.07-7.71-.36-.66-2.17,0-1.73.8.74,1.37,1.62,4.31.8,5.78-1.18,2.15-4.37-3.33-5-4s-2.31.14-1.73.79Z"/><path class="cls-1" d="M147.18,253.71a23.54,23.54,0,0,1-2.16-5.18,17,17,0,0,1-.48-2,10.32,10.32,0,0,1,.14-3.75,6.11,6.11,0,0,1,2-3.3,9.88,9.88,0,0,1,7-2.17c.83.12-.25,1.89-1.56,2-2.41.3-4.55,1.13-5.46,3.21a7.36,7.36,0,0,0-.1,4.35,20,20,0,0,0,1.74,4.87,19.09,19.09,0,0,0,1.67,2.74,13,13,0,0,0,3.54,3.23,12.12,12.12,0,0,0,3.44,1.29l.8.18c1,.25,1.29.44,1.39,1a2.58,2.58,0,0,1,.06.37c0,.4-.49.61-1.28.51a13.7,13.7,0,0,1-3.58-.89,12.67,12.67,0,0,1-3.37-2,15.05,15.05,0,0,1-2.11-2.05,19.32,19.32,0,0,1-1.63-2.38Z"/><path class="cls-1" d="M151.54,271.14c1.13-.23,1.35-.33,1.53-.18a7.55,7.55,0,0,0,2,1,4.61,4.61,0,0,0,1.79.38,1.27,1.27,0,0,0,1-.48,2.34,2.34,0,0,0,.28-1.31,5.93,5.93,0,0,0-.12-1,8.28,8.28,0,0,0-.34-.95c0-.06-.08-.1-.05-.17a1.23,1.23,0,0,1,.93-.37c.08,0,.23,0,.24,0,.09.27.8.31.85.64.12.59.38,1.17.47,1.84a2.35,2.35,0,0,1-.05.83,3.7,3.7,0,0,1-.45,1,3,3,0,0,1-1.5,1.42,4.8,4.8,0,0,1-3,.09,7.9,7.9,0,0,1-2.44-1.12,4.43,4.43,0,0,1-1-.94A1.64,1.64,0,0,1,151.54,271.14Z"/><path class="cls-1" d="M139.12,244.19c.26,0,.4.25.41.61a.74.74,0,0,1-.23.43,2.69,2.69,0,0,1-.38.12,4.92,4.92,0,0,0-1.41.09c-.32.1-.64.11-1,.19a6.45,6.45,0,0,0-1.91.73c-.13.08-.28.13-.42.2a3.35,3.35,0,0,0-1.3.93.44.44,0,0,0-.15.22l-1,1.45a3.41,3.41,0,0,0-.43.57,3.9,3.9,0,0,0-.37.62c0,.06,0,.14-.12.18s-.21.25-.26.39a2,2,0,0,1-.24.6,2.18,2.18,0,0,1-.25.28.19.19,0,0,1-.26,0c0-.11-.15,0-.23,0h-.08a4.76,4.76,0,0,1-.15-.75,3.14,3.14,0,0,1,0-.86,9.69,9.69,0,0,1,.32-1.05,8.46,8.46,0,0,1,.51-1.16,1.11,1.11,0,0,1,.22-.3s.26-.39.5-.76a6.51,6.51,0,0,1,.57-.72,2.38,2.38,0,0,1,.83-.64.52.52,0,0,0,.17-.12,6.77,6.77,0,0,1,1.56-.91l.84-.37a.9.9,0,0,1,.16,0,1.52,1.52,0,0,0,.21,0,9.15,9.15,0,0,1,2.16-.39,7.27,7.27,0,0,1,1.18.24C138.73,243.9,139,244.19,139.12,244.19Z"/></g></svg>