<svg id="Layer_1" data-name="Layer 1" xmlns="http://www.w3.org/2000/svg" width="520" height="520" viewBox="0 0 520 520"><defs><style>.cls-1{fill:none;stroke:#221f1f;stroke-linecap:round;stroke-linejoin:round;stroke-width:2.5px;}.cls-2{fill:#221f1f;}.cls-3{fill:#232020;}.cls-4{fill:#161616;}</style></defs><title>Notioly v2</title><g id="_92.Savings" data-name="92.Savings"><path class="cls-1" d="M348.44,395c-12.95,1.64-23.64,3.23-28.06,5.84-10.33,6.1-20.72,8-31.7,10.48-2.59.58-12.08,4.74-19.46,3.15"/><path class="cls-2" d="M168.51,289.88c8.91-4.2,19.05-11.27,22.08-21.08.15-.49-2.64-.18-2.86.53-2.88,9.35-12.34,16.21-20.87,20.24-1.72.81,1,.62,1.65.31Z"/><path class="cls-2" d="M289.65,84.28c20.75,1,47.16,17.94,47.15,28.45,0,16.17-41.36,24.86-63.52,11.54C255.09,113.35,262.11,82.91,289.65,84.28Z"/><path class="cls-2" d="M286.59,127a64.9,64.9,0,0,0,27.92.35,50,50,0,0,0,9.71-3.11,27.3,27.3,0,0,0,7.38-4.56,14,14,0,0,0,2.54-3.2,9,9,0,0,0,1-3.71,8.17,8.17,0,0,0-1-3.69,19,19,0,0,0-2.46-3.57,43,43,0,0,0-6.61-6.15A67.51,67.51,0,0,0,311,91.24a81.64,81.64,0,0,0-19.89-5.52c-2.1-.27-1.83-1.22.13-2a16.69,16.69,0,0,1,9.78-.15,75.57,75.57,0,0,1,20.45,8.78,61.29,61.29,0,0,1,9,6.69,37.1,37.1,0,0,1,4,4.14,21,21,0,0,1,3.19,5.06,11,11,0,0,1,1,3.79,11.33,11.33,0,0,1-.5,3.92,14.6,14.6,0,0,1-4.08,6.28,27.31,27.31,0,0,1-5.83,4.12,39,39,0,0,1-6.39,2.75A62.62,62.62,0,0,1,307.08,132a70.4,70.4,0,0,1-14.94-.3,52.17,52.17,0,0,1-17.62-5.35,24.72,24.72,0,0,1-5.83-4.13,21.67,21.67,0,0,1-4.26-5.8,22.54,22.54,0,0,1-2-14,24,24,0,0,1,4.26-10.07,24.79,24.79,0,0,1,3.77-4,24.45,24.45,0,0,1,4.63-3,24.91,24.91,0,0,1,4.52-1.8,23.48,23.48,0,0,1,3.75-.72,12.91,12.91,0,0,1,2.59-.06,4.48,4.48,0,0,1,2.79.95,4.28,4.28,0,0,1,.79.69c.25.39-.21.74-1.22,1-.5.14-1.14.22-1.89.39s-1.63.26-2.6.48a25.87,25.87,0,0,0-8.13,3,21.06,21.06,0,0,0-6.3,5.77,19.58,19.58,0,0,0-2.95,16.48,17.92,17.92,0,0,0,7.42,10.13,33.39,33.39,0,0,0,6.07,3.12,43,43,0,0,0,6.64,2.09Z"/><path class="cls-2" d="M355.72,162.53c.2-.92-.53-8.33-2.87-10-6.07-4.28-10.49,4.25-10.49,4.25-12.39-6.09-1.64-41.41-1.41-41.51C364.93,104.56,391.47,153.59,355.72,162.53Z"/><path class="cls-2" d="M359.46,120.49a20.09,20.09,0,0,0-8.27-4.21,13.41,13.41,0,0,0-2.26-.34l-1.14-.08c-.38,0-.75,0-1.13.07a8.62,8.62,0,0,0-1.14.1l-1.12.23a5.25,5.25,0,0,0-1.1.29l-.52.19-.14,0c-.14,0-.17.12-.21.23l-.06.2-.15.47-.27,1-.5,1.92-.94,3.87a95.89,95.89,0,0,0-2.35,13.8,45.52,45.52,0,0,0-.12,6.9,20.75,20.75,0,0,0,1.37,6.5,10.2,10.2,0,0,0,.69,1.31l.39.61a3,3,0,0,0,.23.27l.18.21a3.32,3.32,0,0,0,.58.54,3.26,3.26,0,0,0,.34.22c.12,0,.25.2.29,0s.26-.42.4-.62a3.46,3.46,0,0,1,.23-.31c.17-.21.33-.43.52-.63a10.62,10.62,0,0,1,2.58-2.2,6.87,6.87,0,0,1,4.87-1,7.32,7.32,0,0,1,2.34.88,5,5,0,0,1,1.11.76,5.42,5.42,0,0,1,.89,1.09,12.81,12.81,0,0,1,1.57,4.26,20.93,20.93,0,0,1,.44,4.25,2.25,2.25,0,0,1-.22,1c-.14.31-.33.41-.51.34a4.63,4.63,0,0,1-1.29-1.23,17.67,17.67,0,0,1-1.62-2.61c-.54-1-1.07-2.28-1.55-3.32a2.76,2.76,0,0,0-.5-.83h0s.05,0,.09-.12a1.43,1.43,0,0,0,.14-.2c-.44.62-.13.17-.22.31h0l0,0-.07,0-.13-.07c-.18-.09-.36-.23-.53-.3a2.62,2.62,0,0,0-1.89-.16,5.3,5.3,0,0,0-2.11,1.34c-.18.16-.35.36-.52.53a11.08,11.08,0,0,0-.73.91c-.71,1-1.36,2.26-2,3.43-.52-.3-1.18-.71-1.76-1.06a18.72,18.72,0,0,1-1.73-1.17,6.82,6.82,0,0,1-1.6-1.37l-.54-.64a4.3,4.3,0,0,1-.41-.57,15.31,15.31,0,0,1-2.08-4.83,32.4,32.4,0,0,1-.73-9.59,112.54,112.54,0,0,1,3.19-20.46c.28-1.06.57-2.11.88-3.16l.52-1.72a3.51,3.51,0,0,1,.26-.59,1.78,1.78,0,0,1,.31-.54l.19-.23,0-.06h0l-.09-.09h0l0,0L340,114l.53-.32c1.17-.42,1.68-.63,2.4-.84l2.14-.45a20.24,20.24,0,0,1,4.33-.11,21.54,21.54,0,0,1,8.13,2.46,28.2,28.2,0,0,1,5.87,4.19,36.39,36.39,0,0,1,4.72,5.37,34.79,34.79,0,0,1,4.78,9.65,28.48,28.48,0,0,1,1.29,10.7,21.87,21.87,0,0,1-2.23,8.13,19.63,19.63,0,0,1-5.43,6.52c-.5.37-1,.77-1.48,1.14s-1.06.64-1.61,1c-4.14,2.15-5.74,2-6.89,1.41a4.05,4.05,0,0,1-.77-.48c-.29-.31-.05-.75.61-1.25a10.23,10.23,0,0,1,1.28-.77c.54-.24,1.13-.57,1.8-.92l1.49-.75,1.39-.89.7-.44c.23-.16.43-.34.64-.51l1.28-1a19.31,19.31,0,0,0,3.89-5.08A19.83,19.83,0,0,0,370,137.82a30.61,30.61,0,0,0-10.62-17.25Z"/><path class="cls-3" d="M298.31,217.28c.55,2.95.83,6.07,1.1,9.15s.44,6.2.6,9.3c.3,6.22.47,12.45.55,18.69,0,.43,2.85.39,2.82,0-.08-6.26-.24-12.52-.55-18.79-.16-3.13-.35-6.26-.61-9.39s-.55-6.26-1.14-9.46C301,216.39,298.24,217,298.31,217.28Z"/><path class="cls-3" d="M326.17,246.61c0-8.09-.11-16.16-.3-24.23s-.43-16.14-.81-24.22c0-.56-2.87-.41-2.82.14.37,8,.61,16.09.81,24.14s.34,16.12.29,24.15C323.34,247,326.17,247.06,326.17,246.61Z"/><path class="cls-2" d="M324.27,211.3c-1.95,3.45-19.8,11.4-24.62,5.46-.19-1.61-.39-2.1-.6-3.47,10.9.67,24.43-13.28,24.63-13.48C323.84,202.8,324,206.69,324.27,211.3Z"/><path class="cls-2" d="M312,211.41c-.84.44-1.67.89-2.56,1.25l-1.31.58-1.37.48a23.3,23.3,0,0,1-2.81.8,11.4,11.4,0,0,1-1.46.24l-.74.1-.18,0h-.1c.11,0,.08,0,.07,0h-.08c-.15,0-.36,0-.44,0a2.54,2.54,0,0,1,.07.47v.08l0,.34V216a3.28,3.28,0,0,0,1.51,1,9,9,0,0,0,2.63.51,21.51,21.51,0,0,0,5.86-.65,27.43,27.43,0,0,0,5.63-2,36.66,36.66,0,0,0,3.32-1.84,30.32,30.32,0,0,0,2.93-2c.22-.18.45-.14.74,0a1.35,1.35,0,0,1,.6,1.09,4.22,4.22,0,0,1-2,3.63,33.71,33.71,0,0,1-7.76,3.5,26,26,0,0,1-8.52,1.29,15.94,15.94,0,0,1-3.9-.55,8.07,8.07,0,0,1-2-.84,7,7,0,0,1-1-.69c-.35-.32-.69-.7-1-1.05l-.15-1.18-.07-.41-.11-.6c-.17-.81-.28-1.59-.4-2.36l-.08-.54,0-.28s-.05-.11,0-.11h.14l1.13,0,2.23-.06H301l.13,0h.06l.15,0,.31,0,.62-.09.62-.08.62-.15,1.24-.32c.42-.11.82-.28,1.23-.42a22.78,22.78,0,0,0,2.42-1,40.1,40.1,0,0,0,5.68-3.24c1.39-.92,2.73-1.92,4-3a58.82,58.82,0,0,0,4.81-4.35l1.54-1.59c.08,0,.07.24.09.41l.05.55.09,1.1.22,2.28.22,2.4.18,1.63c.06.57.15,1.12.19,1.7.17,2.12,0,2.81-.84,3.31a4.18,4.18,0,0,1-.57.33c-.65.24-1.24-.6-1.51-2.15-.14-.75-.26-1.51-.37-2.28s-.19-1.48-.29-2.23c-.11-.16-.16-.14-.2-.09l0,.09h0l-.08.07-.08.08-.22.19a57.31,57.31,0,0,1-9.27,6.51Z"/><path class="cls-2" d="M324.76,246.93c-.37,43.09-4.15,101.11-6.25,124.88-.12,1.41-7.77,5.92-10.92,5.92-6.17,0-8.81-3-14.38-1.74a.79.79,0,0,1-.94-.95c2.36-9.3,8.66-57.62,9.57-96.83.19-8.17.22-16.13.14-23.49A28.7,28.7,0,0,0,324.76,246.93Z"/><path class="cls-2" d="M298.62,346.44q-1,7.94-2.2,15.83c-.41,2.64-.84,5.28-1.31,7.91l-.39,2-.19,1-.07.3c0,.17-.14.39-.07.48s.23,0,.35,0l.31,0,1,0a16.19,16.19,0,0,1,2,.19,29.55,29.55,0,0,1,3.57.89,32.39,32.39,0,0,0,3.2.79c.52.08,1,.15,1.57.19a6.79,6.79,0,0,0,.78,0l.4,0,.28,0a9.75,9.75,0,0,0,2.54-.73A23.1,23.1,0,0,0,313,374a25.17,25.17,0,0,0,2.51-1.55c.39-.28.75-.56,1.07-.84.15-.17.17-.16.21-.22a.27.27,0,0,0,.06-.17l.35-3.91q2.59-29.28,4.31-58.65c.5-8.69.87-17.43,1.14-26.06.35-11.08.43-22.21.9-33.28.16-3.45,1-3,1.74,0a58,58,0,0,1,1.34,14.76c-.53,22.7-1.78,45.34-3.61,68.13-.53,6.45-1,13-1.47,19.64-.25,3.31-.49,6.62-.74,9.94l-.4,5c-.15,1.71-.29,3.42-.44,5.12-.05.15,0,.33-.13.45a4,4,0,0,1-.16.45,5.74,5.74,0,0,1-.53.76,9.26,9.26,0,0,1-1.06,1,28.51,28.51,0,0,1-5.51,3.24,19.12,19.12,0,0,1-3.06,1.13,7.71,7.71,0,0,1-1.83.29c-.59,0-1.1,0-1.65-.06a30.23,30.23,0,0,1-6.17-1.33,18.33,18.33,0,0,0-2.76-.61,8.58,8.58,0,0,0-1.33-.09h-.34a2.57,2.57,0,0,0-.42,0l-1.12.15c-.35,0-.64,0-1,0a1.9,1.9,0,0,1-.88-.12,1.72,1.72,0,0,1-1-1.4l.27-1.94.13-1c0-.18,0-.29.06-.39l.07-.34c.35-1.76.67-3.55,1-5.34.6-3.58,1.13-7.18,1.64-10.79q1.95-14,3.38-28.13c1.45-14.23,2.59-28.57,3.1-42.76.07-2.55.16-5.09.17-7.63s0-5.06,0-7.58-.05-5-.07-7.56l0-3.78v-5.2c1.27.1,2.67.18,3.78.21a28.08,28.08,0,0,0,6.77-.84,33.55,33.55,0,0,0,8.38-3.37c.87-.49,1.59-.84,2.18-1.14a13.2,13.2,0,0,1,1.63-.64,9.5,9.5,0,0,1,1.34-.4c.55,0,.23.64-.88,1.94a23,23,0,0,1-6.31,4.59,29.57,29.57,0,0,1-7.55,2.53,30.26,30.26,0,0,1-4.05.48c-.34,0-.68,0-1,0l-.75,0h-.33c0,.07,0,.15,0,.2V257h0v.44l0,2.79,0,5.63q0,5.65,0,11.38c-.11,7.64-.45,15.36-.93,23.07-1,15.38-2.48,30.78-4.35,46.11Z"/><path class="cls-2" d="M249.41,287.39c2.1-6.2,4.19-12.43,6.43-18.62.81-2.27,1.57-4.55,2.45-6.79,3.14-7.88,6.62-15.72,11.56-22.79a42.08,42.08,0,0,1,7.71-8.57,22.9,22.9,0,0,1,6.55-3.76,16.5,16.5,0,0,1,7.52-.88c1.58.19,1.22,1-.05,1.73A28.47,28.47,0,0,1,286,230c-4.14,1.22-7.73,4.1-10.76,7.56a68.49,68.49,0,0,0-7.93,11.77,122.75,122.75,0,0,0-7,16.36c-2.29,6.15-4.41,12.4-6.51,18.66q-2,5.77-3.89,11.56c-2,5.84-4.12,11.67-6.41,17.37a114.06,114.06,0,0,1-5.87,13c-.5.92-1,1.83-1.59,2.73-2.21,3.31-3.33,4.11-4.51,4.16a3.11,3.11,0,0,1-.8,0c-.73-.21,0-1.65,1.45-3.93A82.81,82.81,0,0,0,238,318.15c1.76-3.91,3.37-8,4.89-12.11,2.27-6.13,4.38-12.38,6.45-18.66Z"/><path class="cls-2" d="M170,292.62l0,.06v0l.1.19.67,1.35,1.31,2.71,2.52,5.43,4.88,10.87c3.24,7.24,6.53,14.44,10,21.52,2.56,5.16,5.32,10.22,8.18,15.2,2.52,4.39,5.19,8.69,8.11,12.79a76.59,76.59,0,0,0,9.71,11.42c3.6,3.38,7.74,6.3,12.39,7.48a18.34,18.34,0,0,0,3.52.51c.59,0,1.18,0,1.77-.05.29,0,.61,0,.87-.09l.74-.17a16.08,16.08,0,0,0,5.67-4.11,73.39,73.39,0,0,0,8.19-10.57c2.48-3.75,4.76-7.63,7-11.52,5.63-10,10.62-20.48,16-30.67,3.32-6.38,2.21,3.2-3.81,15.13-2.69,5.27-5.45,10.51-8.37,15.68s-6,10.26-9.44,15.19a80.31,80.31,0,0,1-5.57,7.18,26,26,0,0,1-7.36,6.17l-1.28.51c-.47.12-1,.23-1.43.32a20.26,20.26,0,0,1-2.46.12,19.75,19.75,0,0,1-4.85-.65,25,25,0,0,1-4.49-1.7,32.58,32.58,0,0,1-4-2.42,52.49,52.49,0,0,1-8.26-7.41,93,93,0,0,1-7-8.62,172.76,172.76,0,0,1-11.62-18.76c-7.65-14.15-14-28.9-20.59-43.42-.82-1.79-1.66-3.58-2.51-5.34l-1.31-2.64-.48-.91-.53-1-.54-1-.27-.5c-.08-.16-.21-.35-.17-.44l1.77-.39c.58-.15,1.11-.33,1.66-.49l1.07-.43c.32-.14.63-.3.95-.45.65-.28,1.24-.67,1.87-1s1.2-.76,1.79-1.15a36.79,36.79,0,0,0,6.38-5.72l.91-1,.85-1.07c.56-.72,1.16-1.41,1.66-2.18l1.56-2.26,1.41-2.36.36-.59.17-.29.22-.42.92-1.77.91-1.76.46-.87c.15-.22.29-.86.47-.3l2.05,3.51.51.87.41.73.67,1.23c3.61,6.56,7,13.18,10.41,19.75,5.27,10.23,10.45,20.25,15.66,30.36l3.4,6.66c4.17,8.38,5.28,11.16,5.39,13.34a9.28,9.28,0,0,1,.05,1.44c-.2,1.1-2.35-2.09-5.54-8.16-4.72-9-9.49-18.28-14.31-27.69s-9.68-19-14.72-28.44c-.91-1.7-1.82-3.41-2.76-5.08l-1.21-2.19h0c0-.05-.06.1-.08.14l-.06.11-.47.78-1.54,2.59c-.55.84-1.14,1.66-1.7,2.5a47.58,47.58,0,0,1-8.23,9c-.76.68-1.63,1.25-2.45,1.88s-1.72,1.15-2.65,1.64a24.75,24.75,0,0,1-2.83,1.39l-.37.15-.19.08c-.06,0,.05,0,0,0h0l-.08,0s0,0,0,.06Z"/><path class="cls-2" d="M152.91,244a28.74,28.74,0,0,0-4.29-1.37,10.21,10.21,0,0,0-2-.19c-.35,0-.71,0-1.07,0l-1.09.13a28.73,28.73,0,0,0-8.62,2.88A54,54,0,0,0,130,249c-.83.56-1.65,1.15-2.43,1.74l-.12.1,0,0-.07.06-.28.25-.57.52-1.14,1c-1.5,1.39-3,2.8-4.43,4.25-.72.72-1.44,1.45-2.13,2.19l-1,1.13-.86,1a6.88,6.88,0,0,0-.82,1.12,1.14,1.14,0,0,0-.2.69c0,.27.36.28.57.28h0a3.27,3.27,0,0,0,1.22-.41l.63-.36q.56-.34,1.11-.72c1.47-1,2.88-2.16,4.25-3.33.62-.54,1.22-1.08,1.82-1.64l.89-.83,1-1,2.3-1,2.11-.9c1.41-.59,2.83-1.14,4.28-1.64,2.77-1,.58,3.35-4.39,5.51l-2.35,1-1.24,1.14-1.56,1.35c-1,.89-2.12,1.76-3.24,2.6-.56.41-1.13.82-1.72,1.22l-.89.59-.46.28-.24.14-.38.22c-.51.31-1.09.59-1.67.87a10.39,10.39,0,0,1-1.66.59,5.1,5.1,0,0,1-2.74,0,3,3,0,0,1-1.25-.82,2.39,2.39,0,0,1-.57-1.37,5.25,5.25,0,0,1,1-3.22,25.92,25.92,0,0,1,2.33-3q.86-.94,1.74-1.83,3.12-3.15,6.37-6.26l1.63-1.55.42-.38c.24-.22.35-.3.51-.43l.92-.71c1.23-.91,2.48-1.78,3.78-2.57a44.15,44.15,0,0,1,9.08-4.36,25.55,25.55,0,0,1,5-1.12,18.86,18.86,0,0,1,2.61-.14,14,14,0,0,1,2.65.4,55.6,55.6,0,0,1,11.38,4.62c2.74,1.38,5.4,2.9,8,4.5a74.25,74.25,0,0,1,7.61,5.21c.47.36.93.82,1.39,1.24a6.57,6.57,0,0,1,.68.83,5.73,5.73,0,0,1,.49.79c.57,1,1.16,2,1.76,3,1.19,2,2.42,3.91,3.66,5.85l1.65,2.54c2,3.2,2.5,4.32,2.23,5.47a3.33,3.33,0,0,1-.2.77c-.35.67-1.67-.34-3.32-2.62-2.45-3.39-4.77-7-7-10.73-.55-.94-1.1-1.88-1.63-2.85-.13-.23-.28-.53-.35-.55a.69.69,0,0,1-.11-.13.71.71,0,0,0-.16-.18c-.35-.3-.6-.61-1-.92a54.6,54.6,0,0,0-5.12-3.61,101.54,101.54,0,0,0-16.91-8.83Z"/><path class="cls-2" d="M146.69,263.56a33.44,33.44,0,0,1-3.44-1.72c-.56-.31-1.1-.65-1.64-1-.25-.15-.58-.39-.75-.51l-.15-.14c-.05,0-.12,0-.18,0l-.09,0-.15.08c-.2.1-.39.2-.59.32l-1.22.7c-3,1.66-6,3.51-9.26,5a17.61,17.61,0,0,1-4.75,1.64,5.16,5.16,0,0,1-3.69-.9,3.12,3.12,0,0,1-1.3-2,2.54,2.54,0,0,1,.2-1.38,3.27,3.27,0,0,1,.32-.52c.12-.14.24-.28.36-.4.68-.55,1,.28,1.33,1.12a2.89,2.89,0,0,0,.31.58.71.71,0,0,0,.2.19s.14.05.06,0l-.12,0c-.13,0-.08,0,.1-.06l.19-.08.21-.14.12-.09,0-.05h0a2.06,2.06,0,0,0,.53.29,1.57,1.57,0,0,0,.62.11,7.58,7.58,0,0,0,2.19-.5c1.68-.58,3.45-1.44,5.25-2.28,2.18-1,4.16-2.54,6.42-3.79l.63-.33c.24-.12.38-.19.72-.34a7.21,7.21,0,0,1,2.05-.59l.92.67.69.48,1.11.71,1.14.66,1.17.6a26.06,26.06,0,0,0,4.49,1.74,19.25,19.25,0,0,0,7.18.74l1.35-.26c.23-.06.45-.09.67-.16l.64-.24,1.26-.5c.41-.17.79-.43,1.19-.63s.67-.4,1-.58c1.21-.84,1.72-.89,2.5-.38a4.1,4.1,0,0,1,.53.36c.53.44.28,1.25-.69,2.09a16.17,16.17,0,0,1-11.14,3.52,25.34,25.34,0,0,1-8.62-2Z"/><path class="cls-2" d="M164,267.35A86.35,86.35,0,0,1,174.82,287c.49,1.32,3.37.51,2.89-.78a88.38,88.38,0,0,0-11-20.17c-.77-1.08-3.53.05-2.66,1.28Z"/><path class="cls-2" d="M417,355.58c-1.93-6.38-4.28-12.69-6.79-18.92s-5.2-12.42-8-18.56c-2-4.48-4.22-8.9-6.34-13.33q-11.24-23.47-23.69-46.36c-1.85-3.38-3.74-6.75-5.68-10.07-1-1.66-1.95-3.32-2.95-4.94-.5-.8-1-1.64-1.53-2.33s-1.12-1.49-1.75-2.16a29.41,29.41,0,0,0-11.42-8.15,46.18,46.18,0,0,0-14-2.89c-3-.18-2.63-1,0-1.74a21.33,21.33,0,0,1,5.55-.63,24.93,24.93,0,0,1,7.94,1.32,32.83,32.83,0,0,1,13.4,8.69l1.32,1.5c.43.51.82,1.05,1.23,1.57a18.06,18.06,0,0,1,1.18,1.68l1,1.65c1.31,2.18,2.56,4.37,3.8,6.57,4.95,8.8,9.66,17.73,14.22,26.79,5.45,10.83,11.3,22,16.61,33.23,5.82,12.34,11.38,24.83,16,37.71,1.41,4,2.75,8,3.84,12.06.56,2.05,1.05,4.12,1.45,6.21a41.25,41.25,0,0,1,.74,6.41,14.71,14.71,0,0,1-.65,5.08,10.08,10.08,0,0,1-.58,1.25,8,8,0,0,1-.82,1.11l-.86.93c-.3.29-.61.57-.92.85a31.69,31.69,0,0,1-8.37,5.1,92.4,92.4,0,0,1-18.39,5.37c-9.67,1.92-19.23,3.19-28.87,4.25-2.12.23-4.2.48-6.34.68-7.94.74-10.48.73-12.26,0a8.18,8.18,0,0,1-1.18-.48c-.82-.59,2.37-1.43,8.17-2.12,8.6-1,17.42-1.94,26.29-3.18,4.43-.63,8.88-1.32,13.29-2.21a109,109,0,0,0,13-3.32,46.93,46.93,0,0,0,8.91-3.92c.71-.38,1.32-.85,2-1.27a21.29,21.29,0,0,0,1.78-1.46A18.17,18.17,0,0,0,419,376a4.85,4.85,0,0,0,.38-.65l.18-.39.13-.46a14.31,14.31,0,0,0,.31-4.38,36.83,36.83,0,0,0-.62-4.81,89.1,89.1,0,0,0-2.45-9.68Z"/><path class="cls-2" d="M265.56,409.69A1.29,1.29,0,0,1,267,410c.16.12.26.58.13.69a6.19,6.19,0,0,1-.79.55,35.46,35.46,0,0,1-4,1.14c-.24.06-.49.1-.74.14s-.89.09-1.32.11a5.14,5.14,0,0,1-2.33-.37,2.34,2.34,0,0,1-.8-.6,4.48,4.48,0,0,1-.49-.92l.1-.5.06-.26.2-.29c.18-.39.81-.8,1.25-1.2s1-.72,1.56-1.09l.92-.58a10.73,10.73,0,0,1,1.15-.63c1.36-.64,2.65-1.36,3.92-2.11a2.87,2.87,0,0,0,.61-.42,40.9,40.9,0,0,1,4.3-2.38c1.21-.48,2.39-1,3.58-1.49a1.49,1.49,0,0,1,.52-.19,2.61,2.61,0,0,0,1.14-.38c.5-.23,1-.45,1.52-.64a3.81,3.81,0,0,1,.83-.16c.26,0,.27.28.21.35s.06.23.14.33a.17.17,0,0,1,.06.11,31.56,31.56,0,0,1-2.87,2.13l-2.13,1.21c-1.07.6-2.17,1.25-2.39,1.4a6.36,6.36,0,0,1-.75.34c-.13,0-3.27,1.95-3.4,2a11.73,11.73,0,0,1-2,1,2.19,2.19,0,0,0-.4.21c-1.11.68-2.26,1.29-3.37,1.95a2.35,2.35,0,0,0-.43.29l-.11,0a.26.26,0,0,0-.13.06l-.05.06c0,.14.19.16.32.18h.22l.7-.11c.34-.05,2.05-.12,2.45-.25C264.56,409.64,265.37,409.79,265.56,409.69Z"/><path class="cls-2" d="M337.59,377c-7.2,2.18-14.43,4.28-21.74,6.2-2.66.7-5.32,1.44-8,2-2.37.53-4.76,1-7.15,1.47l-3.59.64-1.8.29-.9.14-.81.15a45,45,0,0,0-6.64,2.22c-2.21.89-4.4,1.86-6.57,2.88a118.11,118.11,0,0,0-11.18,6.1c-2.3,1.43-4.54,3-6.65,4.57a30.89,30.89,0,0,0-2.95,2.52,6.78,6.78,0,0,0-1,1.26c-.05.1-.07.16-.09.2l0,0a.72.72,0,0,0-.22,0c-.06,0,0,0,.13-.11s0,0,.08.08c.4.23.79.5.69.82s-.48.72-1.46.73a1.8,1.8,0,0,1-.88-.31,1.94,1.94,0,0,1-.73-1.21,4.29,4.29,0,0,1,.47-2.53,11,11,0,0,1,3.05-3.66,68.16,68.16,0,0,1,7.13-4.87c2.43-1.47,4.91-2.84,7.43-4.13a104.3,104.3,0,0,1,15.71-6.69c.84-.26,1.68-.5,2.57-.71.44-.11.91-.2,1.38-.28l1.26-.2c1.67-.27,3.35-.59,5-.93,3.36-.68,6.71-1.48,10-2.28,7.31-1.78,14.57-3.87,21.8-6l13.35-4.09,20.2-6.26c5.2-1.62,10.27-3.33,15.46-4.85,1.14-.33,2.25-.7,3.42-1,4.3-1.14,5.76-1.17,6.86-.56a3.22,3.22,0,0,1,.74.44c.55.55-1.1,1.46-4.18,2.37-9.15,2.78-18.78,5.77-28.48,8.82l-21.69,6.79Z"/><path class="cls-2" d="M337.88,375.5c9.45,5.47,7.64,18,3.79,26.28-.91,2,2.89,2,3.61.47,4.28-9.23,5.89-22.94-4.51-29-1.46-.85-4.74,1.14-2.89,2.21Z"/><path class="cls-2" d="M376.92,329.5l2.94,5.83c.36.71.8,1.37,1.15,2.08q1.85,3.78,3.68,7.56c.55,1.11,1.18,2.19,1.8,3.26a16.89,16.89,0,0,1,2.18,4.3c.13.52-.6.73-1.45.66a3.7,3.7,0,0,1-1.26-.31,2.06,2.06,0,0,1-1-.86,83.24,83.24,0,0,1-4.19-8.71c-.73-1.82-1.83-3.52-2.75-5.29l-3-5.83-1.87-3.59c-1-1.79-1.9-3.62-2.94-5.36-.8-1.35-1.75-2.59-2.63-3.87-.19-.29-.41-.55-.59-.84-.68-1.09-.71-1.54-.17-2.17a5.14,5.14,0,0,1,.38-.42c.46-.41,1.15-.21,1.77.52a47.06,47.06,0,0,1,4.83,7.22c1.08,1.91,2.1,3.85,3.15,5.78Z"/><path class="cls-2" d="M125.63,271.2c0,7-9.7,8.56-11.47,1.59C111.94,264.09,125.63,262,125.63,271.2Z"/><path class="cls-2" d="M116.87,268.74a3.74,3.74,0,0,0-1,3.56,6,6,0,0,0,.58,1.41,3.79,3.79,0,0,0,1.77,1.81,4.1,4.1,0,0,0,2.76.3,4,4,0,0,0,2.14-1.35,10.37,10.37,0,0,0,1.2-3c.15-.33,1-.35,1.88.08a2.83,2.83,0,0,1,1.1,1,1.91,1.91,0,0,1,.18,1.54,7.48,7.48,0,0,1-3.79,4.44,7.23,7.23,0,0,1-5.63.42,10.29,10.29,0,0,1-1.56-.69c-.25-.14-.5-.27-.74-.42l-.68-.53a7.7,7.7,0,0,1-1.19-1.23,11,11,0,0,1-.82-1.45,13,13,0,0,1-.49-1.69,8.88,8.88,0,0,1-.16-1.72,7,7,0,0,1,.91-3.45,6.9,6.9,0,0,1,3.16-2.85,8,8,0,0,1,6.13-.22,7.84,7.84,0,0,1,2.18,1.22,6.4,6.4,0,0,1,1.63,2,5.07,5.07,0,0,1,.46,1c.37,1.35.07,1.82-.83,2.09a4.77,4.77,0,0,1-.62.17,1.54,1.54,0,0,1-1.59-.93,4.79,4.79,0,0,0-1.53-1.93,3.9,3.9,0,0,0-2.09-.72,4.27,4.27,0,0,0-3.33,1.19Z"/><path class="cls-2" d="M61.94,379.66a4.08,4.08,0,0,0-.66,3.48,3.71,3.71,0,0,0,.66,1.16c.88,1.33,2.87,2.09,5,2.16a9.62,9.62,0,0,0,2.81-.34,19.69,19.69,0,0,1,3.61-.92c.82,0,.89,3.21-.68,3.7a17.6,17.6,0,0,1-4.27.76,11.54,11.54,0,0,1-4.53-.65,16.42,16.42,0,0,1-2.66-1.25A6.78,6.78,0,0,1,59,385.59a7.11,7.11,0,0,1-.4-6.38,6.1,6.1,0,0,1,2.63-3,4.71,4.71,0,0,1,1.5-.53,5.57,5.57,0,0,1,1.58,0,3.92,3.92,0,0,1,1.57.62,3.67,3.67,0,0,1,1.1,1.29,4.88,4.88,0,0,1,.55,2.44,4.05,4.05,0,0,1-.93,2.51,3.44,3.44,0,0,1-1,.84,2,2,0,0,1-1.72.19,1,1,0,0,1-.54-.9,4.12,4.12,0,0,1,0-.6,2.21,2.21,0,0,1,.84-1.34.8.8,0,0,0,.23-.52,3,3,0,0,0,0-.64,1.36,1.36,0,0,0-.18-.57.63.63,0,0,0-.16-.15,1.81,1.81,0,0,0-.37,0,1.74,1.74,0,0,0-.59.09,2.06,2.06,0,0,0-1.06.85Z"/><path class="cls-2" d="M178.49,384.37a11.49,11.49,0,0,0,.92-3.35c.06-.44,0-.88,0-1.31a15.36,15.36,0,0,0,0-1.66c0-.26,0-.52-.09-.75a2.84,2.84,0,0,0-.11-.46.94.94,0,0,0-.49-.44,1.49,1.49,0,0,0-1.37.14c-.55.35-.73.91-1.3,1.47-.19.16-1-.07-1.63-.62a1.69,1.69,0,0,1-.56-2.25c1.61-2.34,5.67-3.11,7.76-.24a4.55,4.55,0,0,1,.46,1.07c.18.84.26,1.5.35,2.2a11.46,11.46,0,0,1,.11,2,16.76,16.76,0,0,1-.77,4.31,12.32,12.32,0,0,1-1.15,2.51,6.55,6.55,0,0,1-3.35,2.83,7.77,7.77,0,0,1-3.42.52,4.41,4.41,0,0,1-.73-.08c-.9-.2-1.07-.56-.91-1.4a5.25,5.25,0,0,1,.13-.57,1.36,1.36,0,0,1,1.22-1,14.47,14.47,0,0,0,2-.19,3.16,3.16,0,0,0,1.28-.54,4.83,4.83,0,0,0,1.54-2.2Z"/><path class="cls-2" d="M138.86,349.18c1.18-4,4.22-9,7.65-11.44a8.66,8.66,0,0,1,1.05-.64c-.33.16-.72-.37-.39-.14a3.16,3.16,0,0,1,.79.88c1.38,2.22.56,5.38-.09,7.66-.42,1.48,3.39,1,3.78-.42,1.15-4.06,1.37-12.11-5.07-9.92-5.49,1.87-10,9.14-11.5,14.44-.43,1.46,3.38,1,3.78-.42Z"/><path class="cls-2" d="M111.43,363.49c6,2.46,12.74,1.83,18.86.22.49-.13,3-.85,2.65-1.71s-2.62-.3-3.15-.16a21.06,21.06,0,0,1-13.6-.64c-1.3-.53-6.52,1.57-4.76,2.29Z"/><path class="cls-2" d="M162,371.58c-2.13,1.29-3.2-1.88-3.05-3.35a3,3,0,0,1,2.2-2.52C163.92,365.21,163.52,370.66,162,371.58Z"/><path class="cls-2" d="M415,388.74h88c1.27,0,6.57-2.43,3.74-2.43h-88c-1.27,0-6.57,2.43-3.74,2.43Z"/><path class="cls-2" d="M185.4,389.19h90.24c2.2,0,5.45-3.32,1.93-3.32H187.33c-2.2,0-5.44,3.32-1.93,3.32Z"/><path class="cls-2" d="M14.18,389.1H52c2.08,0,5.49-3.14,2-3.14H16.16c-2.08,0-5.49,3.14-2,3.14Z"/><path class="cls-2" d="M311.47,210.18a30.36,30.36,0,0,1-14.28,3.95,22.06,22.06,0,0,1-7.49-1.29,22.89,22.89,0,0,1-6.54-3.81,27.62,27.62,0,0,1-6.73-8.47,38.3,38.3,0,0,1-3.15-8.85,46.25,46.25,0,0,1-1.16-9.21c-.09-1.54,0-3.07,0-4.61s.17-3.07.39-4.59c.1-.76.18-1.52.29-2.28l.4-2.26c.11-.75.28-1.5.45-2.25s.33-1.49.53-2.23c1.34-5.24,3-10.35,4.66-15.39,1-3.24,2.06-6.48,3-9.72a71.32,71.32,0,0,0,2.3-9.65c.16-1.91,1-1.84,1.74.07s.8,5.54-.31,9.38c-2,6.79-4.39,13.29-6.47,19.85a95.84,95.84,0,0,0-2.69,9.84,71.34,71.34,0,0,0-1.29,10.1,43.9,43.9,0,0,0,1.1,12.27,33,33,0,0,0,4.91,11.23,23.84,23.84,0,0,0,4.53,4.82,18.55,18.55,0,0,0,5.78,3,20.89,20.89,0,0,0,13.09-.37A41.26,41.26,0,0,0,318.86,201a74.55,74.55,0,0,0,15.91-20.37c.59-1.13,1.16-2.27,1.68-3.42.26-.58.52-1.16.75-1.74l.19-.45.25-.64.49-1.32,2.26-.08a10.43,10.43,0,0,0,1.48-.12,23.18,23.18,0,0,0,2.88-.53,15.64,15.64,0,0,0,5.13-2.42,12.22,12.22,0,0,0,1.48-1.29,11.82,11.82,0,0,0,1.19-1.53,12.15,12.15,0,0,0,1.86-4.7c.15-.55.2-1,.33-1.39a8.5,8.5,0,0,1,.41-1,6.35,6.35,0,0,1,.45-.87c.28-.34.64,0,1.06,1.06a9,9,0,0,1,.09,5.1,13.83,13.83,0,0,1-7.06,8.57,19.12,19.12,0,0,1-5.33,1.87,23.89,23.89,0,0,1-2.78.41,5.34,5.34,0,0,1-.69,0h-.51l-.07,0a.17.17,0,0,1,0,.08v0l0,.12-.21.5c-.28.67-.59,1.33-.89,2-.62,1.31-1.27,2.62-2,3.89a84.21,84.21,0,0,1-4.59,7.45,78,78,0,0,1-9.37,11.1,55.88,55.88,0,0,1-11.68,8.91Z"/><path class="cls-2" d="M319.7,252.66a38.08,38.08,0,0,1-5.48,1.78,15.82,15.82,0,0,1-2,.5,31.36,31.36,0,0,1-7.3.32l-3.21-.13a9.32,9.32,0,0,1-4.08-.77c-.44-.24-.07-1,.46-1.68s1.27-1.31,1.95-1.2c2.44.38,4.93.64,7.52.84a10.33,10.33,0,0,0,2.35-.12c.78-.1,1.55-.35,2.33-.47a32.14,32.14,0,0,0,5-1.48L318,250l.74-.35,1.46-.72a7.09,7.09,0,0,0,1.08-.6l1.05-.66,1.05-.67a10.2,10.2,0,0,0,.95-.79,17,17,0,0,0,2.56-2.8c.18-.22.32-.46.51-.67.68-.77,1.07-.85,1.86-.44.18.1.37.18.54.29a1.2,1.2,0,0,1,.23,1.76c-.32.52-.67,1-1,1.55a8.84,8.84,0,0,1-1.24,1.43c-.46.45-.94.88-1.42,1.31a12,12,0,0,1-1.54,1.2c-.8.55-1.61,1.08-2.44,1.59l-2.61,1.33Z"/><path class="cls-2" d="M272.84,348.1c.52-2.38.87-4.8,1.3-7.2s.77-4.83,1.12-7.25c.26-1.76.41-3.54.62-5.31.84-6.23,1.48-12.5,2-18.78.19-2.78.31-5.59.34-8.37.06-3.56-.11-7.14.24-10.68.2-2.22,3.34.57,3.3,4.75a182.77,182.77,0,0,1-1.54,22c-.31,2.19-.52,4.44-.72,6.69s-.47,4.53-.71,6.77l-1,7.39c-.37,2.46-.82,4.9-1.22,7.36-.52,3-1.18,6-1.74,9q-.76,3.39-1.55,6.78c-.5,2.27-1.17,4.49-1.71,6.72-.21.87-.41,1.74-.62,2.6s-.47,1.72-.7,2.57c-.47,1.71-.88,3.43-1.39,5.14-.25.74-.46,1.48-.73,2.22-1,2.76-1.54,3.56-2.55,3.81a3,3,0,0,1-.68.16c-.71,0-.79-1.31-.23-3.33.41-1.5.89-3,1.34-4.52s.81-3.09,1.25-4.65c.22-.77.45-1.55.67-2.33s.4-1.58.59-2.38c.41-1.58.81-3.18,1.22-4.77.57-2.38,1.07-4.78,1.62-7.17s.95-4.83,1.43-7.24Z"/><path class="cls-2" d="M356.79,339.92l.26-5.06.17-5.07c0-1.23,0-2.46,0-3.69.09-4.35.15-8.7.06-13.05,0-1.93-.18-3.87-.34-5.77a55.13,55.13,0,0,1-.52-7.38c0-.92.81-.69,1.58-.14a4.47,4.47,0,0,1,1.73,3.14,113.88,113.88,0,0,1,.36,15.24c-.14,3.06.05,6.23,0,9.35q-.06,5.14-.3,10.29c-.08,2.11-.21,4.21-.33,6.32-.14,3.19-.45,6.39-.59,9.55-.17,2.46-.1,4.89-.22,7.33,0,.54,0,1.07-.06,1.61-.14,2-.4,2.62-1.22,3a3.83,3.83,0,0,1-.56.22c-.62.13-1-.74-1.07-2.2-.1-4.36.19-8.89.44-13.46.2-3.39.39-6.8.54-10.2Z"/><path d="M288.33,147.2c.81.59,1.24,1.05.86,1.35-.22.17-.13.46-.21.69a11.62,11.62,0,0,0-.76,4.4c.07.53.29.76.43.81a.1.1,0,0,1,.05,0h.09c.07,0,.09.05.19,0s.34,0,.5,0a2.48,2.48,0,0,0,1-.44,5.39,5.39,0,0,0,1.1-1,12.2,12.2,0,0,0,1.59-3c.21-.55.5-1.08.67-1.64a3.44,3.44,0,0,0,.06-.63.24.24,0,0,1,.13-.22,2.94,2.94,0,0,1,1.85.1c.55.2.91.46.85.71a20,20,0,0,1-1.08,3.25c-.17.42-.3.87-.51,1.29a11.18,11.18,0,0,1-1.28,1.83A7.48,7.48,0,0,1,291,157a4.07,4.07,0,0,1-1.11.32,3.9,3.9,0,0,1-1.18,0,4,4,0,0,1-1.25-.29,3.41,3.41,0,0,1-1.14-.85,2.78,2.78,0,0,1-.5-.71,3,3,0,0,1-.29-.74,6.09,6.09,0,0,1-.24-2.1,13.41,13.41,0,0,1,.21-1.85,25.67,25.67,0,0,1,.9-3.53.66.66,0,0,1,.11-.24C286.79,146.78,287,146.8,288.33,147.2Z"/><path d="M307.67,150.22c.82.59,1.29.94.95,1.25s-.08.45-.13.67a17.14,17.14,0,0,0-.28,4.72,3.65,3.65,0,0,0,.46,1.45s0,0,.06,0,.17,0,.28,0a1.86,1.86,0,0,1,.33,0,3.19,3.19,0,0,1,.33-.11,3.07,3.07,0,0,1,.36-.2,5.16,5.16,0,0,0,1.11-.95,16,16,0,0,0,1.78-3c.29-.56.65-1.1,1-1.69.11-.22.16-.49.27-.73a.4.4,0,0,1,.23-.25c.38-.13,1.12.24,1.7.76s.71.7.61.87c-.47.85-.93,1.84-1.43,2.81-.2.39-.34.84-.57,1.23a12.78,12.78,0,0,1-1.31,1.79,6.84,6.84,0,0,1-3,2.16l-.62.17-.65,0a2.26,2.26,0,0,1-.64,0l-.32,0-.39-.07a3.32,3.32,0,0,1-1.91-1.9,6.41,6.41,0,0,1-.38-1.29,16,16,0,0,1-.2-3.68,19.43,19.43,0,0,1,.47-3.73.75.75,0,0,1,.11-.28C306.13,149.82,306.32,149.82,307.67,150.22Z"/><path d="M294.41,157.83c-3.39,1.76-7.78,4.11-9.72,7.54-3,5.34,5.85,4.88,8.71,4.63,1.85-.16,2.77-2.5.38-2.29-1.54.14-3.67.5-5.15,0-1.66-.56-.79-2.06.08-3a25.52,25.52,0,0,1,7.17-5.06c2.11-1.1.2-2.66-1.47-1.79Z"/><path d="M291.69,186.7a9.16,9.16,0,0,1-1.14.22,8.6,8.6,0,0,1-1.24,0,5.1,5.1,0,0,1-.95-.16,4,4,0,0,1-2.24-2.28,6.93,6.93,0,0,1-.38-1.14,2.69,2.69,0,0,1,.07-1.46c.06-.15,0-.12.07,0a6,6,0,0,0,.62.41,7.26,7.26,0,0,1,1.75,1.25.49.49,0,0,0,.37.21l.21,0a.64.64,0,0,1,.24,0,3.07,3.07,0,0,0,.58.09,4.16,4.16,0,0,0,.71,0,4.86,4.86,0,0,0,1-.12,6.72,6.72,0,0,0,1.54-.44,3.19,3.19,0,0,0,.55-.29,3.87,3.87,0,0,1,.59-.25l.28-.09a3.57,3.57,0,0,1,.62-.06l.05,0a1.59,1.59,0,0,0-.16.4c-.18.41-.32.9-.5,1.38a4.47,4.47,0,0,1-.81,1.19,5.09,5.09,0,0,1-1.78,1.22Z"/><path class="cls-4" d="M292.36,136.4a14.51,14.51,0,0,0,1.91-.28,5.51,5.51,0,0,0,.76-.19,5.71,5.71,0,0,1,.65-.21,3,3,0,0,1,.88-.13,5.13,5.13,0,0,1,1.3.09,2,2,0,0,0,.8.17c.25,0,.46,0,.53.06a2,2,0,0,1,1.1,0,2,2,0,0,1,1,.75c.32.53.79.29,1.21,0,.85-.64.86-.62,1.16-1.13s.28-.52.28-.52a4.25,4.25,0,0,1-1.15-.8l-1.32-.76a13.46,13.46,0,0,0-1.74-.66,11.63,11.63,0,0,0-4.08-.33,15.44,15.44,0,0,0-3.59.83,8.68,8.68,0,0,0-2,.79c-.46.09-.89.72-1.32.84-.74.19-.92.28-.34,1.18.23.48.59.91.71.88.39.49.48.47.84.23A4.78,4.78,0,0,1,292.36,136.4Z"/><path class="cls-4" d="M314.46,138.74c.93.17,1.74.28,2.32.37l.93.11s.27,0,.81.08a5.15,5.15,0,0,1,2.34,1.09c.42.53,1.15.85,1.25,1.06a2.94,2.94,0,0,1,1.7,2.3c.09.77.6.86,1.13.81,1.05-.11,1.05-.1,1.56-.42s.5-.34.5-.34a9.59,9.59,0,0,1-.67-1.47,11.92,11.92,0,0,0-2.2-3.34,10.19,10.19,0,0,0-4.28-2.68,13.78,13.78,0,0,0-4.51-.62,10.62,10.62,0,0,0-2.62.15c-.54-.05-1.28.44-1.79.42s-.68,0-.65.05-.07.35-.1.86-.19,1.15.11,1.16c.18.62.45.62,1,.5A7.36,7.36,0,0,1,314.46,138.74Z"/><path class="cls-2" d="M259.69,100.28a23,23,0,0,0,2.07,8.53,39.28,39.28,0,0,0,4.19,7.54,27.94,27.94,0,0,0,5.9,6.14,31.13,31.13,0,0,0,7.76,4.17,17.28,17.28,0,0,1-9-2.2,21,21,0,0,1-7.06-6.36,25.4,25.4,0,0,1-4-8.56,21.67,21.67,0,0,1-.68-4.66A11,11,0,0,1,259.69,100.28Z"/><path class="cls-2" d="M339.68,116.75a3.78,3.78,0,0,1,.35-2.5,6.2,6.2,0,0,1,.72-1.11,8.87,8.87,0,0,1,.91-.93,10.77,10.77,0,0,1,4.59-2.21,12.45,12.45,0,0,1,5.05-.08,8.91,8.91,0,0,1,4.46,2.14,19.84,19.84,0,0,0-4.62-.59,20.54,20.54,0,0,0-4.44.48,15.18,15.18,0,0,0-4.13,1.53A5.85,5.85,0,0,0,339.68,116.75Z"/><path class="cls-2" d="M84.52,434c-3.86-2.76,4.59-5.1,7.85-5.87,1,3.05,2.64,5.68,5.52,5.68a5.35,5.35,0,0,0,5.46-1.67C105.09,437,87.68,436.25,84.52,434Z"/><path class="cls-2" d="M144.05,431.62c.46,4.36-15.88,3.55-18.93,1.38-4-2.82,5-5.21,8-5.93.91,2.76,2.66,5.5,6,5.87A5.29,5.29,0,0,0,144.05,431.62Z"/><path class="cls-2" d="M73.45,381c0-1.16.26-2.31.38-3.46s.36-2.29.66-3.41a44.42,44.42,0,0,1,2.05-6.65,41.56,41.56,0,0,1,3.13-6.26A35.76,35.76,0,0,1,84,355.63a26.82,26.82,0,0,1,5.64-4.38c.53-.28,1-.59,1.59-.85l2-.84a1.66,1.66,0,0,1,.35-.13l.37.07.74.15.82.16,1.62.3c4.34.77,8.71,1.38,13.08,1.87a165,165,0,0,0,19.22.94l2.63,0c.88,0,1.75-.09,2.63-.14s1.75-.08,2.62-.15l2.6-.28c1.75-.13,3.45-.49,5.17-.76a23.86,23.86,0,0,0,2.54-.54l2-.49,1.3-1.91c.56-.8,1.12-1.58,1.71-2.35,1.17-1.55,2.38-3.07,3.69-4.52a37.91,37.91,0,0,1,4.27-4.12,11.75,11.75,0,0,1,5.77-2.78,5.74,5.74,0,0,1,1.88.13c.31.08.59.24,1,.35a1.74,1.74,0,0,1,.9.6,3.41,3.41,0,0,1,.58.95c.07.16.12.37.18.56a2.58,2.58,0,0,1,.1.46c0,.28.09.57.12.84l0,.8a29.89,29.89,0,0,1-.68,5.92c-.37,1.91-.82,3.79-1.33,5.64-.26.93-.5,1.86-.78,2.78l-.71,2.35.4,1.08a113.44,113.44,0,0,1,4.24,14.79,80.7,80.7,0,0,1,1.88,15.25,46.74,46.74,0,0,1-.81,9.92,30,30,0,0,1-3.49,9.47,23.3,23.3,0,0,1-7,7.43,28.29,28.29,0,0,1-9.34,3.81c-4.12.75-3.59-.2-.49-1.68,1.54-.76,3.65-1.86,6-3.31a27.83,27.83,0,0,0,6.64-6.29,8.39,8.39,0,0,0,.86-1.25l.79-1.29.66-1.38.34-.69.26-.73.54-1.45.42-1.5c.31-1,.45-2.05.67-3.07a52.15,52.15,0,0,0,.34-12.81,89.17,89.17,0,0,0-2.15-12.91q-.78-3.21-1.73-6.37c-.32-1.05-.66-2.1-1-3.14l-.54-1.55-.28-.77-.55-1.4,1.12-3.71c.31-1,.57-2,.86-3,.54-2,1-4.06,1.38-6.08a24.46,24.46,0,0,0,.38-3l0-.73v-.67a5.67,5.67,0,0,0-.06-.62,1.43,1.43,0,0,0,0-.26s0,0,0,0a.29.29,0,0,0-.22-.23,1.36,1.36,0,0,0-.37-.11,1.59,1.59,0,0,0-.45-.05,5.12,5.12,0,0,0-2.29.69,27.05,27.05,0,0,0-6.92,6.16c-1.06,1.23-2.07,2.52-3,3.84-.49.67-1,1.34-1.44,2l-.69,1-.43.65-.56.89-4.1,1a15.55,15.55,0,0,1-1.8.38l-1.81.31-1.81.32-1.82.2c-1.22.12-2.43.31-3.65.37a126.64,126.64,0,0,1-14.57.22,197,197,0,0,1-26.87-3.08l-.83-.16-.23-.05c-.05,0-.11,0-.16,0l-1.15.49c-.48.2-.92.5-1.39.74a11,11,0,0,0-1.34.83A23.19,23.19,0,0,0,85.22,359a34.06,34.06,0,0,0-6.34,11.21A44.13,44.13,0,0,0,77,378a48,48,0,0,0-.47,8,42.23,42.23,0,0,0,1,8,39.46,39.46,0,0,0,2.4,7.67,40.29,40.29,0,0,0,4.94,8.56,23.78,23.78,0,0,0,1.56,1.92c.55.61,1.06,1.26,1.67,1.82s1.15,1.17,1.78,1.71L92,417.59c0,.51,0,1.13,0,1.52l.07,1.07c0,.71.12,1.43.21,2.13a28.24,28.24,0,0,0,.84,4.15,11.78,11.78,0,0,0,1.67,3.66,3.7,3.7,0,0,0,2.93,1.74,3.85,3.85,0,0,1,.49.07,4.52,4.52,0,0,0,2.42-.11,4.45,4.45,0,0,0,2-1.37,11.66,11.66,0,0,0,.73-1.06c.18-.41.39-.79.55-1.21l.4-1.31.26-1.37a9.71,9.71,0,0,0,.16-1.32l.12-1.42c0-.67,0-1.33,0-2v-1.85l0-.06c.78.28,1.6.59,2.39.82.4.12.79.26,1.19.35l.89.23c1.07.24,2.15.45,3.23.61a38.43,38.43,0,0,0,6.51.43,34.46,34.46,0,0,0,6.43-.66,29.66,29.66,0,0,0,3.16-.77c.39-.08,1.35-.44,2.16-.72l1.25-.44.63-.22.31-.11.16-.05h.11l.11,2.47c0,.42.08.79.12,1.19,0,.19,0,.42.07.57l.06.35a17.87,17.87,0,0,0,.68,2.66,9.55,9.55,0,0,0,1.73,3.2,4.8,4.8,0,0,0,2.71,1.62l.45.1h.06l.18,0a3.82,3.82,0,0,0,.59.07,3.62,3.62,0,0,0,.66,0c.21,0,.4-.08.6-.1l.54-.19a4.12,4.12,0,0,0,1.59-1.32,9.84,9.84,0,0,0,.52-.86c.14-.3.27-.6.39-.87.17-.62.4-1.15.5-1.68s.22-1,.34-1.44.14-.85.22-1.21c.19-.74.34-1.34.51-1.89a11.33,11.33,0,0,1,.52-1.51c.3-.53.64.25,1,2.21a13.38,13.38,0,0,1,.13,1.69c0,.32,0,.66,0,1s0,.74-.08,1.13a10.26,10.26,0,0,1-1.86,5.46,6.65,6.65,0,0,1-3.08,2.29,3.88,3.88,0,0,1-.94.27,5.38,5.38,0,0,1-1,.13,7.85,7.85,0,0,1-1,0,7.33,7.33,0,0,1-1.07-.16l.28.05a8.19,8.19,0,0,1-4.29-1.82,10.69,10.69,0,0,1-2.62-3.56,17.24,17.24,0,0,1-1.32-3.94c-.1-.53-.2-1.05-.31-1.58,0,0-.13.05-.18.07s.12,0-.66.2a32.93,32.93,0,0,1-3.36.81,37.34,37.34,0,0,1-7,.7,41.6,41.6,0,0,1-7-.49c-1.16-.18-2.33-.41-3.49-.68l-.66-.16h0v0h0v-.09h0v.11l0,.29-.11,1.17a19.63,19.63,0,0,1-1.06,4.77,9.54,9.54,0,0,1-3.38,4.47,8.6,8.6,0,0,1-1.37.74,8.74,8.74,0,0,1-1.5.4,7.55,7.55,0,0,1-3.06-.1h-.15l-.25,0a4,4,0,0,1-.5-.08,5.17,5.17,0,0,1-1-.29,6.86,6.86,0,0,1-1.76-1,9.18,9.18,0,0,1-2.27-2.76,20.59,20.59,0,0,1-2.11-6.39c-.19-1.06-.33-2.11-.43-3.17-.06-.53-.1-1.06-.13-1.59l0-.6v0h0l0,0-.25-.21-1-.89c-.69-.61-1.32-1.27-2-1.9a41.88,41.88,0,0,1-3.57-4.18,42.9,42.9,0,0,1-5.39-9.53A47.71,47.71,0,0,1,73.37,381Z"/><path class="cls-2" d="M383.16,389.2c4.61-.66,9.2-1.44,13.72-2.47a75,75,0,0,0,13.1-4.12l1.55-.69,1.48-.79a30.8,30.8,0,0,0,2.82-1.73c.46-.3.85-.67,1.28-1a8.16,8.16,0,0,0,1.19-1.07c.36-.38.76-.78,1.08-1.14l.31-.47c.09-.2.17-.39.27-.59a15.28,15.28,0,0,0,.41-6.2,52.75,52.75,0,0,0-1.15-6.72,161.71,161.71,0,0,0-6.3-19.35c-4.28-11.24-9.19-22.27-14.32-33.19S388,288,382.45,277.24c-5-9.5-10.16-18.95-15.51-28.13-.86-1.47-1.73-2.94-2.61-4.39a39.13,39.13,0,0,0-2.76-4.17,30.2,30.2,0,0,0-16-11,48.84,48.84,0,0,0-9.82-1.68c-4.16-.24-3.67-1,0-1.74a28.48,28.48,0,0,1,7.72-.16,27.56,27.56,0,0,1,10.71,3.43,33,33,0,0,1,8.59,7.13c.63.68,1.16,1.43,1.74,2.16.14.19.28.35.42.56s.3.42.42.61l.73,1.16c.94,1.52,1.83,3,2.71,4.55,3.53,6.07,6.91,12.2,10.24,18.38,6.63,12.35,13,24.88,19,37.63,3.6,7.64,7.26,15.43,10.77,23.36s6.89,16,9.71,24.19a119.59,119.59,0,0,1,4,13.82,46.83,46.83,0,0,1,1,7.26,18.89,18.89,0,0,1-.16,3.81,8.58,8.58,0,0,1-1.48,3.9,4.62,4.62,0,0,1-.66.76l-.66.69-.66.69-.73.59c-.49.4-1,.81-1.47,1.18l-1.56,1a15.07,15.07,0,0,1-1.59.94l-1.63.86c-1.11.5-2.21,1-3.34,1.47a88.37,88.37,0,0,1-13.83,4c-11.52,2.44-23.19,3.58-34.81,4.61-8.8.78-17.64,1.37-26.39,2.34a87.8,87.8,0,0,0-12.87,2.21,18.24,18.24,0,0,0-2.93,1.09c-.95.43-2,1-2.95,1.48-2,1-4,1.86-6.1,2.68a133,133,0,0,1-19.59,5.81c-1.65.37-3.31.72-5,1s-3.25.71-4.9,1.07-3.31.71-5,1c-.84.16-1.68.3-2.53.43l-1.28.18-.33,0-.5.05c-.33,0-.68.08-1,.09a14.07,14.07,0,0,1-3.28-.07,4.91,4.91,0,0,1-2.24-.85,2.2,2.2,0,0,1-.72-.92,1.65,1.65,0,0,1-.12-.66,1.07,1.07,0,0,1,0-.31,2.07,2.07,0,0,1,.08-.2,3.05,3.05,0,0,1,.49-.74,4,4,0,0,1,.82-.84,20.6,20.6,0,0,1,2.69-1.51l2.38-1.14,2.91-1.33c1.77-.78,3.21-1.38,4.42-1.83a17.7,17.7,0,0,1,5.14-1.33,10.41,10.41,0,0,1,1.68-.08c1.23.2-2.72,2.41-10,6l-2,1c-.61.3-1.58.78-1.52.77a7,7,0,0,0-.8.52c-.14.08,0,.31.21.31a1.69,1.69,0,0,0,.5,0l.41-.06.09,0,.36-.05,1.1-.16c3-.46,6-1.11,9-1.78s6.13-1.23,9.16-1.94a124,124,0,0,0,17.83-5.25,77.93,77.93,0,0,0,8.42-3.84c.3-.17.79-.38,1.2-.57a10.18,10.18,0,0,1,1.26-.52c.82-.28,1.66-.57,2.47-.76s1.63-.42,2.43-.58,1.62-.34,2.43-.47c4.78-.82,9.53-1.31,14.27-1.77s9.48-.82,14.21-1.22c9.45-.79,18.89-1.61,28.2-3Z"/></g></svg>