<svg xmlns="http://www.w3.org/2000/svg" width="520" height="520" viewBox="0 0 520 520"><defs><style>.cls-1{fill:#231f20;}</style></defs><title>Notioly New</title><g id="_140.Balance" data-name="140.Balance"><path class="cls-1" d="M458.85,403.67a24.92,24.92,0,0,0,18.45-7.45c.95-1,.84,3.58.91,4.07.85,5.9.35,11.84.49,17.78,0,.7,2.13,6.33,3.12,4.56s.93-34.19-.34-36.55l-6.72,8c-.45.53-1.65,2.77-2.24,3.11Z"/><polygon class="cls-1" points="248.01 422.97 281.83 428.25 279.37 419.83 249.12 417.31 248.01 422.97"/><path class="cls-1" d="M386.7,425.88a6,6,0,0,1-.89-.65,3.24,3.24,0,0,1-.31-.24,6.44,6.44,0,0,1-.85-1c-.12-.17-.24-.32-.36-.47a1.47,1.47,0,0,1-.37-.67c0-.16.72-.35.89-.19a4.29,4.29,0,0,1,.85,1,2.21,2.21,0,0,0,.59.59,7.34,7.34,0,0,0,.73.55,3.36,3.36,0,0,0,.49.27,2.3,2.3,0,0,0,.8.2,1.18,1.18,0,0,0,.56-.2l.11-.06c.13-.08.23.05.37.25l.11.15a.47.47,0,0,1,0,.53,1.78,1.78,0,0,1-1.6.38,3.67,3.67,0,0,1-1.11-.4Z"/><path class="cls-1" d="M405.41,415.84a27.71,27.71,0,0,1-2.82-1.44,9.84,9.84,0,0,1-1-.58,22.25,22.25,0,0,1-3.13-2.58c-.43-.42-.86-.83-1.25-1.28a8.72,8.72,0,0,1-1.4-1.79c-.25-.4.67-.32,1.25.26s1.05,1,1.59,1.54c.28.24.54.5.81.76l.83.74a13,13,0,0,0,2.28,1.5,27.53,27.53,0,0,0,2.69,1.41c.57.25,1.15.51,1.74.72.89.34,1.8.64,2.71.9.72.19,1.44.31,2.16.47a3.94,3.94,0,0,1,.47.1c.59.17.75.33.79.63a1.62,1.62,0,0,1,0,.2c0,.22-.3.32-.74.3a20.46,20.46,0,0,1-4.05-.73,28.76,28.76,0,0,1-3-1.1Z"/><path class="cls-1" d="M388.87,401.2a11.37,11.37,0,0,1-1.79-.68c-.21-.09-.43-.17-.63-.28a15.66,15.66,0,0,1-2-1.33l-.86-.62a4.23,4.23,0,0,1-1-.9c-.18-.22.51-.43.9-.16.71.5,1.43.95,2.16,1.42a6.73,6.73,0,0,0,1.45.64c.55.19,1.1.38,1.66.54a9.56,9.56,0,0,0,1.06.24,8.19,8.19,0,0,0,1.63.16,12.53,12.53,0,0,0,1.25-.2L393,400a.56.56,0,0,1,.37.11,1,1,0,0,1,.21.32c0,.06,0,.11.07.16a.36.36,0,0,1,0,.28.69.69,0,0,1-.27.32,3.86,3.86,0,0,1-2.52.42,11.36,11.36,0,0,1-1.92-.34Z"/><path class="cls-1" d="M442.94,391.55l5.29-9.08,1.88-3.34c2.27-3.88,4.51-7.78,6.57-11.76.92-1.77,1.77-3.58,2.57-5.39l1.5-3.5a22.68,22.68,0,0,1,1.68-3.43c.42-.69.43-.58.41.14a8.67,8.67,0,0,1-.51,3.44,100.17,100.17,0,0,1-6.86,14.14c-1.57,2.73-3.08,5.63-4.66,8.43l-5.22,9.21-3.26,5.64c-1.66,2.85-3.41,5.66-5.22,8.41-1.41,2.12-2.77,4.24-4.39,6.22-.37.42-.7.86-1.09,1.27-1.47,1.53-2.1,1.85-2.71,1.82a1.71,1.71,0,0,1-.41,0c-.36-.12.08-.88,1.05-2a101.47,101.47,0,0,0,7.92-11.18c1.84-3,3.66-6,5.42-9Z"/><path class="cls-1" d="M422.39,325.72a22.38,22.38,0,0,1,2,1,7.24,7.24,0,0,1,.73.38,13.51,13.51,0,0,1,2.23,1.89l.91.9.56.59a3.59,3.59,0,0,1,.42.71c.13.31-1,.6-1.4.21-.68-.73-1.39-1.38-2.12-2.09a7.44,7.44,0,0,0-1.57-1,20.34,20.34,0,0,0-1.87-.93c-.4-.17-.81-.33-1.22-.48-.62-.21-1.25-.44-1.9-.59s-1-.12-1.52-.21c-.11,0-.22,0-.34-.05-.4-.1-.51-.23-.53-.59a2.09,2.09,0,0,1,0-.25c0-.27.23-.45.56-.49a7.92,7.92,0,0,1,1.46,0,12.09,12.09,0,0,1,1.46.27,16.12,16.12,0,0,1,2.13.71Z"/><path class="cls-1" d="M442.66,329.17c-.75.19-1.49.42-2.23.68-.27.09-.52.23-.79.32-.95.34-1.9.69-2.84,1.09-.41.18-.81.39-1.2.6a7.76,7.76,0,0,1-1.56.76c-.35.1-.37-.95.2-1.28a20.1,20.1,0,0,1,3.22-1.5c.68-.23,1.33-.6,2-.87s1.51-.57,2.28-.82c.48-.14,1-.29,1.45-.4.73-.21,1.48-.33,2.23-.47.58-.1,1.15-.25,1.76-.3a2.58,2.58,0,0,1,.39,0c.51,0,.66.15.71.5a2.08,2.08,0,0,1,0,.23c0,.26-.21.46-.53.53-.94.2-1.9.27-2.9.47-.74.16-1.49.31-2.23.53Z"/><path class="cls-1" d="M411.91,222.64c-.67.48-7.24,3.87-6.87,10.49s2.38,15.55,12.06,19.79,14.31,4.65,15.31,4.65-1.31,10.47,1.17,10.95,6.26-4.06,8.38-6.45,8-.18,8.6,3.93v1.57s5.38,1.51,9.09-7.64,5.52-16.19-9.84-31c0,0-11.46-12.36-24.38-10.68S411.91,222.64,411.91,222.64Z"/><path class="cls-1" d="M404.94,236.63c0-1.74-17.56-15.32-31,.47-4.38,5.16-7.12,13.84-4.26,21.58,2.69,7.29,12.78,6.53,18.43,4.3,7.19-2.83,15.27-9.91,17.5-17.43a4.88,4.88,0,0,0,.38-1.66Z"/><path class="cls-1" d="M128.05,388.42s-.1,4.85,2.38,6.48,15.94,5.49,17.78,4.74-4.42-5.47-6.77-6.91-9.7-5.48-9.7-5.48l-4,.11Z"/><path class="cls-1" d="M121.82,388.42a9.31,9.31,0,0,1,1.06-.74,4.76,4.76,0,0,1,2.43-.81c1.59,0,3.24.8,2.24,1.55s-4.15,6.94-9.62,7.58-14.12-1.9-14.12-1.9,4.22-3.07,8.59-3.38A37.55,37.55,0,0,0,121.82,388.42Z"/><path class="cls-1" d="M128.55,386.43l-4.68.63-12.94-56.17,16.23-2.37C126.76,343.84,126.56,371.94,128.55,386.43Z"/><path class="cls-1" d="M144.54,326l-10.62,61.69-4.83-1s-1.54-41.93,0-58.2Z"/><path class="cls-1" d="M161.39,247.5c-.53-.34-1-.72-1.53-1.1-.18-.14-.38-.25-.56-.39-.62-.52-1.23-1-1.82-1.59l-.76-.77a2.19,2.19,0,0,1-.83-1.2c0-.21.15-.13.33-.07a2.9,2.9,0,0,1,.28.09.7.7,0,0,1,.25.16c.12.14.3.28.45.43s.35.24.54.36a6.69,6.69,0,0,1,1,.82,9.26,9.26,0,0,0,1.36.92l1.55,1c.31.2.63.4,1,.58.49.29,1,.56,1.51.8a10.63,10.63,0,0,0,1.24.42,2.76,2.76,0,0,1,.27.08c.33.14.39.28.34.6a1.66,1.66,0,0,1,0,.22.51.51,0,0,1-.56.35,7.17,7.17,0,0,1-2.41-.7c-.56-.28-1.1-.62-1.64-.94Z"/><path class="cls-1" d="M61.75,252.29l-1.8-.78c-.22-.1-.46-.15-.67-.26a17.34,17.34,0,0,1-2.23-1.31,10.47,10.47,0,0,1-.95-.73,1.7,1.7,0,0,1-.75-1.53c0-.21.33-.13.63,0s.63.09.72.17a5.09,5.09,0,0,0,.8.62l1,.78a6.49,6.49,0,0,0,1.53.71c.58.25,1.17.49,1.76.71l1.11.41a17.08,17.08,0,0,0,1.71.56c.45.12.91.14,1.37.25l.3.06c.37.12.46.27.42.63a2,2,0,0,1,0,.24.58.58,0,0,1-.56.45,7.71,7.71,0,0,1-1.27,0c-.42-.07-.84-.17-1.26-.28-.62-.17-1.24-.36-1.86-.58Z"/><path class="cls-1" d="M129.81,175.75c.57-.56,1.14-1.12,1.74-1.65.22-.2.4-.43.62-.62.76-.7,1.5-1.41,2.2-2.17a6.92,6.92,0,0,0,.81-1.08c.32-.49.54-1,.86-1.44.11-.14.36-.06.56.18a1.06,1.06,0,0,1,.23,1,7.89,7.89,0,0,1-2.16,3.15c-.57.5-1,1.13-1.56,1.68a19.63,19.63,0,0,1-1.87,1.66c-.41.31-.79.66-1.18,1l-1.77,1.5c-.45.39-.86.82-1.33,1.21-.11.08-.2.18-.31.26-.43.26-.65.2-.91,0a1.29,1.29,0,0,1-.17-.16c-.16-.19-.11-.48.08-.79a12.5,12.5,0,0,1,2.25-2.23c.62-.5,1.27-1,1.88-1.52Z"/><path class="cls-1" d="M103.38,181.81c-1-.49-2.09-1-3.12-1.57-.38-.2-.77-.37-1.13-.59-.65-.38-1.27-.82-1.89-1.25s-1.19-.94-1.74-1.46-1-.9-1.47-1.36l-.84-1a9.25,9.25,0,0,1-.67-1.08c-.13-.24,0-.3.32-.24a2.42,2.42,0,0,1,1,.53l.94.77c.32.25.67.46,1,.73l1.92,1.5a16.85,16.85,0,0,0,2.61,1.53c1,.53,2,1,3,1.48.64.28,1.28.56,1.93.82,1,.39,2,.78,3,1.09.78.25,1.59.36,2.39.56a4.94,4.94,0,0,1,.52.13c.65.18.78.47.8.86a1.34,1.34,0,0,1,0,.28c0,.29-.37.46-.89.49a17.67,17.67,0,0,1-4.46-1c-1.1-.37-2.2-.77-3.28-1.23Z"/><path class="cls-1" d="M131.89,86.93c3.45-2.53,6-6.22,6.11-10.41.25-7-7.1-15.16-18.9-15.79a30.91,30.91,0,0,0-20,6.23s-5.94-6.73-12-6.27S71,62.41,65.45,72.52s-14,19.15-16.52,39.79C46,136.1,31.35,155.07,34.78,163.12c1.55,3.64,10.6-6.14,10.6-6.14s-.87,10.28,2.76,10.07,13.49-11.12,13.49-11.12-2.88,9.62.59,11.12c2.92,1.27,13.08-.55,27.81-11.12l7.41-2.64s9,8.45,17.19,7.34a14.82,14.82,0,0,0,11.26-7.34s7.49,5.88,10.14,5-1.51-8.32-1.7-8.68l2.56,1.94s10.83,6.74,10.83-1.53C147.72,139.89,131.89,86.93,131.89,86.93Zm-4,44.62c-4.32,6-9.36,11.94-17.61,10.56a55,55,0,0,1-13.13-3.64,26.67,26.67,0,0,1-15.28-19.83h0s-12.16.08-13.45-8.28c0,0,.24-8.16,6.11-8.26,4.92-.08,5.4,1.56,5.43,2.09,0-.62.2-2.92,1.77-3.23,0,0,5.71-4.77,7.39-9.07,0,0,6-7.45,6.72-15.36a26.19,26.19,0,0,1,4.34,2.82c2.15,1.74,17.18,12,24,10.92a16.29,16.29,0,0,0,2.52-.63,64.35,64.35,0,0,1,3.25,14.52C130.62,112.75,132.18,125.53,127.85,131.55Z"/><path class="cls-1" d="M111.09,141.07a20,20,0,0,0,13.22-5.93,15.91,15.91,0,0,0,3-4.42,22.67,22.67,0,0,0,1.63-4.56,33.69,33.69,0,0,0,.88-4.83,56.94,56.94,0,0,0,.27-10,81.42,81.42,0,0,0-1-8.83c-.61-3.73-1.44-7.45-2.29-11.12-.3-1.11,0-1.08.58-.21a16.83,16.83,0,0,1,2.08,4.71,72.17,72.17,0,0,1,2.22,11.58,62.1,62.1,0,0,1,.23,11.89,49.17,49.17,0,0,1-1.09,7.23,23.69,23.69,0,0,1-2.75,7,21.33,21.33,0,0,1-13.31,9.05,24.67,24.67,0,0,1-10,.08A28.41,28.41,0,0,1,91.48,136a33.5,33.5,0,0,1-7.18-9,24,24,0,0,1-1.15-2.26c-1.28-2.9-1.27-4-1-4.75a3.29,3.29,0,0,1,.21-.52c.32-.4,1,.72,1.91,2.71a36.87,36.87,0,0,0,5.12,8.46,29.13,29.13,0,0,0,7.45,6.67,24.19,24.19,0,0,0,14.23,3.7Z"/><path class="cls-1" d="M70.85,105.45a6.57,6.57,0,0,0-1.26,5.17,6.73,6.73,0,0,0,.71,1.9A10.21,10.21,0,0,0,76,117.34a9.64,9.64,0,0,0,3.4.57,10.56,10.56,0,0,0,2.17-.27,15.36,15.36,0,0,0,2.16-.51c.45-.13.57.17.34.68a2.75,2.75,0,0,1-.6.86,3.44,3.44,0,0,1-1.16.79,11.11,11.11,0,0,1-5.31.28,11.74,11.74,0,0,1-4.8-2.19,12.46,12.46,0,0,1-4.17-4.9,8.19,8.19,0,0,1,.36-7,11.73,11.73,0,0,1,1.18-1.81,9,9,0,0,1,1.58-1.57,5.36,5.36,0,0,1,3.31-.73,10.64,10.64,0,0,1,3.13.77A12,12,0,0,1,81.65,105a6,6,0,0,1,.72.86c.77,1.18.73,1.73.39,2.13a1.55,1.55,0,0,1-.25.26c-.33.21-.73-.19-1.19-.85a9.6,9.6,0,0,0-2.75-2.51,9.32,9.32,0,0,0-3.51-1.35,4.4,4.4,0,0,0-2.43.19,4.64,4.64,0,0,0-.44.26l-.18.16a.7.7,0,0,0-.22.21,10.62,10.62,0,0,0-.89,1.14Z"/><path class="cls-1" d="M80.67,99.44A2.17,2.17,0,0,0,83,99.35a11.11,11.11,0,0,0,2.62-2.16c.57-.64,1.08-1.36,1.6-2.07A51.18,51.18,0,0,0,92,87a40.88,40.88,0,0,0,1.59-3.9c.59-1.69,1.12-3.41,1.63-5.08.15-.52.47-.42.72.12a4,4,0,0,1,.13,2.56A32.57,32.57,0,0,1,94.26,86a45.85,45.85,0,0,1-2.56,5A61.71,61.71,0,0,1,88,97a20.3,20.3,0,0,1-2.61,2.9,6.87,6.87,0,0,1-3.75,1.87,3.88,3.88,0,0,1-2.66-.87,7.05,7.05,0,0,1-.91-.9,8.87,8.87,0,0,1-.76-1A13.4,13.4,0,0,1,75.2,92a35.45,35.45,0,0,1,.09-5.46,7.78,7.78,0,0,1,.14-1.17c.28-1.45.49-1.89.85-2.16l.22-.18c.22-.11.38.52.42,1.6.1,1.61,0,3.22.06,4.82a21.18,21.18,0,0,0,.6,4.63,9.92,9.92,0,0,0,1.18,3,4.83,4.83,0,0,0,.44.67,4.32,4.32,0,0,0,.5.63,7.33,7.33,0,0,0,.54.56,2.6,2.6,0,0,0,.45.38Z"/><path class="cls-1" d="M137.41,65.79c.48.54.88,1.15,1.32,1.72s.79,1.21,1.12,1.84a15.42,15.42,0,0,1,1.67,4.13,13.69,13.69,0,0,1-1.14,8.71,15.3,15.3,0,0,1-3.8,5.07A14.64,14.64,0,0,1,131.75,90l-1.31.45c-.43.14-.89.2-1.34.3s-.89.18-1.34.25l-1.37.11a26.89,26.89,0,0,1-10.55-1.66,46.54,46.54,0,0,1-8.45-4A36,36,0,0,1,98.1,78c-.81-.93-.61-.89.34-.4.47.26,1.22.51,2,1s1.66,1,2.58,1.6a58,58,0,0,0,10.1,5.91,30,30,0,0,0,11.1,3,17.33,17.33,0,0,0,3.45-.13l1.71-.36a13.88,13.88,0,0,0,1.65-.55,13,13,0,0,0,5.57-4,13.3,13.3,0,0,0,2-3.21,13.14,13.14,0,0,0,.91-3.64,10.66,10.66,0,0,0-.34-3.69c-.1-.3-.17-.6-.28-.89l-.37-.86c-.3-.56-.62-1.14-1-1.7a20.36,20.36,0,0,0-6.71-6.76,23.72,23.72,0,0,0-14.12-3.21A27.78,27.78,0,0,0,106,63.28c-.73.38-1.41.8-2.09,1.24-1.29.81-2.09,1.38-2.7,1.75a3.23,3.23,0,0,1-1.48.55,4.54,4.54,0,0,1-.59.05c-.49,0,0-1.4,1.85-3.05a24.64,24.64,0,0,1,9.84-5.07,30,30,0,0,1,11.42-.88,23.47,23.47,0,0,1,15.24,7.87Z"/><path class="cls-1" d="M44.46,122.47c2.4-7.66,4.34-15.52,6.7-23.31.87-2.84,1.72-5.69,2.75-8.48a87.38,87.38,0,0,1,6.65-14.33A45.4,45.4,0,0,1,70.7,64.13a24.38,24.38,0,0,1,6.13-3.72,20,20,0,0,1,7.06-1.48,16.79,16.79,0,0,1,8.93,2.39,18.31,18.31,0,0,1,3.64,2.83c.55.54,1.05,1.1,1.55,1.67s.9,1.22,1.33,1.83c1,1.59.6,1.54-.73.64s-3.72-2.5-6.32-4.16a14.83,14.83,0,0,0-7.58-2.52,17.68,17.68,0,0,0-7.89,1.7A25,25,0,0,0,70,68.2a45.71,45.71,0,0,0-5.62,6.72c-4.06,5.82-6.82,12.83-9.17,19.77-2.58,7.66-4.56,15.56-6.83,23.41-1.39,4.83-2.91,9.65-4.71,14.36C41,139.67,37,146.29,34.27,153.22c-.53,1.34-1,2.7-1.42,4.07a13.18,13.18,0,0,0-.72,4,3.74,3.74,0,0,0,.34,1.65,1.1,1.1,0,0,0,1,.57A6.93,6.93,0,0,0,37,162.3,24.6,24.6,0,0,0,40,160.13c3.56-3,4.73-4.08,6-4.21a5.65,5.65,0,0,1,.77-.12c.56,0-.5,1.61-3,4.06a30.62,30.62,0,0,1-6.47,5,10.89,10.89,0,0,1-2.14.88,5.3,5.3,0,0,1-2.81,0,5.91,5.91,0,0,1-.8-.39,3.58,3.58,0,0,1-.69-.59,4,4,0,0,1-.81-1.41,7.33,7.33,0,0,1-.3-2.59,15,15,0,0,1,.31-2.27c.08-.36.17-.73.27-1.08l.31-1c.41-1.34.89-2.66,1.4-4,1-2.59,2.19-5.11,3.38-7.6,1.77-3.69,3.59-7.27,5.07-11s2.82-7.55,4-11.41Z"/><path class="cls-1" d="M54.42,166.1a22.44,22.44,0,0,1-4.9,3.38,8.16,8.16,0,0,1-2.2.75A4.54,4.54,0,0,1,45,170a3.15,3.15,0,0,1-1.64-1.76,9,9,0,0,1-.4-3.92,27.44,27.44,0,0,1,.48-3.29,16.49,16.49,0,0,1,.52-2,9.8,9.8,0,0,1,1-1.92c.27-.37.39-.21.45.21a7.26,7.26,0,0,1,.07,1.89c-.22,1.33-.51,2.65-.62,4a15.49,15.49,0,0,0-.09,3.83,1.69,1.69,0,0,0,.9,1.42,3.47,3.47,0,0,0,2-.12,14.81,14.81,0,0,0,4.57-2.78c.88-.73,1.73-1.52,2.54-2.34a46.41,46.41,0,0,0,3.51-3.91c.85-1.06,1.53-2.22,2.31-3.31.17-.24.32-.49.5-.73a5.89,5.89,0,0,1,.44-.54,1.67,1.67,0,0,1,.42-.29,1.25,1.25,0,0,1,.68-.14,2.66,2.66,0,0,1,.3,0c.26.06.22.59,0,1.42A24.74,24.74,0,0,1,61,158.94c-.75,1-1.57,2-2.42,3a50.34,50.34,0,0,1-4.1,4.17Z"/><path class="cls-1" d="M80,164.52a65.41,65.41,0,0,1-7.86,3.79c-1,.33-2,.82-3,1.07a20.54,20.54,0,0,1-2.8.61l-1.43.2c-.47.05-1,0-1.45,0a12,12,0,0,1-2.91-.23,6.17,6.17,0,0,1-2.82-1.31,4.33,4.33,0,0,1-1.28-2.56,7.56,7.56,0,0,1,.21-2.66,14.45,14.45,0,0,1,3-5.66c.41-.51.52-.33.45.27a15.34,15.34,0,0,1-.64,2.74c-.18.48-.3,1-.48,1.44a12.09,12.09,0,0,0-.42,1.38,6,6,0,0,0-.15,2.53,2.22,2.22,0,0,0,1.28,1.57,8,8,0,0,0,2.66.66,19,19,0,0,0,7.31-1.3,51.09,51.09,0,0,0,7.69-3.52c1.55-.83,3.07-1.72,4.59-2.62l6.86-4.2c1.77-1.09,3.48-2.23,5.36-3.19a10.53,10.53,0,0,1,1.28-.56c1.62-.68,2.33-.44,2.75-.11a2.47,2.47,0,0,1,.29.24c.1.14,0,.33-.25.55a3.58,3.58,0,0,1-1.18.72C93.91,156,90.69,158,87.44,160c-2.43,1.52-4.89,3.05-7.41,4.52Z"/><path class="cls-1" d="M148.05,141.8c-1.11-4.25-2.48-8.48-3.9-12.69l-1.64-4.58c-1.86-5.42-3.7-10.86-5.46-16.33-.77-2.42-1.59-4.85-2.31-7.29a39.25,39.25,0,0,1-1.91-9.63c0-1,.27-.91.7-.11a22.24,22.24,0,0,1,1.68,4c1.77,6.26,3.86,12.5,5.87,18.86,1.21,3.79,2.74,7.65,4.09,11.51,1.49,4.24,2.94,8.51,4.21,12.84.78,2.67,1.51,5.36,2,8.12a22.34,22.34,0,0,1,.46,6.46,5.33,5.33,0,0,1-1.37,3.25,5.08,5.08,0,0,1-3.23,1.42,10.18,10.18,0,0,1-5-1.28,32.89,32.89,0,0,1-4.2-2.56c-.58-.41-1.16-.8-1.72-1.23-2.1-1.6-2.59-2.15-2.7-3a3.15,3.15,0,0,1-.09-.58c0-.6,1.3-.4,2.93.71a77.11,77.11,0,0,0,7.1,4.66,7.65,7.65,0,0,0,3.48,1,2.91,2.91,0,0,0,1.38-.39,1.6,1.6,0,0,0,.31-.22l.15-.11.09-.1a1.72,1.72,0,0,0,.32-.51,7.21,7.21,0,0,0,.39-2.66,22.78,22.78,0,0,0-.29-3.14,57.3,57.3,0,0,0-1.42-6.42Z"/><path class="cls-1" d="M131.84,156.9a17.35,17.35,0,0,0,3.11,1.55,8.94,8.94,0,0,0,1.16.29,2.28,2.28,0,0,0,1.52,0c.2-.06.35-.85.32-1.52a10.59,10.59,0,0,0-.28-2c-.2-.84-.48-1.68-.64-2.52-.05-.24.23-.39.64-.3a1.71,1.71,0,0,1,1.18.89,11.63,11.63,0,0,1,1,2.79,7.94,7.94,0,0,1,.09,1.56,3.9,3.9,0,0,1-.46,1.86,4.4,4.4,0,0,1-.36.52,3.14,3.14,0,0,1-2.08.84,6.24,6.24,0,0,1-1.77-.2,17.63,17.63,0,0,1-3.64-1.51,22.25,22.25,0,0,1-2-1.25c-1-.67-1.92-1.44-2.83-2.19a27.55,27.55,0,0,1-2.1-1.79,5.93,5.93,0,0,1-.44-.43c-.48-.6-.41-1-.19-1.32.06-.08.1-.18.16-.25.2-.22.61-.15,1.1.1,1.3.88,2.52,1.84,3.74,2.83a24.59,24.59,0,0,0,2.88,2Z"/><path class="cls-1" d="M105.46,160.09c-.94-.5-1.86-1-2.77-1.55-.33-.18-.68-.33-1-.53-1.15-.71-2.25-1.51-3.36-2.28-.49-.34-1-.65-1.5-1A5.61,5.61,0,0,1,95,153.24c-.16-.23.13-.38.5-.46a2.68,2.68,0,0,1,.56-.07,1,1,0,0,1,.57.15c1.22.77,2.54,1.5,3.79,2.38a20.67,20.67,0,0,0,2.47,1.3c.91.47,1.82.94,2.75,1.38.57.27,1.15.52,1.73.77a23.72,23.72,0,0,0,2.68.95,10.31,10.31,0,0,0,2.13.2h.46c.55,0,.7.19.81.78,0,.14.06.27.07.41a.8.8,0,0,1-.73.9,8.77,8.77,0,0,1-4.37-.52,27.05,27.05,0,0,1-3-1.27Z"/><path class="cls-1" d="M112.24,175.28c.25-1.21.48-2.43.61-3.65.07-.44.05-.89.09-1.34a28.73,28.73,0,0,0,.11-4.73,12.06,12.06,0,0,0-.33-2.07,20.53,20.53,0,0,1-.63-2.6c-.06-.58,1.56-.38,1.93.69a15.3,15.3,0,0,1,.75,5.78c-.08,1.16,0,2.36-.1,3.54s-.3,2.57-.52,3.83c-.14.78-.3,1.55-.45,2.32-.23,1.17-.51,2.32-.7,3.48a24.38,24.38,0,0,0-.21,2.67,5.56,5.56,0,0,1,0,.58c0,.71-.22.91-.69,1.05l-.31.09c-.31.06-.65-.26-.74-.84a18.26,18.26,0,0,1,.43-5.11c.24-1.24.51-2.47.73-3.69Z"/><path class="cls-1" d="M102.82,180.1c-1.19-.56-2.35-1.2-3.49-1.87-.42-.24-.85-.47-1.26-.73a19.42,19.42,0,0,1-3.83-3.41c-.49-.57-1-1.13-1.44-1.74-.26-.4-.55-.78-.8-1.2s-.41-.87-.58-1.31c-.1-.28.1-.33.42-.23a2.68,2.68,0,0,1,1.12.73c.6.68,1.26,1.29,1.89,1.92a12,12,0,0,0,1,.94c.31.32.63.64,1,.94A13.47,13.47,0,0,0,99.54,176c1.06.64,2.18,1.21,3.32,1.76.71.31,1.42.64,2.14.93,1.1.45,2.22.9,3.35,1.25.88.27,1.79.4,2.69.63.19.06.39.09.58.15.73.23.87.56.88,1a1.82,1.82,0,0,1,0,.33c0,.33-.44.53-1,.56a20.28,20.28,0,0,1-5-1.11c-1.23-.41-2.47-.87-3.68-1.41Z"/><path class="cls-1" d="M119.11,174.82a29.53,29.53,0,0,1-1-3.55c-.12-.43-.24-.84-.32-1.28-.26-1.53-.44-3.06-.64-4.57-.09-.67-.22-1.33-.35-2a16.76,16.76,0,0,1-.45-2.53c0-.54,1.07-.1,1.38.86a41.83,41.83,0,0,1,1.07,5.16,24.3,24.3,0,0,0,.76,3.11c.28,1.13.62,2.24,1,3.34a16.7,16.7,0,0,0,.84,1.94,10.83,10.83,0,0,0,1.75,2.64,8.25,8.25,0,0,0,.93.75,9.42,9.42,0,0,0,1,.56,2.72,2.72,0,0,0,.46.21c.57.25.67.47.58,1.06,0,.13,0,.27-.07.4-.1.43-.51.63-1.08.48a7.55,7.55,0,0,1-4.16-3.14,16.87,16.87,0,0,1-1.76-3.43Z"/><path class="cls-1" d="M133.43,170.41c.55-.59,1.08-1.21,1.61-1.79l.19-.22.05,0,.11-.11s.09-.06.09-.11a.3.3,0,0,0-.07-.1l-.08-.07-.17-.13-.72-.54c-1.64-1.36-3.28-2.77-4.8-4.31-.67-.7-1.36-1.37-2-2.1a8.28,8.28,0,0,1-2-3.17c-.11-.4.25-.46.7-.32a3,3,0,0,1,1.43.88c1.4,1.77,3.29,3.21,5,5a34.8,34.8,0,0,0,3.51,2.77l.64.49a4.81,4.81,0,0,1,.74.67,1,1,0,0,1,.21.36l0,.2a.33.33,0,0,1,0,.1v0H138l0,.05c-.11.27-.2.54-.32.8a16.38,16.38,0,0,1-1.12,1.31c-.29.32-.59.61-.89.91-.76.71-1.47,1.45-2.19,2.18-1.09,1.1-2.23,2.17-3.28,3.29-.82.87-1.57,1.78-2.33,2.66-.17.2-.32.4-.49.59-.68.69-1,.76-1.46.65l-.32-.07c-.32-.1-.28-.65.06-1.32a25.51,25.51,0,0,1,4.23-5.11c1.18-1.16,2.4-2.29,3.56-3.45Z"/><path class="cls-1" d="M121.83,159.24a22.85,22.85,0,0,1-2.49,1.46,10.54,10.54,0,0,1-.94.5,12.61,12.61,0,0,1-3.61,1,7.61,7.61,0,0,1-.82.09,7.7,7.7,0,0,1-.83.05l-1-.07a5.68,5.68,0,0,1-1-.33c-.2-.09-.11-.31.12-.53a1.53,1.53,0,0,1,.92-.46c1.24-.13,2.39-.2,3.65-.45a7.13,7.13,0,0,0,2.14-.94,22,22,0,0,0,2.23-1.42c.44-.33.87-.67,1.29-1a16.59,16.59,0,0,0,1.84-1.72c.44-.48.73-1.08,1.14-1.57.09-.11.16-.23.26-.34a.76.76,0,0,1,1-.22c.08,0,.18.07.26.12.26.15.33.49.22.92a5.31,5.31,0,0,1-.35.89,3.21,3.21,0,0,1-.48.82,14,14,0,0,1-1.26,1.43,18,18,0,0,1-2.2,1.87Z"/><path class="cls-1" d="M60.39,220.31c2.57-5.44,5.18-10.86,7.9-16.22,1-2,1.95-3.93,3-5.88,3.57-6.86,7.15-13.71,10.88-20.48,1.65-3,3.26-6,4.94-9l1.59-2.87L90.33,163c.29-.48.55-.95.86-1.41l.94-1.37,1-1.35c.35-.44.73-.86,1.09-1.28.92-1.06,1-.7.53.41a51.55,51.55,0,0,1-2.55,5.18c-4.51,7.62-8.68,15.5-13,23.38-2.58,4.72-5,9.77-7.41,14.7-2.66,5.43-5.35,10.85-7.93,16.31q-2.4,5-4.68,10.13c-1.12,2.58-2.24,5.16-3.26,7.78-.27.65-.48,1.31-.71,2s-.5,1.34-.62,1.95a5.08,5.08,0,0,0,.69,3.64,14.57,14.57,0,0,0,4.29,4.42,33.39,33.39,0,0,0,5.46,3.1c.84.38,1.69.71,2.55,1,3.23,1.19,4.21,1.43,4.87,2.11a5.11,5.11,0,0,1,.47.42c.37.44-1.3.86-3.93.17a29.45,29.45,0,0,1-5.64-2.14A30.82,30.82,0,0,1,58,248.91a16.52,16.52,0,0,1-4.42-4.81,8,8,0,0,1-1.07-3.47,6.15,6.15,0,0,1,.19-1.91c.15-.58.33-1,.49-1.53.47-1.51,1.05-2.92,1.62-4.34S56,230,56.61,228.63c1.19-2.81,2.47-5.56,3.73-8.33Z"/><path class="cls-1" d="M50,256.74c-.65.63-1.31,1.24-2,1.82-.34.3-.69.58-1,.86a6.45,6.45,0,0,1-.63.47c-.23.14-.44.25-.66.37a16.84,16.84,0,0,1-1.86.83A26.61,26.61,0,0,1,37,262.42c-1,.08-2,.13-3,.14a11.76,11.76,0,0,1-3.87-.48c-.39-.12-.27-.41.12-.67a3.27,3.27,0,0,1,1.71-.49,50.3,50.3,0,0,0,7.4-.59A16.8,16.8,0,0,0,43.68,259a8.59,8.59,0,0,0,1.1-.52,4.48,4.48,0,0,0,.94-.64c.65-.55,1.29-1.13,1.91-1.72.75-.74,1.5-1.5,2.2-2.3a32.85,32.85,0,0,0,3-3.81,27.63,27.63,0,0,0,1.73-3.27c.12-.24.23-.48.36-.72.49-.88.76-1.1,1.31-1.06a2.34,2.34,0,0,1,.38,0c.39.09.48.61.26,1.36a22.49,22.49,0,0,1-3.34,6.27A38.43,38.43,0,0,1,50,256.78Z"/><path class="cls-1" d="M32.05,267.13a3.91,3.91,0,0,1-1.19-.29,2.14,2.14,0,0,1-.73-.54.93.93,0,0,1-.23-.44.75.75,0,0,1,0-.51,1.64,1.64,0,0,1,.47-.69,4.48,4.48,0,0,1,1.62-1c.33-.12.67-.24,1-.34s.71-.22.85-.25l1.19-.3c.8-.19,1.58-.38,2.37-.55s1.4-.34,2.08-.53a17.61,17.61,0,0,1,2.66-.6c.27,0,.31.12.14.4a2.46,2.46,0,0,1-1,.91,14.75,14.75,0,0,1-2.66.93,27.6,27.6,0,0,1-2.72.65,12.32,12.32,0,0,0-1.63.44l-.67.23a2.08,2.08,0,0,0-.73.34c-.13.12,0,.24.08.29a1.06,1.06,0,0,0,.33.1,3.68,3.68,0,0,0,.49,0H34a2.14,2.14,0,0,0,.37,0,28.5,28.5,0,0,0,3.41-.66,24.44,24.44,0,0,0,2.53-.89c.19-.06.36-.15.55-.21.71-.19,1-.12,1.25.25a2.27,2.27,0,0,1,.18.25c.16.3,0,.66-.53.95a11.33,11.33,0,0,1-2.31,1,17.28,17.28,0,0,1-2.5.64c-.64.12-1.28.22-1.94.3l-.49,0-.39,0-.46,0a9.63,9.63,0,0,1-1.69,0Z"/><path class="cls-1" d="M36.59,270.24a7.84,7.84,0,0,1-2,.22,5.54,5.54,0,0,1-1-.12,3,3,0,0,1-.64-.2l-.21-.13a1,1,0,0,1-.26-.25.94.94,0,0,1-.21-.45.93.93,0,0,1,0-.47,1.45,1.45,0,0,1,.4-.62,3.58,3.58,0,0,1,.36-.28,5.68,5.68,0,0,1,.6-.4c1.39-.71,2.82-1.22,4.21-1.82q.95-.37,1.83-.81a15.66,15.66,0,0,1,2.36-1c.26-.08.32.09.23.38a2.41,2.41,0,0,1-.73,1.08,16.65,16.65,0,0,1-4.71,2.36A29.7,29.7,0,0,0,34,269.09a1.26,1.26,0,0,0-.27.18s0,.1-.08,0a1.09,1.09,0,0,0-.27-.13s-.1,0-.12,0,0,0,.05,0a.31.31,0,0,0,.14-.16l.11-.15s0,0,0,0l0,0a1.19,1.19,0,0,0,.29.06,5.11,5.11,0,0,0,1.56,0,11.86,11.86,0,0,0,2-.6,31.59,31.59,0,0,0,3-1.3c.76-.38,1.44-.89,2.19-1.3.16-.09.32-.2.49-.28.64-.31.91-.28,1.23.11.07.09.15.17.21.26.19.32,0,.7-.35,1A18.77,18.77,0,0,1,40.1,269a20.65,20.65,0,0,1-3.5,1.25Z"/><path class="cls-1" d="M44.59,270.12c1.79-1,3.52-2.25,5.26-3.5l.94-.7a4.21,4.21,0,0,1,1.64-.89,1.53,1.53,0,0,1,.3,0,2.23,2.23,0,0,1,.24.19l.47.38c.68,1,.87,1.33,1.25,1.86a16.7,16.7,0,0,0,1.09,1.39l.28.31.22.21a1.09,1.09,0,0,0,.33.23.27.27,0,0,0,.35-.1,1.3,1.3,0,0,0,.14-.39l0-.3v-.38a4.49,4.49,0,0,0-.13-.79,10.89,10.89,0,0,0-.64-1.6A12.21,12.21,0,0,1,55,261.46c0-.51.33-.47.75-.14A4.57,4.57,0,0,1,57,263c.51,1.39,1.43,2.58,1.85,4.54a5,5,0,0,1,0,1.56l-.07.47a4.91,4.91,0,0,1-.15.51c-.06.17-.11.35-.18.51l-.28.39a1.64,1.64,0,0,1-.81.5,2.08,2.08,0,0,1-1,0,4.58,4.58,0,0,1-.46-.2l-.43-.3a5,5,0,0,1-.66-.58c-.51-.55-1-1.1-1.4-1.67l-1-1.37a.5.5,0,0,0-.08-.12c0-.06-.06-.07-.11,0l-.24.15-2.53,1.76c-.9.62-1.81,1.22-2.74,1.79a29.89,29.89,0,0,1-3.57,1.94,12.57,12.57,0,0,1-1.48.57c-.26.07-.52.14-.79.19l-.42.06-.54,0a2.26,2.26,0,0,1-1-.24,1.35,1.35,0,0,1-.49-.84,2.9,2.9,0,0,1,.51-1.86,21,21,0,0,1,3-3.67c.24-.25.47-.49.73-.73a4.27,4.27,0,0,1,1.15-.73,1.54,1.54,0,0,1,.77,0,1.07,1.07,0,0,1,.27.07c.12.06.11.2,0,.44a2.9,2.9,0,0,1-.56,1c-.88,1.05-1.89,2-2.76,3a11,11,0,0,0-1.16,1.53c-.07.11-.16.28-.18.32h0l.26,0a6.92,6.92,0,0,0,1.32-.39,19.46,19.46,0,0,0,2.71-1.41Z"/><path class="cls-1" d="M87.84,328.57l-2-.57-2-.68c-1.36-.42-2.66-1-4-1.55-.67-.25-1.29-.61-1.93-.91l-1-.47c-.47-.29-1.27-.43-1.28-1.17a4.64,4.64,0,0,1-.21-.88l-.08-.58c-.06-.39-.06-.73-.09-1.09-.05-.73-.05-1.42-.08-2.13-.07-5.62.19-11.17.51-16.72.25-4.05.48-8.1.83-12.14,1.26-14.23,3-28.41,5.44-42.49,1.07-6.24,2.23-12.51,3.57-18.66A143.75,143.75,0,0,1,92.3,205.2c.94-2.34,1.18-1.88.83.26s-1.17,5.95-2.38,10.4c-4.35,15.79-7.14,32-9.5,48.39-1.4,9.82-2.3,20.1-3,30.22-.39,5.55-.71,11.12-.89,16.69-.07,2.78-.12,5.56,0,8.32,0,.68.07,1.37.13,2l.06.48a1.79,1.79,0,0,0,0,.25c0,.19.17.19.35.3,1.22.6,2.45,1.23,3.73,1.72,1.55.68,3.18,1.17,4.78,1.72s3.26.94,4.94,1.27,3.34.64,5,.93,3.38.46,5.08.57a121.6,121.6,0,0,0,30.9-1.69,147,147,0,0,0,22.89-6.15c1.63-.59,3.21-1.21,4.81-1.89,6-2.49,7.63-3.6,9-4.12.29-.15.65-.38.84-.47s.08.34-.76,1.27a19.2,19.2,0,0,1-4.55,3.24,72.06,72.06,0,0,1-10,4.43,103.62,103.62,0,0,1-10.6,3.33,145.63,145.63,0,0,1-22.26,4,119.93,119.93,0,0,1-17,.46,79.22,79.22,0,0,1-16.88-2.5Z"/><path class="cls-1" d="M159.87,268.33l-2-9.32-2.24-9.29L153.8,243c-2.09-7.92-4.21-15.84-6.56-23.69-1-3.48-2.18-7-3.3-10.39-1.47-4.39-3-8.78-4.36-13.22-.42-1.38,0-1.34.83-.33a21.53,21.53,0,0,1,3,5.49c.85,2.22,1.64,4.46,2.42,6.71s1.55,4.49,2.25,6.76,1.4,4.55,2.07,6.84,1.32,4.59,1.93,6.9c.73,2.77,1.54,5.57,2.33,8.4s1.62,5.66,2.35,8.5l1.22,4.67,1.14,4.7,1.13,4.69,1.06,4.72c.91,3.86,1.65,7.75,2.46,11.63.6,2.94,1.07,5.92,1.62,8.87s.91,5.94,1.4,8.88c.6,4.6,1.33,9.1,1.65,13.7.08,1,.23,2,.25,3,.07,3.81-.24,5-.81,5.81a3.5,3.5,0,0,1-.4.52c-.44.34-.85-1.2-1.09-3.92-.54-8.05-1.59-16.52-3-25-.49-3.15-1.11-6.3-1.65-9.45l-1.9-9.44Z"/><path class="cls-1" d="M162.88,219.54c-.7-.79-1.48-1.55-2.28-2.3-.29-.27-.63-.49-.92-.76q-1.58-1.44-3.22-2.87l-1.5-1.23a4.07,4.07,0,0,1-1.71-2.13c-.06-.41.38-.33.81-.3s.89-.08,1.19.17c.52.44,1.2.9,1.83,1.39a21.86,21.86,0,0,1,1.84,1.67,30.84,30.84,0,0,0,2.41,1.93,32.89,32.89,0,0,1,2.53,2.35c.5.5,1,1,1.45,1.58a20.46,20.46,0,0,1,1.92,2.66,9.19,9.19,0,0,1,1.21,2.33,2.91,2.91,0,0,1,.15.58.9.9,0,0,1-.64,1.15,1,1,0,0,1-.25.09.52.52,0,0,1-.41-.14,1.47,1.47,0,0,1-.47-.46c-.2-.29-.3-.56-.48-.83s-.16-.27-.25-.4-.14-.27-.23-.4a16.41,16.41,0,0,0-1-1.64,19.93,19.93,0,0,0-2-2.4Z"/><path class="cls-1" d="M176,205a58.41,58.41,0,0,1,5.74,9.58,25.49,25.49,0,0,1,1.88,5.39,12.67,12.67,0,0,1,.11,5.91,25.25,25.25,0,0,1-1.29,3.94c-.5,1.26-1.05,2.49-1.65,3.7a66.18,66.18,0,0,1-3.5,6.2,39.64,39.64,0,0,1-4.32,5.73,14.17,14.17,0,0,1-2.83,2.42,5.77,5.77,0,0,1-1.86.79c-.18,0-.36.07-.55.09h-.57a7.25,7.25,0,0,1-1-.18,21,21,0,0,1-6.45-3.34,31.54,31.54,0,0,1-3.42-2.79,17,17,0,0,1-1.54-1.63,6.81,6.81,0,0,1-.69-.95,3.94,3.94,0,0,1-.3-.58,2.11,2.11,0,0,1-.15-.77,8,8,0,0,1,.52-2.08c.24-.63.52-1.21.8-1.8a101.13,101.13,0,0,1,8.64-13.43c1.95-2.67.77,1.61-2.51,6.72-1.14,1.77-2.25,3.56-3.27,5.37-.5.91-1,1.82-1.41,2.73-.23.46-.38.91-.57,1.36l-.18.65c-.05.19-.06.4-.08.5s0,0,0,.08a2.27,2.27,0,0,0,.2.35,7.57,7.57,0,0,0,.65.83,18,18,0,0,0,1.64,1.62,35.43,35.43,0,0,0,3.75,2.91,19.5,19.5,0,0,0,4.1,2.17,4,4,0,0,0,1.87.34,4.61,4.61,0,0,0,1.79-.83,17.06,17.06,0,0,0,3.3-3.28,40.79,40.79,0,0,0,2.8-4,67.57,67.57,0,0,0,4.56-8.77c.36-.83.69-1.67,1-2.51a11.4,11.4,0,0,0,.67-2.49,12,12,0,0,0-.46-5.05,37,37,0,0,0-4.75-9.55,111.2,111.2,0,0,0-8.09-10.7c-4.39-5.19-9.06-10.22-13.77-15.08-3.67-3.79-7.42-7.35-11-11.22-.79-.84-1.55-1.68-2.32-2.56a24.73,24.73,0,0,1-2.7-3.76,5.53,5.53,0,0,1-.64-2,5.17,5.17,0,0,1-.08-.67c0-.26.33,0,.91.48l1.09,1c.44.4.88.92,1.41,1.48,1.58,1.67,3.19,3.36,4.86,5s3.39,3.36,5.08,5.09c3.38,3.47,6.82,7,10.2,10.62A193.57,193.57,0,0,1,176,204.92Z"/><path class="cls-1" d="M170.27,261.47a.3.3,0,0,0,0-.18c-.06-.05-.11,0-.17,0a10.14,10.14,0,0,1-1.07.85,4.83,4.83,0,0,1-1.54.7,2.72,2.72,0,0,1-1.44-.05,2.36,2.36,0,0,1-1.17-.86,4.36,4.36,0,0,1-.73-2,8.91,8.91,0,0,1,0-1.93,15.67,15.67,0,0,1,.8-3.63c.16-.51.38-1,.58-1.51a5,5,0,0,0,.23-1.44,11.78,11.78,0,0,0-.11-2,5.38,5.38,0,0,0-.52-1.81c-.18-.22-.15-.4.27-.23a2.65,2.65,0,0,1,1,1.64,13.21,13.21,0,0,1,.32,2.17,7,7,0,0,1,0,1.12c0,.19,0,.4-.08.6s-.13.44-.17.58a29,29,0,0,0-1,3.84,6.81,6.81,0,0,0,0,2.34,2.26,2.26,0,0,0,.91,1.66c.43.27,1.22,0,1.88-.53a5.93,5.93,0,0,0,.51-.42l.63-.6a1.86,1.86,0,0,1,.81-.55.94.94,0,0,1,.88.17,2,2,0,0,1,.63,1,4.91,4.91,0,0,1,.17.63c0,.2.05.32.06.49a4.67,4.67,0,0,1-.28,2,5.45,5.45,0,0,1-1.78,2.26,8.56,8.56,0,0,1-2.45,1.32,11.25,11.25,0,0,1-4.19.73c-.32,0-.64,0-1-.07-1.19-.19-1.49-.57-1.54-1.09a1.32,1.32,0,0,1,0-.34c0-.34.58-.53,1.29-.43a10,10,0,0,0,6.29-1.1,4.53,4.53,0,0,0,1.59-1.51,2.71,2.71,0,0,0,.37-1.87Z"/><path class="cls-1" d="M166.55,257.64a3.45,3.45,0,0,1,1.49-.47,1.85,1.85,0,0,1,.75.13l.28.16a2,2,0,0,1,.14.29,1.91,1.91,0,0,1,.13.63,1.37,1.37,0,0,1-.35,1c-.18.2-.3.42-.45.61a4.1,4.1,0,0,1-.52.65c-.05.05-.23,0-.35-.17a.52.52,0,0,1-.07-.58l.51-.7c.14-.23.07-.44.18-.58a.17.17,0,0,0-.11-.28c0-.07-.47,0-.76.18a4.13,4.13,0,0,0-.59.37,4.2,4.2,0,0,0-.79.73,2.85,2.85,0,0,0-.37.74l0,.17c-.11.16-.29.11-.54.07l-.17,0c-.18,0-.32-.2-.36-.49a2.57,2.57,0,0,1,.89-1.59,6.22,6.22,0,0,1,1.09-.85Z"/><path class="cls-1" d="M118,365l-2.13-8.73-.85-3.17c-.91-3.75-1.82-7.49-2.68-11.26-.39-1.66-.85-3.32-1.29-5-.29-1.05-.6-2.1-.86-3.17a13.23,13.23,0,0,1-.51-3.31,1.11,1.11,0,0,1,.09-.48c.11-.2.23-.32.29-.23s.1.21.21.28.22.17.35.29a7.9,7.9,0,0,1,.9,1,5,5,0,0,1,.69,1.56c1.12,4.27,2.29,8.57,3.14,13,.51,2.64,1.31,5.32,2,8l2.11,8.82,1.28,5.44c.63,2.75,1.27,5.51,1.9,8.24.5,2.12,1.08,4.17,1.55,6.29.11.47.22.93.31,1.4.32,1.77.16,2.43-.31,2.82a1.46,1.46,0,0,1-.32.26c-.35.13-.66-.51-.93-1.73-.85-3.66-1.79-7.59-2.76-11.52L117.91,365Z"/><path class="cls-1" d="M136.84,363.14l1.75-9.54.59-3.49,2.32-12.27c.34-1.81.65-3.64.95-5.45.19-1.16.39-2.33.58-3.49a27.21,27.21,0,0,1,.92-3.46c.25-.72.52-.51.7.18a9.05,9.05,0,0,1,.13,3.18c-.82,4.7-1.63,9.44-2.62,14.17-.6,2.84-1,5.83-1.48,8.75L139,361.35l-1,5.93c-.52,3-1,6-1.55,9-.39,2.31-.67,4.59-1,6.89-.07.51-.12,1-.22,1.51a9.86,9.86,0,0,1-.46,2,2.13,2.13,0,0,1-.63.8,2.22,2.22,0,0,1-.27.21c-.13.05-.19-.12-.25-.48a5.11,5.11,0,0,1,0-1.6c.23-2,.49-4.16.79-6.29s.55-4.31.83-6.48c.46-3.22,1.05-6.44,1.57-9.66Z"/><path class="cls-1" d="M110.46,397.72a22,22,0,0,1-4.36-.57,5.65,5.65,0,0,1-2.25-1,2.79,2.79,0,0,1-.86-1.34,2,2,0,0,1,.41-1.72,4.49,4.49,0,0,1,1.55-1.13,11.87,11.87,0,0,1,1.53-.57c3.58-1,7.1-1.48,10.53-2.43a28.26,28.26,0,0,0,4.42-1.58,14.22,14.22,0,0,1,1.45-.65,6.92,6.92,0,0,1,1.6-.39,11.13,11.13,0,0,1,3.14.18c.3,0,.25.12.33.24s0,.33-.33.49a9,9,0,0,1-2.6.77,13.19,13.19,0,0,0-1.31.28c-.21.06-.42.14-.62.21l-.66.3a28.44,28.44,0,0,1-3,1.16,51.17,51.17,0,0,1-6.16,1.5,46,46,0,0,0-7.28,1.89,3.28,3.28,0,0,0-1.36.82c-.16.2,0,.54.41.88a4.93,4.93,0,0,0,1.69.72,14.4,14.4,0,0,0,2,.35,27.8,27.8,0,0,0,5.08,0,13.64,13.64,0,0,0,1.86-.28c.6-.17,1.23-.38,1.85-.57s1.21-.45,1.8-.69,1.18-.51,1.72-.84a11.19,11.19,0,0,0,4.2-3.8c.22-.35.41-.71.61-1.09.74-1.41,1.25-2,1.87-1.88a1.11,1.11,0,0,1,.38,0c.17.07.19.28.13.56a7.71,7.71,0,0,1-.46,1.19,16.16,16.16,0,0,1-1.35,2.49,10.85,10.85,0,0,1-2.05,2.23,18.89,18.89,0,0,1-5.2,2.89c-.68.27-1.37.5-2.07.71-.36.1-.65.22-1.07.31a8.92,8.92,0,0,1-1.16.21,29.38,29.38,0,0,1-4.39.19Z"/><path class="cls-1" d="M147.93,395.19l.61.47.75.61a9.2,9.2,0,0,1,.73.63,5.47,5.47,0,0,1,.64.63,2.77,2.77,0,0,1,1,2.16,1.14,1.14,0,0,1-.23.59,1.1,1.1,0,0,1-.35.31,1.66,1.66,0,0,1-.4.2c-.16,0-.38.09-.57.13l-.29.06-.46,0-.92-.06-1.86-.26-1.85-.22c-.53-.06-1.06-.12-1.59-.21-3.71-.59-7.55-1.36-11-3.33a10.43,10.43,0,0,1-3.81-3.57,8.39,8.39,0,0,1-1.07-3.17,9.66,9.66,0,0,1,.23-3.27c.14-.65.24-.54.36,0s.32,1.59.6,2.68a7.91,7.91,0,0,0,3,4.74,17.37,17.37,0,0,0,5.43,2.58,42.15,42.15,0,0,0,7.69,1.33l1.87.22.86.15a1.83,1.83,0,0,0,.47,0c.08,0,.18,0,.21-.09a.29.29,0,0,0-.05-.2,3.24,3.24,0,0,0-.6-.64l-.48-.4-.42-.31-.54-.39c-.72-.51-1.46-1-2.21-1.51-2.25-1.5-4.55-3-6.89-4.32-.91-.52-1.83-1-2.76-1.47l-1.39-.7a4.11,4.11,0,0,0-1.2-.42,6.87,6.87,0,0,0-1.14,0,3.91,3.91,0,0,1-2-.42,1.13,1.13,0,0,1-.62-.92,2.07,2.07,0,0,1,0-.48c.07-.48.86-.49,1.81-.52l1.3-.09a6,6,0,0,1,1.79.19,8.41,8.41,0,0,1,1.59.68l1.29.67c1.72.91,3.43,1.9,5.12,2.92,2.53,1.53,5,3.11,7.45,4.94Z"/><path class="cls-1" d="M423,309.34a22.52,22.52,0,0,1-14.12-2.18,27.26,27.26,0,0,1-4.45-2.71,40.14,40.14,0,0,1-11.21-14.07,74.6,74.6,0,0,1-3.24-7.27,50.09,50.09,0,0,1-2.77-9.74c-.18-1,.07-.95.57-.17a23.24,23.24,0,0,1,2,4c.53,1.61,1.14,3.19,1.74,4.76s1.2,3.15,1.89,4.69a56.38,56.38,0,0,0,4.85,8.85,33.54,33.54,0,0,0,3.94,4.69,31.29,31.29,0,0,0,4.84,3.84,22.18,22.18,0,0,0,12.7,3.73,19.19,19.19,0,0,0,8-2,26,26,0,0,0,9.43-8.3,32.4,32.4,0,0,0,4.18-8.74c.2-.68.4-1.35.58-2,.69-2.57,1-3.37,1.58-3.85a3.46,3.46,0,0,1,.42-.31c.4-.19.57,1,.22,3a33,33,0,0,1-8.47,16.75,27.28,27.28,0,0,1-5.73,4.51,21.35,21.35,0,0,1-6.9,2.63Z"/><path class="cls-1" d="M438.63,264.54a11.06,11.06,0,0,1,2.79-3.48,5,5,0,0,1,2.38-.93,5.65,5.65,0,0,1,2.47.29,6.91,6.91,0,0,1,2.9,1.89,6.45,6.45,0,0,1,.86,1.27,5.66,5.66,0,0,1,.51,1.48,10.28,10.28,0,0,1,.16,2.86,10.46,10.46,0,0,1-1.89,5.21,7.84,7.84,0,0,1-4,2.87,9.53,9.53,0,0,1-6.07-.19c-.61-.19-.43-.46.14-.67a9.68,9.68,0,0,1,2.56-.41,7.29,7.29,0,0,0,4.78-1.5,7.77,7.77,0,0,0,2.42-4.45,7.37,7.37,0,0,0,0-3.24,4.53,4.53,0,0,0-1.68-2.45,3.64,3.64,0,0,0-5.76,1,36.47,36.47,0,0,1-2.92,4.15,5,5,0,0,1-1.72,1.22,5.57,5.57,0,0,1-2,.51,2.82,2.82,0,0,1-2.15-.81,4,4,0,0,1-.95-1.95,11.43,11.43,0,0,1-.22-3.06,18.25,18.25,0,0,1,.34-3c.09-.42.18-.84.31-1.26.45-1.57.95-2,1.35-2.17a1.89,1.89,0,0,1,.27-.12c.13,0,.17.13.18.43a8.62,8.62,0,0,1-.07,1.32c-.13.83-.22,1.68-.28,2.52s-.17,1.69-.18,2.51a11.58,11.58,0,0,0,.16,2.34c.13.73.43,1.15.67,1.24a3.17,3.17,0,0,0,2.51-.61,8.75,8.75,0,0,0,2.15-2.84Z"/><path class="cls-1" d="M442.59,223.48a30,30,0,0,0-20.34-3.86A25.29,25.29,0,0,0,415,222c-4,1.94-7.59,5.22-8.75,9.5s.14,9,2.63,12.72a27.42,27.42,0,0,0,8.86,8.18,44.21,44.21,0,0,0,14.62,5.27c1.6.31,1.39.54-.05.79A15.51,15.51,0,0,1,425,258a35.23,35.23,0,0,1-14.44-8.47,24.57,24.57,0,0,1-5-7,18,18,0,0,1-1.7-8.47,15.08,15.08,0,0,1,4.28-9.48,22.74,22.74,0,0,1,8.8-5.52,31.61,31.61,0,0,1,22.12.63,35.25,35.25,0,0,1,11.46,7.58c.32.3.66.58.95.9l.87,1,1.73,2c1,1.38,2.08,2.79,3.07,4.21a37.86,37.86,0,0,1,4.54,9.33,21.6,21.6,0,0,1,1,8,17.47,17.47,0,0,1-2.44,7.71c-.29.52-.65,1-1,1.49l-.5.74-.58.68c-3,3.34-4.33,3.92-5.35,4.1a5.59,5.59,0,0,1-.68.1c-.27,0-.1-.36.4-1s1.41-1.39,2.45-2.51a28.76,28.76,0,0,0,2.24-2.55,22.81,22.81,0,0,0,1.77-2.87,16.18,16.18,0,0,0,1.82-6.43c.24-4.54-1.34-9.15-3.73-13.29-3.63-6.11-8.39-11.82-14.61-15.33Z"/><path class="cls-1" d="M369.9,244.16a30,30,0,0,0-1.86,8.42A21.72,21.72,0,0,0,369,261a9.8,9.8,0,0,0,1.38,2.6,8.47,8.47,0,0,0,2.15,1.9,9.78,9.78,0,0,0,5,1.29A18.17,18.17,0,0,0,383,266a31.38,31.38,0,0,0,9.92-5.29,35,35,0,0,0,7-7.24,37.81,37.81,0,0,0,3.27-5.52,43.26,43.26,0,0,0,2.26-6c.39-1.29.55-1.1.63.1a13.08,13.08,0,0,1-1,5.87,33.16,33.16,0,0,1-7.74,11.32,35.39,35.39,0,0,1-11.45,7.61,28.48,28.48,0,0,1-4,1.27,17.93,17.93,0,0,1-4.28.55,12,12,0,0,1-4.38-.68,9.62,9.62,0,0,1-3.77-2.48,11.28,11.28,0,0,1-2.4-4.25,20.19,20.19,0,0,1-.87-4.64,29.34,29.34,0,0,1,.82-9.25A27.93,27.93,0,0,1,371.73,237a21.58,21.58,0,0,1,6.42-5.76,21.84,21.84,0,0,1,8.15-2.69c.55-.1,1.11-.11,1.66-.16a15.17,15.17,0,0,1,1.66-.06,20.19,20.19,0,0,1,3.3.35,23.22,23.22,0,0,1,6.25,2.13,20.74,20.74,0,0,1,2.52,1.48,12.67,12.67,0,0,1,2.84,2.69,6.28,6.28,0,0,1,.53.91,4,4,0,0,1,.14.75,5.15,5.15,0,0,1,.07.55c0,.2-.25,0-.77-.37s-1.15-1.1-2.09-1.89a21.78,21.78,0,0,0-10.11-4.63,17.89,17.89,0,0,0-5.66-.08,19.83,19.83,0,0,0-5.52,1.51,19,19,0,0,0-6.8,5,24.53,24.53,0,0,0-4.37,7.4Z"/><path class="cls-1" d="M444.42,313.76a17.26,17.26,0,0,0-4.59,3.12c-.5.47-.93,1-1.39,1.51a23.43,23.43,0,0,0-3.93,6.15,19,19,0,0,0-1,3.09,32,32,0,0,0-.59,4.09c-.05.42-.36.4-.69,0a2.77,2.77,0,0,1-.6-2,18.22,18.22,0,0,1,.91-4.46,19.55,19.55,0,0,1,2-4.07,32.5,32.5,0,0,1,3.25-4.48,19.61,19.61,0,0,1,4.75-3.81,17,17,0,0,1,3.44-1.51,18.66,18.66,0,0,1,5.58-.85,23.94,23.94,0,0,1,4.32.26c.32.06.63.09.94.16,1.16.29,1.48.54,1.58,1a2.21,2.21,0,0,1,.06.34c0,.36-.54.49-1.35.36a27.45,27.45,0,0,0-7.36-.41,15.93,15.93,0,0,0-5.29,1.5Z"/><path class="cls-1" d="M442.8,328.71a21.76,21.76,0,0,0-2.6.61c-.31.09-.61.24-.92.34-1.11.34-2.23.71-3.31,1.16a14,14,0,0,0-1.41.67,8.62,8.62,0,0,1-1.81.87c-.4.12-.46-1.15.2-1.54a20.17,20.17,0,0,1,3.79-1.69c.8-.25,1.57-.67,2.38-.95a28.28,28.28,0,0,1,2.72-.8c.57-.12,1.14-.25,1.72-.34a21.37,21.37,0,0,1,2.66-.24,16.33,16.33,0,0,1,2.1,0,1.83,1.83,0,0,1,.47,0c.57.17.72.34.69.76a2.58,2.58,0,0,1,0,.29.7.7,0,0,1-.74.5c-1.1,0-2.16-.07-3.31,0a19.61,19.61,0,0,0-2.59.35Z"/><path class="cls-1" d="M454.24,319a19.66,19.66,0,0,0-1.49,1.89c-.15.25-.27.52-.43.77a17.74,17.74,0,0,0-1.44,2.77,7,7,0,0,0-.37,1.34,8.71,8.71,0,0,1-.3,1.73c-.07.18-.29.17-.54,0a1.42,1.42,0,0,1-.61-.88,8.42,8.42,0,0,1,1-3.83c.39-.69.68-1.45,1.09-2.14a16.73,16.73,0,0,1,1.48-2.15c.32-.44.7-.82,1-1.23a20.21,20.21,0,0,1,1.79-1.67,8.6,8.6,0,0,1,1.52-1.21c.13-.08.25-.16.39-.23.54-.2.77-.1.95.26,0,.08.09.16.12.24a.74.74,0,0,1-.29.79c-.73.59-1.49,1.18-2.27,1.88a15.55,15.55,0,0,0-1.65,1.69Z"/><path class="cls-1" d="M421.27,316.45a11.71,11.71,0,0,1,3.3.32c.39.07.78.16,1.16.26a10.84,10.84,0,0,1,3.6,2.13c.45.4.91.79,1.35,1.2a6.11,6.11,0,0,1,1.46,1.78c.1.22-.19.38-.57.42a1.39,1.39,0,0,1-1.12-.3,29,29,0,0,0-3.17-2.79,5.91,5.91,0,0,0-2.35-1,11,11,0,0,0-2.85-.38,8.69,8.69,0,0,0-1.76.18,9.4,9.4,0,0,0-2.57.92,11.78,11.78,0,0,0-1.74,1.25c-.13.09-.24.19-.38.28-.49.32-.73.3-1.08,0a2.11,2.11,0,0,1-.23-.19.74.74,0,0,1,.11-1,8.44,8.44,0,0,1,.72-.75,8.81,8.81,0,0,1,.85-.62,10.66,10.66,0,0,1,2-1,11.12,11.12,0,0,1,3.3-.77Z"/><path class="cls-1" d="M405.91,413.15a25.32,25.32,0,0,0,7.83,2.68,32.21,32.21,0,0,0,4.17.44,15.84,15.84,0,0,0,4-.24,13.13,13.13,0,0,0,3.75-1.39,7.46,7.46,0,0,0,1.47-1l1.08-1.68,4.81-7.3c2.34-3.54,4.61-7.13,6.88-10.7,4-6.3,7.93-12.67,11.61-19.17a221,221,0,0,0,10.13-19.95,77.84,77.84,0,0,0,5.9-18.78,28.6,28.6,0,0,0,.3-6.19,13.37,13.37,0,0,0-1.59-5.77,8.58,8.58,0,0,0-4.33-3.82,12.78,12.78,0,0,0-2.92-.81,8.9,8.9,0,0,0-3,0,15.27,15.27,0,0,0-1.64.59,2.62,2.62,0,0,1,1.45-1.09,9.44,9.44,0,0,1,4.79-.52,10.77,10.77,0,0,1,3.25.88c.28.13.56.31.85.48l.77.58a6.4,6.4,0,0,1,.73.66,6.06,6.06,0,0,1,.68.75,13.31,13.31,0,0,1,2.71,6.48,26.62,26.62,0,0,1,0,6.79,59.69,59.69,0,0,1-3.21,12.83,160.83,160.83,0,0,1-11.06,23.77c-5.07,9.15-10.62,18.51-16.38,27.51l-9.59,14.74-.29.46a4.34,4.34,0,0,1-.37.55,5.13,5.13,0,0,1-1,.88,14,14,0,0,1-2,1.18,15.4,15.4,0,0,1-4.45,1.31,15.06,15.06,0,0,1-2.31.13c-.75,0-1.5,0-2.25-.08a30.76,30.76,0,0,1-4.47-.6,27.35,27.35,0,0,1-10.17-4.38,35.14,35.14,0,0,1-4.25-3.54c-.63-.67-1.3-1.31-1.89-2l-.55-.63-.33-.38c-.11-.13-.28-.25-.15-.41.21-.58.45-1.3.61-1.65a42.42,42.42,0,0,1,4.05-7.29c1.54-2.29,3.19-4.5,4.88-6.66,3.36-4.34,7-8.44,10.61-12.5,2.79-3.16,5.49-6.32,8-9.64a106.52,106.52,0,0,0,6.72-10.39c.92-1.58,1.75-3.14,2.57-4.77s1.35-2.78,1.82-3.86.77-1.93,1.06-2.67a8.45,8.45,0,0,1,1.65-2.9,4.43,4.43,0,0,1,.76-.72c.34-.18.2.35-.11,1.51-.16.6-.35,1.36-.58,2.26a30.06,30.06,0,0,1-1,3.27,71.91,71.91,0,0,1-5,10.33,93,93,0,0,1-6.46,9.76c-4.78,6.28-10.32,11.93-15.27,18a106.57,106.57,0,0,0-10.1,14.06c-.35.62-.68,1.24-1,1.87-.15.32-.31.63-.43.95l-.29.68c0,.05,0,.11,0,.1l.42.49c.46.55,1,1,1.46,1.54a28.39,28.39,0,0,0,6.68,5.05Z"/><path class="cls-1" d="M392.38,415.16a22.5,22.5,0,0,0,1.47-1.74c.17-.23.3-.47.46-.7.6-.79,1.15-1.63,1.74-2.44a11.29,11.29,0,0,0,.69-1.15,6.7,6.7,0,0,1,.89-1.47c.23-.28.81.55.59,1.17a12.73,12.73,0,0,1-1.63,3.12c-.45.56-.77,1.23-1.18,1.84s-.94,1.31-1.46,1.94c-.31.38-.65.75-1,1.12-.51.56-1.07,1.08-1.6,1.61-.21.2-.4.42-.6.64l-.63.61a1.14,1.14,0,0,1-.31.23c-.44.21-.64.19-.89,0a1,1,0,0,1-.16-.13c-.16-.17-.12-.45.06-.77a9.45,9.45,0,0,1,2-2.25c.53-.52,1.05-1.06,1.55-1.63Z"/><path class="cls-1" d="M361.37,425c-.11-.13-.25-.25-.34-.38a2.42,2.42,0,0,1-.19-.4,1.14,1.14,0,0,1,.1-.93,2.22,2.22,0,0,1,.28-.33c.12-.09.27-.18.4-.26l.57-.2a6.45,6.45,0,0,1,.66-.12,10.51,10.51,0,0,1,1.33-.11H365l1.61.07c.78.05,1.54.06,2.31.11,2.68.21,5.36.39,8,.43a27.64,27.64,0,0,0,3.53-.2,23.92,23.92,0,0,0,4.29-1c.43-.13.54.15.3.59a2.46,2.46,0,0,1-.64.75,3.72,3.72,0,0,1-1.14.6,19.83,19.83,0,0,1-4.8.71,31.51,31.51,0,0,1-4.76-.12c-1.89-.18-3.85-.24-5.77-.39-1-.07-2.11-.17-3.11-.15l-.69,0-.38,0a1.22,1.22,0,0,0-.68.2c-.11.14.07.26.16.34a3.61,3.61,0,0,0,.39.22,12.05,12.05,0,0,0,1.43.53,19.74,19.74,0,0,0,5.7.82c1.5,0,3-.13,4.52-.07.33,0,.66,0,1,0,1.27.07,1.64.42,1.86.77a1.28,1.28,0,0,1,.14.25c.08.26-.45.42-1.35.56-1.32,0-2.67.23-4.07.2a42.54,42.54,0,0,1-4.31-.23,23.65,23.65,0,0,1-3.28-.62c-.55-.15-1.07-.31-1.65-.52-.16-.07-.23-.08-.46-.19l-.7-.31a3,3,0,0,1-.62-.33,3.47,3.47,0,0,1-.53-.37Z"/><path class="cls-1" d="M367.15,431.28a23.52,23.52,0,0,1-3.07-.36,9.21,9.21,0,0,1-1.59-.43l-.42-.17a6.16,6.16,0,0,1-.55-.33,2.21,2.21,0,0,1-.74-1,3.06,3.06,0,0,1-.11-.59l.11-.6a2.08,2.08,0,0,1,.73-.88c.17-.1.36-.18.54-.28l.49-.14a17.12,17.12,0,0,1,4-.2l3.82.18c1.12.05,2.25.08,3.36.07.71,0,1.42,0,2.11-.09a9.2,9.2,0,0,0,2.05-.24c.36-.14.41-.06.15.29a4.17,4.17,0,0,1-1.81,1.05,27.54,27.54,0,0,1-4.49.36c-1.48,0-2.94-.11-4.41-.19a19.24,19.24,0,0,0-2.63,0,12.75,12.75,0,0,0-1.28.17,4.75,4.75,0,0,0-.57.14.64.64,0,0,0-.23.09.26.26,0,0,0-.14.13c-.49.6,1.85,1,3.47,1.17,1.19.1,2.4.13,3.61.12,1.84,0,3.69-.07,5.52-.24,1.42-.13,2.8-.38,4.19-.61.3,0,.6-.11.91-.15,1.15-.15,1.54-.07,1.84.38a2,2,0,0,1,.2.31c.13.36-.28.71-1.12.92a41.71,41.71,0,0,1-7.86,1.08c-2,.1-4,.12-6.08,0Z"/><path class="cls-1" d="M395,430.87l-.87.67-.95.62-1,.52c-.34.16-.68.27-1,.41a30.94,30.94,0,0,1-4.08,1.19c-1,.23-2,.47-3,.63-1.77.3-3.55.49-5.33.62-.89.07-1.79.11-2.69.12-.45,0-.89,0-1.35,0a9.47,9.47,0,0,1-1.86-.15l-.75-.13a3.11,3.11,0,0,1-.61-.21,1.23,1.23,0,0,1-.51-.26c-.13-.12-.3-.18-.36-.42a.7.7,0,0,1,.18-.52,2,2,0,0,1,.36-.36,4.23,4.23,0,0,1,1.18-.66c.32-.14.69-.25,1.06-.37l.57-.14.47-.1c.5-.11,1-.2,1.51-.27a14.08,14.08,0,0,1,3-.13c.64.05.55.2,0,.45a10,10,0,0,1-2.51,1c-.48.12-1,.24-1.43.38l-.35.1-.15.05h0a.17.17,0,0,0-.12,0s0,.07.1.1c.88,0,2,0,2.95,0a44.38,44.38,0,0,0,7.36-1,24.71,24.71,0,0,0,7.59-2.48,28.29,28.29,0,0,0,3.79-3.21c1.83-1.79,3.62-3.66,5.34-5.55,1.33-1.48,2.58-3,3.93-4.42.3-.32.58-.64.89-.95,1.15-1.16,1.66-1.42,2.13-1.41a1,1,0,0,1,.31,0c.27.08-.08.65-.8,1.57-1.1,1.36-2.19,2.8-3.32,4.24s-2.4,2.81-3.65,4.2a71.94,71.94,0,0,1-6,5.9Z"/><path class="cls-1" d="M393.67,377.71c2.82-3.6,5.57-7.24,8.19-11,1-1.37,1.84-2.78,2.77-4.16a114.4,114.4,0,0,0,8.78-15.2,41,41,0,0,0,2.57-7.29,19.84,19.84,0,0,0,.33-9.58c-.27-.95.07-1,.7-.25a7.4,7.4,0,0,1,1.41,4.45,28.46,28.46,0,0,1-2.06,10.35,62.91,62.91,0,0,1-4.48,9.41c-2.06,3.6-4.24,7.31-6.58,10.83-2.58,3.87-5.31,7.62-8.11,11.32-1.72,2.27-3.48,4.52-5.24,6.76-2.66,3.39-5.45,6.72-8,10.11-.25.33-.49.66-.71,1a3.69,3.69,0,0,0-.2.32c-.06.09-.11.2,0,.3a3.29,3.29,0,0,0,1.23,1.34,12.27,12.27,0,0,0,4.25,1.61c.68.15,1.36.24,2,.34,2.6.34,3.42.47,4,1.06a4.51,4.51,0,0,1,.38.39c.27.41-.87.86-2.92.8a25.66,25.66,0,0,1-4.63-.56,12,12,0,0,1-4.69-2,5,5,0,0,1-.55-.49,3.43,3.43,0,0,1-.51-.56l-.24-.34a1.92,1.92,0,0,1-.27-.46,5.44,5.44,0,0,1-.35-1,2.48,2.48,0,0,1,.14-1,6,6,0,0,1,.55-.92c.24-.35.48-.66.72-1,.95-1.26,1.92-2.48,2.89-3.69,2.88-3.61,5.79-7.2,8.6-10.86Z"/><path class="cls-1" d="M426.5,350.61a22.23,22.23,0,0,0-.32-2.38c-.05-.29-.16-.57-.22-.87-.19-1.05-.38-2.11-.58-3.16-.09-.46-.2-.93-.33-1.39a4.53,4.53,0,0,1-.27-1.83c0-.39,1.48-.08,1.64.53a30.54,30.54,0,0,1,.76,3.48,16.2,16.2,0,0,0,.62,2.18c.23.8.42,1.63.58,2.47.11.51.19,1,.26,1.56.12.8.11,1.61.16,2.42a7.61,7.61,0,0,0,.08.94c0,.31,0,.63,0,.95a2,2,0,0,1,0,.42c-.1.52-.31.65-.79.63-.11,0-.22,0-.32,0a.85.85,0,0,1-.71-.67c-.08-.51-.21-1-.27-1.49s-.06-1-.1-1.47c-.08-.74-.08-1.51-.2-2.29Z"/><path class="cls-1" d="M480.7,393.12c-.3-4.39-.78-8.78-1.27-13.16-.19-1.6-.49-3.18-.69-4.77-.75-5.63-1.62-11.24-2.69-16.82-.48-2.47-1-4.95-1.64-7.38-.76-3.12-1.61-6.22-2.26-9.37-.2-1,.21-1,.83-.26a10.93,10.93,0,0,1,2,3.89c1,3.16,1.78,6.37,2.48,9.6.37,1.62.7,3.24,1,4.87s.59,3.27.83,4.92c.3,2,.65,4,1,6s.7,4,1,6.05c.66,4.43,1.13,8.88,1.53,13.34.22,2.75.43,5.5.58,8.25.23,4.16.32,8.36.36,12.5,0,1.61.05,3.21.07,4.8l-.09,4.78c0,.7-.05,1.39-.11,2.1s-.12,1.2-.18,1.65a9.34,9.34,0,0,1-.28,1.11,2.83,2.83,0,0,1-.65,1.17,2.72,2.72,0,0,1-.34.34c-.33.21-.57-.89-.7-2.8,0-5.64,0-11.55-.12-17.5l-.09-3.31-.18-3.33c-.09-2.21-.27-4.43-.45-6.64Z"/><path class="cls-1" d="M461.85,401.24l.76-.23c.25-.09.49-.2.73-.3l1.47-.63a30.66,30.66,0,0,0,2.81-1.54l1.91-1.38a34.28,34.28,0,0,0,6-5.81c.37-.5.74-1,1.09-1.53l.91-1.62c.75-1.4,1.32-2.88,2-4.31.23-.45.59-.28.83.25a3.58,3.58,0,0,1,.09,2.4,22.8,22.8,0,0,1-5.56,8.73,45.67,45.67,0,0,1-4.74,4.23l-1.43,1c-.5.3-1,.58-1.52.87a27.67,27.67,0,0,1-3.15,1.52,17.39,17.39,0,0,1-2,.71,14.61,14.61,0,0,1-2.06.57,20.57,20.57,0,0,1-3.2.54l-1.61.16c-.54.05-1.08,0-1.62,0a43.41,43.41,0,0,1-5-.13c-.36-.06-.72-.1-1.08-.18-1.34-.3-1.71-.6-1.81-1.25a1.8,1.8,0,0,1-.06-.45c0-.47.65-.72,1.59-.68a44.46,44.46,0,0,0,8.41.26l1.57-.16a13.84,13.84,0,0,0,1.56-.3c.51-.11,1-.19,1.55-.34l1.52-.49Z"/><path class="cls-1" d="M422.35,324.74a24.36,24.36,0,0,1,2.49,1.16,6.42,6.42,0,0,1,.9.47,11.49,11.49,0,0,1,2.62,2.44c.32.41.67.8,1,1.21s.41.53.58.81a3.72,3.72,0,0,1,.38.92c0,.2-.29.33-.69.35a1.22,1.22,0,0,1-1-.34,29.67,29.67,0,0,0-2.2-2.69,6.82,6.82,0,0,0-1.81-1.21,17.24,17.24,0,0,0-2.25-1.06c-.47-.19-1-.36-1.47-.52-.77-.22-1.54-.47-2.32-.63-.62-.11-1.24-.12-1.85-.22-.14,0-.28,0-.41-.06-.5-.12-.63-.28-.64-.72,0-.1,0-.21,0-.3a.68.68,0,0,1,.68-.6,10.09,10.09,0,0,1,1.74-.07,15,15,0,0,1,1.74.27,20.55,20.55,0,0,1,2.59.75Z"/><path class="cls-1" d="M365.4,417.22c2.52-.48,5.05-.59,7.39-1a19.87,19.87,0,0,0,2.47-.64,24.52,24.52,0,0,0,7.82-4.81,34.1,34.1,0,0,0,2.95-2.94c1.18-1.33,2.26-2.75,3.4-4.11.36-.43.56-.21.54.35a4.71,4.71,0,0,1-.87,2.36,30.29,30.29,0,0,1-8,7.91c-.94.64-1.92,1.27-2.95,1.85a15.05,15.05,0,0,1-3.3,1.41,60.21,60.21,0,0,1-7.46,1.21,32.91,32.91,0,0,0-4.4,1l-1.4.45.31-.27a.55.55,0,0,0-.28-.13s-.09,0,0,0,0,0,.07-.06a.67.67,0,0,0,.15-.14s0,0,0,0a2.18,2.18,0,0,0,.47.17,8.09,8.09,0,0,0,1.26.2,19.63,19.63,0,0,0,2.66,0,39.43,39.43,0,0,0,5.22-.68,8.33,8.33,0,0,1,1.13-.19,5.64,5.64,0,0,1,1.52,0,1.63,1.63,0,0,1,.77.42,1.93,1.93,0,0,1,.25.24c.1.13,0,.29-.21.5a3,3,0,0,1-1.15.65,19,19,0,0,1-4.89.91,38.44,38.44,0,0,1-5.16.06,12.76,12.76,0,0,1-1.67-.15,4,4,0,0,1-1.06-.3,3.21,3.21,0,0,1-.38-.23,2.5,2.5,0,0,1-.24-.22,1.26,1.26,0,0,1-.25-.33,1.63,1.63,0,0,1-.23-1,1.33,1.33,0,0,1,.11-.43,1.54,1.54,0,0,1,.17-.34l.23-.4.46-.16a36.88,36.88,0,0,1,4.5-1.21Z"/><path class="cls-1" d="M385.39,421.36a11,11,0,0,0,2.44,2.15,4,4,0,0,0,.94.39c.34.08.39.07.56,0a.38.38,0,0,0,.1-.24.56.56,0,0,0,0-.16c0-.09-.05-.19-.09-.29a11.36,11.36,0,0,0-.65-1.31c-.34-.58-.74-1.15-1.11-1.74a6,6,0,0,1-.64-1.2,2.39,2.39,0,0,1-.17-1.43c.06-.31.15-.23.31,0s.58.48.8.84l1.54,2a7.88,7.88,0,0,1,1.42,2.52,3.47,3.47,0,0,1,.16,1c0,.18-.06.35-.11.52a4.23,4.23,0,0,1-.25.47c-.21.17-.36.42-.63.52l-.37.18-.41.08a3.35,3.35,0,0,1-.71,0c-.21-.05-.42-.09-.61-.15a9.36,9.36,0,0,1-3.23-2.23c-.2-.19-.4-.41-.59-.62l-.14-.16-.08-.09-.12-.16-.19-.26-.06-.09s-.07,0-.09,0l-.14.17a3.23,3.23,0,0,1-.32.33,6,6,0,0,1-1.5,1.1,7.38,7.38,0,0,1-2.72.82,4.3,4.3,0,0,1-.62,0c-.77,0-1-.22-1.07-.68a1.67,1.67,0,0,1,0-.31c0-.35.32-.58.8-.65a6.46,6.46,0,0,0,3.56-1.34l.2-.17.09-.1.23-.25a4.56,4.56,0,0,1,.9-1,1.13,1.13,0,0,1,.88-.16l.42.13a5.84,5.84,0,0,1,.46.42c.17.24.35.46.53.67l.38.42Z"/><path class="cls-1" d="M316.56,427.53l-67.91-9.77-24.78-3.44-87.28-12.64c-12.92-1.84-25.92-3.57-38.75-5.24l-24.77-3.15-24.7-3.44c-.63-.08-1.19-.17-1.63-.25a10.21,10.21,0,0,1-1.08-.2c-.56-.14-.81-.3-.78-.45s.35-.31.95-.46a14.44,14.44,0,0,1,2.61-.37,127.29,127.29,0,0,1,22.15.74l6.33.72,6.32.82,12.63,1.68,25.26,3.48q25.27,3.56,50.64,7.42c20.24,3.09,41.38,5.82,62.12,8.74l68.43,9.67,42.11,5.91c21.27,2.93,42.62,5.93,63.76,8.64,16.42,2.11,32.56,3.9,48.83,5.7l10.7,1.14c13.39,1.48,17.59,2.15,20.36,3.59a13.31,13.31,0,0,1,1.84,1c1.24,1-4.36,1.37-14.22.5-29.22-2.59-59.83-6.62-90.56-10.71-22.82-3.07-45.71-6.3-68.57-9.49Z"/><path class="cls-1" d="M233,448.79l3.59-8.43c.43-1,.75-2.09,1.19-3.11,1.56-3.61,3.16-7.19,4.68-10.81.67-1.61,1.25-3.26,1.79-4.89a31.72,31.72,0,0,1,2.37-6.23c.71-1.21,3.42,1.61,2.6,4A105.45,105.45,0,0,1,244,432c-1.23,2.46-2,5.18-3.07,7.78l-3.44,8.55-2.12,5.26c-1,2.66-2.17,5.32-3.1,8-.72,2.09-1.21,4.21-1.8,6.31a13,13,0,0,1-.4,1.39,4.32,4.32,0,0,1-1,1.68,2.78,2.78,0,0,1-1.3.43c-.21,0-.42.07-.59.07s-.48-.23-.67-.65a5,5,0,0,1-.27-.76,1.94,1.94,0,0,1,0-.93,31.76,31.76,0,0,1,1.31-5.88c.59-1.95,1.27-3.9,2-5.84,1-2.89,2.19-5.75,3.34-8.6Z"/><path class="cls-1" d="M288.43,455.18c-.89-2.9-1.73-5.82-2.58-8.73-.32-1.06-.74-2.08-1.05-3.15L281.65,432c-.44-1.69-1-3.33-1.53-5l-.53-1.57c-.16-.53-.28-1.08-.41-1.63a8.35,8.35,0,0,1-.28-1.66l0-.88c0-.29.14-.61.13-.89,0-.71.17-.65.65-.17.21.25.77.54,1.21.92a6,6,0,0,1,.73.62,3.74,3.74,0,0,1,.49.79,54.6,54.6,0,0,1,2.36,6.25,64.62,64.62,0,0,1,1.79,6.52c.61,2.65,1.72,5.26,2.58,7.89.94,2.9,1.88,5.81,2.78,8.73l1.68,5.38c.87,2.72,1.68,5.46,2.64,8.13.73,2.07,1.69,4,2.48,6.08.15.46.34.9.47,1.38a6.84,6.84,0,0,1,.25,1.12,2.68,2.68,0,0,1-.1.85,1.92,1.92,0,0,1-.74,1.07,4.1,4.1,0,0,1-.43.36c-.39.26-1.31-.28-2.08-1.35-.47-.85-.95-1.72-1.39-2.6s-.78-1.82-1.14-2.75c-.75-1.87-1.42-3.79-2.09-5.72-1-2.87-1.9-5.79-2.87-8.69Z"/><path class="cls-1" d="M93,101.23c1.87,3.22,4.8,9.7,9.64,7.93,4.23-1.55,3.08-8.31,2.12-11.58a1,1,0,0,0-1.92.54c.63,2.15,2.06,8.5-1.19,9.24s-5.61-4.88-6.92-7.14a1,1,0,0,0-1.73,1Z"/><path class="cls-1" d="M112.14,97.1c.18,3.63,2.24,10.65,6.76,10.82,4.91.18,3.87-7.4,3.83-10.43a1,1,0,0,0-2,0c0,1.76,1,8.6-1.87,8.41-3.1-.2-4.6-6.35-4.72-8.8-.07-1.28-2.07-1.29-2,0Z"/><path class="cls-1" d="M110,101.83a13.82,13.82,0,0,1-.45-6.83,22.69,22.69,0,0,1,.68-2.37c.24-.68.59-1.33.89-2,.18-.32.39-.62.58-.94a5.07,5.07,0,0,1,.65-.89,7.62,7.62,0,0,1,3.62-2.63,8.17,8.17,0,0,1,3.95-.28,6.52,6.52,0,0,1,4.3,2.42c.31.44,0,.54-.5.51a7.84,7.84,0,0,1-2-.37,8.48,8.48,0,0,0-3.9-.79,6.26,6.26,0,0,0-3.55,1.63A10.46,10.46,0,0,0,111.6,94a10.36,10.36,0,0,0-.34,6,16.83,16.83,0,0,0,1.21,3.63,18.23,18.23,0,0,0,3.19,4.87,11,11,0,0,0,3.52,2.54c.29.12.57.2.85.29,1,.28,1.34.37,1.64.74.07.09.16.17.21.25.19.25-.33.7-1.44.7a7.88,7.88,0,0,1-4.27-1.8A16.63,16.63,0,0,1,113,107.9a21.26,21.26,0,0,1-3.08-6.06Z"/><path class="cls-1" d="M103,88.81c-5-2.39-10-.69-14.47,2.1-1.22.77-.09,2.72,1.14,1.94,3.67-2.3,8-4.11,12.19-2.09,1.3.62,2.45-1.32,1.14-2Z"/><path class="cls-1" d="M115,125.53a2.67,2.67,0,0,0,.16,2.61,2,2,0,0,0,2.58.82,2.18,2.18,0,0,0,1-2.76,2.9,2.9,0,0,0-2.42-1.68,1.11,1.11,0,0,0-1,.56,2.32,2.32,0,0,0-.31.88,1.16,1.16,0,0,0,.79,1.38,1.13,1.13,0,0,0,1.38-.78c0-.09,0-.18,0-.27s0-.15,0-.08l-1,.56c-.19,0,.06,0,0,0l.13.08s.22.18.18.13.06.1.06.1.06,0,0-.08,0,0,0,0c0,.14-.17,0,0,0l.23,0s.32.08.1,0c.1,0,.08.09,0,0,.09.14,0,0,0-.07s.06.15,0,0,0-.23,0-.06c0-.07,0-.14,0-.2,0,.18,0-.08,0,.08a1.15,1.15,0,0,0-.4-1.54,1.14,1.14,0,0,0-1.54.4Z"/><path class="cls-1" d="M448.48,320.5c.33-.56.67-1.1,1-1.64.13-.2.24-.41.38-.6a14.94,14.94,0,0,1,1.69-1.87l.8-.77a3.31,3.31,0,0,1,1.17-.82c.28-.11.47.93.1,1.21-.67.53-1.29,1.12-1.95,1.74a6.89,6.89,0,0,0-1,1.34c-.34.51-.68,1-1,1.58-.19.33-.38.67-.55,1-.27.52-.55,1-.79,1.58s-.3.85-.48,1.27c0,.09-.08.18-.13.27-.2.32-.32.39-.56.36a.76.76,0,0,1-.16,0c-.17,0-.24-.25-.21-.53l.09-.63q.07-.3.18-.6a8.87,8.87,0,0,1,.46-1.17c.27-.58.57-1.15.88-1.72Z"/><path class="cls-1" d="M442.24,325.09l1.13-.28a3.17,3.17,0,0,1,.41-.12,12.47,12.47,0,0,1,1.51-.21c.22,0,.45-.05.67-.09a1.75,1.75,0,0,1,.88,0c.17.07-.14.89-.4.89-.49,0-1,.07-1.56.07a3.68,3.68,0,0,0-1,.23l-1.09.3-.68.2c-.34.11-.69.21-1,.34s-.5.23-.76.34l-.16.07c-.23.06-.31,0-.41-.14a.75.75,0,0,1-.07-.12.32.32,0,0,1,.13-.39,5.31,5.31,0,0,1,1.31-.75q.53-.21,1.08-.39Z"/><path class="cls-1" d="M424.75,323.88a8.49,8.49,0,0,0-.84-.75,3.37,3.37,0,0,0-.35-.22,4.06,4.06,0,0,0-1.25-.62,1.85,1.85,0,0,0-.62,0l-.38.08a1,1,0,0,1-.38.08c-.19,0-.26-.66.13-.83a2.61,2.61,0,0,1,2,.12c.36.19.73.33,1.06.54a8.5,8.5,0,0,1,1,.78l.55.52c.28.27.53.55.8.81s.46.35.69.53l.16.11c.17.15.18.25,0,.47a1.21,1.21,0,0,1-.1.14.34.34,0,0,1-.46.11,5.4,5.4,0,0,1-1.24-1c-.28-.27-.54-.56-.82-.82Z"/><path class="cls-1" d="M429.12,338.24c.49.88,1.67,2.69,2.83,1.46a2.28,2.28,0,0,0,.46-1.33c0-.14,0-.28,0-.42s-.08.25,0,0-.12.19,0,.1c.54-.8-.57-2-1.37-1.37,0,0,.43-.16.44-.12h-.24l-.45,0a3,3,0,0,0-1.26.18,1.35,1.35,0,0,0-.81,1.55,3.48,3.48,0,0,0,1.11,1.62,1,1,0,0,0,1,.25,3,3,0,0,0,1.46-1.09,1,1,0,0,0,0-1.41,1,1,0,0,0-1.42,0c-.17.2-.33.5-.58.58l1,.25-.36-.36a.93.93,0,0,1-.15-.18c0-.06-.08-.16-.12-.21a.22.22,0,0,1,.06.23.71.71,0,0,1-.34.59c.14-.08-.24.1-.07,0l.16,0c-.26.09-.12,0,0,0,.46,0,1.22.16,1.62-.13l-1.37-1.37a2,2,0,0,0-.22.83l0,.32c0,.33.05-.12,0,.14s-.12.24,0,.06c-.05.07.19-.19.24-.21l.63-.09c.17.08.2.1.11,0,.13,0,.09.11,0,0s-.13-.16-.07-.08c-.19-.26-.34-.55-.5-.82a1,1,0,0,0-1.72,1Z"/><path class="cls-1" d="M393,276.23c1.08,2.52,3.71,7,7,6.82,4.18-.24,3.21-7.08,2.63-9.6-.25-1.09-1.93-.63-1.68.47.3,1.35,1.4,8.43-1.77,7.22-2.24-.86-3.79-3.73-4.68-5.8-.44-1-2-.14-1.51.89Z"/><path class="cls-1" d="M407.07,271.9c.87,2.71,3.21,7.66,6.6,7.74,4.83.12,4.17-7.67,4.13-10.64a.88.88,0,0,0-1.75,0c0,1.83.73,9.6-2.7,8.83-2.27-.51-4-4.42-4.59-6.39-.35-1.07-2-.62-1.69.46Z"/><path class="cls-1" d="M408.9,264c1.71-2.59,5-3.67,8-3.55,1.44.06,1.44-2.19,0-2.25a11.37,11.37,0,0,0-10,4.66c-.81,1.21,1.14,2.34,1.94,1.14Z"/><path class="cls-1" d="M404.62,269.2a18.58,18.58,0,0,1,2,6.19,17,17,0,0,1-1.4,10.32,17.65,17.65,0,0,1-1.8,3.13,10.41,10.41,0,0,1-3.38,3.09c-.42.23-.45.05-.24-.34a10.92,10.92,0,0,1,1.13-1.62,19.2,19.2,0,0,0,4-7.62,14.27,14.27,0,0,0,.26-5.34,17.57,17.57,0,0,0-1.56-5.7,12.73,12.73,0,0,0-2-3,5.59,5.59,0,0,0-2.07-1.52,6.16,6.16,0,0,0-2.57-.38,13.92,13.92,0,0,0-4.07,1.1l-.87.35c-1.11.42-1.51.43-2,0a2.09,2.09,0,0,1-.29-.31c-.27-.39.06-.91.87-1.33a18,18,0,0,1,3.93-1.51,9.7,9.7,0,0,1,4.72-.12,7.17,7.17,0,0,1,3.28,1.87,13.18,13.18,0,0,1,2.05,2.78Z"/><path class="cls-1" d="M408.35,297.94c2.89.21,6.35-2,6-5.21-.12-1.27-2.12-1.28-2,0,.2,2.13-2.19,3.35-4,3.21-1.29-.09-1.28,1.91,0,2Z"/><path class="cls-1" d="M101.64,205.58a4.52,4.52,0,0,0,1,3.64,4.69,4.69,0,0,0,3.62,1.33,2.46,2.46,0,0,0,2.16-1.23,5.71,5.71,0,0,0,.59-4.27,4.34,4.34,0,0,0-4-2.82,2.51,2.51,0,0,0-2.5,2.5,2.56,2.56,0,0,0,2.5,2.5c-.82-.08.06,0,0,.05s-.52-.26-.19-.06a.92.92,0,0,1-.41-.37c-.13-.19-.14-.21,0,0-.07-.14-.2-.56-.1-.16s-.12-.69,0-.18.12-.38,0-.13a2.62,2.62,0,0,0-.11.4c-.12.48.22-.44,0,.06l2.16-1.24s-.53,0-.53,0l.28,0a1.17,1.17,0,0,1-.2-.06c.07,0,.57.32.2.08a1.76,1.76,0,0,1,.33.3c.15.19.17.22.08.06l.16.38c-.13-.35.12-.25,0,.16a6.93,6.93,0,0,0,0-.92,2.49,2.49,0,0,0-2.5-2.5,2.57,2.57,0,0,0-2.5,2.5Z"/><path class="cls-1" d="M131.51,230.47a4.73,4.73,0,0,0,4,.4,3.6,3.6,0,0,0,2.23-3.27,5.22,5.22,0,0,0-1.51-3.61c-1.65-1.68-4.23-.26-5.23,1.38a2.53,2.53,0,0,0,.9,3.42,2.56,2.56,0,0,0,3.42-.9c.14-.23.1-.18-.14.15.18-.18.12-.14-.21.13.23-.13.14-.1-.24.08.25-.07.16-.07-.27,0l-1.77-.74c-.09-.11-.24-.36-.08-.09l.16.26c.18.29-.08-.12-.08-.22a.73.73,0,0,0,.08.25c.13.33-.1-.3,0-.33v.21s.11-.69,0-.37.27-.55.13-.31l.11-.15a.87.87,0,0,1,.33-.33c.36-.27.16-.12.07-.07s.59-.23.33-.15.64-.06.35-.05c-.11,0-.38,0,.05,0s.12,0,0,0l-.27-.08c-.27-.07.58.27.1,0a2.5,2.5,0,0,0-2.52,4.32Z"/><path class="cls-1" d="M70.21,227.78c.57.09-1.07-.83-.7-.44a1.21,1.21,0,0,0,.16.16,2.73,2.73,0,0,0,2.52.69A3.08,3.08,0,0,0,74.28,225a2.85,2.85,0,0,0-1.71-2.76,2.68,2.68,0,0,0-1.19-.22c-.13,0-1.2.16-.48.06.3,0,.37,0,.22,0a2.06,2.06,0,0,1,1,.28,2.75,2.75,0,0,0-1.93-.25,2.53,2.53,0,0,0-1.49,1.15c-.58,1.08-.39,2.86.89,3.42a3.64,3.64,0,0,0,1.44.39A4.61,4.61,0,0,0,72,227c.08,0-.77.06-.49.07s.11-.19-.93-.57a1.18,1.18,0,0,1-1.09-.79c0-.12-.17-1-.17-.59v.15A1.81,1.81,0,0,1,69.8,224l1.1-.65h1.29s1.23.82.88.48l-.16-.15a3,3,0,0,0-1.37-.74,2.7,2.7,0,0,0-1.93.26,2.5,2.5,0,0,0,.6,4.57Z"/><path class="cls-1" d="M83.51,201.76c3.21,0,3.22-5,0-5s-3.23,5,0,5Z"/><path class="cls-1" d="M102.15,261.4c.49,1.77,1.76,3.41,3.75,3.46a4.08,4.08,0,0,0,3.58-2.22,5.56,5.56,0,0,0,0-4.95,3.77,3.77,0,0,0-.76-1.2,3.09,3.09,0,0,0-2.86-.68,5.23,5.23,0,0,0-2.28,1.47,2.53,2.53,0,0,0,0,3.54,2.57,2.57,0,0,0,3.54,0,3.74,3.74,0,0,0,.54-.51c.13-.17-.53.34-.2.16a1.65,1.65,0,0,1-1.17.19l-1.5-1.14a4.25,4.25,0,0,1,.27.46c.21.38-.2-.63,0,0l.06.23c0,.26,0,.15,0-.33,0,.14,0,.29,0,.43,0,.42.16-.73,0-.16,0,.12-.1.25-.12.37.2-.45.25-.57.14-.35l-.09.16c-.16.34.48-.51.15-.2s-.25.06.24-.15l-.13.08c-.21.11-.08.06.4-.16-.27,0-.51,0,.33,0-.49,0,.66.15.31.05.48.22.62.27.4.16s-.1,0,.31.26l-.12-.12c-.16-.18-.09-.09.21.28l-.21-.39c.16.41.2.49.11.24a2.76,2.76,0,0,1-.08-.27,2.5,2.5,0,1,0-4.82,1.33Z"/><path class="cls-1" d="M159.72,199.65c3.21,0,3.22-5,0-5s-3.23,5,0,5Z"/><path class="cls-1" d="M139.45,280.1c.1.15.32.63,0,0a6.91,6.91,0,0,0,.33.79,3.39,3.39,0,0,0,1.16,1.22,3,3,0,0,0,4.15-.94,5.62,5.62,0,0,0-.91-6.59,2.51,2.51,0,0,0-3.53,0,2.55,2.55,0,0,0,0,3.54c-.25-.29.15.25.17.28-.22-.33,0,.07,0,.25l0-.23c0,.29,0,.3,0,0l-.07.23-.05.1,2.16-1.24-.22,0,1.22.57a4.06,4.06,0,0,1,.38.6,5.75,5.75,0,0,0-.52-1.09,2.5,2.5,0,0,0-4.32,2.52Z"/><path class="cls-1" d="M91.62,309.82a4.57,4.57,0,0,0,2.43,3.12,3.51,3.51,0,0,0,3.79-.83,5.28,5.28,0,0,0,1.16-6,4,4,0,0,0-3.7-2,2.52,2.52,0,0,0-2.5,2.5,2.55,2.55,0,0,0,2.5,2.5,2,2,0,0,1,.35,0c0,.05-.8-.19-.36,0l.2.06c-.73-.16-.55-.27-.31-.1,0,0-.58-.51-.33-.24s-.43-.59-.25-.32c.07.1.19.4,0-.09s-.08-.2,0-.08-.07.38,0-.42c0,.07,0,.15,0,.22s0,.15,0,.23c0,.31.13-.71.05-.4,0,.15-.06.3-.11.45a1.59,1.59,0,0,0-.07.2c.25-.83.24-.53.12-.32l-.21.37c-.2.34.19-.32.24-.31s-.15.17-.17.18c-.34.4.55-.35.2-.14s.72-.23.23-.11c.81-.19.73-.07.48-.08.58.1.76.12.52.07s-.07,0,.46.2c-.44-.24.51.48.19.16s.28.46.2.26-.1-.16-.14-.24-.1-.45.1.25c0-.14-.1-.27-.14-.41a2.5,2.5,0,1,0-4.82,1.33Z"/><path class="cls-1" d="M152.53,310.42h0l-.73,1.77a5,5,0,0,1,.5-.41,8.21,8.21,0,0,0,1.15-1.35,2.56,2.56,0,0,0,.26-1.93,2.53,2.53,0,0,0-1.15-1.49,2.56,2.56,0,0,0-3.42.89c.14-.2.26-.31,0-.06l-.21.22a5.46,5.46,0,0,1-.45.39,2.5,2.5,0,1,0,4,2Z"/><path class="cls-1" d="M144,52.49c.2.09-.05.29-.56.59a2.58,2.58,0,0,1-.79.26,2.51,2.51,0,0,1-.48-.14,8,8,0,0,1-.78-1.14,2.22,2.22,0,0,1-.32-.89,15.14,15.14,0,0,1-.27-1.91,1.12,1.12,0,0,1,.06-.44,4.44,4.44,0,0,0,.2-1.48c0-.09,0-.17-.05-.26s.11-1.54.25-1.7a10.94,10.94,0,0,1,.89-1.12s0-.13.16-.13c.29,0,.31-.14.4-.25a1.89,1.89,0,0,1,.47-.36,1.08,1.08,0,0,1,.38-.06c.12,0,.34.22.36.26s.2.16.31.23l.11.08a5.2,5.2,0,0,1,.12.6,2.06,2.06,0,0,1,.11.58,5.74,5.74,0,0,0-.17,1.27c0,.07-.07.12-.12.17a6.55,6.55,0,0,0,0,1c-.06.19,0,.39-.2.57a.09.09,0,0,0,0,.11,6,6,0,0,1-.08,1,2.38,2.38,0,0,0,.05.53s0,.07,0,.1,0,.09,0,.13a4.46,4.46,0,0,0,.24,1.25c0,.09-.1.62,0,.72S143.92,52.45,144,52.49Z"/><path class="cls-1" d="M153.65,58.56c0,.21-.26.07-.75-.26a3,3,0,0,1-.59-.58,1.85,1.85,0,0,1-.12-.46,6.73,6.73,0,0,1,.54-1.11,1.9,1.9,0,0,1,.56-.63,15.3,15.3,0,0,1,1.39-1,.91.91,0,0,1,.37-.13,3.09,3.09,0,0,0,1.23-.45c.06,0,.13,0,.16-.16s1.19-.6,1.36-.56c.41.05.81.09,1.21.15.05,0,.1,0,.17.07s.25.16.37.17a1.41,1.41,0,0,1,.48.12c.08,0,.17.15.25.25a.84.84,0,0,1,0,.46c-.06.11,0,.26,0,.39a.93.93,0,0,1,0,.14,6.1,6.1,0,0,1-.74.85,6.84,6.84,0,0,0-1.09.54c-.05,0-.12,0-.19,0a6.22,6.22,0,0,0-.76.5c-.17,0-.28.2-.53.08-.05,0-.08,0-.11,0a4.16,4.16,0,0,1-.83.36,3.19,3.19,0,0,0-.38.26.17.17,0,0,1-.1,0s-.09,0-.11,0c-.29.23-.66.37-.87.7-.05.07-.53.15-.58.25S153.64,58.48,153.65,58.56Z"/><path class="cls-1" d="M208.38,291.05a3.28,3.28,0,0,1,1.23-.35,3.59,3.59,0,0,1,1.11.17.26.26,0,0,1,0,.48,13.59,13.59,0,0,0-1.3.53,6.05,6.05,0,0,0-2.15,1.33,4.63,4.63,0,0,0-1.27,3,8.85,8.85,0,0,0,.79,4.13,10.64,10.64,0,0,0,2.52,3.56,8.34,8.34,0,0,0,1.75,1.22,8.25,8.25,0,0,0,.95.45,6.87,6.87,0,0,0,1,.26l.45.08.46,0a5.53,5.53,0,0,0,.91,0,6.5,6.5,0,0,0,3-1.22c.94-.64,1.68-1.55,1.56-2.27,0-.12,0-.25-.13-.35l-.1-.16-.17-.13a2.76,2.76,0,0,0-.93-.47,3.67,3.67,0,0,0-2,0,3.38,3.38,0,0,0-1.63,1.07,12.36,12.36,0,0,0-.78,1,5.71,5.71,0,0,0-.56,5.22c.07.27.25.5.29.76a3.7,3.7,0,0,0,.88,1.55,8.81,8.81,0,0,0,1.88,1.72c.34.26.7.5,1.07.74s.06.34-.08.31c-.41-.09-.14.14-.13.24s0,.08,0,.1l-.25-.06-.62-.19-.85-.38c-.31-.15-.62-.35-.95-.54s-.62-.45-.92-.67l-.76-.72a7.5,7.5,0,0,1-.76-1,8.44,8.44,0,0,1-.62-1.32,7.82,7.82,0,0,1-.55-3.1,7.45,7.45,0,0,1,.8-3.24,6.58,6.58,0,0,1,1.1-1.63,4.27,4.27,0,0,1,.57-.55c.23-.17.46-.33.7-.48l.36-.2a3.82,3.82,0,0,1,.84-.36,5.23,5.23,0,0,1,2.62-.18,4.46,4.46,0,0,1,2.41,1.2,2.85,2.85,0,0,1,.78,1.32,3,3,0,0,1-.54,2.47,5.43,5.43,0,0,1-1.57,1.47c-.22.15-.43.33-.67.47a7.42,7.42,0,0,1-7,.88,9.52,9.52,0,0,1-3.1-1.95c-.15-.15-.29-.32-.44-.48s-.35-.42-.52-.63a12.17,12.17,0,0,1-2.11-3.66,10.07,10.07,0,0,1-.65-4.24,6.33,6.33,0,0,1,.63-2.24,6.56,6.56,0,0,1,1.49-1.9,3.65,3.65,0,0,1,1-.6C207.79,291.26,208.22,291.16,208.38,291.05Z"/><path class="cls-1" d="M280.69,359a3,3,0,0,1-.59-.58,2.69,2.69,0,0,1-.45-.65.2.2,0,0,1,.24-.28,4.37,4.37,0,0,1,2.5,2.32,4.73,4.73,0,0,1,.24,3.19,7,7,0,0,1-2,3.22,9.58,9.58,0,0,1-3.25,2,6.39,6.39,0,0,1-3.92.19,4.86,4.86,0,0,1-1.61-.8,6.55,6.55,0,0,1-1.87-2.27,5.26,5.26,0,0,1-.57-1.39,2.27,2.27,0,0,1,.21-1.71,2.39,2.39,0,0,1,.93-.81,2.76,2.76,0,0,1,1.29-.29,4,4,0,0,1,3.63,2.54,4.5,4.5,0,0,1,.33,1.27,5.78,5.78,0,0,1-1.9,4.87,2.1,2.1,0,0,1-.58.46c-.49.21-.92.51-1.42.7a5.89,5.89,0,0,1-2.1.44,3.66,3.66,0,0,1-1-.13c-.3-.05-.12-.22,0-.24.31-.05.06-.14,0-.22s0-.05,0-.07a4.89,4.89,0,0,1,.59-.09,6.88,6.88,0,0,0,1.24-.36,7.64,7.64,0,0,0,1.73-1.09,3.63,3.63,0,0,0,.61-.55,4.08,4.08,0,0,0,.93-1.44,4.14,4.14,0,0,0,.06-2.76c-.08-.29-.15-.53-.24-.77a3.89,3.89,0,0,0-.38-.47,2.48,2.48,0,0,0-1.08-.63,2.08,2.08,0,0,0-1.18,0,.64.64,0,0,0-.37.26c-.33.34-.08,1.15.28,1.92a1.73,1.73,0,0,0,.27.43,4.41,4.41,0,0,0,3.52,2,6.16,6.16,0,0,0,2.15-.34l.39-.13a4.78,4.78,0,0,0,.48-.19,6.9,6.9,0,0,0,3.56-3.77,4.76,4.76,0,0,0,.27-1.29,2.9,2.9,0,0,0-.26-1.3A3.55,3.55,0,0,0,280.69,359Z"/><path class="cls-1" d="M328.6,308.2a6.62,6.62,0,0,1,.4-1.28,6.06,6.06,0,0,1,.43-1.14c.12-.23.4-.2.41.1a7,7,0,0,1-.06,1.83,9.58,9.58,0,0,1-.32,1.15,10.64,10.64,0,0,1-1.11,2.12A13.56,13.56,0,0,1,325,314.4a15.55,15.55,0,0,1-5.26,2.54,11.81,11.81,0,0,1-6.08.1,15.91,15.91,0,0,1-1.49-.59,9.27,9.27,0,0,1-1.37-.94,3.94,3.94,0,0,1-1.07-1.49,2.77,2.77,0,0,1-.2-1,2.65,2.65,0,0,1,.13-1,3.67,3.67,0,0,1,2.24-2.32,4.69,4.69,0,0,1,2.67-.2,5.26,5.26,0,0,1,2.3,1.24,12.21,12.21,0,0,1,.84.92,5.88,5.88,0,0,1,.65,1.1,8.69,8.69,0,0,1,.68,2.31c.1.51.13,1,.22,1.53a15.49,15.49,0,0,1-.39,5,10.29,10.29,0,0,1-1.22,3.15,6.89,6.89,0,0,1-.72,1.06,5.57,5.57,0,0,1-.48.57,10.06,10.06,0,0,1-7.39,3.21,5.41,5.41,0,0,1-1.17-.17c-.4-.15-.79-.31-1.19-.44s-.76-.36-1.12-.57a7.11,7.11,0,0,1-1.32-1.12,8.39,8.39,0,0,1-.56-.65l-.45-.72a6.36,6.36,0,0,1-.61-1.52c-.16-.46.1-.28.2-.15.26.41.17,0,.21,0s0-.05.07,0a1.33,1.33,0,0,1,.15.23c.1.14.23.35.38.59a8.39,8.39,0,0,0,.59.77,4.85,4.85,0,0,0,.78.79,3.73,3.73,0,0,0,.43.36l.46.29a4,4,0,0,0,.89.43,2.5,2.5,0,0,0,.73.21l.42.1a1.4,1.4,0,0,0,.38.05,4.71,4.71,0,0,0,.95,0,6.9,6.9,0,0,0,2.78-.76,8.14,8.14,0,0,0,2.45-1.85l.42-.46.3-.43a5.58,5.58,0,0,0,.36-.53c.21-.43.5-.81.69-1.24a9.43,9.43,0,0,0,.35-1.11,14.12,14.12,0,0,0,.4-2.39,14.61,14.61,0,0,0-.09-3.59,7.34,7.34,0,0,0-.5-1.87,6.66,6.66,0,0,0-.37-.81c-.17-.24-.33-.51-.51-.75a3,3,0,0,0-.53-.47,2.65,2.65,0,0,0-2.72-.23,2.06,2.06,0,0,0-.92.95,1.39,1.39,0,0,0,.08,1.16l.19.3a3.44,3.44,0,0,0,.27.27,2.83,2.83,0,0,0,.66.49,7,7,0,0,0,1.57.71l.63.14a3.54,3.54,0,0,0,.8.15,12.05,12.05,0,0,0,4.32-.51,13.59,13.59,0,0,0,4-1.89l.76-.5c.34-.24.71-.57,1.1-.88a9,9,0,0,0,1.59-1.76A9.29,9.29,0,0,0,328.6,308.2Z"/><path class="cls-1" d="M348.12,225.27c-.17,0-.12-.24.07-.56a1.29,1.29,0,0,1,.38-.34,1.9,1.9,0,0,1,.33,0c.06,0,.67.39.9.49a3.17,3.17,0,0,1,.58.37,8.8,8.8,0,0,0,1.15.76,1.16,1.16,0,0,1,.25.2,2.28,2.28,0,0,0,.91.54.22.22,0,0,0,.18,0,5.36,5.36,0,0,1,1.12.35,7,7,0,0,0,.85.47s.09,0,.12.08.17.15.27.18a2.12,2.12,0,0,1,.4.14.83.83,0,0,1,.18.19c.06.06,0,.25,0,.27s0,.16,0,.24a.25.25,0,0,1,0,.09,3.54,3.54,0,0,1-1,.28s-1.31-.13-1.46-.17a.61.61,0,0,1-.21-.11s-1.06-.25-1.09-.28c-.2-.09-.42-.13-.56-.34a.26.26,0,0,0-.11-.07,4.65,4.65,0,0,1-.95-.58c-.15-.11-.32-.2-.48-.3l-.06-.08-.09-.09c-.38-.25-.69-.57-1.06-.81-.09,0-.34-.5-.44-.56S348.19,225.29,348.12,225.27Z"/><path class="cls-1" d="M369.26,204.21c-.14-.18.13-.31.63-.41a2.25,2.25,0,0,1,.72,0,3.62,3.62,0,0,1,.34.29c.05.06.25.94.35,1.24a3.23,3.23,0,0,1,.1.87l.06,1.8a1.39,1.39,0,0,1-.06.4,3.5,3.5,0,0,0-.09,1.4c0,.07,0,.15.07.23a3.71,3.71,0,0,1,0,1.56c-.17.41-.28.82-.42,1.23,0,.06,0,.12-.08.17s-.17.25-.19.38a2.59,2.59,0,0,1-.16.52,1.2,1.2,0,0,1-.22.24.37.37,0,0,1-.33,0c-.07-.08-.18,0-.28,0h-.1a6,6,0,0,1-.53-1.11s-.06-.37-.12-.75-.15-.78-.18-.86a.37.37,0,0,1,0-.25s-.19-1.18-.19-1.23c0-.24-.07-.48.1-.72a.24.24,0,0,0,0-.14,6.43,6.43,0,0,1,0-1.24c0-.22,0-.43,0-.64,0,0,0-.08,0-.12a.43.43,0,0,0,0-.14c0-.51.05-1,0-1.53,0-.12.2-.68.17-.82S369.31,204.28,369.26,204.21Z"/></g></svg>