<?xml version="1.0" encoding="UTF-8"?><svg id="Layer_1" xmlns="http://www.w3.org/2000/svg" width="520" height="520" viewBox="0 0 520 520"><defs><style>.cls-1{opacity:.97;}.cls-1,.cls-2,.cls-3,.cls-4{fill:#231f20;stroke-width:0px;}.cls-2{opacity:.25;}.cls-3{opacity:.3;}.cls-5{opacity:.5;}</style></defs><g class="cls-5"><path class="cls-4" d="M185.68,236.15s.09,0,.13.01l-.5-.07c.11.02.22.05.32.09l-.45-.19c.12.05.23.11.33.19l-.38-.29c.12.09.22.19.31.31l-.29-.38c.09.12.16.24.22.38l-.19-.45c.05.13.09.26.11.39l-.07-.5c.02.13.02.25,0,.38l.07-.5c-.01.09-.03.17-.06.25-.08.25-.09.5-.03.75.01.25.09.48.22.7.12.22.28.39.48.53.18.17.39.28.64.34l.5.07c.34,0,.65-.09.95-.26l.38-.29c.23-.23.39-.51.48-.83.19-.55.15-1.11.05-1.68-.02-.12-.06-.23-.1-.34-.1-.25-.2-.53-.36-.75-.32-.47-.67-.84-1.16-1.14s-1.03-.43-1.6-.46c-.26,0-.5.04-.72.16-.23.08-.43.2-.6.39-.18.17-.31.37-.39.6-.12.22-.17.46-.16.72l.07.5c.09.32.25.59.48.83l.38.29c.29.17.61.25.95.26h0Z"/></g><path class="cls-4" d="M169.91,111.98c.19.17.37.34.55.53.07.07.15.09.22.15.22.23.46.49.67.71.1.1.22.17.33.24.15.08.31.15.41.32.03.05-.04.19-.16.32-.11.13-.28.28-.39.29-.38,0-.76,0-1.02-.25-.15-.16-.39-.16-.58-.24-.21-.09-.42-.2-.61-.34-.12-.08-.24-.16-.37-.23-.19-.11-.37-.24-.58-.29-.16-.04-.37.03-.55.05-.04,0-.09.03-.13.03-.12-.06-.11-.22.05-.7l.11-.33c.13-.36.3-.65.45-.75.43-.26.72-.1,1.01.04.21.12.41.28.61.41l-.02.04Z"/><ellipse class="cls-4" cx="294.28" cy="218.09" rx="4.41" ry="3.46"/><circle class="cls-3" cx="361.31" cy="262.7" r="5.47"/><ellipse class="cls-1" cx="437.45" cy="202.92" rx="3.78" ry="4.41"/><path class="cls-2" d="M338.25,71.13c-.11,1.02-1.53,68.72.02,69.09,4.15.99,66,0,66,0,0,0,.94-64.63-1.19-67.47-2.04-2.72-64.84-1.63-64.84-1.63Z"/><path class="cls-4" d="M325.92,148.04c-.54-.94-.65-1.89-.77-2.72-.04-.31-.12-.62-.14-.93-.1-1.1-.12-2.2-.1-3.29,0-.48.05-.97.07-1.45.04-.61.12-1.23.26-1.83.04-.19.08-.16.13,0,.05.17.14.47.18.82.08.61.15,1.22.23,1.83.08.6.06,1.21.08,1.82.01.73.19,1.48.34,2.21.17.8.31,1.64.64,2.28.21.39.49.74.84,1.02.54.42,1.2.73,1.92.9.56.12,1.14.08,1.71.13.13,0,.25,0,.38.01.47.06.62.21.7.57.02.08.05.16.06.24.03.26-.18.49-.56.61-.56.15-1.16.24-1.77.21-.61-.06-1.23-.2-1.86-.45-.92-.36-1.8-1.09-2.36-2l.03-.02Z"/><path class="cls-4" d="M324.94,64.95c.22-.61.49-1.24.94-1.87.5-.63,1.1-1.11,1.71-1.41.44-.25.86-.45,1.3-.61,1.58-.42,3.09-.42,4.57-.44.66.02,1.31-.07,1.95-.03.41.02.82,0,1.23.07.41.08.82.2,1.22.3.25.07.23.12.02.28-.21.15-.61.5-1.07.73-1.65.61-3.23.53-4.83.59-.96.02-1.88.39-2.7.69-.47.16-.86.39-1.19.65-.3.27-.57.56-.76,1.03-.24.55-.43,1.18-.58,1.83-.21.99-.37,2.02-.43,3.06-.04.81.05,1.61,0,2.44-.01.18,0,.36-.03.55-.08.69-.37.89-.82.93-.11.01-.21.03-.31.03-.33-.02-.56-.34-.69-.8-.1-.69-.22-1.41-.25-2.15-.01-.74.01-1.5.07-2.28.09-1.16.26-2.35.61-3.6h.05Z"/><path class="cls-4" d="M413.92,67.58c-.16-.82-.31-1.59-.81-2.27-.08-.13-.2-.23-.31-.35-.1-.07-.13-.13-.25-.22-.36-.32-.93-.57-1.47-.87-.56-.31-1.16-.56-1.78-.78-.55-.2-1.12-.33-1.68-.47-.73-.16-1.46-.33-2.18-.54-.23-.07-.19-.09.01-.14.2-.04.58-.16,1.02-.2,1.56-.11,3.15-.2,4.71.24.47.13.95.24,1.44.45.49.19,1.01.38,1.53.83.92.83,1.55,1.91,1.88,3.05.17.7.23,1.4.27,2.08.06,1.03-.09,2.03-.19,3-.07.76-.09,1.5-.19,2.24-.02.16-.03.32-.07.49-.13.6-.26.78-.57.86-.07.02-.14.05-.21.05-.23.02-.38-.25-.44-.7-.16-1.4-.3-2.68-.45-4.01l-.09-.71c0-.24-.02-.47-.04-.69-.03-.46-.1-.89-.19-1.3h.06Z"/><path class="cls-4" d="M151.09,474.54l-7.22.09c-.88.02-1.75.09-2.63.1-3.1.04-6.2.03-9.3-.02-1.38,0-2.76.01-4.12.02-.88,0-1.76-.01-2.63-.02-.88.01-1.76-.19-2.63-.29-.55-.08-.47-.12-.01-.26.31-.1.64-.22.95-.32.22-.07.43-.14.64-.21.11-.04.23-.06.35-.11.12-.01.24-.03.37-.04,1.78-.15,3.56-.38,5.34-.44,1.78-.07,3.57-.11,5.37-.1,2.15.05,4.39-.14,6.59-.22l7.27-.22,4.48-.12c2.26-.08,4.53-.08,6.78-.17,1.74-.06,3.45-.26,5.18-.35.38-.01.75-.04,1.14-.03,1.42.01,1.88.23,2.18.65.07.1.16.19.2.29.14.31-.44.61-1.48.82-.77.12-1.55.24-2.33.36-.78.08-1.58.13-2.37.19-1.6.11-3.22.18-4.84.25-2.41.12-4.84.12-7.27.2v-.05Z"/><path class="cls-4" d="M219.78,470.33l-6.52-.08c-.79,0-1.58.06-2.38.05l-4.2-.07-4.2-.17c-1.24-.02-2.49-.05-3.72-.07-1.58-.02-3.17-.08-4.75-.23-.49-.05-.43-.14-.01-.28.42-.14,1.18-.37,2.09-.51,1.61-.2,3.21-.45,4.82-.59,1.61-.1,3.23-.17,4.85-.15,1.95.04,3.96-.1,5.95-.15l6.56-.1,4.04-.06c2.04-.04,4.09-.06,6.11-.15.79-.04,1.56-.11,2.34-.19.78-.06,1.55-.11,2.33-.14.34-.01.68-.05,1.02-.05,1.28-.01,1.7.17,1.98.66.07.11.15.22.19.33.13.35-.38.72-1.31.93-1.38.29-2.8.56-4.24.77-1.44.12-2.91.2-4.38.25-2.18.05-4.38.03-6.57.05v-.06Z"/><path class="cls-4" d="M233.66,464.71c-.2-.47-.43-.95-.77-1.38-.11-.16-.25-.3-.38-.46-.43-.57-.94-1.09-1.52-1.53-.25-.21-.54-.36-.81-.54-.36-.2-.73-.39-1.09-.61-.23-.13.16-.2.64-.07.83.29,1.64.66,2.34,1.22.42.33.88.65,1.29,1.03.43.44.8.94,1.09,1.49.19.33.33.69.47,1.04.18.55.28,1.13.32,1.7,0,.22.06.45.07.67,0,.22,0,.45,0,.67,0,.1-.01.19-.03.29-.08.36-.19.45-.5.44-.07,0-.14,0-.21-.01-.23-.04-.39-.23-.42-.47-.02-.36-.08-.7-.09-1.03-.02-.33,0-.66-.06-.98-.04-.49-.18-.97-.36-1.45h.02Z"/><path class="cls-4" d="M156.71,462.4c-1.09.07-2.21.07-3.34-.1-.39-.06-.75-.06-1.11-.12-1.28-.22-2.49-.28-3.73.09-.57.11-1.13.3-1.68.5-.35.14-.7.28-1.04.42-.36.12-.7.22-1.09.35-.23.07-.2.06-.07-.1.14-.15.36-.52.68-.87.63-.51,1.31-.95,2.02-1.34.36-.18.72-.39,1.12-.47.43-.11.86-.18,1.3-.2,1.03-.05,2.07-.1,3.05,0,.56.07,1.02.15,1.52.18.49.04,1,.04,1.51.02.62-.02,1.25-.08,1.88-.17.95-.14,1.91-.3,2.83-.57.72-.2,1.39-.54,2.08-.8.15-.06.3-.13.45-.18.58-.18.8-.13,1.06.21.06.08.12.16.17.24.15.28,0,.61-.4.86-1.16.79-2.55,1.21-3.96,1.55-1.05.25-2.14.42-3.24.53v-.04Z"/><path class="cls-4" d="M122.27,264.99s2.88-10.58,3.54-12.66c.66-2.08,2.52-8.54,2.52-8.54,0,0,10.13,5.35,12.85,6.52,2.72,1.17,27.34,7.28,30.22,7.7s18.26-1.21,20.58-1.66,4.02-1.79,4.02-1.79l5.82,5.57s-1.73,18.81-.61,25.78c1.12,6.96,4.62,41.65,4.62,41.65,0,0,12.08,58.49,17.57,70.07,5.48,11.58,4.32,29.24,5.11,33.23.78,3.98-3.19,12.42-3.76,14.68-.57,2.26-7.12,6.48-8.83,6.91-1.71.43-14.42.18-15.98-.45s-8.14-3.07-9.81-6.8c0,0,4.76-5.81,2.61-19.43-1.98-12.56-4.56-21.98-8.12-41.48-4.75-25.97-9.25-53.11-12.62-53.95-1.37-.34,5.14,39.02,5.14,39.02l8.29,44.47s2.98,18.33,2.86,20.79-2.62,14.05-5.7,16.93-9.05,6.41-11.5,7.35c-2.45.94-13.61,0-15.62,0s-14.79-2.56-20.84-10.97c-6.05-8.41-12.54-23.18-13.58-27.58-1.04-4.4-5.12-37.49-5.12-37.49l-.66-30.32.54-23.15,1.1-21.83s2.68-15.76,2.65-15.85,3.08,5.73,3.69,4.39,1.87-8.9,1.87-8.9l6.06,8.55s3.78,1.65,3.68.35c-.1-1.3,1.1-2.82,1.1-2.82,0,0,4.07,4.55,4.58,3.68s.66-4.28.66-4.28l-2.48-9.04s6.78,5.51,7.91,4.26-8.14-13.99-8.14-13.99l-9.29-5.96-6.92-2.95Z"/><path class="cls-4" d="M111.68,264.28c-.59.5-1.17,1.03-1.73,1.58-.21.2-.37.44-.57.64-.7.73-1.46,1.42-2.14,2.18-.3.34-.57.71-.84,1.06-.36.45-.72.9-1.1,1.34-.12.14-.14.1-.14-.07.01-.17.01-.5.12-.83.35-1.2,1.02-2.21,1.79-3.14.46-.55.88-1.18,1.36-1.75.53-.62,1.08-1.22,1.65-1.8l1.08-1.06c.55-.53,1.16-1.01,1.75-1.51.46-.39.88-.83,1.44-1.2.13-.08.25-.17.4-.23.24-.16.52-.07.66,0,.16.08.25.21.31.42.03.09.06.18.07.28.04.3-.13.63-.28.84-.54.52-1.31,1.12-2.06,1.78-.56.49-1.16.98-1.73,1.51l-.03-.03Z"/><path class="cls-4" d="M129.21,240.77c.02-.76.12-1.52.26-2.23.05-.26.06-.53.13-.78.25-.9.52-1.77.92-2.59.16-.37.3-.74.44-1.11.17-.47.36-.94.6-1.39.08-.14.14-.1.19.06.05.15.12.43.09.72-.13,1.03-.19,2.05-.52,2.99-.21.56-.24,1.19-.32,1.78-.08.66-.14,1.31-.12,1.96,0,.4.03.8.09,1.2.09.6.21,1.2.47,1.74.2.42.54.75.86,1.05.07.06.15.13.22.19.23.26.18.45-.1.83-.07.09-.12.18-.19.26-.23.28-.56.36-.91.21-.93-.54-1.49-1.56-1.8-2.57-.24-.76-.34-1.54-.36-2.31h.04Z"/><path class="cls-4" d="M187.37,244s3.96,5.79,3.52,7.68c-1.08,4.67-6.53,4.5-7.66,4.4-1.13-.09,11.93-1.38,11.93-1.38l-7.79-10.7Z"/><path class="cls-4" d="M229.14,251.72c-.71,2.09-1.61,4.14-2.77,6.04-.41.7-.84,1.39-1.33,2.04-1.78,2.23-4.05,4.25-6.88,5.07-1.24.35-2.52.49-3.77.48-1.6-.06-3.18-.34-4.65-.9-.46-.17-.4-.15.02-.14.21,0,.51,0,.87-.04.36-.05.78-.06,1.22-.04,1.57.05,3.09-.04,4.54-.3,1.43-.32,2.77-.89,4.04-1.7,1.53-.98,2.75-2.52,3.78-4.08,1.15-1.73,2.06-3.64,2.76-5.64l.6-1.86c.17-.63.35-1.26.5-1.9.45-1.93.77-3.91,1.01-5.87.14-1.53.13-3.04.22-4.56.01-.33.03-.66.04-1,.09-1.25.22-1.65.52-1.92.07-.06.14-.14.2-.18.22-.12.41.39.55,1.33.21,1.38.35,2.82.39,4.28-.02.73-.04,1.46-.07,2.2-.06.74-.13,1.48-.19,2.22-.34,2.19-.87,4.36-1.54,6.49h-.05Z"/><path class="cls-4" d="M218.07,220.2s1.69.35,1.9,1.28c.6,2.61.14,2.58.14,2.58l-2.05-3.86Z"/><path class="cls-4" d="M192.95,210.06c-1.12.22-2.22.32-3.32.46-.4.05-.79.15-1.2.2-1.4.16-2.88.29-4.17.4-.6.08-1.18.25-1.74.44-.74.24-1.4.53-2.3.47-.31-.04-.22.05-.12-.2.07-.3.24-.86.62-1.24.36-.27.75-.48,1.15-.66.41-.14.83-.25,1.25-.35.42-.09.85-.16,1.29-.21.44-.05.91-.05,1.29-.07.97-.02,1.95-.27,2.93-.4,1.07-.16,2.17-.25,3.23-.44.65-.12,1.31-.24,1.95-.41.97-.25,1.95-.53,2.88-.92.72-.3,1.39-.72,2.11-1.07.16-.08.31-.16.48-.22.61-.24.9-.06,1.15.24.06.08.13.15.17.22.15.25-.02.59-.38.94-1.13.85-2.47,1.41-3.92,1.95-1.07.39-2.2.68-3.31.92v-.04Z"/><path class="cls-4" d="M198.1,203.66s8.42-1.82,8.98.01c.56,1.84-8.47,3.72-8.47,3.72l-.51-3.73Z"/><path class="cls-4" d="M180.99,165.07s-6.46,2.99-14.79,1.49c-6.76-1.21-9.46-5.2-13.73-5.2-3.11,0-7.55,2.47-10.8,4.33-3.25,1.87,10.13-8.75,10.13-8.75,0,0,13.17,4.43,15.11,4.83,1.93.39,10.73-1.04,10.73-1.04l1.92.31,1.43,4.02Z"/><path class="cls-4" d="M185.26,163.07s3.11-.34,4.83-2.71c.71-.98-4.21-2.71-4.21-2.71l-2.13,1.55,1.5,3.88Z"/><path class="cls-4" d="M171.57,76.76s-12.18-11.2-19.61-10.83c-7.43.36-16.45,1.52-22.94,7.5-6.49,5.98-10.44,11.63-11.76,14.27s-6.78,13.42-7.72,16.68c-.94,3.27-6.01,13.61-8.5,16.04-2.48,2.43-10.07,8.16-12.46,9.55-2.39,1.39-4.27,5.16-4.46,7.04s1.28,8.51,3.2,8.66c1.92.14,3.76,4.14,3.58,5.46-.19,1.32,0,3.67-1.38,5.47s-3.71,4.87-3.42,7.32c.29,2.45,1.61,6.47,4.43,6.63s9.08,0,10.41.75c1.33.75,3.3,3.92,3.26,5.81s3.96,9.1,13.05,4.33c7.77-4.08,17.51-13.16,17.51-13.16l16.25-9.57,3.16-1.26s-12.84-12.46-14.04-16.08c-1.2-3.62-2.74-8.8-2.74-8.8,0,0-8.78-.28-10.76-3.81-1.98-3.53-3.54-5.86-2.98-8.12.56-2.26,5.28-6.58,6.59-5.46,1.31,1.12,9.52,4.33,10.33,4.08s8.5-6.9,8.5-6.9l9.04-14.62s4.78-8.16,9.85-7.4c5.07.76,9.61,5.44,9.61,5.44,0,0,2.93-2.89,6.13-2.95,3.2-.06,7.85,7,9.1,8.65,1.25,1.65,5.38,14.24,5.29,16.89s-.22,15.64-.49,16.98c-.27,1.35-4.26,12.8-4.81,13.74s-8.16,9.01-8.16,9.01c0,0,15.25,10.04,16.94,12.46,1.69,2.41,3.54,4.22,3.54,4.22,0,0,10.62-2.61,10.01-10.09s-2.47-8.04.03-9.79c2.5-1.75,5.16-6.75,5.62-9.22s-3.04-8.28-4.49-9.82c-1.45-1.54-6.81-5.37-6.43-9.73s2.28-16.17,2.31-16.55-.57-10.5-1.18-13.6c-2.84-14.39-18.19-26.89-29.53-23.34-8.19,2.56-8.92,5.77-8.92,5.77l-.97-1.64Z"/><path class="cls-4" d="M221.66,464.56c2.99.84,6,1.69,8.96,2.03,1.07.11,2.14.06,3-.09.23-.04.45-.1.6-.17.1-.04.13-.07.16-.07.04-.02.07-.05.11-.08.08-.09.13-.22.12-.35,0-.08-.02-.11-.04-.18-.05-.12-.13-.26-.2-.4-.35-.57-.9-1.16-1.49-1.7-1.19-1.09-2.58-2.07-4-2.96-1.5-.94-3.11-1.75-4.72-2.48-1.04-.45-2.09-.89-3.13-1.34l-1.57-.66-.78-.33c-.26-.12-.5-.29-.75-.45-.61-.45-.54-.39.14-.59.34-.08.86-.29,1.42-.27.57-.01,1.22.05,1.87.23,2.35.61,4.52,1.67,6.68,2.76,2.13,1.13,4.22,2.39,6.12,4.07.71.64,1.43,1.3,2.09,2.17.17.21.32.47.47.72.04.06.07.14.1.21l.12.29c.09.19.11.37.15.56.16.74.01,1.54-.43,2.16-.26.36-.62.68-.99.91-.34.2-.68.35-1,.45-.66.22-1.28.31-1.88.35-1.78.12-3.42-.08-5.05-.33-1.62-.26-3.21-.6-4.78-1-1.93-.49-3.83-1.05-5.72-1.61-2.87-.86-5.7-1.84-8.53-2.68l-1.43-.4c-.22-.06-.5-.15-.68-.19l-.37-.07c-.24-.04-.45-.07-.65-.07-.14-.04-.08.18-.08.28.01.13,0,.23.04.36,0,.13.02.26.03.38l.02.14s.01.03.01.08v.18c.03.24.05.48.06.73.09,1.82-.04,2.43-.75,2.87-.16.1-.31.23-.46.29-.5.21-1.08-.51-1.31-1.89-.1-.59-.19-1.19-.27-1.8-.02-.18-.03-.25-.05-.52l-.05-.83c-.03-.57-.05-1.15-.05-1.75.1-.61.3-1.19.64-1.38l.06-.05.03-.03h0s0,0,0,0c.28.41.08.11.14.2h0s.02-.03.02-.03l.12-.14c.08-.09.15-.18.25-.26.19-.15.49-.14.78-.15.61.04,1.31.19,2.01.36l1.48.36c1.46.42,2.91.88,4.36,1.34,3.02.95,6.03,1.93,9.06,2.74v.07Z"/><path class="cls-4" d="M149.95,472.51c-3.44.9-6.9,1.71-10.54,2.1-1.33.13-2.67.3-4.16.1-.16-.01-.34-.06-.51-.09-.18-.05-.32-.04-.56-.15l-.67-.27c-.22-.1-.4-.25-.6-.37-.36-.28-.68-.63-.87-1.05-.12-.2-.13-.44-.18-.66-.02-.23,0-.46,0-.68.1-.89.79-1.83,1.15-2.23.43-.49.88-.91,1.34-1.3,1.85-1.53,3.8-2.71,5.79-3.84,1.76-1,3.54-1.98,5.33-2.86,1.15-.57,2.31-1.14,3.5-1.64.59-.26,1.21-.48,1.84-.64.31-.09.63-.17.95-.24.32-.07.69,0,1.03,0,.87.09.72.03.17.52-.52.62-1.39,1.67-2.66,2.32-2.29,1.09-4.52,2.34-6.75,3.56-2.24,1.2-4.47,2.45-6.54,3.85-.61.42-1.2.88-1.69,1.38-.24.25-.48.51-.65.75-.11.14-.15.23-.19.36-.07.28.19.49.43.55.02.02.2.04.36.07.15.04.32.05.49.06.33.04.71.03,1.07.04,3.29-.07,6.76-.85,10.12-1.68,2.08-.53,4.15-1.12,6.19-1.79,3.09-1.01,6.2-2.1,9.11-3.47l.57-.28.62-.32c.55-.27,1.11-.61,1.67-.94,1.07-.46,1.96-.9,2.24.07.18.37.31.91.33,1.54.04.62.05,1.27.06,1.94.02.66.07,1.12.07,1.7.01,2.06-.18,2.68-.96,3.12-.18.1-.35.24-.54.3-.61.23-1.15-.65-1.29-2.18-.06-.65-.11-1.3-.15-1.95l-.05-.93c-.02-.05-.05-.09-.07-.13-.04-.06-.08-.09-.11-.09-.05.02-.11.11-.13.13l-.02.03h0s0,.02,0,.02c0,0,0,0-.07.04-.47.23-.94.45-1.41.66-.94.43-1.9.83-2.86,1.21-3.34,1.33-6.75,2.43-10.2,3.41l-.02-.06Z"/><path class="cls-4" d="M221.74,398.7c-1.48-5.63-3.1-11.24-4.79-16.83-1.67-5.61-3.47-11.16-5.02-16.89-.27-1.04-.54-2.13-.77-3.2l-.66-3.14c-.45-2.09-.87-4.19-1.28-6.29-2.84-14.82-5.31-29.72-6.9-44.73-.68-6.66-1.33-13.37-1.71-20.01-.45-8.52-.82-17.17.48-25.66.45-2.64.55-2.27.94,0,.35,2.27,1.12,6.41,1.13,11.27.2,17.26,1.69,34.5,4.02,51.83,1.37,10.37,3.52,21.06,5.69,31.55l.9,4.32c.29,1.43.64,2.8,1.04,4.21.79,2.81,1.66,5.62,2.54,8.44,1.75,5.63,3.52,11.27,5.17,16.95,2.03,6.99,3.91,14.04,5.39,21.19,1.13,5.41,2,10.91,2.33,16.48.13,2.79.12,5.59-.19,8.39-.32,2.79-.96,5.63-2.38,8.19-2.18,4-6,6.81-10.1,8.36-4.13,1.54-8.61,2-12.99,1.45-1.93-.24-3.81-.64-5.67-1.3-3.47-1.23-5.47-2.79-6.67-3.99-.6-.61-1.01-1.16-1.29-1.65-.25-.52-.42-.96-.5-1.39-.07-.39-.22-.85-.22-1.09.01-.42.53-.13,1.56.55.26.16.57.33.86.57.32.21.66.44,1.03.71.77.48,1.64,1.04,2.69,1.57,6.11,3.25,13.99,3.73,20.56,1.2,3.27-1.27,6.15-3.43,7.83-6.36.81-1.46,1.44-3.07,1.77-4.87.23-.87.29-1.81.44-2.71.07-.93.16-1.86.19-2.81.11-2.81-.08-5.67-.36-8.54-.28-2.87-.72-5.74-1.23-8.61-1.02-5.74-2.4-11.45-3.9-17.12l.07-.03Z"/><path class="cls-4" d="M131.53,294.21c.29.34.59.68.9.96.15.15.3.27.46.4l.11.08s.02.02.03.03c.01.02.03.03.05.04.07.06.17.11.28.1.11-.01.18-.11.21-.22,0-.04.01-.08,0-.13,0-.05,0-.05-.03-.24-.04-.3-.1-.62-.16-.95-.44-2.35-1.31-4.79-2.3-7.12-.45-1.03-.94-2.06-1.48-3.05-.67-1.28-1.54-2.42-1.77-3.98-.05-.51-.1-.41.32-.23.21.09.53.21.94.35.37.17.7.43,1,.75.27.28.49.59.69.92l.6.97c.39.65.77,1.31,1.12,1.98.68,1.36,1.23,2.78,1.7,4.25.54,1.77,1.34,3.49,1.68,5.5.02.14.03.29.05.43.02.15.04.39.03.59.02.41-.03.82-.13,1.19-.2.73-.73,1.38-1.48,1.55-.72.22-1.51.04-2.21-.33-.18-.08-.36-.19-.51-.29-.13-.08-.25-.17-.36-.25-.23-.17-.44-.35-.65-.54-1-.92-1.81-1.92-2.56-2.96-1.14-1.57-2.09-3.25-3.02-4.91-.71-1.3-1.49-2.54-2.11-3.92-.14-.3-.28-.6-.4-.91-.4-1.19-.3-1.66.34-2.04.14-.09.28-.19.42-.24.47-.18,1.02.18,1.36.9,1.08,2.15,2.26,4.44,3.6,6.65.99,1.63,2.09,3.24,3.29,4.62l-.05.05Z"/><path class="cls-4" d="M168.7,257.73c-3.61-.39-7.21-.86-10.76-1.59-1.3-.26-2.61-.42-3.89-.77-4.53-1.08-8.98-2.56-13.24-4.43-1.91-.78-3.77-1.71-5.63-2.57-1.17-.61-2.34-1.23-3.47-1.92-.58-.32-1.08-.76-1.62-1.16-.27-.19-.51-.42-.75-.66-.24-.24-.37-.61-.6-.86-.51-.68-.48-.53.25-.37.34.11,1.04-.05,1.64.1.61.12,1.25.37,1.89.72,1.19.53,2.32,1.14,3.45,1.76l3.51,1.65c1.2.5,2.39,1.01,3.59,1.52,1.21.48,2.43.97,3.65,1.45,1.46.6,3.03.99,4.58,1.44,1.57.39,3.17.7,4.74,1.08,3.49.68,7,1.31,10.54,1.67,1.09.1,2.18.25,3.28.32l3.29.2c1.66.09,3.33.08,5,.12,1.66-.02,3.33-.08,4.98-.17,1.28-.12,2.54-.27,3.8-.44,1.25-.19,2.49-.44,3.74-.65.55-.09,1.08-.21,1.63-.32,2.04-.39,2.72-.31,3.31.38.13.15.3.3.39.46.31.53-.45,1.19-1.97,1.6-4.5,1.24-9.42,1.8-14.34,1.88-1.83.08-3.66-.01-5.49-.02-1.83-.09-3.66-.19-5.49-.33v-.07Z"/><path class="cls-4" d="M127.41,241.63c1.02-2.94,1.94-5.88,2.77-8.85l.76-3.28c.96-3.83,1.74-7.73,2.2-11.68.16-1.76.33-3.52.34-5.28.1-2.25-.15-4.5.4-6.78.19-.71.28-.62.63-.04.18.29.42.71.7,1.22.25.51.44,1.12.55,1.78.14,1.17.13,2.35.16,3.52.02,1.18.05,2.36-.02,3.54-.06,1.18-.16,2.36-.32,3.53-.17,1.17-.36,2.35-.57,3.52-.32,1.39-.52,2.82-.77,4.26-.27,1.43-.5,2.88-.88,4.27-.75,3.1-1.73,6.12-2.7,9.13l-1.88,5.51c-.95,2.78-1.94,5.55-2.76,8.33-.64,2.16-1.09,4.33-1.58,6.5-.1.48-.2.95-.3,1.43-.41,1.78-.75,2.29-1.48,2.52-.16.05-.33.13-.49.15-.5.06-.76-.77-.59-2.13.5-4.03,1.56-8.17,2.83-12.22.93-3.02,1.97-6,2.92-8.98l.07.02Z"/><path class="cls-4" d="M195.94,191.14c.1-1.04.23-2.08.36-3.12.07-.52.14-1.05.22-1.56.08-.5.15-.99.21-1.49.09-.72.08-1.44.11-2.15.06-1.25.03-2.5-.21-3.69-.05-.28-.13-.63-.21-.84-.05-.19-.19-.45-.34-.7-.3-.51-.69-1.01-1.09-1.5-.73-.87-1.59-1.65-2.48-2.35-1.17-.87-2.36-1.7-3.51-2.46-.35-.25-.31-.44.18-.65.51-.25,1.48-.34,2.34.05.78.32,1.46.77,2.11,1.25.66.47,1.28.99,1.88,1.53.6.55,1.16,1.14,1.7,1.78.52.67,1.04,1.33,1.39,2.43.5,2,.77,4.04.7,6.02-.04,1.08-.16,2.16-.29,3.2-.14,1.01-.27,2.04-.37,3.06-.14,1.26-.25,2.53-.33,3.8-.12,1.92-.23,3.85-.13,5.75.08,1.47.36,2.9.69,4.27.08.3.18.58.25.88.31,1.06.27,1.33-.26,1.87-.12.12-.22.26-.33.36-.2.17-.43.19-.72.05-.29-.13-.63-.48-.82-.93-.64-1.37-.95-2.79-1.13-4.22-.19-1.43-.25-2.87-.26-4.3,0-2.13.13-4.24.29-6.35h.06Z"/><path class="cls-4" d="M174.85,189.31c.9,1.77,2,3.53,3.16,5.26.43.63.91,1.21,1.35,1.85,1.5,2.25,3.08,4.49,4.44,6.9l.91,1.61c.29.55.57,1.1.83,1.65.66,1.44,1.19,3.02,1.03,4.66-.02.5-.19.43-.5.06-.32-.38-.77-.99-1.25-1.7-1.32-2.58-3.1-4.98-4.62-7.72-.93-1.62-2.22-3.11-3.35-4.68-1.24-1.73-2.45-3.52-3.55-5.4-.66-1.17-1.27-2.38-1.76-3.67-.39-.96-.63-2.01-.8-3.06-.14-1.06-.1-2.13.04-3.17.22-1.61.59-3.2,1.44-4.69.19-.33.38-.66.65-.96.97-1.16,1.99-1.12,2.37-.54.09.13.19.25.22.37.06.2-.05.42-.12.64-.07.23-.16.45-.33.71-.59.75-1.1,1.9-1.43,3.02-.34,1.15-.48,2.37-.42,3.54.14,1.72.79,3.5,1.74,5.26l-.06.03Z"/><path class="cls-4" d="M176.42,176.27l-.09.2c-.02.07-.09.15-.07.15-.01.02-.03.02-.05.05l-.04.14c-.05.21-.04.53-.01.85.03.24.14.47.18.72.16.9.2,1.93.4,2.9.09.44.18.88.29,1.3.19.54.04,1.19.02,1.78-.02.19-.16.18-.37.07-.11-.05-.23-.13-.36-.22-.14-.09-.34-.18-.47-.3l-.36-.31c-.06-.05-.12-.1-.19-.15l-.11-.17c-.15-.23-.3-.47-.44-.71-.28-.48-.39-1.04-.49-1.62-.05-.35-.18-.68-.32-1.02-.12-.35-.25-.69-.33-1.06-.16-.82-.35-1.67-.1-2.86.16-.54.38-1.02.64-1.51.39-.74.97-1.41,1.65-1.97.52-.44,1.09-.89,1.78-1.15.15-.05.29-.14.45-.16.58-.1.77.13.84.88.02.17.04.35.04.52,0,.59-.19,1.07-.41,1.24-.67.56-.9.79-1.26,1.17-.25.29-.54.71-.74,1.25l-.07-.02Z"/><path class="cls-4" d="M209.87,130.49c-.94-2.1-1.21-4.32-1.21-6.39,0-2.09.27-4.09.58-6.04.32-1.94.73-3.86,1.01-5.68.27-1.84.43-3.71.51-5.59.11-2.74-.02-5.56-.13-8.3-.26-4.7-1.58-9.44-3.63-13.77-2.05-4.32-4.98-8.3-8.83-11.07-1.71-1.21-3.61-2.16-5.62-2.76-2-.58-4.12-.81-6.17-.72-2.62.11-5.1,1.02-7.19,2.62-2.14,1.56-3.77,3.77-5.94,5.6-.76.51-1.1.74-1.11.7-.03-.05.22-.4.41-1.18.21-.78.55-1.84,1.15-3.06.62-1.19,1.57-2.47,2.89-3.65,1.17-1.04,2.51-1.97,4-2.66,1.48-.69,3.11-1.13,4.72-1.29,3.21-.26,6.32.19,9.29,1.28,1.47.56,2.87,1.26,4.19,2.1,1.3.85,2.52,1.82,3.64,2.87,2.22,2.13,4.06,4.58,5.53,7.21,1.76,3.14,3.18,6.51,4.19,10.04.5,1.76.9,3.56,1.15,5.4.13.91.21,1.85.25,2.77l.09,2.68c.09,3.92,0,7.9-.64,11.86-.65,3.89-1.53,7.63-1.39,11.32.08,2.27.63,4.36,1.9,6.21,1.24,1.86,2.93,3.52,4.58,5.32,1.23,1.37,2.48,2.84,3.33,4.63.2.45.42.9.55,1.38.16.47.3.95.38,1.45.17.99.18,2,.06,2.99-.27,1.97-1.07,3.88-2.39,5.39-.66.77-1.36,1.35-2,1.97-.65.61-1.26,1.21-1.76,1.85-.38.49-.67,1.01-.76,1.46-.06.32.09.9.31,1.46.48,1.16,1.19,2.38,1.81,3.65.63,1.28,1.21,2.64,1.54,4.15.33,1.49.36,3.17-.12,4.74-.06.36-.24.67-.36,1-.14.33-.25.66-.44.98-.34.64-.79,1.24-1.31,1.77-.97.98-1.94,1.53-2.75,1.91-.82.37-1.5.56-2.07.65-1.14.18-1.82.03-2.4-.3-.26-.15-.59-.3-.75-.47-.27-.3.03-.66.74-1.07.71-.42,1.86-.9,3.1-1.61.93-.53,1.69-1.18,2.23-1.94.26-.39.48-.78.63-1.26.21-.45.27-.92.38-1.38.24-1.89-.44-3.96-1.54-6.14-.54-1.12-1.17-2.21-1.74-3.68l-.2-.61-.09-.31-.07-.38c-.03-.27-.1-.48-.09-.8,0-.33.03-.65.08-.98.26-1.14.77-1.92,1.26-2.59,1-1.3,2.06-2.2,2.99-3.07.47-.43.86-.81,1.16-1.17.31-.38.58-.8.81-1.25.68-1.33.94-2.91.71-4.36-.1-.72-.38-1.45-.7-2.17-.38-.71-.79-1.42-1.35-2.12-1.06-1.4-2.41-2.76-3.77-4.25-1.35-1.49-2.74-3.17-3.7-5.26l.06-.04Z"/><path class="cls-4" d="M85.19,131.02c.8-1.25,1.76-2.39,2.87-3.38,1.1-.99,2.28-1.8,3.43-2.52,2.32-1.43,4.54-2.57,6.26-4.1,3.64-3.2,6.21-7.54,8.18-12.2,1.47-3.4,2.58-7.03,3.92-10.61,4.29-12.92,13.55-24.77,26.21-30.51,2.78-1.3,5.78-2.19,8.83-2.7,1.52-.3,3.08-.33,4.63-.42l2.32.08c.77.06,1.53.18,2.3.26,1.95.33,3.9.77,5.75,1.49,1.87.67,3.68,1.54,5.33,2.64,1.67,1.07,3.21,2.35,4.59,3.8.71.7,1.31,1.5,1.86,2.34.27.42.55.83.78,1.29.22.45.53.85.6,1.39.18.61.2,1.09.23,1.38.02.29,0,.42-.04.42-.12.01-.34-.57-1.12-1.26-.75-.7-1.79-1.64-3.16-2.56-1.33-.96-2.83-2.06-4.54-3.13-.77-.46-1.52-.94-2.32-1.32-.77-.45-1.59-.8-2.39-1.17-1.65-.66-3.33-1.25-5.08-1.56-3.48-.73-7.08-.65-10.59.06-7.06,1.42-13.63,5.43-19.03,10.63-3.22,3.14-6.01,6.88-8.19,10.97-.57,1.01-1.01,2.08-1.52,3.12-.45,1.08-.91,2.17-1.33,3.27-.85,2.21-1.64,4.46-2.45,6.7-1.8,4.93-3.71,10.02-6.82,14.55-1.56,2.26-3.39,4.31-5.55,6.1-2.22,1.75-4.63,2.91-6.72,4.3-1.29.85-2.44,1.79-3.4,2.92-.95,1.14-1.75,2.42-2.27,3.8-.53,1.36-.8,2.82-.63,4.2.14,1.4.78,2.6,1.78,3.72.76.85,1.66,1.65,2.56,2.56.88.9,1.81,1.96,2.31,3.34.28.68.36,1.42.39,2.14-.03.73-.15,1.46-.4,2.11-.48,1.32-1.25,2.41-2.01,3.4-1.52,1.96-3.13,3.78-3.6,5.83-.44,2.02.39,4.33,1.97,5.69,1.21,1.08,2.88,1.43,4.67,1.47,1.77.07,3.72-.16,5.75.22,1,.19,2.03.5,2.98,1.09.95.58,1.8,1.45,2.27,2.57.46,1.08.57,2.14.62,3.13.05,1,.02,1.95.02,2.87,0,.8.01,1.58.11,2.26.1.67.31,1.23.63,1.7.29.44.66.76,1.07.99.39.25.84.39,1.24.52.84.22,1.6.25,2.23.27,1.27.02,2.07.03,2.8.2.33.07.76.08.99.17.39.14.07.6-1,1.2-.53.3-1.27.58-2.21.79-.93.2-2.09.31-3.42.07-.99-.19-2.01-.57-2.9-1.26-.9-.68-1.6-1.66-1.99-2.7-.38-1.06-.49-2.1-.52-3.01-.04-.92-.01-1.79-.02-2.62.02-1.62-.13-3.23-.67-3.87-.58-.8-1.8-1.3-3.25-1.48-1.41-.2-3.1-.02-5.03-.09-.96-.04-2-.14-3.07-.43-1.05-.28-2.18-.83-3.08-1.55-1.83-1.46-2.99-3.55-3.35-5.84-.17-1.14-.13-2.35.19-3.52.32-1.13.81-2.12,1.37-2.98.82-1.27,1.72-2.31,2.5-3.3.79-.98,1.46-1.92,1.78-2.76.34-.83.35-1.56.05-2.32-.32-.74-1.02-1.55-1.92-2.41-.89-.86-1.96-1.77-2.96-2.98-1.01-1.22-1.83-2.89-2.06-4.54-.52-3.37.6-6.45,2.18-8.97l.08.03Z"/><path class="cls-4" d="M138.61,117.3c1.41.35,3.29-.52,4.95-1.83,1.68-1.33,3.22-3.02,4.64-4.83,1.04-1.32,1.93-2.76,2.88-4.17,1.68-2.49,3.23-5.08,4.79-7.72,1.54-2.75,3.68-5.39,6.4-7.25,1.21-.82,2.54-1.52,3.99-1.95,1.44-.43,3-.6,4.51-.39.48.07.96.17,1.43.28.51.16,1,.35,1.45.61.9.5,1.67,1.15,2.31,1.88,1.22,1.52,1.96,3.36,2.02,5.25-.07.6-.17.85-.25.84-.1,0-.21-.27-.55-.65-.63-.79-1.93-1.93-3.21-2.95-.53-.49-1.03-.96-1.58-1.27-.27-.16-.54-.27-.8-.37-.14-.03-.24-.07-.4-.1-.17-.02-.34-.06-.5-.1-1.33-.29-2.7-.19-4.04.29-2.71.92-5.21,3.2-7.13,5.83-.55.77-1.11,1.75-1.65,2.67-.55.95-1.09,1.9-1.64,2.85-1.11,1.91-2.25,3.84-3.51,5.67-1.39,2.01-2.9,3.97-4.62,5.79-1.74,1.78-3.68,3.55-6.3,4.5-1.6.58-3.56.64-5.2-.1-1.67-.73-2.7-1.93-3.76-2.38-.79-.37-1.67-.44-2.64-.26l-.72.15c-.21.06-.41.13-.61.23-.4.19-.79.45-1.14.77-1.39,1.28-2.36,3.31-2.25,5.18.05,1.47.76,2.87,1.8,3.96,1.03,1.11,2.36,1.96,3.76,2.55.32.11.62.24.94.33.31.08.63.16.95.25,1.19.28,1.88.23,2.4.36.47.03.83.25,1.24.47.19.11.45.19.62.3.3.18.29.51-.19,1.07-.23.32-.61.46-1.09.69-.24.11-.49.14-.77.2-.28.05-.59.11-.89.1-1.85.04-3.59-.42-5.21-1.17-1.62-.76-3.13-1.83-4.4-3.29-1.25-1.44-2.23-3.39-2.37-5.56-.15-2.19.52-4.21,1.59-5.93.82-1.28,1.94-2.45,3.5-3.24.39-.19.81-.35,1.24-.47l1.1-.24c.38-.06.78-.1,1.18-.13.42.01.83-.02,1.27.06.87.08,1.74.4,2.47.78.74.39,1.31.83,1.78,1.18.97.73,1.52,1.06,2.25,1.18v.08Z"/><path class="cls-4" d="M180.18,172.16c-.12.54-.18,1.25-.11,1.96.01.26.12.5.14.77.09.94.17,1.93.4,2.88.11.42.23.84.35,1.26.18.53.29,1.08.42,1.64.03.18-.16.21-.4.14-.25-.06-.49-.25-.73-.48-.38-.45-.77-.9-1.1-1.39-.25-.52-.46-1.06-.59-1.64-.15-.69-.55-1.33-.72-2.06-.2-.79-.35-1.6-.39-2.47-.03-.54.05-1.1.17-1.67.22-.92.8-1.7,1.53-2.27.56-.44,1.18-.85,1.9-1.04.16-.04.32-.1.48-.11.31-.02.52.05.63.22.12.15.14.43.11.78-.01.16-.02.31-.05.45-.09.43-.38.98-.57,1.14-.64.45-.92.71-1.08.92-.15.2-.28.41-.33.97h-.07Z"/><path class="cls-4" d="M215.09,212.56c.35,1.01.72,2.02,1.15,3.01.17.36.35.7.51,1.06.51,1.3,1.06,2.59,1.71,3.83.3.55.64,1.07.94,1.61.42.67.84,1.34,1.17,2.09.1.23-.05.31-.35.27-.29-.04-.77-.17-1.13-.49-.62-.57-1.26-1.14-1.77-1.8-.47-.69-.89-1.41-1.24-2.18-.41-.92-1.05-1.75-1.54-2.65-.52-1-.97-2.03-1.4-3.08-.27-.64-.51-1.29-.77-1.93-.38-.98-.69-1.98-1.08-2.95-.3-.75-.71-1.46-1.02-2.22-.07-.16-.16-.32-.21-.5-.19-.64-.05-.9.55-1.18.14-.06.27-.14.41-.19.48-.17.95-.01,1.24.38.4.6.75,1.21,1.04,1.85.3.64.51,1.32.76,1.99.35,1,.69,2.02,1.08,3.02l-.06.03Z"/><path class="cls-4" d="M229.57,219.36c1.07,4.94,1.77,9.96,2,15.02.23,5.06-.01,10.16-1.04,15.18-.78,3.64-1.83,7.33-3.97,10.6-.95,1.43-2.1,2.77-3.54,3.83-.71.53-1.52.99-2.33,1.32l-1.22.46c-.42.12-.84.22-1.26.33-1.69.36-3.44.48-5.14.25-1.69-.23-3.34-.66-4.88-1.3-3.1-1.25-5.83-3.17-8.29-5.3-2.46-2.15-4.62-4.58-6.59-7.13-3.51-4.54-6.39-9.54-8.81-14.66-1.53-3.3-2.93-6.68-4.02-10.16-.53-1.74-1.02-3.5-1.43-5.27-.09-.45-.24-.88-.29-1.33l-.17-1.36c-.13-.9-.21-1.81-.32-2.71-.26-2.25-.22-1.94.4-.13.29.91.85,2.17,1.58,3.65.66,1.5,1.27,3.29,1.97,5.22.28.86.63,1.7.93,2.56.28.86.62,1.7.93,2.55.64,1.69,1.33,3.37,2.08,5.02,1.48,3.3,3.17,6.51,5.06,9.58,1.89,3.08,4.02,6.01,6.4,8.7,2.37,2.7,5.05,5.13,8.05,7.05,1.8,1.12,3.75,2.03,5.81,2.5,2.05.49,4.2.51,6.21-.02,2.04-.54,3.86-1.47,5.21-3.08,1.38-1.55,2.43-3.46,3.22-5.47,1.72-4.46,2.4-9.37,2.6-14.25.19-4.9-.12-9.83-.85-14.71-.88-6.01-2.39-11.93-4.44-17.65-3.02-8.71-7.7-16.8-13.03-24.28-4.14-5.81-8.77-11.11-13.8-15.97-.57-.51-1.14-1.02-1.7-1.53-.56-.52-1.14-1.01-1.74-1.49-.54-.46-1.04-.88-1.5-1.26-.47-.36-.9-.69-1.29-.98-.38-.31-.73-.58-1.05-.83-.32-.23-.61-.44-.87-.64-1.01-.84-1.55-1.35-1.94-1.99-.18-.28-.45-.61-.54-.84-.15-.39.35-.45,1.48-.21.28.06.61.13.95.25.34.13.68.3,1.07.49.77.37,1.67.84,2.56,1.49,1.39.9,2.65,1.95,3.95,2.97,1.22,1.09,2.5,2.16,3.66,3.34,2.41,2.29,4.62,4.78,6.81,7.32,4.31,5.14,8.27,10.68,11.82,16.52,2.62,4.32,4.98,8.94,6.83,13.7,1.89,4.75,3.37,9.65,4.5,14.63l-.07.03Z"/><path class="cls-4" d="M106.83,194.5c-5.71,5.73-11.11,11.79-15.76,18.37-1.72,2.39-3.2,4.92-4.68,7.43-2.54,4.46-4.66,9.19-5.74,14.13-.17.61-.25,1.24-.33,1.86-.07.62-.2,1.25-.23,1.87.02,1.23-.12,2.47.1,3.71.19,2.49,1.01,4.91,1.9,7.29,1.74,4.18,4.28,8.08,7.1,11.66,1.8,2.32,3.81,4.47,5.78,6.68,2,2.17,3.98,4.38,5.8,6.77,1.13,1.5.94,1.33-.43.49-.68-.43-1.72-.96-2.88-1.7-.58-.37-1.24-.75-1.87-1.23-.61-.5-1.25-1.04-1.88-1.63-1.1-1.08-2.23-2.13-3.26-3.28-1.05-1.13-2.04-2.32-3.04-3.52-1.97-2.4-3.78-4.97-5.41-7.66-1.61-2.72-2.91-5.66-3.84-8.76-.87-3.12-1.2-6.46-.85-9.72.45-3.85,1.55-7.59,3.01-11.15,1.46-3.57,3.23-7,5.24-10.23,2.22-3.54,4.67-6.92,7.25-10.18,2.6-3.24,5.34-6.36,8.16-9.4,3.5-3.71,7.15-7.27,10.9-10.71,5.67-5.22,11.69-10.1,17.79-14.71,4.76-3.56,9.47-7.03,14.56-10.08,1.13-.66,2.21-1.34,3.4-1.94,2.17-1.14,3.7-1.74,4.83-2.02,1.11-.32,1.85-.23,2.46-.02.28.1.63.17.8.3.3.21,0,.58-.72,1.07-.73.48-1.91,1.09-3.43,1.88-4.53,2.33-8.99,5.24-13.41,8.29-4.42,3.07-8.8,6.36-13.06,9.81-6.32,5.13-12.46,10.58-18.19,16.4l-.06-.05Z"/><path class="cls-4" d="M113.29,231.25c-.7.83-1.37,1.68-2.02,2.54-.33.43-.64.86-.94,1.3l-.4.58s-.09.1-.12.16c0,0,0,.02,0,.02,0,.04,0,.09.03.14l.03.05.07.17.47.9c1.23,2.36,2.95,4.66,4.69,6.85.79.96,1.68,1.85,2.59,2.67.57.54,1.16,1.07,1.77,1.55.29.26.57.54.88.78.15.12.29.27.43.42.14.14.31.23.45.41.32.53.36.27-.13.33-.24.03-.62.07-1.06.06-.42-.03-.94-.1-1.4-.3-.81-.39-1.53-.87-2.26-1.35-.7-.51-1.34-1.09-1.96-1.67-1.23-1.18-2.41-2.43-3.36-3.87-1.15-1.71-2.56-3.26-3.62-5.27-.13-.23-.21-.46-.37-.87-.14-.37-.15-.74-.22-1.11.06-.34.19-.67.36-.99l.23-.48.21-.31c.26-.39.53-.77.79-1.13.54-.74,1.09-1.45,1.65-2.15.87-1.1,1.79-2.15,2.71-3.21,1.4-1.59,2.92-3.09,4.43-4.56,1.18-1.15,2.31-2.32,3.66-3.36.29-.23.61-.44.93-.65.59-.39,1.07-.54,1.44-.53.36,0,.62.15.88.45.12.14.25.26.33.41.28.5-.04,1.15-.73,1.61-2.03,1.58-4.09,3.5-6.1,5.58-1.47,1.56-2.93,3.19-4.28,4.91l-.06-.04Z"/><path class="cls-4" d="M120.72,297.18c-.58-.45-1.1-1.38-1.53-2.35l-.32-.73-.25-.63-.3-.84c-.39-1.12-.71-2.24-1.05-3.36-.24-.81-.55-1.6-.78-2.42l-1.18-4.29c-.2-.71-.41-1.42-.63-2.11-.11-.34-.23-.69-.35-1.01-.13-.33-.25-.63-.35-.73l-.04-.02s-.18-.18-.28-.27l-.36-.3c-.24-.2-.49-.39-.75-.59-.52-.38-1.04-.76-1.55-1.14-1.37-.98-2.72-2.14-3.64-3.63-.29-.46-.21-.43.23-.24.22.1.54.21.93.34.4.11.84.26,1.24.5.48.26.96.51,1.45.76.49.24.93.56,1.41.84.47.29.95.59,1.43.91l.72.49.36.26c.13.09.19.18.47.34.11.1.18.23.27.33.11.11.17.22.23.33.14.24.18.37.27.56.13.32.24.64.34.94.19.61.36,1.2.51,1.8.51,2.04,1.28,4.05,1.91,6.06l1.05,3.3.55,1.63.4,1.15c.12.31.24.66.46.96.1.17.32.24.47.13.15-.09.24-.25.31-.41.1-.25.16-.52.2-.8l.05-.43.02-.33.02-.39c.04-1.06.02-2.12-.05-3.19-.11-1.65-.42-3.27-.68-4.9-.06-.36-.14-.71-.18-1.07-.17-1.35-.04-1.81.62-2.15.15-.08.29-.18.44-.23.49-.17,1,.34,1.23,1.32.69,2.9,1.06,6.02,1.07,9.28l-.02.92-.02.46c0,.18-.01.24-.04.59-.09,1.14-.25,2.32-.64,3.15-.1.19-.2.38-.31.56-.12.14-.23.33-.37.44-.25.27-.55.46-.92.59-.36.11-.85.2-1.18.07-.33-.1-.62-.16-.92-.39v-.08Z"/><path class="cls-4" d="M138.68,294.85c.29.39.69.79.86.91.06.06.18.1.26.03.08-.06.11-.03.21-.39.09-.29.12-.67.11-1.07-.01-.67-.18-1.38-.33-2.09-.55-2.55-1.54-5.11-2.69-7.56-.52-1.09-1.13-2.14-1.76-3.15-.43-.63-.8-1.31-1.19-1.97-.4-.66-.77-1.32-1.13-2.03-.23-.43-.2-.39.19-.19.28.13.58.28.86.41.34.19.7.45,1.03.78.29.29.58.59.86.89l.42.46.34.51c.45.68.87,1.37,1.27,2.08.8,1.41,1.51,2.88,2.09,4.41.67,1.84,1.54,3.69,1.96,5.75.15.74.25,1.5.22,2.33-.02.42-.08.85-.22,1.29-.15.48-.47,1.01-.88,1.37-.46.34-1.01.6-1.59.52-.55-.03-1.16-.35-1.5-.6-1.27-.98-2.01-2.13-2.76-3.27-1.11-1.74-2.03-3.55-3.02-5.28-.78-1.34-1.6-2.63-2.4-3.92-.18-.28-.37-.55-.53-.84-.61-1.07-.6-1.51-.29-2.03.07-.12.13-.26.21-.36.26-.33.88-.1,1.57.6,1.9,2.15,3.34,4.66,4.69,7.16,1.01,1.84,2.06,3.7,3.21,5.18l-.04.04Z"/><path class="cls-4" d="M182.33,454.42c-1.78,1.61-3.76,2.96-5.87,3.98-2.07,1.1-4.36,1.86-6.61,2.38-4.54,1.02-9.19,1.17-13.75.57-2.28-.32-4.55-.81-6.75-1.59l-1.63-.64-1.54-.76-1.54-.77-.77-.39-.72-.46c-3.99-2.29-7.4-5.46-10.33-8.91-4.28-5.08-7.52-10.93-9.82-17.06-4.12-10.81-5.85-22.29-6.93-33.6-1.12-11.34-1.79-22.71-2.09-34.09-.25-10.1-.27-20.26.09-30.28.26-6.44.61-12.89,1.33-19.31.28-3.22.78-6.42,1.28-9.6l.86-4.77c.12-.8.33-1.58.53-2.36.21-.78.37-1.57.6-2.35,1.12-3.87.83-3.37.57.03-.27,3.4-.46,9.66-1.09,16.98-2.16,26.01-2.25,52.23-.28,78.54.3,3.93.66,7.9,1.12,11.88.43,3.99,1,7.95,1.8,11.9.78,3.94,1.73,7.86,2.99,11.68.57,1.93,1.33,3.78,2.03,5.66.8,1.83,1.55,3.68,2.5,5.43,2.01,3.86,4.33,7.6,7.28,10.78,2.92,3.2,6.34,5.92,10.12,8l2.91,1.43c.49.22.99.39,1.48.59l1.53.49c2.06.59,4.2.96,6.35,1.13,4.31.34,8.71-.02,12.82-1.24,5-1.52,9.7-4.55,12.56-8.89,2.92-4.34,3.89-9.76,3.88-15.09,0-2.02-.09-4.08-.36-6.08-.12-1-.27-2-.46-3.02l-.54-3.05c-.78-4.08-1.56-8.15-2.35-12.22-1.59-8.15-3.18-16.28-4.67-24.39-2.31-12.6-4.62-24.97-6.1-37.6-.27-2.79-.67-5.5-.83-8.33-.73-10.48-.02-13.93.94-16.09.22-.49.45-1.15.65-1.42.34-.46.56.38.69,2.26.08.94.06,2.13.11,3.56.1,1.44.18,3.11.25,4.99.02,1.39.21,2.8.3,4.2.12,1.41.21,2.81.36,4.23.35,2.83.61,5.67,1,8.52.75,5.71,1.62,11.47,2.58,17.26,1.91,11.59,4.14,23.31,6.45,35.05.86,4.36,1.72,8.73,2.58,13.1l1.26,6.59c.39,2.22.81,4.41,1.08,6.79.19,2.3.29,4.61.21,6.95-.1,2.34-.37,4.69-.9,7.02-1.08,4.63-3.43,9.23-7.09,12.46l-.07-.04Z"/><path class="cls-4" d="M315.98,192.89l-.06-4.3-.04-4.79c-.08-1.38.32-2.43.96-3.07.46-.16.96-.38,1.56-.46.65-.03,1.27-.03,1.87-.02l1.18.02,1.08.04,2.15.07c2.09.07,4.18.04,6.26.13,3.67.14,7.36.3,10.98.33h.73c.09,0,.18,0,.27,0,.04,0,.1,0,.13-.03l.03-.13.06-.53.06-1.19c.07-1.82.12-3.66.16-5.5.06-3.26.06-6.54.01-9.78-.04-2.08-.09-4.17-.04-6.25.02-1.04.04-2.09.08-3.13.02-.26,0-.52.06-.78l.18-.78c.12-.52.18-1.04.27-1.56.24-1.3.2-1.13.52-.03.18.55.41,1.32.92,2.26.36.94.51,2.04.63,3.24.41,4.25.42,8.5.5,12.77.03,2.13,0,4.27-.05,6.41l-.11,3.23-.11,2.06c-.03.23,0,.49-.08.68l-.19.6c-.07.19-.1.42-.2.57l-.14.24-.03.06v.02s.03.04-.05-.03h0s-.03.02-.03.02l-.13.08c-.4.19-.78.47-1.35.49-.52.08-1.11.07-1.64.1-.66,0-1.32,0-1.98,0-1.31,0-2.63,0-3.95,0-2.64,0-5.29.02-7.91-.02l-8.29-.15h-.44s-.22-.02-.22-.02c-.04,0-.08,0-.11.01-.01.03-.02.07-.02.1-.03.28-.03.57-.04.87l.02,4.28c.04,3.55.08,7.1.11,10.65.06,5.38.07,10.79.02,16.15,0,.59-.02,1.18-.03,1.76-.16.52-.08,1.28-.71,1.47-.52.23-1.19.28-1.86.29-1,0-2,0-3,0-1.83-.04-3.66-.08-5.49-.12-.9-.02-1.78-.04-2.69-.05-3.35-.13-4.38-.34-5.09-1.23-.16-.2-.38-.4-.47-.6-.34-.67,1.08-1.25,3.59-1.31,2.59-.07,5.2,0,7.83.08,1.3.04,2.61.08,3.93.13h.48s.24,0,.24,0c.09,0,.03,0,.06,0l.03-.02s.01-.03,0-.05c-.03-1.98-.06-4-.09-6.01-.1-5.73-.22-11.5-.39-17.28h.09Z"/><path class="cls-4" d="M382.7,227.01c.02-3.5.03-7.02-.03-10.5-.01-.43-.02-.87-.01-1.3v-.85c0-.08.01-.18-.02-.25l-.27-.04-.21-.02-.65-.05-1.3-.09-2.62-.15-3.84-.16-1.93-.08-.97-.05-.7-.05c-.25-.03-.51-.01-.76-.09l-.66-.17c-.21-.06-.37-.17-.56-.25-.09-.04-.18-.1-.28-.14l-.09-.29c-.07-.19-.13-.38-.15-.62l-.18-1.37-.04-.34v-.21s0-.43,0-.43v-3.41s.04-6.79.04-6.79c.04-4.53.12-9.05.23-13.58.09-4.01.11-8.05.14-12.04.01-2.56,0-5.13.11-7.69.09-2.56.16-5.13.65-7.68.26-.79.41-1.13.48-1.1.08.03.14.42.4,1.1.28.68.5,1.65.78,2.81.24,1.16.37,2.52.39,3.99.12,5.22-.01,10.43-.06,15.66-.08,5.23-.15,10.46-.39,15.73-.13,3.15-.15,6.36-.13,9.58l.02,2.42.04,1.85c.03.12-.05.33.13.31.13.02.24.02.45.03l2.23.08,5.31.16,2.67.1,1.34.07.99.05.53.03c.09,0,.18,0,.26.02l.21.08.85.31c.09.31.43.39.46.75.17.61.2,1.39.26,2.01.07.9.1,1.8.11,2.69l.05,5.34c0,4.37-.03,8.74-.11,13.11l-.1,4.02-.09,2.02c-.05.96-.1,1.97-.51,2.66-.27.18-.53.29-.86.36-.33.07-.68.1-1.03.12-.8.05-1.22.06-1.72.07l-2.97.06c-1.97.03-3.93.06-5.89.08-2.55.03-5.07.09-7.58.21l-1.76.1c-.29.03-.56.06-.82.11-.05.02-.15,0-.16.08l.02.22.03.41.03.43v.88c-.01,1.11.01,2.19-.01,3.3-.09,4.12-.28,5.4-1.09,6.32-.18.21-.36.48-.54.61-.6.44-1.27-1.25-1.57-4.33-.11-1.14-.2-2.28-.29-3.43-.08-1.17-.15-2.34-.23-3.52l-.04-1.56v-.82c.03-.25-.05-.61.09-.74l.29-.54.15-.27.04-.07s.34.32.18.16h0s.01-.03.01-.03l.02-.04.08-.13c.1-.18.22-.37.41-.48.2-.1.43-.18.67-.24.5-.11,1.06-.13,1.61-.16l1.43-.05,1.78-.05c2.36-.05,4.73-.08,7.1-.06,2.36.06,4.73.11,7.11.17l2.36.03c.56,0,.35,0,.39,0h0s0,0,0,0h0s0,0,0,0c0-.03,0,.06,0-.07l.08-2.01.09-4.08c.04-2.73.06-5.47.05-8.21h.08Z"/><path class="cls-4" d="M408.75,188.96l.03-2.02v-1c.01-.1.04-.11.02-.17.01-.05.05-.13.02-.17-.04-.02-.09-.03-.15-.05-.07-.01-.07-.02-.22-.04l-1.03-.06c-1.38-.07-2.78-.1-4.18-.14-1.52-.03-3.03.04-4.56,0l-1.52-.04h-1.23c-.22,0-.44,0-.64-.02-.2-.04-.38-.09-.56-.14-.09-.03-.17-.08-.25-.12l-.11-.07-.06-.04-.03-.02h0s.06-.08.05-.07h0s-.01-.02-.01-.02c-.15-.15-.27-.29-.38-.46-.24-.31-.31-.76-.4-1.2l-.1-.67c-.04-.22-.05-.48-.06-.59l-.06-.84c-.06-1.12-.04-2.22-.03-3.32l.12-6.56c.03-2.39.07-4.78.1-7.15-.02-3.04.12-6.09.75-9.11.2-.94.32-.81.62,0,.18.48.39,1.05.62,1.67.23.69.43,1.5.54,2.37.08.77.22,1.55.24,2.32l.08,2.32.12,4.63c-.03,3.09-.1,6.19-.19,9.28-.04,1.08,0,2.17.03,3.25l.03.8.03.4c0,.09.02.18.04.27.01.04.02.09.05.12.04.02.09.01.13.01,1.28-.01,2.55-.03,3.82-.04,1.88,0,3.76,0,5.65.03l1.42.03,1.6.06c.73.05,1.52.06,2.09.33.25.12.59.28.64.59.13.25.17.6.22.94,0,.35.03.69.05,1.04v.51s.01.34.01.34c-.03,2.59-.05,5.18-.08,7.77v2.92s.04,1.29.04,1.29c.01.27.01.55.09.81.2.16.51.14.77.2l1.26.15c.96.11,1.93.2,2.9.28,3,.24,5.97.26,8.96.35.66.02,1.3,0,1.96.05,2.45.14,3.21.43,3.67,1.35.1.21.25.42.3.63.18.7-.86,1.19-2.67,1.26-2.69.11-5.44.05-8.23-.09-1.39-.07-2.8-.16-4.21-.28l-2.12-.19-2.31-.25c-.52-.07-1.01-.19-1.51-.29-.26-.04-.44-.17-.66-.24l-.32-.14-.25-.21c-.08-.24-.27-.36-.39-.55-.12-.19-.25-.37-.3-.62-.15-.46-.19-.99-.24-1.5l-.04-.72-.02-.46-.02-.82-.02-1.61.02-6.33h.08Z"/><path class="cls-4" d="M336.42,78.65l.16-4.63.05-1.17.04-.68c.02-.33.03-.66.07-.99.05-.69.22-1.32.59-1.71.1-.7.85-.65,1.41-.84.46-.07.97-.08,1.46-.12l.37-.03c.12,0,.15,0,.24,0l.43-.02c.57-.03,1.13-.05,1.7-.04,3.99.05,7.96.18,11.93.33,1.76.08,3.53.08,5.28.1,1.12-.02,2.25.04,3.38.11.56.04,1.13.11,1.69.2.28.04.56.1.84.15.28.06.55.2.83.29.69.28.58.35-.03.71-.62.41-1.72,1.05-3,1.19-1.13.07-2.27.25-3.4.23l-3.41.04c-2.28.04-4.56-.05-6.86-.21-2.75-.18-5.61.05-8.41.13l-1.04.03h-.42c-.07,0-.15,0-.22,0-.07.02-.06.12-.08.17-.03.14-.05.27-.07.43v.13s-.03.2-.03.2l-.04.57-.07,1.15-.12,2.32c-.1,1.91-.17,3.82-.24,5.73-.1,2.9-.26,5.8-.33,8.68-.06,2.24.04,4.45,0,6.68-.01.49,0,.98-.03,1.47-.14,1.84-.51,2.4-1.34,2.68-.19.06-.38.16-.55.18-.58.09-1.04-.71-1.12-2.03-.18-3.9-.07-8,.03-12.15.08-3.09.17-6.19.26-9.28h.08Z"/><path class="cls-4" d="M405.78,131.98l-.21,4.89-.06,1.23-.05.99c0,.38-.09.69-.15,1.03-.22,1.31-1.63,1.51-3.11,1.49-1.3.02-2.41.11-3.63.11l-12.56-.16c-1.86-.01-3.72.05-5.56.12-1.18.02-2.37.04-3.55.06-.59-.02-1.18.03-1.78-.07-.59-.12-1.19-.23-1.78-.35-.74-.19-.64-.2-.03-.49.31-.15.75-.38,1.27-.67.26-.13.55-.33.86-.43.31-.08.63-.14.97-.17l3.62-.32c1.21-.08,2.41-.09,3.62-.12,2.42-.04,4.84-.04,7.28.04,2.91.1,5.94-.16,8.91-.22l2.23-.05c.15,0,.3,0,.46,0,.1.02.12-.06.12-.14l.03-.23c.03-.09.06-1.2.08-1.96l.07-2.45.14-6.05c.06-3.06.17-6.13.18-9.16,0-2.36-.15-4.68-.19-7.04,0-.52-.04-1.03-.03-1.55,0-.97.19-1.61.38-2.04.19-.44.5-.67.91-.84.18-.08.36-.18.52-.22.52-.12,1.04.7,1.19,2.09.33,4.12.24,8.48.17,12.87-.08,3.27-.16,6.55-.25,9.82h-.07Z"/><path class="cls-4" d="M335.97,45.74c.01,4.62-.15,9.24-.15,13.87,0,2.25,3.5,2.26,3.5,0,0-4.62.16-9.24.15-13.87,0-2.25-3.51-2.26-3.5,0h0Z"/><path class="cls-4" d="M357.83,45.74c.01,4.62-.15,9.24-.15,13.87,0,2.25,3.5,2.26,3.5,0,0-4.62.16-9.24.15-13.87,0-2.25-3.51-2.26-3.5,0h0Z"/><path class="cls-4" d="M381.95,45.74c.01,4.62-.15,9.24-.15,13.87,0,2.25,3.5,2.26,3.5,0,0-4.62.16-9.24.15-13.87,0-2.25-3.51-2.26-3.5,0h0Z"/><path class="cls-4" d="M403.53,46.98c.01,4.62-.15,9.24-.15,13.87,0,2.25,3.5,2.26,3.5,0,0-4.62.16-9.24.15-13.87,0-2.25-3.51-2.26-3.5,0h0Z"/><path class="cls-4" d="M431.89,70.41c-4.62.01-9.24-.15-13.87-.15-2.25,0-2.26,3.5,0,3.5,4.62,0,9.24.16,13.87.15,2.25,0,2.26-3.51,0-3.5h0Z"/><path class="cls-4" d="M431.89,91.04c-4.62.01-9.24-.15-13.87-.15-2.25,0-2.26,3.5,0,3.5,4.62,0,9.24.16,13.87.15,2.25,0,2.26-3.51,0-3.5h0Z"/><path class="cls-4" d="M431.89,112.69c-4.62.01-9.24-.15-13.87-.15-2.25,0-2.26,3.5,0,3.5,4.62,0,9.24.16,13.87.15,2.25,0,2.26-3.51,0-3.5h0Z"/><path class="cls-4" d="M431.89,133.03c-4.62.01-9.24-.15-13.87-.15-2.25,0-2.26,3.5,0,3.5,4.62,0,9.24.16,13.87.15,2.25,0,2.26-3.51,0-3.5h0Z"/><path class="cls-4" d="M322.22,69.16c-4.62.01-9.24-.15-13.87-.15-2.25,0-2.26,3.5,0,3.5,4.62,0,9.24.16,13.87.15,2.25,0,2.26-3.51,0-3.5h0Z"/><path class="cls-4" d="M322.22,89.79c-4.62.01-9.24-.15-13.87-.15-2.25,0-2.26,3.5,0,3.5,4.62,0,9.24.16,13.87.15,2.25,0,2.26-3.51,0-3.5h0Z"/><path class="cls-4" d="M322.22,111.44c-4.62.01-9.24-.15-13.87-.15-2.25,0-2.26,3.5,0,3.5,4.62,0,9.24.16,13.87.15,2.25,0,2.26-3.51,0-3.5h0Z"/><path class="cls-4" d="M322.22,131.78c-4.62.01-9.24-.15-13.87-.15-2.25,0-2.26,3.5,0,3.5,4.62,0,9.24.16,13.87.15,2.25,0,2.26-3.51,0-3.5h0Z"/><path class="cls-4" d="M178.5,160.18c.09-.02.24-.03.27-.06.02-.03.02-.07.02-.12v-.4s-.04-.59-.04-.59l-.07-1.23c-.02-.42-.03-.84-.03-1.28,0-.74.06-1.51.21-2.18.33-1.34,1-2.19,2.18-2.49.96-.15,1.65.23,2.34.95.34.37.64.84.92,1.33.14.25.27.51.4.77l.26.55.36.81.06.16c.03.05.04.12.09.16.05,0,.1-.05.16-.07l.16-.09.64-.49c.48-.34.91-.74,1.34-1.14.45-.38.84-.83,1.24-1.27.42-.42.77-.91,1.13-1.38,1.73-2.28,2.98-4.93,4-7.66.9-2.41,1.56-4.93,2.08-7.48.48-2.56.8-5.17.99-7.78.39-5.25.11-10.49-.97-15.62-.53-2.26-1.14-4.51-2.01-6.67-.82-2.17-1.86-4.25-3.05-6.19-.39-.62-.77-1.24-1.22-1.81l-.65-.88-.71-.81c-.93-1.08-2-2.06-3.14-2.68-1.08-.61-2.33-.81-3.52-.47-.59.17-1.17.48-1.72.88-.55.39-1.16.8-1.69,1.31-1.35,1.26-1.32,1.03-.69-.53.36-.74.74-1.99,2-3.06.61-.54,1.44-1.05,2.45-1.32.5-.14,1.04-.19,1.59-.22.27.02.54.05.82.08.28.06.56.15.85.24.24.08.52.15.73.26l.63.34.63.35c.19.13.36.27.54.4.75.52,1.36,1.12,1.97,1.72.59.61,1.12,1.25,1.65,1.9.47.67.99,1.32,1.41,2.02,1.75,2.75,3.09,5.69,4.14,8.72,1.03,3.03,1.74,6.16,2.2,9.31.47,3.16.55,6.36.46,9.54-.16,3.77-.5,7.63-1.19,11.46-.69,3.83-1.78,7.66-3.49,11.21-1.01,2.04-2.19,4.03-3.68,5.8-.76.87-1.54,1.73-2.42,2.49-.41.41-.89.75-1.35,1.1-.25.18-.4.33-.81.59l-1.12.7c-.4.08-.78.28-1.19.27-.38-.17-.65-.45-.91-.86-.25-.41-.45-.89-.66-1.35l-.4-.92-.24-.53c-.06-.12-.12-.24-.19-.35-.14-.21-.31-.52-.61-.47-.32.08-.42.43-.47.71-.03.15-.04.31-.05.46v.28s0,.51,0,.51c.01.62.05,1.25.08,1.9l.05,1.03c0,.49,0,.99-.12,1.43-.07.21-.15.43-.32.59-.18.13-.42.14-.62.22l-1.27.38c-.68.12-1.32.24-1.98.31-2.63.32-5.28.33-7.9.08-7.97-.7-15.59-4.25-21.5-9.46-2.35-2-4.38-4.37-5.98-6.98-1.63-2.6-2.87-5.42-3.74-8.36-.2-.65-.39-1.29-.54-1.94-.17-.65-.32-1.3-.43-1.97-.46-2.48-.53-4.14-.43-5.31.07-1.16.31-1.83.63-2.37.14-.24.28-.56.41-.7.43-.47.89,1.53,1.48,4.96.79,5.1,2.45,10.18,5.25,14.56,1.41,2.19,3.07,4.19,5.04,5.92,1.96,1.81,4.16,3.33,6.47,4.68,3.45,1.93,7.22,3.35,11.16,4.01,1.96.36,3.96.54,5.95.53,1,.02,1.99-.04,2.98-.13.49-.06.99-.08,1.48-.17l.73-.11.36-.06.09-.02.03.06Z"/><path class="cls-4" d="M178.9,156.41c0-1.18.05-2.39.38-3.24.36-.85.8-1.3,1.64-1.61.53.02.9,0,1.27.21.37.18.73.5,1.08.93.18.18.34.46.5.7.17.24.32.5.46.79.14.28.29.55.43.83l.25.56c.4.92.83,1.82,1.16,2.75,1.16,3.27,2.09,6.58,3,9.88.42,1.46.83,2.93,1.25,4.38.28.93.52,1.87.72,2.82.23.94.33,1.92.36,2.91-.04.63-.17.57-.6.15-.22-.21-.49-.51-.8-.89-.32-.37-.61-.82-.8-1.34-1.45-3.65-2.42-7.43-3.39-11.26-.58-2.29-1.51-4.57-2.4-6.77l-.57-1.35-.4-.9c-.08-.17-.17-.36-.28-.54-.11-.16-.26-.41-.48-.39-.28.08-.33.41-.39.67-.03.17-.04.35-.05.54v.3s0,.59,0,.59c.03.8.1,1.6.19,2.41.29,2.44.7,4.9,1.26,7.29.44,1.86,1.03,3.65,1.6,5.45.13.39.26.78.39,1.18.47,1.48.36,2.02,0,2.48-.09.11-.17.24-.26.31-.31.25-.84-.25-1.37-1.3-1.34-3.18-2.3-6.67-3.06-10.24-.28-1.33-.52-2.67-.72-4.02-.1-.68-.19-1.36-.25-2.06-.04-.35-.07-.69-.09-1.05l-.09-1.16h.06Z"/><path class="cls-4" d="M202.14,208.34c-1.94.84-3.89,1.53-5.87,2.15-.72.23-1.42.51-2.15.7-2.57.69-5.17,1.19-7.81,1.48-1.17.13-2.34.28-3.51.36-.75.02-1.51.03-2.27-.05-.76-.08-1.53-.21-2.21-.63-.42-.24-.36-.22.06-.33.43-.09,1.17-.53,1.96-.56.71-.04,1.42-.15,2.13-.26l2.14-.28c1.44-.21,2.88-.47,4.34-.72,1.76-.26,3.51-.9,5.24-1.47,1.9-.63,3.79-1.31,5.61-2.12,1.12-.5,2.23-1.03,3.26-1.65.39-.23.77-.48,1.13-.74l.43-.32c.1-.08.21-.16.3-.26.2-.18.38-.41.44-.67.08-.3-.28-.44-.49-.56-.19-.08-.4-.14-.59-.18l-.91-.18c-.68-.11-1.37-.18-2.06-.24-.3-.01-.6-.03-.9-.04-1.11-.08-1.42-.28-1.68-.99-.06-.16-.14-.32-.18-.48-.15-.51.37-1.05,1.34-1.17,1.42-.16,2.84-.09,4.3.19l.55.12.28.07.49.15c.63.22,1.27.46,1.78.82.48.37.96.74,1.05,1.31l.11.42h0c-.06.03.08,0,.06,0h0s0,.01,0,.01v.03s0,.05,0,.05v.11s.01.21.01.21c.02.29-.08.56-.12.84l-.24.61c-.06.21-.28.38-.41.58-.27.39-.67.73-1.03,1.08-.17.19-.41.31-.58.45l-.37.25-.73.45c-.96.58-1.92,1.07-2.89,1.52l-.03-.06Z"/><path class="cls-4" d="M143.42,281.75c-1.76-2.63-3.87-5.22-6.17-7.32-.84-.71-1.84-1.32-2.83-1.95-3.52-2.2-7.36-4.01-11.26-5.78-1.76-.86-3.44-1.79-5.06-2.83-1.03-.67-2.06-1.38-3.01-2.2-.92-.84-1.78-1.79-2.4-2.9-.38-.7-.04-.78.68-.54.72.24,1.84.7,2.88,1.48,1.76,1.49,3.74,2.81,5.81,3.96.52.29,1.04.57,1.57.83.27.13.5.25.78.37l.85.39c1.13.52,2.26,1.06,3.37,1.64,2.65,1.4,5.52,2.66,8.15,4.39.72.49,1.43.99,2.1,1.6.66.59,1.26,1.2,1.85,1.82,1.17,1.25,2.26,2.55,3.29,3.91,1.25,1.68,2.45,3.41,3.33,5.42.26.63.5,1.3.58,2.07.05.36.04.84-.11,1.29-.13.45-.43.83-.79,1.11-.52.4-1.14.56-1.73.59-.59.03-1.16-.06-1.64-.26-.98-.39-1.79-.93-2.56-1.5-2.02-1.5-3.76-3.15-5.42-4.89-.36-.38-.74-.74-1.09-1.14-.65-.74-1.04-1.26-1.23-1.69-.18-.45-.18-.78-.08-1.14.04-.16.07-.35.13-.48.11-.22.37-.24.75-.1.38.14.9.43,1.42.92,1.59,1.42,3.16,2.91,4.76,4.3.8.69,1.57,1.41,2.37,2.01.77.62,1.64,1.07,2.21,1.31.18.09.32.18.42.19.08,0,.19-.04.21-.04-.02-.02.01,0,0,0,0,0,0,.02,0-.02,0-.04.02-.12,0-.22-.03-.37-.2-.9-.42-1.41-.44-1.04-1.09-2.11-1.78-3.14l.05-.04Z"/><path class="cls-4" d="M113.6,260.62c-1.05,1.04-2.04,2.17-2.96,3.36-.35.43-.59.93-.93,1.36-1.18,1.56-2.31,3.18-3.34,4.87-.47.74-.89,1.52-1.3,2.3-.51,1-.97,2.03-1.83,2.86-.26.26-.3.19-.35-.16-.04-.26-.09-.52-.12-.75-.03-.3,0-.62.07-.95.76-2.19,1.68-4.32,3.04-6.26.8-1.16,1.41-2.5,2.23-3.7.89-1.32,1.87-2.59,2.92-3.79l.99-1.1,1.04-1.05c.52-.53,1.1-1.01,1.65-1.51.58-.47,1.15-.95,1.72-1.42.45-.35.87-.74,1.3-1.13l1.32-1.11c.19-.17.39-.33.6-.47.81-.5,1.18-.45,1.68.09.11.12.24.24.34.37.33.45.22,1.03-.24,1.52-.72.67-1.45,1.3-2.24,1.88-.75.63-1.54,1.19-2.29,1.84-1.13.92-2.23,1.91-3.25,2.99l-.05-.04Z"/><path class="cls-4" d="M322.65,99.14l.1-26.77.05-6.7.02-1.68.02-1.03c.03-.49,0-1.02.07-1.49l.12-.69.26-.55.24-.5.06-.12.03-.06v-.02c.08.07-.08-.11-.06-.09l.02-.02c.07-.06.14-.1.21-.15.35-.13.76-.25,1.19-.34.47-.06.94-.11,1.45-.1l13.85.06c6.51.05,13.02,0,19.52.08,9.29.13,18.58.29,27.88.5l13.94.38,6.98.27,3.5.19,1.78.14c.83.08,1.78.18,2.5.53.54.49.75,1.24.8,2.11l.05.63.03.45.04.83.12,3.29.15,6.55c.18,10.19.29,20.42.32,30.52.02,6.49.03,12.99-.06,19.5-.03,3.25-.12,6.5-.26,9.75l-.23,4.87c-.1,1.62-.32,3.24-.5,4.86-.26,2.01-.43,2.88-.52,2.82-.1-.06-.15-1.06-.34-2.78-.48-3.44-1.1-9.74-1.11-17.2.02-10.86-.09-21.72-.24-32.6-.08-5.44-.16-10.88-.23-16.33-.06-2.72-.12-5.44-.18-8.17l-.14-4.07-.1-1.96c-.01-.08.03-.22-.04-.28-.09-.03-.13-.04-.36-.07l-1.72-.13-3.52-.2c-2.37-.1-4.74-.2-7.12-.3-15.93-.58-32.56-.45-48.89-.54l-25.64-.08s-.12-.01-.15.02v.16s-.03.33-.03.33l-.02.95-.06,3.36-.1,6.73-.13,13.47c-.06,11.05-.1,22.12-.03,33.16.06,8.36.11,16.77.38,25.09l.08,1.55.05.63.05.44c.04.12,0,.34.16.37.14.04.29.03.44.05l1.18.08c2.07.14,4.16.21,6.25.28,4.17.13,8.33.24,12.49.32,12.91.26,25.58.26,38.34.25,2.81-.01,5.56-.03,8.39-.04,10.51-.01,13.82.1,16.09.8.52.17,1.2.3,1.52.45.55.25-.28.65-2.2.94-1.92.29-4.92.51-8.78.6-11.44.28-23.17.26-35.07.15-11.91-.12-23.95-.37-36.09-.76l-1.71-.04-.75-.03c-.28-.02-.56-.03-.83-.07l-.74-.2c-.24-.07-.52-.1-.67-.27-.24-.39-.57-.72-.81-1.14-.15-.49-.24-1.03-.3-1.59-.09-.67-.1-.79-.13-1.12l-.07-.87c-.16-2.29-.27-4.54-.36-6.8-.19-4.51-.21-9.02-.29-13.53-.11-9.01-.15-18.03-.18-27.03l.09-.02Z"/><path class="cls-4" d="M361.29,270.11c-1.17-.07-2.25-.43-3.19-.92-.49-.24-.89-.52-1.34-.84-.49-.36-.89-.79-1.23-1.25-.49-.67-.92-1.37-1.12-2.15-.36-1.36-.28-2.78.14-4.04.44-1.24,1.1-2.33,2-3.24.79-.8,1.76-1.46,2.85-1.82.69-.25,1.46-.35,2.19-.21.37.06.72.16,1.05.33.31.21.6.42.85.67.31.32.18.37-.24.48-.21.05-.49.13-.79.29-.15.07-.3.16-.45.23-.14.06-.27.08-.41.11-.92.26-1.69.5-2.4,1.11-.72.54-1.4,1.27-1.91,2.2-.64,1.07-.46,2.45.03,3.49.27.59.66,1.09,1.16,1.44.61.42,1.27.73,1.95.9.83.21,1.71.21,2.49-.11,1.19-.45,2.22-1.51,2.62-2.85.32-.99.02-1.97-.45-2.81-.1-.19-.25-.35-.36-.53-.41-.68-.35-1.04.26-1.74.14-.16.27-.33.41-.48.48-.5,1.24-.52,1.92.13.95.96,1.63,2.41,1.69,4.06.03.81-.1,1.67-.38,2.43-.27.71-.59,1.42-1.07,2.07-.68.96-1.61,1.8-2.72,2.35-1.1.56-2.35.81-3.54.77v-.08Z"/><path class="cls-4" d="M443.31,202.08c0,1.2-.29,2.39-.82,3.41-.54,1.02-1.3,1.85-2.11,2.49l-.96.68c-.31.23-.71.37-1.07.52-1.34.45-2.8.43-4.06.02-1.26-.41-2.34-1.18-3.13-2.15-.69-.88-1.21-1.89-1.41-2.98-.31-1.41.23-2.96,1.3-3.78.33-.26.31-.19.34.21,0,.19.09.49.1.77,0,.28.14.62.12.9-.04.25.13.51.1.73-.03.22.09.44.11.65.11.42.32.81.56,1.19.52.71,1.19,1.38,2.04,1.83,1.04.54,2.29.29,3.23-.29.25-.2.52-.37.77-.58.25-.23.47-.48.66-.74.38-.52.63-1.11.73-1.73.13-.76.02-1.59-.34-2.34-.52-1.11-1.48-2.15-2.68-2.38-.93-.15-1.77.2-2.47.76-.16.11-.29.27-.45.4-.59.48-.93.53-1.71.12-.18-.09-.36-.17-.53-.27-.55-.33-.72-1.02-.26-1.82.68-1.15,1.91-2.24,3.6-2.7,1.69-.47,3.6-.01,5.01.9,2.18,1.33,3.35,3.75,3.44,6.17h-.09Z"/><path class="cls-4" d="M290,221.96c-.44-.43-.76-.98-1.09-1.48-.23-.56-.5-1.11-.63-1.67-.08-.56-.23-1.14-.21-1.67.03-.54.02-1.07.11-1.6l.23-1.16c.12-.38.28-.76.45-1.12.7-1.25,1.8-2.21,3.01-2.75,1.21-.55,2.51-.74,3.76-.56,1.1.18,2.17.56,3.07,1.21,1.19.8,1.88,2.3,1.64,3.63-.07.42-.11.35-.41.09-.33-.26-.9-.66-1.36-1.01-.14-.2-.45-.26-.58-.43-.13-.18-.36-.25-.52-.38-.36-.22-.77-.35-1.18-.45-.84-.15-1.75-.18-2.66.05-1.11.29-1.82,1.31-2.1,2.34-.1.28-.1.61-.18.91.01.33.02.65.01.98l.18.91c.15.26.23.55.4.8.39.62,1.03,1.08,1.76,1.39,1.11.39,2.5.48,3.53-.16.79-.51,1.15-1.34,1.32-2.14.02-.19,0-.39.05-.57.1-.7.32-.96,1.24-1.19.21-.05.41-.13.61-.17.68-.15,1.26.24,1.51,1.16.11.33.12.69.12,1.07,0,.37,0,.76-.07,1.14-.2.77-.43,1.58-.95,2.29-.96,1.45-2.62,2.39-4.26,2.7-2.45.55-5.04-.34-6.85-2.09l.06-.07Z"/><path class="cls-4" d="M181.64,114.7c-1.61,1.2-2.66,2.48-3.15,4.34-.18.66-.25,1.4-.3,2.07-.24,2.43.31,5.06,1.36,7.48.45,1.09,1.12,2.08,1.75,3.08.89,1.22,1.67,2.53,2.45,3.91.23.44.13.46-.32.31-.45-.14-1.33-.39-2.11-.95-.32-.27-.71-.49-.97-.81-.27-.31-.55-.62-.81-.95-.54-.64-1.01-1.34-1.39-2.09-.81-1.48-1.45-3.07-1.83-4.75-.45-1.99-.88-4.16-.57-6.31.16-1.14.44-2.31.96-3.42.51-1.11,1.27-2.11,2.12-2.91.26-.25.52-.48.79-.71l.4-.33c.14-.11.35-.25.52-.37.72-.41,1.43-.63,2.15-.78,1.03-.21,2.07-.26,3.15-.09.54.12,1.08.24,1.64.59.58.35,1.01.9,1.24,1.54.02.18.09.29.09.5,0,.15.04.4-.13.74-.09.18-.23.33-.42.45-.19.12-.32.13-.49.16-.51.03-.72-.07-.96-.13-.46-.14-.82-.3-1.16-.44-.6-.24-1.18-.31-1.81-.3-.27,0-.54.06-.82.09-1.04.16-1.45.08-1.91-.46-.1-.12-.23-.22-.31-.34-.26-.35.04-1.05,1.03-1.51,1.16-.48,2.6-.74,4.1-.39.36.08.78.23,1.06.33.29.1.53.21.7.29.08.03.17.06.17.06h0s-.04.15-.04.15c-.02.12-.05.21-.07.28-.04.15-.07.31-.09.47-.01.18-.04.23-.04.36,0,.05,0,.12.01.16,0,.03,0,.06,0,.09,0,.03.02.06.03.09,0,.02,0,.01,0,.02,0,0,0,.01.02.02,0-.01-.03-.03-.04-.03-.03-.01-.05-.02-.16-.05-.09-.03-.15-.02-.27-.02h-.11s-.05,0-.05,0h0c-2.06.03-.57,0-1.03.02h0s0,0,0,0v.04s.01.06.01.05c0,0,.01,0-.02,0,0,0,0,0,0,0,0-.01.03.04-.08-.05-.88-.46-3.45-.19-4.26.53l-.05-.05Z"/><path class="cls-4" d="M171.47,112.96l.05.12.03.06h0s0,.02,0,.02h0c-.3-.64-.08-.18-.15-.32h0s0,0,0,0h.05s.03-.01.02,0l.22.3c.35.47.64.47.48.46-.06,0-.25.08-.43.22-.1.07-.25.18-.34.27,0,0,0-.02,0-.02-.03-.05-.1-.14-.2-.23-.43-.38-.88-.68-1.43-.94-.39-.18-.82-.28-1.24-.41-1.47-.41-3.2-.47-4.8-.1-.71.17-1.41.43-2.08.73-.85.41-1.66.92-2.57,1.3-.28.13-.29.06-.16-.21.14-.24.34-.79.78-1.19.81-.64,1.7-1.23,2.67-1.66.99-.4,2.05-.67,3.12-.72.64-.04,1.29-.07,1.95-.07.65-.01,1.36.05,2.01.2.72.17,1.42.42,2.1.77.35.19.65.38.97.61.16.12.33.25.52.46.09.11.19.24.28.43.09.19.16.49.09.78-.08.35-.29.59-.43.71-.16.15-.29.22-.43.29-.12.06-.27.13-.44.18-.15.04-.31.08-.45.09-.57.06-1.05-.01-1.51-.1-.7-.14-1.33-.41-1.95-.71-.3-.14-.63-.34-.88-.49-.25-.15-.5-.27-.76-.37-.8-.31-1.59-.18-2.5-.03-.2.03-.4.09-.61.11-.78.04-1.05-.13-1.26-.75-.05-.14-.1-.28-.13-.42-.1-.47.2-.89.76-1.11.84-.33,1.73-.52,2.9-.47,1.16.03,2.45.65,3.13,1.07.46.25.98.47,1.48.62.24.09.49.17.7.22.1.02.19.04.27.05.02,0,.06,0,.07.01,0,0,0,0,.01,0,.01.01.04.15.06.21h0Z"/><path class="cls-4" d="M169.1,123.78c.08-.1.19-.5.25-.87.06-.35.05-.59.08-.65.01-.05.04-.02-.07-.12-.2-.17-.76-.24-1.28-.21-.53.02-1.12.15-1.69.31-.51.15-.98.39-1.43.65-.28.18-.56.37-.87.51-.16.07-.3.16-.48.2-.18.03-.37.06-.58.1-.25.03-.25,0-.23-.27,0-.21.02-.43.03-.6.01-.12.01-.27.04-.39.04-.11.1-.21.17-.3.46-.68,1.17-1.05,1.85-1.45.7-.37,1.42-.65,2.24-.79.49-.09,1.01-.19,1.56-.25.54-.05,1.21-.07,1.92.29.39.2.75.53.97.88.23.36.36.72.43,1.05.14.68.13,1.2.09,1.79-.07.73-.34,1.68-1.13,2.32-.29.24-.68.43-1.08.48-.39.06-.77.01-1.11-.1-.67-.2-1.22-.73-1.54-1.27-.5-.84-.71-1.79-.67-2.65,0-.19,0-.37.03-.55.16-.64.43-.73,1.13-.65.15.02.3.02.44.05.44.07.88.47.97.89.14.62.24,1.07.4,1.29.07.12.15.18.19.18.02,0,.02,0-.03.03l-.04.03h0s-.22.2-.22.2h0s.02-.02.02-.02c.05-.05.08-.09.07-.08,0,0-.06.13-.07.27,0,.07,0,.14,0,.19v.05s.04.05,0-.03v-.03c-.06-.09-.22-.27-.38-.37l-.11-.07s0,0,0,0c0,0,.02,0,.04-.04l.07.02Z"/><path class="cls-4" d="M185.49,122.81c.08-.1.19-.5.25-.87.06-.35.05-.59.08-.65.01-.05.04-.02-.07-.12-.2-.17-.76-.24-1.28-.21-.53.02-1.12.15-1.69.31-.51.15-.98.39-1.43.65-.28.18-.56.37-.87.51-.16.07-.3.16-.48.2-.18.03-.37.06-.58.1-.25.03-.25,0-.23-.27,0-.21.02-.43.03-.6.01-.12.01-.27.04-.39.04-.11.1-.21.17-.3.46-.68,1.17-1.05,1.85-1.45.7-.37,1.42-.65,2.24-.79.49-.09,1.01-.19,1.56-.25.54-.05,1.21-.07,1.92.29.39.2.75.53.97.88.23.36.36.72.43,1.05.14.68.13,1.2.09,1.79-.07.73-.34,1.68-1.13,2.32-.29.24-.68.43-1.08.48-.39.06-.77.01-1.11-.1-.67-.2-1.22-.73-1.54-1.27-.5-.84-.71-1.79-.67-2.65,0-.19,0-.37.03-.55.16-.64.43-.73,1.13-.65.15.02.3.02.44.05.44.07.88.47.97.89.14.62.24,1.07.4,1.29.07.12.15.18.19.18.02,0,.02,0-.03.03l-.04.03h0s-.22.2-.22.2h0s.02-.02.02-.02c.05-.05.08-.09.07-.08,0,0-.06.13-.07.27,0,.07,0,.14,0,.19v.05s.04.05,0-.03v-.03c-.06-.09-.22-.27-.38-.38l-.11-.07s0,0,0,0c0,0,.02,0,.04-.04l.07.02Z"/><path class="cls-4" d="M179.93,147.49v-.56c0-.26-.04-.5-.16-.72-.08-.23-.2-.43-.39-.6-.17-.18-.37-.31-.6-.39-.22-.12-.46-.17-.72-.16l-.5.07c-.32.09-.59.25-.83.48l-.29.38c-.17.29-.25.61-.26.95v.56c0,.26.04.5.16.72.08.23.2.43.39.6.17.18.37.31.6.39.22.12.46.17.72.16l.5-.07c.32-.09.59-.25.83-.48l.29-.38c.17-.29.25-.61.26-.95h0Z"/><path class="cls-4" d="M213.28,65.37c-.14.17-.39.13-.66.02-.09-.03-.22-.23-.2-.3.05-.13.09-.27.15-.4.04-.07.76-1.06.97-1.46.18-.41.49-.64.78-.9.6-.51,1.19-1.05,1.81-1.55.14-.11.29-.19.46-.26.58-.21,1.07-.56,1.53-.95.08-.07.17-.11.2-.25.04-.22,1.38-1.18,1.6-1.23.53-.14,1.03-.32,1.55-.48.07-.02.12-.1.24-.03.28.16.39.03.54-.03.2-.09.43-.16.67-.19.12-.01.3.08.46.13.14.05.31.45.31.51-.02.17.15.3.25.45.03.05.08.12.1.16.04.1-.65,1.4-.79,1.45-.01,0-.39.28-.79.57-.4.29-.81.59-.88.67-.08.08-.21.08-.33.1-.06,0-1.21.93-1.26.95-.28.13-.49.36-.87.33-.08,0-.12.04-.17.07-.43.3-.92.51-1.4.73-.25.11-.46.27-.7.41-.04.02-.1.02-.15.04-.06.02-.13.03-.18.06-.55.32-1.1.64-1.66.95-.14.05-.88.23-1.02.32-.08.05-.48.03-.54.1Z"/><path class="cls-4" d="M220.15,74.2c-.18.14-.4.06-.65-.13-.08-.06-.16-.3-.12-.36.08-.11.17-.23.26-.33.06-.06,1.08-.7,1.42-.96.33-.24.67-.43,1.02-.61l2.13-1.13c.16-.08.32-.15.5-.19.6-.14,1.15-.39,1.68-.71.09-.05.19-.08.24-.21.09-.2,1.56-.97,1.78-.99.54-.07,1.06-.19,1.6-.27.08-.01.14-.08.24,0,.25.2.39.1.55.06.22-.05.45-.09.7-.08.12,0,.29.12.44.21.14.08.25.51.23.56-.05.17.11.33.18.5.03.06.06.13.07.18.03.1-.9,1.31-1.05,1.33-.02,0-.46.2-.93.41-.47.2-.95.41-1.05.47-.1.06-.23.03-.35.03-.06,0-1.45.62-1.52.63-.31.06-.59.23-.97.13-.07-.02-.13.01-.19.03-.51.18-1.06.27-1.6.38-.27.06-.53.16-.8.24-.05.01-.11,0-.16.01-.07,0-.13,0-.19.02-.63.2-1.28.32-1.89.57-.14.05-.89.13-1.05.2-.09.04-.47-.05-.54.01Z"/><path class="cls-4" d="M223.1,87.21c-.15.18-.38-.04-.65-.48-.09-.14-.21-.6-.17-.68.07-.16.15-.32.23-.44.05-.07,1.07-.65,1.43-.86.34-.21.7-.33,1.07-.43.74-.2,1.49-.41,2.25-.56.17-.03.34-.04.52-.01.6.1,1.18.03,1.76-.09.1-.02.2-.01.29-.13.15-.23,1.76-.31,1.97-.2.51.21,1.02.35,1.52.55.07.03.15-.01.21.13.13.32.29.28.44.31.21.04.42.12.63.24.1.06.18.25.27.41.08.14-.03.62-.07.66-.11.14-.06.37-.08.57,0,.07-.01.16-.02.21-.03.12-1.25.81-1.36.79,0,0-.12,0-.28.01-.16.01-.38.03-.6.04-.44.04-.9.09-.99.12-.1.03-.19-.05-.29-.09-.05-.02-1.36.19-1.41.18-.27-.04-.54.06-.83-.19-.06-.05-.11-.04-.17-.03-.47.05-.95-.03-1.43-.06-.25-.02-.48.04-.73.05-.04,0-.09-.03-.14-.04-.06-.01-.12-.04-.17-.03-.57.08-1.17.03-1.72.22-.13.03-.81-.09-.96-.02-.08.03-.44-.24-.51-.17Z"/><g class="cls-5"><path class="cls-4" d="M94.32,216.66s0,.05,0,.07c0,.01,0,.03,0,.04.01.13.04.38.07.51.04.2.13.38.22.56.01.02.02.04.03.05.05.07.13.17.16.21.03.04.11.15.16.21.13.15.3.26.47.37.21.14.45.24.69.29.02,0,.04,0,.06.01.18.03.37.06.56.07.05,0,.11,0,.16,0,.18-.02.37-.04.55-.07.02,0,.05,0,.07-.01.19-.05.44-.17.58-.23.04-.02.08-.04.12-.06.14-.09.3-.22.43-.33.02-.02.04-.04.06-.06.12-.13.23-.28.33-.42.02-.02.03-.05.05-.07.12-.2.21-.42.28-.65s.08-.46.11-.68c0-.08.01-.16,0-.24,0-.12-.03-.25-.04-.37s-.03-.25-.05-.37c-.02-.09-.04-.18-.07-.26-.05-.16-.12-.31-.19-.47s-.13-.31-.21-.47c-.12-.22-.28-.39-.48-.53-.18-.17-.39-.28-.64-.34-.25-.08-.5-.09-.75-.03-.25.01-.48.09-.7.22l-.38.29c-.23.23-.39.51-.48.83l-.07.5c0,.34.09.65.26.95.04.08.08.16.11.24l-.19-.45c.08.2.15.41.18.62l-.07-.5c.01.12.02.24,0,.36l.07-.5c-.01.09-.04.18-.07.27l.19-.45c-.03.07-.07.14-.11.2l.29-.38s-.07.07-.11.1l.38-.29s-.09.06-.14.08l.45-.19c-.07.03-.14.05-.21.06l.5-.07c-.08.01-.17.01-.25,0l.5.07c-.07-.01-.14-.03-.2-.05l.45.19c-.05-.02-.1-.05-.14-.08l.38.29s-.06-.05-.08-.08l.29.38s-.04-.06-.06-.1l.19.45s-.02-.06-.03-.1l.07.5s0-.07,0-.11c0-.26-.04-.5-.16-.72-.08-.23-.2-.43-.39-.6-.17-.18-.37-.31-.6-.39-.22-.12-.46-.17-.72-.16l-.5.07c-.32.09-.59.25-.83.48l-.29.38c-.17.29-.25.61-.26.95h0Z"/></g><g class="cls-5"><path class="cls-4" d="M100.84,250.3s.06-.07.1-.1l-.38.29s.09-.06.14-.08l-.45.19c.06-.02.12-.04.18-.05l-.5.07c.07,0,.13,0,.2,0l-.5-.07c.06,0,.11.02.17.05l-.45-.19s.09.04.13.07l-.38-.29s.07.06.1.1l-.29-.38s.05.08.07.13l-.19-.45c.02.06.04.12.05.18l-.07-.5c0,.06,0,.12,0,.18l.07-.5c0,.06-.02.12-.05.18l.19-.45s-.05.09-.08.14l.29-.38s-.06.07-.1.1c-.18.17-.31.37-.39.6-.12.22-.17.46-.16.72,0,.26.04.5.16.72.08.23.2.43.39.6l.38.29c.29.17.61.25.95.26l.5-.07c.32-.09.59-.25.83-.48.03-.02.06-.05.08-.08.13-.15.25-.3.35-.46,0-.02.02-.03.03-.05.08-.15.14-.32.2-.48.02-.04.03-.08.04-.12.04-.19.06-.39.08-.59,0-.04,0-.08,0-.12-.01-.2-.04-.4-.08-.6,0-.04-.02-.07-.03-.11-.05-.14-.13-.37-.23-.53-.1-.17-.23-.32-.36-.47-.07-.08-.18-.15-.26-.21-.09-.07-.18-.15-.28-.2-.15-.08-.32-.14-.48-.2-.02,0-.04-.01-.06-.02-.04-.01-.07-.02-.11-.02-.13-.02-.41-.07-.6-.07s-.45.05-.6.07c-.04,0-.08.02-.13.03-.19.06-.37.14-.55.23s-.34.24-.47.35c-.03.03-.07.06-.09.1-.18.17-.31.37-.39.6-.12.22-.17.46-.16.72,0,.26.04.5.16.72.08.23.2.43.39.6l.38.29c.29.17.61.25.95.26l.5-.07c.32-.09.59-.25.83-.48h0Z"/></g><g class="cls-5"><path class="cls-4" d="M154.9,183.71c-.22-.01-.45.04-.66.07-.06.01-.12.03-.18.05-.45.17-.74.32-1.1.66-.15.14-.28.34-.4.5-.04.05-.07.1-.09.16-.2.43-.33.77-.32,1.26s.12.83.33,1.26c.03.06.06.11.09.16.12.16.25.36.4.5.36.33.65.49,1.1.66.06.02.11.04.18.05.21.04.44.09.66.07.26,0,.5-.04.72-.16.23-.08.43-.2.6-.39.18-.17.31-.37.39-.6.12-.22.17-.46.16-.72l-.07-.5c-.09-.32-.25-.59-.48-.83l-.38-.29c-.29-.17-.61-.25-.95-.26-.05,0-.09,0-.14,0l.5.07c-.07,0-.13-.03-.2-.05l.45.19c-.07-.03-.14-.07-.2-.11l.38.29c-.06-.05-.12-.1-.16-.16l.29.38c-.05-.06-.09-.13-.12-.2l.19.45c-.03-.06-.04-.13-.05-.2l.07.5c0-.06,0-.12,0-.18l-.07.5c0-.07.03-.13.05-.2l-.19.45c.03-.07.07-.14.12-.2l-.29.38c.05-.06.1-.11.16-.16l-.38.29c.06-.05.13-.08.2-.11l-.45.19c.06-.03.13-.04.2-.05l-.5.07s.09,0,.14,0c.26,0,.5-.04.72-.16.23-.08.43-.2.6-.39.18-.17.31-.37.39-.6.12-.22.17-.46.16-.72l-.07-.5c-.09-.32-.25-.59-.48-.83l-.38-.29c-.29-.17-.61-.25-.95-.26h0Z"/></g><g class="cls-5"><path class="cls-4" d="M146.13,231.9s.03,0,.05.01c.18.03.36.05.54.07.04,0,.07,0,.11,0,.02,0,.04,0,.06,0,.17-.01.36-.04.53-.07.04,0,.08-.01.11-.02.03,0,.07-.02.1-.04.18-.07.36-.14.53-.23.2-.11.38-.27.55-.41.06-.05.11-.1.16-.16.12-.15.24-.3.35-.46.02-.03.04-.07.06-.1.02-.03.03-.07.05-.1.08-.18.16-.35.22-.54.07-.22.09-.48.11-.7,0-.04,0-.08,0-.12,0-.02,0-.04,0-.06-.02-.18-.04-.36-.07-.54,0-.04-.02-.08-.03-.12-.07-.19-.14-.38-.24-.56-.12-.22-.28-.39-.48-.53-.18-.17-.39-.28-.64-.34-.25-.08-.5-.09-.75-.03-.25.01-.48.09-.7.22l-.38.29c-.23.23-.39.51-.48.83l-.07.5c0,.34.09.65.26.95.01.03.03.05.04.08l-.19-.45c.02.06.04.13.05.19l-.07-.5c0,.07,0,.14,0,.21l.07-.5c-.01.09-.04.18-.07.26l.19-.45c-.04.09-.09.17-.15.25l.29-.38c-.06.08-.14.15-.22.22l.38-.29c-.07.05-.14.09-.22.13l.45-.19c-.07.03-.15.05-.22.06l.5-.07c-.07,0-.13,0-.2,0l.5.07s-.06,0-.08-.02c-.25-.08-.5-.09-.75-.03-.25.01-.48.09-.7.22-.22.12-.39.28-.53.48-.17.18-.28.39-.34.64l-.07.5c0,.34.09.65.26.95l.29.38c.23.23.51.39.83.48h0Z"/></g><g class="cls-5"><path class="cls-4" d="M215.46,242c-.18.55-.15,1.13-.04,1.69.05.26.18.52.29.76.05.12.12.23.19.33.16.21.33.46.53.64s.41.35.65.48c.49.28,1.05.44,1.62.43.26,0,.5-.04.72-.16.23-.08.43-.2.6-.39.18-.17.31-.37.39-.6.12-.22.17-.46.16-.72l-.07-.5c-.09-.32-.25-.59-.48-.83-.36-.33-.82-.55-1.33-.55-.07,0-.14,0-.2-.01l.5.07c-.12-.02-.23-.05-.34-.1l.45.19c-.12-.05-.22-.12-.32-.19l.38.29c-.11-.09-.21-.19-.3-.31l.29.38c-.09-.12-.16-.24-.22-.37l.19.45c-.05-.12-.09-.25-.11-.39l.07.5c-.02-.13-.02-.25,0-.37l-.07.5c.01-.08.03-.15.05-.22.08-.25.09-.5.03-.75-.01-.25-.09-.48-.22-.7-.12-.22-.28-.39-.48-.53-.18-.17-.39-.28-.64-.34l-.5-.07c-.34,0-.65.09-.95.26l-.38.29c-.23.23-.39.51-.48.83h0Z"/></g></svg>