<svg id="Layer_1" data-name="Layer 1" xmlns="http://www.w3.org/2000/svg" width="520" height="520" viewBox="0 0 520 520"><defs><style>.cls-1{fill:#221f1f;}.cls-2{fill:#232020;}.cls-3{fill:none;stroke:#221f1f;stroke-miterlimit:10;stroke-width:2px;}</style></defs><title>Notioly v2</title><g id="_87.Alert" data-name="87.Alert"><path class="cls-1" d="M183.75,424,182,407.13l-.71-6.15-2.17-21.71c-.32-3.21-.69-6.44-1.08-9.61-.47-4.1-1.09-8.16-1.17-12.35,0-1.32.55-1.13,1.16-.08a14.28,14.28,0,0,1,1.53,5.31c.89,8.33,1.75,16.68,2.42,25.13.4,5.05,1.1,10.27,1.66,15.42l1.84,17c.38,3.48.77,7,1.16,10.45.6,5.28,1.19,10.58,1.87,15.8.53,4.07,1.17,8,1.79,12l.42,2.63a27.18,27.18,0,0,1,.37,3.51,3,3,0,0,1-.31,1.61,3.62,3.62,0,0,1-.3.56c-.19.21-.43,0-.69-.58a12.28,12.28,0,0,1-.76-2.74c-1.37-7.14-2.35-14.71-3.3-22.33-.66-5.65-1.33-11.34-2-17Z"/><path class="cls-1" d="M193.59,425.07l-.12-17.16-.11-6.26-.13-22.07c0-3.26-.11-6.55-.22-9.78-.13-4.16-.37-8.33-.22-12.5.09-2.6,2.21.66,2.33,5.45.21,8.49.3,17,.18,25.55-.07,5.13.13,10.46.19,15.7l.17,17.29c0,3.55.07,7.1.1,10.64.06,5.37.1,10.77.21,16.1.09,4.15.31,8.21.45,12.31,0,.9.09,1.78.1,2.69a27.16,27.16,0,0,1-.09,3.59,3,3,0,0,1-.59,1.6,2.34,2.34,0,0,1-.39.46c-.46.27-.76-1-.92-3.51-.43-7.3-.62-15-.76-22.78-.08-5.76-.16-11.54-.24-17.31Z"/><path class="cls-1" d="M203.63,423.77l1.25-16.88.37-6.17L206.73,379c.21-3.21.34-6.45.46-9.64.16-4.1.2-8.23.61-12.32.26-2.55,2.17.79,2,5.52-.35,8.38-.86,16.75-1.6,25.18-.44,5-.63,10.31-1,15.47l-1.2,17c-.26,3.49-.53,7-.79,10.48-.43,5.28-.85,10.6-1.28,15.85-.32,4.08-.55,8.09-.93,12.13-.07.89-.16,1.77-.27,2.67a18.53,18.53,0,0,1-.69,3.52,2.61,2.61,0,0,1-.92,1.44,2.22,2.22,0,0,1-.5.34c-.51.11-.43-1.14-.18-3.53.7-7.11,1.23-14.72,1.85-22.33.43-5.66.86-11.35,1.28-17Z"/><path class="cls-1" d="M153.51,77.58c-.71,2.79-.78,5.67-1.44,8.46-.92,3.86-3.57,5.72-7.21,7.08-1.73.64-.11,1.1.93.71,3.23-1.21,6.62-2.83,8.16-6.1s1.27-7.16,2.14-10.58c.17-.65-2.4-.28-2.58.43Z"/><path class="cls-1" d="M201.61,57.9c1.84-3.81,6.42-8.07,10.85-8.22.43,0,2.43-.87,1.42-.84a17.63,17.63,0,0,0-14.41,9.46c-.13.26,1.88.14,2.14-.4Z"/><path class="cls-1" d="M236,143.69c-13.62,4.89-18.89-2.53-21.68-8.66,2.21-5.14,4.62-11.33,5.27-17.69,4-.85,8.51-2.33,10.3-6.7,1.26-3.11,1.16-11.22-3.7-11.12a7,7,0,0,0-6.2,4c-.19-10.93-4.59-17.08-8.94-22-2.84-3.19-7.78-6-12-6-14.06,0-24.73,18.59-25,28,0,.49-7.59-8.14-10.86.91-2.17,6,4.22,13.75,11.17,13.75.84,6.3,5.16,13.78,9.49,20.11-25.07,20.21-52.17.93-54.06-13.64-1.48-11.35,5.46-17,13.35-24.41,5.48-5.14,7.57-7.86,8.65-15.44C153.13,75.27,163,45.59,187.82,48c7.77.73,13.24,9.41,13.51,9,2.45-3.88,20.5-13,33.32,5.24,5.51,7.84,9.89,27,3.25,43.2-3,7.35,5.32,11.93,7.72,18.4C248.27,131,244,140.84,236,143.69Z"/><path class="cls-1" d="M152.31,89a19.5,19.5,0,0,1-2,5A23.28,23.28,0,0,1,147,98.29c-2.42,2.52-5,4.7-7.37,7a37.86,37.86,0,0,0-6.33,7.43,16.92,16.92,0,0,0-2.53,9c-.28,6.43,3.79,12.2,8.7,16.36a33.46,33.46,0,0,0,8.29,5.13,32.13,32.13,0,0,0,9.41,2.55,31.7,31.7,0,0,0,14.06-1.57,36,36,0,0,0,6.49-3c1.06-.56,2-1.29,3-1.92l1.3-1,.18-.13.05,0,0-.05-.07-.11-1.66-2.57c-.63-1-1.26-2-1.86-3.1a58.09,58.09,0,0,1-3.25-6.51c-.48-1.13-.89-2.28-1.26-3.46-.16-.6-.35-1.19-.48-1.8l-.19-.88-.05-.31c0-.14-.17-.08-.27-.11h-.28l-.24,0a11,11,0,0,1-1.9-.48,12.58,12.58,0,0,1-3.43-1.78,15.06,15.06,0,0,1-2.79-2.62,14,14,0,0,1-2-3.31,10.24,10.24,0,0,1-.81-3.84,9.17,9.17,0,0,1,.86-3.87,7.05,7.05,0,0,1,2.58-3.18,4.5,4.5,0,0,1,2.13-.65,6,6,0,0,1,2.1.28,9.58,9.58,0,0,1,1.81.81c.28.15.55.32.82.5l.39.26.19.14q.26.2.51.42s.1.1.13.06v-.16l0-.33c0-.09,0-.18,0-.27l.09-.52c.12-.49.21-1,.35-1.48.25-1,.57-1.93.91-2.87a41.23,41.23,0,0,1,2.51-5.44,39.53,39.53,0,0,1,7.25-9.48,24,24,0,0,1,10.4-6A15.45,15.45,0,0,1,201,75a17.56,17.56,0,0,1,5.71,2.13,21,21,0,0,1,3.33,2.37A18,18,0,0,1,211.52,81c.45.51.88,1,1.3,1.51a36,36,0,0,1,4.51,6.64A29.29,29.29,0,0,1,220,96.67c.14.66.27,1.31.35,2l.14,1,.06.55c0,.38,0,.69.06,1l0,.23v.11s0,.12,0,0a2.71,2.71,0,0,1,.23-.41,3.11,3.11,0,0,1,.58-.67l.17-.13.42-.3c.29-.18.59-.35.89-.5a8.6,8.6,0,0,1,1.93-.65,6.35,6.35,0,0,1,2.1-.08,4.25,4.25,0,0,1,1.08.3,4.59,4.59,0,0,1,2.27,2.27,10.36,10.36,0,0,1,1,3.82,15.71,15.71,0,0,1-.17,3.87,9.51,9.51,0,0,1-.53,1.94,10.72,10.72,0,0,1-1,1.76,12.26,12.26,0,0,1-6.36,4.44c-.6.22-1.21.39-1.82.56l-.79.2-.18,0s-.16,0-.14.1l-.06.46-.12.86c-.09.62-.21,1.24-.33,1.85a55.31,55.31,0,0,1-2,7.21c-.41,1.18-.85,2.34-1.31,3.49l-1.25,3c0,.08.36.78.64,1.28s.57,1,.88,1.54a17,17,0,0,0,2.12,2.78,13.16,13.16,0,0,0,2.66,2.17,12,12,0,0,0,3.17,1.27,16.61,16.61,0,0,0,6.95,0c.72-.16,1.36-.25,1.88-.39s1-.25,1.29-.32c.67-.14,1-.14,1,0s-.34.35-1,.68c-.31.17-.71.37-1.18.58s-1,.38-1.66.59a18,18,0,0,1-4.73.84,13.31,13.31,0,0,1-9.43-3.43,17.51,17.51,0,0,1-2.63-3c-.4-.55-.75-1.14-1.11-1.74-.16-.31-.33-.61-.5-.92s-.39-.78-.58-1.18l-.22-.45a2.4,2.4,0,0,1-.11-.23l.1-.23.39-.94.4-1c.26-.63.51-1.27.77-1.92a57.31,57.31,0,0,0,3.34-11.13c.1-.47.16-.95.23-1.42l.15-1.25.09-.68,0-.35c0-.09.22-.07.32-.11l1.45-.33.81-.2c.46-.11.91-.25,1.35-.38a11.82,11.82,0,0,0,4.61-2.54,7.33,7.33,0,0,0,1.48-2l.27-.56c0-.19.12-.36.18-.56a11.87,11.87,0,0,0,.26-1.27,11.55,11.55,0,0,0-.39-5.2,3.48,3.48,0,0,0-1.14-1.71,2.34,2.34,0,0,0-1.82-.32,5.84,5.84,0,0,0-2.24.79,2.2,2.2,0,0,0-.25.17l-.12.08a.77.77,0,0,0-.19.16l-.57.5c-.18.21-.36.48-.54.72a2.68,2.68,0,0,0-.28.43l-.31.64-.67,1.39-1.66,3.44-.19-4.33c-.05-1.59-.16-3-.25-4.39l0-.53,0-.26,0-.13-.08-.54-.16-1.07c-.15-.71-.25-1.43-.45-2.12a27.26,27.26,0,0,0-3.35-7.92,34.86,34.86,0,0,0-2.53-3.56c-.47-.57-.94-1.14-1.43-1.69a15.15,15.15,0,0,0-1.47-1.52,17.72,17.72,0,0,0-7.32-4,11.05,11.05,0,0,0-4.06-.25,15.35,15.35,0,0,0-4.09,1,22.92,22.92,0,0,0-7.22,4.62,35.63,35.63,0,0,0-5.66,6.74,38.71,38.71,0,0,0-4,7.89c-.3.82-.56,1.66-.78,2.5-.12.43-.21.86-.3,1.29l-.07.36c0,.2-.07.39-.1.6-.06.4-.08.83-.12,1.26a5.29,5.29,0,0,1-.21.75l-.29.35-.14.18c0,.08-.17.07-.22.08a1.24,1.24,0,0,1-.48-.06,2,2,0,0,1-.62-.25,8.61,8.61,0,0,1-.72-.55l-.72-.57-.55-.4a7.18,7.18,0,0,0-3.35-1.4,2.94,2.94,0,0,0-2.69,1.43,8.44,8.44,0,0,0-.88,1.66,7.09,7.09,0,0,0-.28.9l-.12.44,0,.46a8.1,8.1,0,0,0,.52,3.71,11.82,11.82,0,0,0,2.06,3.32,11.39,11.39,0,0,0,6.7,3.85,2.25,2.25,0,0,0,.35,0l.42,0,.83.06.42,0c.09,0,.09.06.1.13l0,.22.14.86c.05.27.1.63.14.81l.11.5c.07.34.15.67.25,1a29.78,29.78,0,0,0,1.37,4,58.78,58.78,0,0,0,3.86,7.53c.73,1.22,1.49,2.42,2.27,3.61l1.67,2.49c0,.06.1.12.11.18l-.18.14-.36.27-.72.54-1.11.84a41,41,0,0,1-7.55,4.47,35.75,35.75,0,0,1-10,2.9,34.16,34.16,0,0,1-10.44-.27,34.71,34.71,0,0,1-9.87-3.36,35.25,35.25,0,0,1-8.49-6,27.58,27.58,0,0,1-6.13-8.5,17.45,17.45,0,0,1-1.42-5.14,23.23,23.23,0,0,1-.14-2.64c0-.44,0-.89,0-1.33l.13-1.32A20.32,20.32,0,0,1,133,109.5a60.09,60.09,0,0,1,7.1-7.49c1.53-1.43,3.09-2.83,4.54-4.29a23.92,23.92,0,0,0,3.82-4.7,18.89,18.89,0,0,0,2.07-5.64c.21-1,.37-2,.53-3s.39-2.1.64-3.13A64.54,64.54,0,0,1,156,69.26a52,52,0,0,1,6.7-10.77,42.15,42.15,0,0,1,4-4.2,34.19,34.19,0,0,1,4.72-3.45,28.78,28.78,0,0,1,5.34-2.4,25.65,25.65,0,0,1,5.74-1.16,28.51,28.51,0,0,1,2.92-.12c1,.05,1.93.07,2.93.19a14.59,14.59,0,0,1,5.57,2.06,25.21,25.21,0,0,1,4.57,3.64c.68.68,1.34,1.39,2,2.11l.61.68c.2.37.36-.08.54-.23l.19-.19.37-.32c.26-.22.52-.42.79-.61a19.56,19.56,0,0,1,1.67-1.06,22.28,22.28,0,0,1,3.57-1.58,23.14,23.14,0,0,1,7.64-1.26A21.15,21.15,0,0,1,223.44,52a23.51,23.51,0,0,1,6.57,4,29.59,29.59,0,0,1,8.45,12.11,53.31,53.31,0,0,1,3.29,14.28,51.88,51.88,0,0,1-.58,14.61,33.86,33.86,0,0,1-.81,3.59l-.48,1.78c-.19.59-.41,1.16-.62,1.74s-.43,1.18-.6,1.72a7.27,7.27,0,0,0-.41,1.57,6.47,6.47,0,0,0,.25,3.17,17.22,17.22,0,0,0,3,5.15,55.25,55.25,0,0,1,3.82,5.24,14.07,14.07,0,0,1,1.92,5.5,16.9,16.9,0,0,1-.2,4.84,17.78,17.78,0,0,1-2.75,6.6,14.46,14.46,0,0,1-3.21,3.41l-.72.53-.71.4-.65.36-.64.24a9.68,9.68,0,0,1-2.21.63c-.39,0-.31-.1.17-.41.23-.16.58-.34,1-.6s.92-.57,1.45-1a15.8,15.8,0,0,0,3.58-3.8,17.24,17.24,0,0,0,2.74-6.7,13,13,0,0,0-.27-6,16.37,16.37,0,0,0-2.95-5.33c-1.29-1.71-2.75-3.38-4-5.37a13.88,13.88,0,0,1-1.52-3.28,9,9,0,0,1-.28-3.79c0-.32.08-.64.16-1l.29-.9c.2-.64.37-1.07.55-1.6a29.55,29.55,0,0,0,1-3.06c.29-1,.58-2.08.77-3.15l.31-1.59c.1-.54.15-1.08.23-1.61a53.9,53.9,0,0,0,.08-13.07,51.16,51.16,0,0,0-3.13-12.75,28.61,28.61,0,0,0-3-5.7,29.8,29.8,0,0,0-4.3-4.86,21.84,21.84,0,0,0-5.29-3.56,19.52,19.52,0,0,0-6.09-1.69,21,21,0,0,0-12.3,2.66,13.46,13.46,0,0,0-1.31.86,7.35,7.35,0,0,0-.6.47.81.81,0,0,0-.14.12l-.2.18a4.82,4.82,0,0,0-.58.67l-.43.39a.82.82,0,0,1-.22.17l-.18.05-.37.08a1.46,1.46,0,0,1-.43,0c-.58-.11-1.15-.81-1.68-1.41l-.89-1-.8-.85a25.45,25.45,0,0,0-3.46-3,15.5,15.5,0,0,0-3.92-2.1,11.17,11.17,0,0,0-2.09-.51c-.69-.09-1.52-.1-2.28-.15a24.76,24.76,0,0,0-17,6.05c-4.8,4-8.36,9.44-11.05,15.19a62.69,62.69,0,0,0-3.34,9c-.44,1.53-.82,3.07-1.1,4.61l-.39,2.41c-.15.84-.32,1.67-.53,2.5Z"/><path class="cls-1" d="M193,143.52a15.79,15.79,0,0,0,4.58,1.09,11.86,11.86,0,0,0,4.6-.48,15.49,15.49,0,0,0,7.5-5.63,31.82,31.82,0,0,0,3.59-6.24A53.82,53.82,0,0,0,217,119.93a71.11,71.11,0,0,0,1.15-13A58.5,58.5,0,0,0,217,95.51c-.79-4.8-3.74-8.79-6.79-12.61-1-1.2-.42-1.42.86-.78A13.52,13.52,0,0,1,216,86.84a22,22,0,0,1,3.08,7.47,59.2,59.2,0,0,1,1.06,7.72,68.33,68.33,0,0,1-.67,15.52c-1,6.12-2.51,12.5-5.55,18.2A32.54,32.54,0,0,1,211,140.2a21.23,21.23,0,0,1-3.89,3.74,14.05,14.05,0,0,1-4.91,2.36,14.87,14.87,0,0,1-5.43.32,20.46,20.46,0,0,1-11.6-5.8,40.66,40.66,0,0,1-10-16.56,35.49,35.49,0,0,1-1.66-7.31c-.29-2.46-.48-4.91-.56-7.38,0-1.09-.06-2.16,0-3.26.13-4.08.5-5.37,1.16-6.16a3,3,0,0,1,.46-.52c.5-.31.58,1.34.5,4.24a98.36,98.36,0,0,0,.64,13.2,37.89,37.89,0,0,0,4,12.58,36.56,36.56,0,0,0,5.59,8.18,21.69,21.69,0,0,0,7.81,5.64Z"/><path class="cls-1" d="M209.81,169.77c-.55.22-1.12.36-1.68.53s-1.15.27-1.71.34A27.75,27.75,0,0,1,203,171a41.25,41.25,0,0,1-6.68-.32,43.32,43.32,0,0,1-4.8-.81,33.31,33.31,0,0,1-8-3,18.68,18.68,0,0,1-6.57-5.68,13.45,13.45,0,0,1-2.38-7.4,11,11,0,0,1,1-5,8.06,8.06,0,0,1,3.53-3.72c1-.48,1,.12.62,1s-1.1,2.06-1.82,3.36a10,10,0,0,0-.48,8.11,14.35,14.35,0,0,0,5.58,6.7,29,29,0,0,0,10.72,4,37.15,37.15,0,0,0,12.7.37,13.94,13.94,0,0,0,6.84-3.21,12.58,12.58,0,0,0,4.21-10.38,9.93,9.93,0,0,0-4-7.38,8.7,8.7,0,0,0-1.59-.86,14.18,14.18,0,0,0-2.29-.67,2.61,2.61,0,0,1-1.12-.56,2.87,2.87,0,0,1-.4-.37c-.15-.21,0-.42.52-.61a2.67,2.67,0,0,1,1-.22c.2,0,.41,0,.65,0l.74.07a9,9,0,0,1,4.33,1.93,11.35,11.35,0,0,1,3,3.78,12.68,12.68,0,0,1,1.27,4.7,16.92,16.92,0,0,1-.39,4.8,14.17,14.17,0,0,1-3.4,6.36,15.52,15.52,0,0,1-5.95,4Z"/><path class="cls-1" d="M197.9,157.17a15.38,15.38,0,0,1-4.84-.71,11.8,11.8,0,0,1-6.52-4.44,13.06,13.06,0,0,1-1.49-2.36,4.89,4.89,0,0,1-.43-3.64c.12-.39.65-.17,1.14.18a3.8,3.8,0,0,1,.66.58,1.05,1.05,0,0,1,.36.64,9.36,9.36,0,0,0,2.69,4.83,8.84,8.84,0,0,0,3.24,1.9,12.57,12.57,0,0,0,4.13.9,9.85,9.85,0,0,0,2.6-.17,6.31,6.31,0,0,0,3.39-1.7,4.7,4.7,0,0,0,1.16-2.55,4.34,4.34,0,0,0,.06-.62c.11-.76.19-1,.79-1.19l.4-.12c.44-.09.79.29.88,1a6.45,6.45,0,0,1-.7,3.38,6.87,6.87,0,0,1-2.52,2.69,10.45,10.45,0,0,1-5,1.43Z"/><path class="cls-1" d="M134.71,222.21a49,49,0,0,1,2.19-9.31c1-3,2.09-5.92,3.28-8.82.87-2.11,1.73-4.22,2.69-6.28a179,179,0,0,1,11.58-21.09c1.93-3,3.94-6,6.14-8.77a38.09,38.09,0,0,1,4.67-5.11,14.1,14.1,0,0,1,3-2.05,5.33,5.33,0,0,1,3.84-.56,1.67,1.67,0,0,1,.82.47c.14.15.16.27.09.36s-.59.16-1.17.3a5.91,5.91,0,0,0-1.93.87c-.73.48-1.55,1.15-2.48,1.9a33.28,33.28,0,0,0-4.61,4.72c-1.43,1.73-2.79,3.55-4.1,5.41-2.61,3.74-5,7.63-7.4,11.61A148.56,148.56,0,0,0,143.73,201a106.6,106.6,0,0,0-6.24,17.49,25.84,25.84,0,0,0-.77,5.53,7,7,0,0,0,.45,2.62l.43,1.33.56,1.28c2.36,5.19,6.13,9.75,10,13.95,3.06,3.26,6.34,6.2,9.61,9.2l2.17,2c2.67,2.5,3.4,3.46,3.54,4.42a2.59,2.59,0,0,1,.09.64c-.08.56-1.35-.26-3.36-2-5.94-5.23-12.27-10.84-17.72-17.49a47.3,47.3,0,0,1-5.43-8,23.83,23.83,0,0,1-1.06-2.22,16.77,16.77,0,0,1-.87-2.34c-.12-.41-.27-.76-.37-1.23a9.92,9.92,0,0,1-.19-1.38,16.79,16.79,0,0,1,.06-2.57Z"/><path class="cls-1" d="M236.5,198.76c-.68-3.42-1.39-6.84-2.2-10.23-.3-1.23-.66-2.45-1-3.67A72,72,0,0,0,229,172.25a19.39,19.39,0,0,0-3.17-4.81,8.79,8.79,0,0,0-2.79-2,6.27,6.27,0,0,0-3.21-.46c-.69.08-.83-.45-.25-1.13a2.21,2.21,0,0,1,.58-.49,2.88,2.88,0,0,1,.89-.38,4,4,0,0,1,2.43.11,9.78,9.78,0,0,1,3.73,2.56,18.84,18.84,0,0,1,2.48,3.39,36.35,36.35,0,0,1,3.17,7.43c1,3,2,6.15,2.82,9.28.89,3.43,1.65,6.89,2.37,10.36l1.3,6.39c.66,3.22,1.27,6.46,2,9.63a68.68,68.68,0,0,0,2.16,7.14c.19.51.39,1,.6,1.48.77,1.83,1,2.19.83,2.87,0,.14,0,.33,0,.48s-.3.33-.76.11a3.75,3.75,0,0,1-1.37-1.46,30.8,30.8,0,0,1-2.56-6.63c-.64-2.28-1.18-4.6-1.69-6.93l-2.16-10.37Z"/><path class="cls-1" d="M279.36,188.61l-9,10.49c-1.09,1.28-2.14,2.59-3.25,3.86-3.91,4.46-7.92,8.86-12.14,13.06-1.87,1.86-3.77,3.73-5.75,5.48a37.3,37.3,0,0,1-4.06,3.16,13.3,13.3,0,0,1-2.37,1.24,5.85,5.85,0,0,1-2.83.43c-.66-.09-.87-.4-.78-.57s.45-.35.86-.59c.82-.45,1.86-1.27,3.39-2.2a51.06,51.06,0,0,0,7.71-6.21c2.46-2.31,4.87-4.73,7.27-7.18,2.88-2.93,5.6-6.24,8.34-9.44l9-10.6c1.86-2.18,3.71-4.36,5.69-6.46.76-.79,1.54-1.57,2.39-2.3A10.08,10.08,0,0,1,286.8,179a7.92,7.92,0,0,1,3.45-.47,10.39,10.39,0,0,1,3.31.83,19.25,19.25,0,0,1,4.58,2.39,4.65,4.65,0,0,1,1.08,1.12,2,2,0,0,1,.27,1.76,2.16,2.16,0,0,1-.53.78,5.67,5.67,0,0,1-.66.54,4.36,4.36,0,0,1-1.33.66,5.53,5.53,0,0,1-2.55.24,5.22,5.22,0,0,1-3-1.39,1.85,1.85,0,0,1-.61-1.41,1.93,1.93,0,0,1,.1-.54c.29-.46,1,.36,2.48.95a4.12,4.12,0,0,0,3.36-.06,2.39,2.39,0,0,0,.34-.21l.16-.11.08-.09s0-.06,0-.09a.14.14,0,0,0-.07-.08,4.67,4.67,0,0,0-.62-.54,17.44,17.44,0,0,0-3.75-1.94,13.73,13.73,0,0,0-2-.63,2.73,2.73,0,0,0-.39-.07l-.52,0c-.34,0-.67,0-1,0a5.48,5.48,0,0,0-2.56.92,16.83,16.83,0,0,0-2.43,2.06c-1.59,1.57-3.1,3.32-4.61,5.08Z"/><path class="cls-1" d="M267.61,225.93a158.33,158.33,0,0,1-11.29,13.46,53.65,53.65,0,0,1-4.69,4.47,26.49,26.49,0,0,1-4.86,3.23,9.39,9.39,0,0,1-1.38.59l-.72.26c-.25.07-.51.12-.76.18a9.48,9.48,0,0,1-3.09.15,12.32,12.32,0,0,1-5.58-2.16,18,18,0,0,1-4.17-4.09,44.87,44.87,0,0,1-5-8.78,90.92,90.92,0,0,1-4.4-12c-.38-1.25.19-1.28,1.08-.41a14,14,0,0,1,2.85,4.94,78.42,78.42,0,0,0,5,11.63,26.94,26.94,0,0,0,3.57,5A12.58,12.58,0,0,0,239,245.8a8.75,8.75,0,0,0,3.47.52,8.46,8.46,0,0,0,3.4-1,28.67,28.67,0,0,0,6.19-4.6,112,112,0,0,0,11.55-13c2.22-2.83,4.37-5.71,6.5-8.61l4.87-6.6,2.47-3.27,1.26-1.62.65-.8.55-.66.19-.22.27-.31c0-.06.12-.1.1-.17a.31.31,0,0,0-.17-.12,6,6,0,0,0-.79-.25l-2.76-.73a45.9,45.9,0,0,1-5.77-1.92,23.31,23.31,0,0,1-2.56-1.26,9.46,9.46,0,0,1-3-2.51,2.48,2.48,0,0,1-.57-1.74,1.79,1.79,0,0,1,.12-.61c.31-.48,1,.65,2.81,2a25.48,25.48,0,0,0,7.15,3.29c1.31.41,2.65.78,4,1.15l1.12.31a10.8,10.8,0,0,1,1.92.69,1.7,1.7,0,0,1,.94,1.16,11.3,11.3,0,0,1-.4,1.39c-.34.38-.71.77-1,1.17l-.57.69-1,1.2-1.9,2.48c-3.47,4.66-6.9,9.46-10.44,14.15Z"/><path class="cls-1" d="M289.73,191.71a5.63,5.63,0,0,1-1.73-.59,6.21,6.21,0,0,1-.81-.52,3.65,3.65,0,0,1-.84-.87,2,2,0,0,1-.32-1.64,2.65,2.65,0,0,1,.84-1.25,4.41,4.41,0,0,1,1-.67,11.26,11.26,0,0,1,1.87-.7l1.63-.51a3.86,3.86,0,0,1,2.25-.28c.28.08.16.63,0,1.16s-.38,1.06-.7,1.11c-1.18.22-2.48.52-3.7.82a2.45,2.45,0,0,0-.83.4.56.56,0,0,0-.19.37c0,.17.09.28.26.43a3.78,3.78,0,0,0,1,.52,4,4,0,0,0,1.49.2,11,11,0,0,0,2.51-.46c.66-.19,1.3-.51,2-.7a3,3,0,0,1,.49-.13c.64-.09.87.1.95.67a2.6,2.6,0,0,1,.05.39.92.92,0,0,1-.55.92,25.45,25.45,0,0,1-3.37,1.13,9.22,9.22,0,0,1-3.34.26Z"/><path class="cls-1" d="M291.56,195.8a12.27,12.27,0,0,1-1.48-.05c-.24,0-.49-.05-.8-.11l-.43-.08-.55-.15a3.36,3.36,0,0,1-1.37-.65,1.64,1.64,0,0,1-.3-2.18,3.43,3.43,0,0,1,.86-.93,4.7,4.7,0,0,1,.53-.38l.27-.16.21-.11,1.42-.75a3.42,3.42,0,0,1,2-.57c.25,0,.24.6.16,1.15s-.19,1.1-.47,1.19c-.5.17-1,.37-1.54.58l-.39.16c-.1,0-.31.15-.3.11a.78.78,0,0,0-.3,0c-.17,0-.31.16-.29.29s.17.19.27.25a1.45,1.45,0,0,0,.56.18,8,8,0,0,0,1.16.11,9.76,9.76,0,0,0,1.52-.09,10.8,10.8,0,0,0,2.3-.53,8.36,8.36,0,0,0,1.6-.89,3.78,3.78,0,0,1,.33-.22c.43-.24.62-.18,1,.28l.25.32a.81.81,0,0,1-.09,1.08,8,8,0,0,1-3.28,1.71,14.76,14.76,0,0,1-2.85.48Z"/><path class="cls-1" d="M290.44,200.26a5.66,5.66,0,0,1-2.93-.87,4.94,4.94,0,0,1-.54-.4,2.07,2.07,0,0,1-.48-.54,2,2,0,0,1,0-2.35,3.59,3.59,0,0,1,1.69-1.27c.49-.2,1-.38,1.45-.53a2.68,2.68,0,0,1,2.05-.07c.22.1,0,.63-.21,1.14s-.41,1-.63,1a9.38,9.38,0,0,0-1.3.23,9.05,9.05,0,0,1-1.08.26.23.23,0,0,0-.22.24.58.58,0,0,0,.18.32,2.61,2.61,0,0,0,1.54.68,6,6,0,0,0,1.34,0,8.32,8.32,0,0,0,2.09-.41,7.48,7.48,0,0,0,1.46-.82c.1-.06.19-.14.3-.2.39-.21.56-.15.91.32.08.1.16.2.24.32a.81.81,0,0,1-.06,1.06,6.79,6.79,0,0,1-3.05,1.57,11.23,11.23,0,0,1-2.71.34Z"/><path class="cls-1" d="M153.79,228.53c-.15-.3-.32-.57-.49-.85s-.16-.28-.25-.41l-.37-.54c-.05-.13-.16-.23-.16-.38s-.14-.24-.14-.38a2.51,2.51,0,0,1,0-.82,2.06,2.06,0,0,1,.08-.39c0-.09.05-.2.08-.28l.18-.49c.25-.63.52-1.19.81-1.76s.6-1.29.95-1.91c1.23-2.16,2.57-4.23,3.89-6.31.58-.92,1.12-1.87,1.65-2.82a21,21,0,0,1,2.16-3.55c.55-.67,1.79,1.32,1,2.71-1.43,2.45-2.95,4.81-4.6,7.13A41.52,41.52,0,0,0,156,222c-.38.71-.75,1.43-1.07,2.15a8.48,8.48,0,0,0-.4,1c-.08.24-.13.38,0,.54l.41.62c.67,1,1.22,2.11,1.77,3.16a38,38,0,0,0,2.63,4.59,14,14,0,0,0,2.76,2.79c.22.18.46.33.69.49.83.65,1.06.88.94,1.52,0,.14,0,.29-.08.42-.14.43-.72.48-1.53.09a15.12,15.12,0,0,1-5.58-5.78c-1-1.7-1.85-3.47-2.78-5.05Z"/><path class="cls-1" d="M232.38,347.42c-17.21,24-80.58,3.47-82.37,1.16-1.43-2.58,9.67-63.19,15.85-104.2,14.91,9.69,41.86,6,54.67.47C224.55,282.7,233,336.05,232.38,347.42Z"/><path class="cls-1" d="M187.49,251.61a56.42,56.42,0,0,1-13.55-2.22,36.33,36.33,0,0,1-6.44-2.64l-.45-.26-.12-.07-.11-.07s0,.08,0,.12l-.35,2.21c-1.4,8.86-2.87,17.71-4.35,26.55q-1.6,9.69-3.2,19.36C157,306,155,317.32,153.18,328.69c-.87,5.68-1.82,11.39-2.36,17.06,0,.35-.06.7-.07,1.05s0,.72,0,1,0,.33.16.41a2.64,2.64,0,0,0,.24.14c.14.07.27.15.44.22,1.25.58,2.6,1.07,3.94,1.55,2.69,1,5.44,1.79,8.2,2.55a151,151,0,0,0,30,5.26,79.93,79.93,0,0,0,19.31-.85,39.78,39.78,0,0,0,9.15-2.74,25,25,0,0,0,7.83-5.22c2.53-2.93,2.73-2.32.89.74a25.15,25.15,0,0,1-2.08,2.43l-1.48,1.31a18.27,18.27,0,0,1-1.79,1.28,30.52,30.52,0,0,1-9.71,4,64.65,64.65,0,0,1-10.12,1.4,98.19,98.19,0,0,1-10.15,0,141.38,141.38,0,0,1-20-2.62A160.32,160.32,0,0,1,156,352.5c-1.6-.55-3.19-1.13-4.79-1.83-.42-.19-.76-.33-1.28-.62a4.88,4.88,0,0,1-.89-.68c-.18-.1-.16-.32-.23-.49l-.14-.54a3.44,3.44,0,0,1,0-.54v-.37l0-.67c0-.45.06-.87.1-1.3.32-3.4.83-6.71,1.33-10,2.51-15.89,5.24-32.37,7.94-48.58l4.45-26.72,2.13-13.37.38-2.42a11.15,11.15,0,0,1,.22-1.27l1.16.66,2.08,1.18.72.41.75.33a38.89,38.89,0,0,0,6.24,2.22,61.59,61.59,0,0,0,16.32,1.72,86.07,86.07,0,0,0,16.39-1.9l3.05-.71,3-.84c1-.33,2-.65,3-1l1.87-.73,1.08-.42c.08,0,.19-.1.25-.07l0,.28.06.58.75,6.88.71,6.28q1.49,12.54,3.13,25c1.75,12.87,3.47,25.49,5.2,38.21.36,2.81.74,5.56,1.06,8.4,1.21,10.51,1.17,14,.63,16.25a13.43,13.43,0,0,1-.39,1.49c-.22.49-.42-.34-.58-2.21s-.54-4.88-1-8.7c-1.31-11.37-3-23-4.57-34.89s-3.23-23.87-4.72-35.94q-.81-6.73-1.61-13.47l-.56-5.16s0,0,0,0l-.33.13c-.27.1-.54.21-.82.3-1.1.34-2.19.76-3.3,1a87,87,0,0,1-13.53,2.74,81.28,81.28,0,0,1-13.78.55Z"/><path class="cls-1" d="M220.32,230.2l.19,4.78c0,.58.11,1.16.13,1.74.09,2.05.15,4.11.26,6.16.06.91.16,1.82.28,2.71a16.86,16.86,0,0,1,.33,3.47c0,.74-1.94,0-2.09-1.32a53.1,53.1,0,0,1-.39-7.15c0-1.44-.18-2.92-.27-4.38l-.23-4.83-.13-3c-.07-1.5-.11-3-.22-4.49-.09-1.16-.28-2.29-.41-3.44,0-.25-.07-.49-.09-.75-.06-.95.06-1.25.55-1.47a2,2,0,0,1,.34-.14c.38-.1.71.28.84,1a49.1,49.1,0,0,1,.7,6.31c.09,1.6.17,3.21.26,4.81Z"/><path class="cls-1" d="M167.25,230.63c.34-1.91.64-3.81.9-5.73l.23-2.1c.32-2.46.62-4.92.8-7.4a29.94,29.94,0,0,0,0-3.28c-.07-1.37-.21-2.83-.3-4,0-.34.41-.56,1-.31a2,2,0,0,1,.8.7,2.2,2.2,0,0,1,.42,1.15,38.66,38.66,0,0,1-.43,8.82c-.27,1.74-.34,3.55-.55,5.33-.24,2-.53,3.89-.83,5.83l-.6,3.57c-.29,1.81-.66,3.61-.94,5.4-.24,1.39-.35,2.77-.55,4.16,0,.3-.07.6-.12.91-.2,1.13-.4,1.46-.93,1.6a2.49,2.49,0,0,1-.37.09c-.4,0-.61-.5-.56-1.34.17-2.49.62-5,1-7.63.32-1.91.66-3.83,1-5.76Z"/><path class="cls-1" d="M211,247.11c.61-.13,1.22-.28,1.83-.44s1.21-.29,1.82-.46c.44-.13.87-.29,1.31-.42,1.57-.41,3.14-.86,4.69-1.39.69-.24,1.36-.53,2-.81.84-.38,1.71-.73,2.59-1.07.28-.1.22-.12,0,0s-.48.55-.89.93a14.81,14.81,0,0,1-4.95,3.06c-1.1.39-2.18.94-3.31,1.33a36.34,36.34,0,0,1-3.81,1c-.8.14-1.59.31-2.39.42l-1.82.24-1.81.17a23.64,23.64,0,0,1-2.78.14l-.61,0c-.76-.08-1-.17-1.17-.18h-.1c-.08,0,.23,0,.78-.18.81-.2,1.63-.43,2.45-.7l2.46-.72,3.64-1Z"/><path class="cls-1" d="M190.5,466.09c1.82,0,4.5-.07,5.2,1.73.52,1.32.69,5.87.17,7.18-.33.82-1.68,1.61-2.46.79-.56-.58-.22-2.39-.53-3.14-1-2.43-4.3-.14-6,.9-6.94,4.17-17.78,3.41-17.78.86C169.07,471.35,183.68,467.36,190.5,466.09Z"/><path class="cls-1" d="M171.9,474.83a17.52,17.52,0,0,0,4.85.4,23.57,23.57,0,0,0,4.95-.73,20.07,20.07,0,0,0,3.4-1.26c1.17-.52,2.31-1.32,3.7-2a6.37,6.37,0,0,1,2.41-.64,3.39,3.39,0,0,1,.76.08,2.34,2.34,0,0,1,.77.35,2.55,2.55,0,0,1,.6.58,6.15,6.15,0,0,1,.37.66,4.68,4.68,0,0,1,.19,1.58,7.61,7.61,0,0,0,0,1.13c0,.07,0,.14,0,.18s0,0,0,0h0l-.09.07,0,0h0l.12-.11h0s0,0,0,0l.06,0a.8.8,0,0,0,.59-.14,1.11,1.11,0,0,0,.45-.47,3.86,3.86,0,0,0,.19-1,10.76,10.76,0,0,0,.07-1.15,20.26,20.26,0,0,0-.11-2.34,11.62,11.62,0,0,0-.29-1.75,1.48,1.48,0,0,0-.26-.59,1.4,1.4,0,0,0-.44-.39,9,9,0,0,0-3.27-.64c-.79-.08-.68-.63,0-1.16a4,4,0,0,1,5.35.5,3.72,3.72,0,0,1,.84,1.62,14.19,14.19,0,0,1,.35,2.53,21.87,21.87,0,0,1,0,2.43c0,.4,0,.82-.1,1.25a6.69,6.69,0,0,1-.35,1.48,3.32,3.32,0,0,1-1.92,1.76,2.7,2.7,0,0,1-1.49.12,2.11,2.11,0,0,1-.79-.33,2,2,0,0,1-.64-.61,2.65,2.65,0,0,1-.44-1.31c0-.34,0-.63,0-.91v-.74a2.54,2.54,0,0,0,0-.42.76.76,0,0,0,0-.11c-.07-.19-.12-.24-.23-.29a1.12,1.12,0,0,0-.64,0,6.91,6.91,0,0,0-1.93.79c-.67.37-1.32.81-2.08,1.24a16.54,16.54,0,0,1-2.3,1.07,25.37,25.37,0,0,1-10.8,1.52,13.71,13.71,0,0,1-2.92-.53,7.09,7.09,0,0,1-.73-.26,4.78,4.78,0,0,1-.79-.42,2.08,2.08,0,0,1-1-1.67,2.48,2.48,0,0,1,.47-1.22c.09-.12.21-.24.31-.35s.18-.17.26-.25a5.34,5.34,0,0,1,.55-.42,12.06,12.06,0,0,1,1.11-.7c.76-.41,1.53-.75,2.3-1.08,1.55-.65,3.11-1.19,4.67-1.72,2.43-.81,4.8-1.63,7.23-2.32.54-.16,1.06-.32,1.6-.46,2-.5,2.72-.48,3.26,0a3,3,0,0,1,.37.32c.27.4-.48.9-1.92,1.35-4.24,1.33-8.77,2.6-13.09,4.25a30.2,30.2,0,0,0-3.16,1.4A10.89,10.89,0,0,0,171,474c-.17.14-.38.35-.3.26s0,0,0,0a.06.06,0,0,0,0,.06,5.14,5.14,0,0,0,1.21.43Z"/><path class="cls-1" d="M200.74,466.09c-1.83,0-4.5-.07-5.21,1.73-.51,1.32-.69,5.87-.16,7.18.32.82,1.67,1.61,2.46.79.55-.58.21-2.39.52-3.14,1-2.43,4.3-.14,6,.9,6.94,4.17,17.78,3.41,17.79.86C222.17,471.35,207.55,467.36,200.74,466.09Z"/><path class="cls-1" d="M219.94,477.43a19.73,19.73,0,0,1-5.61.24,26.79,26.79,0,0,1-5.4-1,20.72,20.72,0,0,1-3.77-1.43c-1.36-.69-2.48-1.57-3.61-2.15a4.33,4.33,0,0,0-1.58-.55,1.4,1.4,0,0,0-.29,0c-.05,0-.13,0-.18.07s-.21.21-.32.38a3.4,3.4,0,0,0-.12.95,9.84,9.84,0,0,1-.15,1.41,2.06,2.06,0,0,1-.44,1,1.9,1.9,0,0,1-.95.57,2.29,2.29,0,0,1-1.84-.38,2.93,2.93,0,0,1-.74-.71,2.59,2.59,0,0,1-.42-1,9.67,9.67,0,0,1-.2-1.62,24.64,24.64,0,0,1,0-3.1,13.36,13.36,0,0,1,.24-2,3.2,3.2,0,0,1,.46-1.17,3,3,0,0,1,1-.91,5,5,0,0,1,2.17-.67,9.64,9.64,0,0,1,2,0c.8.06.69.62,0,1.15a12.57,12.57,0,0,1-2.76,1.41.84.84,0,0,0-.53.47,8,8,0,0,0-.28,1.51,23.83,23.83,0,0,0-.11,3.57,4,4,0,0,0,.16,1.09.7.7,0,0,0,.25.23s.08,0,.09.06,0,.19,0,.22,0,0,0,0,0,0-.06-.08l-.06-.07h0c.2.18-.44-.43.44.42h0l0,0-.07-.05a2.78,2.78,0,0,0-.42-.22,1.78,1.78,0,0,0,.12-.55l.08-.94a4.21,4.21,0,0,1,.28-1.32l.19-.34a3.42,3.42,0,0,1,.61-.74,2.54,2.54,0,0,1,.89-.47,3.15,3.15,0,0,1,1.72,0,9.43,9.43,0,0,1,2.49,1.05c.74.41,1.43.88,2.08,1.24a21.67,21.67,0,0,0,2.06,1,24.16,24.16,0,0,0,10,1.73,11.62,11.62,0,0,0,3-.5,3.07,3.07,0,0,0,.59-.25.87.87,0,0,0,.32-.25.58.58,0,0,0-.05-.76l-.1-.11a1.49,1.49,0,0,0-.18-.17,2.89,2.89,0,0,0-.42-.35,9.51,9.51,0,0,0-1-.63,21.41,21.41,0,0,0-2.14-1.08,46.05,46.05,0,0,0-4.55-1.7c-2.41-.75-4.84-1.27-7.27-1.78l-1.61-.31c-2-.42-2.61-.67-2.94-1.32a2.13,2.13,0,0,1-.21-.43c-.12-.47.79-.68,2.31-.49A63.11,63.11,0,0,1,216.81,469a21.92,21.92,0,0,1,5.06,2.6,7.83,7.83,0,0,1,.64.55c.08.08.26.28.41.46a5,5,0,0,1,.33.55,2.42,2.42,0,0,1,0,2.36,2.7,2.7,0,0,1-.84.91,2.62,2.62,0,0,1-.54.35,3.62,3.62,0,0,1-.4.19,7.9,7.9,0,0,1-1.51.47Z"/><path class="cls-2" d="M311.1,116.47l-17.25,64.39c-.23.74,3.46,1.72,3.64,1l17.25-64.39C314.9,116.86,311.25,115.89,311.1,116.47Z"/><path class="cls-2" d="M288.46,199.24l-15.55,59.2c-.21.67,3.49,1.63,3.64.94l15.54-59.17C292.24,199.67,288.59,198.7,288.46,199.24Z"/><path class="cls-1" d="M282.69,68l-2.77,9.43L279,80.9c-1.18,4-2.4,8.07-3.55,12.12-.51,1.8-.95,3.62-1.37,5.42-.53,2.32-1,4.68-1.67,6.92-.22.71-.75.51-1.14-.21a4.91,4.91,0,0,1-.34-3.34c1.11-4.77,2.44-9.45,4-14.12.92-2.8,1.62-5.77,2.44-8.66l2.75-9.52,1.69-5.85c.83-3,1.71-5.93,2.47-8.88.6-2.3,1.07-4.58,1.58-6.87.11-.51.2-1,.33-1.51.46-1.88.75-2.43,1.41-2.69a2.22,2.22,0,0,1,.45-.16c.47-.07.62.78.38,2.18-.7,4.16-1.81,8.45-3,12.74q-1.34,4.76-2.67,9.55Z"/><path class="cls-1" d="M338,54.31c-3.9-1.17-7.81-2.33-11.74-3.39-1.43-.4-2.88-.69-4.32-1.07-5.06-1.3-10.15-2.54-15.29-3.48-2.28-.42-4.6-.76-6.88-1l-4.42-.46c-1.47-.13-2.94-.29-4.4-.55-1.83-.33.68-2.15,4.12-1.83a130.87,130.87,0,0,1,18.07,3.15c1.79.44,3.62.84,5.45,1.27s3.68.84,5.5,1.3c4,1,8,2.15,11.92,3.31l7.29,2.16c3.67,1.1,7.35,2.24,11,3.26,2.85.79,5.68,1.44,8.52,2.13l1.87.44c2.32.59,3,.93,3.38,1.62a2.82,2.82,0,0,1,.23.46c.11.49-.94.58-2.67.25-5.16-1-10.49-2.46-15.8-4L338,54.36Z"/><path class="cls-1" d="M328.23,116.09c3.39,1,6.77,1.87,10.16,2.66,1.69.4,3.39.76,5.09,1a26.29,26.29,0,0,0,5,.44l.87,0c.25,0,.57-.13.74-.16a.2.2,0,0,0,.2-.12l.13-.24.19-.4c.49-1.11.93-2.32,1.38-3.5,3.11-8.43,5.88-17.06,8.6-25.67,1.2-3.83,2.33-7.7,3.42-11.53,1.4-4.92,2.68-9.89,4.27-14.74,1-3,1.91,1.41.3,7.1-2.86,10.06-5.93,20-9.35,30-1,3-2,6-3.05,9.11s-2,6.16-3.29,9.21c-.18.42-.36.83-.58,1.26l-.18.35c-.09.15-.18.31-.29.46a1.49,1.49,0,0,1-.85.59l-.85.2a3.9,3.9,0,0,1-.74.11l-1.42.08a34.7,34.7,0,0,1-5.44-.59c-3.54-.62-7-1.5-10.43-2.4-4.22-1.12-8.42-2.32-12.62-3.48-6.36-1.75-12.75-3.49-19.15-4.88-5-1.09-9.89-1.94-14.85-2.74l-3.26-.51c-4.08-.65-5.35-1-6.15-1.64a5.86,5.86,0,0,1-.55-.44c-.23-.24.18-.42,1-.48a19.32,19.32,0,0,1,3.49.16,237.63,237.63,0,0,1,27.64,5.2c6.92,1.68,13.76,3.66,20.6,5.52Z"/><path class="cls-1" d="M303.41,113.21l11.78,2.94,4.3,1L334.63,121c2.24.56,4.5,1.08,6.73,1.58,2.87.64,5.78,1.21,8.6,2.05,1.76.52-.86,1.5-4.16.73-5.86-1.35-11.69-2.79-17.53-4.4-3.5-1-7.19-1.76-10.79-2.64l-11.87-2.93c-2.44-.61-4.86-1.22-7.3-1.76-3.7-.83-7.44-1.58-11.15-2.14-2.9-.45-5.75-.73-8.63-1l-1.89-.15c-2.36-.21-3.1-.36-3.58-.82a2,2,0,0,1-.33-.31c-.23-.34.81-.58,2.56-.51a120,120,0,0,1,16.09,1.87c4,.72,8.06,1.61,12,2.59Z"/><path class="cls-1" d="M273.57,80.61l2.62-8.07.89-3c1.1-3.46,2.21-6.93,3.23-10.4a45.23,45.23,0,0,0,1.08-4.68c.35-2,.57-4,.88-6a.76.76,0,0,1,.12-.32s.06,0,.09,0l.33-.08-.08,0-.07,0h.06a.24.24,0,0,1,.14.06,1.45,1.45,0,0,1,.28.34,4.45,4.45,0,0,1,.5,2.84,55.5,55.5,0,0,1-1.24,6.29c-.54,2.07-1.21,4.08-1.89,6.09-.82,2.4-1.49,5-2.27,7.43l-2.59,8.16-1.62,5c-.81,2.53-1.65,5.06-2.42,7.58-.6,2-1.09,3.91-1.64,5.87l-.35,1.28c-.48,1.6-.75,2.08-1.26,2.29a2.19,2.19,0,0,1-.35.13c-.37,0-.42-.68-.14-1.87.82-3.53,1.93-7.19,3.07-10.85.86-2.71,1.73-5.43,2.59-8.15Z"/><path class="cls-1" d="M186.1,103c.41,3.52,2.25,10.35,7,9.1,4.22-1.1,3-7,2.73-10.26,0-.28-2.06,0-2,.55.12,1.59,1.24,8.56-1,9-1.54.29-2.87-2.71-3.33-3.8a18.52,18.52,0,0,1-1.38-5.11c0-.31-2.08.07-2,.54Z"/><path class="cls-1" d="M207.38,101.09c0,1.33.5,8.86-1.29,8.52-1.31-.25-2.06-2.91-2.38-4a24,24,0,0,1-.85-4.52c-.05-.47-2.09-.08-2,.54.3,3,1.22,9.83,5.63,9,4-.79,3-7.16,2.95-10.11,0-.43-2-.11-2,.54Z"/><path class="cls-1" d="M199,105a20.71,20.71,0,0,1-.31-6.61A21.94,21.94,0,0,1,199,96a10.55,10.55,0,0,1,5.32-6.74,9.84,9.84,0,0,1,3.71-1.14,6.48,6.48,0,0,1,4.78,1.23c.42.32,0,.72-.59,1a3.1,3.1,0,0,1-1,.28,1.89,1.89,0,0,1-1,0,7.69,7.69,0,0,0-7.12,2.11,6.71,6.71,0,0,0-1.46,2A8.27,8.27,0,0,0,201,97.2a19.41,19.41,0,0,0-.13,6,17.28,17.28,0,0,0,.91,3.6,18,18,0,0,0,2.79,4.91,20.84,20.84,0,0,0,3.16,3c.25.19.52.37.76.57.93.74,1.16,1.07,1,1.69a2.86,2.86,0,0,1-.1.42c-.17.42-.78.4-1.59-.08a19.37,19.37,0,0,1-6.17-6.09A20,20,0,0,1,199,105Z"/><path class="cls-1" d="M195.92,92.11c-1.15.6-1.53.62-1.75.45a9.48,9.48,0,0,0-2.36-1,5.14,5.14,0,0,0-2.12-.19,6.7,6.7,0,0,0-1.89.6A10.54,10.54,0,0,0,186,93.05a9,9,0,0,0-1,.78c-.29.28-.52.62-.8.91,0,.06-.07.12-.19.1a1.47,1.47,0,0,1-.91-.71c0-.09-.14-.22-.12-.25.2-.27-.2-1,.1-1.3.54-.45.93-1.07,1.47-1.57a3,3,0,0,1,.72-.49,9.63,9.63,0,0,1,1.06-.4,13.71,13.71,0,0,1,1.81-.7,7.65,7.65,0,0,1,3.38-.32,6.93,6.93,0,0,1,3.06,1.24c.34.29.62.53.81.72l.29.34A2.9,2.9,0,0,1,195.92,92.11Z"/><path class="cls-1" d="M203.24,129.11a1,1,0,0,0-.19.33l-.11,0-.09,0s0,0,0,0l0,0a.26.26,0,0,0,0-.08l0-.07h0l0,.22h0s0,.06,0,.07,0,0-.06-.09-.14-.12-.14-.13l0-.11a1.13,1.13,0,0,0,0-.7c-.05-.17-.27-.21-.45-.12a.35.35,0,0,0-.18.44.33.33,0,0,0,.22.2,1.19,1.19,0,0,0,.29.06.78.78,0,0,1,.27.68.75.75,0,0,1-.25.53.78.78,0,0,1-.73.13,1.7,1.7,0,0,1,.29-3.29,1.37,1.37,0,0,1,1.26.3,1.74,1.74,0,0,1,.43.62,2.43,2.43,0,0,1,.15.62,2,2,0,0,1-.21,1.25,1.08,1.08,0,0,1-.82.58,1.4,1.4,0,0,1-.29,0l-.21-.06a1.13,1.13,0,0,1-.41-.23,1.21,1.21,0,0,1-.36-.84,1.84,1.84,0,0,1,1.4-1.76,1,1,0,0,1,.77.3,1,1,0,0,1,.24.73,1.56,1.56,0,0,1-.56,1.1,1,1,0,0,1-.55.23,1,1,0,0,1-.62-.12,1,1,0,0,1-.41-.58,1.76,1.76,0,0,1,0-.55,2.05,2.05,0,0,1,.09-.43c.19-.49.47-.59.78-.38l.19.16a1,1,0,0,1,.24.59,1,1,0,0,0,0,.35s0,0,0,0a1.12,1.12,0,0,0-.22,0c-.17,0-.2.11-.17.06a.91.91,0,0,0,.07-.47h0c0,.19,0-.43,0,.43h0v0l0-.06a.85.85,0,0,0-.09-.15,1,1,0,0,0-.12-.14v0l0-.06s0,0,0,0a1,1,0,0,0,.3,0,.33.33,0,0,0,.12-.06l0,0h0l0,.08h0v0c0-.08,0,0,0,0a.79.79,0,0,0,.1.26s0,0-.07.1Z"/><path class="cls-1" d="M186.37,141s1.61,8.39,9,9.68,7.29-4.75,7.29-4.75S189.76,145.37,186.37,141Z"/><circle class="cls-1" cx="199.75" cy="185.44" r="1.19"/><path class="cls-1" d="M202.47,183.94a3.05,3.05,0,0,1,.41,2,2.74,2.74,0,0,1-1.08,1.7,4.08,4.08,0,0,1-1,.6,3,3,0,0,1-2.27,0,2.5,2.5,0,0,1-1.38-1.79,3.91,3.91,0,0,1,0-1.8,2.64,2.64,0,0,1,.56-1.09,1.65,1.65,0,0,1,1.09-.57c.26,0,.34.52.41,1.08,0,.27.09.54.13.73s.1.34.08.36a1.3,1.3,0,0,0-.23.5,1.45,1.45,0,0,0,0,.35c0,.12,0,.17,0,.28s.41.18,1-.09a1.85,1.85,0,0,0,.56-.36.56.56,0,0,0,.11-.49,1.7,1.7,0,0,0-.55-.85,2,2,0,0,0-.52-.35.6.6,0,0,0-.61,0c-.27.24-.06.71.07.89a1.42,1.42,0,0,1,.11.18.46.46,0,0,1,0,.38,1.15,1.15,0,0,1-.47.38l-.34.19a.79.79,0,0,1-1-.19,3.51,3.51,0,0,1-.45-2.57,2.25,2.25,0,0,1,.76-1.12,2.49,2.49,0,0,1,1.3-.46,3.73,3.73,0,0,1,2.12.68,4.25,4.25,0,0,1,1.32,1.32Z"/><path class="cls-1" d="M323.25,63.8c.84-2.68,9.45-.14,8.84,1.79-1.58,5-8.5,23.9-10.44,29.49-.3.89-4.4.39-4.21-.53C319.55,84.59,323.23,64,323.25,63.8Z"/><path class="cls-1" d="M316,93.91c.05,0-.06,0,.23.13s.44.19.67.28a14.18,14.18,0,0,0,1.48.47,11.37,11.37,0,0,0,1.48.29l.36,0s.1,0,.12,0l2.13-5.74,1.64-4.61,6.06-16.18.79-2.21c.25-.7.5-1.41.74-2.11a.53.53,0,0,0-.22-.63,5.28,5.28,0,0,0-1-.72,16.17,16.17,0,0,0-4.38-1.48,14.83,14.83,0,0,0-2.25-.27,3.38,3.38,0,0,0-1.8.32.59.59,0,0,1-.55.12c-.18,0-.45-.37-.24-1A2.78,2.78,0,0,1,323,59.18a6,6,0,0,1,2.89-.19,18.77,18.77,0,0,1,4.39,1.3,11.32,11.32,0,0,1,2.12,1.19,5.22,5.22,0,0,1,.54.44,3.75,3.75,0,0,1,.63.76,2.65,2.65,0,0,1,.37,1,1.25,1.25,0,0,1,0,.51,2.89,2.89,0,0,1-.08.5l-1.06,2.87-1,2.7q-1.05,2.69-2.12,5.39c-1.5,3.73-2.8,7.71-4.21,11.56l-2.33,6.37-.59,1.59-.34.95a5,5,0,0,1-.28.57,1.07,1.07,0,0,1-.5.38,3,3,0,0,1-1.27.18,7.92,7.92,0,0,1-1-.11,14.17,14.17,0,0,1-1.74-.39A13.86,13.86,0,0,1,315.4,96l-.26-.12c-.11,0-.23-.13-.34-.19a2.85,2.85,0,0,1-.62-.46,1.26,1.26,0,0,1-.37-.64,2.37,2.37,0,0,1,.05-.74l.9-4.24c.86-4.12,1.76-8.25,2.55-12.34.62-3.19,1.1-6.34,1.64-9.5.11-.7.23-1.38.34-2.09.49-2.59.8-3.39,1.47-3.83a2.61,2.61,0,0,1,.45-.29c.48-.16.63,1,.37,2.88-.75,5.7-1.89,11.64-3.08,17.6-.81,3.93-1.63,7.88-2.45,11.82a0,0,0,0,0,0,.06Z"/><circle class="cls-1" cx="316.08" cy="105.34" r="3.05"/><path class="cls-1" d="M313.73,102.12a2.65,2.65,0,0,0-1.4,2.07,3.16,3.16,0,0,0,.12,1,3,3,0,0,0,2.59,2.28,2.51,2.51,0,0,0,1.64-.43,6.07,6.07,0,0,0,1.4-1.62c.15-.18.68,0,1.09.39a1.43,1.43,0,0,1,.21,1.82,5.05,5.05,0,0,1-3.2,1.93,4.78,4.78,0,0,1-3.54-.85,5.53,5.53,0,0,1-2.34-3.51,4.77,4.77,0,0,1,4-5.41,4.85,4.85,0,0,1,3.84,1.1,5.22,5.22,0,0,1,1.77,2.64,4.17,4.17,0,0,1,.14.72c0,.93-.26,1.21-.83,1.22a2.64,2.64,0,0,1-.4,0,1,1,0,0,1-.78-.83,3.48,3.48,0,0,0-1.93-2.55,2.57,2.57,0,0,0-2.32.13Z"/><path class="cls-3" d="M177.71,359s22.65,4.33,31.46,1.35"/><path class="cls-1" d="M194.61,77c-11.56-7.1-11.05,15.39-16.4,19.39-.92.69,1.25.53,1.7.19,2.85-2.13,3.64-6.56,4.63-9.75,1.1-3.59,2.87-12.21,8-9,.58.35,2.46-.53,2-.79Z"/><path class="cls-1" d="M201,176.66a43.83,43.83,0,0,1-7.76-1.1c-.93-.19-1.86-.41-2.77-.66a42.27,42.27,0,0,1-9.19-4,26.93,26.93,0,0,1-3.71-2.52,11.49,11.49,0,0,1-2.09-2.09,5.19,5.19,0,0,1-1.12-2.88c0-.69.46-.54,1-.15.26.19.52.43.83.68a5.59,5.59,0,0,1,.79.92,14.58,14.58,0,0,0,3.77,3.49,38.83,38.83,0,0,0,4.75,2.77,32.89,32.89,0,0,0,6.46,2.24,44.8,44.8,0,0,0,7.44,1.33,28.77,28.77,0,0,0,4.64.06,18.32,18.32,0,0,0,6.74-1.57,9.79,9.79,0,0,0,3.87-3.32,5.64,5.64,0,0,0,.56-.95c.16-.3.29-.55.42-.75a4,4,0,0,1,.3-.53,1.12,1.12,0,0,1,.7-.47,2.92,2.92,0,0,1,.4-.1c.41,0,.51.66.19,1.82a10.09,10.09,0,0,1-3.22,4.43,14.17,14.17,0,0,1-5,2.5,26.06,26.06,0,0,1-8,.86Z"/><path class="cls-1" d="M136.26,61.64c-3.62,1.35-7.55,5.56-6.52,9.7.23.91,2.41.34,2.18-.58-.85-3.38,2.29-6.87,5.27-8,1.4-.53.15-1.54-.93-1.14Z"/><path class="cls-1" d="M129.12,59.51c-2.21,1.89-4.23,4.11-4,7.2,0,.7,2.24.25,2.18-.58-.2-2.7,1.66-4.63,3.57-6.27.39-.34.17-.61-.21-.76a1.79,1.79,0,0,0-1.53.41Z"/><path class="cls-1" d="M378.7,56.56c3.74,1.26,7.28,4.93,4.53,8.86-.46.65,1.65.37,2-.1,3-4.28-.51-8.24-4.74-9.67-.54-.18-2.49.66-1.77.91Z"/><path class="cls-1" d="M387.58,53.3c4.58,2.9,6.58,7.53,3.62,12.43-.57.93,1.62.81,2,.12,3.25-5.36,1.09-10.49-4-13.68-.67-.43-2.65.53-1.7,1.13Z"/></g></svg>