<svg width="230" height="66" viewBox="0 0 230 66" fill="none" xmlns="http://www.w3.org/2000/svg">
<path d="M228.722 58.3885C228.722 61.9057 225.794 64.7547 222.173 64.7547H7.83594C4.21608 64.7547 1.27783 61.9057 1.27783 58.3885V7.61983C1.27783 4.10427 4.21608 1.24529 7.83594 1.24529H222.171C225.794 1.24529 228.721 4.10427 228.721 7.61983L228.722 58.3885Z" fill="white"/>
<path d="M221.481 1.32206C225.426 1.32206 228.635 4.43025 228.635 8.25V57.75C228.635 61.5697 225.426 64.6779 221.481 64.6779H8.51852C4.57444 64.6779 1.36509 61.5697 1.36509 57.75V8.25C1.36509 4.43025 4.57444 1.32206 8.51852 1.32206H221.481ZM221.481 0H8.51852C3.83546 0 0 3.71456 0 8.25V57.75C0 62.2854 3.83546 66 8.51852 66H221.481C226.165 66 230 62.2854 230 57.75V8.25C230 3.71456 226.165 0 221.481 0Z" fill="#706E9A"/>
<path d="M51.3292 32.6436C51.2797 27.3256 55.8252 24.7384 56.0331 24.618C53.4588 20.983 49.4687 20.4864 48.0666 20.4468C44.7154 20.1052 41.4647 22.3888 39.7576 22.3888C38.0164 22.3888 35.3876 20.4798 32.5543 20.5359C28.9084 20.5903 25.4976 22.6347 23.6269 25.8093C19.7663 32.2822 22.6456 41.7945 26.3443 47.0266C28.1946 49.5891 30.3566 52.4502 33.1864 52.3495C35.9549 52.239 36.9891 50.6401 40.33 50.6401C43.6403 50.6401 44.6114 52.3495 47.4975 52.2852C50.4688 52.239 52.3394 49.7112 54.1249 47.1256C56.2631 44.1886 57.1217 41.2962 57.1558 41.1477C57.086 41.1246 51.3854 39.0175 51.3292 32.6436Z" fill="#706E9A"/>
<path d="M45.8773 17.0049C47.3663 15.2014 48.3851 12.7479 48.1023 10.258C45.9471 10.3504 43.2519 11.7018 41.6998 13.4656C40.3266 15.0199 39.1 17.5675 39.4169 19.9633C41.8378 20.1382 44.3235 18.7803 45.8773 17.0049Z" fill="#706E9A"/>
<path d="M80.9574 22.1591C80.321 22.1591 79.7592 21.9983 79.272 21.6768C78.7848 21.352 78.4036 20.8946 78.1286 20.3047C77.8535 19.7114 77.7159 19.0104 77.7159 18.2017C77.7159 17.3996 77.8535 16.7036 78.1286 16.1136C78.4036 15.5237 78.7865 15.0679 79.277 14.7464C79.7675 14.425 80.3343 14.2642 80.9773 14.2642C81.4744 14.2642 81.8672 14.3471 82.1555 14.5128C82.4472 14.6752 82.6693 14.8608 82.8217 15.0696C82.9775 15.2751 83.0985 15.4441 83.1847 15.5767H83.2841V11.8182H84.4574V22H83.3239V20.8267H83.1847C83.0985 20.9659 82.9759 21.1416 82.8168 21.3537C82.6577 21.5625 82.4306 21.7498 82.1357 21.9155C81.8407 22.0779 81.4479 22.1591 80.9574 22.1591ZM81.1165 21.1051C81.5871 21.1051 81.9848 20.9825 82.3097 20.7372C82.6345 20.4886 82.8814 20.1456 83.0504 19.7081C83.2195 19.2673 83.304 18.7585 83.304 18.1818C83.304 17.6117 83.2211 17.1129 83.0554 16.6854C82.8897 16.2545 82.6444 15.9197 82.3196 15.6811C81.9948 15.4392 81.5938 15.3182 81.1165 15.3182C80.6193 15.3182 80.205 15.4458 79.8736 15.701C79.5455 15.9529 79.2985 16.2959 79.1328 16.7301C78.9704 17.161 78.8892 17.6449 78.8892 18.1818C78.8892 18.7254 78.9721 19.2192 79.1378 19.6634C79.3068 20.1042 79.5554 20.4555 79.8835 20.7173C80.215 20.9759 80.6259 21.1051 81.1165 21.1051ZM91.2714 22.1591C90.5821 22.1591 89.9772 21.995 89.4568 21.6669C88.9398 21.3388 88.5354 20.8797 88.2437 20.2898C87.9554 19.6998 87.8112 19.0104 87.8112 18.2216C87.8112 17.4261 87.9554 16.7318 88.2437 16.1385C88.5354 15.5452 88.9398 15.0845 89.4568 14.7564C89.9772 14.4283 90.5821 14.2642 91.2714 14.2642C91.9608 14.2642 92.5641 14.4283 93.0811 14.7564C93.6015 15.0845 94.0058 15.5452 94.2942 16.1385C94.5858 16.7318 94.7317 17.4261 94.7317 18.2216C94.7317 19.0104 94.5858 19.6998 94.2942 20.2898C94.0058 20.8797 93.6015 21.3388 93.0811 21.6669C92.5641 21.995 91.9608 22.1591 91.2714 22.1591ZM91.2714 21.1051C91.7951 21.1051 92.226 20.9709 92.5641 20.7024C92.9021 20.4339 93.1524 20.081 93.3148 19.6435C93.4772 19.206 93.5584 18.732 93.5584 18.2216C93.5584 17.7112 93.4772 17.2356 93.3148 16.7947C93.1524 16.3539 92.9021 15.9976 92.5641 15.7259C92.226 15.4541 91.7951 15.3182 91.2714 15.3182C90.7478 15.3182 90.3169 15.4541 89.9788 15.7259C89.6408 15.9976 89.3905 16.3539 89.2281 16.7947C89.0657 17.2356 88.9845 17.7112 88.9845 18.2216C88.9845 18.732 89.0657 19.206 89.2281 19.6435C89.3905 20.081 89.6408 20.4339 89.9788 20.7024C90.3169 20.9709 90.7478 21.1051 91.2714 21.1051ZM99.393 22L97.0663 14.3636H98.2993L99.9499 20.2102H100.029L101.66 14.3636H102.913L104.524 20.1903H104.603L106.254 14.3636H107.487L105.16 22H104.007L102.336 16.1335H102.217L100.546 22H99.393ZM111.611 17.4062V22H110.438V14.3636H111.571V15.5568H111.671C111.85 15.169 112.122 14.8575 112.486 14.6222C112.851 14.3835 113.321 14.2642 113.898 14.2642C114.415 14.2642 114.868 14.3703 115.255 14.5824C115.643 14.7912 115.945 15.1094 116.16 15.5369C116.376 15.9612 116.483 16.4981 116.483 17.1477V22H115.31V17.2273C115.31 16.6274 115.154 16.16 114.843 15.8253C114.531 15.4872 114.104 15.3182 113.56 15.3182C113.186 15.3182 112.851 15.3994 112.556 15.5618C112.264 15.7242 112.034 15.9612 111.865 16.2727C111.696 16.5843 111.611 16.9621 111.611 17.4062ZM121.201 11.8182V22H120.027V11.8182H121.201ZM127.852 22.1591C127.163 22.1591 126.558 21.995 126.037 21.6669C125.52 21.3388 125.116 20.8797 124.824 20.2898C124.536 19.6998 124.392 19.0104 124.392 18.2216C124.392 17.4261 124.536 16.7318 124.824 16.1385C125.116 15.5452 125.52 15.0845 126.037 14.7564C126.558 14.4283 127.163 14.2642 127.852 14.2642C128.541 14.2642 129.145 14.4283 129.662 14.7564C130.182 15.0845 130.586 15.5452 130.875 16.1385C131.166 16.7318 131.312 17.4261 131.312 18.2216C131.312 19.0104 131.166 19.6998 130.875 20.2898C130.586 20.8797 130.182 21.3388 129.662 21.6669C129.145 21.995 128.541 22.1591 127.852 22.1591ZM127.852 21.1051C128.376 21.1051 128.806 20.9709 129.145 20.7024C129.483 20.4339 129.733 20.081 129.895 19.6435C130.058 19.206 130.139 18.732 130.139 18.2216C130.139 17.7112 130.058 17.2356 129.895 16.7947C129.733 16.3539 129.483 15.9976 129.145 15.7259C128.806 15.4541 128.376 15.3182 127.852 15.3182C127.328 15.3182 126.897 15.4541 126.559 15.7259C126.221 15.9976 125.971 16.3539 125.809 16.7947C125.646 17.2356 125.565 17.7112 125.565 18.2216C125.565 18.732 125.646 19.206 125.809 19.6435C125.971 20.081 126.221 20.4339 126.559 20.7024C126.897 20.9709 127.328 21.1051 127.852 21.1051ZM136.75 22.179C136.266 22.179 135.827 22.0878 135.433 21.9055C135.038 21.7199 134.725 21.4531 134.493 21.1051C134.261 20.7538 134.145 20.3295 134.145 19.8324C134.145 19.3949 134.231 19.0402 134.404 18.7685C134.576 18.4934 134.806 18.2779 135.095 18.1222C135.383 17.9664 135.701 17.8504 136.049 17.7741C136.401 17.6946 136.754 17.6316 137.108 17.5852C137.572 17.5256 137.948 17.4808 138.237 17.451C138.528 17.4179 138.741 17.3632 138.873 17.2869C139.009 17.2107 139.077 17.0781 139.077 16.8892V16.8494C139.077 16.3589 138.943 15.9777 138.674 15.706C138.409 15.4342 138.006 15.2983 137.466 15.2983C136.906 15.2983 136.467 15.4209 136.149 15.6662C135.831 15.9115 135.607 16.1733 135.478 16.4517L134.364 16.054C134.563 15.59 134.828 15.2287 135.159 14.9702C135.494 14.7083 135.859 14.526 136.253 14.4233C136.651 14.3172 137.042 14.2642 137.426 14.2642C137.672 14.2642 137.953 14.294 138.272 14.3537C138.593 14.41 138.903 14.5277 139.201 14.7067C139.503 14.8857 139.753 15.1558 139.952 15.517C140.151 15.8783 140.25 16.3622 140.25 16.9688V22H139.077V20.9659H139.017C138.938 21.1316 138.805 21.3089 138.62 21.4979C138.434 21.6868 138.187 21.8475 137.879 21.9801C137.571 22.1127 137.194 22.179 136.75 22.179ZM136.929 21.125C137.393 21.125 137.784 21.0339 138.103 20.8516C138.424 20.6693 138.666 20.4339 138.828 20.1456C138.994 19.8572 139.077 19.554 139.077 19.2358V18.1619C139.027 18.2216 138.918 18.2763 138.749 18.326C138.583 18.3724 138.391 18.4138 138.172 18.4503C137.957 18.4834 137.746 18.5133 137.541 18.5398C137.339 18.563 137.175 18.5829 137.049 18.5994C136.744 18.6392 136.459 18.7038 136.194 18.7933C135.932 18.8795 135.72 19.0104 135.557 19.1861C135.398 19.3584 135.319 19.5937 135.319 19.892C135.319 20.2997 135.469 20.608 135.771 20.8168C136.076 21.0223 136.462 21.125 136.929 21.125ZM146.675 22.1591C146.039 22.1591 145.477 21.9983 144.99 21.6768C144.503 21.352 144.122 20.8946 143.847 20.3047C143.571 19.7114 143.434 19.0104 143.434 18.2017C143.434 17.3996 143.571 16.7036 143.847 16.1136C144.122 15.5237 144.504 15.0679 144.995 14.7464C145.485 14.425 146.052 14.2642 146.695 14.2642C147.192 14.2642 147.585 14.3471 147.874 14.5128C148.165 14.6752 148.387 14.8608 148.54 15.0696C148.695 15.2751 148.816 15.4441 148.903 15.5767H149.002V11.8182H150.175V22H149.042V20.8267H148.903C148.816 20.9659 148.694 21.1416 148.535 21.3537C148.376 21.5625 148.149 21.7498 147.854 21.9155C147.559 22.0779 147.166 22.1591 146.675 22.1591ZM146.834 21.1051C147.305 21.1051 147.703 20.9825 148.028 20.7372C148.352 20.4886 148.599 20.1456 148.768 19.7081C148.937 19.2673 149.022 18.7585 149.022 18.1818C149.022 17.6117 148.939 17.1129 148.773 16.6854C148.608 16.2545 148.362 15.9197 148.038 15.6811C147.713 15.4392 147.312 15.3182 146.834 15.3182C146.337 15.3182 145.923 15.4458 145.592 15.701C145.263 15.9529 145.017 16.2959 144.851 16.7301C144.688 17.161 144.607 17.6449 144.607 18.1818C144.607 18.7254 144.69 19.2192 144.856 19.6634C145.025 20.1042 145.273 20.4555 145.601 20.7173C145.933 20.9759 146.344 21.1051 146.834 21.1051ZM162.327 22.1591C161.638 22.1591 161.033 21.995 160.512 21.6669C159.995 21.3388 159.591 20.8797 159.299 20.2898C159.011 19.6998 158.867 19.0104 158.867 18.2216C158.867 17.4261 159.011 16.7318 159.299 16.1385C159.591 15.5452 159.995 15.0845 160.512 14.7564C161.033 14.4283 161.638 14.2642 162.327 14.2642C163.016 14.2642 163.62 14.4283 164.137 14.7564C164.657 15.0845 165.061 15.5452 165.35 16.1385C165.641 16.7318 165.787 17.4261 165.787 18.2216C165.787 19.0104 165.641 19.6998 165.35 20.2898C165.061 20.8797 164.657 21.3388 164.137 21.6669C163.62 21.995 163.016 22.1591 162.327 22.1591ZM162.327 21.1051C162.851 21.1051 163.281 20.9709 163.62 20.7024C163.958 20.4339 164.208 20.081 164.37 19.6435C164.533 19.206 164.614 18.732 164.614 18.2216C164.614 17.7112 164.533 17.2356 164.37 16.7947C164.208 16.3539 163.958 15.9976 163.62 15.7259C163.281 15.4541 162.851 15.3182 162.327 15.3182C161.803 15.3182 161.372 15.4541 161.034 15.7259C160.696 15.9976 160.446 16.3539 160.284 16.7947C160.121 17.2356 160.04 17.7112 160.04 18.2216C160.04 18.732 160.121 19.206 160.284 19.6435C160.446 20.081 160.696 20.4339 161.034 20.7024C161.372 20.9709 161.803 21.1051 162.327 21.1051ZM170.151 17.4062V22H168.978V14.3636H170.112V15.5568H170.211C170.39 15.169 170.662 14.8575 171.026 14.6222C171.391 14.3835 171.862 14.2642 172.438 14.2642C172.955 14.2642 173.408 14.3703 173.796 14.5824C174.183 14.7912 174.485 15.1094 174.7 15.5369C174.916 15.9612 175.024 16.4981 175.024 17.1477V22H173.85V17.2273C173.85 16.6274 173.695 16.16 173.383 15.8253C173.071 15.4872 172.644 15.3182 172.1 15.3182C171.726 15.3182 171.391 15.3994 171.096 15.5618C170.804 15.7242 170.574 15.9612 170.405 16.2727C170.236 16.5843 170.151 16.9621 170.151 17.4062ZM187.226 14.3636V15.358H183.269V14.3636H187.226ZM184.422 12.5341H185.595V19.8125C185.595 20.1439 185.644 20.3925 185.74 20.5582C185.839 20.7206 185.965 20.83 186.117 20.8864C186.273 20.9394 186.437 20.9659 186.61 20.9659C186.739 20.9659 186.845 20.9593 186.928 20.946C187.011 20.9295 187.077 20.9162 187.127 20.9062L187.365 21.9602C187.286 21.9901 187.175 22.0199 187.032 22.0497C186.89 22.0829 186.709 22.0994 186.49 22.0994C186.159 22.0994 185.834 22.0282 185.516 21.8857C185.201 21.7431 184.939 21.526 184.73 21.2344C184.525 20.9427 184.422 20.5748 184.422 20.1307V12.5341ZM191.728 17.4062V22H190.555V11.8182H191.728V15.5568H191.828C192.007 15.1624 192.275 14.8492 192.633 14.6172C192.995 14.3819 193.475 14.2642 194.075 14.2642C194.595 14.2642 195.051 14.3686 195.442 14.5774C195.833 14.7829 196.137 15.0994 196.352 15.527C196.571 15.9512 196.68 16.4915 196.68 17.1477V22H195.507V17.2273C195.507 16.6207 195.349 16.1518 195.035 15.8203C194.723 15.4856 194.29 15.3182 193.737 15.3182C193.352 15.3182 193.008 15.3994 192.703 15.5618C192.401 15.7242 192.163 15.9612 191.987 16.2727C191.815 16.5843 191.728 16.9621 191.728 17.4062ZM203.428 22.1591C202.693 22.1591 202.058 21.9967 201.524 21.6719C200.994 21.3438 200.585 20.8864 200.296 20.2997C200.011 19.7098 199.869 19.0237 199.869 18.2415C199.869 17.4593 200.011 16.7699 200.296 16.1733C200.585 15.5734 200.986 15.1061 201.499 14.7713C202.016 14.4332 202.62 14.2642 203.309 14.2642C203.707 14.2642 204.099 14.3305 204.487 14.4631C204.875 14.5956 205.228 14.8111 205.546 15.1094C205.864 15.4044 206.118 15.7955 206.307 16.2827C206.496 16.7699 206.59 17.3698 206.59 18.0824V18.5795H200.704V17.5653H205.397C205.397 17.1345 205.311 16.75 205.139 16.4119C204.969 16.0739 204.728 15.8071 204.413 15.6115C204.101 15.416 203.733 15.3182 203.309 15.3182C202.842 15.3182 202.437 15.4342 202.096 15.6662C201.758 15.8949 201.498 16.1932 201.315 16.5611C201.133 16.929 201.042 17.3234 201.042 17.7443V18.4205C201.042 18.9972 201.141 19.486 201.34 19.8871C201.542 20.2848 201.822 20.5881 202.18 20.7969C202.538 21.0024 202.954 21.1051 203.428 21.1051C203.737 21.1051 204.015 21.062 204.264 20.9759C204.515 20.8864 204.733 20.7538 204.915 20.5781C205.097 20.3991 205.238 20.1771 205.337 19.9119L206.471 20.2301C206.352 20.6146 206.151 20.9527 205.869 21.2443C205.588 21.5327 205.24 21.758 204.825 21.9205C204.411 22.0795 203.945 22.1591 203.428 22.1591Z" fill="#706E9A"/>
<path d="M74.825 43.025C74.825 41.625 75.1 40.3833 75.65 39.3C76.2167 38.2167 76.975 37.3833 77.925 36.8C78.8917 36.2167 79.9667 35.925 81.15 35.925C82.1833 35.925 83.0833 36.1333 83.85 36.55C84.6333 36.9667 85.2583 37.4917 85.725 38.125V36.15H89.25V50H85.725V47.975C85.275 48.625 84.65 49.1667 83.85 49.6C83.0667 50.0167 82.1583 50.225 81.125 50.225C79.9583 50.225 78.8917 49.925 77.925 49.325C76.975 48.725 76.2167 47.8833 75.65 46.8C75.1 45.7 74.825 44.4417 74.825 43.025ZM85.725 43.075C85.725 42.225 85.5583 41.5 85.225 40.9C84.8917 40.2833 84.4417 39.8167 83.875 39.5C83.3083 39.1667 82.7 39 82.05 39C81.4 39 80.8 39.1583 80.25 39.475C79.7 39.7917 79.25 40.2583 78.9 40.875C78.5667 41.475 78.4 42.1917 78.4 43.025C78.4 43.8583 78.5667 44.5917 78.9 45.225C79.25 45.8417 79.7 46.3167 80.25 46.65C80.8167 46.9833 81.4167 47.15 82.05 47.15C82.7 47.15 83.3083 46.9917 83.875 46.675C84.4417 46.3417 84.8917 45.875 85.225 45.275C85.5583 44.6583 85.725 43.925 85.725 43.075ZM96.9184 38.15C97.3684 37.5167 97.985 36.9917 98.7684 36.575C99.5684 36.1417 100.477 35.925 101.493 35.925C102.677 35.925 103.743 36.2167 104.693 36.8C105.66 37.3833 106.418 38.2167 106.968 39.3C107.535 40.3667 107.818 41.6083 107.818 43.025C107.818 44.4417 107.535 45.7 106.968 46.8C106.418 47.8833 105.66 48.725 104.693 49.325C103.743 49.925 102.677 50.225 101.493 50.225C100.477 50.225 99.5767 50.0167 98.7934 49.6C98.0267 49.1833 97.4017 48.6583 96.9184 48.025V56.6H93.4184V36.15H96.9184V38.15ZM104.243 43.025C104.243 42.1917 104.068 41.475 103.718 40.875C103.385 40.2583 102.935 39.7917 102.368 39.475C101.818 39.1583 101.218 39 100.568 39C99.935 39 99.335 39.1667 98.7684 39.5C98.2184 39.8167 97.7684 40.2833 97.4184 40.9C97.085 41.5167 96.9184 42.2417 96.9184 43.075C96.9184 43.9083 97.085 44.6333 97.4184 45.25C97.7684 45.8667 98.2184 46.3417 98.7684 46.675C99.335 46.9917 99.935 47.15 100.568 47.15C101.218 47.15 101.818 46.9833 102.368 46.65C102.935 46.3167 103.385 45.8417 103.718 45.225C104.068 44.6083 104.243 43.875 104.243 43.025ZM114.612 38.15C115.062 37.5167 115.678 36.9917 116.462 36.575C117.262 36.1417 118.17 35.925 119.187 35.925C120.37 35.925 121.437 36.2167 122.387 36.8C123.353 37.3833 124.112 38.2167 124.662 39.3C125.228 40.3667 125.512 41.6083 125.512 43.025C125.512 44.4417 125.228 45.7 124.662 46.8C124.112 47.8833 123.353 48.725 122.387 49.325C121.437 49.925 120.37 50.225 119.187 50.225C118.17 50.225 117.27 50.0167 116.487 49.6C115.72 49.1833 115.095 48.6583 114.612 48.025V56.6H111.112V36.15H114.612V38.15ZM121.937 43.025C121.937 42.1917 121.762 41.475 121.412 40.875C121.078 40.2583 120.628 39.7917 120.062 39.475C119.512 39.1583 118.912 39 118.262 39C117.628 39 117.028 39.1667 116.462 39.5C115.912 39.8167 115.462 40.2833 115.112 40.9C114.778 41.5167 114.612 42.2417 114.612 43.075C114.612 43.9083 114.778 44.6333 115.112 45.25C115.462 45.8667 115.912 46.3417 116.462 46.675C117.028 46.9917 117.628 47.15 118.262 47.15C118.912 47.15 119.512 46.9833 120.062 46.65C120.628 46.3167 121.078 45.8417 121.412 45.225C121.762 44.6083 121.937 43.875 121.937 43.025ZM140.812 50.225C139.679 50.225 138.662 50.025 137.762 49.625C136.862 49.2083 136.145 48.65 135.612 47.95C135.095 47.25 134.812 46.475 134.762 45.625H138.287C138.354 46.1583 138.612 46.6 139.062 46.95C139.529 47.3 140.104 47.475 140.787 47.475C141.454 47.475 141.97 47.3417 142.337 47.075C142.72 46.8083 142.912 46.4667 142.912 46.05C142.912 45.6 142.679 45.2667 142.212 45.05C141.762 44.8167 141.037 44.5667 140.037 44.3C139.004 44.05 138.154 43.7917 137.487 43.525C136.837 43.2583 136.27 42.85 135.787 42.3C135.32 41.75 135.087 41.0083 135.087 40.075C135.087 39.3083 135.304 38.6083 135.737 37.975C136.187 37.3417 136.82 36.8417 137.637 36.475C138.47 36.1083 139.445 35.925 140.562 35.925C142.212 35.925 143.529 36.3417 144.512 37.175C145.495 37.9917 146.037 39.1 146.137 40.5H142.787C142.737 39.95 142.504 39.5167 142.087 39.2C141.687 38.8667 141.145 38.7 140.462 38.7C139.829 38.7 139.337 38.8167 138.987 39.05C138.654 39.2833 138.487 39.6083 138.487 40.025C138.487 40.4917 138.72 40.85 139.187 41.1C139.654 41.3333 140.379 41.575 141.362 41.825C142.362 42.075 143.187 42.3333 143.837 42.6C144.487 42.8667 145.045 43.2833 145.512 43.85C145.995 44.4 146.245 45.1333 146.262 46.05C146.262 46.85 146.037 47.5667 145.587 48.2C145.154 48.8333 144.52 49.3333 143.687 49.7C142.87 50.05 141.912 50.225 140.812 50.225ZM153.96 39.025V45.725C153.96 46.1917 154.068 46.5333 154.285 46.75C154.518 46.95 154.902 47.05 155.435 47.05H157.06V50H154.86C151.91 50 150.435 48.5667 150.435 45.7V39.025H148.785V36.15H150.435V32.725H153.96V36.15H157.06V39.025H153.96ZM166.478 50.225C165.144 50.225 163.944 49.9333 162.878 49.35C161.811 48.75 160.969 47.9083 160.353 46.825C159.753 45.7417 159.453 44.4917 159.453 43.075C159.453 41.6583 159.761 40.4083 160.378 39.325C161.011 38.2417 161.869 37.4083 162.953 36.825C164.036 36.225 165.244 35.925 166.578 35.925C167.911 35.925 169.119 36.225 170.203 36.825C171.286 37.4083 172.136 38.2417 172.753 39.325C173.386 40.4083 173.703 41.6583 173.703 43.075C173.703 44.4917 173.378 45.7417 172.728 46.825C172.094 47.9083 171.228 48.75 170.128 49.35C169.044 49.9333 167.828 50.225 166.478 50.225ZM166.478 47.175C167.111 47.175 167.703 47.025 168.253 46.725C168.819 46.4083 169.269 45.9417 169.603 45.325C169.936 44.7083 170.103 43.9583 170.103 43.075C170.103 41.7583 169.753 40.75 169.053 40.05C168.369 39.3333 167.528 38.975 166.528 38.975C165.528 38.975 164.686 39.3333 164.003 40.05C163.336 40.75 163.003 41.7583 163.003 43.075C163.003 44.3917 163.328 45.4083 163.978 46.125C164.644 46.825 165.478 47.175 166.478 47.175ZM180.52 38.3C180.97 37.5667 181.553 36.9917 182.27 36.575C183.003 36.1583 183.837 35.95 184.77 35.95V39.625H183.845C182.745 39.625 181.912 39.8833 181.345 40.4C180.795 40.9167 180.52 41.8167 180.52 43.1V50H177.02V36.15H180.52V38.3ZM200.752 42.775C200.752 43.275 200.719 43.725 200.652 44.125H190.527C190.611 45.125 190.961 45.9083 191.577 46.475C192.194 47.0417 192.952 47.325 193.852 47.325C195.152 47.325 196.077 46.7667 196.627 45.65H200.402C200.002 46.9833 199.236 48.0833 198.102 48.95C196.969 49.8 195.577 50.225 193.927 50.225C192.594 50.225 191.394 49.9333 190.327 49.35C189.277 48.75 188.452 47.9083 187.852 46.825C187.269 45.7417 186.977 44.4917 186.977 43.075C186.977 41.6417 187.269 40.3833 187.852 39.3C188.436 38.2167 189.252 37.3833 190.302 36.8C191.352 36.2167 192.561 35.925 193.927 35.925C195.244 35.925 196.419 36.2083 197.452 36.775C198.502 37.3417 199.311 38.15 199.877 39.2C200.461 40.2333 200.752 41.425 200.752 42.775ZM197.127 41.775C197.111 40.875 196.786 40.1583 196.152 39.625C195.519 39.075 194.744 38.8 193.827 38.8C192.961 38.8 192.227 39.0667 191.627 39.6C191.044 40.1167 190.686 40.8417 190.552 41.775H197.127Z" fill="#706E9A"/>
</svg>
