<svg width="230" height="66" viewBox="0 0 230 66" fill="none" xmlns="http://www.w3.org/2000/svg">
<path d="M221.481 66H8.51852C3.83546 66 0 62.2854 0 57.75V8.25C0 3.71457 3.83546 5.72205e-06 8.51852 5.72205e-06H221.481C226.165 5.72205e-06 230 3.71457 230 8.25V57.75C230 62.2854 226.165 66 221.481 66Z" fill="white"/>
<path d="M221.481 1.32207C225.426 1.32207 228.635 4.43026 228.635 8.25V57.75C228.635 61.5698 225.426 64.6779 221.481 64.6779H8.51852C4.57444 64.6779 1.36509 61.5698 1.36509 57.75V8.25C1.36509 4.43026 4.57444 1.32207 8.51852 1.32207H221.481ZM221.481 5.72205e-06H8.51852C3.83546 5.72205e-06 0 3.71457 0 8.25V57.75C0 62.2854 3.83546 66 8.51852 66H221.481C226.165 66 230 62.2854 230 57.75V8.25C230 3.71457 226.165 5.72205e-06 221.481 5.72205e-06Z" fill="#706E9A"/>
<path d="M16.5004 12.4389C16 12.9463 15.7103 13.7362 15.7103 14.7592V51.249C15.7103 52.272 16 53.0619 16.5004 53.5693L16.6239 53.6807L37.7371 33.2413V32.7587L16.6239 12.3193L16.5004 12.4389Z" fill="#706E9A"/>
<path d="M47.3225 40.0579L40.2926 33.2413V32.7587L47.331 25.9421L47.4886 26.0308L55.824 30.624C58.2028 31.9275 58.2028 34.0725 55.824 35.3842L47.4886 39.9692L47.3225 40.0579Z" fill="#706E9A"/>
<path d="M46.2109 41.2384L39.0149 34.2692L17.7782 54.8385C18.5683 55.6429 19.8567 55.7399 21.3219 54.9355L46.2109 41.2384Z" fill="#706E9A"/>
<path d="M46.2109 24.7616L21.3219 11.0645C19.8567 10.2684 18.5683 10.3653 17.7782 11.1697L39.0149 31.7308L46.2109 24.7616Z" fill="#706E9A"/>
<path d="M78.15 34.925C79.1833 34.925 80.0917 35.1333 80.875 35.55C81.6583 35.95 82.275 36.475 82.725 37.125V35.15H86.25V49.1C86.25 50.3833 85.9917 51.525 85.475 52.525C84.9583 53.5417 84.1833 54.3417 83.15 54.925C82.1167 55.525 80.8667 55.825 79.4 55.825C77.4333 55.825 75.8167 55.3667 74.55 54.45C73.3 53.5333 72.5917 52.2833 72.425 50.7H75.9C76.0833 51.3333 76.475 51.8333 77.075 52.2C77.6917 52.5833 78.4333 52.775 79.3 52.775C80.3167 52.775 81.1417 52.4667 81.775 51.85C82.4083 51.25 82.725 50.3333 82.725 49.1V46.95C82.275 47.6 81.65 48.1417 80.85 48.575C80.0667 49.0083 79.1667 49.225 78.15 49.225C76.9833 49.225 75.9167 48.925 74.95 48.325C73.9833 47.725 73.2167 46.8833 72.65 45.8C72.1 44.7 71.825 43.4417 71.825 42.025C71.825 40.625 72.1 39.3833 72.65 38.3C73.2167 37.2167 73.975 36.3833 74.925 35.8C75.8917 35.2167 76.9667 34.925 78.15 34.925ZM82.725 42.075C82.725 41.225 82.5583 40.5 82.225 39.9C81.8917 39.2833 81.4417 38.8167 80.875 38.5C80.3083 38.1667 79.7 38 79.05 38C78.4 38 77.8 38.1583 77.25 38.475C76.7 38.7917 76.25 39.2583 75.9 39.875C75.5667 40.475 75.4 41.1917 75.4 42.025C75.4 42.8583 75.5667 43.5917 75.9 44.225C76.25 44.8417 76.7 45.3167 77.25 45.65C77.8167 45.9833 78.4167 46.15 79.05 46.15C79.7 46.15 80.3083 45.9917 80.875 45.675C81.4417 45.3417 81.8917 44.875 82.225 44.275C82.5583 43.6583 82.725 42.925 82.725 42.075ZM95.8184 49.225C94.485 49.225 93.285 48.9333 92.2184 48.35C91.1517 47.75 90.31 46.9083 89.6934 45.825C89.0934 44.7417 88.7934 43.4917 88.7934 42.075C88.7934 40.6583 89.1017 39.4083 89.7184 38.325C90.3517 37.2417 91.21 36.4083 92.2934 35.825C93.3767 35.225 94.585 34.925 95.9184 34.925C97.2517 34.925 98.46 35.225 99.5434 35.825C100.627 36.4083 101.477 37.2417 102.093 38.325C102.727 39.4083 103.043 40.6583 103.043 42.075C103.043 43.4917 102.718 44.7417 102.068 45.825C101.435 46.9083 100.568 47.75 99.4684 48.35C98.385 48.9333 97.1684 49.225 95.8184 49.225ZM95.8184 46.175C96.4517 46.175 97.0434 46.025 97.5934 45.725C98.16 45.4083 98.61 44.9417 98.9434 44.325C99.2767 43.7083 99.4434 42.9583 99.4434 42.075C99.4434 40.7583 99.0934 39.75 98.3934 39.05C97.71 38.3333 96.8684 37.975 95.8684 37.975C94.8684 37.975 94.0267 38.3333 93.3434 39.05C92.6767 39.75 92.3434 40.7583 92.3434 42.075C92.3434 43.3917 92.6684 44.4083 93.3184 45.125C93.985 45.825 94.8184 46.175 95.8184 46.175ZM111.761 49.225C110.427 49.225 109.227 48.9333 108.161 48.35C107.094 47.75 106.252 46.9083 105.636 45.825C105.036 44.7417 104.736 43.4917 104.736 42.075C104.736 40.6583 105.044 39.4083 105.661 38.325C106.294 37.2417 107.152 36.4083 108.236 35.825C109.319 35.225 110.527 34.925 111.861 34.925C113.194 34.925 114.402 35.225 115.486 35.825C116.569 36.4083 117.419 37.2417 118.036 38.325C118.669 39.4083 118.986 40.6583 118.986 42.075C118.986 43.4917 118.661 44.7417 118.011 45.825C117.377 46.9083 116.511 47.75 115.411 48.35C114.327 48.9333 113.111 49.225 111.761 49.225ZM111.761 46.175C112.394 46.175 112.986 46.025 113.536 45.725C114.102 45.4083 114.552 44.9417 114.886 44.325C115.219 43.7083 115.386 42.9583 115.386 42.075C115.386 40.7583 115.036 39.75 114.336 39.05C113.652 38.3333 112.811 37.975 111.811 37.975C110.811 37.975 109.969 38.3333 109.286 39.05C108.619 39.75 108.286 40.7583 108.286 42.075C108.286 43.3917 108.611 44.4083 109.261 45.125C109.927 45.825 110.761 46.175 111.761 46.175ZM126.978 34.925C128.011 34.925 128.92 35.1333 129.703 35.55C130.486 35.95 131.103 36.475 131.553 37.125V35.15H135.078V49.1C135.078 50.3833 134.82 51.525 134.303 52.525C133.786 53.5417 133.011 54.3417 131.978 54.925C130.945 55.525 129.695 55.825 128.228 55.825C126.261 55.825 124.645 55.3667 123.378 54.45C122.128 53.5333 121.42 52.2833 121.253 50.7H124.728C124.911 51.3333 125.303 51.8333 125.903 52.2C126.52 52.5833 127.261 52.775 128.128 52.775C129.145 52.775 129.97 52.4667 130.603 51.85C131.236 51.25 131.553 50.3333 131.553 49.1V46.95C131.103 47.6 130.478 48.1417 129.678 48.575C128.895 49.0083 127.995 49.225 126.978 49.225C125.811 49.225 124.745 48.925 123.778 48.325C122.811 47.725 122.045 46.8833 121.478 45.8C120.928 44.7 120.653 43.4417 120.653 42.025C120.653 40.625 120.928 39.3833 121.478 38.3C122.045 37.2167 122.803 36.3833 123.753 35.8C124.72 35.2167 125.795 34.925 126.978 34.925ZM131.553 42.075C131.553 41.225 131.386 40.5 131.053 39.9C130.72 39.2833 130.27 38.8167 129.703 38.5C129.136 38.1667 128.528 38 127.878 38C127.228 38 126.628 38.1583 126.078 38.475C125.528 38.7917 125.078 39.2583 124.728 39.875C124.395 40.475 124.228 41.1917 124.228 42.025C124.228 42.8583 124.395 43.5917 124.728 44.225C125.078 44.8417 125.528 45.3167 126.078 45.65C126.645 45.9833 127.245 46.15 127.878 46.15C128.528 46.15 129.136 45.9917 129.703 45.675C130.27 45.3417 130.72 44.875 131.053 44.275C131.386 43.6583 131.553 42.925 131.553 42.075ZM141.996 30.5V49H138.496V30.5H141.996ZM158.329 41.775C158.329 42.275 158.296 42.725 158.229 43.125H148.104C148.188 44.125 148.538 44.9083 149.154 45.475C149.771 46.0417 150.529 46.325 151.429 46.325C152.729 46.325 153.654 45.7667 154.204 44.65H157.979C157.579 45.9833 156.813 47.0833 155.679 47.95C154.546 48.8 153.154 49.225 151.504 49.225C150.171 49.225 148.971 48.9333 147.904 48.35C146.854 47.75 146.029 46.9083 145.429 45.825C144.846 44.7417 144.554 43.4917 144.554 42.075C144.554 40.6417 144.846 39.3833 145.429 38.3C146.013 37.2167 146.829 36.3833 147.879 35.8C148.929 35.2167 150.138 34.925 151.504 34.925C152.821 34.925 153.996 35.2083 155.029 35.775C156.079 36.3417 156.888 37.15 157.454 38.2C158.038 39.2333 158.329 40.425 158.329 41.775ZM154.704 40.775C154.688 39.875 154.363 39.1583 153.729 38.625C153.096 38.075 152.321 37.8 151.404 37.8C150.538 37.8 149.804 38.0667 149.204 38.6C148.621 39.1167 148.263 39.8417 148.129 40.775H154.704ZM170.341 37.15C170.791 36.5167 171.408 35.9917 172.191 35.575C172.991 35.1417 173.9 34.925 174.916 34.925C176.1 34.925 177.166 35.2167 178.116 35.8C179.083 36.3833 179.841 37.2167 180.391 38.3C180.958 39.3667 181.241 40.6083 181.241 42.025C181.241 43.4417 180.958 44.7 180.391 45.8C179.841 46.8833 179.083 47.725 178.116 48.325C177.166 48.925 176.1 49.225 174.916 49.225C173.9 49.225 173 49.0167 172.216 48.6C171.45 48.1833 170.825 47.6583 170.341 47.025V55.6H166.841V35.15H170.341V37.15ZM177.666 42.025C177.666 41.1917 177.491 40.475 177.141 39.875C176.808 39.2583 176.358 38.7917 175.791 38.475C175.241 38.1583 174.641 38 173.991 38C173.358 38 172.758 38.1667 172.191 38.5C171.641 38.8167 171.191 39.2833 170.841 39.9C170.508 40.5167 170.341 41.2417 170.341 42.075C170.341 42.9083 170.508 43.6333 170.841 44.25C171.191 44.8667 171.641 45.3417 172.191 45.675C172.758 45.9917 173.358 46.15 173.991 46.15C174.641 46.15 175.241 45.9833 175.791 45.65C176.358 45.3167 176.808 44.8417 177.141 44.225C177.491 43.6083 177.666 42.875 177.666 42.025ZM187.285 30.5V49H183.785V30.5H187.285ZM189.843 42.025C189.843 40.625 190.118 39.3833 190.668 38.3C191.234 37.2167 191.993 36.3833 192.943 35.8C193.909 35.2167 194.984 34.925 196.168 34.925C197.201 34.925 198.101 35.1333 198.868 35.55C199.651 35.9667 200.276 36.4917 200.743 37.125V35.15H204.268V49H200.743V46.975C200.293 47.625 199.668 48.1667 198.868 48.6C198.084 49.0167 197.176 49.225 196.143 49.225C194.976 49.225 193.909 48.925 192.943 48.325C191.993 47.725 191.234 46.8833 190.668 45.8C190.118 44.7 189.843 43.4417 189.843 42.025ZM200.743 42.075C200.743 41.225 200.576 40.5 200.243 39.9C199.909 39.2833 199.459 38.8167 198.893 38.5C198.326 38.1667 197.718 38 197.068 38C196.418 38 195.818 38.1583 195.268 38.475C194.718 38.7917 194.268 39.2583 193.918 39.875C193.584 40.475 193.418 41.1917 193.418 42.025C193.418 42.8583 193.584 43.5917 193.918 44.225C194.268 44.8417 194.718 45.3167 195.268 45.65C195.834 45.9833 196.434 46.15 197.068 46.15C197.718 46.15 198.326 45.9917 198.893 45.675C199.459 45.3417 199.909 44.875 200.243 44.275C200.576 43.6583 200.743 42.925 200.743 42.075ZM220.936 35.15L212.361 55.55H208.636L211.636 48.65L206.086 35.15H210.011L213.586 44.825L217.211 35.15H220.936Z" fill="#706E9A"/>
<path d="M75.1562 25.0227C74.5895 25.0227 74.1023 24.9498 73.6946 24.804C73.2869 24.6615 72.9472 24.4725 72.6754 24.2372C72.407 24.0052 72.1932 23.7566 72.0341 23.4915L72.9688 22.8352C73.0748 22.9744 73.209 23.1335 73.3714 23.3125C73.5339 23.4948 73.7559 23.6522 74.0376 23.7848C74.3227 23.9207 74.6955 23.9886 75.1562 23.9886C75.7727 23.9886 76.2815 23.8395 76.6825 23.5412C77.0836 23.2429 77.2841 22.7756 77.2841 22.1392V20.5881H77.1847C77.0985 20.7273 76.9759 20.8996 76.8168 21.1051C76.661 21.3073 76.4356 21.4879 76.1406 21.647C75.849 21.8028 75.4545 21.8807 74.9574 21.8807C74.3409 21.8807 73.7874 21.7348 73.2969 21.4432C72.8097 21.1515 72.4235 20.7273 72.1385 20.1705C71.8568 19.6136 71.7159 18.9375 71.7159 18.142C71.7159 17.3598 71.8535 16.6787 72.1286 16.0987C72.4036 15.5154 72.7865 15.0646 73.277 14.7464C73.7675 14.425 74.3343 14.2642 74.9773 14.2642C75.4744 14.2642 75.8688 14.3471 76.1605 14.5128C76.4555 14.6752 76.6809 14.8608 76.8366 15.0696C76.9957 15.2751 77.1184 15.4441 77.2045 15.5767H77.3239V14.3636H78.4574V22.2188C78.4574 22.875 78.3082 23.4086 78.0099 23.8196C77.715 24.2339 77.3172 24.5372 76.8168 24.7294C76.3196 24.925 75.7661 25.0227 75.1562 25.0227ZM75.1165 20.8267C75.5871 20.8267 75.9848 20.719 76.3097 20.5036C76.6345 20.2881 76.8814 19.9782 77.0504 19.5739C77.2195 19.1695 77.304 18.6856 77.304 18.1222C77.304 17.572 77.2211 17.0864 77.0554 16.6655C76.8897 16.2446 76.6444 15.9148 76.3196 15.6761C75.9948 15.4375 75.5938 15.3182 75.1165 15.3182C74.6193 15.3182 74.205 15.4441 73.8736 15.696C73.5455 15.9479 73.2985 16.286 73.1328 16.7102C72.9704 17.1345 72.8892 17.6051 72.8892 18.1222C72.8892 18.6525 72.9721 19.1214 73.1378 19.5291C73.3068 19.9335 73.5554 20.2517 73.8835 20.4837C74.215 20.7124 74.6259 20.8267 75.1165 20.8267ZM85.2068 22.1591C84.471 22.1591 83.8363 21.9967 83.3027 21.6719C82.7724 21.3438 82.3631 20.8864 82.0747 20.2997C81.7897 19.7098 81.6472 19.0237 81.6472 18.2415C81.6472 17.4593 81.7897 16.7699 82.0747 16.1733C82.3631 15.5734 82.7641 15.1061 83.2778 14.7713C83.7949 14.4332 84.3981 14.2642 85.0875 14.2642C85.4852 14.2642 85.878 14.3305 86.2658 14.4631C86.6536 14.5956 87.0065 14.8111 87.3247 15.1094C87.6429 15.4044 87.8964 15.7955 88.0854 16.2827C88.2743 16.7699 88.3687 17.3698 88.3687 18.0824V18.5795H82.4824V17.5653H87.1756C87.1756 17.1345 87.0894 16.75 86.917 16.4119C86.748 16.0739 86.5061 15.8071 86.1912 15.6115C85.8796 15.416 85.5117 15.3182 85.0875 15.3182C84.6202 15.3182 84.2158 15.4342 83.8744 15.6662C83.5364 15.8949 83.2762 16.1932 83.0939 16.5611C82.9116 16.929 82.8205 17.3234 82.8205 17.7443V18.4205C82.8205 18.9972 82.9199 19.486 83.1187 19.8871C83.3209 20.2848 83.601 20.5881 83.9589 20.7969C84.3169 21.0024 84.7329 21.1051 85.2068 21.1051C85.5151 21.1051 85.7935 21.062 86.042 20.9759C86.2939 20.8864 86.511 20.7538 86.6933 20.5781C86.8756 20.3991 87.0165 20.1771 87.1159 19.9119L88.2494 20.2301C88.1301 20.6146 87.9296 20.9527 87.6479 21.2443C87.3661 21.5327 87.0181 21.758 86.6038 21.9205C86.1895 22.0795 85.7239 22.1591 85.2068 22.1591ZM94.8746 14.3636V15.358H90.9172V14.3636H94.8746ZM92.0706 12.5341H93.2439V19.8125C93.2439 20.1439 93.292 20.3925 93.3881 20.5582C93.4875 20.7206 93.6134 20.83 93.7659 20.8864C93.9217 20.9394 94.0857 20.9659 94.2581 20.9659C94.3874 20.9659 94.4934 20.9593 94.5763 20.946C94.6591 20.9295 94.7254 20.9162 94.7751 20.9062L95.0138 21.9602C94.9342 21.9901 94.8232 22.0199 94.6807 22.0497C94.5382 22.0829 94.3575 22.0994 94.1388 22.0994C93.8073 22.0994 93.4825 22.0282 93.1643 21.8857C92.8495 21.7431 92.5876 21.526 92.3788 21.2344C92.1733 20.9427 92.0706 20.5748 92.0706 20.1307V12.5341ZM103.377 22V14.3636H104.55V22H103.377ZM103.974 13.0909C103.745 13.0909 103.548 13.013 103.382 12.8572C103.22 12.7015 103.138 12.5142 103.138 12.2955C103.138 12.0767 103.22 11.8894 103.382 11.7337C103.548 11.5779 103.745 11.5 103.974 11.5C104.202 11.5 104.398 11.5779 104.56 11.7337C104.726 11.8894 104.809 12.0767 104.809 12.2955C104.809 12.5142 104.726 12.7015 104.56 12.8572C104.398 13.013 104.202 13.0909 103.974 13.0909ZM111.42 14.3636V15.358H107.463V14.3636H111.42ZM108.616 12.5341H109.79V19.8125C109.79 20.1439 109.838 20.3925 109.934 20.5582C110.033 20.7206 110.159 20.83 110.312 20.8864C110.467 20.9394 110.631 20.9659 110.804 20.9659C110.933 20.9659 111.039 20.9593 111.122 20.946C111.205 20.9295 111.271 20.9162 111.321 20.9062L111.559 21.9602C111.48 21.9901 111.369 22.0199 111.226 22.0497C111.084 22.0829 110.903 22.0994 110.684 22.0994C110.353 22.0994 110.028 22.0282 109.71 21.8857C109.395 21.7431 109.133 21.526 108.925 21.2344C108.719 20.9427 108.616 20.5748 108.616 20.1307V12.5341ZM123.025 22.1591C122.336 22.1591 121.731 21.995 121.21 21.6669C120.693 21.3388 120.289 20.8797 119.997 20.2898C119.709 19.6998 119.565 19.0104 119.565 18.2216C119.565 17.4261 119.709 16.7318 119.997 16.1385C120.289 15.5452 120.693 15.0845 121.21 14.7564C121.731 14.4283 122.336 14.2642 123.025 14.2642C123.714 14.2642 124.318 14.4283 124.835 14.7564C125.355 15.0845 125.759 15.5452 126.048 16.1385C126.339 16.7318 126.485 17.4261 126.485 18.2216C126.485 19.0104 126.339 19.6998 126.048 20.2898C125.759 20.8797 125.355 21.3388 124.835 21.6669C124.318 21.995 123.714 22.1591 123.025 22.1591ZM123.025 21.1051C123.549 21.1051 123.98 20.9709 124.318 20.7024C124.656 20.4339 124.906 20.081 125.068 19.6435C125.231 19.206 125.312 18.732 125.312 18.2216C125.312 17.7112 125.231 17.2356 125.068 16.7947C124.906 16.3539 124.656 15.9976 124.318 15.7259C123.98 15.4541 123.549 15.3182 123.025 15.3182C122.501 15.3182 122.07 15.4541 121.732 15.7259C121.394 15.9976 121.144 16.3539 120.982 16.7947C120.819 17.2356 120.738 17.7112 120.738 18.2216C120.738 18.732 120.819 19.206 120.982 19.6435C121.144 20.081 121.394 20.4339 121.732 20.7024C122.07 20.9709 122.501 21.1051 123.025 21.1051ZM130.85 17.4062V22H129.676V14.3636H130.81V15.5568H130.909C131.088 15.169 131.36 14.8575 131.725 14.6222C132.089 14.3835 132.56 14.2642 133.136 14.2642C133.653 14.2642 134.106 14.3703 134.494 14.5824C134.881 14.7912 135.183 15.1094 135.399 15.5369C135.614 15.9612 135.722 16.4981 135.722 17.1477V22H134.548V17.2273C134.548 16.6274 134.393 16.16 134.081 15.8253C133.769 15.4872 133.342 15.3182 132.798 15.3182C132.424 15.3182 132.089 15.3994 131.794 15.5618C131.502 15.7242 131.272 15.9612 131.103 16.2727C130.934 16.5843 130.85 16.9621 130.85 17.4062Z" fill="#706E9A"/>
</svg>
